<?xml version="1.0" encoding="utf-8"?>
<!-- Generator: Adobe Illustrator 24.2.1, SVG Export Plug-In . SVG Version: 6.00 Build 0)  -->
<svg version="1.1" id="Layer_1" xmlns:ev="http://www.w3.org/2001/xml-events"
	 xmlns="http://www.w3.org/2000/svg" xmlns:xlink="http://www.w3.org/1999/xlink" x="0px" y="0px" viewBox="0 0 537.5 540.9"
	 style="enable-background:new 0 0 537.5 540.9;" xml:space="preserve">
<style type="text/css">
	.st0{fill-rule:evenodd;clip-rule:evenodd;fill:#FFF9AE;fill-opacity:0.4;}
	.st1{fill-rule:evenodd;clip-rule:evenodd;fill:#060725;}
	.st2{fill-rule:evenodd;clip-rule:evenodd;fill:#FFF9AE;}
	.st3{fill-rule:evenodd;clip-rule:evenodd;fill:#00AEEF;}
	.st4{fill-rule:evenodd;clip-rule:evenodd;fill:#00A94F;}
	.st5{fill-rule:evenodd;clip-rule:evenodd;fill:#F15D22;}
	.st6{fill-rule:evenodd;clip-rule:evenodd;fill:#E31B23;}
</style>
<g>
	<g id="group30-1" transform="translate(26.7764,-26.9181)">
		<g id="shape21-2">
			<g id="shadow21-3" transform="matrix(1.09,0,0,1.09,-21.7764,-26.7634)">
				<path class="st0" d="M259,69.1c-124,0-228.8,100.6-228.8,224.3c0,4.1,0,232.3,0,232.3H259c124.3,0,224.9-104.5,224.9-228.2
					C483.9,173.5,383.1,69.1,259,69.1z"/>
			</g>
			<path class="st1" d="M260.4,69.1c-124,0-228.8,100.6-228.8,224.3c0,4.1,0,232.3,0,232.3h228.8c124.3,0,224.9-104.5,224.9-228.2
				C485.3,173.5,384.4,69.1,260.4,69.1z"/>
		</g>
		<g id="group29-7" transform="translate(80.5442,-80.2605)">
			<g id="shape22-8" transform="translate(8.24321,-8.88404)">
				<g id="shadow22-9" transform="matrix(1.09,0,0,1.09,-13.7907,-34.9447)">
					<path class="st0" d="M172.4,245.1c-76.9,0-139.2,62.4-139.2,139.4c0,23.1,5.8,45.6,16.8,66l-25.4,80.8l90.7-20.3
						c70.3,31.6,152.7,0.3,184.4-69.5c31.4-70.1,0.3-152.3-70-183.9c-17.9-8-37.5-12.4-57-12.4H172.4z"/>
				</g>
				<path class="st2" d="M173.8,245.1c-76.9,0-139.2,62.4-139.2,139.4c0,23.1,5.8,45.6,16.8,66l-25.4,80.8l90.7-20.3
					c70.3,31.6,152.7,0.3,184.4-69.5c31.4-70.1,0.3-152.3-70-183.9c-17.9-8-37.5-12.4-57-12.4H173.8z"/>
			</g>
			<g id="shape23-13" transform="translate(8.24321,0)">
				<g id="shadow23-14" transform="matrix(1.09,0,0,1.09,-14.5047,-37.1577)">
					<path class="st0" d="M283.3,290.8c46.6,61,34.7,148.4-26.5,194.9c-40.5,30.8-94.8,37.1-141.4,16.2l-90.7,20.9l92.3-11
						c66.4,38.8,151.6,16.5,190.7-49.7C340.6,406.3,330.4,335.3,283.3,290.8z"/>
				</g>
				<path class="st3" d="M284.6,290.6c46.6,61,34.7,148.4-26.5,194.9c-40.5,30.8-94.8,37.1-141.4,16.2l-90.7,20.9l92.3-11
					c66.4,38.8,151.6,16.5,190.7-49.7C341.9,406.1,331.7,335.2,284.6,290.6z"/>
			</g>
			<g id="shape24-18" transform="translate(8.24321,-8.5908)">
				<g id="shadow24-19" transform="matrix(1.09,0,0,1.09,-13.7924,-36.3171)">
					<path class="st0" d="M257.6,273.7c52.6,55.8,50.2,143.8-5.8,196.6c-37.2,34.9-90.7,46.7-139.2,30.8l-87.9,30.2l90.7-20.6
						c70,31.6,152.7,0.6,184.4-69.3C326.2,382.3,308.9,313,257.6,273.7z"/>
				</g>
				<path class="st4" d="M259,273.6c52.6,55.8,50.2,143.8-5.8,196.6C216,505.1,162.5,516.9,114,501l-87.9,30.2l90.7-20.6
					c70,31.6,152.7,0.6,184.4-69.3C327.6,382.2,310.2,313,259,273.6z"/>
			</g>
			<g id="shape25-23" transform="translate(8.24321,-8.88404)">
				<g id="shadow25-24" transform="matrix(1.09,0,0,1.09,-12.4097,-34.977)">
					<path class="st0" d="M58.3,453.5c-29.5-70.9,4.1-152.3,75.2-181.7c51-20.9,109.7-10.2,149.7,27.8
						c-46.6-61-134.2-72.8-195.4-26.4C32.9,314.9,16.9,390.2,50,450.4l-25.4,80.8L58.3,453.5z"/>
				</g>
				<path class="st5" d="M59.7,453.4c-29.5-70.9,4.1-152.3,75.2-181.7c51-20.9,109.7-10.2,149.7,27.8
					c-46.6-61-134.2-72.8-195.4-26.4c-54.8,41.8-70.8,117.1-37.8,177.3l-25.4,80.8L59.7,453.4z"/>
			</g>
			<g id="shape26-28" transform="translate(-7.99361E-14,-8.5908)">
				<g id="shadow26-29" transform="matrix(1.09,0,0,1.09,-11.5502,-34.2437)">
					<path class="st0" d="M58.1,449.6C21.5,382,46.6,297.6,114.4,261c48.2-26.1,107.5-21.2,151.3,12.1
						c-53.2-55.5-141.4-58-197.1-4.9c-49.9,47-57.9,122.9-19,179.2l-16.8,83.3L58.1,449.6z"/>
				</g>
				<path class="st6" d="M59.7,449.6C23,382,48.1,297.6,115.9,261c48.2-26.1,107.5-21.2,151.3,12.1c-53.2-55.5-141.4-58-197.1-4.9
					c-49.9,47-57.9,122.9-19,179.2l-16.8,83.3L59.7,449.6z"/>
			</g>
		</g>
	</g>
</g>
</svg>
