<?xml version="1.0" encoding="UTF-8" standalone="no"?>
<!DOCTYPE svg PUBLIC "-//W3C//DTD SVG 1.1//EN" "http://www.w3.org/Graphics/SVG/1.1/DTD/svg11.dtd">
<!-- Generated by Microsoft Visio, SVG Export github.svg Page-1 -->
<svg xmlns="http://www.w3.org/2000/svg" xmlns:xlink="http://www.w3.org/1999/xlink" xmlns:ev="http://www.w3.org/2001/xml-events"
		width="8.01042in" height="7.82433in" viewBox="0 0 576.75 563.352" xml:space="preserve" color-interpolation-filters="sRGB"
		class="st2">
	<style type="text/css">
	<![CDATA[
		.st1 {fill:none;stroke:none;stroke-linecap:round;stroke-linejoin:round;stroke-width:0.75}
		.st2 {fill:none;fill-rule:evenodd;font-size:12px;overflow:visible;stroke-linecap:square;stroke-miterlimit:3}
	]]>
	</style>

	<g>
		<title>Page-1</title>
		<g id="shape1-1" transform="translate(0.375,-0.375)">
			<title>Sheet.1</title>
			<rect x="0" y="0.749985" width="576" height="562.602" class="st1"/>
			<svg viewBox="0 0 2031.1 1983.8" enable-background="new" color-interpolation-filters="sRGB" height="562.602"
					preserveAspectRatio="none" width="576" x="0" y="0.749985">
				<defs>
					<clipPath id="mfid1">
						<rect id="mfid2" x="0" y="0" width="2031.1" height="1983.8"/>
					</clipPath>
				</defs>
				<g clip-path="url(#mfid1)">
					<defs>
						<g id="mfid3">
							<path
									d="M1006,0 C451,0 0,451 0,1006 C0,1451 288,1828 688,1961 C739,1971 757,1940 757,1913 C757,1889 756,1810 756,1726 C476,1787 417,1607 417,1607 C371,1491 305,1460 305,1460 C214,1397 312,1398 312,1398 C413,1406 466,1502 466,1502 C556,1656 701,1612 759,1586 C768,1521 794,1476 823,1451 C599,1426 364,1340 364,954 C364,844 404,754 468,684 C457,658 423,556 478,417 C478,417 562,390 755,521 C835,498 921,487 1006,487 C1092,487 1178,498 1259,521 C1451,390 1535,417 1535,417 C1590,556 1555,658 1545,684 C1610,754 1649,844 1649,954 C1649,1340 1413,1426 1189,1450 C1225,1482 1257,1543 1257,1637 C1257,1772 1256,1880 1256,1913 C1256,1940 1274,1971 1325,1961 C1725,1828 2013,1451 2013,1006 C2013,451 1562,0 1006,0 Z"/>
						</g>
					</defs>
					<g fill-rule="evenodd" stroke-width="2.6446" stroke="none" fill="#1b1817">
						<use xlink:href="#mfid3" stroke="none"/>
					</g>
					<defs>
						<g id="mfid4">
							<path
									d="M381,1445 C379,1450 371,1452 364,1448 C357,1445 353,1438 355,1433 C357,1428 365,1426 372,1430 C380,1433 384,1440 381,1445 Z"/>
						</g>
					</defs>
					<g stroke-width="2.6446" stroke="none" fill="#1b1817">
						<use xlink:href="#mfid4" stroke="none"/>
					</g>
					<defs>
						<g id="mfid5">
							<path
									d="M422,1491 C417,1495 408,1493 401,1486 C395,1479 394,1469 398,1465 C403,1461 413,1463 419,1470 C426,1477 427,1486 422,1491 Z"/>
						</g>
					</defs>
					<g stroke-width="2.6446" stroke="none" fill="#1b1817">
						<use xlink:href="#mfid5" stroke="none"/>
					</g>
					<defs>
						<g id="mfid6">
							<path
									d="M462,1548 C455,1553 445,1549 439,1540 C433,1531 433,1520 439,1516 C446,1512 455,1515 462,1524 C468,1533 468,1544 462,1548 Z"/>
						</g>
					</defs>
					<g stroke-width="2.6446" stroke="none" fill="#1b1817">
						<use xlink:href="#mfid6" stroke="none"/>
					</g>
					<defs>
						<g id="mfid7">
							<path
									d="M516,1604 C511,1611 499,1609 490,1601 C481,1593 479,1581 484,1575 C490,1569 502,1571 511,1579 C519,1587 522,1598 516,1604 Z"/>
						</g>
					</defs>
					<g stroke-width="2.6446" stroke="none" fill="#1b1817">
						<use xlink:href="#mfid7" stroke="none"/>
					</g>
					<defs>
						<g id="mfid8">
							<path
									d="M591,1637 C589,1645 577,1648 566,1645 C554,1642 547,1632 549,1624 C552,1617 563,1613 575,1616 C586,1620 593,1629 591,1637 Z"/>
						</g>
					</defs>
					<g stroke-width="2.6446" stroke="none" fill="#1b1817">
						<use xlink:href="#mfid8" stroke="none"/>
					</g>
					<defs>
						<g id="mfid9">
							<path
									d="M673,1643 C674,1651 664,1658 652,1658 C640,1659 630,1652 630,1644 C630,1635 640,1629 652,1628 C664,1628 673,1635 673,1643 Z"/>
						</g>
					</defs>
					<g stroke-width="2.6446" stroke="none" fill="#1b1817">
						<use xlink:href="#mfid9" stroke="none"/>
					</g>
					<defs>
						<g id="mfid10">
							<path
									d="M750,1630 C751,1638 743,1646 731,1649 C720,1651 709,1646 707,1638 C706,1629 714,1621 726,1619 C738,1617 749,1622 750,1630 Z"/>
						</g>
					</defs>
					<g stroke-width="2.6446" stroke="none" fill="#1b1817">
						<use xlink:href="#mfid10" stroke="none"/>
					</g>
				</g>
			</svg>
			<rect x="0" y="0.749985" width="576" height="562.602" class="st1"/>
		</g>
	</g>
</svg>
