<?xml version="1.0" encoding="UTF-8" standalone="no"?>
<!DOCTYPE svg PUBLIC "-//W3C//DTD SVG 1.1//EN" "http://www.w3.org/Graphics/SVG/1.1/DTD/svg11.dtd">
<!-- Generated by Microsoft Visio, SVG Export ziti-overview.svg Page-1 -->
<svg xmlns="http://www.w3.org/2000/svg" xmlns:xlink="http://www.w3.org/1999/xlink" xmlns:ev="http://www.w3.org/2001/xml-events"
		width="9.38862in" height="3.92191in" viewBox="0 0 675.98 282.378" xml:space="preserve" color-interpolation-filters="sRGB"
		class="st47">
	<style type="text/css">
	<![CDATA[
		.st1 {fill:#feffff;stroke:none;stroke-linecap:round;stroke-linejoin:round;stroke-width:0.5}
		.st2 {marker-end:url(#mrkr4-11);marker-start:url(#mrkr4-9);stroke:#7030a0;stroke-linecap:butt;stroke-width:1.5}
		.st3 {fill:#7030a0;fill-opacity:1;stroke:#7030a0;stroke-opacity:1;stroke-width:0.45454545454545}
		.st4 {fill:#cbe7ff;stroke:none;stroke-linecap:butt;stroke-width:1}
		.st5 {fill:#ffffff;stroke:none;stroke-linecap:butt;stroke-width:1}
		.st6 {fill:none}
		.st7 {stroke:#1078ff;stroke-linecap:round;stroke-linejoin:round;stroke-width:1.465}
		.st8 {fill:none;stroke:#0273fa;stroke-linecap:butt;stroke-width:1.465}
		.st9 {fill:none;stroke:none;stroke-linecap:round;stroke-linejoin:round;stroke-width:0.5}
		.st10 {fill:#0b64d7;font-family:Calibri;font-size:1.5em}
		.st11 {fill:#1078ff;font-family:Calibri;font-size:1.00001em}
		.st12 {fill:#cbe6ff;stroke:none;stroke-linecap:butt;stroke-width:1}
		.st13 {fill:none;stroke:#1078ff;stroke-linecap:round;stroke-linejoin:round;stroke-width:1.5}
		.st14 {stroke:#1078ff;stroke-linecap:round;stroke-linejoin:round;stroke-width:1.5}
		.st15 {fill:#c00000;font-family:Calibri;font-size:1.00001em}
		.st16 {fill:#fbd3d1;stroke:#b8160e;stroke-linecap:butt;stroke-width:1}
		.st17 {fill:#ffffff;stroke:#b8160e;stroke-linecap:butt;stroke-width:1}
		.st18 {fill:none;stroke:#b8160e;stroke-linecap:round;stroke-linejoin:round;stroke-width:1.5}
		.st19 {stroke:#b8160e;stroke-linecap:round;stroke-linejoin:round;stroke-width:1.5}
		.st20 {fill:#ffffff;stroke:#7030a0;stroke-linecap:butt;stroke-width:1}
		.st21 {fill:#cbe6ff;stroke:#7030a0;stroke-linecap:butt;stroke-width:1}
		.st22 {stroke:#7030a0;stroke-linecap:round;stroke-linejoin:round;stroke-width:1.5}
		.st23 {fill:none;stroke:#7030a0;stroke-linecap:round;stroke-linejoin:round;stroke-width:1.5}
		.st24 {marker-end:url(#mrkr13-265);stroke:#b8160e;stroke-linecap:butt;stroke-width:1.5}
		.st25 {fill:#b8160e;fill-opacity:1;stroke:#b8160e;stroke-opacity:1;stroke-width:0.37313432835821}
		.st26 {fill:#fbd3d1;stroke:none;stroke-linecap:butt;stroke-width:1}
		.st27 {fill:#1078ff;stroke:none;stroke-linecap:butt;stroke-width:1}
		.st28 {visibility:visible}
		.st29 {fill:#000000;fill-opacity:0.2;filter:url(#filter_4);stroke:#000000;stroke-linecap:round;stroke-linejoin:round;stroke-opacity:0.2}
		.st30 {fill:#dfe5ff;stroke:#0b64d7;stroke-linecap:round;stroke-linejoin:round;stroke-width:0.5}
		.st31 {fill:#000000;font-family:Calibri;font-size:1.33333em;font-weight:bold}
		.st32 {fill:#ffffff;stroke:#354f7b;stroke-linecap:butt;stroke-width:1}
		.st33 {fill:#cbe6ff;stroke:#354f7b;stroke-linecap:butt;stroke-width:1}
		.st34 {stroke:#354f7b;stroke-linecap:round;stroke-linejoin:round;stroke-width:1.5}
		.st35 {fill:none;stroke:#354f7b;stroke-linecap:round;stroke-linejoin:round;stroke-width:1.5}
		.st36 {fill:none;stroke:#7030a0;stroke-dasharray:6,6;stroke-linecap:round;stroke-linejoin:round;stroke-width:2}
		.st37 {stroke:#7030a0;stroke-linecap:round;stroke-linejoin:round;stroke-width:2}
		.st38 {fill:#7030a0;font-family:Calibri;font-size:1.00001em}
		.st39 {fill:#d6baeb;stroke:none;stroke-linecap:butt;stroke-width:1}
		.st40 {stroke:#7030a0;stroke-linecap:round;stroke-linejoin:round;stroke-width:1.477}
		.st41 {fill:none;stroke:#7030a0;stroke-linecap:round;stroke-linejoin:round;stroke-width:1.477}
		.st42 {fill:#0273fa;stroke:#7030a0;stroke-linecap:butt;stroke-width:1}
		.st43 {stroke:#c00000;stroke-linecap:butt;stroke-width:0.5}
		.st44 {stroke:#c00000;stroke-linecap:round;stroke-linejoin:round;stroke-width:0.5}
		.st45 {fill:#c00000;font-family:Calibri;font-size:0.833336em}
		.st46 {font-size:1em}
		.st47 {fill:none;fill-rule:evenodd;font-size:12px;overflow:visible;stroke-linecap:square;stroke-miterlimit:3}
	]]>
	</style>

	<defs id="Markers">
		<g id="lend4">
			<path d="M 2 1 L 0 0 L 2 -1 L 2 1 " style="stroke:none"/>
		</g>
		<marker id="mrkr4-9" class="st3" refX="4.16" orient="auto" markerUnits="strokeWidth" overflow="visible">
			<use xlink:href="#lend4" transform="scale(2.2) "/>
		</marker>
		<marker id="mrkr4-11" class="st3" refX="-4.4" orient="auto" markerUnits="strokeWidth" overflow="visible">
			<use xlink:href="#lend4" transform="scale(-2.2,-2.2) "/>
		</marker>
		<g id="lend13">
			<path d="M 3 1 L 0 0 L 3 -1 L 3 1 " style="stroke:none"/>
		</g>
		<marker id="mrkr13-265" class="st25" refX="-8.04" orient="auto" markerUnits="strokeWidth" overflow="visible">
			<use xlink:href="#lend13" transform="scale(-2.68,-2.68) "/>
		</marker>
	</defs>
	<defs id="Filters">
		<filter id="filter_4">
			<feGaussianBlur stdDeviation="4"/>
		</filter>
	</defs>
	<g>
		<title>Page-1</title>
		<g id="shape606-1" transform="translate(14.2303,-3.1277)">
			<title>Sheet.606</title>
			<rect x="0" y="3.37769" width="661.5" height="279" class="st1"/>
		</g>
		<g id="shape340-3" transform="translate(121.329,-74.9885)">
			<title>Dynamic connector.340</title>
			<path d="M6.24 273.38 L6.6 273.38 L55.13 273.38" class="st2"/>
		</g>
		<g id="group350-12" transform="translate(254.23,-50.2983)">
			<title>Sheet.350</title>
			<g id="group177-13" transform="translate(-51.0001,0)">
				<title>Sheet.177</title>
				<g id="shape179-14" transform="translate(19.0626,0)">
					<title>Sheet.179</title>
					<path d="M213.33 232.17 L212.4 232.17 C208.25 217.8 195.07 207.29 179.42 207.29 C172.6 207.29 166.24 209.32 160.9
								 212.77 C157.43 190.13 138.01 172.78 114.51 172.78 C93.4 172.78 75.55 186.74 69.6 205.98 C66.92 205.25
								 64.13 204.83 61.22 204.83 C45.12 204.83 31.8 216.68 29.37 232.17 L24.11 232.17 C10.86 232.17 0 243.06
								 0 256.38 L0 258.16 C0 271.48 10.86 282.38 24.11 282.38 L213.33 282.38 C226.59 282.38 237.44 271.48
								 237.44 258.16 L237.44 256.38 C237.44 243.06 226.59 232.17 213.33 232.17 Z" class="st4"/>
				</g>
				<g id="shape180-16" transform="translate(38.2272,0)">
					<title>Sheet.180</title>
					<path d="M177.86 240.52 L177.07 240.52 C173.6 228.54 162.62 219.78 149.59 219.78 C143.89 219.78 138.6 221.46
								 134.14 224.34 C131.25 205.47 115.06 191.01 95.46 191.01 C77.87 191.01 62.99 202.64 58.03 218.68
								 C55.8 218.08 53.46 217.73 51.04 217.73 C37.62 217.73 26.52 227.61 24.48 240.52 L20.1 240.52 C9.05
								 240.52 0 249.6 0 260.71 L0 262.19 C0 273.28 9.05 282.38 20.1 282.38 L177.86 282.38 C188.91 282.38
								 197.96 273.28 197.96 262.19 L197.96 260.71 C197.96 249.6 188.91 240.52 177.86 240.52 Z"
							class="st5"/>
				</g>
				<g id="shape181-18" transform="translate(113.734,473.392) scale(1,-1)">
					<title>Sheet.181</title>
					<path d="M52.79 264.45 C45.81 275.24 33.72 282.38 19.95 282.38 C12.66 282.38 5.84 280.38 0 276.9 L52.79 264.45
								 Z" class="st6"/>
					<path d="M52.79 264.45 C45.81 275.24 33.72 282.38 19.95 282.38 C12.66 282.38 5.84 280.38 0 276.9" class="st7"/>
				</g>
				<g id="shape182-21" transform="translate(19.0626,455.16) scale(1,-1)">
					<title>Sheet.182</title>
					<path d="M213.33 222.99 L212.4 222.99 C208.25 237.36 195.07 247.87 179.42 247.87 C172.6 247.87 166.24 245.84
								 160.9 242.39 C157.43 265.03 138.01 282.38 114.51 282.38 C93.4 282.38 75.55 268.42 69.6 249.18 C66.92
								 249.91 64.13 250.33 61.22 250.33 C45.12 250.33 31.8 238.48 29.37 222.99 L24.11 222.99 C10.86 222.99
								 0 212.1 0 198.78 L0 197 C0 183.68 10.86 172.78 24.11 172.78 L213.33 172.78 C226.59 172.78 237.44
								 183.68 237.44 197 L237.44 198.78 C237.44 212.1 226.59 222.99 213.33 222.99 Z" class="st8"/>
				</g>
				<g id="shape183-23" transform="translate(80.8849,487.062) scale(1,-1)">
					<title>Sheet.183</title>
					<path d="M0 282.38 C9.24 282.38 16.73 274.84 16.73 265.56 L0 282.38 Z" class="st6"/>
					<path d="M0 282.38 C9.24 282.38 16.73 274.84 16.73 265.56" class="st7"/>
				</g>
			</g>
			<g id="shape210-26" transform="translate(-12.7501,0)">
				<title>Sheet.210</title>
				<desc>Local Computer Network</desc>
				<rect x="0" y="255.611" width="201.383" height="26.7669" class="st9"/>
				<text x="9.38" y="274.39" class="st10">Local Computer Network</text>			</g>
		</g>
		<g id="group374-29" transform="translate(176.23,-27.2878)">
			<title>Sheet.374</title>
			<g id="shape360-30" transform="translate(-4.50001,0)">
				<title>Sheet.360</title>
				<desc>Edge-Router</desc>
				<rect x="0" y="259.878" width="81" height="22.5" class="st9"/>
				<text x="4" y="274.73" class="st11">Edge-Router</text>			</g>
			<g id="group372-33" transform="translate(8.22419,-21.2813)">
				<title>Sheet.372</title>
				<g id="group361-34" transform="translate(0.0116202,0)">
					<title>Sheet.361</title>
					<g id="shape362-35" transform="translate(1.19904E-14,-40.5184)">
						<title>Sheet.362</title>
						<path d="M54.99 275.14 L0 275.14 L0 282.38 L54.99 282.38 L54.99 275.14 Z" class="st12"/>
					</g>
					<g id="shape363-37" transform="translate(1.19904E-14,-20.2592)">
						<title>Sheet.363</title>
						<path d="M54.99 275.14 L0 275.14 L0 282.38 L54.99 282.38 L54.99 275.14 Z" class="st12"/>
					</g>
					<g id="shape364-39">
						<title>Sheet.364</title>
						<path d="M54.99 275.14 L0 275.14 L0 282.38 L54.99 282.38 L54.99 275.14 Z" class="st12"/>
					</g>
				</g>
				<g id="group371-41" transform="translate(0,-6.84375)">
					<title>Sheet.371</title>
					<g id="shape367-42">
						<title>Sheet.367</title>
						<path d="M54.99 267.64 L0 267.64 L0 282.38 L54.99 282.38 L54.99 267.64 Z" class="st5"/>
					</g>
					<g id="shape368-44" transform="translate(0.13662,-20.3825)">
						<title>Sheet.368</title>
						<path d="M54.99 267.64 L0 267.64 L0 282.38 L54.99 282.38 L54.99 267.64 Z" class="st5"/>
					</g>
					<g id="shape369-46" transform="translate(0.13662,-40.015)">
						<title>Sheet.369</title>
						<path d="M54.99 267.64 L0 267.64 L0 282.38 L54.99 282.38 L54.99 267.64 Z" class="st5"/>
					</g>
				</g>
				<g id="group370-48">
					<title>Sheet.370</title>
					<g id="shape351-49" transform="translate(-5.19584E-14,503.943) scale(1,-1)">
						<title>Sheet.351</title>
						<path d="M0 244.18 L0.01 221.57 L55 221.6 L54.97 282.38 L20.23 282.35 L0.17 282.13 L0 244.18 Z"
								class="st13"/>
					</g>
					<g id="shape352-51" transform="translate(0.800675,-41.1296)">
						<title>Sheet.352</title>
						<path d="M0 282.38 L53.7 282.38 L0 282.38 Z" class="st6"/>
						<path d="M0 282.38 L53.7 282.38" class="st14"/>
					</g>
					<g id="shape353-54" transform="translate(0.237436,-20.8704)">
						<title>Sheet.353</title>
						<path d="M0 282.38 L54.26 282.38 L0 282.38 Z" class="st6"/>
						<path d="M0 282.38 L54.26 282.38" class="st14"/>
					</g>
					<g id="group366-57" transform="translate(8.43956,-6)">
						<title>Sheet.366</title>
						<g id="shape354-58" transform="translate(37.6209,515.556) scale(1,-1)">
							<title>Sheet.354</title>
							<path d="M0 282.38 L0 276.59 L0 282.38 Z" class="st6"/>
							<path d="M0 282.38 L0 276.59" class="st14"/>
						</g>
						<g id="shape355-61" transform="translate(31.8375,515.556) scale(1,-1)">
							<title>Sheet.355</title>
							<path d="M0 282.38 L0 276.59 L0 282.38 Z" class="st6"/>
							<path d="M0 282.38 L0 276.59" class="st14"/>
						</g>
						<g id="shape356-64" transform="translate(26.0484,515.556) scale(1,-1)">
							<title>Sheet.356</title>
							<path d="M0 282.38 L0 276.59 L0 282.38 Z" class="st6"/>
							<path d="M0 282.38 L0 276.59" class="st14"/>
						</g>
						<g id="shape357-67" transform="translate(-1.19904E-14,556.075) scale(1,-1)">
							<title>Sheet.357</title>
							<path d="M4.34 273.7 L0 278.04 L4.34 282.38 L8.68 278.04 L4.34 273.7 Z" class="st13"/>
						</g>
						<g id="shape358-69" transform="translate(-1.19904E-14,535.815) scale(1,-1)">
							<title>Sheet.358</title>
							<path d="M4.34 273.7 L0 278.04 L4.34 282.38 L8.68 278.04 L4.34 273.7 Z" class="st13"/>
						</g>
						<g id="shape359-71" transform="translate(-1.19904E-14,515.556) scale(1,-1)">
							<title>Sheet.359</title>
							<path d="M4.34 273.7 L0 278.04 L4.34 282.38 L8.68 278.04 L4.34 273.7 Z" class="st13"/>
						</g>
					</g>
				</g>
			</g>
		</g>
		<g id="group375-73" transform="translate(432.73,-27.2878)">
			<title>Sheet.375</title>
			<g id="shape376-74" transform="translate(-4.5,0)">
				<title>Sheet.376</title>
				<desc>Edge-Router</desc>
				<rect x="0" y="259.878" width="81" height="22.5" class="st9"/>
				<text x="10.11" y="274.73" class="st11">Edge-Router</text>			</g>
			<g id="group377-77" transform="translate(8.22419,-21.2813)">
				<title>Sheet.377</title>
				<g id="group378-78" transform="translate(0.0116202,0)">
					<title>Sheet.378</title>
					<g id="shape379-79" transform="translate(1.19904E-14,-40.5184)">
						<title>Sheet.379</title>
						<path d="M54.99 275.14 L0 275.14 L0 282.38 L54.99 282.38 L54.99 275.14 Z" class="st12"/>
					</g>
					<g id="shape380-81" transform="translate(1.19904E-14,-20.2592)">
						<title>Sheet.380</title>
						<path d="M54.99 275.14 L0 275.14 L0 282.38 L54.99 282.38 L54.99 275.14 Z" class="st12"/>
					</g>
					<g id="shape381-83">
						<title>Sheet.381</title>
						<path d="M54.99 275.14 L0 275.14 L0 282.38 L54.99 282.38 L54.99 275.14 Z" class="st12"/>
					</g>
				</g>
				<g id="group382-85" transform="translate(0,-6.84375)">
					<title>Sheet.382</title>
					<g id="shape383-86">
						<title>Sheet.383</title>
						<path d="M54.99 267.64 L0 267.64 L0 282.38 L54.99 282.38 L54.99 267.64 Z" class="st5"/>
					</g>
					<g id="shape384-88" transform="translate(0.13662,-20.3825)">
						<title>Sheet.384</title>
						<path d="M54.99 267.64 L0 267.64 L0 282.38 L54.99 282.38 L54.99 267.64 Z" class="st5"/>
					</g>
					<g id="shape385-90" transform="translate(0.13662,-40.015)">
						<title>Sheet.385</title>
						<path d="M54.99 267.64 L0 267.64 L0 282.38 L54.99 282.38 L54.99 267.64 Z" class="st5"/>
					</g>
				</g>
				<g id="group386-92">
					<title>Sheet.386</title>
					<g id="shape387-93" transform="translate(-5.19584E-14,503.943) scale(1,-1)">
						<title>Sheet.387</title>
						<path d="M0 244.18 L0.01 221.57 L55 221.6 L54.97 282.38 L20.23 282.35 L0.17 282.13 L0 244.18 Z"
								class="st13"/>
					</g>
					<g id="shape388-95" transform="translate(0.800675,-41.1296)">
						<title>Sheet.388</title>
						<path d="M0 282.38 L53.7 282.38 L0 282.38 Z" class="st6"/>
						<path d="M0 282.38 L53.7 282.38" class="st14"/>
					</g>
					<g id="shape389-98" transform="translate(0.237436,-20.8704)">
						<title>Sheet.389</title>
						<path d="M0 282.38 L54.26 282.38 L0 282.38 Z" class="st6"/>
						<path d="M0 282.38 L54.26 282.38" class="st14"/>
					</g>
					<g id="group390-101" transform="translate(8.43956,-6)">
						<title>Sheet.390</title>
						<g id="shape391-102" transform="translate(37.6209,515.556) scale(1,-1)">
							<title>Sheet.391</title>
							<path d="M0 282.38 L0 276.59 L0 282.38 Z" class="st6"/>
							<path d="M0 282.38 L0 276.59" class="st14"/>
						</g>
						<g id="shape392-105" transform="translate(31.8375,515.556) scale(1,-1)">
							<title>Sheet.392</title>
							<path d="M0 282.38 L0 276.59 L0 282.38 Z" class="st6"/>
							<path d="M0 282.38 L0 276.59" class="st14"/>
						</g>
						<g id="shape393-108" transform="translate(26.0484,515.556) scale(1,-1)">
							<title>Sheet.393</title>
							<path d="M0 282.38 L0 276.59 L0 282.38 Z" class="st6"/>
							<path d="M0 282.38 L0 276.59" class="st14"/>
						</g>
						<g id="shape394-111" transform="translate(-1.19904E-14,556.075) scale(1,-1)">
							<title>Sheet.394</title>
							<path d="M4.34 273.7 L0 278.04 L4.34 282.38 L8.68 278.04 L4.34 273.7 Z" class="st13"/>
						</g>
						<g id="shape395-113" transform="translate(-1.19904E-14,535.815) scale(1,-1)">
							<title>Sheet.395</title>
							<path d="M4.34 273.7 L0 278.04 L4.34 282.38 L8.68 278.04 L4.34 273.7 Z" class="st13"/>
						</g>
						<g id="shape396-115" transform="translate(-1.19904E-14,515.556) scale(1,-1)">
							<title>Sheet.396</title>
							<path d="M4.34 273.7 L0 278.04 L4.34 282.38 L8.68 278.04 L4.34 273.7 Z" class="st13"/>
						</g>
					</g>
				</g>
			</g>
		</g>
		<g id="group397-117" transform="translate(304.281,-132.975)">
			<title>Sheet.397</title>
			<g id="shape398-118" transform="translate(0,-81)">
				<title>Sheet.398</title>
				<desc>Controller</desc>
				<rect x="0" y="259.878" width="72" height="22.5" class="st9"/>
				<text x="11.39" y="274.73" class="st15">Controller</text>			</g>
			<g id="group399-121" transform="translate(8.22419,-21.2813)">
				<title>Sheet.399</title>
				<g id="group400-122" transform="translate(0.0116202,0)">
					<title>Sheet.400</title>
					<g id="shape401-123" transform="translate(1.19904E-14,-40.5184)">
						<title>Sheet.401</title>
						<path d="M54.99 275.14 L0 275.14 L0 282.38 L54.99 282.38 L54.99 275.14 Z" class="st16"/>
					</g>
					<g id="shape402-125" transform="translate(1.19904E-14,-20.2592)">
						<title>Sheet.402</title>
						<path d="M54.99 275.14 L0 275.14 L0 282.38 L54.99 282.38 L54.99 275.14 Z" class="st16"/>
					</g>
					<g id="shape403-127">
						<title>Sheet.403</title>
						<path d="M54.99 275.14 L0 275.14 L0 282.38 L54.99 282.38 L54.99 275.14 Z" class="st16"/>
					</g>
				</g>
				<g id="group404-129" transform="translate(0,-6.84375)">
					<title>Sheet.404</title>
					<g id="shape405-130">
						<title>Sheet.405</title>
						<path d="M54.99 267.64 L0 267.64 L0 282.38 L54.99 282.38 L54.99 267.64 Z" class="st17"/>
					</g>
					<g id="shape406-132" transform="translate(0.13662,-20.3825)">
						<title>Sheet.406</title>
						<path d="M54.99 267.64 L0 267.64 L0 282.38 L54.99 282.38 L54.99 267.64 Z" class="st17"/>
					</g>
					<g id="shape407-134" transform="translate(0.13662,-40.015)">
						<title>Sheet.407</title>
						<path d="M54.99 267.64 L0 267.64 L0 282.38 L54.99 282.38 L54.99 267.64 Z" class="st17"/>
					</g>
				</g>
				<g id="group408-136">
					<title>Sheet.408</title>
					<g id="shape409-137" transform="translate(-5.19584E-14,503.943) scale(1,-1)">
						<title>Sheet.409</title>
						<path d="M0 244.18 L0.01 221.57 L55 221.6 L54.97 282.38 L20.23 282.35 L0.17 282.13 L0 244.18 Z"
								class="st18"/>
					</g>
					<g id="shape410-139" transform="translate(0.800675,-41.1296)">
						<title>Sheet.410</title>
						<path d="M0 282.38 L53.7 282.38 L0 282.38 Z" class="st6"/>
						<path d="M0 282.38 L53.7 282.38" class="st19"/>
					</g>
					<g id="shape411-142" transform="translate(0.237436,-20.8704)">
						<title>Sheet.411</title>
						<path d="M0 282.38 L54.26 282.38 L0 282.38 Z" class="st6"/>
						<path d="M0 282.38 L54.26 282.38" class="st19"/>
					</g>
					<g id="group412-145" transform="translate(8.43956,-6)">
						<title>Sheet.412</title>
						<g id="shape413-146" transform="translate(37.6209,515.556) scale(1,-1)">
							<title>Sheet.413</title>
							<path d="M0 282.38 L0 276.59 L0 282.38 Z" class="st6"/>
							<path d="M0 282.38 L0 276.59" class="st19"/>
						</g>
						<g id="shape414-149" transform="translate(31.8375,515.556) scale(1,-1)">
							<title>Sheet.414</title>
							<path d="M0 282.38 L0 276.59 L0 282.38 Z" class="st6"/>
							<path d="M0 282.38 L0 276.59" class="st19"/>
						</g>
						<g id="shape415-152" transform="translate(26.0484,515.556) scale(1,-1)">
							<title>Sheet.415</title>
							<path d="M0 282.38 L0 276.59 L0 282.38 Z" class="st6"/>
							<path d="M0 282.38 L0 276.59" class="st19"/>
						</g>
						<g id="shape416-155" transform="translate(-1.19904E-14,556.075) scale(1,-1)">
							<title>Sheet.416</title>
							<path d="M4.34 273.7 L0 278.04 L4.34 282.38 L8.68 278.04 L4.34 273.7 Z" class="st18"/>
						</g>
						<g id="shape417-157" transform="translate(-1.19904E-14,535.815) scale(1,-1)">
							<title>Sheet.417</title>
							<path d="M4.34 273.7 L0 278.04 L4.34 282.38 L8.68 278.04 L4.34 273.7 Z" class="st18"/>
						</g>
						<g id="shape418-159" transform="translate(-1.19904E-14,515.556) scale(1,-1)">
							<title>Sheet.418</title>
							<path d="M4.34 273.7 L0 278.04 L4.34 282.38 L8.68 278.04 L4.34 273.7 Z" class="st18"/>
						</g>
					</g>
				</g>
			</g>
		</g>
		<g id="shape429-161" transform="translate(365.23,-90.0061)">
			<title>Sheet.429</title>
			<path d="M25.54 282.38 L1.74 282.38 C0.79 282.38 0 281.59 0 280.63 L0 256.84 C0 255.88 0.79 255.1 1.74 255.1 L25.54 255.1
						 C26.5 255.1 27.28 255.88 27.28 256.84 L27.28 280.63 C27.28 281.59 26.5 282.38 25.54 282.38 Z" class="st5"/>
		</g>
		<g id="shape441-163" transform="translate(495.954,-60.9063)">
			<title>Dynamic connector.441</title>
			<path d="M6.24 273.38 L6.6 273.38 L45.82 273.38" class="st2"/>
		</g>
		<g id="shape442-170" transform="translate(239.58,-85.8632)">
			<title>Dynamic connector.442</title>
			<path d="M6.07 277.43 L6.42 277.35 L39.46 269.41" class="st2"/>
		</g>
		<g id="shape444-177" transform="translate(392.512,-102.21)">
			<title>Dynamic connector.444</title>
			<path d="M6.02 286.35 L6.36 286.45 L42.15 296.31" class="st2"/>
		</g>
		<g id="group445-184" transform="translate(397.012,-104.081)">
			<title>surface1.445</title>
			<g id="shape446-185">
				<title>Sheet.446</title>
				<path d="M9.46 281.86 L4.73 282.38 L0 281.85 L0.01 275.54 L4.74 275.02 L9.46 275.55 L9.46 281.86 Z" class="st20"/>
			</g>
			<g id="shape447-187" transform="translate(4.72704,5.68434E-14)">
				<title>Sheet.447</title>
				<path d="M0.01 275.02 L4.74 275.55 L4.73 281.86 L0 282.38 L0.01 275.02 Z" class="st21"/>
			</g>
			<g id="shape448-189" transform="translate(2.1096,552.673) scale(1,-1)">
				<title>Sheet.448</title>
				<path d="M0 277.36 L0 281.33 L2.63 282.38 L5.26 281.32 L5.25 277.35 L0 277.36 Z" class="st6"/>
				<path d="M0 277.36 L0 281.33 L2.63 282.38 L5.26 281.32 L5.25 277.35" class="st22"/>
			</g>
			<g id="shape449-192" transform="translate(7.36013,559.506) scale(1,-1)">
				<title>Sheet.449</title>
				<path d="M0 282.38 L3.15 282.37 L0 282.38 Z" class="st6"/>
				<path d="M0 282.38 L3.15 282.37" class="st22"/>
			</g>
			<g id="shape450-195" transform="translate(7.35839,561.081) scale(1,-1)">
				<title>Sheet.450</title>
				<path d="M0 282.38 L3.15 282.37 L0 282.38 Z" class="st6"/>
				<path d="M0 282.38 L3.15 282.37" class="st22"/>
			</g>
			<g id="shape451-198" transform="translate(7.35666,562.657) scale(1,-1)">
				<title>Sheet.451</title>
				<path d="M0 282.38 L3.15 282.37 L0 282.38 Z" class="st6"/>
				<path d="M0 282.38 L3.15 282.37" class="st22"/>
			</g>
			<g id="shape452-201" transform="translate(0,557.401) scale(1,-1)">
				<title>Sheet.452</title>
				<path d="M9.46 275.54 L4.73 275.02 L0 275.55 L0.01 281.86 L4.74 282.38 L9.46 281.85 L9.46 275.54 Z" class="st23"/>
			</g>
		</g>
		<g id="group453-203" transform="translate(333.73,-89.1628)">
			<title>surface1.453</title>
			<g id="shape454-204">
				<title>Sheet.454</title>
				<path d="M9.46 281.86 L4.73 282.38 L0 281.85 L0.01 275.54 L4.74 275.02 L9.46 275.55 L9.46 281.86 Z" class="st20"/>
			</g>
			<g id="shape455-206" transform="translate(4.72704,5.68434E-14)">
				<title>Sheet.455</title>
				<path d="M0.01 275.02 L4.74 275.55 L4.73 281.86 L0 282.38 L0.01 275.02 Z" class="st21"/>
			</g>
			<g id="shape456-208" transform="translate(2.1096,552.673) scale(1,-1)">
				<title>Sheet.456</title>
				<path d="M0 277.36 L0 281.33 L2.63 282.38 L5.26 281.32 L5.25 277.35 L0 277.36 Z" class="st6"/>
				<path d="M0 277.36 L0 281.33 L2.63 282.38 L5.26 281.32 L5.25 277.35" class="st22"/>
			</g>
			<g id="shape457-211" transform="translate(7.36013,559.506) scale(1,-1)">
				<title>Sheet.457</title>
				<path d="M0 282.38 L3.15 282.37 L0 282.38 Z" class="st6"/>
				<path d="M0 282.38 L3.15 282.37" class="st22"/>
			</g>
			<g id="shape458-214" transform="translate(7.35839,561.081) scale(1,-1)">
				<title>Sheet.458</title>
				<path d="M0 282.38 L3.15 282.37 L0 282.38 Z" class="st6"/>
				<path d="M0 282.38 L3.15 282.37" class="st22"/>
			</g>
			<g id="shape459-217" transform="translate(7.35666,562.657) scale(1,-1)">
				<title>Sheet.459</title>
				<path d="M0 282.38 L3.15 282.37 L0 282.38 Z" class="st6"/>
				<path d="M0 282.38 L3.15 282.37" class="st22"/>
			</g>
			<g id="shape460-220" transform="translate(0,557.401) scale(1,-1)">
				<title>Sheet.460</title>
				<path d="M9.46 275.54 L4.73 275.02 L0 275.55 L0.01 281.86 L4.74 282.38 L9.46 281.85 L9.46 275.54 Z" class="st23"/>
			</g>
		</g>
		<g id="group461-222" transform="translate(243.343,-96.2058)">
			<title>surface1.461</title>
			<g id="shape462-223">
				<title>Sheet.462</title>
				<path d="M9.46 281.86 L4.73 282.38 L0 281.85 L0.01 275.54 L4.74 275.02 L9.46 275.55 L9.46 281.86 Z" class="st20"/>
			</g>
			<g id="shape463-225" transform="translate(4.72704,5.68434E-14)">
				<title>Sheet.463</title>
				<path d="M0.01 275.02 L4.74 275.55 L4.73 281.86 L0 282.38 L0.01 275.02 Z" class="st21"/>
			</g>
			<g id="shape464-227" transform="translate(2.1096,552.673) scale(1,-1)">
				<title>Sheet.464</title>
				<path d="M0 277.36 L0 281.33 L2.63 282.38 L5.26 281.32 L5.25 277.35 L0 277.36 Z" class="st6"/>
				<path d="M0 277.36 L0 281.33 L2.63 282.38 L5.26 281.32 L5.25 277.35" class="st22"/>
			</g>
			<g id="shape465-230" transform="translate(7.36013,559.506) scale(1,-1)">
				<title>Sheet.465</title>
				<path d="M0 282.38 L3.15 282.37 L0 282.38 Z" class="st6"/>
				<path d="M0 282.38 L3.15 282.37" class="st22"/>
			</g>
			<g id="shape466-233" transform="translate(7.35839,561.081) scale(1,-1)">
				<title>Sheet.466</title>
				<path d="M0 282.38 L3.15 282.37 L0 282.38 Z" class="st6"/>
				<path d="M0 282.38 L3.15 282.37" class="st22"/>
			</g>
			<g id="shape467-236" transform="translate(7.35666,562.657) scale(1,-1)">
				<title>Sheet.467</title>
				<path d="M0 282.38 L3.15 282.37 L0 282.38 Z" class="st6"/>
				<path d="M0 282.38 L3.15 282.37" class="st22"/>
			</g>
			<g id="shape468-239" transform="translate(0,557.401) scale(1,-1)">
				<title>Sheet.468</title>
				<path d="M9.46 275.54 L4.73 275.02 L0 275.55 L0.01 281.86 L4.74 282.38 L9.46 281.85 L9.46 275.54 Z" class="st23"/>
			</g>
		</g>
		<g id="group469-241" transform="translate(500.23,-72.5808)">
			<title>surface1.469</title>
			<g id="shape470-242">
				<title>Sheet.470</title>
				<path d="M9.46 281.86 L4.73 282.38 L0 281.85 L0.01 275.54 L4.74 275.02 L9.46 275.55 L9.46 281.86 Z" class="st20"/>
			</g>
			<g id="shape471-244" transform="translate(4.72704,5.68434E-14)">
				<title>Sheet.471</title>
				<path d="M0.01 275.02 L4.74 275.55 L4.73 281.86 L0 282.38 L0.01 275.02 Z" class="st21"/>
			</g>
			<g id="shape472-246" transform="translate(2.1096,552.673) scale(1,-1)">
				<title>Sheet.472</title>
				<path d="M0 277.36 L0 281.33 L2.63 282.38 L5.26 281.32 L5.25 277.35 L0 277.36 Z" class="st6"/>
				<path d="M0 277.36 L0 281.33 L2.63 282.38 L5.26 281.32 L5.25 277.35" class="st22"/>
			</g>
			<g id="shape473-249" transform="translate(7.36013,559.506) scale(1,-1)">
				<title>Sheet.473</title>
				<path d="M0 282.38 L3.15 282.37 L0 282.38 Z" class="st6"/>
				<path d="M0 282.38 L3.15 282.37" class="st22"/>
			</g>
			<g id="shape474-252" transform="translate(7.35839,561.081) scale(1,-1)">
				<title>Sheet.474</title>
				<path d="M0 282.38 L3.15 282.37 L0 282.38 Z" class="st6"/>
				<path d="M0 282.38 L3.15 282.37" class="st22"/>
			</g>
			<g id="shape475-255" transform="translate(7.35666,562.657) scale(1,-1)">
				<title>Sheet.475</title>
				<path d="M0 282.38 L3.15 282.37 L0 282.38 Z" class="st6"/>
				<path d="M0 282.38 L3.15 282.37" class="st22"/>
			</g>
			<g id="shape476-258" transform="translate(0,557.401) scale(1,-1)">
				<title>Sheet.476</title>
				<path d="M9.46 275.54 L4.73 275.02 L0 275.55 L0.01 281.86 L4.74 282.38 L9.46 281.85 L9.46 275.54 Z" class="st23"/>
			</g>
		</g>
		<g id="shape477-260" transform="translate(212.762,-110.163)">
			<title>Dynamic connector.477</title>
			<path d="M0 282.38 L0 209.49 A5.04 5.04 0 0 1 5.04 204.45 L87.73 204.45" class="st24"/>
		</g>
		<g id="shape479-266" transform="translate(477.905,-110.163)">
			<title>Dynamic connector.479</title>
			<path d="M0 282.38 L0 209.11 A5.04 5.04 -180 0 0 -5.04 204.07 L-98.22 204.07" class="st24"/>
		</g>
		<g id="shape480-271" transform="translate(369.096,-117.288)">
			<title>Dynamic connector.480</title>
			<path d="M0 282.38 L-19.47 255.21" class="st24"/>
		</g>
		<g id="shape481-276" transform="translate(309.392,-117.288)">
			<title>Dynamic connector.481</title>
			<path d="M0 282.38 L20.63 255.04" class="st24"/>
		</g>
		<g id="group482-281" transform="translate(485.974,-111.956)">
			<title>surface1.482</title>
			<g id="shape483-282">
				<title>Sheet.483</title>
				<path d="M9.46 281.86 L4.73 282.38 L0 281.85 L0.01 275.54 L4.74 275.02 L9.46 275.55 L9.46 281.86 Z" class="st17"/>
			</g>
			<g id="shape484-284" transform="translate(4.72704,5.68434E-14)">
				<title>Sheet.484</title>
				<path d="M0.01 275.02 L4.74 275.55 L4.73 281.86 L0 282.38 L0.01 275.02 Z" class="st26"/>
			</g>
			<g id="shape485-286" transform="translate(2.1096,552.673) scale(1,-1)">
				<title>Sheet.485</title>
				<path d="M0 277.36 L0 281.33 L2.63 282.38 L5.26 281.32 L5.25 277.35 L0 277.36 Z" class="st6"/>
				<path d="M0 277.36 L0 281.33 L2.63 282.38 L5.26 281.32 L5.25 277.35" class="st19"/>
			</g>
			<g id="shape486-289" transform="translate(7.36013,559.506) scale(1,-1)">
				<title>Sheet.486</title>
				<path d="M0 282.38 L3.15 282.37 L0 282.38 Z" class="st6"/>
				<path d="M0 282.38 L3.15 282.37" class="st19"/>
			</g>
			<g id="shape487-292" transform="translate(7.35839,561.081) scale(1,-1)">
				<title>Sheet.487</title>
				<path d="M0 282.38 L3.15 282.37 L0 282.38 Z" class="st6"/>
				<path d="M0 282.38 L3.15 282.37" class="st19"/>
			</g>
			<g id="shape488-295" transform="translate(7.35666,562.657) scale(1,-1)">
				<title>Sheet.488</title>
				<path d="M0 282.38 L3.15 282.37 L0 282.38 Z" class="st6"/>
				<path d="M0 282.38 L3.15 282.37" class="st19"/>
			</g>
			<g id="shape489-298" transform="translate(0,557.401) scale(1,-1)">
				<title>Sheet.489</title>
				<path d="M9.46 275.54 L4.73 275.02 L0 275.55 L0.01 281.86 L4.74 282.38 L9.46 281.85 L9.46 275.54 Z" class="st18"/>
			</g>
		</g>
		<g id="group490-300" transform="translate(359.218,-122.363)">
			<title>surface1.490</title>
			<g id="shape491-301">
				<title>Sheet.491</title>
				<path d="M9.46 281.86 L4.73 282.38 L0 281.85 L0.01 275.54 L4.74 275.02 L9.46 275.55 L9.46 281.86 Z" class="st17"/>
			</g>
			<g id="shape492-303" transform="translate(4.72704,5.68434E-14)">
				<title>Sheet.492</title>
				<path d="M0.01 275.02 L4.74 275.55 L4.73 281.86 L0 282.38 L0.01 275.02 Z" class="st26"/>
			</g>
			<g id="shape493-305" transform="translate(2.1096,552.673) scale(1,-1)">
				<title>Sheet.493</title>
				<path d="M0 277.36 L0 281.33 L2.63 282.38 L5.26 281.32 L5.25 277.35 L0 277.36 Z" class="st6"/>
				<path d="M0 277.36 L0 281.33 L2.63 282.38 L5.26 281.32 L5.25 277.35" class="st19"/>
			</g>
			<g id="shape494-308" transform="translate(7.36013,559.506) scale(1,-1)">
				<title>Sheet.494</title>
				<path d="M0 282.38 L3.15 282.37 L0 282.38 Z" class="st6"/>
				<path d="M0 282.38 L3.15 282.37" class="st19"/>
			</g>
			<g id="shape495-311" transform="translate(7.35839,561.081) scale(1,-1)">
				<title>Sheet.495</title>
				<path d="M0 282.38 L3.15 282.37 L0 282.38 Z" class="st6"/>
				<path d="M0 282.38 L3.15 282.37" class="st19"/>
			</g>
			<g id="shape496-314" transform="translate(7.35666,562.657) scale(1,-1)">
				<title>Sheet.496</title>
				<path d="M0 282.38 L3.15 282.37 L0 282.38 Z" class="st6"/>
				<path d="M0 282.38 L3.15 282.37" class="st19"/>
			</g>
			<g id="shape497-317" transform="translate(0,557.401) scale(1,-1)">
				<title>Sheet.497</title>
				<path d="M9.46 275.54 L4.73 275.02 L0 275.55 L0.01 281.86 L4.74 282.38 L9.46 281.85 L9.46 275.54 Z" class="st18"/>
			</g>
		</g>
		<g id="group498-319" transform="translate(311.23,-122.363)">
			<title>surface1.498</title>
			<g id="shape499-320">
				<title>Sheet.499</title>
				<path d="M9.46 281.86 L4.73 282.38 L0 281.85 L0.01 275.54 L4.74 275.02 L9.46 275.55 L9.46 281.86 Z" class="st17"/>
			</g>
			<g id="shape500-322" transform="translate(4.72704,5.68434E-14)">
				<title>Sheet.500</title>
				<path d="M0.01 275.02 L4.74 275.55 L4.73 281.86 L0 282.38 L0.01 275.02 Z" class="st26"/>
			</g>
			<g id="shape501-324" transform="translate(2.1096,552.673) scale(1,-1)">
				<title>Sheet.501</title>
				<path d="M0 277.36 L0 281.33 L2.63 282.38 L5.26 281.32 L5.25 277.35 L0 277.36 Z" class="st6"/>
				<path d="M0 277.36 L0 281.33 L2.63 282.38 L5.26 281.32 L5.25 277.35" class="st19"/>
			</g>
			<g id="shape502-327" transform="translate(7.36013,559.506) scale(1,-1)">
				<title>Sheet.502</title>
				<path d="M0 282.38 L3.15 282.37 L0 282.38 Z" class="st6"/>
				<path d="M0 282.38 L3.15 282.37" class="st19"/>
			</g>
			<g id="shape503-330" transform="translate(7.35839,561.081) scale(1,-1)">
				<title>Sheet.503</title>
				<path d="M0 282.38 L3.15 282.37 L0 282.38 Z" class="st6"/>
				<path d="M0 282.38 L3.15 282.37" class="st19"/>
			</g>
			<g id="shape504-333" transform="translate(7.35666,562.657) scale(1,-1)">
				<title>Sheet.504</title>
				<path d="M0 282.38 L3.15 282.37 L0 282.38 Z" class="st6"/>
				<path d="M0 282.38 L3.15 282.37" class="st19"/>
			</g>
			<g id="shape505-336" transform="translate(0,557.401) scale(1,-1)">
				<title>Sheet.505</title>
				<path d="M9.46 275.54 L4.73 275.02 L0 275.55 L0.01 281.86 L4.74 282.38 L9.46 281.85 L9.46 275.54 Z" class="st18"/>
			</g>
		</g>
		<g id="group515-338" transform="translate(212.23,-111.956)">
			<title>surface1.515</title>
			<g id="shape516-339">
				<title>Sheet.516</title>
				<path d="M9.46 281.86 L4.73 282.38 L0 281.85 L0.01 275.54 L4.74 275.02 L9.46 275.55 L9.46 281.86 Z" class="st17"/>
			</g>
			<g id="shape517-341" transform="translate(4.72704,5.68434E-14)">
				<title>Sheet.517</title>
				<path d="M0.01 275.02 L4.74 275.55 L4.73 281.86 L0 282.38 L0.01 275.02 Z" class="st26"/>
			</g>
			<g id="shape518-343" transform="translate(2.1096,552.673) scale(1,-1)">
				<title>Sheet.518</title>
				<path d="M0 277.36 L0 281.33 L2.63 282.38 L5.26 281.32 L5.25 277.35 L0 277.36 Z" class="st6"/>
				<path d="M0 277.36 L0 281.33 L2.63 282.38 L5.26 281.32 L5.25 277.35" class="st19"/>
			</g>
			<g id="shape519-346" transform="translate(7.36013,559.506) scale(1,-1)">
				<title>Sheet.519</title>
				<path d="M0 282.38 L3.15 282.37 L0 282.38 Z" class="st6"/>
				<path d="M0 282.38 L3.15 282.37" class="st19"/>
			</g>
			<g id="shape520-349" transform="translate(7.35839,561.081) scale(1,-1)">
				<title>Sheet.520</title>
				<path d="M0 282.38 L3.15 282.37 L0 282.38 Z" class="st6"/>
				<path d="M0 282.38 L3.15 282.37" class="st19"/>
			</g>
			<g id="shape521-352" transform="translate(7.35666,562.657) scale(1,-1)">
				<title>Sheet.521</title>
				<path d="M0 282.38 L3.15 282.37 L0 282.38 Z" class="st6"/>
				<path d="M0 282.38 L3.15 282.37" class="st19"/>
			</g>
			<g id="shape522-355" transform="translate(0,557.401) scale(1,-1)">
				<title>Sheet.522</title>
				<path d="M9.46 275.54 L4.73 275.02 L0 275.55 L0.01 281.86 L4.74 282.38 L9.46 281.85 L9.46 275.54 Z" class="st18"/>
			</g>
		</g>
		<g id="group525-357" transform="translate(27.7303,-27.2878)">
			<title>Sheet.525</title>
			<g id="group320-358">
				<title>Sheet.320</title>
				<g id="group193-359" transform="translate(100.816,0) scale(-1,1)">
					<title>Sheet.193</title>
					<g id="group194-360">
						<title>surface1</title>
						<g id="shape195-361" transform="translate(33.8931,-0.309885)">
							<title>Sheet.195</title>
							<path d="M0 282.38 L20.03 282.38 L20.03 262.34 L0 262.34 L0 282.38 Z" class="st12"/>
						</g>
						<g id="shape196-363" transform="translate(0.151905,-20.0211)">
							<title>Sheet.196</title>
							<path d="M67.1 282.38 L0 282.38 L0 267.58 L67.1 267.58 L67.1 282.38 Z" class="st12"/>
						</g>
						<g id="shape197-365" transform="translate(4.95604E-13,485.868) scale(1,-1)">
							<title>Sheet.197</title>
							<path d="M67.02 223.52 L0 223.52 L0 282.38 L67.02 223.52 Z" class="st6"/>
							<path d="M67.02 223.52 L0 223.52 L0 282.38" class="st14"/>
						</g>
						<g id="shape198-368" transform="translate(0,485.558) scale(1,-1)">
							<title>Sheet.198</title>
							<path d="M0 282.38 L88.74 282.38 L88.74 250.95 L0 282.38 Z" class="st6"/>
							<path d="M0 282.38 L88.74 282.38 L88.74 250.95" class="st14"/>
						</g>
						<g id="shape199-371" transform="translate(24.1894,-0.309886)">
							<title>Sheet.199</title>
							<path d="M0 282.38 L39.44 282.38 L0 282.38 Z" class="st6"/>
							<path d="M0 282.38 L39.44 282.38" class="st14"/>
						</g>
						<g id="shape200-374" transform="translate(-5.07594E-13,-34.8227)">
							<title>Sheet.200</title>
							<path d="M0 282.38 L66.86 282.38 L0 282.38 Z" class="st6"/>
							<path d="M0 282.38 L66.86 282.38" class="st14"/>
						</g>
						<g id="shape201-377" transform="translate(72.0577,521.614) scale(1,-1)">
							<title>Sheet.201</title>
							<path d="M28.76 239.24 L0 239.24 L0 282.38 L28.76 282.38 L28.76 239.24 Z" class="st13"/>
						</g>
						<g id="shape202-379" transform="translate(61.6249,497.887) scale(1,-1)">
							<title>Sheet.202</title>
							<path d="M0 282.38 L14.8 267.59 L0 282.38 Z" class="st6"/>
							<path d="M0 282.38 L14.8 267.59" class="st14"/>
						</g>
						<g id="shape203-382" transform="translate(73.9535,495.42) scale(1,-1)">
							<title>Sheet.203</title>
							<path d="M0 282.38 L4.93 277.44 L0 282.38 Z" class="st6"/>
							<path d="M0 282.38 L4.93 277.44" class="st14"/>
						</g>
						<g id="shape204-385" transform="translate(54.0782,544.88) scale(1,-1)">
							<title>Sheet.204</title>
							<path d="M0 282.38 L0 262.81 L0 282.38 Z" class="st6"/>
							<path d="M0 282.38 L0 262.81" class="st14"/>
						</g>
						<g id="shape205-388" transform="translate(41.5977,-24.9611)">
							<title>Sheet.205</title>
							<path d="M4.93 279.91 C4.93 281.27 3.83 282.38 2.47 282.38 C1.1 282.38 0 281.27 0 279.91 C0 278.55 1.1
										 277.44 2.47 277.44 C3.83 277.44 4.93 278.55 4.93 279.91 Z" class="st27"/>
						</g>
						<g id="shape206-390" transform="translate(34.0511,545.032) scale(1,-1)">
							<title>Sheet.206</title>
							<path d="M0 282.38 L0 263.43 L0 282.38 Z" class="st6"/>
							<path d="M0 282.38 L0 263.43" class="st14"/>
						</g>
						<g id="shape207-393" transform="translate(84.8481,-2.58239)">
							<title>Sheet.207</title>
							<path d="M3.48 280.65 C3.48 281.6 2.7 282.38 1.74 282.38 C0.78 282.38 0 281.6 0 280.65 C0 279.69 0.78
										 278.91 1.74 278.91 C2.7 278.91 3.48 279.69 3.48 280.65 Z" class="st27"/>
						</g>
						<g id="shape208-395" transform="translate(74.4153,-8.17857)">
							<title>Sheet.208</title>
							<path d="M23.86 282.38 L0 282.38 L0 249.88 L23.86 249.88 L23.86 282.38 Z" class="st12"/>
						</g>
					</g>
				</g>
				<g id="shape315-397" transform="translate(54,-36.9014)">
					<title>Circle</title>
					<desc>SDK</desc>
					<g id="shadow315-398" transform="matrix(1,0,0.259988,0.16884,-73.4147,234.701)" class="st28">
						<path d="M0 262.58 A19.7993 19.7993 0 1 1 39.6 262.58 A19.7993 19.7993 0 0 1 0 262.58 Z" class="st29"/>
					</g>
					<path d="M0 262.58 A19.7993 19.7993 0 1 1 39.6 262.58 A19.7993 19.7993 0 0 1 0 262.58 Z" class="st30"/>
					<text x="6.6" y="267.38" class="st31">SDK</text>				</g>
			</g>
			<g id="group342-403" transform="translate(104.238,-59.209)">
				<title>surface1</title>
				<g id="shape343-404">
					<title>Sheet.343</title>
					<path d="M9.46 281.86 L4.73 282.38 L0 281.85 L0.01 275.54 L4.74 275.02 L9.46 275.55 L9.46 281.86 Z"
							class="st20"/>
				</g>
				<g id="shape344-406" transform="translate(4.72704,5.68434E-14)">
					<title>Sheet.344</title>
					<path d="M0.01 275.02 L4.74 275.55 L4.73 281.86 L0 282.38 L0.01 275.02 Z" class="st21"/>
				</g>
				<g id="shape345-408" transform="translate(2.1096,552.673) scale(1,-1)">
					<title>Sheet.345</title>
					<path d="M0 277.36 L0 281.33 L2.63 282.38 L5.26 281.32 L5.25 277.35 L0 277.36 Z" class="st6"/>
					<path d="M0 277.36 L0 281.33 L2.63 282.38 L5.26 281.32 L5.25 277.35" class="st22"/>
				</g>
				<g id="shape346-411" transform="translate(7.36013,559.506) scale(1,-1)">
					<title>Sheet.346</title>
					<path d="M0 282.38 L3.15 282.37 L0 282.38 Z" class="st6"/>
					<path d="M0 282.38 L3.15 282.37" class="st22"/>
				</g>
				<g id="shape347-414" transform="translate(7.35839,561.081) scale(1,-1)">
					<title>Sheet.347</title>
					<path d="M0 282.38 L3.15 282.37 L0 282.38 Z" class="st6"/>
					<path d="M0 282.38 L3.15 282.37" class="st22"/>
				</g>
				<g id="shape348-417" transform="translate(7.35666,562.657) scale(1,-1)">
					<title>Sheet.348</title>
					<path d="M0 282.38 L3.15 282.37 L0 282.38 Z" class="st6"/>
					<path d="M0 282.38 L3.15 282.37" class="st22"/>
				</g>
				<g id="shape349-420" transform="translate(0,557.401) scale(1,-1)">
					<title>Sheet.349</title>
					<path d="M9.46 275.54 L4.73 275.02 L0 275.55 L0.01 281.86 L4.74 282.38 L9.46 281.85 L9.46 275.54 Z"
							class="st23"/>
				</g>
			</g>
		</g>
		<g id="shape526-422" transform="translate(115.532,-97.9905)">
			<title>Dynamic connector.526</title>
			<path d="M0 282.38 L0 176.93 A5.04 5.04 0 0 1 5.04 171.89 L185.05 171.89" class="st24"/>
		</g>
		<g id="shape528-427" transform="translate(285.461,-90.0061)">
			<title>Sheet.528</title>
			<path d="M25.54 282.38 L1.74 282.38 C0.79 282.38 0 281.59 0 280.63 L0 256.84 C0 255.88 0.79 255.1 1.74 255.1 L25.54 255.1
						 C26.5 255.1 27.28 255.88 27.28 256.84 L27.28 280.63 C27.28 281.59 26.5 282.38 25.54 282.38 Z" class="st5"/>
		</g>
		<g id="group566-429" transform="translate(132.724,-57.9558)">
			<title>surface1.566</title>
			<g id="shape567-430">
				<title>Sheet.567</title>
				<path d="M9.46 281.86 L4.73 282.38 L0 281.85 L0.01 275.54 L4.74 275.02 L9.46 275.55 L9.46 281.86 Z" class="st32"/>
			</g>
			<g id="shape568-432" transform="translate(4.72704,5.68434E-14)">
				<title>Sheet.568</title>
				<path d="M0.01 275.02 L4.74 275.55 L4.73 281.86 L0 282.38 L0.01 275.02 Z" class="st33"/>
			</g>
			<g id="shape569-434" transform="translate(2.1096,552.673) scale(1,-1)">
				<title>Sheet.569</title>
				<path d="M0 277.36 L0 281.33 L2.63 282.38 L5.26 281.32 L5.25 277.35 L0 277.36 Z" class="st6"/>
				<path d="M0 277.36 L0 281.33 L2.63 282.38 L5.26 281.32 L5.25 277.35" class="st34"/>
			</g>
			<g id="shape570-437" transform="translate(7.36013,559.506) scale(1,-1)">
				<title>Sheet.570</title>
				<path d="M0 282.38 L3.15 282.37 L0 282.38 Z" class="st6"/>
				<path d="M0 282.38 L3.15 282.37" class="st34"/>
			</g>
			<g id="shape571-440" transform="translate(7.35839,561.081) scale(1,-1)">
				<title>Sheet.571</title>
				<path d="M0 282.38 L3.15 282.37 L0 282.38 Z" class="st6"/>
				<path d="M0 282.38 L3.15 282.37" class="st34"/>
			</g>
			<g id="shape572-443" transform="translate(7.35666,562.657) scale(1,-1)">
				<title>Sheet.572</title>
				<path d="M0 282.38 L3.15 282.37 L0 282.38 Z" class="st6"/>
				<path d="M0 282.38 L3.15 282.37" class="st34"/>
			</g>
			<g id="shape573-446" transform="translate(0,557.401) scale(1,-1)">
				<title>Sheet.573</title>
				<path d="M9.46 275.54 L4.73 275.02 L0 275.55 L0.01 281.86 L4.74 282.38 L9.46 281.85 L9.46 275.54 Z" class="st35"/>
			</g>
		</g>
		<g id="group582-448" transform="translate(278.164,-77.0652)">
			<title>Sheet.582</title>
			<g id="shape529-449" transform="translate(7.29665,524.533) scale(1,-1)">
				<title>Sheet.529</title>
				<path d="M25.54 255.1 L1.74 255.1 C0.79 255.1 0 255.88 0 256.84 L0 280.64 C0 281.59 0.79 282.38 1.74 282.38 L25.54
							 282.38 C26.5 282.38 27.28 281.59 27.28 280.64 L27.28 256.84 C27.28 255.88 26.5 255.1 25.54 255.1 Z"
						class="st36"/>
			</g>
			<g id="group536-451" transform="translate(13.2937,-16.9534)">
				<title>Sheet.536</title>
				<g id="shape530-452" transform="translate(2.46313,548.467) scale(1,-1)">
					<title>Sheet.530</title>
					<path d="M0 282.38 L0 269.54 L0 282.38 Z" class="st6"/>
					<path d="M0 282.38 L0 269.54" class="st37"/>
				</g>
				<g id="shape531-455" transform="translate(5.9952E-15,545.521) scale(1,-1)">
					<title>Sheet.531</title>
					<path d="M4.92 279.57 L2.46 282.38 L0 279.57 L4.92 279.57 Z" class="st6"/>
					<path d="M4.92 279.57 L2.46 282.38 L0 279.57" class="st37"/>
				</g>
				<g id="shape532-458" transform="translate(13.3959,548.641) scale(1,-1)">
					<title>Sheet.532</title>
					<path d="M0 269.54 L0 282.38 L0 269.54 Z" class="st6"/>
					<path d="M0 269.54 L0 282.38" class="st37"/>
				</g>
				<g id="shape533-461" transform="translate(10.9422,561.946) scale(1,-1)">
					<title>Sheet.533</title>
					<path d="M0 282.38 L2.46 279.57 L4.92 282.38 L0 282.38 Z" class="st6"/>
					<path d="M0 282.38 L2.46 279.57 L4.92 282.38" class="st37"/>
				</g>
				<g id="shape534-464" transform="translate(2.46313,548.641) scale(1,-1)">
					<title>Sheet.534</title>
					<path d="M0 269.71 L10.93 282.38 L0 269.71 Z" class="st6"/>
					<path d="M0 269.71 L10.93 282.38" class="st37"/>
				</g>
			</g>
			<g id="shape579-467">
				<title>Sheet.579</title>
				<desc>Router</desc>
				<rect x="0" y="269.437" width="41.875" height="12.9408" class="st9"/>
				<text x="4.28" y="279.51" class="st38">Router</text>			</g>
		</g>
		<g id="group584-470" transform="translate(357.934,-77.3469)">
			<title>Sheet.584</title>
			<g id="shape430-471" transform="translate(7.29665,524.815) scale(1,-1)">
				<title>Sheet.430</title>
				<path d="M25.54 255.1 L1.74 255.1 C0.79 255.1 0 255.88 0 256.84 L0 280.64 C0 281.59 0.79 282.38 1.74 282.38 L25.54
							 282.38 C26.5 282.38 27.28 281.59 27.28 280.64 L27.28 256.84 C27.28 255.88 26.5 255.1 25.54 255.1 Z"
						class="st36"/>
			</g>
			<g id="group535-473" transform="translate(13.2937,-16.6717)">
				<title>Sheet.535</title>
				<g id="shape431-474" transform="translate(2.46313,548.467) scale(1,-1)">
					<title>Sheet.431</title>
					<path d="M0 282.38 L0 269.54 L0 282.38 Z" class="st6"/>
					<path d="M0 282.38 L0 269.54" class="st37"/>
				</g>
				<g id="shape432-477" transform="translate(5.9952E-15,545.521) scale(1,-1)">
					<title>Sheet.432</title>
					<path d="M4.92 279.57 L2.46 282.38 L0 279.57 L4.92 279.57 Z" class="st6"/>
					<path d="M4.92 279.57 L2.46 282.38 L0 279.57" class="st37"/>
				</g>
				<g id="shape433-480" transform="translate(13.3959,548.641) scale(1,-1)">
					<title>Sheet.433</title>
					<path d="M0 269.54 L0 282.38 L0 269.54 Z" class="st6"/>
					<path d="M0 269.54 L0 282.38" class="st37"/>
				</g>
				<g id="shape434-483" transform="translate(10.9422,561.946) scale(1,-1)">
					<title>Sheet.434</title>
					<path d="M0 282.38 L2.46 279.57 L4.92 282.38 L0 282.38 Z" class="st6"/>
					<path d="M0 282.38 L2.46 279.57 L4.92 282.38" class="st37"/>
				</g>
				<g id="shape435-486" transform="translate(2.46313,548.641) scale(1,-1)">
					<title>Sheet.435</title>
					<path d="M0 269.71 L10.93 282.38 L0 269.71 Z" class="st6"/>
					<path d="M0 269.71 L10.93 282.38" class="st37"/>
				</g>
			</g>
			<g id="shape583-489">
				<title>Sheet.583</title>
				<desc>Router</desc>
				<rect x="0" y="269.437" width="41.875" height="12.9408" class="st9"/>
				<text x="4.28" y="279.51" class="st38">Router</text>			</g>
		</g>
		<g id="group588-492" transform="translate(531.73,-9.28779)">
			<title>Sheet.588</title>
			<g id="group214-493">
				<title>Sheet.214</title>
				<g id="shape216-494" transform="translate(16.2922,-0.865621)">
					<title>Sheet.216</title>
					<path d="M103.23 282.15 L0 282.38 L0.47 201.29 L103 201.98 L103.23 282.15 Z" class="st20"/>
				</g>
				<g id="shape217-496" transform="translate(15.1377,-4.54747E-13)">
					<title>Sheet.217</title>
					<path d="M104.72 218.84 L104.72 282.38 L0 282.38 L104.72 218.84 Z" class="st39"/>
				</g>
				<g id="shape218-498" transform="translate(25.2885,-72.8358)">
					<title>Sheet.218</title>
					<path d="M0 282.38 L4.5 282.38 L0 282.38 Z" class="st6"/>
					<path d="M0 282.38 L4.5 282.38" class="st40"/>
				</g>
				<g id="shape219-501" transform="translate(38.7829,-72.8358)">
					<title>Sheet.219</title>
					<path d="M0 282.38 L4.51 282.38 L0 282.38 Z" class="st6"/>
					<path d="M0 282.38 L4.51 282.38" class="st40"/>
				</g>
				<g id="shape220-504" transform="translate(52.285,-72.8358)">
					<title>Sheet.220</title>
					<path d="M0 282.38 L4.5 282.38 L0 282.38 Z" class="st6"/>
					<path d="M0 282.38 L4.5 282.38" class="st40"/>
				</g>
				<g id="shape221-507" transform="translate(16.2922,482.916) scale(1,-1)">
					<title>Sheet.221</title>
					<path d="M103.46 201.4 L0 201.4 L0 282.38 L103.46 282.38 L103.46 201.4 Z" class="st41"/>
				</g>
				<g id="shape222-509" transform="translate(16.2922,-63.8395)">
					<title>Sheet.222</title>
					<path d="M0 282.38 L103.46 282.38 L0 282.38 Z" class="st6"/>
					<path d="M0 282.38 L103.46 282.38" class="st40"/>
				</g>
				<g id="shape223-512" transform="translate(0.12366,482.846) scale(1,-1)">
					<title>Sheet.223</title>
					<path d="M0 273.6 L8.52 282.38 L0 273.6 Z" class="st6"/>
					<path d="M0 273.6 L8.52 282.38" class="st40"/>
				</g>
				<g id="shape224-515" transform="translate(2.9976E-15,482.97) scale(1,-1)">
					<title>Sheet.224</title>
					<path d="M8.78 273.85 L0 282.38 L8.78 273.85 Z" class="st6"/>
					<path d="M8.78 273.85 L0 282.38" class="st40"/>
				</g>
				<g id="shape225-518" transform="translate(124.665,-13.2007)">
					<title>Sheet.225</title>
					<path d="M0 282.38 L12.23 282.38 L0 282.38 Z" class="st6"/>
					<path d="M0 282.38 L12.23 282.38" class="st40"/>
				</g>
				<g id="shape226-521" transform="translate(130.786,545.441) scale(1,-1)">
					<title>Sheet.226</title>
					<path d="M0 270.14 L0 282.38 L0 270.14 Z" class="st6"/>
					<path d="M0 270.14 L0 282.38" class="st40"/>
				</g>
				<g id="shape227-524" transform="translate(96.3389,-90.3414)">
					<title>Sheet.227</title>
					<path d="M6.29 279.23 C6.29 280.97 4.88 282.38 3.15 282.38 C1.41 282.38 0 280.97 0 279.23 C0 277.49 1.41 276.08
								 3.15 276.08 C4.88 276.08 6.29 277.49 6.29 279.23 Z" class="st42"/>
				</g>
				<g id="shape228-526" transform="translate(127.957,-69.1801)">
					<title>Sheet.228</title>
					<path d="M4.58 280.09 C4.58 281.35 3.56 282.38 2.29 282.38 C1.03 282.38 0 281.35 0 280.09 C0 278.82 1.03 277.8
								 2.29 277.8 C3.56 277.8 4.58 278.82 4.58 280.09 Z" class="st42"/>
				</g>
				<g id="shape229-528" transform="translate(5.63426,-60.1065)">
					<title>Sheet.229</title>
					<path d="M3.15 280.8 C3.15 281.67 2.44 282.38 1.57 282.38 C0.7 282.38 0 281.67 0 280.8 C0 279.94 0.7 279.22 1.57
								 279.22 C2.44 279.22 3.15 279.94 3.15 280.8 Z" class="st42"/>
				</g>
				<g id="shape230-530" transform="translate(26.2546,-92.4436)">
					<title>Sheet.230</title>
					<path d="M3.15 280.81 C3.15 281.67 2.44 282.38 1.57 282.38 C0.7 282.38 0 281.67 0 280.81 C0 279.94 0.7 279.23
								 1.57 279.23 C2.44 279.23 3.15 279.94 3.15 280.81 Z" class="st42"/>
				</g>
				<g id="shape231-532" transform="translate(37.6159,-93.9585)">
					<title>Sheet.231</title>
					<path d="M0 282.38 L49.87 282.38 L0 282.38 Z" class="st6"/>
					<path d="M0 282.38 L49.87 282.38" class="st40"/>
				</g>
				<g id="shape232-535" transform="translate(67.5648,518.661) scale(1,-1)">
					<title>Sheet.232</title>
					<path d="M0 259.15 L0 282.38 L9.29 282.38 L0 259.15 Z" class="st6"/>
					<path d="M0 259.15 L0 282.38 L9.29 282.38" class="st40"/>
				</g>
				<g id="shape233-538" transform="translate(67.5648,-32.1516)">
					<title>Sheet.233</title>
					<path d="M0 282.38 L9.29 282.38 L0 282.38 Z" class="st6"/>
					<path d="M0 282.38 L9.29 282.38" class="st40"/>
				</g>
				<g id="shape234-541" transform="translate(48.6834,518.661) scale(1,-1)">
					<title>Sheet.234</title>
					<path d="M0 259.15 L0 275.41 L4.65 282.38 L9.3 275.41 L9.3 259.15 L0 259.15 Z" class="st6"/>
					<path d="M0 259.15 L0 275.41 L4.65 282.38 L9.3 275.41 L9.3 259.15" class="st40"/>
				</g>
				<g id="shape235-544" transform="translate(48.6834,-32.1516)">
					<title>Sheet.235</title>
					<path d="M0 282.38 L9.3 282.38 L0 282.38 Z" class="st6"/>
					<path d="M0 282.38 L9.3 282.38" class="st40"/>
				</g>
				<g id="shape236-547" transform="translate(86.4384,518.568) scale(1,-1)">
					<title>Sheet.236</title>
					<path d="M0 282.38 L0 259.15 L0 282.38 Z" class="st6"/>
					<path d="M0 282.38 L0 259.15" class="st40"/>
				</g>
				<g id="shape237-550" transform="translate(77.3417,518.862) scale(1,-1)">
					<title>Sheet.237</title>
					<path d="M0 282.38 L0 268.93 L0 282.38 Z" class="st6"/>
					<path d="M0 282.38 L0 268.93" class="st40"/>
				</g>
			</g>
			<g id="shape587-553" transform="translate(15.9185,5.68434E-14)">
				<title>Sheet.587</title>
				<desc>Service</desc>
				<rect x="0" y="263.308" width="105.062" height="19.0702" class="st9"/>
				<text x="35.09" y="276.44" class="st38">Service</text>			</g>
		</g>
		<g id="shape596-556" transform="translate(369.041,-150.952) rotate(45.1802)">
			<title>Sheet.596</title>
			<path d="M0 282.38 L68.08 282.38" class="st43"/>
		</g>
		<g id="shape597-559" transform="translate(321.997,-189.081) rotate(32.8696)">
			<title>Sheet.597</title>
			<path d="M0 282.38 L183.23 282.38" class="st43"/>
		</g>
		<g id="shape598-562" transform="translate(312.743,-94.6469)">
			<title>Dynamic connector.598</title>
			<path d="M6.24 273.38 L6.6 273.38 L45.89 273.38" class="st2"/>
		</g>
		<g id="shape595-569" transform="translate(24.7427,-234.288)">
			<title>Orthogonal.595</title>
			<desc>Control messages between controller and network participants</desc>
			<path d="M144 282.38 L287.79 332.67" class="st44"/>
			<path d="M139.5 237.38 L144 237.38 L144 282.38 L139.5 282.38" class="st44"/>
			<text x="30.11" y="250.88" class="st45">Control messages between <tspan x="46.23" dy="1.2em" class="st46">controller and network </tspan><tspan
						x="91.74" dy="1.2em" class="st46">participants</tspan></text>		</g>
		<g id="group602-576" transform="translate(448.48,-97.6277)">
			<title>Sheet.602</title>
		</g>
	</g>
</svg>
