<svg xmlns="http://www.w3.org/2000/svg" width="1000" height="300" viewBox="0 0 1000 300" fill="none">
<g clip-path="url(#clip0)">
<rect width="1000" height="300" fill="white"/>
<rect width="1000" height="300" fill="white"/>
<rect width="1000" height="300" fill="url(#paint0_linear)" fill-opacity="0.2"/>
<path d="M412.972 137.375C405.671 137.375 399.755 143.25 399.755 150.5C399.755 157.75 405.671 163.625 412.972 163.625C420.273 163.625 426.189 157.75 426.189 150.5C426.189 143.25 420.273 137.375 412.972 137.375ZM412.972 158.625C408.453 158.625 404.79 154.987 404.79 150.5C404.79 146.012 408.453 142.375 412.972 142.375C417.491 142.375 421.154 146.012 421.154 150.5C421.154 154.987 417.491 158.625 412.972 158.625Z" fill="#FF9800"/>
<path d="M442.846 153.325C446.281 152.387 448.809 149.262 448.834 145.562C448.834 145.537 448.834 145.525 448.834 145.5C448.834 145.475 448.834 145.462 448.834 145.437C448.796 140.975 445.148 137.375 440.658 137.375H429.965V142.1L433.991 148.612H429.978V163.625H435.01V153.612H437.123L443.308 163.625H449.224L442.846 153.325ZM440.67 148.625H439.928L436.041 142.375H440.67C442.406 142.375 443.815 143.775 443.815 145.5C443.815 147.225 442.406 148.625 440.67 148.625Z" fill="#FF9800"/>
<path d="M457.783 163.625H452.119L458.765 150.512L452.119 137.375H457.783L461.572 144.925L465.462 137.375H471L457.783 163.625Z" fill="#FF9800"/>
<path d="M376.217 137.375C368.916 137.375 363 143.25 363 150.5C363 157.75 368.916 163.625 376.217 163.625C383.517 163.625 389.434 157.75 389.434 150.5C389.434 143.25 383.517 137.375 376.217 137.375Z" fill="#FF9800"/>
<path d="M376.217 123L389.434 129.5L389.434 135.125L376.217 128.625L363 135.125L363 129.5L376.217 123Z" fill="#FF9800"/>
<path d="M376.217 178L363 171.5L363 165.875L376.217 172.375L389.434 165.875L389.434 171.5L376.217 178Z" fill="#FF9800"/>
<path d="M498.277 135.445L487.633 164H484.391L495.035 135.445H498.277ZM517.719 153.043C518.279 152.249 519.132 151.207 520.277 149.918L527.191 142.594H531.039L522.367 151.715L531.645 164H527.719L520.16 153.883L517.719 155.992V164H514.516V133.609H517.719V149.723C517.719 150.439 517.667 151.546 517.562 153.043H517.719ZM546.297 142.203C547.247 142.203 548.1 142.281 548.855 142.438L548.406 145.445C547.521 145.25 546.74 145.152 546.062 145.152C544.331 145.152 542.846 145.855 541.609 147.262C540.385 148.668 539.773 150.419 539.773 152.516V164H536.531V142.594H539.207L539.578 146.559H539.734C540.529 145.165 541.486 144.091 542.605 143.336C543.725 142.581 544.956 142.203 546.297 142.203ZM567.023 164L566.379 160.953H566.223C565.155 162.294 564.087 163.206 563.02 163.688C561.965 164.156 560.643 164.391 559.055 164.391C556.932 164.391 555.266 163.844 554.055 162.75C552.857 161.656 552.258 160.1 552.258 158.082C552.258 153.759 555.715 151.493 562.629 151.285L566.262 151.168V149.84C566.262 148.16 565.897 146.923 565.168 146.129C564.452 145.322 563.299 144.918 561.711 144.918C559.927 144.918 557.909 145.465 555.656 146.559L554.66 144.078C555.715 143.505 556.867 143.056 558.117 142.73C559.38 142.405 560.643 142.242 561.906 142.242C564.458 142.242 566.346 142.809 567.57 143.941C568.807 145.074 569.426 146.891 569.426 149.391V164H567.023ZM559.699 161.715C561.717 161.715 563.299 161.161 564.445 160.055C565.604 158.948 566.184 157.398 566.184 155.406V153.473L562.941 153.609C560.363 153.701 558.501 154.104 557.355 154.82C556.223 155.523 555.656 156.624 555.656 158.121C555.656 159.293 556.008 160.185 556.711 160.797C557.427 161.409 558.423 161.715 559.699 161.715ZM584.039 161.715C584.612 161.715 585.165 161.676 585.699 161.598C586.233 161.507 586.656 161.415 586.969 161.324V163.805C586.617 163.974 586.096 164.111 585.406 164.215C584.729 164.332 584.117 164.391 583.57 164.391C579.43 164.391 577.359 162.21 577.359 157.848V145.113H574.293V143.551L577.359 142.203L578.727 137.633H580.602V142.594H586.812V145.113H580.602V157.711C580.602 159 580.908 159.99 581.52 160.68C582.132 161.37 582.971 161.715 584.039 161.715ZM610.742 153.277C610.742 156.767 609.863 159.495 608.105 161.461C606.348 163.414 603.919 164.391 600.82 164.391C598.906 164.391 597.207 163.941 595.723 163.043C594.238 162.145 593.092 160.855 592.285 159.176C591.478 157.496 591.074 155.53 591.074 153.277C591.074 149.788 591.947 147.073 593.691 145.133C595.436 143.18 597.858 142.203 600.957 142.203C603.952 142.203 606.328 143.199 608.086 145.191C609.857 147.184 610.742 149.879 610.742 153.277ZM594.434 153.277C594.434 156.012 594.98 158.095 596.074 159.527C597.168 160.96 598.776 161.676 600.898 161.676C603.021 161.676 604.629 160.966 605.723 159.547C606.829 158.115 607.383 156.025 607.383 153.277C607.383 150.556 606.829 148.492 605.723 147.086C604.629 145.667 603.008 144.957 600.859 144.957C598.737 144.957 597.135 145.654 596.055 147.047C594.974 148.44 594.434 150.517 594.434 153.277ZM631.254 158.16C631.254 160.152 630.512 161.689 629.027 162.77C627.543 163.85 625.46 164.391 622.777 164.391C619.939 164.391 617.725 163.941 616.137 163.043V160.035C617.165 160.556 618.266 160.966 619.438 161.266C620.622 161.565 621.762 161.715 622.855 161.715C624.548 161.715 625.85 161.448 626.762 160.914C627.673 160.367 628.129 159.54 628.129 158.434C628.129 157.6 627.764 156.891 627.035 156.305C626.319 155.706 624.913 155.003 622.816 154.195C620.824 153.453 619.405 152.809 618.559 152.262C617.725 151.702 617.1 151.07 616.684 150.367C616.28 149.664 616.078 148.824 616.078 147.848C616.078 146.103 616.788 144.729 618.207 143.727C619.626 142.711 621.573 142.203 624.047 142.203C626.352 142.203 628.604 142.672 630.805 143.609L629.652 146.246C627.504 145.361 625.557 144.918 623.812 144.918C622.276 144.918 621.117 145.159 620.336 145.641C619.555 146.122 619.164 146.786 619.164 147.633C619.164 148.206 619.307 148.694 619.594 149.098C619.893 149.501 620.368 149.885 621.02 150.25C621.671 150.615 622.921 151.142 624.77 151.832C627.309 152.757 629.021 153.688 629.906 154.625C630.805 155.562 631.254 156.741 631.254 158.16Z" fill="#FF9800"/>
<path d="M409.426 194C409.048 191.912 407.378 190.679 405.33 190.679C402.724 190.679 400.835 192.688 400.835 195.909C400.835 199.131 402.724 201.139 405.33 201.139C407.378 201.139 409.048 199.906 409.426 197.818H408.193C407.895 199.23 406.682 199.986 405.33 199.986C403.48 199.986 402.028 198.554 402.028 195.909C402.028 193.264 403.48 191.832 405.33 191.832C406.682 191.832 407.895 192.588 408.193 194H409.426ZM412.583 190.818H411.409V201H412.583V190.818ZM417.984 201.159C420.052 201.159 421.444 199.588 421.444 197.222C421.444 194.835 420.052 193.264 417.984 193.264C415.916 193.264 414.524 194.835 414.524 197.222C414.524 199.588 415.916 201.159 417.984 201.159ZM417.984 200.105C416.413 200.105 415.697 198.753 415.697 197.222C415.697 195.69 416.413 194.318 417.984 194.318C419.555 194.318 420.271 195.69 420.271 197.222C420.271 198.753 419.555 200.105 417.984 200.105ZM428.198 197.878C428.198 199.31 427.104 199.966 426.229 199.966C425.255 199.966 424.558 199.25 424.558 198.136V193.364H423.385V198.216C423.385 200.165 424.419 201.099 425.851 201.099C427.005 201.099 427.76 200.483 428.118 199.707H428.198V201H429.371V193.364H428.198V197.878ZM434.553 201.159C436.025 201.159 436.522 200.244 436.781 199.827H436.92V201H438.053V190.818H436.88V194.577H436.781C436.522 194.179 436.065 193.264 434.573 193.264C432.644 193.264 431.312 194.795 431.312 197.202C431.312 199.628 432.644 201.159 434.553 201.159ZM434.713 200.105C433.241 200.105 432.485 198.812 432.485 197.182C432.485 195.571 433.221 194.318 434.713 194.318C436.144 194.318 436.9 195.472 436.9 197.182C436.9 198.912 436.125 200.105 434.713 200.105ZM445.776 196.406C445.776 195.074 446.601 194.318 447.725 194.318C448.814 194.318 449.475 195.029 449.475 196.227V201H450.648V196.148C450.648 194.199 449.609 193.264 448.063 193.264C446.91 193.264 446.194 193.781 445.836 194.557H445.736V193.364H444.603V201H445.776V196.406ZM455.189 201.179C456.522 201.179 457.218 200.463 457.456 199.966H457.516V201H458.689V195.969C458.689 193.543 456.84 193.264 455.866 193.264C454.712 193.264 453.4 193.662 452.803 195.054L453.917 195.452C454.175 194.895 454.787 194.298 455.905 194.298C456.984 194.298 457.516 194.87 457.516 195.849V195.889C457.516 196.456 456.939 196.406 455.547 196.585C454.13 196.769 452.584 197.082 452.584 198.832C452.584 200.324 453.738 201.179 455.189 201.179ZM455.368 200.125C454.434 200.125 453.758 199.707 453.758 198.892C453.758 197.997 454.573 197.719 455.488 197.599C455.985 197.54 457.317 197.401 457.516 197.162V198.236C457.516 199.19 456.76 200.125 455.368 200.125ZM464.302 193.364H462.671V191.534H461.498V193.364H460.345V194.358H461.498V199.131C461.498 200.463 462.572 201.099 463.566 201.099C464.004 201.099 464.282 201.02 464.441 200.96L464.202 199.906C464.103 199.926 463.944 199.966 463.685 199.966C463.168 199.966 462.671 199.807 462.671 198.812V194.358H464.302V193.364ZM466.217 201H467.39V193.364H466.217V201ZM466.813 192.091C467.271 192.091 467.649 191.733 467.649 191.295C467.649 190.858 467.271 190.5 466.813 190.5C466.356 190.5 465.978 190.858 465.978 191.295C465.978 191.733 466.356 192.091 466.813 192.091ZM475.933 193.364H474.661L472.553 199.449H472.473L470.365 193.364H469.093L471.916 201H473.11L475.933 193.364ZM480.56 201.159C482.111 201.159 483.245 200.384 483.603 199.23L482.469 198.912C482.171 199.707 481.48 200.105 480.56 200.105C479.183 200.105 478.234 199.215 478.179 197.58H483.722V197.082C483.722 194.239 482.032 193.264 480.441 193.264C478.373 193.264 477.001 194.895 477.001 197.241C477.001 199.588 478.353 201.159 480.56 201.159ZM478.179 196.565C478.258 195.377 479.099 194.318 480.441 194.318C481.714 194.318 482.529 195.273 482.529 196.565H478.179ZM489.745 201H490.918V193.364H489.745V201ZM490.341 192.091C490.799 192.091 491.176 191.733 491.176 191.295C491.176 190.858 490.799 190.5 490.341 190.5C489.884 190.5 489.506 190.858 489.506 191.295C489.506 191.733 489.884 192.091 490.341 192.091ZM496.1 201.159C497.572 201.159 498.069 200.244 498.328 199.827H498.467V201H499.6V190.818H498.427V194.577H498.328C498.069 194.179 497.612 193.264 496.12 193.264C494.191 193.264 492.859 194.795 492.859 197.202C492.859 199.628 494.191 201.159 496.1 201.159ZM496.259 200.105C494.788 200.105 494.032 198.812 494.032 197.182C494.032 195.571 494.768 194.318 496.259 194.318C497.691 194.318 498.447 195.472 498.447 197.182C498.447 198.912 497.671 200.105 496.259 200.105ZM505.264 201.159C506.815 201.159 507.949 200.384 508.306 199.23L507.173 198.912C506.875 199.707 506.184 200.105 505.264 200.105C503.887 200.105 502.937 199.215 502.882 197.58H508.426V197.082C508.426 194.239 506.735 193.264 505.145 193.264C503.076 193.264 501.704 194.895 501.704 197.241C501.704 199.588 503.056 201.159 505.264 201.159ZM502.882 196.565C502.962 195.377 503.802 194.318 505.145 194.318C506.417 194.318 507.233 195.273 507.233 196.565H502.882ZM511.534 196.406C511.534 195.074 512.359 194.318 513.483 194.318C514.572 194.318 515.233 195.029 515.233 196.227V201H516.406V196.148C516.406 194.199 515.367 193.264 513.821 193.264C512.667 193.264 511.951 193.781 511.594 194.557H511.494V193.364H510.361V201H511.534V196.406ZM522.021 193.364H520.39V191.534H519.217V193.364H518.064V194.358H519.217V199.131C519.217 200.463 520.291 201.099 521.285 201.099C521.723 201.099 522.001 201.02 522.16 200.96L521.922 199.906C521.822 199.926 521.663 199.966 521.405 199.966C520.888 199.966 520.39 199.807 520.39 198.812V194.358H522.021V193.364ZM523.936 201H525.109V193.364H523.936V201ZM524.533 192.091C524.99 192.091 525.368 191.733 525.368 191.295C525.368 190.858 524.99 190.5 524.533 190.5C524.075 190.5 523.697 190.858 523.697 191.295C523.697 191.733 524.075 192.091 524.533 192.091ZM530.729 193.364H529.099V191.534H527.925V193.364H526.772V194.358H527.925V199.131C527.925 200.463 528.999 201.099 529.993 201.099C530.431 201.099 530.709 201.02 530.868 200.96L530.63 199.906C530.53 199.926 530.371 199.966 530.113 199.966C529.596 199.966 529.099 199.807 529.099 198.812V194.358H530.729V193.364ZM533.4 203.864C534.459 203.864 535.205 203.302 535.647 202.114L538.898 193.384L537.616 193.364L535.508 199.449H535.428L533.32 193.364H532.048L534.871 201.04L534.653 201.636C534.225 202.8 533.698 202.909 532.843 202.69L532.545 203.724C532.664 203.784 533.002 203.864 533.4 203.864ZM544.688 201H545.862V193.364H544.688V201ZM545.285 192.091C545.742 192.091 546.12 191.733 546.12 191.295C546.12 190.858 545.742 190.5 545.285 190.5C544.828 190.5 544.45 190.858 544.45 191.295C544.45 191.733 544.828 192.091 545.285 192.091ZM549.334 196.406C549.334 195.074 550.159 194.318 551.283 194.318C552.372 194.318 553.033 195.029 553.033 196.227V201H554.206V196.148C554.206 194.199 553.167 193.264 551.621 193.264C550.467 193.264 549.751 193.781 549.394 194.557H549.294V193.364H548.161V201H549.334V196.406ZM559.901 193.364H558.19V192.588C558.19 191.832 558.509 191.435 559.284 191.435C559.622 191.435 559.821 191.514 559.94 191.554L560.278 190.54C560.099 190.46 559.742 190.341 559.165 190.341C558.071 190.341 557.017 190.997 557.017 192.31V193.364H555.784V194.358H557.017V201H558.19V194.358H559.901V193.364ZM561.695 201H562.868V196.168C562.868 195.134 563.684 194.378 564.797 194.378C565.11 194.378 565.434 194.438 565.513 194.457V193.264C565.379 193.254 565.071 193.244 564.897 193.244C563.982 193.244 563.186 193.761 562.908 194.517H562.828V193.364H561.695V201ZM569.301 201.179C570.633 201.179 571.33 200.463 571.568 199.966H571.628V201H572.801V195.969C572.801 193.543 570.952 193.264 569.977 193.264C568.824 193.264 567.511 193.662 566.915 195.054L568.028 195.452C568.287 194.895 568.898 194.298 570.017 194.298C571.096 194.298 571.628 194.87 571.628 195.849V195.889C571.628 196.456 571.051 196.406 569.659 196.585C568.242 196.769 566.696 197.082 566.696 198.832C566.696 200.324 567.849 201.179 569.301 201.179ZM569.48 200.125C568.545 200.125 567.869 199.707 567.869 198.892C567.869 197.997 568.685 197.719 569.599 197.599C570.097 197.54 571.429 197.401 571.628 197.162V198.236C571.628 199.19 570.872 200.125 569.48 200.125ZM580.502 195.074C580.134 193.99 579.309 193.264 577.797 193.264C576.186 193.264 574.993 194.179 574.993 195.472C574.993 196.526 575.62 197.232 577.022 197.56L578.294 197.858C579.065 198.037 579.428 198.405 579.428 198.932C579.428 199.588 578.732 200.125 577.638 200.125C576.679 200.125 576.077 199.712 575.868 198.892L574.755 199.17C575.028 200.468 576.097 201.159 577.658 201.159C579.433 201.159 580.641 200.19 580.641 198.872C580.641 197.808 579.975 197.137 578.613 196.804L577.479 196.526C576.574 196.302 576.166 195.999 576.166 195.412C576.166 194.756 576.863 194.278 577.797 194.278C578.821 194.278 579.244 194.845 579.448 195.372L580.502 195.074ZM585.878 193.364H584.247V191.534H583.074V193.364H581.921V194.358H583.074V199.131C583.074 200.463 584.148 201.099 585.142 201.099C585.58 201.099 585.858 201.02 586.017 200.96L585.779 199.906C585.679 199.926 585.52 199.966 585.262 199.966C584.745 199.966 584.247 199.807 584.247 198.812V194.358H585.878V193.364ZM587.793 201H588.966V196.168C588.966 195.134 589.782 194.378 590.895 194.378C591.208 194.378 591.532 194.438 591.611 194.457V193.264C591.477 193.254 591.169 193.244 590.995 193.244C590.08 193.244 589.284 193.761 589.006 194.517H588.927V193.364H587.793V201ZM597.964 197.878C597.964 199.31 596.871 199.966 595.996 199.966C595.021 199.966 594.325 199.25 594.325 198.136V193.364H593.152V198.216C593.152 200.165 594.186 201.099 595.618 201.099C596.771 201.099 597.527 200.483 597.885 199.707H597.964V201H599.138V193.364H597.964V197.878ZM604.539 201.159C606.229 201.159 607.343 200.125 607.542 198.773H606.369C606.15 199.608 605.454 200.105 604.539 200.105C603.147 200.105 602.252 198.952 602.252 197.182C602.252 195.452 603.167 194.318 604.539 194.318C605.573 194.318 606.19 194.955 606.369 195.651H607.542C607.343 194.219 606.13 193.264 604.519 193.264C602.451 193.264 601.079 194.895 601.079 197.222C601.079 199.509 602.391 201.159 604.539 201.159ZM612.728 193.364H611.097V191.534H609.924V193.364H608.771V194.358H609.924V199.131C609.924 200.463 610.998 201.099 611.992 201.099C612.43 201.099 612.708 201.02 612.867 200.96L612.629 199.906C612.529 199.926 612.37 199.966 612.112 199.966C611.595 199.966 611.097 199.807 611.097 198.812V194.358H612.728V193.364ZM619.456 197.878C619.456 199.31 618.362 199.966 617.487 199.966C616.512 199.966 615.816 199.25 615.816 198.136V193.364H614.643V198.216C614.643 200.165 615.677 201.099 617.109 201.099C618.262 201.099 619.018 200.483 619.376 199.707H619.456V201H620.629V193.364H619.456V197.878ZM622.928 201H624.101V196.168C624.101 195.134 624.916 194.378 626.03 194.378C626.343 194.378 626.666 194.438 626.746 194.457V193.264C626.612 193.254 626.303 193.244 626.129 193.244C625.215 193.244 624.419 193.761 624.141 194.517H624.061V193.364H622.928V201ZM631.256 201.159C632.807 201.159 633.941 200.384 634.299 199.23L633.165 198.912C632.867 199.707 632.176 200.105 631.256 200.105C629.879 200.105 628.929 199.215 628.875 197.58H634.418V197.082C634.418 194.239 632.728 193.264 631.137 193.264C629.069 193.264 627.696 194.895 627.696 197.241C627.696 199.588 629.049 201.159 631.256 201.159ZM628.875 196.565C628.954 195.377 629.794 194.318 631.137 194.318C632.409 194.318 633.225 195.273 633.225 196.565H628.875Z" fill="#DB9000"/>
<line x1="1000" y1="0.5" y2="0.5" stroke="#FF9800"/>
</g>
<defs>
<linearGradient id="paint0_linear" x1="1000" y1="300" x2="-18.3028" y2="87.8536" gradientUnits="userSpaceOnUse">
<stop stop-color="#FF9800"/>
<stop offset="1" stop-color="#FF9800" stop-opacity="0"/>
</linearGradient>
<clipPath id="clip0">
<rect width="1000" height="300" fill="white"/>
</clipPath>
</defs>
</svg>