<?xml version="1.0" encoding="UTF-8" standalone="no"?>
<!DOCTYPE svg PUBLIC "-//W3C//DTD SVG 1.1//EN" "http://www.w3.org/Graphics/SVG/1.1/DTD/svg11.dtd">
<!-- Generated by Microsoft Visio, SVG Export docker-compose-overview.svg Page-1 -->
<svg xmlns="http://www.w3.org/2000/svg" xmlns:xlink="http://www.w3.org/1999/xlink" xmlns:ev="http://www.w3.org/2001/xml-events"
		width="5.69444in" height="4.06944in" viewBox="0 0 410 293" xml:space="preserve" color-interpolation-filters="sRGB"
		class="st38">
	<style type="text/css">
	<![CDATA[
		.st1 {fill:#ffffff;stroke:#4271c6;stroke-linecap:round;stroke-linejoin:round;stroke-width:0.5}
		.st2 {fill:#ffffff;stroke:#5b9bd5;stroke-linecap:round;stroke-linejoin:round;stroke-width:0.5}
		.st3 {fill:#42829e;font-family:Russo One;font-size:1.5em}
		.st4 {fill:#eadbf4;stroke:#7030a0;stroke-dasharray:3.5,7;stroke-linecap:round;stroke-linejoin:round;stroke-width:3.5}
		.st5 {fill:#660066;font-family:Russo One;font-size:1.5em}
		.st6 {fill:#ffffff;stroke:#002060;stroke-linecap:round;stroke-linejoin:round;stroke-width:0.5}
		.st7 {fill:#625986;stroke:#002060;stroke-linecap:round;stroke-linejoin:round;stroke-width:0.5}
		.st8 {fill:#a5a5a5;stroke:#ffffff;stroke-linecap:round;stroke-linejoin:round;stroke-width:0.5}
		.st9 {fill:#ffffff}
		.st10 {fill:#1c1a26;font-family:Russo One;font-size:0.833336em}
		.st11 {fill:#ffc6c6;stroke:#c00000;stroke-dasharray:3.5,7;stroke-linecap:round;stroke-linejoin:round;stroke-width:3.5}
		.st12 {fill:#a60000;font-family:Russo One;font-size:1.5em}
		.st13 {fill:#b9caea;stroke:#00b0f0;stroke-dasharray:3.5,7;stroke-linecap:round;stroke-linejoin:round;stroke-width:3.5}
		.st14 {fill:#1e4a73;font-family:Russo One;font-size:1.5em}
		.st15 {fill:#5b9bd5;stroke:#ffffff;stroke-linecap:round;stroke-linejoin:round;stroke-width:0.5}
		.st16 {fill:#aad288;stroke:#ffffff;stroke-linecap:round;stroke-linejoin:round;stroke-width:0.5}
		.st17 {stroke:#ffffff;stroke-dasharray:3.5,2.5;stroke-linecap:round;stroke-linejoin:round;stroke-width:0.5}
		.st18 {stroke:#4271c6;stroke-linecap:round;stroke-linejoin:round;stroke-width:1.5}
		.st19 {fill:#4271c6;stroke:#ffffff;stroke-linecap:round;stroke-linejoin:round;stroke-opacity:0;stroke-width:1.5}
		.st20 {fill:#4271c6;stroke:#ffffff;stroke-linecap:round;stroke-linejoin:round;stroke-width:1.5}
		.st21 {fill:#feffff;stroke:#ffffff;stroke-linecap:round;stroke-linejoin:round;stroke-opacity:0;stroke-width:1.5}
		.st22 {fill:#c00000;stroke:#ffffff;stroke-linecap:round;stroke-linejoin:round;stroke-width:0.5}
		.st23 {fill:#ffffff;stroke:#ffffff;stroke-linecap:round;stroke-linejoin:round;stroke-width:0.5}
		.st24 {fill:none;stroke:none;stroke-linecap:round;stroke-linejoin:round;stroke-width:0.5}
		.st25 {fill:#a60000;font-family:Russo One;font-size:0.833336em}
		.st26 {fill:#182c50;font-family:Russo One;font-size:0.833336em}
		.st27 {fill:#1e4a73;font-family:Russo One;font-size:0.833336em}
		.st28 {fill:#dee6f3;stroke:#ffffff;stroke-linecap:round;stroke-linejoin:round;stroke-width:0.5}
		.st29 {fill:url(#grad0-139);stroke:none;stroke-linecap:butt;stroke-width:3.03873}
		.st30 {fill:#ffffff;stroke:none;stroke-linecap:butt;stroke-width:3.03873}
		.st31 {stroke:#73ae42;stroke-linecap:round;stroke-linejoin:round;stroke-width:1.5}
		.st32 {fill:#73ae42;stroke:#ffffff;stroke-linecap:round;stroke-linejoin:round;stroke-opacity:0;stroke-width:1.5}
		.st33 {fill:#73ae42;stroke:#ffffff;stroke-linecap:round;stroke-linejoin:round;stroke-width:1.5}
		.st34 {stroke:#a5a5a5;stroke-linecap:round;stroke-linejoin:round;stroke-width:1.5}
		.st35 {fill:#c59de1;stroke:#ffffff;stroke-linecap:round;stroke-linejoin:round;stroke-opacity:0;stroke-width:1.5}
		.st36 {fill:#c59de1;stroke:#ffffff;stroke-linecap:round;stroke-linejoin:round;stroke-width:1.5}
		.st37 {fill:#d8d8d8;stroke:#000000;stroke-linecap:round;stroke-linejoin:round;stroke-width:1}
		.st38 {fill:none;fill-rule:evenodd;font-size:12px;overflow:visible;stroke-linecap:square;stroke-miterlimit:3}
	]]>
	</style>

	<defs id="Patterns_And_Gradients">
		<linearGradient id="grad0-139" x1="0" y1="0" x2="1" y2="0" gradientTransform="rotate(-116.99999444949 0.5 0.5)">
			<stop offset="0.005" stop-color="#fc0147" stop-opacity="1"/>
			<stop offset="0.04" stop-color="#f4044d" stop-opacity="1"/>
			<stop offset="0.9" stop-color="#0068f9" stop-opacity="1"/>
		</linearGradient>
	</defs>
	<g>
		<title>Page-1</title>
		<g id="shape339-1" transform="translate(0.25,-0.25)">
			<title>Sheet.339</title>
			<rect x="0" y="0.499993" width="409.5" height="292.5" class="st1"/>
		</g>
		<g id="shape275-3" transform="translate(54.25,-4.74999)">
			<title>Rounded Rectangle.275</title>
			<desc>Docker</desc>
			<path d="M0 293 L351 293 L351 9.5 L0 9.5 L0 293 Z" class="st2"/>
			<text x="4" y="29.7" class="st3">Docker</text>		</g>
		<g id="shape342-6" transform="translate(63.25,-13.75)">
			<title>Rounded Rectangle.342</title>
			<desc>Purple Network</desc>
			<path d="M0 293 L162 293 L162 50.75 L0 50.75 L0 293 Z" class="st4"/>
			<text x="4" y="70.95" class="st5">Purple Network</text>		</g>
		<g id="group271-9" transform="translate(36.25,-109.375)">
			<title>Sheet.271</title>
			<g id="shape270-10">
				<title>Process</title>
				<rect x="0" y="242.375" width="54" height="50.625" class="st6"/>
			</g>
			<g id="group120-12" transform="translate(13.5,-15.75)">
				<title>PC</title>
				<desc>Controller</desc>
				<g id="shape121-13" transform="translate(0,-2.4009)">
					<title>Sheet.121</title>
					<path d="M18.29 284.16 L18.29 287.2 L19.67 287.2 L20.97 289.37 L27 289.37 L27 261.8 L18.29 261.8 L18.29 265.76
								 L22.03 265.76 L22.03 284.16 L18.29 284.16 ZM22.03 265.76 L1.35 265.76 L1.35 284.16 L22.03 284.16
								 L22.03 265.76 ZM23.14 293 L19.67 287.2 L3.47 287.2 L0 293 L23.14 293 ZM13.39 284.16 L9.75 284.16
								 L9.75 287.2 L13.39 287.2 L13.39 284.16 Z" class="st7"/>
				</g>
				<g id="shape122-15" transform="translate(2.68713,-12.8996)">
					<title>Sheet.122</title>
					<path d="M18.03 278.08 L0 278.08 L0 293 L18.03 293 L18.03 278.08 Z" class="st8"/>
				</g>
				<g id="shape123-17" transform="translate(3.14907,-3.59849)">
					<title>Sheet.123</title>
					<path d="M20.36 266.09 L22.23 266.09 L22.23 265.12 L20.36 265.12 L20.36 266.09 ZM20.36 267.81 L22.23 267.81 L22.23
								 266.85 L20.36 266.85 L20.36 267.81 ZM15.8 290.75 L14.77 290.75 L15.35 291.6 L16.46 291.6 L15.8 290.75
								 ZM14.64 289.24 L13.75 289.24 L14.37 290.15 L15.34 290.15 L14.64 289.24 ZM14.22 290.75 L13.19 290.75
								 L13.64 291.6 L14.75 291.6 L14.22 290.75 ZM13.28 289.24 L12.39 289.24 L12.88 290.15 L13.85 290.15
								 L13.28 289.24 ZM12.64 290.75 L11.61 290.75 L11.94 291.6 L13.05 291.6 L12.64 290.75 ZM11.92 289.24
								 L11.03 289.24 L11.38 290.17 L12.36 290.17 L11.92 289.24 ZM11.06 290.75 L10.03 290.75 L10.23 291.6
								 L11.34 291.6 L11.06 290.75 ZM10.57 289.3 L9.68 289.3 L9.89 290.17 L10.86 290.17 L10.57 289.3 ZM9.47
								 290.75 L8.45 290.75 L8.53 291.6 L9.64 291.6 L9.47 290.75 ZM9.21 289.37 L8.31 289.37 L8.4 290.23
								 L9.37 290.23 L9.21 289.37 ZM7.83 289.37 L6.93 289.37 L6.89 290.23 L7.87 290.23 L7.83 289.37 ZM7.89
								 290.75 L6.86 290.75 L6.82 291.6 L7.93 291.6 L7.89 290.75 ZM6.45 289.37 L5.55 289.37 L5.38 290.23
								 L6.36 290.23 L6.45 289.37 ZM6.31 290.75 L5.28 290.75 L5.12 291.6 L6.22 291.6 L6.31 290.75 ZM11.95
								 292.15 L4.7 292.15 L4.51 293 L12.27 293 L11.95 292.15 ZM5.07 289.37 L4.17 289.37 L3.88 290.23 L4.86
								 290.23 L5.07 289.37 ZM4.73 290.75 L3.7 290.75 L3.41 291.6 L4.52 291.6 L4.73 290.75 ZM3.68 289.37
								 L2.78 289.37 L2.37 290.23 L3.35 290.23 L3.68 289.37 ZM3.15 290.75 L2.12 290.75 L1.71 291.6 L2.81
								 291.6 L3.15 290.75 ZM2.3 289.37 L1.4 289.37 L0.87 290.23 L1.84 290.23 L2.3 289.37 ZM1.56 290.75
								 L0.54 290.75 L0 291.6 L1.11 291.6 L1.56 290.75 Z" class="st9"/>
				</g>
				<g id="shape120-20">
					<text x="-12.25" y="306" class="st10">Controller</text>				</g>
			</g>
		</g>
		<g id="shape161-22" transform="translate(229.75,-16)">
			<title>Rounded Rectangle.161</title>
			<desc>Red Network</desc>
			<path d="M0 293 L162 293 L162 174.88 L0 174.88 L0 293 Z" class="st11"/>
			<text x="39.38" y="195.08" class="st12">Red Network</text>		</g>
		<g id="shape197-25" transform="translate(229.75,-138.625)">
			<title>Rounded Rectangle.197</title>
			<desc>Blue Network</desc>
			<path d="M0 293 L162 293 L162 175.58 L0 175.58 L0 293 Z" class="st13"/>
			<text x="33.26" y="195.78" class="st14">Blue Network</text>		</g>
		<g id="group198-28" transform="translate(317.5,-173.5)">
			<title>Virtual server.198</title>
			<g id="shape199-29" transform="translate(11.0405,-2)">
				<title>Sheet.199</title>
				<rect x="0" y="243" width="31.919" height="50" class="st15"/>
			</g>
			<g id="shape200-31" transform="translate(34.8965,-23.344)">
				<title>Sheet.200</title>
				<ellipse cx="1.9295" cy="291.07" rx="1.9295" ry="1.9295" class="st16"/>
			</g>
			<g id="shape201-33" transform="translate(23.1875,-10.196)">
				<title>Sheet.201</title>
				<path d="M-0 293 L15.57 293 L15.57 291.75 L-0 291.75 L-0 293 ZM-0 289.21 L15.57 289.21 L15.57 287.96 L-0 287.96 L-0
							 289.21 ZM-0 285.42 L15.57 285.42 L15.57 284.17 L-0 284.17 L-0 285.42 Z" class="st9"/>
			</g>
			<g id="shape202-36" transform="translate(9.0405,1.00583E-06)">
				<title>Sheet.202</title>
				<path d="M0 293 L35.92 293 L35.92 239 L0 239 L0 293" class="st17"/>
			</g>
		</g>
		<g id="group192-39" transform="translate(247.373,-177.623)">
			<title>Ring network.192</title>
			<g id="shape193-40">
				<title>Sheet.193</title>
				<path d="M31.5 262.25 L30.75 262.25" class="st18"/>
				<path d="M31.5 262.25 L30.75 262.25" class="st18"/>
				<path d="M31.5 271.25 L30.75 262.25" class="st18"/>
				<path d="M33 262.25 L30.75 262.25" class="st18"/>
				<path d="M32.8 260.2 L30.75 262.25" class="st18"/>
				<path d="M33 262.25 L30.75 262.25" class="st18"/>
				<path d="M33 262.25 L30.75 262.25" class="st18"/>
				<path d="M24 262.25 L30.75 262.25" class="st18"/>
				<path d="M20.91 262.25 L30.75 262.25" class="st18"/>
				<path d="M23.98 269.02 L30.75 262.25" class="st18"/>
				<path d="M30.75 272.09 L30.75 262.25" class="st18"/>
				<path d="M97.13 270.12 L30.75 262.25" class="st18"/>
				<path d="M40.59 262.25 L30.75 262.25" class="st18"/>
				<path d="M37.51 255.49 L30.75 262.25" class="st18"/>
				<path d="M30.75 252.41 L30.75 262.25" class="st18"/>
				<path d="M23.98 255.49 L30.75 262.25" class="st18"/>
				<path d="M20.91 262.25 L30.75 262.25" class="st18"/>
				<path d="M23.98 269.02 L30.75 262.25" class="st18"/>
				<path d="M30.75 272.09 L30.75 262.25" class="st18"/>
				<path d="M37.51 269.02 L30.75 262.25" class="st18"/>
				<path d="M40.59 262.25 L30.75 262.25" class="st18"/>
				<path d="M37.51 255.49 L30.75 262.25" class="st18"/>
				<path d="M30.75 252.41 L30.75 262.25" class="st18"/>
				<path d="M23.98 255.49 L30.75 262.25" class="st18"/>
				<path d="M20.91 262.25 L30.75 262.25" class="st18"/>
				<path d="M23.98 269.02 L30.75 262.25" class="st18"/>
				<path d="M30.75 272.09 L30.75 262.25" class="st18"/>
				<path d="M37.51 269.02 L30.75 262.25" class="st18"/>
				<path d="M40.59 262.25 L30.75 262.25" class="st18"/>
				<path d="M37.51 255.49 L30.75 262.25" class="st18"/>
				<path d="M30.75 252.41 L30.75 262.25" class="st18"/>
				<path d="M23.98 255.49 L30.75 262.25" class="st18"/>
				<path d="M20.91 262.25 L30.75 262.25" class="st18"/>
				<path d="M23.98 269.02 L30.75 262.25" class="st18"/>
				<path d="M30.75 272.09 L30.75 262.25" class="st18"/>
				<path d="M37.51 269.02 L30.75 262.25" class="st18"/>
				<path d="M40.59 262.25 L30.75 262.25" class="st18"/>
				<path d="M37.51 255.49 L30.75 262.25" class="st18"/>
				<path d="M30.75 252.41 L30.75 262.25" class="st18"/>
				<path d="M23.98 255.49 L30.75 262.25" class="st18"/>
				<path d="M20.91 262.25 L30.75 262.25" class="st18"/>
				<path d="M23.98 269.02 L30.75 262.25" class="st18"/>
				<path d="M30.75 272.09 L30.75 262.25" class="st18"/>
				<path d="M37.51 269.02 L30.75 262.25" class="st18"/>
				<path d="M40.59 262.25 L30.75 262.25" class="st18"/>
				<path d="M37.51 255.49 L30.75 262.25" class="st18"/>
				<path d="M30.75 252.41 L30.75 262.25" class="st18"/>
				<path d="M23.98 255.49 L30.75 262.25" class="st18"/>
				<path d="M20.91 262.25 L30.75 262.25" class="st18"/>
				<path d="M23.98 269.02 L30.75 262.25" class="st18"/>
				<path d="M30.75 272.09 L30.75 262.25" class="st18"/>
				<path d="M37.51 269.02 L30.75 262.25" class="st18"/>
				<path d="M40.59 262.25 L30.75 262.25" class="st18"/>
				<path d="M37.51 255.49 L30.75 262.25" class="st18"/>
				<path d="M30.75 252.41 L30.75 262.25" class="st18"/>
				<path d="M23.98 255.49 L30.75 262.25" class="st18"/>
				<path d="M20.91 262.25 L30.75 262.25" class="st18"/>
				<path d="M23.98 269.02 L30.75 262.25" class="st18"/>
				<path d="M30.75 272.09 L30.75 262.25" class="st18"/>
				<path d="M37.51 269.02 L30.75 262.25" class="st18"/>
				<path d="M40.59 262.25 L30.75 262.25" class="st18"/>
				<path d="M37.51 255.49 L30.75 262.25" class="st18"/>
				<path d="M30.75 252.41 L30.75 262.25" class="st18"/>
				<path d="M23.98 255.49 L30.75 262.25" class="st18"/>
			</g>
			<g id="shape194-106">
				<title>Sheet.194</title>
				<path d="M27.6 262.25 A3.6 3.6 -180 1 0 20.4 262.25 A3.6 3.6 -180 1 0 27.6 262.25 ZM36.6 262.25 A3.6 3.6 -180 1 0
							 29.4 262.25 A3.6 3.6 -180 1 0 36.6 262.25 ZM36.6 262.25 A3.6 3.6 -180 1 0 29.4 262.25 A3.6 3.6 -180
							 1 0 36.6 262.25 ZM36.4 260.2 A3.6 3.6 -180 1 0 29.2 260.2 A3.6 3.6 -180 1 0 36.4 260.2 ZM36.6 262.25
							 A3.6 3.6 -180 1 0 29.4 262.25 A3.6 3.6 -180 1 0 36.6 262.25 ZM35.1 271.25 A3.6 3.6 -180 1 0 27.9 271.25
							 A3.6 3.6 -180 1 0 35.1 271.25 ZM35.1 262.25 A3.6 3.6 -180 1 0 27.9 262.25 A3.6 3.6 -180 1 0 35.1 262.25
							 ZM35.1 262.25 A3.6 3.6 -180 1 0 27.9 262.25 A3.6 3.6 -180 1 0 35.1 262.25 ZM24.51 262.25 A3.6 3.6 -180
							 1 0 17.31 262.25 A3.6 3.6 -180 1 0 24.51 262.25 ZM27.58 269.02 A3.6 3.6 -180 1 0 20.38 269.02 A3.6 3.6
							 -180 1 0 27.58 269.02 ZM34.35 272.09 A3.6 3.6 -180 1 0 27.15 272.09 A3.6 3.6 -180 1 0 34.35 272.09 ZM100.73
							 270.12 A3.6 3.6 -180 1 0 93.53 270.12 A3.6 3.6 -180 1 0 100.73 270.12 ZM44.19 262.25 A3.6 3.6 -180 1
							 0 36.99 262.25 A3.6 3.6 -180 1 0 44.19 262.25 ZM41.11 255.49 A3.6 3.6 -180 1 0 33.91 255.49 A3.6 3.6
							 -180 1 0 41.11 255.49 ZM34.35 252.41 A3.6 3.6 -180 1 0 27.15 252.41 A3.6 3.6 -180 1 0 34.35 252.41 ZM27.58
							 255.49 A3.6 3.6 -180 1 0 20.38 255.49 A3.6 3.6 -180 1 0 27.58 255.49 ZM24.51 262.25 A3.6 3.6 -180 1
							 0 17.31 262.25 A3.6 3.6 -180 1 0 24.51 262.25 ZM27.58 269.02 A3.6 3.6 -180 1 0 20.38 269.02 A3.6 3.6
							 -180 1 0 27.58 269.02 ZM34.35 272.09 A3.6 3.6 -180 1 0 27.15 272.09 A3.6 3.6 -180 1 0 34.35 272.09 ZM41.11
							 269.02 A3.6 3.6 -180 1 0 33.91 269.02 A3.6 3.6 -180 1 0 41.11 269.02 ZM44.19 262.25 A3.6 3.6 -180 1
							 0 36.99 262.25 A3.6 3.6 -180 1 0 44.19 262.25 ZM41.11 255.49 A3.6 3.6 -180 1 0 33.91 255.49 A3.6 3.6
							 -180 1 0 41.11 255.49 ZM34.35 252.41 A3.6 3.6 -180 1 0 27.15 252.41 A3.6 3.6 -180 1 0 34.35 252.41 ZM27.58
							 255.49 A3.6 3.6 -180 1 0 20.38 255.49 A3.6 3.6 -180 1 0 27.58 255.49 ZM24.51 262.25 A3.6 3.6 -180 1
							 0 17.31 262.25 A3.6 3.6 -180 1 0 24.51 262.25 ZM27.58 269.02 A3.6 3.6 -180 1 0 20.38 269.02 A3.6 3.6
							 -180 1 0 27.58 269.02 ZM34.35 272.09 A3.6 3.6 -180 1 0 27.15 272.09 A3.6 3.6 -180 1 0 34.35 272.09 ZM41.11
							 269.02 A3.6 3.6 -180 1 0 33.91 269.02 A3.6 3.6 -180 1 0 41.11 269.02 ZM44.19 262.25 A3.6 3.6 -180 1
							 0 36.99 262.25 A3.6 3.6 -180 1 0 44.19 262.25 ZM41.11 255.49 A3.6 3.6 -180 1 0 33.91 255.49 A3.6 3.6
							 -180 1 0 41.11 255.49 ZM34.35 252.41 A3.6 3.6 -180 1 0 27.15 252.41 A3.6 3.6 -180 1 0 34.35 252.41 ZM27.58
							 255.49 A3.6 3.6 -180 1 0 20.38 255.49 A3.6 3.6 -180 1 0 27.58 255.49 ZM24.51 262.25 A3.6 3.6 -180 1
							 0 17.31 262.25 A3.6 3.6 -180 1 0 24.51 262.25 ZM27.58 269.02 A3.6 3.6 -180 1 0 20.38 269.02 A3.6 3.6
							 -180 1 0 27.58 269.02 ZM34.35 272.09 A3.6 3.6 -180 1 0 27.15 272.09 A3.6 3.6 -180 1 0 34.35 272.09 ZM41.11
							 269.02 A3.6 3.6 -180 1 0 33.91 269.02 A3.6 3.6 -180 1 0 41.11 269.02 ZM44.19 262.25 A3.6 3.6 -180 1
							 0 36.99 262.25 A3.6 3.6 -180 1 0 44.19 262.25 ZM41.11 255.49 A3.6 3.6 -180 1 0 33.91 255.49 A3.6 3.6
							 -180 1 0 41.11 255.49 ZM34.35 252.41 A3.6 3.6 -180 1 0 27.15 252.41 A3.6 3.6 -180 1 0 34.35 252.41 ZM27.58
							 255.49 A3.6 3.6 -180 1 0 20.38 255.49 A3.6 3.6 -180 1 0 27.58 255.49 ZM24.51 262.25 A3.6 3.6 -180 1
							 0 17.31 262.25 A3.6 3.6 -180 1 0 24.51 262.25 ZM27.58 269.02 A3.6 3.6 -180 1 0 20.38 269.02 A3.6 3.6
							 -180 1 0 27.58 269.02 ZM34.35 272.09 A3.6 3.6 -180 1 0 27.15 272.09 A3.6 3.6 -180 1 0 34.35 272.09 ZM41.11
							 269.02 A3.6 3.6 -180 1 0 33.91 269.02 A3.6 3.6 -180 1 0 41.11 269.02 ZM44.19 262.25 A3.6 3.6 -180 1
							 0 36.99 262.25 A3.6 3.6 -180 1 0 44.19 262.25 ZM41.11 255.49 A3.6 3.6 -180 1 0 33.91 255.49 A3.6 3.6
							 -180 1 0 41.11 255.49 ZM34.35 252.41 A3.6 3.6 -180 1 0 27.15 252.41 A3.6 3.6 -180 1 0 34.35 252.41 ZM27.58
							 255.49 A3.6 3.6 -180 1 0 20.38 255.49 A3.6 3.6 -180 1 0 27.58 255.49 ZM24.51 262.25 A3.6 3.6 -180 1
							 0 17.31 262.25 A3.6 3.6 -180 1 0 24.51 262.25 ZM27.58 269.02 A3.6 3.6 -180 1 0 20.38 269.02 A3.6 3.6
							 -180 1 0 27.58 269.02 ZM34.35 272.09 A3.6 3.6 -180 1 0 27.15 272.09 A3.6 3.6 -180 1 0 34.35 272.09 ZM41.11
							 269.02 A3.6 3.6 -180 1 0 33.91 269.02 A3.6 3.6 -180 1 0 41.11 269.02 ZM44.19 262.25 A3.6 3.6 -180 1
							 0 36.99 262.25 A3.6 3.6 -180 1 0 44.19 262.25 ZM41.11 255.49 A3.6 3.6 -180 1 0 33.91 255.49 A3.6 3.6
							 -180 1 0 41.11 255.49 ZM34.35 252.41 A3.6 3.6 -180 1 0 27.15 252.41 A3.6 3.6 -180 1 0 34.35 252.41 ZM27.58
							 255.49 A3.6 3.6 -180 1 0 20.38 255.49 A3.6 3.6 -180 1 0 27.58 255.49 ZM24.51 262.25 A3.6 3.6 -180 1
							 0 17.31 262.25 A3.6 3.6 -180 1 0 24.51 262.25 ZM27.58 269.02 A3.6 3.6 -180 1 0 20.38 269.02 A3.6 3.6
							 -180 1 0 27.58 269.02 ZM34.35 272.09 A3.6 3.6 -180 1 0 27.15 272.09 A3.6 3.6 -180 1 0 34.35 272.09 ZM41.11
							 269.02 A3.6 3.6 -180 1 0 33.91 269.02 A3.6 3.6 -180 1 0 41.11 269.02 ZM44.19 262.25 A3.6 3.6 -180 1
							 0 36.99 262.25 A3.6 3.6 -180 1 0 44.19 262.25 ZM41.11 255.49 A3.6 3.6 -180 1 0 33.91 255.49 A3.6 3.6
							 -180 1 0 41.11 255.49 ZM34.35 252.41 A3.6 3.6 -180 1 0 27.15 252.41 A3.6 3.6 -180 1 0 34.35 252.41 ZM27.58
							 255.49 A3.6 3.6 -180 1 0 20.38 255.49 A3.6 3.6 -180 1 0 27.58 255.49 Z" class="st19"/>
			</g>
			<g id="shape195-108">
				<title>Sheet.195</title>
				<ellipse cx="30.75" cy="262.25" rx="15.375" ry="15.375" class="st20"/>
			</g>
			<g id="shape196-110" transform="translate(21.1406,-21.1406)">
				<title>Sheet.196</title>
				<ellipse cx="9.60937" cy="283.391" rx="9.60937" ry="9.60937" class="st21"/>
			</g>
		</g>
		<g id="group269-112" transform="translate(244.937,-39.0625)">
			<title>Sheet.269</title>
			<g id="group262-113" transform="translate(14.625,-10.4158)">
				<title>Sheet.262</title>
				<g id="shape247-114">
					<title>Circle.161</title>
					<path d="M0 277.68 A15.3234 15.3234 0 1 1 30.65 277.68 A15.3234 15.3234 0 0 1 0 277.68 Z" class="st22"/>
				</g>
				<g id="shape248-116" transform="translate(6.04211,-5.88267)">
					<title>Circle.248</title>
					<path d="M0 283.56 A9.28125 9.44069 0 0 1 18.56 283.56 A9.28125 9.44069 0 1 1 -0 283.56 Z" class="st23"/>
				</g>
			</g>
		</g>
		<g id="shape343-118" transform="translate(232,-35.6875)">
			<title>Sheet.343</title>
			<desc>ziti-private-red</desc>
			<rect x="0" y="278.937" width="87.75" height="14.0625" class="st24"/>
			<text x="4.52" y="289.57" class="st25">ziti-private-red</text>		</g>
		<g id="shape329-121" transform="translate(232,-180.25)">
			<title>Ring network.329</title>
			<desc>ziti-private-blue</desc>
			<rect x="0" y="279.078" width="92.25" height="13.9219" class="st24"/>
			<text x="4.23" y="289.04" class="st26">ziti-private-blue</text>		</g>
		<g id="shape363-124" transform="translate(306.25,-155.5)">
			<title>Virtual server.363</title>
			<desc>web-test-blue</desc>
			<rect x="0" y="275" width="83.25" height="18" class="st24"/>
			<text x="5.13" y="287" class="st27">web-test-blue</text>		</g>
		<g id="group366-127" transform="translate(4.75,-31.7512)">
			<title>Sheet.366</title>
			<g id="shape325-128" transform="translate(9,-148.124)">
				<title>Rounded Rectangle.325</title>
				<desc>ziti-edge-router</desc>
				<path d="M3.09 293 L95.91 293 A3.0937 3.0937 -180 0 0 99 289.91 L99 283.34 A3.0937 3.0937 -180 0 0 95.91 280.25 L3.09
							 280.25 A3.0937 3.0937 -180 0 0 0 283.34 L0 289.91 A3.0937 3.0937 -180 0 0 3.09 293 Z" class="st28"/>
				<text x="8.32" y="289.63" class="st27">ziti-edge-router</text>			</g>
			<g id="shape330-131" transform="translate(0,-0.748791)">
				<title>Rounded Rectangle.330</title>
				<desc>ziti-edge-router-wss</desc>
				<path d="M3.66 293 L113.34 293 A3.65619 3.65619 -180 0 0 117 289.34 L117 283.91 A3.65619 3.65619 -180 0 0 113.34
							 280.25 L3.66 280.25 A3.65619 3.65619 -180 0 0 -0 283.91 L0 289.34 A3.65619 3.65619 -180 0 0 3.66 293
							 Z" class="st28"/>
				<text x="4.77" y="289.63" class="st27">ziti-edge-router-wss</text>			</g>
			<g id="group331-134" transform="translate(49.5,-106.452)">
				<title>Sheet.331</title>
				<g id="group332-135">
					<title>Logo_Mark</title>
					<g id="shape333-136">
						<title>Sheet.333</title>
						<ellipse cx="7.17187" cy="285.828" rx="7.17187" ry="7.17187" class="st29"/>
					</g>
					<g id="shape334-140" transform="translate(3.18354,-0.883131)">
						<title>Sheet.334</title>
						<path d="M4.02 280.29 L0 286.41 L2.28 287.89 L2.66 287.32 L3.85 293 L7.8 286.85 L5.58 285.4 L5.21 285.98
									 L4.02 280.29 ZM5.82 286.43 L6.79 287.08 L4.19 291.06 L3 285.38 L2.03 286.86 L1.08 286.23 L3.69
									 282.24 L4.87 287.88 L5.82 286.43 Z" class="st30"/>
					</g>
				</g>
			</g>
			<g id="group213-142" transform="translate(27.75,-145.499)">
				<title>Ring network.213</title>
				<g id="shape214-143">
					<title>Sheet.214</title>
					<path d="M28.7 266.35 L30.75 262.25" class="st31"/>
					<path d="M32.8 268.4 L30.75 262.25" class="st31"/>
					<path d="M29.25 257.75 L30.75 262.25" class="st31"/>
					<path d="M36.9 264.3 L30.75 262.25" class="st31"/>
					<path d="M32.8 260.2 L30.75 262.25" class="st31"/>
					<path d="M30.75 256.1 L30.75 262.25" class="st31"/>
					<path d="M24.6 252 L30.75 262.25" class="st31"/>
					<path d="M21 266 L30.75 262.25" class="st31"/>
					<path d="M23.98 269.02 L30.75 262.25" class="st31"/>
					<path d="M30.75 272.09 L30.75 262.25" class="st31"/>
					<path d="M28.7 260.2 L30.75 262.25" class="st31"/>
					<path d="M27 257 L30.75 262.25" class="st31"/>
					<path d="M37.51 255.49 L30.75 262.25" class="st31"/>
					<path d="M30.75 252.41 L30.75 262.25" class="st31"/>
					<path d="M23.98 255.49 L30.75 262.25" class="st31"/>
					<path d="M24.75 257.75 L30.75 262.25" class="st31"/>
					<path d="M23.98 269.02 L30.75 262.25" class="st31"/>
					<path d="M30.75 272.09 L30.75 262.25" class="st31"/>
					<path d="M220.5 333.5 L30.75 262.25" class="st31"/>
					<path d="M37.51 255.49 L30.75 262.25" class="st31"/>
					<path d="M30.75 252.41 L30.75 262.25" class="st31"/>
					<path d="M23.98 255.49 L30.75 262.25" class="st31"/>
					<path d="M27.98 262.84 L30.75 262.25" class="st31"/>
					<path d="M23.98 269.02 L30.75 262.25" class="st31"/>
					<path d="M30.75 272.09 L30.75 262.25" class="st31"/>
					<path d="M37.51 269.02 L30.75 262.25" class="st31"/>
					<path d="M251.06 262.39 L30.75 262.25" class="st31"/>
					<path d="M37.51 255.49 L30.75 262.25" class="st31"/>
					<path d="M30.75 252.41 L30.75 262.25" class="st31"/>
					<path d="M23.98 255.49 L30.75 262.25" class="st31"/>
					<path d="M20.91 262.25 L30.75 262.25" class="st31"/>
					<path d="M23.98 269.02 L30.75 262.25" class="st31"/>
					<path d="M30.75 272.09 L30.75 262.25" class="st31"/>
					<path d="M37.51 269.02 L30.75 262.25" class="st31"/>
					<path d="M40.59 262.25 L30.75 262.25" class="st31"/>
					<path d="M37.51 255.49 L30.75 262.25" class="st31"/>
					<path d="M30.75 252.41 L30.75 262.25" class="st31"/>
					<path d="M23.98 255.49 L30.75 262.25" class="st31"/>
					<path d="M20.91 262.25 L30.75 262.25" class="st31"/>
					<path d="M23.98 269.02 L30.75 262.25" class="st31"/>
					<path d="M30.75 272.09 L30.75 262.25" class="st31"/>
					<path d="M37.51 269.02 L30.75 262.25" class="st31"/>
					<path d="M40.59 262.25 L30.75 262.25" class="st31"/>
					<path d="M37.51 255.49 L30.75 262.25" class="st31"/>
					<path d="M30.75 252.41 L30.75 262.25" class="st31"/>
					<path d="M23.98 255.49 L30.75 262.25" class="st31"/>
					<path d="M20.91 262.25 L30.75 262.25" class="st31"/>
					<path d="M23.98 269.02 L30.75 262.25" class="st31"/>
					<path d="M30.75 272.09 L30.75 262.25" class="st31"/>
					<path d="M37.51 269.02 L30.75 262.25" class="st31"/>
					<path d="M40.59 262.25 L30.75 262.25" class="st31"/>
					<path d="M37.51 255.49 L30.75 262.25" class="st31"/>
					<path d="M30.75 252.41 L30.75 262.25" class="st31"/>
					<path d="M23.98 255.49 L30.75 262.25" class="st31"/>
					<path d="M20.91 262.25 L30.75 262.25" class="st31"/>
					<path d="M23.98 269.02 L30.75 262.25" class="st31"/>
					<path d="M30.75 272.09 L30.75 262.25" class="st31"/>
					<path d="M37.51 269.02 L30.75 262.25" class="st31"/>
					<path d="M40.59 262.25 L30.75 262.25" class="st31"/>
					<path d="M37.51 255.49 L30.75 262.25" class="st31"/>
					<path d="M30.75 252.41 L30.75 262.25" class="st31"/>
					<path d="M23.98 255.49 L30.75 262.25" class="st31"/>
				</g>
				<g id="shape215-207">
					<title>Sheet.215</title>
					<path d="M24.6 266 A3.6 3.6 -180 1 0 17.4 266 A3.6 3.6 -180 1 0 24.6 266 ZM28.2 252 A3.6 3.6 -180 1 0 21 252
								 A3.6 3.6 -180 1 0 28.2 252 ZM34.35 256.1 A3.6 3.6 -180 1 0 27.15 256.1 A3.6 3.6 -180 1 0 34.35 256.1
								 ZM36.4 260.2 A3.6 3.6 -180 1 0 29.2 260.2 A3.6 3.6 -180 1 0 36.4 260.2 ZM40.5 264.3 A3.6 3.6 -180
								 1 0 33.3 264.3 A3.6 3.6 -180 1 0 40.5 264.3 ZM32.85 257.75 A3.6 3.6 -180 1 0 25.65 257.75 A3.6 3.6
								 -180 1 0 32.85 257.75 ZM36.4 268.4 A3.6 3.6 -180 1 0 29.2 268.4 A3.6 3.6 -180 1 0 36.4 268.4 ZM32.3
								 266.35 A3.6 3.6 -180 1 0 25.1 266.35 A3.6 3.6 -180 1 0 32.3 266.35 ZM34.35 262.25 A3.6 3.6 -180
								 1 0 27.15 262.25 A3.6 3.6 -180 1 0 34.35 262.25 ZM27.58 269.02 A3.6 3.6 -180 1 0 20.38 269.02 A3.6
								 3.6 -180 1 0 27.58 269.02 ZM34.35 272.09 A3.6 3.6 -180 1 0 27.15 272.09 A3.6 3.6 -180 1 0 34.35
								 272.09 ZM32.3 260.2 A3.6 3.6 -180 1 0 25.1 260.2 A3.6 3.6 -180 1 0 32.3 260.2 ZM30.6 257 A3.6 3.6
								 -180 1 0 23.4 257 A3.6 3.6 -180 1 0 30.6 257 ZM41.11 255.49 A3.6 3.6 -180 1 0 33.91 255.49 A3.6
								 3.6 -180 1 0 41.11 255.49 ZM34.35 252.41 A3.6 3.6 -180 1 0 27.15 252.41 A3.6 3.6 -180 1 0 34.35
								 252.41 ZM27.58 255.49 A3.6 3.6 -180 1 0 20.38 255.49 A3.6 3.6 -180 1 0 27.58 255.49 ZM28.35 257.75
								 A3.6 3.6 -180 1 0 21.15 257.75 A3.6 3.6 -180 1 0 28.35 257.75 ZM27.58 269.02 A3.6 3.6 -180 1 0 20.38
								 269.02 A3.6 3.6 -180 1 0 27.58 269.02 ZM34.35 272.09 A3.6 3.6 -180 1 0 27.15 272.09 A3.6 3.6 -180
								 1 0 34.35 272.09 ZM224.1 333.5 A3.6 3.6 -180 1 0 216.9 333.5 A3.6 3.6 -180 1 0 224.1 333.5 ZM34.35
								 262.25 A3.6 3.6 -180 1 0 27.15 262.25 A3.6 3.6 -180 1 0 34.35 262.25 ZM41.11 255.49 A3.6 3.6 -180
								 1 0 33.91 255.49 A3.6 3.6 -180 1 0 41.11 255.49 ZM34.35 252.41 A3.6 3.6 -180 1 0 27.15 252.41 A3.6
								 3.6 -180 1 0 34.35 252.41 ZM27.58 255.49 A3.6 3.6 -180 1 0 20.38 255.49 A3.6 3.6 -180 1 0 27.58
								 255.49 ZM31.58 262.84 A3.6 3.6 -180 1 0 24.38 262.84 A3.6 3.6 -180 1 0 31.58 262.84 ZM27.58 269.02
								 A3.6 3.6 -180 1 0 20.38 269.02 A3.6 3.6 -180 1 0 27.58 269.02 ZM34.35 272.09 A3.6 3.6 -180 1 0 27.15
								 272.09 A3.6 3.6 -180 1 0 34.35 272.09 ZM41.11 269.02 A3.6 3.6 -180 1 0 33.91 269.02 A3.6 3.6 -180
								 1 0 41.11 269.02 ZM254.66 262.39 A3.6 3.6 -180 1 0 247.46 262.39 A3.6 3.6 -180 1 0 254.66 262.39
								 ZM41.11 255.49 A3.6 3.6 -180 1 0 33.91 255.49 A3.6 3.6 -180 1 0 41.11 255.49 ZM34.35 252.41 A3.6
								 3.6 -180 1 0 27.15 252.41 A3.6 3.6 -180 1 0 34.35 252.41 ZM27.58 255.49 A3.6 3.6 -180 1 0 20.38
								 255.49 A3.6 3.6 -180 1 0 27.58 255.49 ZM24.51 262.25 A3.6 3.6 -180 1 0 17.31 262.25 A3.6 3.6 -180
								 1 0 24.51 262.25 ZM27.58 269.02 A3.6 3.6 -180 1 0 20.38 269.02 A3.6 3.6 -180 1 0 27.58 269.02 ZM34.35
								 272.09 A3.6 3.6 -180 1 0 27.15 272.09 A3.6 3.6 -180 1 0 34.35 272.09 ZM41.11 269.02 A3.6 3.6 -180
								 1 0 33.91 269.02 A3.6 3.6 -180 1 0 41.11 269.02 ZM44.19 262.25 A3.6 3.6 -180 1 0 36.99 262.25 A3.6
								 3.6 -180 1 0 44.19 262.25 ZM41.11 255.49 A3.6 3.6 -180 1 0 33.91 255.49 A3.6 3.6 -180 1 0 41.11
								 255.49 ZM34.35 252.41 A3.6 3.6 -180 1 0 27.15 252.41 A3.6 3.6 -180 1 0 34.35 252.41 ZM27.58 255.49
								 A3.6 3.6 -180 1 0 20.38 255.49 A3.6 3.6 -180 1 0 27.58 255.49 ZM24.51 262.25 A3.6 3.6 -180 1 0 17.31
								 262.25 A3.6 3.6 -180 1 0 24.51 262.25 ZM27.58 269.02 A3.6 3.6 -180 1 0 20.38 269.02 A3.6 3.6 -180
								 1 0 27.58 269.02 ZM34.35 272.09 A3.6 3.6 -180 1 0 27.15 272.09 A3.6 3.6 -180 1 0 34.35 272.09 ZM41.11
								 269.02 A3.6 3.6 -180 1 0 33.91 269.02 A3.6 3.6 -180 1 0 41.11 269.02 ZM44.19 262.25 A3.6 3.6 -180
								 1 0 36.99 262.25 A3.6 3.6 -180 1 0 44.19 262.25 ZM41.11 255.49 A3.6 3.6 -180 1 0 33.91 255.49 A3.6
								 3.6 -180 1 0 41.11 255.49 ZM34.35 252.41 A3.6 3.6 -180 1 0 27.15 252.41 A3.6 3.6 -180 1 0 34.35
								 252.41 ZM27.58 255.49 A3.6 3.6 -180 1 0 20.38 255.49 A3.6 3.6 -180 1 0 27.58 255.49 ZM24.51 262.25
								 A3.6 3.6 -180 1 0 17.31 262.25 A3.6 3.6 -180 1 0 24.51 262.25 ZM27.58 269.02 A3.6 3.6 -180 1 0 20.38
								 269.02 A3.6 3.6 -180 1 0 27.58 269.02 ZM34.35 272.09 A3.6 3.6 -180 1 0 27.15 272.09 A3.6 3.6 -180
								 1 0 34.35 272.09 ZM41.11 269.02 A3.6 3.6 -180 1 0 33.91 269.02 A3.6 3.6 -180 1 0 41.11 269.02 ZM44.19
								 262.25 A3.6 3.6 -180 1 0 36.99 262.25 A3.6 3.6 -180 1 0 44.19 262.25 ZM41.11 255.49 A3.6 3.6 -180
								 1 0 33.91 255.49 A3.6 3.6 -180 1 0 41.11 255.49 ZM34.35 252.41 A3.6 3.6 -180 1 0 27.15 252.41 A3.6
								 3.6 -180 1 0 34.35 252.41 ZM27.58 255.49 A3.6 3.6 -180 1 0 20.38 255.49 A3.6 3.6 -180 1 0 27.58
								 255.49 ZM24.51 262.25 A3.6 3.6 -180 1 0 17.31 262.25 A3.6 3.6 -180 1 0 24.51 262.25 ZM27.58 269.02
								 A3.6 3.6 -180 1 0 20.38 269.02 A3.6 3.6 -180 1 0 27.58 269.02 ZM34.35 272.09 A3.6 3.6 -180 1 0 27.15
								 272.09 A3.6 3.6 -180 1 0 34.35 272.09 ZM41.11 269.02 A3.6 3.6 -180 1 0 33.91 269.02 A3.6 3.6 -180
								 1 0 41.11 269.02 ZM44.19 262.25 A3.6 3.6 -180 1 0 36.99 262.25 A3.6 3.6 -180 1 0 44.19 262.25 ZM41.11
								 255.49 A3.6 3.6 -180 1 0 33.91 255.49 A3.6 3.6 -180 1 0 41.11 255.49 ZM34.35 252.41 A3.6 3.6 -180
								 1 0 27.15 252.41 A3.6 3.6 -180 1 0 34.35 252.41 ZM27.58 255.49 A3.6 3.6 -180 1 0 20.38 255.49 A3.6
								 3.6 -180 1 0 27.58 255.49 Z" class="st32"/>
				</g>
				<g id="shape216-209">
					<title>Sheet.216</title>
					<ellipse cx="30.75" cy="262.25" rx="15.375" ry="15.375" class="st33"/>
				</g>
				<g id="shape217-211" transform="translate(21.1406,-21.1406)">
					<title>Sheet.217</title>
					<ellipse cx="9.60937" cy="283.391" rx="9.60937" ry="9.60937" class="st21"/>
				</g>
			</g>
			<g id="group276-213" transform="translate(48.375,-166.499)">
				<title>Sheet.276</title>
				<g id="group277-214">
					<title>Logo_Mark</title>
					<g id="shape278-215">
						<title>Sheet.278</title>
						<ellipse cx="10.125" cy="282.875" rx="10.125" ry="10.125" class="st29"/>
					</g>
					<g id="shape279-218" transform="translate(4.49441,-1.24677)">
						<title>Sheet.279</title>
						<path d="M5.67 275.06 L0 283.69 L3.22 285.79 L3.75 284.98 L5.43 293 L11.01 284.32 L7.88 282.27 L7.35 283.1
									 L5.67 275.06 ZM8.21 283.72 L9.59 284.64 L5.92 290.27 L4.23 282.24 L2.87 284.33 L1.52 283.45
									 L5.21 277.81 L6.88 285.77 L8.21 283.72 Z" class="st30"/>
					</g>
				</g>
			</g>
			<g id="group208-220" transform="translate(27.75,0)">
				<title>Ring network.208</title>
				<g id="shape209-221">
					<title>Sheet.209</title>
					<path d="M28.7 266.35 L30.75 262.25" class="st31"/>
					<path d="M32.8 268.4 L30.75 262.25" class="st31"/>
					<path d="M29.25 263 L30.75 262.25" class="st31"/>
					<path d="M36.9 264.3 L30.75 262.25" class="st31"/>
					<path d="M32.8 260.2 L30.75 262.25" class="st31"/>
					<path d="M30.75 256.1 L30.75 262.25" class="st31"/>
					<path d="M24.6 252 L30.75 262.25" class="st31"/>
					<path d="M25.12 262.19 L30.75 262.25" class="st31"/>
					<path d="M220.5 188 L30.75 262.25" class="st31"/>
					<path d="M23.98 269.02 L30.75 262.25" class="st31"/>
					<path d="M30.75 272.09 L30.75 262.25" class="st31"/>
					<path d="M28.7 260.2 L30.75 262.25" class="st31"/>
					<path d="M27 257 L30.75 262.25" class="st31"/>
					<path d="M37.51 255.49 L30.75 262.25" class="st31"/>
					<path d="M30.75 252.41 L30.75 262.25" class="st31"/>
					<path d="M23.98 255.49 L30.75 262.25" class="st31"/>
					<path d="M29.25 263 L30.75 262.25" class="st31"/>
					<path d="M23.98 269.02 L30.75 262.25" class="st31"/>
					<path d="M30.75 272.09 L30.75 262.25" class="st31"/>
					<path d="M242.39 259.95 L30.75 262.25" class="st31"/>
					<path d="M37.51 255.49 L30.75 262.25" class="st31"/>
					<path d="M30.75 252.41 L30.75 262.25" class="st31"/>
					<path d="M23.98 255.49 L30.75 262.25" class="st31"/>
					<path d="M20.91 262.25 L30.75 262.25" class="st31"/>
					<path d="M23.98 269.02 L30.75 262.25" class="st31"/>
					<path d="M30.75 272.09 L30.75 262.25" class="st31"/>
					<path d="M37.51 269.02 L30.75 262.25" class="st31"/>
					<path d="M40.59 262.25 L30.75 262.25" class="st31"/>
					<path d="M37.51 255.49 L30.75 262.25" class="st31"/>
					<path d="M30.75 252.41 L30.75 262.25" class="st31"/>
					<path d="M23.98 255.49 L30.75 262.25" class="st31"/>
					<path d="M20.91 262.25 L30.75 262.25" class="st31"/>
					<path d="M23.98 269.02 L30.75 262.25" class="st31"/>
					<path d="M30.75 272.09 L30.75 262.25" class="st31"/>
					<path d="M37.51 269.02 L30.75 262.25" class="st31"/>
					<path d="M40.59 262.25 L30.75 262.25" class="st31"/>
					<path d="M37.51 255.49 L30.75 262.25" class="st31"/>
					<path d="M30.75 252.41 L30.75 262.25" class="st31"/>
					<path d="M23.98 255.49 L30.75 262.25" class="st31"/>
					<path d="M20.91 262.25 L30.75 262.25" class="st31"/>
					<path d="M23.98 269.02 L30.75 262.25" class="st31"/>
					<path d="M30.75 272.09 L30.75 262.25" class="st31"/>
					<path d="M37.51 269.02 L30.75 262.25" class="st31"/>
					<path d="M40.59 262.25 L30.75 262.25" class="st31"/>
					<path d="M37.51 255.49 L30.75 262.25" class="st31"/>
					<path d="M30.75 252.41 L30.75 262.25" class="st31"/>
					<path d="M23.98 255.49 L30.75 262.25" class="st31"/>
					<path d="M20.91 262.25 L30.75 262.25" class="st31"/>
					<path d="M23.98 269.02 L30.75 262.25" class="st31"/>
					<path d="M30.75 272.09 L30.75 262.25" class="st31"/>
					<path d="M37.51 269.02 L30.75 262.25" class="st31"/>
					<path d="M40.59 262.25 L30.75 262.25" class="st31"/>
					<path d="M37.51 255.49 L30.75 262.25" class="st31"/>
					<path d="M30.75 252.41 L30.75 262.25" class="st31"/>
					<path d="M23.98 255.49 L30.75 262.25" class="st31"/>
					<path d="M20.91 262.25 L30.75 262.25" class="st31"/>
					<path d="M23.98 269.02 L30.75 262.25" class="st31"/>
					<path d="M30.75 272.09 L30.75 262.25" class="st31"/>
					<path d="M37.51 269.02 L30.75 262.25" class="st31"/>
					<path d="M40.59 262.25 L30.75 262.25" class="st31"/>
					<path d="M37.51 255.49 L30.75 262.25" class="st31"/>
					<path d="M30.75 252.41 L30.75 262.25" class="st31"/>
					<path d="M23.98 255.49 L30.75 262.25" class="st31"/>
				</g>
				<g id="shape210-286">
					<title>Sheet.210</title>
					<path d="M28.72 262.19 A3.6 3.6 -180 1 0 21.52 262.19 A3.6 3.6 -180 1 0 28.72 262.19 ZM28.2 252 A3.6 3.6 -180
								 1 0 21 252 A3.6 3.6 -180 1 0 28.2 252 ZM34.35 256.1 A3.6 3.6 -180 1 0 27.15 256.1 A3.6 3.6 -180
								 1 0 34.35 256.1 ZM36.4 260.2 A3.6 3.6 -180 1 0 29.2 260.2 A3.6 3.6 -180 1 0 36.4 260.2 ZM40.5 264.3
								 A3.6 3.6 -180 1 0 33.3 264.3 A3.6 3.6 -180 1 0 40.5 264.3 ZM32.85 263 A3.6 3.6 -180 1 0 25.65 263
								 A3.6 3.6 -180 1 0 32.85 263 ZM36.4 268.4 A3.6 3.6 -180 1 0 29.2 268.4 A3.6 3.6 -180 1 0 36.4 268.4
								 ZM32.3 266.35 A3.6 3.6 -180 1 0 25.1 266.35 A3.6 3.6 -180 1 0 32.3 266.35 ZM224.1 188 A3.6 3.6 -180
								 1 0 216.9 188 A3.6 3.6 -180 1 0 224.1 188 ZM27.58 269.02 A3.6 3.6 -180 1 0 20.38 269.02 A3.6 3.6
								 -180 1 0 27.58 269.02 ZM34.35 272.09 A3.6 3.6 -180 1 0 27.15 272.09 A3.6 3.6 -180 1 0 34.35 272.09
								 ZM32.3 260.2 A3.6 3.6 -180 1 0 25.1 260.2 A3.6 3.6 -180 1 0 32.3 260.2 ZM30.6 257 A3.6 3.6 -180
								 1 0 23.4 257 A3.6 3.6 -180 1 0 30.6 257 ZM41.11 255.49 A3.6 3.6 -180 1 0 33.91 255.49 A3.6 3.6 -180
								 1 0 41.11 255.49 ZM34.35 252.41 A3.6 3.6 -180 1 0 27.15 252.41 A3.6 3.6 -180 1 0 34.35 252.41 ZM27.58
								 255.49 A3.6 3.6 -180 1 0 20.38 255.49 A3.6 3.6 -180 1 0 27.58 255.49 ZM32.85 263 A3.6 3.6 -180 1
								 0 25.65 263 A3.6 3.6 -180 1 0 32.85 263 ZM27.58 269.02 A3.6 3.6 -180 1 0 20.38 269.02 A3.6 3.6 -180
								 1 0 27.58 269.02 ZM34.35 272.09 A3.6 3.6 -180 1 0 27.15 272.09 A3.6 3.6 -180 1 0 34.35 272.09 ZM245.99
								 259.95 A3.6 3.6 -180 1 0 238.79 259.95 A3.6 3.6 -180 1 0 245.99 259.95 ZM34.35 262.25 A3.6 3.6 -180
								 1 0 27.15 262.25 A3.6 3.6 -180 1 0 34.35 262.25 ZM41.11 255.49 A3.6 3.6 -180 1 0 33.91 255.49 A3.6
								 3.6 -180 1 0 41.11 255.49 ZM34.35 252.41 A3.6 3.6 -180 1 0 27.15 252.41 A3.6 3.6 -180 1 0 34.35
								 252.41 ZM27.58 255.49 A3.6 3.6 -180 1 0 20.38 255.49 A3.6 3.6 -180 1 0 27.58 255.49 ZM24.51 262.25
								 A3.6 3.6 -180 1 0 17.31 262.25 A3.6 3.6 -180 1 0 24.51 262.25 ZM27.58 269.02 A3.6 3.6 -180 1 0 20.38
								 269.02 A3.6 3.6 -180 1 0 27.58 269.02 ZM34.35 272.09 A3.6 3.6 -180 1 0 27.15 272.09 A3.6 3.6 -180
								 1 0 34.35 272.09 ZM41.11 269.02 A3.6 3.6 -180 1 0 33.91 269.02 A3.6 3.6 -180 1 0 41.11 269.02 ZM44.19
								 262.25 A3.6 3.6 -180 1 0 36.99 262.25 A3.6 3.6 -180 1 0 44.19 262.25 ZM41.11 255.49 A3.6 3.6 -180
								 1 0 33.91 255.49 A3.6 3.6 -180 1 0 41.11 255.49 ZM34.35 252.41 A3.6 3.6 -180 1 0 27.15 252.41 A3.6
								 3.6 -180 1 0 34.35 252.41 ZM27.58 255.49 A3.6 3.6 -180 1 0 20.38 255.49 A3.6 3.6 -180 1 0 27.58
								 255.49 ZM24.51 262.25 A3.6 3.6 -180 1 0 17.31 262.25 A3.6 3.6 -180 1 0 24.51 262.25 ZM27.58 269.02
								 A3.6 3.6 -180 1 0 20.38 269.02 A3.6 3.6 -180 1 0 27.58 269.02 ZM34.35 272.09 A3.6 3.6 -180 1 0 27.15
								 272.09 A3.6 3.6 -180 1 0 34.35 272.09 ZM41.11 269.02 A3.6 3.6 -180 1 0 33.91 269.02 A3.6 3.6 -180
								 1 0 41.11 269.02 ZM44.19 262.25 A3.6 3.6 -180 1 0 36.99 262.25 A3.6 3.6 -180 1 0 44.19 262.25 ZM41.11
								 255.49 A3.6 3.6 -180 1 0 33.91 255.49 A3.6 3.6 -180 1 0 41.11 255.49 ZM34.35 252.41 A3.6 3.6 -180
								 1 0 27.15 252.41 A3.6 3.6 -180 1 0 34.35 252.41 ZM27.58 255.49 A3.6 3.6 -180 1 0 20.38 255.49 A3.6
								 3.6 -180 1 0 27.58 255.49 ZM24.51 262.25 A3.6 3.6 -180 1 0 17.31 262.25 A3.6 3.6 -180 1 0 24.51
								 262.25 ZM27.58 269.02 A3.6 3.6 -180 1 0 20.38 269.02 A3.6 3.6 -180 1 0 27.58 269.02 ZM34.35 272.09
								 A3.6 3.6 -180 1 0 27.15 272.09 A3.6 3.6 -180 1 0 34.35 272.09 ZM41.11 269.02 A3.6 3.6 -180 1 0 33.91
								 269.02 A3.6 3.6 -180 1 0 41.11 269.02 ZM44.19 262.25 A3.6 3.6 -180 1 0 36.99 262.25 A3.6 3.6 -180
								 1 0 44.19 262.25 ZM41.11 255.49 A3.6 3.6 -180 1 0 33.91 255.49 A3.6 3.6 -180 1 0 41.11 255.49 ZM34.35
								 252.41 A3.6 3.6 -180 1 0 27.15 252.41 A3.6 3.6 -180 1 0 34.35 252.41 ZM27.58 255.49 A3.6 3.6 -180
								 1 0 20.38 255.49 A3.6 3.6 -180 1 0 27.58 255.49 ZM24.51 262.25 A3.6 3.6 -180 1 0 17.31 262.25 A3.6
								 3.6 -180 1 0 24.51 262.25 ZM27.58 269.02 A3.6 3.6 -180 1 0 20.38 269.02 A3.6 3.6 -180 1 0 27.58
								 269.02 ZM34.35 272.09 A3.6 3.6 -180 1 0 27.15 272.09 A3.6 3.6 -180 1 0 34.35 272.09 ZM41.11 269.02
								 A3.6 3.6 -180 1 0 33.91 269.02 A3.6 3.6 -180 1 0 41.11 269.02 ZM44.19 262.25 A3.6 3.6 -180 1 0 36.99
								 262.25 A3.6 3.6 -180 1 0 44.19 262.25 ZM41.11 255.49 A3.6 3.6 -180 1 0 33.91 255.49 A3.6 3.6 -180
								 1 0 41.11 255.49 ZM34.35 252.41 A3.6 3.6 -180 1 0 27.15 252.41 A3.6 3.6 -180 1 0 34.35 252.41 ZM27.58
								 255.49 A3.6 3.6 -180 1 0 20.38 255.49 A3.6 3.6 -180 1 0 27.58 255.49 ZM24.51 262.25 A3.6 3.6 -180
								 1 0 17.31 262.25 A3.6 3.6 -180 1 0 24.51 262.25 ZM27.58 269.02 A3.6 3.6 -180 1 0 20.38 269.02 A3.6
								 3.6 -180 1 0 27.58 269.02 ZM34.35 272.09 A3.6 3.6 -180 1 0 27.15 272.09 A3.6 3.6 -180 1 0 34.35
								 272.09 ZM41.11 269.02 A3.6 3.6 -180 1 0 33.91 269.02 A3.6 3.6 -180 1 0 41.11 269.02 ZM44.19 262.25
								 A3.6 3.6 -180 1 0 36.99 262.25 A3.6 3.6 -180 1 0 44.19 262.25 ZM41.11 255.49 A3.6 3.6 -180 1 0 33.91
								 255.49 A3.6 3.6 -180 1 0 41.11 255.49 ZM34.35 252.41 A3.6 3.6 -180 1 0 27.15 252.41 A3.6 3.6 -180
								 1 0 34.35 252.41 ZM27.58 255.49 A3.6 3.6 -180 1 0 20.38 255.49 A3.6 3.6 -180 1 0 27.58 255.49 Z"
							class="st32"/>
				</g>
				<g id="shape211-288">
					<title>Sheet.211</title>
					<ellipse cx="30.75" cy="262.25" rx="15.375" ry="15.375" class="st33"/>
				</g>
				<g id="shape212-290" transform="translate(21.1406,-21.1406)">
					<title>Sheet.212</title>
					<ellipse cx="9.60937" cy="283.391" rx="9.60937" ry="9.60937" class="st21"/>
				</g>
			</g>
			<g id="group311-292" transform="translate(48.375,-20.2488)">
				<title>Sheet.311</title>
				<g id="group312-293">
					<title>Logo_Mark</title>
					<g id="shape313-294">
						<title>Sheet.313</title>
						<ellipse cx="10.125" cy="282.875" rx="10.125" ry="10.125" class="st29"/>
					</g>
					<g id="shape314-297" transform="translate(4.49441,-1.24677)">
						<title>Sheet.314</title>
						<path d="M5.67 275.06 L0 283.69 L3.22 285.79 L3.75 284.98 L5.43 293 L11.01 284.32 L7.88 282.27 L7.35 283.1
									 L5.67 275.06 ZM8.21 283.72 L9.59 284.64 L5.92 290.27 L4.23 282.24 L2.87 284.33 L1.52 283.45
									 L5.21 277.81 L6.88 285.77 L8.21 283.72 Z" class="st30"/>
					</g>
				</g>
			</g>
		</g>
		<g id="group369-299" transform="translate(222.251,-106.002)">
			<title>Sheet.369</title>
			<g id="group73-300" transform="translate(0.00120861,-0.00120861)">
				<title>Ring network.73</title>
				<g id="shape74-301">
					<title>Sheet.74</title>
					<path d="M28.7 266.35 L30.75 262.25" class="st34"/>
					<path d="M32.8 268.4 L30.75 262.25" class="st34"/>
					<path d="M57.15 187.54 L30.75 262.25" class="st34"/>
					<path d="M36.9 264.3 L30.75 262.25" class="st34"/>
					<path d="M32.8 260.2 L30.75 262.25" class="st34"/>
					<path d="M30.75 256.1 L30.75 262.25" class="st34"/>
					<path d="M24.6 252 L30.75 262.25" class="st34"/>
					<path d="M21 266 L30.75 262.25" class="st34"/>
					<path d="M23.98 269.02 L30.75 262.25" class="st34"/>
					<path d="M30.75 272.09 L30.75 262.25" class="st34"/>
					<path d="M28.7 260.2 L30.75 262.25" class="st34"/>
					<path d="M27 257 L30.75 262.25" class="st34"/>
					<path d="M37.51 255.49 L30.75 262.25" class="st34"/>
					<path d="M30.75 252.41 L30.75 262.25" class="st34"/>
					<path d="M23.98 255.49 L30.75 262.25" class="st34"/>
					<path d="M25.5 262.62 L30.75 262.25" class="st34"/>
					<path d="M23.98 269.02 L30.75 262.25" class="st34"/>
					<path d="M30.75 272.09 L30.75 262.25" class="st34"/>
					<path d="M53.74 335.98 L30.75 262.25" class="st34"/>
					<path d="M37.51 255.49 L30.75 262.25" class="st34"/>
					<path d="M30.75 252.41 L30.75 262.25" class="st34"/>
					<path d="M23.98 255.49 L30.75 262.25" class="st34"/>
					<path d="M20.91 262.25 L30.75 262.25" class="st34"/>
					<path d="M23.98 269.02 L30.75 262.25" class="st34"/>
					<path d="M30.75 272.09 L30.75 262.25" class="st34"/>
					<path d="M37.51 269.02 L30.75 262.25" class="st34"/>
					<path d="M40.59 262.25 L30.75 262.25" class="st34"/>
					<path d="M37.51 255.49 L30.75 262.25" class="st34"/>
					<path d="M30.75 252.41 L30.75 262.25" class="st34"/>
					<path d="M23.98 255.49 L30.75 262.25" class="st34"/>
					<path d="M20.91 262.25 L30.75 262.25" class="st34"/>
					<path d="M23.98 269.02 L30.75 262.25" class="st34"/>
					<path d="M30.75 272.09 L30.75 262.25" class="st34"/>
					<path d="M37.51 269.02 L30.75 262.25" class="st34"/>
					<path d="M40.59 262.25 L30.75 262.25" class="st34"/>
					<path d="M37.51 255.49 L30.75 262.25" class="st34"/>
					<path d="M30.75 252.41 L30.75 262.25" class="st34"/>
					<path d="M23.98 255.49 L30.75 262.25" class="st34"/>
					<path d="M20.91 262.25 L30.75 262.25" class="st34"/>
					<path d="M23.98 269.02 L30.75 262.25" class="st34"/>
					<path d="M30.75 272.09 L30.75 262.25" class="st34"/>
					<path d="M37.51 269.02 L30.75 262.25" class="st34"/>
					<path d="M40.59 262.25 L30.75 262.25" class="st34"/>
					<path d="M37.51 255.49 L30.75 262.25" class="st34"/>
					<path d="M30.75 252.41 L30.75 262.25" class="st34"/>
					<path d="M23.98 255.49 L30.75 262.25" class="st34"/>
					<path d="M20.91 262.25 L30.75 262.25" class="st34"/>
					<path d="M23.98 269.02 L30.75 262.25" class="st34"/>
					<path d="M30.75 272.09 L30.75 262.25" class="st34"/>
					<path d="M37.51 269.02 L30.75 262.25" class="st34"/>
					<path d="M40.59 262.25 L30.75 262.25" class="st34"/>
					<path d="M37.51 255.49 L30.75 262.25" class="st34"/>
					<path d="M30.75 252.41 L30.75 262.25" class="st34"/>
					<path d="M23.98 255.49 L30.75 262.25" class="st34"/>
					<path d="M20.91 262.25 L30.75 262.25" class="st34"/>
					<path d="M23.98 269.02 L30.75 262.25" class="st34"/>
					<path d="M30.75 272.09 L30.75 262.25" class="st34"/>
					<path d="M37.51 269.02 L30.75 262.25" class="st34"/>
					<path d="M40.59 262.25 L30.75 262.25" class="st34"/>
					<path d="M37.51 255.49 L30.75 262.25" class="st34"/>
					<path d="M30.75 252.41 L30.75 262.25" class="st34"/>
					<path d="M23.98 255.49 L30.75 262.25" class="st34"/>
				</g>
				<g id="shape75-365">
					<title>Sheet.75</title>
					<path d="M24.6 266 A3.6 3.6 -180 1 0 17.4 266 A3.6 3.6 -180 1 0 24.6 266 ZM28.2 252 A3.6 3.6 -180 1 0 21 252
								 A3.6 3.6 -180 1 0 28.2 252 ZM34.35 256.1 A3.6 3.6 -180 1 0 27.15 256.1 A3.6 3.6 -180 1 0 34.35 256.1
								 ZM36.4 260.2 A3.6 3.6 -180 1 0 29.2 260.2 A3.6 3.6 -180 1 0 36.4 260.2 ZM40.5 264.3 A3.6 3.6 -180
								 1 0 33.3 264.3 A3.6 3.6 -180 1 0 40.5 264.3 ZM60.75 187.54 A3.6 3.6 -180 1 0 53.55 187.54 A3.6 3.6
								 -180 1 0 60.75 187.54 ZM36.4 268.4 A3.6 3.6 -180 1 0 29.2 268.4 A3.6 3.6 -180 1 0 36.4 268.4 ZM32.3
								 266.35 A3.6 3.6 -180 1 0 25.1 266.35 A3.6 3.6 -180 1 0 32.3 266.35 ZM34.35 262.25 A3.6 3.6 -180
								 1 0 27.15 262.25 A3.6 3.6 -180 1 0 34.35 262.25 ZM27.58 269.02 A3.6 3.6 -180 1 0 20.38 269.02 A3.6
								 3.6 -180 1 0 27.58 269.02 ZM34.35 272.09 A3.6 3.6 -180 1 0 27.15 272.09 A3.6 3.6 -180 1 0 34.35
								 272.09 ZM32.3 260.2 A3.6 3.6 -180 1 0 25.1 260.2 A3.6 3.6 -180 1 0 32.3 260.2 ZM30.6 257 A3.6 3.6
								 -180 1 0 23.4 257 A3.6 3.6 -180 1 0 30.6 257 ZM41.11 255.49 A3.6 3.6 -180 1 0 33.91 255.49 A3.6
								 3.6 -180 1 0 41.11 255.49 ZM34.35 252.41 A3.6 3.6 -180 1 0 27.15 252.41 A3.6 3.6 -180 1 0 34.35
								 252.41 ZM27.58 255.49 A3.6 3.6 -180 1 0 20.38 255.49 A3.6 3.6 -180 1 0 27.58 255.49 ZM29.1 262.62
								 A3.6 3.6 -180 1 0 21.9 262.62 A3.6 3.6 -180 1 0 29.1 262.62 ZM27.58 269.02 A3.6 3.6 -180 1 0 20.38
								 269.02 A3.6 3.6 -180 1 0 27.58 269.02 ZM34.35 272.09 A3.6 3.6 -180 1 0 27.15 272.09 A3.6 3.6 -180
								 1 0 34.35 272.09 ZM57.34 335.98 A3.6 3.6 -180 1 0 50.14 335.98 A3.6 3.6 -180 1 0 57.34 335.98 ZM34.35
								 262.25 A3.6 3.6 -180 1 0 27.15 262.25 A3.6 3.6 -180 1 0 34.35 262.25 ZM41.11 255.49 A3.6 3.6 -180
								 1 0 33.91 255.49 A3.6 3.6 -180 1 0 41.11 255.49 ZM34.35 252.41 A3.6 3.6 -180 1 0 27.15 252.41 A3.6
								 3.6 -180 1 0 34.35 252.41 ZM27.58 255.49 A3.6 3.6 -180 1 0 20.38 255.49 A3.6 3.6 -180 1 0 27.58
								 255.49 ZM24.51 262.25 A3.6 3.6 -180 1 0 17.31 262.25 A3.6 3.6 -180 1 0 24.51 262.25 ZM27.58 269.02
								 A3.6 3.6 -180 1 0 20.38 269.02 A3.6 3.6 -180 1 0 27.58 269.02 ZM34.35 272.09 A3.6 3.6 -180 1 0 27.15
								 272.09 A3.6 3.6 -180 1 0 34.35 272.09 ZM41.11 269.02 A3.6 3.6 -180 1 0 33.91 269.02 A3.6 3.6 -180
								 1 0 41.11 269.02 ZM44.19 262.25 A3.6 3.6 -180 1 0 36.99 262.25 A3.6 3.6 -180 1 0 44.19 262.25 ZM41.11
								 255.49 A3.6 3.6 -180 1 0 33.91 255.49 A3.6 3.6 -180 1 0 41.11 255.49 ZM34.35 252.41 A3.6 3.6 -180
								 1 0 27.15 252.41 A3.6 3.6 -180 1 0 34.35 252.41 ZM27.58 255.49 A3.6 3.6 -180 1 0 20.38 255.49 A3.6
								 3.6 -180 1 0 27.58 255.49 ZM24.51 262.25 A3.6 3.6 -180 1 0 17.31 262.25 A3.6 3.6 -180 1 0 24.51
								 262.25 ZM27.58 269.02 A3.6 3.6 -180 1 0 20.38 269.02 A3.6 3.6 -180 1 0 27.58 269.02 ZM34.35 272.09
								 A3.6 3.6 -180 1 0 27.15 272.09 A3.6 3.6 -180 1 0 34.35 272.09 ZM41.11 269.02 A3.6 3.6 -180 1 0 33.91
								 269.02 A3.6 3.6 -180 1 0 41.11 269.02 ZM44.19 262.25 A3.6 3.6 -180 1 0 36.99 262.25 A3.6 3.6 -180
								 1 0 44.19 262.25 ZM41.11 255.49 A3.6 3.6 -180 1 0 33.91 255.49 A3.6 3.6 -180 1 0 41.11 255.49 ZM34.35
								 252.41 A3.6 3.6 -180 1 0 27.15 252.41 A3.6 3.6 -180 1 0 34.35 252.41 ZM27.58 255.49 A3.6 3.6 -180
								 1 0 20.38 255.49 A3.6 3.6 -180 1 0 27.58 255.49 ZM24.51 262.25 A3.6 3.6 -180 1 0 17.31 262.25 A3.6
								 3.6 -180 1 0 24.51 262.25 ZM27.58 269.02 A3.6 3.6 -180 1 0 20.38 269.02 A3.6 3.6 -180 1 0 27.58
								 269.02 ZM34.35 272.09 A3.6 3.6 -180 1 0 27.15 272.09 A3.6 3.6 -180 1 0 34.35 272.09 ZM41.11 269.02
								 A3.6 3.6 -180 1 0 33.91 269.02 A3.6 3.6 -180 1 0 41.11 269.02 ZM44.19 262.25 A3.6 3.6 -180 1 0 36.99
								 262.25 A3.6 3.6 -180 1 0 44.19 262.25 ZM41.11 255.49 A3.6 3.6 -180 1 0 33.91 255.49 A3.6 3.6 -180
								 1 0 41.11 255.49 ZM34.35 252.41 A3.6 3.6 -180 1 0 27.15 252.41 A3.6 3.6 -180 1 0 34.35 252.41 ZM27.58
								 255.49 A3.6 3.6 -180 1 0 20.38 255.49 A3.6 3.6 -180 1 0 27.58 255.49 ZM24.51 262.25 A3.6 3.6 -180
								 1 0 17.31 262.25 A3.6 3.6 -180 1 0 24.51 262.25 ZM27.58 269.02 A3.6 3.6 -180 1 0 20.38 269.02 A3.6
								 3.6 -180 1 0 27.58 269.02 ZM34.35 272.09 A3.6 3.6 -180 1 0 27.15 272.09 A3.6 3.6 -180 1 0 34.35
								 272.09 ZM41.11 269.02 A3.6 3.6 -180 1 0 33.91 269.02 A3.6 3.6 -180 1 0 41.11 269.02 ZM44.19 262.25
								 A3.6 3.6 -180 1 0 36.99 262.25 A3.6 3.6 -180 1 0 44.19 262.25 ZM41.11 255.49 A3.6 3.6 -180 1 0 33.91
								 255.49 A3.6 3.6 -180 1 0 41.11 255.49 ZM34.35 252.41 A3.6 3.6 -180 1 0 27.15 252.41 A3.6 3.6 -180
								 1 0 34.35 252.41 ZM27.58 255.49 A3.6 3.6 -180 1 0 20.38 255.49 A3.6 3.6 -180 1 0 27.58 255.49 ZM24.51
								 262.25 A3.6 3.6 -180 1 0 17.31 262.25 A3.6 3.6 -180 1 0 24.51 262.25 ZM27.58 269.02 A3.6 3.6 -180
								 1 0 20.38 269.02 A3.6 3.6 -180 1 0 27.58 269.02 ZM34.35 272.09 A3.6 3.6 -180 1 0 27.15 272.09 A3.6
								 3.6 -180 1 0 34.35 272.09 ZM41.11 269.02 A3.6 3.6 -180 1 0 33.91 269.02 A3.6 3.6 -180 1 0 41.11
								 269.02 ZM44.19 262.25 A3.6 3.6 -180 1 0 36.99 262.25 A3.6 3.6 -180 1 0 44.19 262.25 ZM41.11 255.49
								 A3.6 3.6 -180 1 0 33.91 255.49 A3.6 3.6 -180 1 0 41.11 255.49 ZM34.35 252.41 A3.6 3.6 -180 1 0 27.15
								 252.41 A3.6 3.6 -180 1 0 34.35 252.41 ZM27.58 255.49 A3.6 3.6 -180 1 0 20.38 255.49 A3.6 3.6 -180
								 1 0 27.58 255.49 Z" class="st35"/>
				</g>
				<g id="shape76-367">
					<title>Sheet.76</title>
					<ellipse cx="30.75" cy="262.25" rx="15.375" ry="15.375" class="st36"/>
				</g>
				<g id="shape77-369" transform="translate(21.1406,-21.1406)">
					<title>Sheet.77</title>
					<ellipse cx="9.60937" cy="283.391" rx="9.60937" ry="9.60937" class="st35"/>
				</g>
			</g>
			<g id="shape220-371" transform="translate(42.655,-24.1851)">
				<title>Sheet.220</title>
				<desc>ziti-fabric-router-br</desc>
				<rect x="0" y="280.625" width="113.344" height="12.375" class="st37"/>
				<text x="4" y="290.41" class="st27">ziti-fabric-router-br</text>			</g>
			<g id="group335-374" transform="translate(20.9988,-20.2476)">
				<title>Sheet.335</title>
				<g id="group336-375">
					<title>Logo_Mark</title>
					<g id="shape337-376">
						<title>Sheet.337</title>
						<ellipse cx="10.125" cy="282.875" rx="10.125" ry="10.125" class="st29"/>
					</g>
					<g id="shape338-379" transform="translate(4.49441,-1.24677)">
						<title>Sheet.338</title>
						<path d="M5.67 275.06 L0 283.69 L3.22 285.79 L3.75 284.98 L5.43 293 L11.01 284.32 L7.88 282.27 L7.35 283.1
									 L5.67 275.06 ZM8.21 283.72 L9.59 284.64 L5.92 290.27 L4.23 282.24 L2.87 284.33 L1.52 283.45
									 L5.21 277.81 L6.88 285.77 L8.21 283.72 Z" class="st30"/>
					</g>
				</g>
			</g>
		</g>
		<g id="group299-381" transform="translate(268.059,-197.934)">
			<title>Sheet.299</title>
			<g id="group300-382">
				<title>Logo_Mark</title>
				<g id="shape301-383">
					<title>Sheet.301</title>
					<ellipse cx="10.125" cy="282.875" rx="10.125" ry="10.125" class="st29"/>
				</g>
				<g id="shape302-386" transform="translate(4.49441,-1.24677)">
					<title>Sheet.302</title>
					<path d="M5.67 275.06 L0 283.69 L3.22 285.79 L3.75 284.98 L5.43 293 L11.01 284.32 L7.88 282.27 L7.35 283.1 L5.67
								 275.06 ZM8.21 283.72 L9.59 284.64 L5.92 290.27 L4.23 282.24 L2.87 284.33 L1.52 283.45 L5.21 277.81
								 L6.88 285.77 L8.21 283.72 Z" class="st30"/>
				</g>
			</g>
		</g>
		<g id="group303-388" transform="translate(264.625,-54.546)">
			<title>Sheet.303</title>
			<g id="group304-389">
				<title>Logo_Mark</title>
				<g id="shape305-390">
					<title>Sheet.305</title>
					<ellipse cx="10.125" cy="282.875" rx="10.125" ry="10.125" class="st29"/>
				</g>
				<g id="shape306-393" transform="translate(4.49441,-1.24677)">
					<title>Sheet.306</title>
					<path d="M5.67 275.06 L0 283.69 L3.22 285.79 L3.75 284.98 L5.43 293 L11.01 284.32 L7.88 282.27 L7.35 283.1 L5.67
								 275.06 ZM8.21 283.72 L9.59 284.64 L5.92 290.27 L4.23 282.24 L2.87 284.33 L1.52 283.45 L5.21 277.81
								 L6.88 285.77 L8.21 283.72 Z" class="st30"/>
				</g>
			</g>
		</g>
	</g>
</svg>
