<?xml version="1.0" encoding="UTF-8" standalone="no"?>
<!DOCTYPE svg PUBLIC "-//W3C//DTD SVG 1.1//EN" "http://www.w3.org/Graphics/SVG/1.1/DTD/svg11.dtd">
<!-- Generated by Microsoft Visio, SVG Export dark-step1.svg appetizer-step1-dark -->
<svg xmlns="http://www.w3.org/2000/svg" xmlns:xlink="http://www.w3.org/1999/xlink" xmlns:ev="http://www.w3.org/2001/xml-events"
		width="19.4498in" height="6.13194in" viewBox="0 0 1400.39 441.5" xml:space="preserve" color-interpolation-filters="sRGB"
		class="st45">
	<style type="text/css">
	<![CDATA[
		.st1 {fill:#33445b;stroke:#595959;stroke-linecap:round;stroke-linejoin:round;stroke-width:0.5}
		.st2 {visibility:visible}
		.st3 {fill:#000000;fill-opacity:0.4;filter:url(#filter_5.3333334922791);stroke:#000000;stroke-linecap:round;stroke-linejoin:round;stroke-opacity:0.4}
		.st4 {fill:#5f6d8b;stroke:#262626;stroke-linecap:round;stroke-linejoin:round;stroke-width:1.75}
		.st5 {fill:url(#grad0-11);stroke:#33445b;stroke-linecap:round;stroke-linejoin:round;stroke-width:1.75}
		.st6 {fill:#d8d8d8;font-family:Open Sans;font-size:3em;font-weight:bold}
		.st7 {fill:#9a6132;stroke:#513100;stroke-linecap:round;stroke-linejoin:round;stroke-width:2}
		.st8 {fill:#ffc000;stroke:none;stroke-linecap:butt;stroke-width:2.01316}
		.st9 {fill:#ff9900;stroke:none;stroke-linecap:butt;stroke-width:2.01316}
		.st10 {fill:#527398;stroke:#1c3453;stroke-dasharray:6,6;stroke-linecap:round;stroke-linejoin:round;stroke-width:2}
		.st11 {fill:#d8d8d8;font-family:Russo One;font-size:3em}
		.st12 {stroke:#33445b;stroke-linecap:round;stroke-linejoin:round;stroke-width:12}
		.st13 {fill:#f2f2f2;stroke:#33445b;stroke-linecap:round;stroke-linejoin:round;stroke-width:3}
		.st14 {fill:url(#grad0-46);stroke:none;stroke-linecap:butt;stroke-width:2.04}
		.st15 {fill:#ffffff;marker-end:url(#mrkr42-65);stroke:#33445b;stroke-linecap:round;stroke-linejoin:round;stroke-width:5}
		.st16 {fill:#33445b;fill-opacity:1;stroke:#33445b;stroke-opacity:1;stroke-width:0.66489361702128}
		.st17 {fill:#000000;fill-opacity:0.18;stroke:#332741;stroke-linecap:round;stroke-linejoin:round;stroke-opacity:0.92;stroke-width:3.25}
		.st18 {fill:none;stroke:none;stroke-linecap:round;stroke-linejoin:round;stroke-width:0.5}
		.st19 {fill:#d8d8d8;font-family:Russo One;font-size:1.99999em}
		.st20 {fill:#374962;stroke:#343047;stroke-linecap:round;stroke-linejoin:round;stroke-width:2}
		.st21 {fill:#273547;font-family:Russo One;font-size:3em}
		.st22 {fill:#374962;stroke:#273547;stroke-linecap:butt;stroke-width:1.50369}
		.st23 {fill:#374962;stroke:#273547;stroke-linecap:butt;stroke-width:3.38029}
		.st24 {fill:#834150;stroke:#f2f2f2;stroke-dasharray:6.75,6.75;stroke-linecap:round;stroke-linejoin:round;stroke-width:2.25}
		.st25 {fill:#0273fb;stroke:none;stroke-linecap:butt;stroke-width:1.50369}
		.st26 {fill:none;stroke:#158aff;stroke-linecap:butt;stroke-width:3.38029}
		.st27 {fill:#6140b5;fill-opacity:0.98;stroke:none;stroke-linecap:butt;stroke-width:1.50369}
		.st28 {fill:none;stroke:#664dc4;stroke-linecap:butt;stroke-opacity:0.98;stroke-width:3.38029}
		.st29 {fill:#ff0d49;fill-opacity:0.98;stroke:none;stroke-linecap:butt;stroke-width:1.50369}
		.st30 {fill:none;stroke:#fc2d81;stroke-linecap:butt;stroke-opacity:0.98;stroke-width:3.38029}
		.st31 {fill:#ffffff;stroke:none;stroke-linecap:butt;stroke-width:1.50369}
		.st32 {fill:#ffffff;marker-end:url(#mrkr42-195);stroke:#fc0147;stroke-linecap:round;stroke-linejoin:round;stroke-width:5}
		.st33 {fill:#fc0147;fill-opacity:1;stroke:#fc0147;stroke-opacity:1;stroke-width:0.66489361702128}
		.st34 {fill:#33445b;stroke:#1c2531;stroke-linecap:round;stroke-linejoin:round;stroke-width:1.75}
		.st35 {fill:#5f6d8b;fill-opacity:0.86;stroke:none;stroke-linecap:round;stroke-linejoin:round;stroke-width:1.75}
		.st36 {marker-start:url(#mrkr5-210);stroke:#bfbfbf;stroke-linecap:round;stroke-linejoin:round;stroke-width:8.5}
		.st37 {fill:#bfbfbf;fill-opacity:1;stroke:#bfbfbf;stroke-opacity:1;stroke-width:0.48571428571429}
		.st38 {fill:url(#grad0-221);stroke:none;stroke-linecap:butt;stroke-width:2.04}
		.st39 {fill:url(#grad0-233);stroke:none;stroke-linecap:butt;stroke-width:2.04}
		.st40 {fill:url(#grad0-237);stroke:none;stroke-linecap:butt;stroke-width:2.04}
		.st41 {fill:url(#grad0-241);stroke:none;stroke-linecap:butt;stroke-width:2.04}
		.st42 {fill:url(#grad0-245);stroke:none;stroke-linecap:butt;stroke-width:2.04}
		.st43 {fill:#ffffff;stroke:#33445b;stroke-linecap:round;stroke-linejoin:round;stroke-width:1}
		.st44 {fill:#33445b;font-family:Open Sans;font-size:1.5em;font-weight:bold}
		.st45 {fill:none;fill-rule:evenodd;font-size:12px;overflow:visible;stroke-linecap:square;stroke-miterlimit:3}
	]]>
	</style>

	<defs id="Patterns_And_Gradients">
		<linearGradient id="grad0-11" x1="0" y1="0" x2="1" y2="0" gradientTransform="rotate(240 0.5 0.5)">
			<stop offset="0" stop-color="#fc0147" stop-opacity="0.15"/>
			<stop offset="1" stop-color="#0068f9" stop-opacity="0.15"/>
		</linearGradient>
		<linearGradient id="grad0-46" x1="0" y1="0" x2="1" y2="0" gradientTransform="rotate(50 0.5 0.5)">
			<stop offset="0.34" stop-color="#0068f9" stop-opacity="1"/>
			<stop offset="0.86" stop-color="#fc0147" stop-opacity="1"/>
		</linearGradient>
		<linearGradient id="grad0-221" x1="0" y1="0" x2="1" y2="0" gradientTransform="rotate(50 0.5 0.5)">
			<stop offset="0.23" stop-color="#fc0147" stop-opacity="1"/>
			<stop offset="0.86" stop-color="#0068f9" stop-opacity="1"/>
		</linearGradient>
		<linearGradient id="grad0-233" x1="0" y1="0" x2="1" y2="0" gradientTransform="rotate(-118.14215319877 0.5 0.5)">
			<stop offset="0.005" stop-color="#fc0147" stop-opacity="1"/>
			<stop offset="0.04" stop-color="#f4044d" stop-opacity="1"/>
			<stop offset="0.9" stop-color="#0068f9" stop-opacity="1"/>
		</linearGradient>
		<linearGradient id="grad0-237" x1="0" y1="0" x2="1" y2="0" gradientTransform="rotate(-135 0.5 0.5)">
			<stop offset="0.005" stop-color="#fc0147" stop-opacity="1"/>
			<stop offset="0.04" stop-color="#f4044d" stop-opacity="1"/>
			<stop offset="0.9" stop-color="#0068f9" stop-opacity="1"/>
		</linearGradient>
		<linearGradient id="grad0-241" x1="0" y1="0" x2="1" y2="0" gradientTransform="rotate(-112.38354531203 0.5 0.5)">
			<stop offset="0.005" stop-color="#fc0147" stop-opacity="1"/>
			<stop offset="0.04" stop-color="#f4044d" stop-opacity="1"/>
			<stop offset="0.9" stop-color="#0068f9" stop-opacity="1"/>
		</linearGradient>
		<linearGradient id="grad0-245" x1="0" y1="0" x2="1" y2="0" gradientTransform="rotate(-112.40744476367 0.5 0.5)">
			<stop offset="0.005" stop-color="#fc0147" stop-opacity="1"/>
			<stop offset="0.04" stop-color="#f4044d" stop-opacity="1"/>
			<stop offset="0.9" stop-color="#0068f9" stop-opacity="1"/>
		</linearGradient>
	</defs>
	<defs id="Markers">
		<g id="lend42">
			<path
					d="M 0 0.75 C -0.414214 0.75 -0.75 0.414214 -0.75 0 -0.75 -0.414214 -0.414214 -0.75 0 -0.75 0.414214 -0.75 0.75 -0.414214 0.75 0 0.75 0.414214 0.414214 0.75 0 0.75 Z "
					style="stroke:none"/>
		</g>
		<marker id="mrkr42-65" class="st16" refX="-1.128" orient="auto" markerUnits="strokeWidth" overflow="visible">
			<use xlink:href="#lend42" transform="scale(-1.504,-1.504) "/>
		</marker>
		<marker id="mrkr42-195" class="st33" refX="-1.128" orient="auto" markerUnits="strokeWidth" overflow="visible">
			<use xlink:href="#lend42" transform="scale(-1.504,-1.504) "/>
		</marker>
		<g id="lend5">
			<path d="M 2 1 L 0 0 L 1.98117 -0.993387 C 1.67173 -0.364515 1.67301 0.372641 1.98465 1.00043 " style="stroke:none"/>
		</g>
		<marker id="mrkr5-210" class="st37" refX="3.5605882352941" orient="auto" markerUnits="strokeWidth" overflow="visible">
			<use xlink:href="#lend5" transform="scale(2.0588235294118) "/>
		</marker>
	</defs>
	<defs id="Filters">
		<filter id="filter_5.3333334922791">
			<feGaussianBlur stdDeviation="5.3333334922791"/>
		</filter>
	</defs>
	<g>
		<title>appetizer-step1-dark</title>
		<g id="shape2873-1" transform="translate(0.25,-0.25)">
			<title>Rounded Rectangle.245</title>
			<path d="M0 441.5 L1399.89 441.5 L1399.89 0.5 L0 0.5 L0 441.5 Z" class="st1"/>
		</g>
		<g id="shape2874-3" transform="translate(265.136,-62.1273)">
			<title>Sheet.2874</title>
			<g id="shadow2874-4" transform="matrix(1.06,0,0,1.06,-22.2892,-15.7632)" class="st2">
				<path d="M217.83 192.26 C209.52 189.92 200.75 188.51 191.53 188.51 C141.18 188.51 99.59 227.2 91.94 277.84 L91.94
							 277.84 L75.53 277.84 L75.53 277.84 C33.95 277.84 0 313.25 0 356.86 L0 356.86 L0 362.49 L0 362.49 C-0
							 406.1 33.95 441.5 75.53 441.5 L75.53 441.5 L667.44 441.5 L667.44 441.5 C709.03 441.5 742.97 406.1 742.97
							 362.49 L742.97 362.49 L742.97 356.86 L742.97 356.86 C742.97 313.25 709.03 277.84 667.44 277.84 L667.44
							 277.84 L664.52 277.84 L664.52 277.84 C651.48 230.95 610.34 196.48 561.33 196.48 C539.98 196.48 520.19
							 203.28 503.56 214.54 C492.54 140.68 431.85 83.94 358.34 83.94 C292.24 83.94 236.49 129.43 217.83 192.26
							 Z" class="st3"/>
			</g>
			<path d="M217.83 192.26 C209.52 189.92 200.75 188.51 191.53 188.51 C141.18 188.51 99.59 227.2 91.94 277.84 L91.94 277.84
						 L75.53 277.84 L75.53 277.84 C33.95 277.84 0 313.25 0 356.86 L0 356.86 L0 362.49 L0 362.49 C-0 406.1 33.95
						 441.5 75.53 441.5 L75.53 441.5 L667.44 441.5 L667.44 441.5 C709.03 441.5 742.97 406.1 742.97 362.49 L742.97
						 362.49 L742.97 356.86 L742.97 356.86 C742.97 313.25 709.03 277.84 667.44 277.84 L667.44 277.84 L664.52 277.84
						 L664.52 277.84 C651.48 230.95 610.34 196.48 561.33 196.48 C539.98 196.48 520.19 203.28 503.56 214.54 C492.54
						 140.68 431.85 83.94 358.34 83.94 C292.24 83.94 236.49 129.43 217.83 192.26 Z" class="st4"/>
		</g>
		<g id="shape3206-8" transform="translate(335.452,-84.2599)">
			<title>Sheet.3206</title>
			<desc>OpenZiti Overlay</desc>
			<path d="M174.89 241.4 C168.21 239.52 161.17 238.39 153.77 238.39 C113.34 238.39 79.95 269.45 73.82 310.11 L73.82 310.11
						 L60.64 310.11 L60.64 310.11 C27.25 310.11 0 338.53 0 373.55 L0 373.55 L0 378.06 L0 378.06 C-0 413.08 27.25
						 441.5 60.64 441.5 L60.64 441.5 L535.85 441.5 L535.85 441.5 C569.23 441.5 596.49 413.08 596.49 378.06 L596.49
						 378.06 L596.49 373.55 L596.49 373.55 C596.49 338.53 569.23 310.11 535.85 310.11 L535.85 310.11 L533.5 310.11
						 L533.5 310.11 C523.03 272.46 490 244.79 450.66 244.79 C433.51 244.79 417.63 250.25 404.28 259.29 C395.43
						 199.99 346.7 154.44 287.69 154.44 C234.62 154.44 189.86 190.96 174.89 241.4 Z" class="st5"/>
			<text x="134.85" y="426.7" class="st6">OpenZiti Overlay</text>		</g>
		<g id="shape3109-13" transform="translate(986.136,-12.7598)">
			<title>Rounded Rectangle.3109</title>
			<path d="M10.58 441.5 L391.36 441.5 A10.5772 10.5772 -180 0 0 401.94 430.92 L401.94 50.34 A10.5772 10.5772 -180 0 0 391.36
						 39.76 L10.58 39.76 A10.5772 10.5772 -180 0 0 0 50.34 L0 430.92 A10.5772 10.5772 -180 0 0 10.58 441.5 Z"
					class="st7"/>
		</g>
		<g id="group3111-15" transform="translate(995.386,-18.5035)">
			<title>Sheet.3111</title>
			<g id="shape3112-16" transform="translate(3.35751,-20.2869)">
				<title>Sheet.3112</title>
				<path d="M17.09 434.71 C17.09 435.59 17.19 436.3 17.36 436.82 C17.54 437.34 17.78 437.91 18.11 438.52 C18.23 438.71
							 18.28 438.9 18.28 439.06 C18.28 439.3 18.14 439.54 17.83 439.77 L16.34 440.77 C16.13 440.91 15.91 440.98
							 15.72 440.98 C15.49 440.98 15.25 440.86 15.01 440.65 C14.68 440.29 14.4 439.92 14.16 439.54 C13.93 439.14
							 13.69 438.69 13.43 438.14 C11.59 440.32 9.27 441.41 6.48 441.41 C4.49 441.41 2.91 440.84 1.75 439.7
							 C0.59 438.57 0 437.05 0 435.16 C0 433.15 0.71 431.52 2.15 430.29 C3.59 429.06 5.51 428.45 7.94 428.45
							 C8.75 428.45 9.58 428.52 10.45 428.64 C11.33 428.76 12.22 428.94 13.17 429.16 L13.17 427.43 C13.17 425.63
							 12.79 424.38 12.06 423.65 C11.3 422.92 10.03 422.56 8.2 422.56 C7.38 422.56 6.53 422.66 5.65 422.87
							 C4.78 423.08 3.92 423.34 3.1 423.67 C2.72 423.84 2.44 423.93 2.27 423.98 C2.1 424.03 1.99 424.05 1.89
							 424.05 C1.56 424.05 1.4 423.81 1.4 423.32 L1.4 422.16 C1.4 421.78 1.44 421.5 1.56 421.33 C1.68 421.17
							 1.89 421 2.22 420.83 C3.05 420.41 4.04 420.05 5.2 419.77 C6.36 419.46 7.59 419.32 8.89 419.32 C11.7
							 419.32 13.76 419.96 15.09 421.24 C16.39 422.51 17.05 424.45 17.05 427.05 L17.05 434.71 L17.09 434.71
							 ZM7.5 438.31 C8.28 438.31 9.08 438.17 9.93 437.88 C10.78 437.6 11.54 437.08 12.18 436.37 C12.56 435.92
							 12.84 435.42 12.98 434.86 C13.12 434.29 13.22 433.6 13.22 432.8 L13.22 431.81 C12.53 431.64 11.8 431.5
							 11.04 431.4 C10.29 431.31 9.55 431.26 8.82 431.26 C7.24 431.26 6.08 431.57 5.3 432.21 C4.52 432.85 4.14
							 433.74 4.14 434.93 C4.14 436.04 4.42 436.87 5.01 437.43 C5.58 438.02 6.41 438.31 7.5 438.31 ZM26.48
							 440.86 C26.06 440.86 25.77 440.79 25.58 440.63 C25.39 440.48 25.23 440.15 25.09 439.7 L19.53 421.43
							 C19.39 420.95 19.32 420.65 19.32 420.48 C19.32 420.1 19.51 419.89 19.88 419.89 L22.2 419.89 C22.65 419.89
							 22.96 419.96 23.12 420.13 C23.31 420.27 23.46 420.6 23.6 421.05 L27.57 436.7 L31.26 421.05 C31.38 420.57
							 31.52 420.27 31.71 420.13 C31.9 419.98 32.23 419.89 32.65 419.89 L34.54 419.89 C34.99 419.89 35.3 419.96
							 35.49 420.13 C35.68 420.27 35.84 420.6 35.94 421.05 L39.68 436.89 L43.77 421.05 C43.91 420.57 44.07
							 420.27 44.24 420.13 C44.43 419.98 44.74 419.89 45.16 419.89 L47.36 419.89 C47.74 419.89 47.95 420.08
							 47.95 420.48 C47.95 420.6 47.93 420.72 47.9 420.86 C47.88 421 47.83 421.19 47.74 421.45 L42.04 439.73
							 C41.9 440.2 41.73 440.51 41.54 440.65 C41.35 440.79 41.05 440.89 40.64 440.89 L38.61 440.89 C38.16 440.89
							 37.85 440.81 37.67 440.65 C37.48 440.48 37.31 440.18 37.22 439.7 L33.55 424.45 L29.91 439.68 C29.79
							 440.15 29.65 440.46 29.46 440.63 C29.27 440.79 28.94 440.86 28.52 440.86 L26.48 440.86 ZM56.86 441.5
							 C55.64 441.5 54.41 441.36 53.22 441.07 C52.04 440.79 51.12 440.48 50.5 440.13 C50.13 439.92 49.87 439.68
							 49.77 439.47 C49.68 439.25 49.63 439.02 49.63 438.8 L49.63 437.6 C49.63 437.1 49.82 436.87 50.17 436.87
							 C50.32 436.87 50.46 436.89 50.6 436.94 C50.74 436.98 50.95 437.08 51.19 437.17 C51.99 437.53 52.87 437.81
							 53.79 438 C54.74 438.19 55.66 438.28 56.6 438.28 C58.09 438.28 59.25 438.02 60.06 437.5 C60.86 436.98
							 61.29 436.23 61.29 435.26 C61.29 434.6 61.07 434.05 60.65 433.6 C60.22 433.15 59.42 432.75 58.26 432.37
							 L54.83 431.31 C53.11 430.77 51.83 429.96 51.05 428.9 C50.27 427.86 49.87 426.7 49.87 425.47 C49.87 424.48
							 50.08 423.6 50.5 422.84 C50.93 422.09 51.5 421.43 52.21 420.91 C52.92 420.36 53.72 419.96 54.67 419.68
							 C55.61 419.39 56.6 419.27 57.65 419.27 C58.17 419.27 58.71 419.3 59.23 419.37 C59.77 419.44 60.27 419.53
							 60.77 419.63 C61.24 419.75 61.69 419.87 62.11 420.01 C62.54 420.15 62.87 420.29 63.11 420.43 C63.44
							 420.62 63.67 420.81 63.82 421.02 C63.96 421.21 64.03 421.47 64.03 421.8 L64.03 422.92 C64.03 423.41
							 63.84 423.67 63.49 423.67 C63.3 423.67 62.99 423.58 62.59 423.39 C61.24 422.77 59.73 422.47 58.05 422.47
							 C56.7 422.47 55.64 422.68 54.9 423.13 C54.17 423.58 53.79 424.26 53.79 425.23 C53.79 425.89 54.03 426.46
							 54.5 426.91 C54.97 427.36 55.85 427.81 57.1 428.21 L60.46 429.28 C62.16 429.82 63.39 430.58 64.12 431.55
							 C64.86 432.52 65.21 433.63 65.21 434.86 C65.21 435.87 65 436.79 64.6 437.6 C64.17 438.4 63.6 439.11
							 62.87 439.68 C62.14 440.27 61.26 440.7 60.25 441 C59.18 441.33 58.07 441.5 56.86 441.5 Z" class="st8"/>
			</g>
			<g id="group3113-18">
				<title>Sheet.3113</title>
				<g id="shape3114-19">
					<title>Sheet.3114</title>
					<path d="M64.69 432.7 C56.91 438.45 45.61 441.5 35.89 441.5 C22.27 441.5 10 436.46 0.73 428.09 C0 427.43 0.66
								 426.53 1.54 427.05 C11.56 432.87 23.93 436.39 36.72 436.39 C45.35 436.39 54.83 434.6 63.56 430.91
								 C64.86 430.32 65.97 431.76 64.69 432.7 Z" class="st9"/>
				</g>
				<g id="shape3115-21" transform="translate(57.9525,-2.62453)">
					<title>Sheet.3115</title>
					<path d="M9.98 431.64 C8.98 430.36 3.4 431.03 0.87 431.33 C0.12 431.43 0 430.77 0.69 430.27 C5.13 427.15 12.44
								 428.05 13.29 429.09 C14.14 430.15 13.05 437.46 8.89 440.96 C8.25 441.5 7.64 441.22 7.92 440.51 C8.87
								 438.17 10.97 432.89 9.98 431.64 Z" class="st9"/>
				</g>
			</g>
		</g>
		<g id="shape3108-23" transform="translate(1004.14,-72.0049)">
			<title>Rounded Rectangle.3108</title>
			<desc>Fargate Container</desc>
			<path d="M7.49 441.5 L358.45 441.5 A7.49405 7.49405 -180 0 0 365.94 434.01 L365.94 124.5 A7.49405 7.49405 -180 0 0 358.45
						 117 L7.49 117 A7.49405 7.49405 -180 0 0 -0 124.5 L0 434.01 A7.49405 7.49405 -180 0 0 7.49 441.5 Z"
					class="st10"/>
			<text x="18.09" y="153.41" class="st11">Fargate Container</text>		</g>
		<g id="shape3286-26" transform="translate(752.101,-165.822)">
			<title>Dynamic connector.3286</title>
			<path d="M0 432.5 L-253.41 432.5" class="st12"/>
		</g>
		<g id="shape3292-29" transform="translate(568.864,-238.571)">
			<title>Dynamic connector.3292</title>
			<path d="M0 441.5 L-80.15 467.75" class="st12"/>
		</g>
		<g id="shape3295-32" transform="translate(763.746,-212.812)">
			<title>Dynamic connector.3295</title>
			<path d="M0 441.5 L-83.2 415.1" class="st12"/>
		</g>
		<g id="group3300-35" transform="translate(752.101,-132.072)">
			<title>Sheet.3300</title>
			<g id="group3261-36" transform="translate(9,0)">
				<title>Sheet.3261</title>
				<g id="shape3262-37">
					<title>Sheet.3262</title>
					<ellipse cx="48.0938" cy="393.406" rx="48.0937" ry="48.0937" class="st13"/>
				</g>
				<g id="group3263-39" transform="translate(12.0937,-12.9375)">
					<title>Router Colored</title>
					<g id="group3264-40" transform="translate(38.5398,-28.4211)">
						<title>Sheet.3264</title>
						<g id="shape3265-41">
							<title>Sheet.3265</title>
						</g>
					</g>
					<g id="group3266-42">
						<title>Sheet.3266</title>
						<g id="shape3267-43" transform="translate(26.4054,-24.3494)">
							<title>Sheet.3267</title>
							<path d="M20.64 432.39 C21.12 430.94 21.12 429.53 21.12 427.11 L21.12 424.25 C21.12 421.83 21.12 420.42
										 19.67 418.96 C18.22 418 16.81 417.51 14.39 417.51 L0 417.51 L0 441.5 L6.73 441.5 L6.73 434.28
										 L11.53 434.28 L15.36 441.5 L21.61 441.5 L17.29 434.28 C18.71 433.8 19.67 433.8 20.64 432.39
										 ZM15.36 426.14 C15.36 427.59 14.88 429 13.42 429 L6.69 429 L6.69 421.79 L12.94 421.79 C14.39
										 421.79 15.36 422.75 15.36 424.21 L15.36 426.14 Z" class="st14"/>
						</g>
						<g id="shape3268-47" transform="translate(11.2072,-11.0862)">
							<title>Sheet.3268</title>
							<path d="M49.59 416.71 C49.59 403.04 38.46 391.91 24.79 391.91 C11.13 391.91 0 403.04 0 416.71 C0 430.37
										 11.13 441.5 24.79 441.5 C38.46 441.5 49.59 430.37 49.59 416.71 ZM24.79 437.99 C13.06 437.99
										 3.51 428.44 3.51 416.71 C3.51 404.98 13.06 395.42 24.79 395.42 C36.52 395.42 46.08 404.98
										 46.08 416.71 C46.08 428.44 36.52 437.99 24.79 437.99 Z" class="st14"/>
						</g>
						<g id="shape3269-50" transform="translate(36.6047,-36.5644)">
							<title>Sheet.3269</title>
							<path d="M1.69 414.17 C15.24 415.05 26.53 426.38 27.41 439.89 C27.49 440.81 28.26 441.5 29.15 441.5 C29.19
										 441.5 29.23 441.5 29.27 441.5 C30.24 441.42 30.96 440.61 30.88 439.65 C30.15 428.72 23.42
										 419.09 14.07 414.13 L24.95 414.13 L23.62 415.46 C22.94 416.14 22.94 417.23 23.62 417.92
										 C23.95 418.24 24.43 418.44 24.87 418.44 C25.32 418.44 25.76 418.28 26.12 417.92 L30.44 413.6
										 C31.12 412.92 31.12 411.83 30.44 411.14 L26.12 406.83 C25.44 406.15 24.35 406.15 23.66 406.83
										 C22.98 407.52 22.98 408.6 23.66 409.29 L24.99 410.62 L1.81 410.62 C0.89 410.62 0.08 411.39
										 0.08 412.31 C0 413.32 0.73 414.09 1.69 414.17 Z" class="st14"/>
						</g>
						<g id="shape3270-53" transform="translate(0,-36.5644)">
							<title>Sheet.3270</title>
							<path d="M4.47 439.77 C4.47 440.69 5.24 441.5 6.17 441.5 L6.21 441.5 C7.14 441.5 7.9 440.77 7.94 439.89
										 C8.83 426.34 20.16 415.05 33.66 414.17 C34.63 414.09 35.35 413.28 35.27 412.31 C35.19 411.35
										 34.39 410.62 33.42 410.7 C22.49 411.43 12.86 418.16 7.9 427.51 L7.9 416.63 L9.23 417.96
										 C9.55 418.28 10.04 418.48 10.48 418.48 C10.92 418.48 11.37 418.32 11.73 417.96 C12.42 417.27
										 12.42 416.18 11.73 415.5 L7.46 411.18 C6.77 410.5 5.68 410.5 5 411.18 L0.69 415.5 C0 416.18
										 0 417.27 0.69 417.96 C1.37 418.64 2.46 418.64 3.14 417.96 L4.47 416.63 L4.47 439.77 Z"
									class="st14"/>
						</g>
						<g id="shape3271-56" transform="translate(4.31355,0)">
							<title>Sheet.3271</title>
							<path d="M29.39 433.64 C15.84 432.75 4.56 421.42 3.67 407.92 C3.59 406.95 2.78 406.23 1.81 406.31 C0.85
										 406.39 0.12 407.19 0.2 408.16 C0.93 419.09 7.66 428.72 17.01 433.68 L6.13 433.68 L7.46 432.35
										 C8.14 431.66 8.14 430.58 7.46 429.89 C6.77 429.2 5.68 429.2 5 429.89 L0.69 434.2 C0 434.89
										 0 435.98 0.69 436.66 L5 440.98 C5.32 441.3 5.81 441.5 6.25 441.5 C6.69 441.5 7.14 441.34
										 7.5 440.98 C8.18 440.29 8.18 439.2 7.5 438.52 L6.17 437.19 L29.27 437.19 C30.19 437.19 31
										 436.42 31 435.49 C31.08 434.49 30.36 433.72 29.39 433.64 Z" class="st14"/>
						</g>
						<g id="shape3272-59" transform="translate(36.645,-4.35386)">
							<title>Sheet.3272</title>
							<path d="M34.67 434.2 C33.98 433.52 32.9 433.52 32.21 434.2 L30.88 435.53 L30.88 412.39 C30.88 411.47
										 30.11 410.66 29.19 410.66 L29.15 410.66 C28.22 410.66 27.45 411.39 27.41 412.27 C26.53 425.82
										 15.2 437.11 1.69 437.99 C0.73 438.07 0 438.88 0.08 439.85 C0.16 440.77 0.93 441.46 1.81
										 441.46 C1.85 441.46 1.89 441.46 1.94 441.46 C12.86 440.73 22.49 434 27.45 424.65 L27.45
										 435.53 L26.12 434.2 C25.44 433.52 24.35 433.52 23.66 434.2 C22.98 434.89 22.98 435.98 23.66
										 436.66 L27.98 440.98 C28.3 441.3 28.78 441.5 29.23 441.5 C29.67 441.5 30.11 441.34 30.48
										 440.98 L34.79 436.66 C35.35 435.98 35.35 434.85 34.67 434.2 Z" class="st14"/>
						</g>
					</g>
				</g>
			</g>
			<g id="shape3288-62" transform="translate(0,-34.3125)">
				<title>Sheet.3288</title>
				<ellipse cx="8.4375" cy="433.062" rx="8.4375" ry="8.4375" class="st15"/>
			</g>
			<g id="shape3297-66" transform="translate(11.25,-69.75)">
				<title>Sheet.3297</title>
				<ellipse cx="8.4375" cy="433.062" rx="8.4375" ry="8.4375" class="st15"/>
			</g>
		</g>
		<g id="group3303-69" transform="translate(568.445,-192.26)">
			<title>Sheet.3303</title>
			<g id="group3249-70" transform="translate(8.15627,0)">
				<title>Sheet.3249</title>
				<g id="shape3250-71">
					<title>Sheet.3250</title>
					<ellipse cx="48.0938" cy="393.406" rx="48.0937" ry="48.0937" class="st13"/>
				</g>
				<g id="group3251-73" transform="translate(12.0937,-12.9375)">
					<title>Router Colored</title>
					<g id="group3252-74" transform="translate(38.5398,-28.4211)">
						<title>Sheet.3252</title>
						<g id="shape3253-75">
							<title>Sheet.3253</title>
						</g>
					</g>
					<g id="group3254-76">
						<title>Sheet.3254</title>
						<g id="shape3255-77" transform="translate(26.4054,-24.3494)">
							<title>Sheet.3255</title>
							<path d="M20.64 432.39 C21.12 430.94 21.12 429.53 21.12 427.11 L21.12 424.25 C21.12 421.83 21.12 420.42
										 19.67 418.96 C18.22 418 16.81 417.51 14.39 417.51 L0 417.51 L0 441.5 L6.73 441.5 L6.73 434.28
										 L11.53 434.28 L15.36 441.5 L21.61 441.5 L17.29 434.28 C18.71 433.8 19.67 433.8 20.64 432.39
										 ZM15.36 426.14 C15.36 427.59 14.88 429 13.42 429 L6.69 429 L6.69 421.79 L12.94 421.79 C14.39
										 421.79 15.36 422.75 15.36 424.21 L15.36 426.14 Z" class="st14"/>
						</g>
						<g id="shape3256-80" transform="translate(11.2072,-11.0862)">
							<title>Sheet.3256</title>
							<path d="M49.59 416.71 C49.59 403.04 38.46 391.91 24.79 391.91 C11.13 391.91 0 403.04 0 416.71 C0 430.37
										 11.13 441.5 24.79 441.5 C38.46 441.5 49.59 430.37 49.59 416.71 ZM24.79 437.99 C13.06 437.99
										 3.51 428.44 3.51 416.71 C3.51 404.98 13.06 395.42 24.79 395.42 C36.52 395.42 46.08 404.98
										 46.08 416.71 C46.08 428.44 36.52 437.99 24.79 437.99 Z" class="st14"/>
						</g>
						<g id="shape3257-83" transform="translate(36.6047,-36.5644)">
							<title>Sheet.3257</title>
							<path d="M1.69 414.17 C15.24 415.05 26.53 426.38 27.41 439.89 C27.49 440.81 28.26 441.5 29.15 441.5 C29.19
										 441.5 29.23 441.5 29.27 441.5 C30.24 441.42 30.96 440.61 30.88 439.65 C30.15 428.72 23.42
										 419.09 14.07 414.13 L24.95 414.13 L23.62 415.46 C22.94 416.14 22.94 417.23 23.62 417.92
										 C23.95 418.24 24.43 418.44 24.87 418.44 C25.32 418.44 25.76 418.28 26.12 417.92 L30.44 413.6
										 C31.12 412.92 31.12 411.83 30.44 411.14 L26.12 406.83 C25.44 406.15 24.35 406.15 23.66 406.83
										 C22.98 407.52 22.98 408.6 23.66 409.29 L24.99 410.62 L1.81 410.62 C0.89 410.62 0.08 411.39
										 0.08 412.31 C0 413.32 0.73 414.09 1.69 414.17 Z" class="st14"/>
						</g>
						<g id="shape3258-86" transform="translate(0,-36.5644)">
							<title>Sheet.3258</title>
							<path d="M4.47 439.77 C4.47 440.69 5.24 441.5 6.17 441.5 L6.21 441.5 C7.14 441.5 7.9 440.77 7.94 439.89
										 C8.83 426.34 20.16 415.05 33.66 414.17 C34.63 414.09 35.35 413.28 35.27 412.31 C35.19 411.35
										 34.39 410.62 33.42 410.7 C22.49 411.43 12.86 418.16 7.9 427.51 L7.9 416.63 L9.23 417.96
										 C9.55 418.28 10.04 418.48 10.48 418.48 C10.92 418.48 11.37 418.32 11.73 417.96 C12.42 417.27
										 12.42 416.18 11.73 415.5 L7.46 411.18 C6.77 410.5 5.68 410.5 5 411.18 L0.69 415.5 C0 416.18
										 0 417.27 0.69 417.96 C1.37 418.64 2.46 418.64 3.14 417.96 L4.47 416.63 L4.47 439.77 Z"
									class="st14"/>
						</g>
						<g id="shape3259-89" transform="translate(4.31355,0)">
							<title>Sheet.3259</title>
							<path d="M29.39 433.64 C15.84 432.75 4.56 421.42 3.67 407.92 C3.59 406.95 2.78 406.23 1.81 406.31 C0.85
										 406.39 0.12 407.19 0.2 408.16 C0.93 419.09 7.66 428.72 17.01 433.68 L6.13 433.68 L7.46 432.35
										 C8.14 431.66 8.14 430.58 7.46 429.89 C6.77 429.2 5.68 429.2 5 429.89 L0.69 434.2 C0 434.89
										 0 435.98 0.69 436.66 L5 440.98 C5.32 441.3 5.81 441.5 6.25 441.5 C6.69 441.5 7.14 441.34
										 7.5 440.98 C8.18 440.29 8.18 439.2 7.5 438.52 L6.17 437.19 L29.27 437.19 C30.19 437.19 31
										 436.42 31 435.49 C31.08 434.49 30.36 433.72 29.39 433.64 Z" class="st14"/>
						</g>
						<g id="shape3260-92" transform="translate(36.645,-4.35386)">
							<title>Sheet.3260</title>
							<path d="M34.67 434.2 C33.98 433.52 32.9 433.52 32.21 434.2 L30.88 435.53 L30.88 412.39 C30.88 411.47
										 30.11 410.66 29.19 410.66 L29.15 410.66 C28.22 410.66 27.45 411.39 27.41 412.27 C26.53 425.82
										 15.2 437.11 1.69 437.99 C0.73 438.07 0 438.88 0.08 439.85 C0.16 440.77 0.93 441.46 1.81
										 441.46 C1.85 441.46 1.89 441.46 1.94 441.46 C12.86 440.73 22.49 434 27.45 424.65 L27.45
										 435.53 L26.12 434.2 C25.44 433.52 24.35 433.52 23.66 434.2 C22.98 434.89 22.98 435.98 23.66
										 436.66 L27.98 440.98 C28.3 441.3 28.78 441.5 29.23 441.5 C29.67 441.5 30.11 441.34 30.48
										 440.98 L34.79 436.66 C35.35 435.98 35.35 434.85 34.67 434.2 Z" class="st14"/>
						</g>
					</g>
				</g>
			</g>
			<g id="shape3294-95" transform="translate(0,-40.5)">
				<title>Sheet.3294</title>
				<ellipse cx="8.4375" cy="433.062" rx="8.4375" ry="8.4375" class="st15"/>
			</g>
			<g id="shape3296-98" transform="translate(95.625,-41.0625)">
				<title>Sheet.3296</title>
				<ellipse cx="8.4375" cy="433.062" rx="8.4375" ry="8.4375" class="st15"/>
			</g>
		</g>
		<g id="group3489-101" transform="translate(1021.62,-86.4951)">
			<title>Sheet.3489</title>
			<g id="group3397-102">
				<title>Sheet.3397</title>
				<g id="shape3398-103" transform="translate(3.32534E-12,-206.005)">
					<title>Sheet.3398</title>
					<path d="M0 441.5 L335.4 441.5 L335.4 410.84 A13.9748 15.3314 -180 0 0 321.42 395.5 L13.97 395.5 A13.9748 15.3314
								 -180 0 0 0 410.84 L0 441.5 Z" class="st17"/>
				</g>
				<g id="shape3399-105">
					<title>Sheet.3399</title>
					<path d="M0 235.5 L0 429.38 A13.9748 12.1177 -180 0 0 13.97 441.5 L321.42 441.5 A13.9748 12.1177 -180 0 0 335.4
								 429.38 L335.4 235.5 L0 235.5 Z" class="st17"/>
				</g>
			</g>
			<g id="shape3401-107" transform="translate(4.37776,-206.005)">
				<title>Virtual server.16</title>
				<desc>Appetizer Process</desc>
				<rect x="0" y="399.741" width="324" height="41.7587" class="st18"/>
				<text x="49.98" y="427.82" class="st19">Appetizer Process</text>			</g>
		</g>
		<g id="group3433-110" transform="translate(994.37,-95.4951)">
			<title>Sheet.3433</title>
			<g id="shape3420-111" transform="translate(41.0477,-5.68434E-14)">
				<title>Rounded Rectangle.3420</title>
				<desc>HTTP Server</desc>
				<path d="M6.78 441.5 L300.88 441.5 A6.781 6.781 -180 0 0 307.66 434.72 L307.66 376.28 A6.781 6.781 -180 0 0 300.88
							 369.5 L6.78 369.5 A6.781 6.781 -180 0 0 -0 376.28 L0 434.72 A6.781 6.781 -180 0 0 6.78 441.5 Z"
						class="st20"/>
				<text x="35" y="418.3" class="st21">HTTP Server</text>			</g>
			<g id="group3421-114">
				<title>SDKs.3421</title>
				<g id="group3422-115">
					<title>CloudKit-Icon</title>
					<g id="group3423-116">
						<title>Bottom</title>
						<g id="shape3424-117">
							<title>Sheet.3424</title>
							<path d="M61.7 422.37 C66.52 418.62 66.52 412.56 61.7 408.8 L41.96 393.44 C37.15 389.69 29.36 389.69
										 24.54 393.44 L4.81 408.8 C0 412.56 0 418.62 4.81 422.37 L24.54 437.75 C29.36 441.5 37.15
										 441.5 41.96 437.75 L61.7 422.37 Z" class="st22"/>
						</g>
						<g id="shape3425-119">
							<title>Sheet.3425</title>
							<path d="M61.7 422.37 C66.52 418.62 66.52 412.56 61.7 408.8 L41.96 393.44 C37.15 389.69 29.36 389.69
										 24.54 393.44 L4.81 408.8 C0 412.56 0 418.62 4.81 422.37 L24.54 437.75 C29.36 441.5 37.15
										 441.5 41.96 437.75 L61.7 422.37 Z" class="st23"/>
						</g>
					</g>
					<g id="group3426-121" transform="translate(0,-10.6879)">
						<title>Middle</title>
						<g id="shape3427-122">
							<title>Sheet.3427</title>
							<path d="M61.7 422.37 C66.52 418.62 66.52 412.56 61.7 408.8 L41.98 393.43 C37.16 389.68 29.37 389.68
										 24.56 393.43 L4.81 408.8 C0 412.56 0 418.62 4.81 422.37 L24.54 437.75 C29.36 441.5 37.15
										 441.5 41.96 437.75 L61.7 422.37 Z" class="st22"/>
						</g>
						<g id="shape3428-124">
							<title>Sheet.3428</title>
							<path d="M61.7 422.37 C66.52 418.62 66.52 412.56 61.7 408.8 L41.98 393.43 C37.16 389.68 29.37 389.68
										 24.56 393.43 L4.81 408.8 C0 412.56 0 418.62 4.81 422.37 L24.54 437.75 C29.36 441.5 37.15
										 441.5 41.96 437.75 L61.7 422.37 Z" class="st23"/>
						</g>
					</g>
					<g id="group3429-126" transform="translate(0,-21.3758)">
						<title>Top</title>
						<g id="shape3430-127">
							<title>Sheet.3430</title>
							<path d="M61.7 422.37 C66.52 418.62 66.52 412.56 61.7 408.8 L41.98 393.43 C37.16 389.68 29.37 389.68
										 24.56 393.43 L4.81 408.8 C0 412.56 0 418.62 4.81 422.37 L24.54 437.75 C29.36 441.5 37.15
										 441.5 41.96 437.75 L61.7 422.37 Z" class="st22"/>
						</g>
						<g id="shape3431-129">
							<title>Sheet.3431</title>
							<path d="M61.7 422.37 C66.52 418.62 66.52 412.56 61.7 408.8 L41.98 393.43 C37.16 389.68 29.37 389.68
										 24.56 393.43 L4.81 408.8 C0 412.56 0 418.62 4.81 422.37 L24.54 437.75 C29.36 441.5 37.15
										 441.5 41.96 437.75 L61.7 422.37 Z" class="st23"/>
						</g>
					</g>
				</g>
				<g id="shape3432-131" transform="translate(21.6186,-29.2453)">
					<title>Sheet.3432</title>
					<path d="M11.99 403.59 L0 421.83 L6.81 426.28 L7.93 424.56 L11.48 441.5 L23.28 423.18 L16.66 418.86 L15.53 420.6
								 L11.99 403.59 ZM17.35 421.9 L20.25 423.86 L12.49 435.75 L8.93 418.76 L6.06 423.18 L3.2 421.31 L10.99
								 409.39 L14.52 426.22 L17.35 421.9 Z" class="st22"/>
				</g>
			</g>
		</g>
		<g id="group3434-133" transform="translate(994.327,-186.862)">
			<title>Sheet.3434</title>
			<g id="shape3402-134" transform="translate(41.0477,-5.68434E-14)">
				<title>Rounded Rectangle.3402</title>
				<desc>Reflect Server</desc>
				<path d="M6.78 441.5 L300.92 441.5 A6.78195 6.78195 -180 0 0 307.7 434.72 L307.7 376.28 A6.78195 6.78195 -180 0 0
							 300.92 369.5 L6.78 369.5 A6.78195 6.78195 -180 0 0 -0 376.28 L0 434.72 A6.78195 6.78195 -180 0 0 6.78
							 441.5 Z" class="st24"/>
				<text x="35" y="418.3" class="st11">Reflect Server</text>			</g>
			<g id="group3408-137">
				<title>SDKs.3408</title>
				<g id="group3409-138">
					<title>CloudKit-Icon</title>
					<g id="group3410-139">
						<title>Bottom</title>
						<g id="shape3411-140">
							<title>Sheet.3411</title>
							<path d="M61.7 422.37 C66.52 418.62 66.52 412.56 61.7 408.8 L41.96 393.44 C37.15 389.69 29.36 389.69
										 24.54 393.44 L4.81 408.8 C0 412.56 0 418.62 4.81 422.37 L24.54 437.75 C29.36 441.5 37.15
										 441.5 41.96 437.75 L61.7 422.37 Z" class="st25"/>
						</g>
						<g id="shape3412-142">
							<title>Sheet.3412</title>
							<path d="M61.7 422.37 C66.52 418.62 66.52 412.56 61.7 408.8 L41.96 393.44 C37.15 389.69 29.36 389.69
										 24.54 393.44 L4.81 408.8 C0 412.56 0 418.62 4.81 422.37 L24.54 437.75 C29.36 441.5 37.15
										 441.5 41.96 437.75 L61.7 422.37 Z" class="st26"/>
						</g>
					</g>
					<g id="group3413-144" transform="translate(0,-10.6879)">
						<title>Middle</title>
						<g id="shape3414-145">
							<title>Sheet.3414</title>
							<path d="M61.7 422.37 C66.52 418.62 66.52 412.56 61.7 408.8 L41.98 393.43 C37.16 389.68 29.37 389.68
										 24.56 393.43 L4.81 408.8 C0 412.56 0 418.62 4.81 422.37 L24.54 437.75 C29.36 441.5 37.15
										 441.5 41.96 437.75 L61.7 422.37 Z" class="st27"/>
						</g>
						<g id="shape3415-147">
							<title>Sheet.3415</title>
							<path d="M61.7 422.37 C66.52 418.62 66.52 412.56 61.7 408.8 L41.98 393.43 C37.16 389.68 29.37 389.68
										 24.56 393.43 L4.81 408.8 C0 412.56 0 418.62 4.81 422.37 L24.54 437.75 C29.36 441.5 37.15
										 441.5 41.96 437.75 L61.7 422.37 Z" class="st28"/>
						</g>
					</g>
					<g id="group3416-149" transform="translate(0,-21.3758)">
						<title>Top</title>
						<g id="shape3417-150">
							<title>Sheet.3417</title>
							<path d="M61.7 422.37 C66.52 418.62 66.52 412.56 61.7 408.8 L41.98 393.43 C37.16 389.68 29.37 389.68
										 24.56 393.43 L4.81 408.8 C0 412.56 0 418.62 4.81 422.37 L24.54 437.75 C29.36 441.5 37.15
										 441.5 41.96 437.75 L61.7 422.37 Z" class="st29"/>
						</g>
						<g id="shape3418-152">
							<title>Sheet.3418</title>
							<path d="M61.7 422.37 C66.52 418.62 66.52 412.56 61.7 408.8 L41.98 393.43 C37.16 389.68 29.37 389.68
										 24.56 393.43 L4.81 408.8 C0 412.56 0 418.62 4.81 422.37 L24.54 437.75 C29.36 441.5 37.15
										 441.5 41.96 437.75 L61.7 422.37 Z" class="st30"/>
						</g>
					</g>
				</g>
				<g id="shape3419-154" transform="translate(21.6186,-29.2453)">
					<title>Sheet.3419</title>
					<path d="M11.99 403.59 L0 421.83 L6.81 426.28 L7.93 424.56 L11.48 441.5 L23.28 423.18 L16.66 418.86 L15.53 420.6
								 L11.99 403.59 ZM17.35 421.9 L20.25 423.86 L12.49 435.75 L8.93 418.76 L6.06 423.18 L3.2 421.31 L10.99
								 409.39 L14.52 426.22 L17.35 421.9 Z" class="st31"/>
				</g>
			</g>
		</g>
		<g id="group3304-156" transform="translate(382.82,-132.072)">
			<title>Sheet.3304</title>
			<g id="group3248-157" transform="translate(10.6875,0)">
				<title>Sheet.3248</title>
				<g id="shape3224-158">
					<title>Sheet.3224</title>
					<ellipse cx="48.0938" cy="393.406" rx="48.0937" ry="48.0937" class="st13"/>
				</g>
				<g id="group3237-160" transform="translate(12.0937,-12.9375)">
					<title>Router Colored</title>
					<g id="group3238-161" transform="translate(38.5398,-28.4211)">
						<title>Sheet.3238</title>
						<g id="shape3239-162">
							<title>Sheet.3239</title>
						</g>
					</g>
					<g id="group3240-163">
						<title>Sheet.3240</title>
						<g id="shape3241-164" transform="translate(26.4054,-24.3494)">
							<title>Sheet.3241</title>
							<path d="M20.64 432.39 C21.12 430.94 21.12 429.53 21.12 427.11 L21.12 424.25 C21.12 421.83 21.12 420.42
										 19.67 418.96 C18.22 418 16.81 417.51 14.39 417.51 L0 417.51 L0 441.5 L6.73 441.5 L6.73 434.28
										 L11.53 434.28 L15.36 441.5 L21.61 441.5 L17.29 434.28 C18.71 433.8 19.67 433.8 20.64 432.39
										 ZM15.36 426.14 C15.36 427.59 14.88 429 13.42 429 L6.69 429 L6.69 421.79 L12.94 421.79 C14.39
										 421.79 15.36 422.75 15.36 424.21 L15.36 426.14 Z" class="st14"/>
						</g>
						<g id="shape3242-167" transform="translate(11.2072,-11.0862)">
							<title>Sheet.3242</title>
							<path d="M49.59 416.71 C49.59 403.04 38.46 391.91 24.79 391.91 C11.13 391.91 0 403.04 0 416.71 C0 430.37
										 11.13 441.5 24.79 441.5 C38.46 441.5 49.59 430.37 49.59 416.71 ZM24.79 437.99 C13.06 437.99
										 3.51 428.44 3.51 416.71 C3.51 404.98 13.06 395.42 24.79 395.42 C36.52 395.42 46.08 404.98
										 46.08 416.71 C46.08 428.44 36.52 437.99 24.79 437.99 Z" class="st14"/>
						</g>
						<g id="shape3243-170" transform="translate(36.6047,-36.5644)">
							<title>Sheet.3243</title>
							<path d="M1.69 414.17 C15.24 415.05 26.53 426.38 27.41 439.89 C27.49 440.81 28.26 441.5 29.15 441.5 C29.19
										 441.5 29.23 441.5 29.27 441.5 C30.24 441.42 30.96 440.61 30.88 439.65 C30.15 428.72 23.42
										 419.09 14.07 414.13 L24.95 414.13 L23.62 415.46 C22.94 416.14 22.94 417.23 23.62 417.92
										 C23.95 418.24 24.43 418.44 24.87 418.44 C25.32 418.44 25.76 418.28 26.12 417.92 L30.44 413.6
										 C31.12 412.92 31.12 411.83 30.44 411.14 L26.12 406.83 C25.44 406.15 24.35 406.15 23.66 406.83
										 C22.98 407.52 22.98 408.6 23.66 409.29 L24.99 410.62 L1.81 410.62 C0.89 410.62 0.08 411.39
										 0.08 412.31 C0 413.32 0.73 414.09 1.69 414.17 Z" class="st14"/>
						</g>
						<g id="shape3244-173" transform="translate(0,-36.5644)">
							<title>Sheet.3244</title>
							<path d="M4.47 439.77 C4.47 440.69 5.24 441.5 6.17 441.5 L6.21 441.5 C7.14 441.5 7.9 440.77 7.94 439.89
										 C8.83 426.34 20.16 415.05 33.66 414.17 C34.63 414.09 35.35 413.28 35.27 412.31 C35.19 411.35
										 34.39 410.62 33.42 410.7 C22.49 411.43 12.86 418.16 7.9 427.51 L7.9 416.63 L9.23 417.96
										 C9.55 418.28 10.04 418.48 10.48 418.48 C10.92 418.48 11.37 418.32 11.73 417.96 C12.42 417.27
										 12.42 416.18 11.73 415.5 L7.46 411.18 C6.77 410.5 5.68 410.5 5 411.18 L0.69 415.5 C0 416.18
										 0 417.27 0.69 417.96 C1.37 418.64 2.46 418.64 3.14 417.96 L4.47 416.63 L4.47 439.77 Z"
									class="st14"/>
						</g>
						<g id="shape3245-176" transform="translate(4.31355,0)">
							<title>Sheet.3245</title>
							<path d="M29.39 433.64 C15.84 432.75 4.56 421.42 3.67 407.92 C3.59 406.95 2.78 406.23 1.81 406.31 C0.85
										 406.39 0.12 407.19 0.2 408.16 C0.93 419.09 7.66 428.72 17.01 433.68 L6.13 433.68 L7.46 432.35
										 C8.14 431.66 8.14 430.58 7.46 429.89 C6.77 429.2 5.68 429.2 5 429.89 L0.69 434.2 C0 434.89
										 0 435.98 0.69 436.66 L5 440.98 C5.32 441.3 5.81 441.5 6.25 441.5 C6.69 441.5 7.14 441.34
										 7.5 440.98 C8.18 440.29 8.18 439.2 7.5 438.52 L6.17 437.19 L29.27 437.19 C30.19 437.19 31
										 436.42 31 435.49 C31.08 434.49 30.36 433.72 29.39 433.64 Z" class="st14"/>
						</g>
						<g id="shape3246-179" transform="translate(36.645,-4.35386)">
							<title>Sheet.3246</title>
							<path d="M34.67 434.2 C33.98 433.52 32.9 433.52 32.21 434.2 L30.88 435.53 L30.88 412.39 C30.88 411.47
										 30.11 410.66 29.19 410.66 L29.15 410.66 C28.22 410.66 27.45 411.39 27.41 412.27 C26.53 425.82
										 15.2 437.11 1.69 437.99 C0.73 438.07 0 438.88 0.08 439.85 C0.16 440.77 0.93 441.46 1.81
										 441.46 C1.85 441.46 1.89 441.46 1.94 441.46 C12.86 440.73 22.49 434 27.45 424.65 L27.45
										 435.53 L26.12 434.2 C25.44 433.52 24.35 433.52 23.66 434.2 C22.98 434.89 22.98 435.98 23.66
										 436.66 L27.98 440.98 C28.3 441.3 28.78 441.5 29.23 441.5 C29.67 441.5 30.11 441.34 30.48
										 440.98 L34.79 436.66 C35.35 435.98 35.35 434.85 34.67 434.2 Z" class="st14"/>
						</g>
					</g>
				</g>
			</g>
			<g id="shape3287-182" transform="translate(99,-34.3125)">
				<title>Sheet.3287</title>
				<ellipse cx="8.4375" cy="433.062" rx="8.4375" ry="8.4375" class="st15"/>
			</g>
			<g id="shape3293-185" transform="translate(89.4375,-69.1875)">
				<title>Sheet.3293</title>
				<ellipse cx="8.4375" cy="433.062" rx="8.4375" ry="8.4375" class="st15"/>
			</g>
			<g id="shape3279-188" transform="translate(0,-34.3125)">
				<title>Sheet.3279</title>
				<ellipse cx="8.4375" cy="433.062" rx="8.4375" ry="8.4375" class="st15"/>
			</g>
		</g>
		<g id="group3444-191" transform="translate(141.577,-119.25)">
			<title>Sheet.3444</title>
		</g>
		<g id="shape3313-192" transform="translate(848.007,-166.385)">
			<title>Sheet.3313</title>
			<ellipse cx="8.4375" cy="433.062" rx="8.4375" ry="8.4375" class="st32"/>
		</g>
		<g id="shape3445-196" transform="translate(848.077,-166.5)">
			<title>Sheet.3445</title>
			<ellipse cx="8.4375" cy="433.062" rx="8.4375" ry="8.4375" class="st15"/>
		</g>
		<g id="shape3479-199" transform="translate(549.085,-29.25)">
			<title>Sheet.3479</title>
			<desc>Internet</desc>
			<rect x="0" y="401" width="156.375" height="40.5" class="st34"/>
			<text x="3.5" y="432.05" class="st6">Internet</text>		</g>
		<g id="shape3490-202" transform="translate(315,-81)">
			<title>Sheet.3490</title>
			<path d="M608.11 303.39 C600.13 299.76 591.34 297.75 582.12 297.75 L579.57 297.75 C568.2 256.56 532.32 226.29 489.58
						 226.29 C470.95 226.29 453.7 232.26 439.19 242.15 C429.58 177.28 376.64 127.44 312.53 127.44 C254.89 127.44
						 206.26 167.39 189.99 222.58 C182.73 220.52 175.09 219.29 167.05 219.29 C123.13 219.29 86.86 253.27 80.19
						 297.75 L65.88 297.75 C29.61 297.75 0 328.85 0 367.15 L0 372.1 C-0 410.4 29.61 441.5 65.88 441.5 L582.12
						 441.5 C618.39 441.5 648 410.4 648 372.1 L648 367.15 C648 348.3 640.82 331.19 629.21 318.67 A78.75 23.625
						 0 0 1 608.11 303.39 Z" class="st35"/>
		</g>
		<g id="group3510-204" transform="translate(707.906,-243)">
			<title>Sheet.3510</title>
			<g id="shape3511-205" transform="translate(332.25,-21.973) rotate(2.53588) scale(-1,1)">
				<title>Sheet.3511</title>
				<path d="M25.78 434.74 L26.08 434.93 A197.82 62.3019 -14.06 0 0 225.72 418.88" class="st36"/>
			</g>
			<g id="group3512-211" transform="translate(201.094,5.68434E-14)">
				<title>Sheet.3512</title>
				<g id="shape3513-212">
					<title>Empty Circle</title>
					<ellipse cx="29.6894" cy="411.811" rx="29.6894" ry="29.6894" class="st13"/>
				</g>
				<g id="group3514-214" transform="translate(10.4173,-9.72283)">
					<title>e2ee</title>
					<g id="group3515-215" transform="translate(20.1222,-14.3647)">
						<title>Sheet.3515</title>
						<g id="shape3516-216">
							<title>Sheet.3516</title>
						</g>
					</g>
					<g id="group3517-217">
						<title>Sheet.3517</title>
						<g id="shape3518-218">
							<title>Sheet.3518</title>
							<path d="M32.21 415.13 L32.21 408.91 C32.21 402 26.86 396.13 19.95 395.87 C12.7 395.58 6.71 401.43 6.71
										 408.63 L6.71 415.16 L0.55 415.16 C0.26 415.16 0 415.39 0 415.71 L0 440.95 C0 441.24 0.23
										 441.5 0.55 441.5 L14.62 441.5 C14.91 441.5 15.17 441.27 15.17 440.95 L15.17 437.44 C15.17
										 437.15 14.94 436.89 14.62 436.89 L5.58 436.89 L5.58 430.1 L13.96 430.1 C14.25 430.1 14.51
										 429.87 14.51 429.55 L14.51 426.07 C14.51 425.78 14.28 425.52 13.96 425.52 L5.58 425.52 L5.58
										 419.74 L14.62 419.74 C14.91 419.74 15.17 419.51 15.17 419.19 L15.17 415.71 C15.17 415.42
										 14.94 415.16 14.62 415.16 L11.2 415.16 L11.2 408.86 C11.2 404.57 14.36 400.8 18.65 400.39
										 C23.55 399.93 27.69 403.79 27.69 408.6 L27.69 415.13 L24.27 415.13 C23.98 415.13 23.72 415.36
										 23.72 415.68 L23.72 419.16 C23.72 419.45 23.95 419.71 24.27 419.71 L33.31 419.71 L33.31
										 425.49 L24.93 425.49 C24.64 425.49 24.38 425.72 24.38 426.04 L24.38 429.52 C24.38 429.81
										 24.61 430.07 24.93 430.07 L33.31 430.07 L33.31 436.87 L24.27 436.87 C23.98 436.87 23.72
										 437.1 23.72 437.41 L23.72 440.92 C23.72 441.21 23.95 441.47 24.27 441.47 L38.34 441.47 C38.63
										 441.47 38.89 441.24 38.89 440.92 L38.89 415.68 C38.89 415.39 38.66 415.13 38.34 415.13 C38.34
										 415.13 32.21 415.13 32.21 415.13 Z" class="st38"/>
						</g>
						<g id="shape3519-222" transform="translate(17.1859,-11.4285)">
							<title>Sheet.3519</title>
							<path d="M0.52 441.5 L4.06 441.5 C4.35 441.5 4.58 441.27 4.58 440.98 L4.58 437.44 C4.58 437.15 4.35 436.92
										 4.06 436.92 L0.52 436.92 C0.23 436.92 0 437.15 0 437.44 L0 440.98 C0 441.27 0.23 441.5 0.52
										 441.5 Z" class="st38"/>
						</g>
					</g>
				</g>
			</g>
			<g id="group3521-225" transform="translate(-1.91847E-13,-33.4062)">
				<title>Controller w/Circle</title>
				<g id="shape3522-226">
					<title>Sheet.3522</title>
					<ellipse cx="48.0938" cy="393.406" rx="48.0937" ry="48.0937" class="st13"/>
				</g>
				<g id="group3523-228" transform="translate(11.1797,-7.51789)">
					<title>Controller</title>
					<g id="group3524-229">
						<title>Sheet.3524</title>
						<g id="shape3525-230" transform="translate(0,-45.0363)">
							<title>Sheet.3525</title>
							<path d="M70.76 427.5 C68.44 423.72 64.78 421.13 60.49 420.1 C59.24 419.83 57.98 419.67 56.72 419.67
										 C54.28 419.67 51.92 420.18 49.76 421.2 C46.22 409.48 34.34 402.01 22.03 404.25 C8.81 406.69
										 0 419.39 2.44 432.65 C2.79 434.54 3.34 436.39 4.13 438.12 C4.56 439.1 5.74 439.57 6.73 439.1
										 C7.71 438.67 8.18 437.49 7.71 436.5 C7.08 435.05 6.57 433.52 6.29 431.9 C4.25 420.81 11.64
										 410.11 22.73 408.11 C33.83 406.06 44.53 413.46 46.53 424.55 C46.65 425.22 47.08 425.77 47.71
										 426 C48.34 426.24 49.05 426.2 49.6 425.81 C51.72 424.35 54.16 423.56 56.76 423.56 C57.7
										 423.56 58.68 423.68 59.63 423.92 C62.89 424.7 65.69 426.71 67.46 429.58 C69.23 432.45 69.78
										 435.84 68.99 439.1 C68.75 440.16 69.38 441.22 70.45 441.46 C70.6 441.5 70.76 441.5 70.92
										 441.5 C71.82 441.5 72.61 440.87 72.84 439.97 C73.83 435.68 73.12 431.27 70.76 427.5 Z"
									class="st39"/>
						</g>
						<g id="shape3526-234" transform="translate(11.6819,0)">
							<title>Sheet.3526</title>
							<path d="M42.68 388.79 L10.03 388.79 C4.48 388.79 0 393.28 0 398.82 L0 431.47 C0 437.02 4.48 441.5 10.03
										 441.5 L42.68 441.5 C48.22 441.5 52.71 437.02 52.71 431.47 L52.71 398.82 C52.71 393.32 48.22
										 388.79 42.68 388.79 ZM48.77 431.47 C48.77 434.85 46.02 437.57 42.68 437.57 L10.03 437.57
										 C6.65 437.57 3.93 434.81 3.93 431.47 L3.93 398.82 C3.93 395.44 6.69 392.73 10.03 392.73
										 L42.68 392.73 C46.06 392.73 48.77 395.48 48.77 398.82 L48.77 431.47 Z" class="st40"/>
						</g>
						<g id="shape3527-238" transform="translate(21.3972,-11.3672)">
							<title>Sheet.3527</title>
							<path d="M31.27 432.69 L19.94 432.69 C19.63 431.63 19.04 430.64 18.21 429.82 C16.91 428.52 15.22 427.81
										 13.37 427.81 C10.27 427.81 7.67 429.86 6.8 432.69 L1.97 432.69 C0.87 432.69 0 433.55 0 434.66
										 C0 435.76 0.87 436.62 1.97 436.62 L6.8 436.62 C7.67 439.45 10.27 441.5 13.37 441.5 C16.48
										 441.5 19.08 439.45 19.94 436.62 L31.27 436.62 C32.37 436.62 33.24 435.76 33.24 434.66 C33.24
										 433.55 32.37 432.69 31.27 432.69 ZM13.41 437.57 C11.8 437.57 10.5 436.27 10.5 434.66 C10.5
										 433.04 11.8 431.75 13.41 431.75 C14.2 431.75 14.91 432.06 15.46 432.61 C16.01 433.16 16.32
										 433.91 16.32 434.66 C16.32 436.27 14.99 437.57 13.41 437.57 Z" class="st41"/>
						</g>
						<g id="shape3528-242" transform="translate(21.4365,-27.6511)">
							<title>Sheet.3528</title>
							<path d="M26.35 427.81 C23.25 427.81 20.65 429.86 19.78 432.69 L1.97 432.69 C0.87 432.69 0 433.55 0 434.66
										 C0 435.76 0.87 436.62 1.97 436.62 L19.78 436.62 C20.65 439.45 23.25 441.5 26.35 441.5 C30.13
										 441.5 33.2 438.43 33.2 434.66 C33.2 430.88 30.13 427.81 26.35 427.81 ZM26.35 437.57 C24.74
										 437.57 23.44 436.27 23.44 434.66 C23.44 433.04 24.74 431.75 26.35 431.75 C27.97 431.75 29.26
										 433.04 29.26 434.66 C29.26 436.27 27.97 437.57 26.35 437.57 Z" class="st42"/>
						</g>
					</g>
				</g>
			</g>
			<g id="shape3520-246" transform="translate(55.4865,742.116) rotate(4.4519) scale(1,-1)">
				<title>Sheet.3520</title>
				<path d="M22.87 430.9 L23.14 431.13 A207.397 81.9494 -19.57 0 0 231.4 411.08" class="st36"/>
			</g>
		</g>
		<g id="shape3450-251" transform="translate(603,-313.055)">
			<title>Sheet.3450</title>
			<desc>Controller</desc>
			<rect x="0" y="417.055" width="101.25" height="24.4451" class="st43"/>
			<text x="4.94" y="435.68" class="st44">Controller</text>		</g>
	</g>
</svg>
