<?xml version="1.0" encoding="UTF-8" standalone="no"?>
<!DOCTYPE svg PUBLIC "-//W3C//DTD SVG 1.1//EN" "http://www.w3.org/Graphics/SVG/1.1/DTD/svg11.dtd">
<!-- Generated by Microsoft Visio, SVG Export dark-step2.svg Page-9 -->
<svg xmlns="http://www.w3.org/2000/svg" xmlns:xlink="http://www.w3.org/1999/xlink" xmlns:ev="http://www.w3.org/2001/xml-events"
		width="19.4498in" height="6.13194in" viewBox="0 0 1400.39 441.5" xml:space="preserve" color-interpolation-filters="sRGB"
		class="st42">
	<style type="text/css">
	<![CDATA[
		.st1 {fill:#33445b;stroke:#595959;stroke-linecap:round;stroke-linejoin:round;stroke-width:0.5}
		.st2 {visibility:visible}
		.st3 {fill:#000000;fill-opacity:0.4;filter:url(#filter_5.3333334922791);stroke:#000000;stroke-linecap:round;stroke-linejoin:round;stroke-opacity:0.4}
		.st4 {fill:#5f6d8b;stroke:#262626;stroke-linecap:round;stroke-linejoin:round;stroke-width:1.75}
		.st5 {fill:#9a6132;stroke:#513100;stroke-linecap:round;stroke-linejoin:round;stroke-width:2}
		.st6 {fill:#ffe0b3;font-family:Russo One;font-size:1.99999em}
		.st7 {fill:url(#grad0-14);stroke:#33445b;stroke-linecap:round;stroke-linejoin:round;stroke-width:1.75}
		.st8 {fill:#d8d8d8;font-family:Open Sans;font-size:3em;font-weight:bold}
		.st9 {fill:#527398;stroke:#1c3453;stroke-dasharray:6,6;stroke-linecap:round;stroke-linejoin:round;stroke-width:2}
		.st10 {fill:#d8d8d8;font-family:Russo One;font-size:3em}
		.st11 {stroke:#33445b;stroke-linecap:round;stroke-linejoin:round;stroke-width:12}
		.st12 {fill:#f2f2f2;stroke:#33445b;stroke-linecap:round;stroke-linejoin:round;stroke-width:3}
		.st13 {fill:url(#grad0-39);stroke:none;stroke-linecap:butt;stroke-width:2.04}
		.st14 {fill:#ffffff;marker-end:url(#mrkr42-58);stroke:#33445b;stroke-linecap:round;stroke-linejoin:round;stroke-width:5}
		.st15 {fill:#33445b;fill-opacity:1;stroke:#33445b;stroke-opacity:1;stroke-width:0.66489361702128}
		.st16 {fill:url(#grad0-102);stroke:none;stroke-linecap:butt;stroke-width:2.04}
		.st17 {fill:url(#grad0-106);stroke:none;stroke-linecap:butt;stroke-width:2.04}
		.st18 {fill:url(#grad0-110);stroke:none;stroke-linecap:butt;stroke-width:2.04}
		.st19 {fill:url(#grad0-114);stroke:none;stroke-linecap:butt;stroke-width:2.04}
		.st20 {fill:#000000;fill-opacity:0.18;stroke:#332741;stroke-linecap:round;stroke-linejoin:round;stroke-opacity:0.92;stroke-width:3.25}
		.st21 {fill:none;stroke:none;stroke-linecap:round;stroke-linejoin:round;stroke-width:0.5}
		.st22 {fill:#d8d8d8;font-family:Russo One;font-size:1.99999em}
		.st23 {fill:#374962;stroke:#343047;stroke-linecap:round;stroke-linejoin:round;stroke-width:2}
		.st24 {fill:#273547;font-family:Russo One;font-size:3em}
		.st25 {fill:#374962;stroke:#273547;stroke-linecap:butt;stroke-width:1.50369}
		.st26 {fill:#374962;stroke:#273547;stroke-linecap:butt;stroke-width:3.38029}
		.st27 {fill:none;filter:url(#filter_16.666666030884);stroke:#000000;stroke-linecap:round;stroke-linejoin:round;stroke-opacity:0.57}
		.st28 {fill:#834150;stroke:#f2f2f2;stroke-dasharray:6.75,6.75;stroke-linecap:round;stroke-linejoin:round;stroke-width:2.25}
		.st29 {fill:#0273fb;stroke:none;stroke-linecap:butt;stroke-width:1.50369}
		.st30 {fill:none;stroke:#158aff;stroke-linecap:butt;stroke-width:3.38029}
		.st31 {fill:#6140b5;fill-opacity:0.98;stroke:none;stroke-linecap:butt;stroke-width:1.50369}
		.st32 {fill:none;stroke:#664dc4;stroke-linecap:butt;stroke-opacity:0.98;stroke-width:3.38029}
		.st33 {fill:#ff0d49;fill-opacity:0.98;stroke:none;stroke-linecap:butt;stroke-width:1.50369}
		.st34 {fill:none;stroke:#fc2d81;stroke-linecap:butt;stroke-opacity:0.98;stroke-width:3.38029}
		.st35 {fill:#ffffff;stroke:none;stroke-linecap:butt;stroke-width:1.50369}
		.st36 {fill:#ffffff;marker-end:url(#mrkr42-217);stroke:#fc0147;stroke-linecap:round;stroke-linejoin:round;stroke-width:5}
		.st37 {fill:#fc0147;fill-opacity:1;stroke:#fc0147;stroke-opacity:1;stroke-width:0.66489361702128}
		.st38 {fill:#ffffff;stroke:#33445b;stroke-linecap:round;stroke-linejoin:round;stroke-width:1}
		.st39 {fill:#33445b;font-family:Open Sans;font-size:1.5em;font-weight:bold}
		.st40 {fill:#33445b;stroke:#1c2531;stroke-linecap:round;stroke-linejoin:round;stroke-width:1.75}
		.st41 {fill:url(#grad0-237);stroke:none;stroke-linecap:butt;stroke-width:2.04}
		.st42 {fill:none;fill-rule:evenodd;font-size:12px;overflow:visible;stroke-linecap:square;stroke-miterlimit:3}
	]]>
	</style>

	<defs id="Patterns_And_Gradients">
		<linearGradient id="grad0-14" x1="0" y1="0" x2="1" y2="0" gradientTransform="rotate(240 0.5 0.5)">
			<stop offset="0" stop-color="#fc0147" stop-opacity="0.15"/>
			<stop offset="1" stop-color="#0068f9" stop-opacity="0.15"/>
		</linearGradient>
		<linearGradient id="grad0-39" x1="0" y1="0" x2="1" y2="0" gradientTransform="rotate(50 0.5 0.5)">
			<stop offset="0.34" stop-color="#0068f9" stop-opacity="1"/>
			<stop offset="0.86" stop-color="#fc0147" stop-opacity="1"/>
		</linearGradient>
		<linearGradient id="grad0-102" x1="0" y1="0" x2="1" y2="0" gradientTransform="rotate(-118.14215319877 0.5 0.5)">
			<stop offset="0.005" stop-color="#fc0147" stop-opacity="1"/>
			<stop offset="0.04" stop-color="#f4044d" stop-opacity="1"/>
			<stop offset="0.9" stop-color="#0068f9" stop-opacity="1"/>
		</linearGradient>
		<linearGradient id="grad0-106" x1="0" y1="0" x2="1" y2="0" gradientTransform="rotate(-135 0.5 0.5)">
			<stop offset="0.005" stop-color="#fc0147" stop-opacity="1"/>
			<stop offset="0.04" stop-color="#f4044d" stop-opacity="1"/>
			<stop offset="0.9" stop-color="#0068f9" stop-opacity="1"/>
		</linearGradient>
		<linearGradient id="grad0-110" x1="0" y1="0" x2="1" y2="0" gradientTransform="rotate(-112.38354531203 0.5 0.5)">
			<stop offset="0.005" stop-color="#fc0147" stop-opacity="1"/>
			<stop offset="0.04" stop-color="#f4044d" stop-opacity="1"/>
			<stop offset="0.9" stop-color="#0068f9" stop-opacity="1"/>
		</linearGradient>
		<linearGradient id="grad0-114" x1="0" y1="0" x2="1" y2="0" gradientTransform="rotate(-112.40744476367 0.5 0.5)">
			<stop offset="0.005" stop-color="#fc0147" stop-opacity="1"/>
			<stop offset="0.04" stop-color="#f4044d" stop-opacity="1"/>
			<stop offset="0.9" stop-color="#0068f9" stop-opacity="1"/>
		</linearGradient>
		<linearGradient id="grad0-237" x1="0" y1="0" x2="1" y2="0" gradientTransform="rotate(50 0.5 0.5)">
			<stop offset="0.23" stop-color="#fc0147" stop-opacity="1"/>
			<stop offset="0.86" stop-color="#0068f9" stop-opacity="1"/>
		</linearGradient>
	</defs>
	<defs id="Markers">
		<g id="lend42">
			<path
					d="M 0 0.75 C -0.414214 0.75 -0.75 0.414214 -0.75 0 -0.75 -0.414214 -0.414214 -0.75 0 -0.75 0.414214 -0.75 0.75 -0.414214 0.75 0 0.75 0.414214 0.414214 0.75 0 0.75 Z "
					style="stroke:none"/>
		</g>
		<marker id="mrkr42-58" class="st15" refX="-1.128" orient="auto" markerUnits="strokeWidth" overflow="visible">
			<use xlink:href="#lend42" transform="scale(-1.504,-1.504) "/>
		</marker>
		<marker id="mrkr42-217" class="st37" refX="-1.128" orient="auto" markerUnits="strokeWidth" overflow="visible">
			<use xlink:href="#lend42" transform="scale(-1.504,-1.504) "/>
		</marker>
	</defs>
	<defs id="Filters">
		<filter id="filter_5.3333334922791">
			<feGaussianBlur stdDeviation="5.3333334922791"/>
		</filter>
		<filter id="filter_16.666666030884">
			<feGaussianBlur stdDeviation="16.666666030884"/>
		</filter>
	</defs>
	<g>
		<title>appetizer-step2-dark</title>
		<g id="shape2873-1" transform="translate(0.25,-0.25)">
			<title>Rounded Rectangle.245</title>
			<path d="M0 441.5 L1399.89 441.5 L1399.89 0.5 L0 0.5 L0 441.5 Z" class="st1"/>
		</g>
		<g id="shape2874-3" transform="translate(265.136,-62.1273)">
			<title>Sheet.2874</title>
			<g id="shadow2874-4" transform="matrix(1.06,0,0,1.06,-22.2892,-15.7632)" class="st2">
				<path d="M217.83 192.26 C209.52 189.92 200.75 188.51 191.53 188.51 C141.18 188.51 99.59 227.2 91.94 277.84 L91.94
							 277.84 L75.53 277.84 L75.53 277.84 C33.95 277.84 0 313.25 0 356.86 L0 356.86 L0 362.49 L0 362.49 C-0
							 406.1 33.95 441.5 75.53 441.5 L75.53 441.5 L667.44 441.5 L667.44 441.5 C709.03 441.5 742.97 406.1 742.97
							 362.49 L742.97 362.49 L742.97 356.86 L742.97 356.86 C742.97 313.25 709.03 277.84 667.44 277.84 L667.44
							 277.84 L664.52 277.84 L664.52 277.84 C651.48 230.95 610.34 196.48 561.33 196.48 C539.98 196.48 520.19
							 203.28 503.56 214.54 C492.54 140.68 431.85 83.94 358.34 83.94 C292.24 83.94 236.49 129.43 217.83 192.26
							 Z" class="st3"/>
			</g>
			<path d="M217.83 192.26 C209.52 189.92 200.75 188.51 191.53 188.51 C141.18 188.51 99.59 227.2 91.94 277.84 L91.94 277.84
						 L75.53 277.84 L75.53 277.84 C33.95 277.84 0 313.25 0 356.86 L0 356.86 L0 362.49 L0 362.49 C-0 406.1 33.95
						 441.5 75.53 441.5 L75.53 441.5 L667.44 441.5 L667.44 441.5 C709.03 441.5 742.97 406.1 742.97 362.49 L742.97
						 362.49 L742.97 356.86 L742.97 356.86 C742.97 313.25 709.03 277.84 667.44 277.84 L667.44 277.84 L664.52 277.84
						 L664.52 277.84 C651.48 230.95 610.34 196.48 561.33 196.48 C539.98 196.48 520.19 203.28 503.56 214.54 C492.54
						 140.68 431.85 83.94 358.34 83.94 C292.24 83.94 236.49 129.43 217.83 192.26 Z" class="st4"/>
		</g>
		<g id="shape3498-8" transform="translate(986.136,-12.7598)">
			<title>Rounded Rectangle.3109</title>
			<desc>Cloud Vendor</desc>
			<path d="M10.58 441.5 L391.36 441.5 A10.5772 10.5772 -180 0 0 401.94 430.92 L401.94 50.34 A10.5772 10.5772 -180 0 0 391.36
						 39.76 L10.58 39.76 A10.5772 10.5772 -180 0 0 0 50.34 L0 430.92 A10.5772 10.5772 -180 0 0 10.58 441.5 Z"
					class="st5"/>
			<text x="9.2" y="432.3" class="st6">Cloud Vendor</text>		</g>
		<g id="shape3206-11" transform="translate(335.452,-84.2599)">
			<title>Sheet.3206</title>
			<desc>OpenZiti Overlay</desc>
			<path d="M174.89 241.4 C168.21 239.52 161.17 238.39 153.77 238.39 C113.34 238.39 79.95 269.45 73.82 310.11 L73.82 310.11
						 L60.64 310.11 L60.64 310.11 C27.25 310.11 0 338.53 0 373.55 L0 373.55 L0 378.06 L0 378.06 C-0 413.08 27.25
						 441.5 60.64 441.5 L60.64 441.5 L535.85 441.5 L535.85 441.5 C569.23 441.5 596.49 413.08 596.49 378.06 L596.49
						 378.06 L596.49 373.55 L596.49 373.55 C596.49 338.53 569.23 310.11 535.85 310.11 L535.85 310.11 L533.5 310.11
						 L533.5 310.11 C523.03 272.46 490 244.79 450.66 244.79 C433.51 244.79 417.63 250.25 404.28 259.29 C395.43
						 199.99 346.7 154.44 287.69 154.44 C234.62 154.44 189.86 190.96 174.89 241.4 Z" class="st7"/>
			<text x="134.85" y="426.7" class="st8">OpenZiti Overlay</text>		</g>
		<g id="shape3108-16" transform="translate(1004.14,-72.0049)">
			<title>Rounded Rectangle.3108</title>
			<desc>Container</desc>
			<path d="M7.49 441.5 L358.45 441.5 A7.49405 7.49405 -180 0 0 365.94 434.01 L365.94 124.5 A7.49405 7.49405 -180 0 0 358.45
						 117 L7.49 117 A7.49405 7.49405 -180 0 0 -0 124.5 L0 434.01 A7.49405 7.49405 -180 0 0 7.49 441.5 Z"
					class="st9"/>
			<text x="94.32" y="153.41" class="st10">Container</text>		</g>
		<g id="shape3286-19" transform="translate(752.101,-165.822)">
			<title>Dynamic connector.3286</title>
			<path d="M0 432.5 L-253.41 432.5" class="st11"/>
		</g>
		<g id="shape3292-22" transform="translate(568.864,-238.571)">
			<title>Dynamic connector.3292</title>
			<path d="M0 441.5 L-80.15 467.75" class="st11"/>
		</g>
		<g id="shape3295-25" transform="translate(763.746,-212.812)">
			<title>Dynamic connector.3295</title>
			<path d="M0 441.5 L-83.2 415.1" class="st11"/>
		</g>
		<g id="group3300-28" transform="translate(752.101,-132.072)">
			<title>Sheet.3300</title>
			<g id="group3261-29" transform="translate(9,0)">
				<title>Sheet.3261</title>
				<g id="shape3262-30">
					<title>Sheet.3262</title>
					<ellipse cx="48.0938" cy="393.406" rx="48.0937" ry="48.0937" class="st12"/>
				</g>
				<g id="group3263-32" transform="translate(12.0937,-12.9375)">
					<title>Router Colored</title>
					<g id="group3264-33" transform="translate(38.5398,-28.4211)">
						<title>Sheet.3264</title>
						<g id="shape3265-34">
							<title>Sheet.3265</title>
						</g>
					</g>
					<g id="group3266-35">
						<title>Sheet.3266</title>
						<g id="shape3267-36" transform="translate(26.4054,-24.3494)">
							<title>Sheet.3267</title>
							<path d="M20.64 432.39 C21.12 430.94 21.12 429.53 21.12 427.11 L21.12 424.25 C21.12 421.83 21.12 420.42
										 19.67 418.96 C18.22 418 16.81 417.51 14.39 417.51 L0 417.51 L0 441.5 L6.73 441.5 L6.73 434.28
										 L11.53 434.28 L15.36 441.5 L21.61 441.5 L17.29 434.28 C18.71 433.8 19.67 433.8 20.64 432.39
										 ZM15.36 426.14 C15.36 427.59 14.88 429 13.42 429 L6.69 429 L6.69 421.79 L12.94 421.79 C14.39
										 421.79 15.36 422.75 15.36 424.21 L15.36 426.14 Z" class="st13"/>
						</g>
						<g id="shape3268-40" transform="translate(11.2072,-11.0862)">
							<title>Sheet.3268</title>
							<path d="M49.59 416.71 C49.59 403.04 38.46 391.91 24.79 391.91 C11.13 391.91 0 403.04 0 416.71 C0 430.37
										 11.13 441.5 24.79 441.5 C38.46 441.5 49.59 430.37 49.59 416.71 ZM24.79 437.99 C13.06 437.99
										 3.51 428.44 3.51 416.71 C3.51 404.98 13.06 395.42 24.79 395.42 C36.52 395.42 46.08 404.98
										 46.08 416.71 C46.08 428.44 36.52 437.99 24.79 437.99 Z" class="st13"/>
						</g>
						<g id="shape3269-43" transform="translate(36.6047,-36.5644)">
							<title>Sheet.3269</title>
							<path d="M1.69 414.17 C15.24 415.05 26.53 426.38 27.41 439.89 C27.49 440.81 28.26 441.5 29.15 441.5 C29.19
										 441.5 29.23 441.5 29.27 441.5 C30.24 441.42 30.96 440.61 30.88 439.65 C30.15 428.72 23.42
										 419.09 14.07 414.13 L24.95 414.13 L23.62 415.46 C22.94 416.14 22.94 417.23 23.62 417.92
										 C23.95 418.24 24.43 418.44 24.87 418.44 C25.32 418.44 25.76 418.28 26.12 417.92 L30.44 413.6
										 C31.12 412.92 31.12 411.83 30.44 411.14 L26.12 406.83 C25.44 406.15 24.35 406.15 23.66 406.83
										 C22.98 407.52 22.98 408.6 23.66 409.29 L24.99 410.62 L1.81 410.62 C0.89 410.62 0.08 411.39
										 0.08 412.31 C0 413.32 0.73 414.09 1.69 414.17 Z" class="st13"/>
						</g>
						<g id="shape3270-46" transform="translate(0,-36.5644)">
							<title>Sheet.3270</title>
							<path d="M4.47 439.77 C4.47 440.69 5.24 441.5 6.17 441.5 L6.21 441.5 C7.14 441.5 7.9 440.77 7.94 439.89
										 C8.83 426.34 20.16 415.05 33.66 414.17 C34.63 414.09 35.35 413.28 35.27 412.31 C35.19 411.35
										 34.39 410.62 33.42 410.7 C22.49 411.43 12.86 418.16 7.9 427.51 L7.9 416.63 L9.23 417.96
										 C9.55 418.28 10.04 418.48 10.48 418.48 C10.92 418.48 11.37 418.32 11.73 417.96 C12.42 417.27
										 12.42 416.18 11.73 415.5 L7.46 411.18 C6.77 410.5 5.68 410.5 5 411.18 L0.69 415.5 C0 416.18
										 0 417.27 0.69 417.96 C1.37 418.64 2.46 418.64 3.14 417.96 L4.47 416.63 L4.47 439.77 Z"
									class="st13"/>
						</g>
						<g id="shape3271-49" transform="translate(4.31355,0)">
							<title>Sheet.3271</title>
							<path d="M29.39 433.64 C15.84 432.75 4.56 421.42 3.67 407.92 C3.59 406.95 2.78 406.23 1.81 406.31 C0.85
										 406.39 0.12 407.19 0.2 408.16 C0.93 419.09 7.66 428.72 17.01 433.68 L6.13 433.68 L7.46 432.35
										 C8.14 431.66 8.14 430.58 7.46 429.89 C6.77 429.2 5.68 429.2 5 429.89 L0.69 434.2 C0 434.89
										 0 435.98 0.69 436.66 L5 440.98 C5.32 441.3 5.81 441.5 6.25 441.5 C6.69 441.5 7.14 441.34
										 7.5 440.98 C8.18 440.29 8.18 439.2 7.5 438.52 L6.17 437.19 L29.27 437.19 C30.19 437.19 31
										 436.42 31 435.49 C31.08 434.49 30.36 433.72 29.39 433.64 Z" class="st13"/>
						</g>
						<g id="shape3272-52" transform="translate(36.645,-4.35386)">
							<title>Sheet.3272</title>
							<path d="M34.67 434.2 C33.98 433.52 32.9 433.52 32.21 434.2 L30.88 435.53 L30.88 412.39 C30.88 411.47
										 30.11 410.66 29.19 410.66 L29.15 410.66 C28.22 410.66 27.45 411.39 27.41 412.27 C26.53 425.82
										 15.2 437.11 1.69 437.99 C0.73 438.07 0 438.88 0.08 439.85 C0.16 440.77 0.93 441.46 1.81
										 441.46 C1.85 441.46 1.89 441.46 1.94 441.46 C12.86 440.73 22.49 434 27.45 424.65 L27.45
										 435.53 L26.12 434.2 C25.44 433.52 24.35 433.52 23.66 434.2 C22.98 434.89 22.98 435.98 23.66
										 436.66 L27.98 440.98 C28.3 441.3 28.78 441.5 29.23 441.5 C29.67 441.5 30.11 441.34 30.48
										 440.98 L34.79 436.66 C35.35 435.98 35.35 434.85 34.67 434.2 Z" class="st13"/>
						</g>
					</g>
				</g>
			</g>
			<g id="shape3288-55" transform="translate(0,-34.3125)">
				<title>Sheet.3288</title>
				<ellipse cx="8.4375" cy="433.062" rx="8.4375" ry="8.4375" class="st14"/>
			</g>
			<g id="shape3297-59" transform="translate(11.25,-69.75)">
				<title>Sheet.3297</title>
				<ellipse cx="8.4375" cy="433.062" rx="8.4375" ry="8.4375" class="st14"/>
			</g>
		</g>
		<g id="group3303-62" transform="translate(568.445,-192.26)">
			<title>Sheet.3303</title>
			<g id="group3249-63" transform="translate(8.15627,0)">
				<title>Sheet.3249</title>
				<g id="shape3250-64">
					<title>Sheet.3250</title>
					<ellipse cx="48.0938" cy="393.406" rx="48.0937" ry="48.0937" class="st12"/>
				</g>
				<g id="group3251-66" transform="translate(12.0937,-12.9375)">
					<title>Router Colored</title>
					<g id="group3252-67" transform="translate(38.5398,-28.4211)">
						<title>Sheet.3252</title>
						<g id="shape3253-68">
							<title>Sheet.3253</title>
						</g>
					</g>
					<g id="group3254-69">
						<title>Sheet.3254</title>
						<g id="shape3255-70" transform="translate(26.4054,-24.3494)">
							<title>Sheet.3255</title>
							<path d="M20.64 432.39 C21.12 430.94 21.12 429.53 21.12 427.11 L21.12 424.25 C21.12 421.83 21.12 420.42
										 19.67 418.96 C18.22 418 16.81 417.51 14.39 417.51 L0 417.51 L0 441.5 L6.73 441.5 L6.73 434.28
										 L11.53 434.28 L15.36 441.5 L21.61 441.5 L17.29 434.28 C18.71 433.8 19.67 433.8 20.64 432.39
										 ZM15.36 426.14 C15.36 427.59 14.88 429 13.42 429 L6.69 429 L6.69 421.79 L12.94 421.79 C14.39
										 421.79 15.36 422.75 15.36 424.21 L15.36 426.14 Z" class="st13"/>
						</g>
						<g id="shape3256-73" transform="translate(11.2072,-11.0862)">
							<title>Sheet.3256</title>
							<path d="M49.59 416.71 C49.59 403.04 38.46 391.91 24.79 391.91 C11.13 391.91 0 403.04 0 416.71 C0 430.37
										 11.13 441.5 24.79 441.5 C38.46 441.5 49.59 430.37 49.59 416.71 ZM24.79 437.99 C13.06 437.99
										 3.51 428.44 3.51 416.71 C3.51 404.98 13.06 395.42 24.79 395.42 C36.52 395.42 46.08 404.98
										 46.08 416.71 C46.08 428.44 36.52 437.99 24.79 437.99 Z" class="st13"/>
						</g>
						<g id="shape3257-76" transform="translate(36.6047,-36.5644)">
							<title>Sheet.3257</title>
							<path d="M1.69 414.17 C15.24 415.05 26.53 426.38 27.41 439.89 C27.49 440.81 28.26 441.5 29.15 441.5 C29.19
										 441.5 29.23 441.5 29.27 441.5 C30.24 441.42 30.96 440.61 30.88 439.65 C30.15 428.72 23.42
										 419.09 14.07 414.13 L24.95 414.13 L23.62 415.46 C22.94 416.14 22.94 417.23 23.62 417.92
										 C23.95 418.24 24.43 418.44 24.87 418.44 C25.32 418.44 25.76 418.28 26.12 417.92 L30.44 413.6
										 C31.12 412.92 31.12 411.83 30.44 411.14 L26.12 406.83 C25.44 406.15 24.35 406.15 23.66 406.83
										 C22.98 407.52 22.98 408.6 23.66 409.29 L24.99 410.62 L1.81 410.62 C0.89 410.62 0.08 411.39
										 0.08 412.31 C0 413.32 0.73 414.09 1.69 414.17 Z" class="st13"/>
						</g>
						<g id="shape3258-79" transform="translate(0,-36.5644)">
							<title>Sheet.3258</title>
							<path d="M4.47 439.77 C4.47 440.69 5.24 441.5 6.17 441.5 L6.21 441.5 C7.14 441.5 7.9 440.77 7.94 439.89
										 C8.83 426.34 20.16 415.05 33.66 414.17 C34.63 414.09 35.35 413.28 35.27 412.31 C35.19 411.35
										 34.39 410.62 33.42 410.7 C22.49 411.43 12.86 418.16 7.9 427.51 L7.9 416.63 L9.23 417.96
										 C9.55 418.28 10.04 418.48 10.48 418.48 C10.92 418.48 11.37 418.32 11.73 417.96 C12.42 417.27
										 12.42 416.18 11.73 415.5 L7.46 411.18 C6.77 410.5 5.68 410.5 5 411.18 L0.69 415.5 C0 416.18
										 0 417.27 0.69 417.96 C1.37 418.64 2.46 418.64 3.14 417.96 L4.47 416.63 L4.47 439.77 Z"
									class="st13"/>
						</g>
						<g id="shape3259-82" transform="translate(4.31355,0)">
							<title>Sheet.3259</title>
							<path d="M29.39 433.64 C15.84 432.75 4.56 421.42 3.67 407.92 C3.59 406.95 2.78 406.23 1.81 406.31 C0.85
										 406.39 0.12 407.19 0.2 408.16 C0.93 419.09 7.66 428.72 17.01 433.68 L6.13 433.68 L7.46 432.35
										 C8.14 431.66 8.14 430.58 7.46 429.89 C6.77 429.2 5.68 429.2 5 429.89 L0.69 434.2 C0 434.89
										 0 435.98 0.69 436.66 L5 440.98 C5.32 441.3 5.81 441.5 6.25 441.5 C6.69 441.5 7.14 441.34
										 7.5 440.98 C8.18 440.29 8.18 439.2 7.5 438.52 L6.17 437.19 L29.27 437.19 C30.19 437.19 31
										 436.42 31 435.49 C31.08 434.49 30.36 433.72 29.39 433.64 Z" class="st13"/>
						</g>
						<g id="shape3260-85" transform="translate(36.645,-4.35386)">
							<title>Sheet.3260</title>
							<path d="M34.67 434.2 C33.98 433.52 32.9 433.52 32.21 434.2 L30.88 435.53 L30.88 412.39 C30.88 411.47
										 30.11 410.66 29.19 410.66 L29.15 410.66 C28.22 410.66 27.45 411.39 27.41 412.27 C26.53 425.82
										 15.2 437.11 1.69 437.99 C0.73 438.07 0 438.88 0.08 439.85 C0.16 440.77 0.93 441.46 1.81
										 441.46 C1.85 441.46 1.89 441.46 1.94 441.46 C12.86 440.73 22.49 434 27.45 424.65 L27.45
										 435.53 L26.12 434.2 C25.44 433.52 24.35 433.52 23.66 434.2 C22.98 434.89 22.98 435.98 23.66
										 436.66 L27.98 440.98 C28.3 441.3 28.78 441.5 29.23 441.5 C29.67 441.5 30.11 441.34 30.48
										 440.98 L34.79 436.66 C35.35 435.98 35.35 434.85 34.67 434.2 Z" class="st13"/>
						</g>
					</g>
				</g>
			</g>
			<g id="shape3294-88" transform="translate(0,-40.5)">
				<title>Sheet.3294</title>
				<ellipse cx="8.4375" cy="433.062" rx="8.4375" ry="8.4375" class="st14"/>
			</g>
			<g id="shape3296-91" transform="translate(95.625,-41.0625)">
				<title>Sheet.3296</title>
				<ellipse cx="8.4375" cy="433.062" rx="8.4375" ry="8.4375" class="st14"/>
			</g>
		</g>
		<g id="group3365-94" transform="translate(707.906,-276.406)">
			<title>Controller w/Circle</title>
			<g id="shape3366-95">
				<title>Sheet.3366</title>
				<ellipse cx="48.0938" cy="393.406" rx="48.0937" ry="48.0937" class="st12"/>
			</g>
			<g id="group3367-97" transform="translate(11.1797,-7.51789)">
				<title>Controller</title>
				<g id="group3368-98">
					<title>Sheet.3368</title>
					<g id="shape3369-99" transform="translate(0,-45.0363)">
						<title>Sheet.3369</title>
						<path d="M70.76 427.5 C68.44 423.72 64.78 421.13 60.49 420.1 C59.24 419.83 57.98 419.67 56.72 419.67 C54.28
									 419.67 51.92 420.18 49.76 421.2 C46.22 409.48 34.34 402.01 22.03 404.25 C8.81 406.69 0 419.39
									 2.44 432.65 C2.79 434.54 3.34 436.39 4.13 438.12 C4.56 439.1 5.74 439.57 6.73 439.1 C7.71 438.67
									 8.18 437.49 7.71 436.5 C7.08 435.05 6.57 433.52 6.29 431.9 C4.25 420.81 11.64 410.11 22.73 408.11
									 C33.83 406.06 44.53 413.46 46.53 424.55 C46.65 425.22 47.08 425.77 47.71 426 C48.34 426.24 49.05
									 426.2 49.6 425.81 C51.72 424.35 54.16 423.56 56.76 423.56 C57.7 423.56 58.68 423.68 59.63 423.92
									 C62.89 424.7 65.69 426.71 67.46 429.58 C69.23 432.45 69.78 435.84 68.99 439.1 C68.75 440.16
									 69.38 441.22 70.45 441.46 C70.6 441.5 70.76 441.5 70.92 441.5 C71.82 441.5 72.61 440.87 72.84
									 439.97 C73.83 435.68 73.12 431.27 70.76 427.5 Z" class="st16"/>
					</g>
					<g id="shape3370-103" transform="translate(11.6819,0)">
						<title>Sheet.3370</title>
						<path d="M42.68 388.79 L10.03 388.79 C4.48 388.79 0 393.28 0 398.82 L0 431.47 C0 437.02 4.48 441.5 10.03
									 441.5 L42.68 441.5 C48.22 441.5 52.71 437.02 52.71 431.47 L52.71 398.82 C52.71 393.32 48.22
									 388.79 42.68 388.79 ZM48.77 431.47 C48.77 434.85 46.02 437.57 42.68 437.57 L10.03 437.57 C6.65
									 437.57 3.93 434.81 3.93 431.47 L3.93 398.82 C3.93 395.44 6.69 392.73 10.03 392.73 L42.68 392.73
									 C46.06 392.73 48.77 395.48 48.77 398.82 L48.77 431.47 Z" class="st17"/>
					</g>
					<g id="shape3371-107" transform="translate(21.3972,-11.3672)">
						<title>Sheet.3371</title>
						<path d="M31.27 432.69 L19.94 432.69 C19.63 431.63 19.04 430.64 18.21 429.82 C16.91 428.52 15.22 427.81 13.37
									 427.81 C10.27 427.81 7.67 429.86 6.8 432.69 L1.97 432.69 C0.87 432.69 0 433.55 0 434.66 C0 435.76
									 0.87 436.62 1.97 436.62 L6.8 436.62 C7.67 439.45 10.27 441.5 13.37 441.5 C16.48 441.5 19.08
									 439.45 19.94 436.62 L31.27 436.62 C32.37 436.62 33.24 435.76 33.24 434.66 C33.24 433.55 32.37
									 432.69 31.27 432.69 ZM13.41 437.57 C11.8 437.57 10.5 436.27 10.5 434.66 C10.5 433.04 11.8 431.75
									 13.41 431.75 C14.2 431.75 14.91 432.06 15.46 432.61 C16.01 433.16 16.32 433.91 16.32 434.66
									 C16.32 436.27 14.99 437.57 13.41 437.57 Z" class="st18"/>
					</g>
					<g id="shape3372-111" transform="translate(21.4365,-27.6511)">
						<title>Sheet.3372</title>
						<path d="M26.35 427.81 C23.25 427.81 20.65 429.86 19.78 432.69 L1.97 432.69 C0.87 432.69 0 433.55 0 434.66
									 C0 435.76 0.87 436.62 1.97 436.62 L19.78 436.62 C20.65 439.45 23.25 441.5 26.35 441.5 C30.13
									 441.5 33.2 438.43 33.2 434.66 C33.2 430.88 30.13 427.81 26.35 427.81 ZM26.35 437.57 C24.74 437.57
									 23.44 436.27 23.44 434.66 C23.44 433.04 24.74 431.75 26.35 431.75 C27.97 431.75 29.26 433.04
									 29.26 434.66 C29.26 436.27 27.97 437.57 26.35 437.57 Z" class="st19"/>
					</g>
				</g>
			</g>
		</g>
		<g id="group3489-115" transform="translate(1021.62,-86.4951)">
			<title>Sheet.3489</title>
			<g id="group3397-116">
				<title>Sheet.3397</title>
				<g id="shape3398-117" transform="translate(3.32534E-12,-206.005)">
					<title>Sheet.3398</title>
					<path d="M0 441.5 L335.4 441.5 L335.4 410.84 A13.9748 15.3314 -180 0 0 321.42 395.5 L13.97 395.5 A13.9748 15.3314
								 -180 0 0 0 410.84 L0 441.5 Z" class="st20"/>
				</g>
				<g id="shape3399-119">
					<title>Sheet.3399</title>
					<path d="M0 235.5 L0 429.38 A13.9748 12.1177 -180 0 0 13.97 441.5 L321.42 441.5 A13.9748 12.1177 -180 0 0 335.4
								 429.38 L335.4 235.5 L0 235.5 Z" class="st20"/>
				</g>
			</g>
			<g id="shape3401-121" transform="translate(4.37776,-206.005)">
				<title>Virtual server.16</title>
				<desc>Appetizer Process</desc>
				<rect x="0" y="399.741" width="324" height="41.7587" class="st21"/>
				<text x="49.98" y="427.82" class="st22">Appetizer Process</text>			</g>
		</g>
		<g id="group3433-124" transform="translate(994.37,-95.4951)">
			<title>Sheet.3433</title>
			<g id="shape3420-125" transform="translate(41.0477,-5.68434E-14)">
				<title>Rounded Rectangle.3420</title>
				<desc>HTTP Server</desc>
				<path d="M6.78 441.5 L300.88 441.5 A6.781 6.781 -180 0 0 307.66 434.72 L307.66 376.28 A6.781 6.781 -180 0 0 300.88
							 369.5 L6.78 369.5 A6.781 6.781 -180 0 0 -0 376.28 L0 434.72 A6.781 6.781 -180 0 0 6.78 441.5 Z"
						class="st23"/>
				<text x="35" y="418.3" class="st24">HTTP Server</text>			</g>
			<g id="group3421-128">
				<title>SDKs.3421</title>
				<g id="group3422-129">
					<title>CloudKit-Icon</title>
					<g id="group3423-130">
						<title>Bottom</title>
						<g id="shape3424-131">
							<title>Sheet.3424</title>
							<path d="M61.7 422.37 C66.52 418.62 66.52 412.56 61.7 408.8 L41.96 393.44 C37.15 389.69 29.36 389.69
										 24.54 393.44 L4.81 408.8 C0 412.56 0 418.62 4.81 422.37 L24.54 437.75 C29.36 441.5 37.15
										 441.5 41.96 437.75 L61.7 422.37 Z" class="st25"/>
						</g>
						<g id="shape3425-133">
							<title>Sheet.3425</title>
							<path d="M61.7 422.37 C66.52 418.62 66.52 412.56 61.7 408.8 L41.96 393.44 C37.15 389.69 29.36 389.69
										 24.54 393.44 L4.81 408.8 C0 412.56 0 418.62 4.81 422.37 L24.54 437.75 C29.36 441.5 37.15
										 441.5 41.96 437.75 L61.7 422.37 Z" class="st26"/>
						</g>
					</g>
					<g id="group3426-135" transform="translate(0,-10.6879)">
						<title>Middle</title>
						<g id="shape3427-136">
							<title>Sheet.3427</title>
							<path d="M61.7 422.37 C66.52 418.62 66.52 412.56 61.7 408.8 L41.98 393.43 C37.16 389.68 29.37 389.68
										 24.56 393.43 L4.81 408.8 C0 412.56 0 418.62 4.81 422.37 L24.54 437.75 C29.36 441.5 37.15
										 441.5 41.96 437.75 L61.7 422.37 Z" class="st25"/>
						</g>
						<g id="shape3428-138">
							<title>Sheet.3428</title>
							<path d="M61.7 422.37 C66.52 418.62 66.52 412.56 61.7 408.8 L41.98 393.43 C37.16 389.68 29.37 389.68
										 24.56 393.43 L4.81 408.8 C0 412.56 0 418.62 4.81 422.37 L24.54 437.75 C29.36 441.5 37.15
										 441.5 41.96 437.75 L61.7 422.37 Z" class="st26"/>
						</g>
					</g>
					<g id="group3429-140" transform="translate(0,-21.3758)">
						<title>Top</title>
						<g id="shape3430-141">
							<title>Sheet.3430</title>
							<path d="M61.7 422.37 C66.52 418.62 66.52 412.56 61.7 408.8 L41.98 393.43 C37.16 389.68 29.37 389.68
										 24.56 393.43 L4.81 408.8 C0 412.56 0 418.62 4.81 422.37 L24.54 437.75 C29.36 441.5 37.15
										 441.5 41.96 437.75 L61.7 422.37 Z" class="st25"/>
						</g>
						<g id="shape3431-143">
							<title>Sheet.3431</title>
							<path d="M61.7 422.37 C66.52 418.62 66.52 412.56 61.7 408.8 L41.98 393.43 C37.16 389.68 29.37 389.68
										 24.56 393.43 L4.81 408.8 C0 412.56 0 418.62 4.81 422.37 L24.54 437.75 C29.36 441.5 37.15
										 441.5 41.96 437.75 L61.7 422.37 Z" class="st26"/>
						</g>
					</g>
				</g>
				<g id="shape3432-145" transform="translate(21.6186,-29.2453)">
					<title>Sheet.3432</title>
					<path d="M11.99 403.59 L0 421.83 L6.81 426.28 L7.93 424.56 L11.48 441.5 L23.28 423.18 L16.66 418.86 L15.53 420.6
								 L11.99 403.59 ZM17.35 421.9 L20.25 423.86 L12.49 435.75 L8.93 418.76 L6.06 423.18 L3.2 421.31 L10.99
								 409.39 L14.52 426.22 L17.35 421.9 Z" class="st25"/>
				</g>
			</g>
		</g>
		<g id="shape3435-147" transform="translate(1001.87,-225.236)">
			<title>Dynamic connector.3435</title>
			<g id="shadow3435-148" transform="matrix(1.02,0,0,1.02,1.37456,-9.3065)" class="st2">
				<path d="M0 441.5 L-137.46 489.15" class="st27"/>
			</g>
			<path d="M0 441.5 L-137.46 489.15" class="st11"/>
		</g>
		<g id="group3434-155" transform="translate(994.327,-186.862)">
			<title>Sheet.3434</title>
			<g id="shape3402-156" transform="translate(41.0477,-5.68434E-14)">
				<title>Rounded Rectangle.3402</title>
				<desc>Reflect Server</desc>
				<path d="M6.78 441.5 L300.92 441.5 A6.78195 6.78195 -180 0 0 307.7 434.72 L307.7 376.28 A6.78195 6.78195 -180 0 0
							 300.92 369.5 L6.78 369.5 A6.78195 6.78195 -180 0 0 -0 376.28 L0 434.72 A6.78195 6.78195 -180 0 0 6.78
							 441.5 Z" class="st28"/>
				<text x="35" y="418.3" class="st10">Reflect Server</text>			</g>
			<g id="group3408-159">
				<title>SDKs.3408</title>
				<g id="group3409-160">
					<title>CloudKit-Icon</title>
					<g id="group3410-161">
						<title>Bottom</title>
						<g id="shape3411-162">
							<title>Sheet.3411</title>
							<path d="M61.7 422.37 C66.52 418.62 66.52 412.56 61.7 408.8 L41.96 393.44 C37.15 389.69 29.36 389.69
										 24.54 393.44 L4.81 408.8 C0 412.56 0 418.62 4.81 422.37 L24.54 437.75 C29.36 441.5 37.15
										 441.5 41.96 437.75 L61.7 422.37 Z" class="st29"/>
						</g>
						<g id="shape3412-164">
							<title>Sheet.3412</title>
							<path d="M61.7 422.37 C66.52 418.62 66.52 412.56 61.7 408.8 L41.96 393.44 C37.15 389.69 29.36 389.69
										 24.54 393.44 L4.81 408.8 C0 412.56 0 418.62 4.81 422.37 L24.54 437.75 C29.36 441.5 37.15
										 441.5 41.96 437.75 L61.7 422.37 Z" class="st30"/>
						</g>
					</g>
					<g id="group3413-166" transform="translate(0,-10.6879)">
						<title>Middle</title>
						<g id="shape3414-167">
							<title>Sheet.3414</title>
							<path d="M61.7 422.37 C66.52 418.62 66.52 412.56 61.7 408.8 L41.98 393.43 C37.16 389.68 29.37 389.68
										 24.56 393.43 L4.81 408.8 C0 412.56 0 418.62 4.81 422.37 L24.54 437.75 C29.36 441.5 37.15
										 441.5 41.96 437.75 L61.7 422.37 Z" class="st31"/>
						</g>
						<g id="shape3415-169">
							<title>Sheet.3415</title>
							<path d="M61.7 422.37 C66.52 418.62 66.52 412.56 61.7 408.8 L41.98 393.43 C37.16 389.68 29.37 389.68
										 24.56 393.43 L4.81 408.8 C0 412.56 0 418.62 4.81 422.37 L24.54 437.75 C29.36 441.5 37.15
										 441.5 41.96 437.75 L61.7 422.37 Z" class="st32"/>
						</g>
					</g>
					<g id="group3416-171" transform="translate(0,-21.3758)">
						<title>Top</title>
						<g id="shape3417-172">
							<title>Sheet.3417</title>
							<path d="M61.7 422.37 C66.52 418.62 66.52 412.56 61.7 408.8 L41.98 393.43 C37.16 389.68 29.37 389.68
										 24.56 393.43 L4.81 408.8 C0 412.56 0 418.62 4.81 422.37 L24.54 437.75 C29.36 441.5 37.15
										 441.5 41.96 437.75 L61.7 422.37 Z" class="st33"/>
						</g>
						<g id="shape3418-174">
							<title>Sheet.3418</title>
							<path d="M61.7 422.37 C66.52 418.62 66.52 412.56 61.7 408.8 L41.98 393.43 C37.16 389.68 29.37 389.68
										 24.56 393.43 L4.81 408.8 C0 412.56 0 418.62 4.81 422.37 L24.54 437.75 C29.36 441.5 37.15
										 441.5 41.96 437.75 L61.7 422.37 Z" class="st34"/>
						</g>
					</g>
				</g>
				<g id="shape3419-176" transform="translate(21.6186,-29.2453)">
					<title>Sheet.3419</title>
					<path d="M11.99 403.59 L0 421.83 L6.81 426.28 L7.93 424.56 L11.48 441.5 L23.28 423.18 L16.66 418.86 L15.53 420.6
								 L11.99 403.59 ZM17.35 421.9 L20.25 423.86 L12.49 435.75 L8.93 418.76 L6.06 423.18 L3.2 421.31 L10.99
								 409.39 L14.52 426.22 L17.35 421.9 Z" class="st35"/>
				</g>
			</g>
		</g>
		<g id="group3304-178" transform="translate(382.82,-132.072)">
			<title>Sheet.3304</title>
			<g id="group3248-179" transform="translate(10.6875,0)">
				<title>Sheet.3248</title>
				<g id="shape3224-180">
					<title>Sheet.3224</title>
					<ellipse cx="48.0938" cy="393.406" rx="48.0937" ry="48.0937" class="st12"/>
				</g>
				<g id="group3237-182" transform="translate(12.0937,-12.9375)">
					<title>Router Colored</title>
					<g id="group3238-183" transform="translate(38.5398,-28.4211)">
						<title>Sheet.3238</title>
						<g id="shape3239-184">
							<title>Sheet.3239</title>
						</g>
					</g>
					<g id="group3240-185">
						<title>Sheet.3240</title>
						<g id="shape3241-186" transform="translate(26.4054,-24.3494)">
							<title>Sheet.3241</title>
							<path d="M20.64 432.39 C21.12 430.94 21.12 429.53 21.12 427.11 L21.12 424.25 C21.12 421.83 21.12 420.42
										 19.67 418.96 C18.22 418 16.81 417.51 14.39 417.51 L0 417.51 L0 441.5 L6.73 441.5 L6.73 434.28
										 L11.53 434.28 L15.36 441.5 L21.61 441.5 L17.29 434.28 C18.71 433.8 19.67 433.8 20.64 432.39
										 ZM15.36 426.14 C15.36 427.59 14.88 429 13.42 429 L6.69 429 L6.69 421.79 L12.94 421.79 C14.39
										 421.79 15.36 422.75 15.36 424.21 L15.36 426.14 Z" class="st13"/>
						</g>
						<g id="shape3242-189" transform="translate(11.2072,-11.0862)">
							<title>Sheet.3242</title>
							<path d="M49.59 416.71 C49.59 403.04 38.46 391.91 24.79 391.91 C11.13 391.91 0 403.04 0 416.71 C0 430.37
										 11.13 441.5 24.79 441.5 C38.46 441.5 49.59 430.37 49.59 416.71 ZM24.79 437.99 C13.06 437.99
										 3.51 428.44 3.51 416.71 C3.51 404.98 13.06 395.42 24.79 395.42 C36.52 395.42 46.08 404.98
										 46.08 416.71 C46.08 428.44 36.52 437.99 24.79 437.99 Z" class="st13"/>
						</g>
						<g id="shape3243-192" transform="translate(36.6047,-36.5644)">
							<title>Sheet.3243</title>
							<path d="M1.69 414.17 C15.24 415.05 26.53 426.38 27.41 439.89 C27.49 440.81 28.26 441.5 29.15 441.5 C29.19
										 441.5 29.23 441.5 29.27 441.5 C30.24 441.42 30.96 440.61 30.88 439.65 C30.15 428.72 23.42
										 419.09 14.07 414.13 L24.95 414.13 L23.62 415.46 C22.94 416.14 22.94 417.23 23.62 417.92
										 C23.95 418.24 24.43 418.44 24.87 418.44 C25.32 418.44 25.76 418.28 26.12 417.92 L30.44 413.6
										 C31.12 412.92 31.12 411.83 30.44 411.14 L26.12 406.83 C25.44 406.15 24.35 406.15 23.66 406.83
										 C22.98 407.52 22.98 408.6 23.66 409.29 L24.99 410.62 L1.81 410.62 C0.89 410.62 0.08 411.39
										 0.08 412.31 C0 413.32 0.73 414.09 1.69 414.17 Z" class="st13"/>
						</g>
						<g id="shape3244-195" transform="translate(0,-36.5644)">
							<title>Sheet.3244</title>
							<path d="M4.47 439.77 C4.47 440.69 5.24 441.5 6.17 441.5 L6.21 441.5 C7.14 441.5 7.9 440.77 7.94 439.89
										 C8.83 426.34 20.16 415.05 33.66 414.17 C34.63 414.09 35.35 413.28 35.27 412.31 C35.19 411.35
										 34.39 410.62 33.42 410.7 C22.49 411.43 12.86 418.16 7.9 427.51 L7.9 416.63 L9.23 417.96
										 C9.55 418.28 10.04 418.48 10.48 418.48 C10.92 418.48 11.37 418.32 11.73 417.96 C12.42 417.27
										 12.42 416.18 11.73 415.5 L7.46 411.18 C6.77 410.5 5.68 410.5 5 411.18 L0.69 415.5 C0 416.18
										 0 417.27 0.69 417.96 C1.37 418.64 2.46 418.64 3.14 417.96 L4.47 416.63 L4.47 439.77 Z"
									class="st13"/>
						</g>
						<g id="shape3245-198" transform="translate(4.31355,0)">
							<title>Sheet.3245</title>
							<path d="M29.39 433.64 C15.84 432.75 4.56 421.42 3.67 407.92 C3.59 406.95 2.78 406.23 1.81 406.31 C0.85
										 406.39 0.12 407.19 0.2 408.16 C0.93 419.09 7.66 428.72 17.01 433.68 L6.13 433.68 L7.46 432.35
										 C8.14 431.66 8.14 430.58 7.46 429.89 C6.77 429.2 5.68 429.2 5 429.89 L0.69 434.2 C0 434.89
										 0 435.98 0.69 436.66 L5 440.98 C5.32 441.3 5.81 441.5 6.25 441.5 C6.69 441.5 7.14 441.34
										 7.5 440.98 C8.18 440.29 8.18 439.2 7.5 438.52 L6.17 437.19 L29.27 437.19 C30.19 437.19 31
										 436.42 31 435.49 C31.08 434.49 30.36 433.72 29.39 433.64 Z" class="st13"/>
						</g>
						<g id="shape3246-201" transform="translate(36.645,-4.35386)">
							<title>Sheet.3246</title>
							<path d="M34.67 434.2 C33.98 433.52 32.9 433.52 32.21 434.2 L30.88 435.53 L30.88 412.39 C30.88 411.47
										 30.11 410.66 29.19 410.66 L29.15 410.66 C28.22 410.66 27.45 411.39 27.41 412.27 C26.53 425.82
										 15.2 437.11 1.69 437.99 C0.73 438.07 0 438.88 0.08 439.85 C0.16 440.77 0.93 441.46 1.81
										 441.46 C1.85 441.46 1.89 441.46 1.94 441.46 C12.86 440.73 22.49 434 27.45 424.65 L27.45
										 435.53 L26.12 434.2 C25.44 433.52 24.35 433.52 23.66 434.2 C22.98 434.89 22.98 435.98 23.66
										 436.66 L27.98 440.98 C28.3 441.3 28.78 441.5 29.23 441.5 C29.67 441.5 30.11 441.34 30.48
										 440.98 L34.79 436.66 C35.35 435.98 35.35 434.85 34.67 434.2 Z" class="st13"/>
						</g>
					</g>
				</g>
			</g>
			<g id="shape3287-204" transform="translate(99,-34.3125)">
				<title>Sheet.3287</title>
				<ellipse cx="8.4375" cy="433.062" rx="8.4375" ry="8.4375" class="st14"/>
			</g>
			<g id="shape3293-207" transform="translate(89.4375,-69.1875)">
				<title>Sheet.3293</title>
				<ellipse cx="8.4375" cy="433.062" rx="8.4375" ry="8.4375" class="st14"/>
			</g>
			<g id="shape3279-210" transform="translate(0,-34.3125)">
				<title>Sheet.3279</title>
				<ellipse cx="8.4375" cy="433.062" rx="8.4375" ry="8.4375" class="st14"/>
			</g>
		</g>
		<g id="group3444-213" transform="translate(141.577,-119.25)">
			<title>Sheet.3444</title>
		</g>
		<g id="shape3313-214" transform="translate(848.007,-166.385)">
			<title>Sheet.3313</title>
			<ellipse cx="8.4375" cy="433.062" rx="8.4375" ry="8.4375" class="st36"/>
		</g>
		<g id="shape3445-218" transform="translate(848.077,-166.5)">
			<title>Sheet.3445</title>
			<ellipse cx="8.4375" cy="433.062" rx="8.4375" ry="8.4375" class="st14"/>
		</g>
		<g id="shape3450-221" transform="translate(603,-313.055)">
			<title>Sheet.3450</title>
			<desc>Controller</desc>
			<rect x="0" y="417.055" width="101.25" height="24.4451" class="st38"/>
			<text x="4.94" y="435.68" class="st39">Controller</text>		</g>
		<g id="shape3479-224" transform="translate(549.085,-29.25)">
			<title>Sheet.3479</title>
			<desc>Internet</desc>
			<rect x="0" y="401" width="156.375" height="40.5" class="st40"/>
			<text x="3.5" y="432.05" class="st8">Internet</text>		</g>
		<g id="group3490-227" transform="translate(1038.62,-234)">
			<title>Sheet.3490</title>
			<g id="shape3491-228">
				<title>Empty Circle</title>
				<ellipse cx="16.1894" cy="425.311" rx="16.1894" ry="16.1894" class="st12"/>
			</g>
			<g id="group3492-230" transform="translate(5.68047,-5.30178)">
				<title>e2ee</title>
				<g id="group3493-231" transform="translate(10.9725,-7.83298)">
					<title>Sheet.3493</title>
					<g id="shape3494-232">
						<title>Sheet.3494</title>
					</g>
				</g>
				<g id="group3495-233">
					<title>Sheet.3495</title>
					<g id="shape3496-234">
						<title>Sheet.3496</title>
						<path d="M17.57 427.12 L17.57 423.73 C17.57 419.96 14.65 416.76 10.88 416.62 C6.92 416.46 3.66 419.65 3.66
									 423.57 L3.66 427.14 L0.3 427.14 C0.14 427.14 0 427.26 0 427.44 L0 441.2 C0 441.36 0.13 441.5
									 0.3 441.5 L7.97 441.5 C8.13 441.5 8.27 441.37 8.27 441.2 L8.27 439.29 C8.27 439.13 8.15 438.99
									 7.97 438.99 L3.05 438.99 L3.05 435.28 L7.61 435.28 C7.77 435.28 7.91 435.16 7.91 434.99 L7.91
									 433.09 C7.91 432.93 7.79 432.79 7.61 432.79 L3.05 432.79 L3.05 429.63 L7.97 429.63 C8.13 429.63
									 8.27 429.51 8.27 429.33 L8.27 427.44 C8.27 427.28 8.15 427.14 7.97 427.14 L6.11 427.14 L6.11
									 423.7 C6.11 421.36 7.83 419.3 10.17 419.08 C12.84 418.83 15.1 420.94 15.1 423.56 L15.1 427.12
									 L13.23 427.12 C13.08 427.12 12.93 427.25 12.93 427.42 L12.93 429.32 C12.93 429.48 13.06 429.62
									 13.23 429.62 L18.16 429.62 L18.16 432.77 L13.59 432.77 C13.44 432.77 13.3 432.9 13.3 433.07
									 L13.3 434.97 C13.3 435.13 13.42 435.27 13.59 435.27 L18.16 435.27 L18.16 438.97 L13.23 438.97
									 C13.08 438.97 12.93 439.1 12.93 439.27 L12.93 441.19 C12.93 441.34 13.06 441.48 13.23 441.48
									 L20.91 441.48 C21.07 441.48 21.21 441.36 21.21 441.19 L21.21 427.42 C21.21 427.26 21.08 427.12
									 20.91 427.12 C20.91 427.12 17.57 427.12 17.57 427.12 Z" class="st41"/>
					</g>
					<g id="shape3497-238" transform="translate(9.37132,-6.23185)">
						<title>Sheet.3497</title>
						<path d="M0.28 441.5 L2.21 441.5 C2.37 441.5 2.5 441.37 2.5 441.22 L2.5 439.29 C2.5 439.13 2.37 439 2.21
									 439 L0.28 439 C0.13 439 0 439.13 0 439.29 L0 441.22 C0 441.37 0.13 441.5 0.28 441.5 Z"
								class="st41"/>
					</g>
				</g>
			</g>
		</g>
	</g>
</svg>
