<?xml version="1.0" encoding="UTF-8" standalone="no"?>
<!-- Generated by Microsoft Visio, SVG Export dark-step5.svg Page-12 -->

<svg
   width="19.4498in"
   height="6.13194in"
   viewBox="0 0 1400.39 441.5"
   xml:space="preserve"
   color-interpolation-filters="sRGB"
   class="st46"
   version="1.1"
   id="svg145"
   sodipodi:docname="dark-step5.svg"
   inkscape:version="1.3.1 (91b66b0783, 2023-11-16)"
   xmlns:inkscape="http://www.inkscape.org/namespaces/inkscape"
   xmlns:sodipodi="http://sodipodi.sourceforge.net/DTD/sodipodi-0.dtd"
   xmlns:xlink="http://www.w3.org/1999/xlink"
   xmlns="http://www.w3.org/2000/svg"
   xmlns:svg="http://www.w3.org/2000/svg"><sodipodi:namedview
   id="namedview145"
   pagecolor="#ffffff"
   bordercolor="#000000"
   borderopacity="0.25"
   inkscape:showpageshadow="2"
   inkscape:pageopacity="0.0"
   inkscape:pagecheckerboard="0"
   inkscape:deskcolor="#d1d1d1"
   inkscape:document-units="in"
   inkscape:zoom="1.1129077"
   inkscape:cx="933.59042"
   inkscape:cy="294.72344"
   inkscape:window-width="2560"
   inkscape:window-height="1369"
   inkscape:window-x="1912"
   inkscape:window-y="-8"
   inkscape:window-maximized="1"
   inkscape:current-layer="svg145" />
	<style
   type="text/css"
   id="style1">
	<![CDATA[
		.st1 {fill:#33445b;stroke:#595959;stroke-linecap:round;stroke-linejoin:round;stroke-width:0.5}
		.st2 {visibility:visible}
		.st3 {fill:#000000;fill-opacity:0.4;filter:url(#filter_5.3333334922791);stroke:#000000;stroke-linecap:round;stroke-linejoin:round;stroke-opacity:0.4}
		.st4 {fill:#5f6d8b;stroke:#262626;stroke-linecap:round;stroke-linejoin:round;stroke-width:1.75}
		.st5 {fill:#9a6132;stroke:#513100;stroke-linecap:round;stroke-linejoin:round;stroke-width:2}
		.st6 {fill:#ffe0b3;font-family:Russo One;font-size:1.99999em}
		.st7 {fill:url(#grad0-14);stroke:#33445b;stroke-linecap:round;stroke-linejoin:round;stroke-width:1.75}
		.st8 {fill:#d8d8d8;font-family:Open Sans;font-size:3em;font-weight:bold}
		.st9 {fill:#527398;stroke:#1c3453;stroke-linecap:round;stroke-linejoin:round;stroke-width:2}
		.st10 {fill:#d8d8d8;font-family:Russo One;font-size:3em}
		.st11 {font-size:1em}
		.st12 {fill:#834150;stroke:#f2f2f2;stroke-linecap:round;stroke-linejoin:round;stroke-width:3.25}
		.st13 {fill:none;stroke:none;stroke-linecap:round;stroke-linejoin:round;stroke-width:0.5}
		.st14 {fill:#d8d8d8;font-family:Russo One;font-size:1.99999em}
		.st15 {fill:#0273fb;stroke:none;stroke-linecap:butt;stroke-width:1.50369}
		.st16 {fill:none;stroke:#158aff;stroke-linecap:butt;stroke-width:3.38029}
		.st17 {fill:#6140b5;fill-opacity:0.98;stroke:none;stroke-linecap:butt;stroke-width:1.50369}
		.st18 {fill:none;stroke:#664dc4;stroke-linecap:butt;stroke-opacity:0.98;stroke-width:3.38029}
		.st19 {fill:#ff0d49;fill-opacity:0.98;stroke:none;stroke-linecap:butt;stroke-width:1.50369}
		.st20 {fill:none;stroke:#fc2d81;stroke-linecap:butt;stroke-opacity:0.98;stroke-width:3.38029}
		.st21 {fill:#ffffff;stroke:none;stroke-linecap:butt;stroke-width:1.50369}
		.st22 {fill:#527398;stroke:#1c3453;stroke-dasharray:6,6;stroke-linecap:round;stroke-linejoin:round;stroke-width:2}
		.st23 {stroke:#33445b;stroke-linecap:round;stroke-linejoin:round;stroke-width:12}
		.st24 {fill:#f2f2f2;stroke:#33445b;stroke-linecap:round;stroke-linejoin:round;stroke-width:3}
		.st25 {fill:url(#grad0-71);stroke:none;stroke-linecap:butt;stroke-width:2.04}
		.st26 {fill:#ffffff;marker-end:url(#mrkr42-90);stroke:#33445b;stroke-linecap:round;stroke-linejoin:round;stroke-width:5}
		.st27 {fill:#33445b;fill-opacity:1;stroke:#33445b;stroke-opacity:1;stroke-width:0.66489361702128}
		.st28 {fill:#000000;fill-opacity:0.18;stroke:#332741;stroke-linecap:round;stroke-linejoin:round;stroke-opacity:0.92;stroke-width:3.25}
		.st29 {fill:#374962;stroke:#343047;stroke-linecap:round;stroke-linejoin:round;stroke-width:2}
		.st30 {fill:#273547;font-family:Russo One;font-size:3em}
		.st31 {fill:#374962;stroke:#273547;stroke-linecap:butt;stroke-width:1.50369}
		.st32 {fill:#374962;stroke:#273547;stroke-linecap:butt;stroke-width:3.38029}
		.st33 {fill:#834150;stroke:#f2f2f2;stroke-dasharray:6.75,6.75;stroke-linecap:round;stroke-linejoin:round;stroke-width:2.25}
		.st34 {stroke:#1c3453;stroke-linecap:round;stroke-linejoin:round;stroke-width:12}
		.st35 {fill:#ffffff;marker-end:url(#mrkr42-226);stroke:#fc0147;stroke-linecap:round;stroke-linejoin:round;stroke-width:5}
		.st36 {fill:#fc0147;fill-opacity:1;stroke:#fc0147;stroke-opacity:1;stroke-width:0.66489361702128}
		.st37 {fill:#33445b;stroke:#1c2531;stroke-linecap:round;stroke-linejoin:round;stroke-width:1.75}
		.st38 {fill:#5f6d8b;fill-opacity:0.86;stroke:none;stroke-linecap:round;stroke-linejoin:round;stroke-width:1.75}
		.st39 {fill:#a20031;stroke:#f2f2f2;stroke-linecap:round;stroke-linejoin:round;stroke-width:2}
		.st40 {fill:#9d393c;stroke:#f2f2f2;stroke-linecap:round;stroke-linejoin:round;stroke-width:2}
		.st41 {fill:none;stroke:none;stroke-linecap:round;stroke-linejoin:round;stroke-width:2}
		.st42 {fill:#d8d8d8;font-family:Russo One;font-size:1.5em}
		.st43 {fill:#ffffff;marker-end:url(#mrkr42-250);stroke:#6c022d;stroke-linecap:round;stroke-linejoin:round;stroke-width:5}
		.st44 {fill:#6c022d;fill-opacity:1;stroke:#6c022d;stroke-opacity:1;stroke-width:0.66489361702128}
		.st45 {fill:url(#grad0-264);stroke:none;stroke-linecap:butt;stroke-width:2.04}
		.st46 {fill:none;fill-rule:evenodd;font-size:12px;overflow:visible;stroke-linecap:square;stroke-miterlimit:3}
	]]>
	</style>

	<defs
   id="Patterns_And_Gradients">
		<linearGradient
   id="grad0-14"
   x1="0"
   y1="0"
   x2="1"
   y2="0"
   gradientTransform="rotate(240 0.5 0.5)">
			<stop
   offset="0"
   stop-color="#fc0147"
   stop-opacity="0.15"
   id="stop1" />
			<stop
   offset="1"
   stop-color="#0068f9"
   stop-opacity="0.15"
   id="stop2" />
		</linearGradient>
		<linearGradient
   id="grad0-71"
   x1="0"
   y1="0"
   x2="1"
   y2="0"
   gradientTransform="rotate(50 0.5 0.5)">
			<stop
   offset="0.34"
   stop-color="#0068f9"
   stop-opacity="1"
   id="stop3" />
			<stop
   offset="0.86"
   stop-color="#fc0147"
   stop-opacity="1"
   id="stop4" />
		</linearGradient>
		<linearGradient
   id="grad0-264"
   x1="0"
   y1="0"
   x2="1"
   y2="0"
   gradientTransform="rotate(50 0.5 0.5)">
			<stop
   offset="0.23"
   stop-color="#fc0147"
   stop-opacity="1"
   id="stop5" />
			<stop
   offset="0.86"
   stop-color="#0068f9"
   stop-opacity="1"
   id="stop6" />
		</linearGradient>
	</defs>
	<defs
   id="Markers">
		<g
   id="lend42">
			<path
   d="M 0 0.75 C -0.414214 0.75 -0.75 0.414214 -0.75 0 -0.75 -0.414214 -0.414214 -0.75 0 -0.75 0.414214 -0.75 0.75 -0.414214 0.75 0 0.75 0.414214 0.414214 0.75 0 0.75 Z "
   style="stroke:none"
   id="path6" />
		</g>
		<marker
   id="mrkr42-90"
   class="st27"
   refX="-1.128"
   orient="auto"
   markerUnits="strokeWidth"
   overflow="visible">
			<use
   xlink:href="#lend42"
   transform="scale(-1.504,-1.504) "
   id="use6" />
		</marker>
		<marker
   id="mrkr42-226"
   class="st36"
   refX="-1.128"
   orient="auto"
   markerUnits="strokeWidth"
   overflow="visible">
			<use
   xlink:href="#lend42"
   transform="scale(-1.504,-1.504) "
   id="use7" />
		</marker>
		<marker
   id="mrkr42-250"
   class="st44"
   refX="-1.128"
   orient="auto"
   markerUnits="strokeWidth"
   overflow="visible">
			<use
   xlink:href="#lend42"
   transform="scale(-1.504,-1.504) "
   id="use8" />
		</marker>
	</defs>
	<defs
   id="Filters">
		<filter
   id="filter_5.3333334922791"
   x="-0.017901127"
   y="-0.037196555"
   width="1.0358023"
   height="1.0743931">
			<feGaussianBlur
   stdDeviation="5.3333334922791"
   id="feGaussianBlur8" />
		</filter>
	</defs>
	<g
   id="g145">
		<title
   id="title8">appetizer-step5-dark</title>
		<g
   id="shape2873-1"
   transform="translate(0.25,-0.25)">
			<title
   id="title9">Rounded Rectangle.245</title>
			<path
   d="M0 441.5 L1399.89 441.5 L1399.89 0.5 L0 0.5 L0 441.5 Z"
   class="st1"
   id="path9" />
		</g>
		<g
   id="shape2874-3"
   transform="translate(265.136,-62.1273)">
			<title
   id="title10">Sheet.2874</title>
			<g
   id="shadow2874-4"
   transform="matrix(1.06,0,0,1.06,-22.2892,-15.7632)"
   class="st2">
				<path
   d="M217.83 192.26 C209.52 189.92 200.75 188.51 191.53 188.51 C141.18 188.51 99.59 227.2 91.94 277.84 L91.94         277.84 L75.53 277.84 L75.53 277.84 C33.95 277.84 0 313.25 0 356.86 L0 356.86 L0 362.49 L0 362.49 C-0         406.1 33.95 441.5 75.53 441.5 L75.53 441.5 L667.44 441.5 L667.44 441.5 C709.03 441.5 742.97 406.1 742.97         362.49 L742.97 362.49 L742.97 356.86 L742.97 356.86 C742.97 313.25 709.03 277.84 667.44 277.84 L667.44         277.84 L664.52 277.84 L664.52 277.84 C651.48 230.95 610.34 196.48 561.33 196.48 C539.98 196.48 520.19         203.28 503.56 214.54 C492.54 140.68 431.85 83.94 358.34 83.94 C292.24 83.94 236.49 129.43 217.83 192.26         Z"
   class="st3"
   id="path10" />
			</g>
			<path
   d="M217.83 192.26 C209.52 189.92 200.75 188.51 191.53 188.51 C141.18 188.51 99.59 227.2 91.94 277.84 L91.94 277.84        L75.53 277.84 L75.53 277.84 C33.95 277.84 0 313.25 0 356.86 L0 356.86 L0 362.49 L0 362.49 C-0 406.1 33.95        441.5 75.53 441.5 L75.53 441.5 L667.44 441.5 L667.44 441.5 C709.03 441.5 742.97 406.1 742.97 362.49 L742.97        362.49 L742.97 356.86 L742.97 356.86 C742.97 313.25 709.03 277.84 667.44 277.84 L667.44 277.84 L664.52 277.84        L664.52 277.84 C651.48 230.95 610.34 196.48 561.33 196.48 C539.98 196.48 520.19 203.28 503.56 214.54 C492.54        140.68 431.85 83.94 358.34 83.94 C292.24 83.94 236.49 129.43 217.83 192.26 Z"
   class="st4"
   id="path11" />
		</g>
		<g
   id="shape3507-8"
   transform="translate(986.136,-12.7598)">
			<title
   id="title11">Rounded Rectangle.3109</title>
			<desc
   id="desc11">Cloud Vendor</desc>
			<path
   d="M10.58 441.5 L391.36 441.5 A10.5772 10.5772 -180 0 0 401.94 430.92 L401.94 50.34 A10.5772 10.5772 -180 0 0 391.36        39.76 L10.58 39.76 A10.5772 10.5772 -180 0 0 0 50.34 L0 430.92 A10.5772 10.5772 -180 0 0 10.58 441.5 Z"
   class="st5"
   id="path12" />
			<path
   d="m 23.599928,432.05999 q -5.351973,0.48 -8.879956,0.48 -2.351988,0 -3.455983,-1.104 -1.103994,-1.10399 -1.103994,-3.45598 v -7.67996 q 0,-2.51999 1.127994,-3.64798 1.151995,-1.152 3.671982,-1.152 h 8.639957 v 3.35999 h -7.679962 q -1.439993,0 -1.439993,1.43999 v 7.67996 q 0,0.552 0.311999,0.88799 0.335998,0.312 0.839996,0.312 0.503997,0 1.103994,0 0.599997,-0.024 1.247994,-0.048 0.647997,-0.024 1.295993,-0.048 0.671997,-0.024 1.703992,-0.096 1.055995,-0.072 2.615987,-0.16799 z m 8.159979,0.24 q -1.607992,0.24 -3.071985,0.24 -1.439992,0 -2.423987,-0.984 Q 25.27994,430.572 25.27994,428.94 v -13.43993 h 4.199979 v 12.83994 q 0,0.36 0.239998,0.59999 0.239999,0.24 0.599997,0.24 h 1.439993 z m 14.639931,-3.59998 q 0,1.79999 -1.031995,2.83198 -1.007995,1.008 -2.807985,1.008 h -5.519973 q -1.799991,0 -2.831986,-1.008 -1.007995,-1.03199 -1.007995,-2.83198 v -5.51998 q 0,-1.79999 1.007995,-2.80798 1.031995,-1.032 2.831986,-1.032 h 5.519973 q 1.79999,0 2.807985,1.032 1.031995,1.00799 1.031995,2.80798 z m -4.199979,-5.15998 q 0,-0.95999 -0.959995,-0.95999 h -2.879985 q -0.959996,0 -0.959996,0.95999 v 4.79998 q 0,0.95999 0.959996,0.95999 h 2.879985 q 0.959995,0 0.959995,-0.95999 z M 54.439777,429.06 q 1.271994,0 2.879986,-0.47999 v -8.99996 h 4.199979 v 12.71994 H 57.79976 l -0.239998,-1.2 q -1.127995,0.744 -2.327989,1.104 -1.175994,0.336 -1.99199,0.336 h -1.079994 q -1.631992,0 -2.615987,-0.984 Q 48.559807,430.572 48.559807,428.94 v -9.35995 h 4.199979 v 8.63996 q 0,0.36 0.239998,0.6 0.239999,0.23999 0.599997,0.23999 z m 18.479894,3.23999 -0.239999,-1.2 q -1.127994,0.744 -2.327988,1.104 -1.175995,0.336 -1.99199,0.336 h -1.079995 q -1.631992,0 -2.615987,-0.984 Q 63.679717,430.572 63.679717,428.94 v -5.51997 q 0,-1.79999 1.007995,-2.80798 1.031995,-1.032 2.831986,-1.032 h 4.919975 v -4.07998 h 4.199979 v 16.79992 z M 69.559688,429.06 q 1.271993,0 2.879985,-0.47999 v -5.75997 h -3.599982 q -0.959995,0 -0.959995,0.95999 v 4.43998 q 0,0.36 0.239999,0.6 0.239999,0.23999 0.599997,0.23999 z m 23.999838,-1.79999 4.07998,-11.75994 h 4.679974 l -6.359966,16.79992 H 91.159538 L 84.79957,415.50007 h 4.679977 z m 13.919894,-4.91997 q -0.95999,0 -0.95999,0.95999 v 1.32 h 4.07998 v -1.32 q 0,-0.95999 -0.96,-0.95999 z m 6.83997,9.71995 q -4.63198,0.48 -8.39996,0.48 -1.63199,0 -2.61599,-0.984 -0.98399,-0.98399 -0.98399,-2.61599 v -5.75997 q 0,-1.79999 1.00799,-2.80798 1.032,-1.032 2.83199,-1.032 h 4.79998 q 1.79999,0 2.80798,1.032 1.032,1.00799 1.032,2.80798 v 4.43998 h -8.27996 v 0.96 q 0,0.35999 0.24,0.59999 0.24,0.24 0.59999,0.24 2.37599,0 6.95997,-0.36 z m 9.71996,-9.23995 q -1.272,0 -2.87999,0.47999 v 8.99996 h -4.19998 v -12.71994 h 3.71998 l 0.24,1.2 q 1.128,-0.744 2.30399,-1.08 1.19999,-0.36 2.01599,-0.36 h 1.07999 q 1.632,0 2.61599,0.984 0.984,0.98399 0.984,2.61598 v 9.35996 h -4.19998 v -8.63996 q 0,-0.36 -0.24,-0.6 -0.24,-0.23999 -0.6,-0.23999 z m 17.03989,9.47995 -0.24,-1.2 q -1.12799,0.744 -2.32799,1.104 -1.17599,0.336 -1.99199,0.336 h -1.07999 q -1.63199,0 -2.61599,-0.984 -0.98399,-0.98399 -0.98399,-2.61599 v -5.51997 q 0,-1.79999 1.00799,-2.80798 1.032,-1.032 2.83199,-1.032 h 4.91997 v -4.07998 h 4.19998 v 16.79992 z M 137.71926,429.06 q 1.27199,0 2.87998,-0.47999 v -5.75997 h -3.59998 q -0.96,0 -0.96,0.95999 v 4.43998 q 0,0.36 0.24,0.6 0.24,0.23999 0.6,0.23999 z m 22.43986,-0.35999 q 0,1.79999 -1.03199,2.83198 -1.008,1.008 -2.80799,1.008 h -5.51997 q -1.79999,0 -2.83199,-1.008 -1.00799,-1.03199 -1.00799,-2.83198 v -5.51998 q 0,-1.79999 1.00799,-2.80798 1.032,-1.032 2.83199,-1.032 h 5.51997 q 1.79999,0 2.80799,1.032 1.03199,1.00799 1.03199,2.80798 z m -4.19998,-5.15998 q 0,-0.95999 -0.95999,-0.95999 h -2.87999 q -0.95999,0 -0.95999,0.95999 v 4.79998 q 0,0.95999 0.95999,0.95999 h 2.87999 q 0.95999,0 0.95999,-0.95999 z m 13.67992,-0.48 q -1.512,0 -3.11999,0.72 v 8.51996 h -4.19998 v -12.71994 h 3.71998 l 0.24,1.55999 q 2.06399,-1.79999 4.31998,-1.79999 h 1.07999 v 3.71998 z"
   id="text12"
   class="st6"
   style="font-size:47.9995px;font-family:'Russo One';fill:#ffe0b3"
   aria-label="Cloud Vendor" />		</g>
		<g
   id="shape3206-11"
   transform="translate(335.452,-84.2599)">
			<title
   id="title12">Sheet.3206</title>
			<desc
   id="desc12">OpenZiti Overlay</desc>
			<path
   d="M174.89 241.4 C168.21 239.52 161.17 238.39 153.77 238.39 C113.34 238.39 79.95 269.45 73.82 310.11 L73.82 310.11        L60.64 310.11 L60.64 310.11 C27.25 310.11 0 338.53 0 373.55 L0 373.55 L0 378.06 L0 378.06 C-0 413.08 27.25        441.5 60.64 441.5 L60.64 441.5 L535.85 441.5 L535.85 441.5 C569.23 441.5 596.49 413.08 596.49 378.06 L596.49        378.06 L596.49 373.55 L596.49 373.55 C596.49 338.53 569.23 310.11 535.85 310.11 L535.85 310.11 L533.5 310.11        L533.5 310.11 C523.03 272.46 490 244.79 450.66 244.79 C433.51 244.79 417.63 250.25 404.28 259.29 C395.43        199.99 346.7 154.44 287.69 154.44 C234.62 154.44 189.86 190.96 174.89 241.4 Z"
   class="st7"
   id="path13" />
			<path
   d="m 161.41055,413.81525 q 0,2.9707 -0.73828,5.41406 -0.73828,2.42578 -2.25,4.18359 -1.49414,1.75782 -3.79687,2.70703 -2.30274,0.93164 -5.44922,0.93164 -3.14649,0 -5.44922,-0.93164 -2.30274,-0.94921 -3.81445,-2.70703 -1.49414,-1.75781 -2.23243,-4.20117 -0.73828,-2.44336 -0.73828,-5.43164 0,-3.99023 1.30078,-6.94336 1.31836,-2.9707 4.04297,-4.60547 2.72461,-1.63476 6.92578,-1.63476 4.1836,0 6.87305,1.63476 2.70703,1.63477 4.00781,4.60547 1.31836,2.9707 1.31836,6.97852 z m -18.75586,0 q 0,2.68945 0.66797,4.64062 0.68555,1.9336 2.12696,2.98828 1.4414,1.03711 3.72656,1.03711 2.32031,0 3.76172,-1.03711 1.4414,-1.05468 2.09179,-2.98828 0.66797,-1.95117 0.66797,-4.64062 0,-4.04297 -1.51172,-6.36328 -1.51172,-2.32032 -4.97461,-2.32032 -2.30273,0 -3.76171,1.05469 -1.44141,1.03711 -2.12696,2.98828 -0.66797,1.9336 -0.66797,4.64063 z m 34.59375,-7.13672 q 3.32227,0 5.36133,2.58398 2.05664,2.58399 2.05664,7.57617 0,3.33985 -0.96679,5.625 -0.9668,2.26758 -2.67188,3.42774 -1.70508,1.16015 -3.91992,1.16015 -1.42383,0 -2.44336,-0.35156 -1.01953,-0.36914 -1.74024,-0.93164 -0.7207,-0.58008 -1.24804,-1.23047 h -0.28125 q 0.14062,0.70313 0.21094,1.44141 0.0703,0.73828 0.0703,1.44141 v 7.92773 h -5.36133 v -28.30078 h 4.35937 l 0.75586,2.54883 h 0.2461 q 0.52734,-0.79102 1.2832,-1.45899 0.75586,-0.66797 1.81055,-1.05469 1.07226,-0.40429 2.47851,-0.40429 z m -1.72265,4.28906 q -1.40625,0 -2.23242,0.58008 -0.82618,0.58008 -1.2129,1.74023 -0.36914,1.16016 -0.40429,2.93555 v 0.58008 q 0,1.89844 0.35156,3.21679 0.36914,1.31836 1.21289,2.00391 0.86133,0.68555 2.35547,0.68555 1.23047,0 2.02148,-0.68555 0.79102,-0.68555 1.17774,-2.00391 0.4043,-1.33593 0.4043,-3.25195 0,-2.88281 -0.89649,-4.3418 -0.89648,-1.45898 -2.77734,-1.45898 z m 21.67383,-4.28906 q 2.7246,0 4.69335,1.05469 1.96875,1.0371 3.04102,3.02343 1.07227,1.98633 1.07227,4.85157 v 2.60156 h -12.67383 q 0.0879,2.26758 1.35351,3.56836 1.28321,1.2832 3.55078,1.2832 1.88086,0 3.44532,-0.38672 1.56445,-0.38672 3.21679,-1.16015 v 4.14843 q -1.45898,0.72071 -3.05859,1.05469 -1.58203,0.33398 -3.84961,0.33398 -2.95312,0 -5.23828,-1.08984 -2.26758,-1.08984 -3.56836,-3.32226 -1.2832,-2.23243 -1.2832,-5.625 0,-3.44532 1.16015,-5.73047 1.17774,-2.30274 3.26953,-3.44532 2.0918,-1.16015 4.86915,-1.16015 z m 0.0351,3.81445 q -1.56445,0 -2.60156,1.00195 -1.01953,1.00196 -1.17774,3.14649 h 7.52344 q -0.0176,-1.19531 -0.43945,-2.12695 -0.4043,-0.93165 -1.23047,-1.47657 -0.80859,-0.54492 -2.07422,-0.54492 z m 24.29297,-3.81445 q 3.14648,0 5.0625,1.72265 1.91602,1.70508 1.91602,5.48438 v 12.81445 h -5.36133 V 415.2215 q 0,-2.10938 -0.77344,-3.18164 -0.75586,-1.07227 -2.39062,-1.07227 -2.46094,0 -3.35743,1.66992 -0.89648,1.66992 -0.89648,4.81641 v 9.24609 h -5.36133 v -19.65234 h 4.0957 l 0.72071,2.51367 h 0.29883 q 0.63281,-1.01953 1.56445,-1.65234 0.94922,-0.63282 2.0918,-0.93164 1.16015,-0.29883 2.39062,-0.29883 z m 29.67188,20.02148 h -19.125 v -3.5332 l 12.32226,-17.66602 H 232.4086 v -4.5 h 18.45703 v 3.51563 l -12.30469,17.68359 h 12.63868 z m 9.03515,-19.65234 v 19.65234 h -5.36133 v -19.65234 z m -2.67187,-7.69922 q 1.19531,0 2.05664,0.5625 0.86133,0.54492 0.86133,2.05664 0,1.49414 -0.86133,2.07422 -0.86133,0.5625 -2.05664,0.5625 -1.21289,0 -2.07422,-0.5625 -0.84375,-0.58008 -0.84375,-2.07422 0,-1.51172 0.84375,-2.05664 0.86133,-0.5625 2.07422,-0.5625 z m 16.57617,23.43164 q 0.8789,0 1.70508,-0.17578 0.84375,-0.17578 1.66992,-0.43945 v 3.99023 q -0.86133,0.38672 -2.14453,0.63281 -1.26563,0.26367 -2.77735,0.26367 -1.75781,0 -3.16406,-0.5625 -1.38867,-0.58007 -2.19726,-1.98632 -0.79102,-1.42383 -0.79102,-3.95508 v -9.47461 h -2.56641 v -2.26758 l 2.95313,-1.79297 1.54687,-4.14844 h 3.42774 v 4.1836 h 5.50195 v 4.02539 h -5.50195 v 9.47461 q 0,1.125 0.63281,1.6875 0.65039,0.54492 1.70508,0.54492 z m 12.70898,-15.73242 v 19.65234 h -5.36133 v -19.65234 z m -2.67187,-7.69922 q 1.19531,0 2.05664,0.5625 0.86133,0.54492 0.86133,2.05664 0,1.49414 -0.86133,2.07422 -0.86133,0.5625 -2.05664,0.5625 -1.21289,0 -2.07422,-0.5625 -0.84375,-0.58008 -0.84375,-2.07422 0,-1.51172 0.84375,-2.05664 0.86133,-0.5625 2.07422,-0.5625 z m 41.39648,14.4668 q 0,2.9707 -0.73828,5.41406 -0.73828,2.42578 -2.25,4.18359 -1.49414,1.75782 -3.79687,2.70703 -2.30274,0.93164 -5.44922,0.93164 -3.14649,0 -5.44922,-0.93164 -2.30274,-0.94921 -3.81445,-2.70703 -1.49415,-1.75781 -2.23243,-4.20117 -0.73828,-2.44336 -0.73828,-5.43164 0,-3.99023 1.30078,-6.94336 1.31836,-2.9707 4.04297,-4.60547 2.72461,-1.63476 6.92578,-1.63476 4.1836,0 6.87305,1.63476 2.70703,1.63477 4.00781,4.60547 1.31836,2.9707 1.31836,6.97852 z m -18.75586,0 q 0,2.68945 0.66797,4.64062 0.68555,1.9336 2.12695,2.98828 1.44141,1.03711 3.72657,1.03711 2.32031,0 3.76172,-1.03711 1.4414,-1.05468 2.09179,-2.98828 0.66797,-1.95117 0.66797,-4.64062 0,-4.04297 -1.51172,-6.36328 -1.51172,-2.32032 -4.97461,-2.32032 -2.30273,0 -3.76172,1.05469 -1.4414,1.03711 -2.12695,2.98828 -0.66797,1.9336 -0.66797,4.64063 z m 28.33594,12.88476 -7.48828,-19.65234 h 5.60742 l 3.79688,11.19726 q 0.3164,0.98438 0.49218,2.07422 0.19336,1.08985 0.26368,1.95117 h 0.14062 q 0.0527,-0.93164 0.24609,-1.98632 0.21094,-1.05469 0.54493,-2.03907 l 3.77929,-11.19726 h 5.60742 l -7.48828,19.65234 z m 23.90625,-20.02148 q 2.72461,0 4.69336,1.05469 1.96875,1.0371 3.04102,3.02343 1.07226,1.98633 1.07226,4.85157 v 2.60156 H 355.1918 q 0.0879,2.26758 1.35352,3.56836 1.2832,1.2832 3.55078,1.2832 1.88086,0 3.44531,-0.38672 1.56446,-0.38672 3.2168,-1.16015 v 4.14843 q -1.45899,0.72071 -3.05859,1.05469 -1.58204,0.33398 -3.84961,0.33398 -2.95313,0 -5.23829,-1.08984 -2.26757,-1.08984 -3.56835,-3.32226 -1.28321,-2.23243 -1.28321,-5.625 0,-3.44532 1.16016,-5.73047 1.17773,-2.30274 3.26953,-3.44532 2.0918,-1.16015 4.86914,-1.16015 z m 0.0352,3.81445 q -1.56446,0 -2.60157,1.00195 -1.01953,1.00196 -1.17773,3.14649 h 7.52344 q -0.0176,-1.19531 -0.43946,-2.12695 -0.40429,-0.93165 -1.23046,-1.47657 -0.8086,-0.54492 -2.07422,-0.54492 z m 24.09961,-3.81445 q 0.40429,0 0.93164,0.0527 0.54492,0.0352 0.8789,0.10547 l -0.40429,5.02734 q -0.26368,-0.0879 -0.75586,-0.12304 -0.47461,-0.0527 -0.82618,-0.0527 -1.0371,0 -2.02148,0.26368 -0.9668,0.26367 -1.74023,0.86132 -0.77344,0.58008 -1.23047,1.54688 -0.43946,0.94922 -0.43946,2.33789 v 10.00195 h -5.36132 v -19.65234 h 4.06054 l 0.79102,3.30469 h 0.26367 q 0.58008,-1.00196 1.44141,-1.82813 0.8789,-0.84375 1.98632,-1.33594 1.125,-0.50976 2.42579,-0.50976 z m 10.74023,20.02148 h -5.36133 v -27.35156 h 5.36133 z m 13.67578,-20.05664 q 3.95508,0 6.06445,1.72266 2.10938,1.72265 2.10938,5.23828 v 13.0957 h -3.74414 l -1.03711,-2.67187 h -0.14063 q -0.84375,1.05468 -1.72265,1.72265 -0.87891,0.66797 -2.02149,0.98438 -1.14257,0.3164 -2.77734,0.3164 -1.74023,0 -3.12891,-0.66796 -1.37109,-0.66797 -2.16211,-2.03907 -0.79101,-1.38867 -0.79101,-3.51562 0,-3.12891 2.19726,-4.60547 2.19727,-1.49414 6.5918,-1.65234 l 3.41016,-0.10547 v -0.86133 q 0,-1.54688 -0.8086,-2.26758 -0.80859,-0.7207 -2.25,-0.7207 -1.42382,0 -2.79492,0.40429 -1.37109,0.4043 -2.74219,1.01954 l -1.77539,-3.6211 q 1.56446,-0.82617 3.49805,-1.30078 1.95117,-0.47461 4.02539,-0.47461 z m 2.84766,10.95117 -2.07422,0.0703 q -2.60156,0.0703 -3.62109,0.93164 -1.00196,0.86132 -1.00196,2.26757 0,1.23047 0.72071,1.75782 0.7207,0.50976 1.88085,0.50976 1.72266,0 2.9004,-1.01953 1.19531,-1.01953 1.19531,-2.90039 z m 8.0332,-10.54687 h 5.87109 l 3.70899,11.05664 q 0.17578,0.52734 0.29883,1.07226 0.12304,0.54493 0.21093,1.125 0.0879,0.58008 0.14063,1.2129 h 0.10547 q 0.10547,-0.94922 0.28125,-1.7754 0.19336,-0.82617 0.47461,-1.63476 l 3.63867,-11.05664 h 5.74805 l -8.31446,22.16601 q -0.75586,2.03907 -1.96875,3.39258 -1.21289,1.3711 -2.79492,2.05664 -1.56445,0.68555 -3.44531,0.68555 -0.91406,0 -1.58203,-0.10547 -0.66797,-0.0879 -1.14258,-0.19336 v -4.2539 q 0.36914,0.0879 0.93164,0.1582 0.5625,0.0703 1.17773,0.0703 1.125,0 1.9336,-0.47461 0.80859,-0.47461 1.35351,-1.2832 0.54493,-0.79102 0.86133,-1.74024 l 0.31641,-0.96679 z"
   id="text13"
   class="st8"
   style="font-weight:bold;font-size:108px;font-family:'Open Sans';fill:#d8d8d8"
   aria-label="OpenZiti Overlay" />		</g>
		<g
   id="shape2875-16"
   transform="translate(10.2497,-63.5)">
			<title
   id="title13">Rounded Rectangle</title>
			<desc
   id="desc13">Your Computer</desc>
			<path
   d="M16.29 441.5 L252.48 441.5 A16.289 16.289 -180 0 0 268.77 425.21 L268.77 160.79 A16.289 16.289 -180 0 0 252.48        144.5 L16.29 144.5 A16.289 16.289 -180 0 0 0 160.79 L0 425.21 A16.289 16.289 -180 0 0 16.29 441.5 Z"
   class="st9"
   id="path14" />
			<g
   id="text14"
   class="st10"
   style="font-size:36px;font-family:'Russo One';fill:#d8d8d8"
   aria-label="Your Computer"><path
     d="m 90.470002,155.69999 h 6.84 l 5.939998,12.24 5.94,-12.24 h 6.84 l -9.54,18.54 v 6.66 h -6.48 v -6.66 z m 44.280028,19.8 q 0,2.7 -1.548,4.248 -1.512,1.512 -4.212,1.512 h -8.28 q -2.7,0 -4.248,-1.512 -1.512,-1.548 -1.512,-4.248 v -8.28 q 0,-2.7 1.512,-4.212 1.548,-1.548 4.248,-1.548 h 8.28 q 2.7,0 4.212,1.548 1.548,1.512 1.548,4.212 z m -6.3,-7.74 q 0,-1.44 -1.44,-1.44 h -4.32 q -1.44,0 -1.44,1.44 v 7.2 q 0,1.44 1.44,1.44 h 4.32 q 1.44,0 1.44,-1.44 z m 18.35997,8.28 q 1.908,0 4.32,-0.72 v -13.5 h 6.3 v 19.08 h -5.58 l -0.36,-1.8 q -1.692,1.116 -3.492,1.656 -1.764,0.504 -2.988,0.504 h -1.62 q -2.448,0 -3.924,-1.476 -1.476,-1.476 -1.476,-3.924 v -14.04 h 6.3 v 12.96 q 0,0.54 0.36,0.9 0.36,0.36 0.9,0.36 z m 25.19998,-9 q -2.268,0 -4.68,1.08 v 12.78 h -6.3 v -19.08 h 5.58 l 0.36,2.34 q 3.096,-2.7 6.48,-2.7 h 1.62 v 5.58 z"
     id="path146" /><path
     d="m 66.980001,223.73999 q -8.028,0.72 -13.32,0.72 -3.528,0 -5.184,-1.656 -1.656,-1.656 -1.656,-5.184 v -11.52 q 0,-3.78 1.692,-5.472 1.728,-1.728 5.508,-1.728 h 12.96 v 5.04 h -11.52 q -2.16,0 -2.16,2.16 v 11.52 q 0,0.828 0.468,1.332 0.504,0.468 1.26,0.468 0.756,0 1.656,0 0.9,-0.036 1.872,-0.072 0.972,-0.036 1.944,-0.072 1.008,-0.036 2.556,-0.144 1.584,-0.108 3.924,-0.252 z m 21.96003,-5.04 q 0,2.7 -1.548,4.248 -1.512,1.512 -4.212,1.512 h -8.28 q -2.7,0 -4.248,-1.512 -1.512,-1.548 -1.512,-4.248 v -8.28 q 0,-2.7 1.512,-4.212 1.548,-1.548 4.248,-1.548 h 8.28 q 2.7,0 4.212,1.548 1.548,1.512 1.548,4.212 z m -6.3,-7.74 q 0,-1.44 -1.44,-1.44 h -4.32 q -1.44,0 -1.44,1.44 v 7.2 q 0,1.44 1.44,1.44 h 4.32 q 1.44,0 1.44,-1.44 z m 22.319969,-6.3 q 2.916,0 4.5,2.16 1.656,-1.116 3.564,-1.62 1.944,-0.54 3.456,-0.54 h 0.36 q 2.448,0 3.924,1.476 1.476,1.476 1.476,3.924 v 14.04 h -6.3 v -12.96 q 0,-0.54 -0.36,-0.9 -0.36,-0.36 -0.9,-0.36 h -0.18 q -1.62,0 -4.14,0.72 v 13.5 h -6.3 v -12.96 q 0,-0.54 -0.36,-0.9 -0.36,-0.36 -0.9,-0.36 h -0.18 q -1.62,0 -4.139999,0.72 v 13.5 h -6.3 v -19.08 h 5.58 l 0.36,1.8 q 1.692,-1.116 3.455999,-1.62 1.8,-0.54 3.024,-0.54 z m 31.13997,5.22 q -1.908,0 -4.32,0.72 v 8.64 h 5.4 q 1.44,0 1.44,-1.44 v -6.66 q 0,-0.54 -0.36,-0.9 -0.36,-0.36 -0.9,-0.36 z m -4.32,14.22 v 6.12 h -6.3 v -25.2 h 5.58 l 0.36,1.8 q 1.692,-1.116 3.456,-1.62 1.8,-0.54 3.024,-0.54 h 1.62 q 2.448,0 3.924,1.476 1.476,1.476 1.476,3.924 v 8.28 q 0,2.7 -1.548,4.248 -1.512,1.512 -4.212,1.512 z m 25.19997,-4.86 q 1.908,0 4.32,-0.72 v -13.5 h 6.3 v 19.08 h -5.58 l -0.36,-1.8 q -1.692,1.116 -3.492,1.656 -1.764,0.504 -2.988,0.504 h -1.62 q -2.448,0 -3.924,-1.476 -1.476,-1.476 -1.476,-3.924 v -14.04 h 6.3 v 12.96 q 0,0.54 0.36,0.9 0.36,0.36 0.9,0.36 z m 27.53998,4.86 q -3.492,0.36 -6.84,0.36 -2.448,0 -3.924,-1.476 -1.476,-1.476 -1.476,-3.924 v -9.18 h -2.16 v -4.86 h 2.16 l 0.72,-4.32 h 5.58 v 4.32 h 4.5 v 4.86 h -4.5 v 8.28 q 0,0.54 0.36,0.9 0.36,0.36 0.9,0.36 h 4.68 z m 9.54002,-14.94 q -1.44,0 -1.44,1.44 v 1.98 h 6.12 v -1.98 q 0,-1.44 -1.44,-1.44 z m 10.26,14.58 q -6.948,0.72 -12.6,0.72 -2.448,0 -3.924,-1.476 -1.476,-1.476 -1.476,-3.924 v -8.64 q 0,-2.7 1.512,-4.212 1.548,-1.548 4.248,-1.548 h 7.2 q 2.7,0 4.212,1.548 1.548,1.512 1.548,4.212 v 6.66 h -12.42 v 1.44 q 0,0.54 0.36,0.9 0.36,0.36 0.9,0.36 3.564,0 10.44,-0.54 z m 14.94001,-13.5 q -2.268,0 -4.68,1.08 v 12.78 h -6.3 v -19.08 h 5.58 l 0.36,2.34 q 3.096,-2.7 6.48,-2.7 h 1.62 v 5.58 z"
     id="path147" /></g>		</g>
		<g
   id="group2966-20"
   transform="translate(28.2497,-90.5)">
			<title
   id="title14">Sheet.2966</title>
			<g
   id="group2967-21"
   transform="translate(11.5024,0)">
				<title
   id="title15">Sheet.2967</title>
				<g
   id="shape2968-22"
   transform="translate(1.8705E-12,-105.73)">
					<title
   id="title16">Sheet.2968</title>
					<path
   d="M0 441.5 L187.78 441.5 L187.78 413.58 A7.82399 13.9621 -180 0 0 179.95 399.61 L7.82 399.61 A7.82399          13.9621 -180 0 0 0 413.58 L0 441.5 Z"
   class="st12"
   id="path16" />
				</g>
				<g
   id="shape2969-24">
					<title
   id="title17">Sheet.2969</title>
					<path
   d="M0 329.2 L0 434.89 A7.824 6.60565 -180 0 0 7.82 441.5 L179.95 441.5 A7.824 6.60565 -180 0 0 187.78 434.89          L187.78 329.2 L0 329.2 Z"
   class="st12"
   id="path17" />
				</g>
			</g>
			<g
   id="shape2971-26"
   transform="translate(12.2503,-112.298)">
				<title
   id="title18">Virtual server.16</title>
				<desc
   id="desc18">Reflect Client</desc>
				<path
   id="rect18"
   class="st13"
   style="stroke-width:0.5;stroke-linecap:round;stroke-linejoin:round"
   d="m 0,408.66199 h 184.5 v 32.8378 H 0 Z" />
				<path
   d="m 10.289993,415.48008 h 10.07995 q 2.519987,0 3.647981,1.152 1.151995,1.12799 1.151995,3.64798 v 2.15999 q 0,1.99199 -0.671997,3.09598 -0.647997,1.104 -2.08799,1.464 l 2.999985,5.27997 h -4.679976 l -2.759986,-5.03998 H 14.609972 V 432.28 h -4.319979 z m 10.559947,4.79998 q 0,-1.43999 -1.439992,-1.43999 h -4.799976 v 5.03997 h 4.799976 q 1.439992,0 1.439992,-1.43999 z m 11.399927,2.03999 q -0.959995,0 -0.959995,0.95999 v 1.32 h 4.07998 v -1.32 q 0,-0.95999 -0.959995,-0.95999 z m 6.839966,9.71995 q -4.631977,0.48 -8.399958,0.48 -1.631992,0 -2.615987,-0.984 -0.983995,-0.98399 -0.983995,-2.61598 v -5.75998 q 0,-1.79999 1.007995,-2.80798 1.031995,-1.032 2.831986,-1.032 h 4.799976 q 1.799991,0 2.807986,1.032 1.031995,1.00799 1.031995,2.80798 v 4.43998 h -8.279959 v 0.96 q 0,0.36 0.239999,0.59999 0.239999,0.24 0.599997,0.24 2.375988,0 6.959965,-0.35999 z m 12.959944,-13.31993 q -0.695996,-0.048 -1.847991,-0.144 -1.151994,-0.096 -1.99199,-0.096 -0.839995,0 -1.079994,0.24 -0.239999,0.24 -0.239999,0.59999 v 1.2 h 3.95998 v 3.23998 h -3.95998 V 432.28 h -4.199979 v -8.51996 h -1.679992 v -3.23998 h 1.679992 v -1.67999 q 0,-1.632 0.983995,-2.61599 0.983995,-0.984 2.615987,-0.984 1.463993,0 3.095984,0.096 1.631992,0.096 2.663987,0.144 z M 59.48977,432.28 q -1.607992,0.24 -3.071984,0.24 -1.439993,0 -2.423988,-0.984 -0.983995,-0.98399 -0.983995,-2.61598 v -13.43994 h 4.199979 v 12.83994 q 0,0.36 0.239998,0.6 0.239999,0.23999 0.599997,0.23999 h 1.439993 z m 6.59997,-9.95995 q -0.959995,0 -0.959995,0.95999 v 1.32 h 4.079979 v -1.32 q 0,-0.95999 -0.959995,-0.95999 z m 6.839966,9.71995 q -4.631977,0.48 -8.399958,0.48 -1.631992,0 -2.615987,-0.984 -0.983995,-0.98399 -0.983995,-2.61598 v -5.75998 q 0,-1.79999 1.007995,-2.80798 1.031994,-1.032 2.831985,-1.032 h 4.799976 q 1.799991,0 2.807986,1.032 1.031995,1.00799 1.031995,2.80798 v 4.43998 h -8.279958 v 0.96 q 0,0.36 0.239998,0.59999 0.239999,0.24 0.599997,0.24 2.375988,0 6.959966,-0.35999 z m 13.919939,0 q -4.487978,0.48 -7.919961,0.48 -1.631992,0 -2.615987,-0.984 -0.983995,-0.98399 -0.983995,-2.61598 v -5.51998 q 0,-1.79999 1.007995,-2.80798 1.031995,-1.032 2.831986,-1.032 h 7.679962 v 3.23999 h -6.359969 q -0.959995,0 -0.959995,0.95999 v 4.67998 q 0,0.36 0.239999,0.6 0.239999,0.23999 0.599997,0.23999 2.159989,0 6.479968,-0.35999 z m 10.799925,0.24 q -2.327989,0.24 -4.559978,0.24 -1.631991,0 -2.615986,-0.984 -0.983995,-0.98399 -0.983995,-2.61598 v -6.11997 h -1.439993 v -3.23999 h 1.439993 l 0.479997,-2.87998 h 3.719981 v 2.87998 h 2.999985 v 3.23999 h -2.999985 v 5.51997 q 0,0.36 0.239999,0.6 0.239999,0.23999 0.599997,0.23999 h 3.119985 z m 22.07989,-0.24 q -5.35197,0.48 -8.87996,0.48 -2.35199,0 -3.45598,-1.104 -1.10399,-1.10399 -1.10399,-3.45598 v -7.67996 q 0,-2.51999 1.12799,-3.64798 1.15199,-1.152 3.67198,-1.152 h 8.63996 v 3.35999 h -7.67996 q -1.44,0 -1.44,1.43999 v 7.67996 q 0,0.552 0.312,0.888 0.336,0.31199 0.84,0.31199 0.504,0 1.10399,0 0.6,-0.024 1.248,-0.048 0.64799,-0.024 1.29599,-0.048 0.672,-0.024 1.70399,-0.096 1.056,-0.072 2.61599,-0.168 z m 8.15998,0.24 q -1.608,0.24 -3.07199,0.24 -1.43999,0 -2.42399,-0.984 -0.98399,-0.98399 -0.98399,-2.61598 v -13.43994 h 4.19998 v 12.83994 q 0,0.36 0.24,0.6 0.24,0.23999 0.59999,0.23999 h 1.44 z m 6.95997,-12.23994 V 432.28 h -4.19998 v -8.99996 h -1.79999 v -3.23998 z m -4.19998,-4.79998 h 4.19998 v 3.35999 h -4.19998 z m 11.51993,7.07997 q -0.95999,0 -0.95999,0.95999 v 1.32 h 4.07998 v -1.32 q 0,-0.95999 -0.96,-0.95999 z m 6.83997,9.71995 q -4.63198,0.48 -8.39996,0.48 -1.63199,0 -2.61599,-0.984 -0.98399,-0.98399 -0.98399,-2.61598 v -5.75998 q 0,-1.79999 1.00799,-2.80798 1.032,-1.032 2.83199,-1.032 h 4.79998 q 1.79999,0 2.80798,1.032 1.032,1.00799 1.032,2.80798 v 4.43998 h -8.27996 v 0.96 q 0,0.36 0.24,0.59999 0.24,0.24 0.59999,0.24 2.37599,0 6.95997,-0.35999 z m 9.71996,-9.23995 q -1.27199,0 -2.87998,0.47999 V 432.28 h -4.19998 v -12.71994 h 3.71998 l 0.24,1.2 q 1.12799,-0.744 2.30399,-1.08 1.19999,-0.36 2.01599,-0.36 h 1.07999 q 1.63199,0 2.61599,0.984 0.98399,0.98399 0.98399,2.61599 V 432.28 h -4.19997 v -8.63996 q 0,-0.36 -0.24,-0.59999 -0.24,-0.24 -0.6,-0.24 z m 16.9199,9.47995 q -2.32799,0.24 -4.55998,0.24 -1.63199,0 -2.61599,-0.984 -0.98399,-0.98399 -0.98399,-2.61598 v -6.11997 h -1.43999 v -3.23999 h 1.43999 l 0.48,-2.87998 h 3.71998 v 2.87998 h 2.99998 v 3.23999 h -2.99998 v 5.51997 q 0,0.36 0.24,0.6 0.24,0.23999 0.59999,0.23999 h 3.11999 z"
   id="text18"
   class="st14"
   style="font-size:47.9995px;font-family:'Russo One';fill:#d8d8d8"
   aria-label="Reflect Client" />			</g>
		</g>
		<g
   id="group3194-29"
   transform="translate(129.213,-96.2838)">
			<title
   id="title19">SDKs</title>
			<g
   id="group3195-30">
				<title
   id="title20">CloudKit-Icon</title>
				<g
   id="group3196-31">
					<title
   id="title21">Bottom</title>
					<g
   id="shape3197-32">
						<title
   id="title22">Sheet.3197</title>
						<path
   d="M73.32 418.77 C79.04 414.31 79.04 407.11 73.32 402.65 L49.86 384.4 C44.14 379.94 34.88 379.94 29.16           384.4 L5.72 402.65 C0 407.11 0 414.31 5.72 418.77 L29.16 437.04 C34.88 441.5 44.14 441.5 49.86           437.04 L73.32 418.77 Z"
   class="st15"
   id="path22" />
					</g>
					<g
   id="shape3198-34">
						<title
   id="title23">Sheet.3198</title>
						<path
   d="M73.32 418.77 C79.04 414.31 79.04 407.11 73.32 402.65 L49.86 384.4 C44.14 379.94 34.88 379.94 29.16           384.4 L5.72 402.65 C0 407.11 0 414.31 5.72 418.77 L29.16 437.04 C34.88 441.5 44.14 441.5 49.86           437.04 L73.32 418.77 Z"
   class="st16"
   id="path23" />
					</g>
				</g>
				<g
   id="group3199-36"
   transform="translate(0,-12.6993)">
					<title
   id="title24">Middle</title>
					<g
   id="shape3200-37">
						<title
   id="title25">Sheet.3200</title>
						<path
   d="M73.32 418.77 C79.04 414.31 79.04 407.11 73.32 402.65 L49.88 384.38 C44.16 379.92 34.9 379.92 29.18           384.38 L5.72 402.65 C0 407.11 0 414.31 5.72 418.77 L29.16 437.04 C34.88 441.5 44.14 441.5 49.86           437.04 L73.32 418.77 Z"
   class="st17"
   id="path25" />
					</g>
					<g
   id="shape3201-39">
						<title
   id="title26">Sheet.3201</title>
						<path
   d="M73.32 418.77 C79.04 414.31 79.04 407.11 73.32 402.65 L49.88 384.38 C44.16 379.92 34.9 379.92 29.18           384.38 L5.72 402.65 C0 407.11 0 414.31 5.72 418.77 L29.16 437.04 C34.88 441.5 44.14 441.5 49.86           437.04 L73.32 418.77 Z"
   class="st18"
   id="path26" />
					</g>
				</g>
				<g
   id="group3202-41"
   transform="translate(0,-25.3986)">
					<title
   id="title27">Top</title>
					<g
   id="shape3203-42">
						<title
   id="title28">Sheet.3203</title>
						<path
   d="M73.32 418.77 C79.04 414.31 79.04 407.11 73.32 402.65 L49.88 384.38 C44.16 379.92 34.9 379.92 29.18           384.38 L5.72 402.65 C0 407.11 0 414.31 5.72 418.77 L29.16 437.04 C34.88 441.5 44.14 441.5 49.86           437.04 L73.32 418.77 Z"
   class="st19"
   id="path28" />
					</g>
					<g
   id="shape3204-44">
						<title
   id="title29">Sheet.3204</title>
						<path
   d="M73.32 418.77 C79.04 414.31 79.04 407.11 73.32 402.65 L49.88 384.38 C44.16 379.92 34.9 379.92 29.18           384.38 L5.72 402.65 C0 407.11 0 414.31 5.72 418.77 L29.16 437.04 C34.88 441.5 44.14 441.5 49.86           437.04 L73.32 418.77 Z"
   class="st20"
   id="path29" />
					</g>
				</g>
			</g>
			<g
   id="shape3205-46"
   transform="translate(25.6871,-34.749)">
				<title
   id="title30">Sheet.3205</title>
				<path
   d="M14.24 396.46 L0 418.13 L8.09 423.42 L9.43 421.37 L13.64 441.5 L27.66 419.73 L19.79 414.6 L18.46 416.67         L14.24 396.46 ZM20.62 418.21 L24.06 420.54 L14.84 434.67 L10.61 414.48 L7.21 419.73 L3.8 417.51 L13.06         403.35 L17.25 423.34 L20.62 418.21 Z"
   class="st21"
   id="path30" />
			</g>
		</g>
		<g
   id="shape3108-48"
   transform="translate(1004.14,-72.0049)">
			<title
   id="title31">Rounded Rectangle.3108</title>
			<desc
   id="desc31">Container</desc>
			<path
   d="M7.49 441.5 L358.45 441.5 A7.49405 7.49405 -180 0 0 365.94 434.01 L365.94 124.5 A7.49405 7.49405 -180 0 0 358.45        117 L7.49 117 A7.49405 7.49405 -180 0 0 -0 124.5 L0 434.01 A7.49405 7.49405 -180 0 0 7.49 441.5 Z"
   class="st22"
   id="path31" />
			<path
   d="m 115.92,153.05 q -8.028,0.72 -13.32,0.72 -3.528,0 -5.184,-1.656 -1.656,-1.656 -1.656,-5.184 v -11.52 q 0,-3.78 1.692,-5.472 1.728,-1.728 5.508,-1.728 h 12.96 v 5.04 H 104.4 q -2.16,0 -2.16,2.16 v 11.52 q 0,0.828 0.468,1.332 0.504,0.468 1.26,0.468 0.756,0 1.656,0 0.9,-0.036 1.872,-0.072 0.972,-0.036 1.944,-0.072 1.008,-0.036 2.556,-0.144 1.584,-0.108 3.924,-0.252 z m 21.96003,-5.04 q 0,2.7 -1.548,4.248 -1.512,1.512 -4.212,1.512 h -8.28 q -2.7,0 -4.248,-1.512 -1.512,-1.548 -1.512,-4.248 v -8.28 q 0,-2.7 1.512,-4.212 1.548,-1.548 4.248,-1.548 h 8.28 q 2.7,0 4.212,1.548 1.548,1.512 1.548,4.212 z m -6.3,-7.74 q 0,-1.44 -1.44,-1.44 h -4.32 q -1.44,0 -1.44,1.44 v 7.2 q 0,1.44 1.44,1.44 h 4.32 q 1.44,0 1.44,-1.44 z M 151.74,139.19 q -1.908,0 -4.32,0.72 v 13.5 h -6.3 v -19.08 h 5.58 l 0.36,1.8 q 1.692,-1.116 3.456,-1.62 1.8,-0.54 3.024,-0.54 h 1.62 q 2.448,0 3.924,1.476 1.476,1.476 1.476,3.924 v 14.04 h -6.3 v -12.96 q 0,-0.54 -0.36,-0.9 -0.36,-0.36 -0.9,-0.36 z m 25.37997,14.22 q -3.492,0.36 -6.84,0.36 -2.448,0 -3.924,-1.476 -1.476,-1.476 -1.476,-3.924 v -9.18 h -2.16 v -4.86 h 2.16 l 0.72,-4.32 h 5.58 v 4.32 h 4.5 v 4.86 h -4.5 v 8.28 q 0,0.54 0.36,0.9 0.36,0.36 0.9,0.36 h 4.68 z m 9.36,-4.68 q 1.908,0 4.32,-0.72 v -2.16 h -5.22 q -0.54,0 -0.9,0.36 -0.36,0.36 -0.36,0.9 v 0.36 q 0,0.54 0.36,0.9 0.36,0.36 0.9,0.36 z m -6.66,-14.04 q 6.588,-0.72 11.88,-0.72 2.448,0 3.924,1.476 1.476,1.476 1.476,3.924 v 14.04 h -5.58 l -0.36,-1.8 q -1.692,1.116 -3.492,1.656 -1.764,0.504 -2.988,0.504 h -1.26 q -2.448,0 -3.924,-1.476 -1.476,-1.476 -1.476,-3.924 v -1.62 q 0,-2.448 1.476,-3.924 1.476,-1.476 3.924,-1.476 h 7.38 v -1.44 q 0,-0.54 -0.36,-0.9 -0.36,-0.36 -0.9,-0.36 -2.34,0 -5.184,0.216 -2.808,0.216 -4.536,0.324 z m 28.43998,0.36 v 18.36 h -6.3 v -13.5 h -2.7 v -4.86 z m -6.3,-7.2 h 6.3 v 5.04 h -6.3 z m 20.51999,11.34 q -1.908,0 -4.32,0.72 v 13.5 h -6.3 v -19.08 h 5.58 l 0.36,1.8 q 1.692,-1.116 3.456,-1.62 1.8,-0.54 3.024,-0.54 h 1.62 q 2.448,0 3.924,1.476 1.476,1.476 1.476,3.924 v 14.04 h -6.3 v -12.96 q 0,-0.54 -0.36,-0.9 -0.36,-0.36 -0.9,-0.36 z m 19.43997,-0.72 q -1.44,0 -1.44,1.44 v 1.98 h 6.12 v -1.98 q 0,-1.44 -1.44,-1.44 z m 10.26,14.58 q -6.948,0.72 -12.6,0.72 -2.448,0 -3.924,-1.476 -1.476,-1.476 -1.476,-3.924 v -8.64 q 0,-2.7 1.512,-4.212 1.548,-1.548 4.248,-1.548 h 7.2 q 2.7,0 4.212,1.548 1.548,1.512 1.548,4.212 v 6.66 h -12.42 v 1.44 q 0,0.54 0.36,0.9 0.36,0.36 0.9,0.36 3.564,0 10.44,-0.54 z m 14.94002,-13.5 q -2.268,0 -4.68,1.08 v 12.78 h -6.3 v -19.08 h 5.58 l 0.36,2.34 q 3.096,-2.7 6.48,-2.7 h 1.62 v 5.58 z"
   id="text31"
   class="st10"
   style="font-size:108px;font-family:'Russo One';fill:#d8d8d8"
   aria-label="Container" />		</g>
		<g
   id="shape3286-51"
   transform="translate(752.101,-165.822)">
			<title
   id="title32">Dynamic connector.3286</title>
			<path
   d="M0 432.5 L-253.41 432.5"
   class="st23"
   id="path32" />
		</g>
		<g
   id="shape3292-54"
   transform="translate(568.864,-238.571)">
			<title
   id="title33">Dynamic connector.3292</title>
			<path
   d="M0 441.5 L-80.15 467.75"
   class="st23"
   id="path33" />
		</g>
		<g
   id="shape3295-57"
   transform="translate(763.746,-212.812)">
			<title
   id="title34">Dynamic connector.3295</title>
			<path
   d="M0 441.5 L-83.2 415.1"
   class="st23"
   id="path34" />
		</g>
		<g
   id="group3300-60"
   transform="translate(752.101,-132.072)">
			<title
   id="title35">Sheet.3300</title>
			<g
   id="group3261-61"
   transform="translate(9,0)">
				<title
   id="title36">Sheet.3261</title>
				<g
   id="shape3262-62">
					<title
   id="title37">Sheet.3262</title>
					<path
   id="ellipse37"
   class="st24"
   style="fill:#f2f2f2;stroke:#33445b;stroke-width:3;stroke-linecap:round;stroke-linejoin:round"
   d="M 96.1875,393.40601 A 48.0937,48.0937 0 0 1 48.0938,441.49971 48.0937,48.0937 0 0 1 9.9182129e-5,393.40601 48.0937,48.0937 0 0 1 48.0938,345.31231 a 48.0937,48.0937 0 0 1 48.0937,48.0937 z" />
				</g>
				<g
   id="group3263-64"
   transform="translate(12.0937,-12.9375)">
					<title
   id="title38">Router Colored</title>
					<g
   id="group3264-65"
   transform="translate(38.5398,-28.4211)">
						<title
   id="title39">Sheet.3264</title>
						<g
   id="shape3265-66">
							<title
   id="title40">Sheet.3265</title>
						</g>
					</g>
					<g
   id="group3266-67">
						<title
   id="title41">Sheet.3266</title>
						<g
   id="shape3267-68"
   transform="translate(26.4054,-24.3494)">
							<title
   id="title42">Sheet.3267</title>
							<path
   d="M20.64 432.39 C21.12 430.94 21.12 429.53 21.12 427.11 L21.12 424.25 C21.12 421.83 21.12 420.42            19.67 418.96 C18.22 418 16.81 417.51 14.39 417.51 L0 417.51 L0 441.5 L6.73 441.5 L6.73 434.28            L11.53 434.28 L15.36 441.5 L21.61 441.5 L17.29 434.28 C18.71 433.8 19.67 433.8 20.64 432.39            ZM15.36 426.14 C15.36 427.59 14.88 429 13.42 429 L6.69 429 L6.69 421.79 L12.94 421.79 C14.39            421.79 15.36 422.75 15.36 424.21 L15.36 426.14 Z"
   class="st25"
   id="path42" />
						</g>
						<g
   id="shape3268-72"
   transform="translate(11.2072,-11.0862)">
							<title
   id="title43">Sheet.3268</title>
							<path
   d="M49.59 416.71 C49.59 403.04 38.46 391.91 24.79 391.91 C11.13 391.91 0 403.04 0 416.71 C0 430.37            11.13 441.5 24.79 441.5 C38.46 441.5 49.59 430.37 49.59 416.71 ZM24.79 437.99 C13.06 437.99            3.51 428.44 3.51 416.71 C3.51 404.98 13.06 395.42 24.79 395.42 C36.52 395.42 46.08 404.98            46.08 416.71 C46.08 428.44 36.52 437.99 24.79 437.99 Z"
   class="st25"
   id="path43" />
						</g>
						<g
   id="shape3269-75"
   transform="translate(36.6047,-36.5644)">
							<title
   id="title44">Sheet.3269</title>
							<path
   d="M1.69 414.17 C15.24 415.05 26.53 426.38 27.41 439.89 C27.49 440.81 28.26 441.5 29.15 441.5 C29.19            441.5 29.23 441.5 29.27 441.5 C30.24 441.42 30.96 440.61 30.88 439.65 C30.15 428.72 23.42            419.09 14.07 414.13 L24.95 414.13 L23.62 415.46 C22.94 416.14 22.94 417.23 23.62 417.92            C23.95 418.24 24.43 418.44 24.87 418.44 C25.32 418.44 25.76 418.28 26.12 417.92 L30.44 413.6            C31.12 412.92 31.12 411.83 30.44 411.14 L26.12 406.83 C25.44 406.15 24.35 406.15 23.66 406.83            C22.98 407.52 22.98 408.6 23.66 409.29 L24.99 410.62 L1.81 410.62 C0.89 410.62 0.08 411.39            0.08 412.31 C0 413.32 0.73 414.09 1.69 414.17 Z"
   class="st25"
   id="path44" />
						</g>
						<g
   id="shape3270-78"
   transform="translate(0,-36.5644)">
							<title
   id="title45">Sheet.3270</title>
							<path
   d="M4.47 439.77 C4.47 440.69 5.24 441.5 6.17 441.5 L6.21 441.5 C7.14 441.5 7.9 440.77 7.94 439.89            C8.83 426.34 20.16 415.05 33.66 414.17 C34.63 414.09 35.35 413.28 35.27 412.31 C35.19 411.35            34.39 410.62 33.42 410.7 C22.49 411.43 12.86 418.16 7.9 427.51 L7.9 416.63 L9.23 417.96            C9.55 418.28 10.04 418.48 10.48 418.48 C10.92 418.48 11.37 418.32 11.73 417.96 C12.42 417.27            12.42 416.18 11.73 415.5 L7.46 411.18 C6.77 410.5 5.68 410.5 5 411.18 L0.69 415.5 C0 416.18            0 417.27 0.69 417.96 C1.37 418.64 2.46 418.64 3.14 417.96 L4.47 416.63 L4.47 439.77 Z"
   class="st25"
   id="path45" />
						</g>
						<g
   id="shape3271-81"
   transform="translate(4.31355,0)">
							<title
   id="title46">Sheet.3271</title>
							<path
   d="M29.39 433.64 C15.84 432.75 4.56 421.42 3.67 407.92 C3.59 406.95 2.78 406.23 1.81 406.31 C0.85            406.39 0.12 407.19 0.2 408.16 C0.93 419.09 7.66 428.72 17.01 433.68 L6.13 433.68 L7.46 432.35            C8.14 431.66 8.14 430.58 7.46 429.89 C6.77 429.2 5.68 429.2 5 429.89 L0.69 434.2 C0 434.89            0 435.98 0.69 436.66 L5 440.98 C5.32 441.3 5.81 441.5 6.25 441.5 C6.69 441.5 7.14 441.34            7.5 440.98 C8.18 440.29 8.18 439.2 7.5 438.52 L6.17 437.19 L29.27 437.19 C30.19 437.19 31            436.42 31 435.49 C31.08 434.49 30.36 433.72 29.39 433.64 Z"
   class="st25"
   id="path46" />
						</g>
						<g
   id="shape3272-84"
   transform="translate(36.645,-4.35386)">
							<title
   id="title47">Sheet.3272</title>
							<path
   d="M34.67 434.2 C33.98 433.52 32.9 433.52 32.21 434.2 L30.88 435.53 L30.88 412.39 C30.88 411.47            30.11 410.66 29.19 410.66 L29.15 410.66 C28.22 410.66 27.45 411.39 27.41 412.27 C26.53 425.82            15.2 437.11 1.69 437.99 C0.73 438.07 0 438.88 0.08 439.85 C0.16 440.77 0.93 441.46 1.81            441.46 C1.85 441.46 1.89 441.46 1.94 441.46 C12.86 440.73 22.49 434 27.45 424.65 L27.45            435.53 L26.12 434.2 C25.44 433.52 24.35 433.52 23.66 434.2 C22.98 434.89 22.98 435.98 23.66            436.66 L27.98 440.98 C28.3 441.3 28.78 441.5 29.23 441.5 C29.67 441.5 30.11 441.34 30.48            440.98 L34.79 436.66 C35.35 435.98 35.35 434.85 34.67 434.2 Z"
   class="st25"
   id="path47" />
						</g>
					</g>
				</g>
			</g>
			<g
   id="shape3288-87"
   transform="translate(0,-34.3125)">
				<title
   id="title48">Sheet.3288</title>
				<path
   id="ellipse48"
   class="st26"
   style="fill:#ffffff;stroke:#33445b;stroke-width:5;stroke-linecap:round;stroke-linejoin:round;marker-end:url(#mrkr42-90)"
   d="m 16.875,433.06201 a 8.4375,8.4375 0 0 1 -8.4375,8.4375 8.4375,8.4375 0 0 1 -8.4375,-8.4375 8.4375,8.4375 0 0 1 8.4375,-8.4375 8.4375,8.4375 0 0 1 8.4375,8.4375 z" />
			</g>
			<g
   id="shape3297-91"
   transform="translate(11.25,-69.75)">
				<title
   id="title49">Sheet.3297</title>
				<path
   id="ellipse49"
   class="st26"
   style="fill:#ffffff;stroke:#33445b;stroke-width:5;stroke-linecap:round;stroke-linejoin:round;marker-end:url(#mrkr42-90)"
   d="m 16.875,433.06201 a 8.4375,8.4375 0 0 1 -8.4375,8.4375 8.4375,8.4375 0 0 1 -8.4375,-8.4375 8.4375,8.4375 0 0 1 8.4375,-8.4375 8.4375,8.4375 0 0 1 8.4375,8.4375 z" />
			</g>
		</g>
		<g
   id="group3303-94"
   transform="translate(568.445,-192.26)">
			<title
   id="title50">Sheet.3303</title>
			<g
   id="group3249-95"
   transform="translate(8.15627,0)">
				<title
   id="title51">Sheet.3249</title>
				<g
   id="shape3250-96">
					<title
   id="title52">Sheet.3250</title>
					<path
   id="ellipse52"
   class="st24"
   style="fill:#f2f2f2;stroke:#33445b;stroke-width:3;stroke-linecap:round;stroke-linejoin:round"
   d="M 96.1875,393.40601 A 48.0937,48.0937 0 0 1 48.0938,441.49971 48.0937,48.0937 0 0 1 9.9182129e-5,393.40601 48.0937,48.0937 0 0 1 48.0938,345.31231 a 48.0937,48.0937 0 0 1 48.0937,48.0937 z" />
				</g>
				<g
   id="group3251-98"
   transform="translate(12.0937,-12.9375)">
					<title
   id="title53">Router Colored</title>
					<g
   id="group3252-99"
   transform="translate(38.5398,-28.4211)">
						<title
   id="title54">Sheet.3252</title>
						<g
   id="shape3253-100">
							<title
   id="title55">Sheet.3253</title>
						</g>
					</g>
					<g
   id="group3254-101">
						<title
   id="title56">Sheet.3254</title>
						<g
   id="shape3255-102"
   transform="translate(26.4054,-24.3494)">
							<title
   id="title57">Sheet.3255</title>
							<path
   d="M20.64 432.39 C21.12 430.94 21.12 429.53 21.12 427.11 L21.12 424.25 C21.12 421.83 21.12 420.42            19.67 418.96 C18.22 418 16.81 417.51 14.39 417.51 L0 417.51 L0 441.5 L6.73 441.5 L6.73 434.28            L11.53 434.28 L15.36 441.5 L21.61 441.5 L17.29 434.28 C18.71 433.8 19.67 433.8 20.64 432.39            ZM15.36 426.14 C15.36 427.59 14.88 429 13.42 429 L6.69 429 L6.69 421.79 L12.94 421.79 C14.39            421.79 15.36 422.75 15.36 424.21 L15.36 426.14 Z"
   class="st25"
   id="path57" />
						</g>
						<g
   id="shape3256-105"
   transform="translate(11.2072,-11.0862)">
							<title
   id="title58">Sheet.3256</title>
							<path
   d="M49.59 416.71 C49.59 403.04 38.46 391.91 24.79 391.91 C11.13 391.91 0 403.04 0 416.71 C0 430.37            11.13 441.5 24.79 441.5 C38.46 441.5 49.59 430.37 49.59 416.71 ZM24.79 437.99 C13.06 437.99            3.51 428.44 3.51 416.71 C3.51 404.98 13.06 395.42 24.79 395.42 C36.52 395.42 46.08 404.98            46.08 416.71 C46.08 428.44 36.52 437.99 24.79 437.99 Z"
   class="st25"
   id="path58" />
						</g>
						<g
   id="shape3257-108"
   transform="translate(36.6047,-36.5644)">
							<title
   id="title59">Sheet.3257</title>
							<path
   d="M1.69 414.17 C15.24 415.05 26.53 426.38 27.41 439.89 C27.49 440.81 28.26 441.5 29.15 441.5 C29.19            441.5 29.23 441.5 29.27 441.5 C30.24 441.42 30.96 440.61 30.88 439.65 C30.15 428.72 23.42            419.09 14.07 414.13 L24.95 414.13 L23.62 415.46 C22.94 416.14 22.94 417.23 23.62 417.92            C23.95 418.24 24.43 418.44 24.87 418.44 C25.32 418.44 25.76 418.28 26.12 417.92 L30.44 413.6            C31.12 412.92 31.12 411.83 30.44 411.14 L26.12 406.83 C25.44 406.15 24.35 406.15 23.66 406.83            C22.98 407.52 22.98 408.6 23.66 409.29 L24.99 410.62 L1.81 410.62 C0.89 410.62 0.08 411.39            0.08 412.31 C0 413.32 0.73 414.09 1.69 414.17 Z"
   class="st25"
   id="path59" />
						</g>
						<g
   id="shape3258-111"
   transform="translate(0,-36.5644)">
							<title
   id="title60">Sheet.3258</title>
							<path
   d="M4.47 439.77 C4.47 440.69 5.24 441.5 6.17 441.5 L6.21 441.5 C7.14 441.5 7.9 440.77 7.94 439.89            C8.83 426.34 20.16 415.05 33.66 414.17 C34.63 414.09 35.35 413.28 35.27 412.31 C35.19 411.35            34.39 410.62 33.42 410.7 C22.49 411.43 12.86 418.16 7.9 427.51 L7.9 416.63 L9.23 417.96            C9.55 418.28 10.04 418.48 10.48 418.48 C10.92 418.48 11.37 418.32 11.73 417.96 C12.42 417.27            12.42 416.18 11.73 415.5 L7.46 411.18 C6.77 410.5 5.68 410.5 5 411.18 L0.69 415.5 C0 416.18            0 417.27 0.69 417.96 C1.37 418.64 2.46 418.64 3.14 417.96 L4.47 416.63 L4.47 439.77 Z"
   class="st25"
   id="path60" />
						</g>
						<g
   id="shape3259-114"
   transform="translate(4.31355,0)">
							<title
   id="title61">Sheet.3259</title>
							<path
   d="M29.39 433.64 C15.84 432.75 4.56 421.42 3.67 407.92 C3.59 406.95 2.78 406.23 1.81 406.31 C0.85            406.39 0.12 407.19 0.2 408.16 C0.93 419.09 7.66 428.72 17.01 433.68 L6.13 433.68 L7.46 432.35            C8.14 431.66 8.14 430.58 7.46 429.89 C6.77 429.2 5.68 429.2 5 429.89 L0.69 434.2 C0 434.89            0 435.98 0.69 436.66 L5 440.98 C5.32 441.3 5.81 441.5 6.25 441.5 C6.69 441.5 7.14 441.34            7.5 440.98 C8.18 440.29 8.18 439.2 7.5 438.52 L6.17 437.19 L29.27 437.19 C30.19 437.19 31            436.42 31 435.49 C31.08 434.49 30.36 433.72 29.39 433.64 Z"
   class="st25"
   id="path61" />
						</g>
						<g
   id="shape3260-117"
   transform="translate(36.645,-4.35386)">
							<title
   id="title62">Sheet.3260</title>
							<path
   d="M34.67 434.2 C33.98 433.52 32.9 433.52 32.21 434.2 L30.88 435.53 L30.88 412.39 C30.88 411.47            30.11 410.66 29.19 410.66 L29.15 410.66 C28.22 410.66 27.45 411.39 27.41 412.27 C26.53 425.82            15.2 437.11 1.69 437.99 C0.73 438.07 0 438.88 0.08 439.85 C0.16 440.77 0.93 441.46 1.81            441.46 C1.85 441.46 1.89 441.46 1.94 441.46 C12.86 440.73 22.49 434 27.45 424.65 L27.45            435.53 L26.12 434.2 C25.44 433.52 24.35 433.52 23.66 434.2 C22.98 434.89 22.98 435.98 23.66            436.66 L27.98 440.98 C28.3 441.3 28.78 441.5 29.23 441.5 C29.67 441.5 30.11 441.34 30.48            440.98 L34.79 436.66 C35.35 435.98 35.35 434.85 34.67 434.2 Z"
   class="st25"
   id="path62" />
						</g>
					</g>
				</g>
			</g>
			<g
   id="shape3294-120"
   transform="translate(0,-40.5)">
				<title
   id="title63">Sheet.3294</title>
				<path
   id="ellipse63"
   class="st26"
   style="fill:#ffffff;stroke:#33445b;stroke-width:5;stroke-linecap:round;stroke-linejoin:round;marker-end:url(#mrkr42-90)"
   d="m 16.875,433.06201 a 8.4375,8.4375 0 0 1 -8.4375,8.4375 8.4375,8.4375 0 0 1 -8.4375,-8.4375 8.4375,8.4375 0 0 1 8.4375,-8.4375 8.4375,8.4375 0 0 1 8.4375,8.4375 z" />
			</g>
			<g
   id="shape3296-123"
   transform="translate(95.625,-41.0625)">
				<title
   id="title64">Sheet.3296</title>
				<path
   id="ellipse64"
   class="st26"
   style="fill:#ffffff;stroke:#33445b;stroke-width:5;stroke-linecap:round;stroke-linejoin:round;marker-end:url(#mrkr42-90)"
   d="m 16.875,433.06201 a 8.4375,8.4375 0 0 1 -8.4375,8.4375 8.4375,8.4375 0 0 1 -8.4375,-8.4375 8.4375,8.4375 0 0 1 8.4375,-8.4375 8.4375,8.4375 0 0 1 8.4375,8.4375 z" />
			</g>
		</g>
		<g
   id="group3489-126"
   transform="translate(1021.62,-86.4951)">
			<title
   id="title65">Sheet.3489</title>
			<g
   id="group3397-127">
				<title
   id="title66">Sheet.3397</title>
				<g
   id="shape3398-128"
   transform="translate(3.32534E-12,-206.005)">
					<title
   id="title67">Sheet.3398</title>
					<path
   d="M0 441.5 L335.4 441.5 L335.4 410.84 A13.9748 15.3314 -180 0 0 321.42 395.5 L13.97 395.5 A13.9748 15.3314          -180 0 0 0 410.84 L0 441.5 Z"
   class="st28"
   id="path67" />
				</g>
				<g
   id="shape3399-130">
					<title
   id="title68">Sheet.3399</title>
					<path
   d="M0 235.5 L0 429.38 A13.9748 12.1177 -180 0 0 13.97 441.5 L321.42 441.5 A13.9748 12.1177 -180 0 0 335.4          429.38 L335.4 235.5 L0 235.5 Z"
   class="st28"
   id="path68" />
				</g>
			</g>
			<g
   id="shape3401-132"
   transform="translate(4.37776,-206.005)">
				<title
   id="title69">Virtual server.16</title>
				<desc
   id="desc69">Appetizer Process</desc>
				<path
   id="rect69"
   class="st13"
   style="stroke-width:0.5;stroke-linecap:round;stroke-linejoin:round"
   d="m 0,399.741 h 324 v 41.7587 H 0 Z" />
				<path
   d="m 54.419977,427.82001 h -4.679976 l 6.359968,-16.79992 h 4.799976 l 6.359968,16.79992 h -4.679977 l -1.079994,-2.99999 h -5.99997 z m 2.159989,-6.11997 h 3.839981 l -1.91999,-5.63997 z m 18.719884,-3.35999 q -1.271993,0 -2.879985,0.48 v 5.75997 h 3.599982 q 0.959995,0 0.959995,-0.95999 v -4.43998 q 0,-0.36 -0.239999,-0.6 -0.239999,-0.24 -0.599997,-0.24 z m -2.879985,9.47996 v 4.07998 h -4.199979 v -16.79992 h 3.719981 l 0.239999,1.2 q 1.127994,-0.744 2.303988,-1.08 1.199994,-0.36 2.01599,-0.36 h 1.079995 q 1.631992,0 2.615987,0.984 0.983995,0.98399 0.983995,2.61598 v 5.51998 q 0,1.79999 -1.031995,2.83198 -1.007995,1.008 -2.807986,1.008 z m 17.999891,-9.47996 q -1.271994,0 -2.879986,0.48 v 5.75997 h 3.599982 q 0.959995,0 0.959995,-0.95999 v -4.43998 q 0,-0.36 -0.239998,-0.6 -0.239999,-0.24 -0.599997,-0.24 z m -2.879986,9.47996 v 4.07998 h -4.199979 v -16.79992 h 3.719982 l 0.239998,1.2 q 1.127995,-0.744 2.303989,-1.08 1.199994,-0.36 2.01599,-0.36 h 1.079994 q 1.631992,0 2.615987,0.984 0.983995,0.98399 0.983995,2.61598 v 5.51998 q 0,1.79999 -1.031995,2.83198 -1.007994,1.008 -2.807985,1.008 z m 15.8399,-9.95995 q -0.96,0 -0.96,0.95999 v 1.32 h 4.07998 v -1.32 q 0,-0.95999 -0.95999,-0.95999 z m 6.83997,9.71995 q -4.63198,0.48 -8.39996,0.48 -1.63199,0 -2.615989,-0.984 -0.983995,-0.98399 -0.983995,-2.61599 v -5.75997 q 0,-1.79999 1.007995,-2.80798 1.031999,-1.032 2.831989,-1.032 h 4.79997 q 1.79999,0 2.80799,1.032 1.03199,1.00799 1.03199,2.80798 v 4.43998 h -8.27996 v 0.96 q 0,0.35999 0.24,0.59999 0.24,0.24 0.6,0.24 2.37599,0 6.95997,-0.36 z m 11.51995,0.24 q -2.32799,0.24 -4.55998,0.24 -1.63199,0 -2.61599,-0.984 -0.98399,-0.98399 -0.98399,-2.61599 v -6.11997 h -1.43999 v -3.23998 h 1.43999 l 0.48,-2.87998 h 3.71998 v 2.87998 h 2.99998 v 3.23998 h -2.99998 v 5.51998 q 0,0.36 0.24,0.59999 0.23999,0.24 0.59999,0.24 h 3.11999 z m 6.47997,-12.23994 v 12.23994 h -4.19998 v -8.99996 h -1.79999 v -3.23998 z m -4.19998,-4.79998 h 4.19998 v 3.35999 h -4.19998 z m 17.7599,7.55996 -6.59996,6.23997 h 6.59996 v 3.23999 h -11.87994 v -3.23999 l 6.59997,-6.23997 h -6.59997 v -3.23998 h 11.87994 z m 6.59996,-0.47999 q -0.95999,0 -0.95999,0.95999 v 1.32 h 4.07998 v -1.32 q 0,-0.95999 -0.96,-0.95999 z m 6.83997,9.71995 q -4.63198,0.48 -8.39996,0.48 -1.63199,0 -2.61599,-0.984 -0.98399,-0.98399 -0.98399,-2.61599 v -5.75997 q 0,-1.79999 1.00799,-2.80798 1.032,-1.032 2.83199,-1.032 h 4.79997 q 1.79999,0 2.80799,1.032 1.03199,1.00799 1.03199,2.80798 v 4.43998 h -8.27995 v 0.96 q 0,0.35999 0.23999,0.59999 0.24,0.24 0.6,0.24 2.37599,0 6.95997,-0.36 z m 9.95996,-8.99996 q -1.51199,0 -3.11998,0.72 v 8.51996 h -4.19998 v -12.71994 h 3.71998 l 0.24,1.55999 q 2.06399,-1.79999 4.31997,-1.79999 h 1.08 v 3.71998 z m 11.1599,-7.55996 h 10.07995 q 2.51999,0 3.64798,1.152 1.152,1.12799 1.152,3.64798 v 2.39999 q 0,2.51998 -1.152,3.67198 -1.12799,1.12799 -3.64798,1.12799 h -5.75997 v 4.79998 h -4.31998 z m 10.55995,4.79998 q 0,-1.44 -1.43999,-1.44 h -4.79998 v 5.27998 h 4.79998 q 1.43999,0 1.43999,-1.43999 z m 13.5599,2.75998 q -1.51199,0 -3.11998,0.72 v 8.51996 h -4.19998 v -12.71994 h 3.71998 l 0.24,1.55999 q 2.06399,-1.79999 4.31998,-1.79999 h 1.07999 v 3.71998 z m 16.1999,5.63998 q 0,1.79999 -1.032,2.83198 -1.00799,1.008 -2.80798,1.008 h -5.51998 q -1.79999,0 -2.83198,-1.008 -1.008,-1.03199 -1.008,-2.83198 v -5.51998 q 0,-1.79999 1.008,-2.80798 1.03199,-1.032 2.83198,-1.032 h 5.51998 q 1.79999,0 2.80798,1.032 1.032,1.00799 1.032,2.80798 z m -4.19998,-5.15998 q 0,-0.95999 -0.96,-0.95999 h -2.87998 q -0.96,0 -0.96,0.95999 v 4.79998 q 0,0.95999 0.96,0.95999 h 2.87998 q 0.96,0 0.96,-0.95999 z m 17.63989,8.51996 q -4.48798,0.48 -7.91996,0.48 -1.63199,0 -2.61599,-0.984 -0.98399,-0.98399 -0.98399,-2.61599 v -5.51997 q 0,-1.79999 1.00799,-2.80798 1.032,-1.032 2.83199,-1.032 h 7.67996 v 3.23998 h -6.35997 q -0.95999,0 -0.95999,0.96 v 4.67998 q 0,0.35999 0.23999,0.59999 0.24,0.24 0.6,0.24 2.15999,0 6.47997,-0.36 z m 6.83995,-9.71995 q -0.95999,0 -0.95999,0.95999 v 1.32 h 4.07998 v -1.32 q 0,-0.95999 -0.96,-0.95999 z m 6.83997,9.71995 q -4.63198,0.48 -8.39996,0.48 -1.63199,0 -2.61599,-0.984 -0.98399,-0.98399 -0.98399,-2.61599 v -5.75997 q 0,-1.79999 1.00799,-2.80798 1.032,-1.032 2.83199,-1.032 h 4.79997 q 1.8,0 2.80799,1.032 1.032,1.00799 1.032,2.80798 v 4.43998 h -8.27996 v 0.96 q 0,0.35999 0.24,0.59999 0.23999,0.24 0.59999,0.24 2.37599,0 6.95997,-0.36 z m 2.15999,-3.11999 q 4.87198,0.36 7.67996,0.36 0.36,0 0.6,-0.24 0.24,-0.24 0.24,-0.59999 v -0.84 h -5.15998 q -1.63199,0 -2.61598,-0.98399 -0.984,-0.984 -0.984,-2.61599 v -0.84 q 0,-1.63199 0.984,-2.61598 0.98399,-0.984 2.61598,-0.984 h 8.15996 v 3.11999 h -6.71996 q -0.36,0 -0.6,0.23999 -0.24,0.24 -0.24,0.6 0,0.36 0.24,0.6 0.24,0.24 0.6,0.24 h 4.31998 q 1.63199,0 2.61598,0.98399 0.984,0.984 0.984,2.61599 v 0.95999 q 0,1.632 -0.984,2.61599 -0.98399,0.984 -2.61598,0.984 -4.24798,0 -9.11996,-0.48 z m 13.91992,0 q 4.87198,0.36 7.67997,0.36 0.35999,0 0.59999,-0.24 0.24,-0.24 0.24,-0.59999 v -0.84 h -5.15997 q -1.632,0 -2.61599,-0.98399 -0.984,-0.984 -0.984,-2.61599 v -0.84 q 0,-1.63199 0.984,-2.61598 0.98399,-0.984 2.61599,-0.984 h 8.15996 v 3.11999 h -6.71997 q -0.36,0 -0.6,0.23999 -0.24,0.24 -0.24,0.6 0,0.36 0.24,0.6 0.24,0.24 0.6,0.24 h 4.31998 q 1.63199,0 2.61598,0.98399 0.984,0.984 0.984,2.61599 v 0.95999 q 0,1.632 -0.984,2.61599 -0.98399,0.984 -2.61598,0.984 -4.24798,0 -9.11996,-0.48 z"
   id="text69"
   class="st14"
   style="font-size:47.9995px;font-family:'Russo One';fill:#d8d8d8"
   aria-label="Appetizer Process" />			</g>
		</g>
		<g
   id="group3433-135"
   transform="translate(994.37,-95.4951)">
			<title
   id="title70">Sheet.3433</title>
			<g
   id="shape3420-136"
   transform="translate(41.0477,-5.68434E-14)">
				<title
   id="title71">Rounded Rectangle.3420</title>
				<desc
   id="desc71">HTTP Server</desc>
				<path
   d="M6.78 441.5 L300.88 441.5 A6.781 6.781 -180 0 0 307.66 434.72 L307.66 376.28 A6.781 6.781 -180 0 0 300.88         369.5 L6.78 369.5 A6.781 6.781 -180 0 0 -0 376.28 L0 434.72 A6.781 6.781 -180 0 0 6.78 441.5 Z"
   class="st29"
   id="path71" />
				<path
   d="m 59.12,418.29999 h -6.48 v -10.26 h -9 v 10.26 h -6.48 v -25.2 h 6.48 v 9.9 h 9 v -9.9 h 6.48 z m 16.559984,0 h -6.48 v -20.16 h -7.56 v -5.04 h 21.6 v 5.04 h -7.56 z m 22.32003,0 h -6.48 v -20.16 h -7.56 v -5.04 h 21.599996 v 5.04 h -7.559996 z m 10.080026,-25.2 h 15.12 q 3.78,0 5.472,1.728 1.728,1.692 1.728,5.472 v 3.6 q 0,3.78 -1.728,5.508 -1.692,1.692 -5.472,1.692 h -8.64 v 7.2 h -6.48 z m 15.84,7.2 q 0,-2.16 -2.16,-2.16 h -7.2 v 7.92 h 7.2 q 2.16,0 2.16,-2.16 z m 19.76394,12.78 q 9.864,0.54 13.356,0.54 0.828,0 1.296,-0.468 0.504,-0.504 0.504,-1.332 v -3.24 h -8.28 q -3.78,0 -5.508,-1.692 -1.692,-1.728 -1.692,-5.508 v -1.08 q 0,-3.78 1.692,-5.472 1.728,-1.728 5.508,-1.728 h 12.636 v 5.04 h -11.196 q -2.16,0 -2.16,2.16 v 0.72 q 0,2.16 2.16,2.16 h 6.48 q 3.528,0 5.184,1.656 1.656,1.656 1.656,5.184 v 1.8 q 0,3.528 -1.656,5.184 -1.656,1.656 -5.184,1.656 -1.836,0 -3.888,-0.072 l -3.312,-0.144 q -3.672,-0.18 -7.596,-0.504 z m 31.89601,-9.72 q -1.44,0 -1.44,1.44 v 1.98 h 6.12 v -1.98 q 0,-1.44 -1.44,-1.44 z m 10.26,14.58 q -6.948,0.72 -12.6,0.72 -2.448,0 -3.924,-1.476 -1.476,-1.476 -1.476,-3.924 v -8.64 q 0,-2.7 1.512,-4.212 1.548,-1.548 4.248,-1.548 h 7.2 q 2.7,0 4.212,1.548 1.548,1.512 1.548,4.212 v 6.66 h -12.42 v 1.44 q 0,0.54 0.36,0.9 0.36,0.36 0.9,0.36 3.564,0 10.44,-0.54 z m 14.94001,-13.5 q -2.268,0 -4.68,1.08 v 12.78 h -6.3 v -19.08 h 5.58 l 0.36,2.34 q 3.096,-2.7 6.48,-2.7 h 1.62 v 5.58 z m 18.35997,-5.22 h 6.66 l -7.2,19.08 h -7.2 l -7.2,-19.08 h 6.66 l 4.14,12.96 z m 15.11999,4.14 q -1.44,0 -1.44,1.44 v 1.98 h 6.12 v -1.98 q 0,-1.44 -1.44,-1.44 z m 10.26,14.58 q -6.948,0.72 -12.6,0.72 -2.448,0 -3.924,-1.476 -1.476,-1.476 -1.476,-3.924 v -8.64 q 0,-2.7 1.512,-4.212 1.548,-1.548 4.248,-1.548 h 7.2 q 2.7,0 4.212,1.548 1.548,1.512 1.548,4.212 v 6.66 h -12.42 v 1.44 q 0,0.54 0.36,0.9 0.36,0.36 0.9,0.36 3.564,0 10.44,-0.54 z m 14.94,-13.5 q -2.268,0 -4.68,1.08 v 12.78 h -6.3 v -19.08 h 5.58 l 0.36,2.34 q 3.096,-2.7 6.48,-2.7 h 1.62 v 5.58 z"
   id="text71"
   class="st30"
   style="font-size:108px;font-family:'Russo One';fill:#273547"
   aria-label="HTTP Server" />			</g>
			<g
   id="group3421-139">
				<title
   id="title72">SDKs.3421</title>
				<g
   id="group3422-140">
					<title
   id="title73">CloudKit-Icon</title>
					<g
   id="group3423-141">
						<title
   id="title74">Bottom</title>
						<g
   id="shape3424-142">
							<title
   id="title75">Sheet.3424</title>
							<path
   d="M61.7 422.37 C66.52 418.62 66.52 412.56 61.7 408.8 L41.96 393.44 C37.15 389.69 29.36 389.69            24.54 393.44 L4.81 408.8 C0 412.56 0 418.62 4.81 422.37 L24.54 437.75 C29.36 441.5 37.15            441.5 41.96 437.75 L61.7 422.37 Z"
   class="st31"
   id="path75" />
						</g>
						<g
   id="shape3425-144">
							<title
   id="title76">Sheet.3425</title>
							<path
   d="M61.7 422.37 C66.52 418.62 66.52 412.56 61.7 408.8 L41.96 393.44 C37.15 389.69 29.36 389.69            24.54 393.44 L4.81 408.8 C0 412.56 0 418.62 4.81 422.37 L24.54 437.75 C29.36 441.5 37.15            441.5 41.96 437.75 L61.7 422.37 Z"
   class="st32"
   id="path76" />
						</g>
					</g>
					<g
   id="group3426-146"
   transform="translate(0,-10.6879)">
						<title
   id="title77">Middle</title>
						<g
   id="shape3427-147">
							<title
   id="title78">Sheet.3427</title>
							<path
   d="M61.7 422.37 C66.52 418.62 66.52 412.56 61.7 408.8 L41.98 393.43 C37.16 389.68 29.37 389.68            24.56 393.43 L4.81 408.8 C0 412.56 0 418.62 4.81 422.37 L24.54 437.75 C29.36 441.5 37.15            441.5 41.96 437.75 L61.7 422.37 Z"
   class="st31"
   id="path78" />
						</g>
						<g
   id="shape3428-149">
							<title
   id="title79">Sheet.3428</title>
							<path
   d="M61.7 422.37 C66.52 418.62 66.52 412.56 61.7 408.8 L41.98 393.43 C37.16 389.68 29.37 389.68            24.56 393.43 L4.81 408.8 C0 412.56 0 418.62 4.81 422.37 L24.54 437.75 C29.36 441.5 37.15            441.5 41.96 437.75 L61.7 422.37 Z"
   class="st32"
   id="path79" />
						</g>
					</g>
					<g
   id="group3429-151"
   transform="translate(0,-21.3758)">
						<title
   id="title80">Top</title>
						<g
   id="shape3430-152">
							<title
   id="title81">Sheet.3430</title>
							<path
   d="M61.7 422.37 C66.52 418.62 66.52 412.56 61.7 408.8 L41.98 393.43 C37.16 389.68 29.37 389.68            24.56 393.43 L4.81 408.8 C0 412.56 0 418.62 4.81 422.37 L24.54 437.75 C29.36 441.5 37.15            441.5 41.96 437.75 L61.7 422.37 Z"
   class="st31"
   id="path81" />
						</g>
						<g
   id="shape3431-154">
							<title
   id="title82">Sheet.3431</title>
							<path
   d="M61.7 422.37 C66.52 418.62 66.52 412.56 61.7 408.8 L41.98 393.43 C37.16 389.68 29.37 389.68            24.56 393.43 L4.81 408.8 C0 412.56 0 418.62 4.81 422.37 L24.54 437.75 C29.36 441.5 37.15            441.5 41.96 437.75 L61.7 422.37 Z"
   class="st32"
   id="path82" />
						</g>
					</g>
				</g>
				<g
   id="shape3432-156"
   transform="translate(21.6186,-29.2453)">
					<title
   id="title83">Sheet.3432</title>
					<path
   d="M11.99 403.59 L0 421.83 L6.81 426.28 L7.93 424.56 L11.48 441.5 L23.28 423.18 L16.66 418.86 L15.53 420.6          L11.99 403.59 ZM17.35 421.9 L20.25 423.86 L12.49 435.75 L8.93 418.76 L6.06 423.18 L3.2 421.31 L10.99          409.39 L14.52 426.22 L17.35 421.9 Z"
   class="st31"
   id="path83" />
				</g>
			</g>
		</g>
		<g
   id="group3434-158"
   transform="translate(994.327,-186.862)">
			<title
   id="title84">Sheet.3434</title>
			<g
   id="shape3402-159"
   transform="translate(41.0477,-5.68434E-14)">
				<title
   id="title85">Rounded Rectangle.3402</title>
				<desc
   id="desc85">Reflect Server</desc>
				<path
   d="M6.78 441.5 L300.92 441.5 A6.78195 6.78195 -180 0 0 307.7 434.72 L307.7 376.28 A6.78195 6.78195 -180 0 0         300.92 369.5 L6.78 369.5 A6.78195 6.78195 -180 0 0 -0 376.28 L0 434.72 A6.78195 6.78195 -180 0 0 6.78         441.5 Z"
   class="st33"
   id="path85" />
				<path
   d="m 37.16,393.09999 h 15.12 q 3.78,0 5.472,1.728 1.728,1.692 1.728,5.472 v 3.24 q 0,2.988 -1.008,4.644 -0.972,1.656 -3.132,2.196 l 4.5,7.92 h -7.02 l -4.14,-7.56 h -5.04 v 7.56 h -6.48 z m 15.84,7.2 q 0,-2.16 -2.16,-2.16 h -7.2 v 7.56 h 7.2 q 2.16,0 2.16,-2.16 z m 17.099975,3.06 q -1.44,0 -1.44,1.44 v 1.98 h 6.12 v -1.98 q 0,-1.44 -1.44,-1.44 z m 10.26,14.58 q -6.948,0.72 -12.6,0.72 -2.448,0 -3.924,-1.476 -1.476,-1.476 -1.476,-3.924 v -8.64 q 0,-2.7 1.512,-4.212 1.548,-1.548 4.248,-1.548 h 7.2 q 2.7,0 4.212,1.548 1.548,1.512 1.548,4.212 v 6.66 h -12.42 v 1.44 q 0,0.54 0.36,0.9 0.36,0.36 0.9,0.36 3.564,0 10.44,-0.54 z m 19.440014,-19.98 q -1.044,-0.072 -2.772,-0.216 -1.728,-0.144 -2.988,-0.144 -1.26,0 -1.62,0.36 -0.36,0.36 -0.36,0.9 v 1.8 h 5.94 v 4.86 h -5.94 v 12.78 h -6.3 v -12.78 h -2.52 v -4.86 h 2.52 v -2.52 q 0,-2.448 1.476,-3.924 1.476,-1.476 3.924,-1.476 2.196,0 4.644,0.144 2.448,0.144 3.996,0.216 z m 11.160041,20.34 q -2.412,0.36 -4.608,0.36 -2.16,0 -3.636,-1.476 -1.476,-1.476 -1.476,-3.924 v -20.16 h 6.3 v 19.26 q 0,0.54 0.36,0.9 0.36,0.36 0.9,0.36 h 2.16 z m 9.90001,-14.94 q -1.44,0 -1.44,1.44 v 1.98 h 6.12 v -1.98 q 0,-1.44 -1.44,-1.44 z m 10.26,14.58 q -6.948,0.72 -12.6,0.72 -2.448,0 -3.924,-1.476 -1.476,-1.476 -1.476,-3.924 v -8.64 q 0,-2.7 1.512,-4.212 1.548,-1.548 4.248,-1.548 h 7.2 q 2.7,0 4.212,1.548 1.548,1.512 1.548,4.212 v 6.66 h -12.42 v 1.44 q 0,0.54 0.36,0.9 0.36,0.36 0.9,0.36 3.564,0 10.44,-0.54 z m 20.88001,0 q -6.732,0.72 -11.88,0.72 -2.448,0 -3.924,-1.476 -1.476,-1.476 -1.476,-3.924 v -8.28 q 0,-2.7 1.512,-4.212 1.548,-1.548 4.248,-1.548 h 11.52 v 4.86 h -9.54 q -1.44,0 -1.44,1.44 v 7.02 q 0,0.54 0.36,0.9 0.36,0.36 0.9,0.36 3.24,0 9.72,-0.54 z m 16.19997,0.36 q -3.492,0.36 -6.84,0.36 -2.448,0 -3.924,-1.476 -1.476,-1.476 -1.476,-3.924 v -9.18 h -2.16 v -4.86 h 2.16 l 0.72,-4.32 h 5.58 v 4.32 h 4.5 v 4.86 h -4.5 v 8.28 q 0,0.54 0.36,0.9 0.36,0.36 0.9,0.36 h 4.68 z m 12.924,-5.22 q 9.864,0.54 13.356,0.54 0.828,0 1.296,-0.468 0.504,-0.504 0.504,-1.332 v -3.24 h -8.28 q -3.78,0 -5.508,-1.692 -1.692,-1.728 -1.692,-5.508 v -1.08 q 0,-3.78 1.692,-5.472 1.728,-1.728 5.508,-1.728 h 12.636 v 5.04 h -11.196 q -2.16,0 -2.16,2.16 v 0.72 q 0,2.16 2.16,2.16 h 6.48 q 3.528,0 5.184,1.656 1.656,1.656 1.656,5.184 v 1.8 q 0,3.528 -1.656,5.184 -1.656,1.656 -5.184,1.656 -1.836,0 -3.888,-0.072 l -3.312,-0.144 q -3.672,-0.18 -7.596,-0.504 z m 31.89601,-9.72 q -1.44,0 -1.44,1.44 v 1.98 h 6.12 v -1.98 q 0,-1.44 -1.44,-1.44 z m 10.26,14.58 q -6.948,0.72 -12.6,0.72 -2.448,0 -3.924,-1.476 -1.476,-1.476 -1.476,-3.924 v -8.64 q 0,-2.7 1.512,-4.212 1.548,-1.548 4.248,-1.548 h 7.2 q 2.7,0 4.212,1.548 1.548,1.512 1.548,4.212 v 6.66 h -12.42 v 1.44 q 0,0.54 0.36,0.9 0.36,0.36 0.9,0.36 3.564,0 10.44,-0.54 z m 14.94,-13.5 q -2.268,0 -4.68,1.08 v 12.78 h -6.3 v -19.08 h 5.58 l 0.36,2.34 q 3.096,-2.7 6.48,-2.7 h 1.62 v 5.58 z m 18.35997,-5.22 h 6.66 l -7.2,19.08 h -7.2 l -7.2,-19.08 h 6.66 l 4.14,12.96 z m 15.11999,4.14 q -1.44,0 -1.44,1.44 v 1.98 h 6.12 v -1.98 q 0,-1.44 -1.44,-1.44 z m 10.26,14.58 q -6.948,0.72 -12.6,0.72 -2.448,0 -3.924,-1.476 -1.476,-1.476 -1.476,-3.924 v -8.64 q 0,-2.7 1.512,-4.212 1.548,-1.548 4.248,-1.548 h 7.2 q 2.7,0 4.212,1.548 1.548,1.512 1.548,4.212 v 6.66 h -12.42 v 1.44 q 0,0.54 0.36,0.9 0.36,0.36 0.9,0.36 3.564,0 10.44,-0.54 z m 14.94001,-13.5 q -2.268,0 -4.68,1.08 v 12.78 h -6.3 v -19.08 h 5.58 l 0.36,2.34 q 3.096,-2.7 6.48,-2.7 h 1.62 v 5.58 z"
   id="text85"
   class="st10"
   style="font-size:108px;font-family:'Russo One';fill:#d8d8d8"
   aria-label="Reflect Server" />			</g>
			<g
   id="group3408-162">
				<title
   id="title86">SDKs.3408</title>
				<g
   id="group3409-163">
					<title
   id="title87">CloudKit-Icon</title>
					<g
   id="group3410-164">
						<title
   id="title88">Bottom</title>
						<g
   id="shape3411-165">
							<title
   id="title89">Sheet.3411</title>
							<path
   d="M61.7 422.37 C66.52 418.62 66.52 412.56 61.7 408.8 L41.96 393.44 C37.15 389.69 29.36 389.69            24.54 393.44 L4.81 408.8 C0 412.56 0 418.62 4.81 422.37 L24.54 437.75 C29.36 441.5 37.15            441.5 41.96 437.75 L61.7 422.37 Z"
   class="st15"
   id="path89" />
						</g>
						<g
   id="shape3412-167">
							<title
   id="title90">Sheet.3412</title>
							<path
   d="M61.7 422.37 C66.52 418.62 66.52 412.56 61.7 408.8 L41.96 393.44 C37.15 389.69 29.36 389.69            24.54 393.44 L4.81 408.8 C0 412.56 0 418.62 4.81 422.37 L24.54 437.75 C29.36 441.5 37.15            441.5 41.96 437.75 L61.7 422.37 Z"
   class="st16"
   id="path90" />
						</g>
					</g>
					<g
   id="group3413-169"
   transform="translate(0,-10.6879)">
						<title
   id="title91">Middle</title>
						<g
   id="shape3414-170">
							<title
   id="title92">Sheet.3414</title>
							<path
   d="M61.7 422.37 C66.52 418.62 66.52 412.56 61.7 408.8 L41.98 393.43 C37.16 389.68 29.37 389.68            24.56 393.43 L4.81 408.8 C0 412.56 0 418.62 4.81 422.37 L24.54 437.75 C29.36 441.5 37.15            441.5 41.96 437.75 L61.7 422.37 Z"
   class="st17"
   id="path92" />
						</g>
						<g
   id="shape3415-172">
							<title
   id="title93">Sheet.3415</title>
							<path
   d="M61.7 422.37 C66.52 418.62 66.52 412.56 61.7 408.8 L41.98 393.43 C37.16 389.68 29.37 389.68            24.56 393.43 L4.81 408.8 C0 412.56 0 418.62 4.81 422.37 L24.54 437.75 C29.36 441.5 37.15            441.5 41.96 437.75 L61.7 422.37 Z"
   class="st18"
   id="path93" />
						</g>
					</g>
					<g
   id="group3416-174"
   transform="translate(0,-21.3758)">
						<title
   id="title94">Top</title>
						<g
   id="shape3417-175">
							<title
   id="title95">Sheet.3417</title>
							<path
   d="M61.7 422.37 C66.52 418.62 66.52 412.56 61.7 408.8 L41.98 393.43 C37.16 389.68 29.37 389.68            24.56 393.43 L4.81 408.8 C0 412.56 0 418.62 4.81 422.37 L24.54 437.75 C29.36 441.5 37.15            441.5 41.96 437.75 L61.7 422.37 Z"
   class="st19"
   id="path95" />
						</g>
						<g
   id="shape3418-177">
							<title
   id="title96">Sheet.3418</title>
							<path
   d="M61.7 422.37 C66.52 418.62 66.52 412.56 61.7 408.8 L41.98 393.43 C37.16 389.68 29.37 389.68            24.56 393.43 L4.81 408.8 C0 412.56 0 418.62 4.81 422.37 L24.54 437.75 C29.36 441.5 37.15            441.5 41.96 437.75 L61.7 422.37 Z"
   class="st20"
   id="path96" />
						</g>
					</g>
				</g>
				<g
   id="shape3419-179"
   transform="translate(21.6186,-29.2453)">
					<title
   id="title97">Sheet.3419</title>
					<path
   d="M11.99 403.59 L0 421.83 L6.81 426.28 L7.93 424.56 L11.48 441.5 L23.28 423.18 L16.66 418.86 L15.53 420.6          L11.99 403.59 ZM17.35 421.9 L20.25 423.86 L12.49 435.75 L8.93 418.76 L6.06 423.18 L3.2 421.31 L10.99          409.39 L14.52 426.22 L17.35 421.9 Z"
   class="st21"
   id="path97" />
				</g>
			</g>
		</g>
		<g
   id="shape3435-181"
   transform="translate(1001.87,-225.236)">
			<title
   id="title98">Dynamic connector.3435</title>
			<path
   d="M0 441.5 L-137.46 489.15"
   class="st23"
   id="path98" />
		</g>
		<g
   id="shape3278-184"
   transform="translate(206.01,-156.097)">
			<title
   id="title99">Dynamic connector.3278</title>
			<path
   d="M0 441.38 L176.85 423.62"
   class="st34"
   id="path99" />
		</g>
		<g
   id="group3304-187"
   transform="translate(382.82,-132.072)">
			<title
   id="title100">Sheet.3304</title>
			<g
   id="group3248-188"
   transform="translate(10.6875,0)">
				<title
   id="title101">Sheet.3248</title>
				<g
   id="shape3224-189">
					<title
   id="title102">Sheet.3224</title>
					<path
   id="ellipse102"
   class="st24"
   style="fill:#f2f2f2;stroke:#33445b;stroke-width:3;stroke-linecap:round;stroke-linejoin:round"
   d="M 96.1875,393.40601 A 48.0937,48.0937 0 0 1 48.0938,441.49971 48.0937,48.0937 0 0 1 9.9182129e-5,393.40601 48.0937,48.0937 0 0 1 48.0938,345.31231 a 48.0937,48.0937 0 0 1 48.0937,48.0937 z" />
				</g>
				<g
   id="group3237-191"
   transform="translate(12.0937,-12.9375)">
					<title
   id="title103">Router Colored</title>
					<g
   id="group3238-192"
   transform="translate(38.5398,-28.4211)">
						<title
   id="title104">Sheet.3238</title>
						<g
   id="shape3239-193">
							<title
   id="title105">Sheet.3239</title>
						</g>
					</g>
					<g
   id="group3240-194">
						<title
   id="title106">Sheet.3240</title>
						<g
   id="shape3241-195"
   transform="translate(26.4054,-24.3494)">
							<title
   id="title107">Sheet.3241</title>
							<path
   d="M20.64 432.39 C21.12 430.94 21.12 429.53 21.12 427.11 L21.12 424.25 C21.12 421.83 21.12 420.42            19.67 418.96 C18.22 418 16.81 417.51 14.39 417.51 L0 417.51 L0 441.5 L6.73 441.5 L6.73 434.28            L11.53 434.28 L15.36 441.5 L21.61 441.5 L17.29 434.28 C18.71 433.8 19.67 433.8 20.64 432.39            ZM15.36 426.14 C15.36 427.59 14.88 429 13.42 429 L6.69 429 L6.69 421.79 L12.94 421.79 C14.39            421.79 15.36 422.75 15.36 424.21 L15.36 426.14 Z"
   class="st25"
   id="path107" />
						</g>
						<g
   id="shape3242-198"
   transform="translate(11.2072,-11.0862)">
							<title
   id="title108">Sheet.3242</title>
							<path
   d="M49.59 416.71 C49.59 403.04 38.46 391.91 24.79 391.91 C11.13 391.91 0 403.04 0 416.71 C0 430.37            11.13 441.5 24.79 441.5 C38.46 441.5 49.59 430.37 49.59 416.71 ZM24.79 437.99 C13.06 437.99            3.51 428.44 3.51 416.71 C3.51 404.98 13.06 395.42 24.79 395.42 C36.52 395.42 46.08 404.98            46.08 416.71 C46.08 428.44 36.52 437.99 24.79 437.99 Z"
   class="st25"
   id="path108" />
						</g>
						<g
   id="shape3243-201"
   transform="translate(36.6047,-36.5644)">
							<title
   id="title109">Sheet.3243</title>
							<path
   d="M1.69 414.17 C15.24 415.05 26.53 426.38 27.41 439.89 C27.49 440.81 28.26 441.5 29.15 441.5 C29.19            441.5 29.23 441.5 29.27 441.5 C30.24 441.42 30.96 440.61 30.88 439.65 C30.15 428.72 23.42            419.09 14.07 414.13 L24.95 414.13 L23.62 415.46 C22.94 416.14 22.94 417.23 23.62 417.92            C23.95 418.24 24.43 418.44 24.87 418.44 C25.32 418.44 25.76 418.28 26.12 417.92 L30.44 413.6            C31.12 412.92 31.12 411.83 30.44 411.14 L26.12 406.83 C25.44 406.15 24.35 406.15 23.66 406.83            C22.98 407.52 22.98 408.6 23.66 409.29 L24.99 410.62 L1.81 410.62 C0.89 410.62 0.08 411.39            0.08 412.31 C0 413.32 0.73 414.09 1.69 414.17 Z"
   class="st25"
   id="path109" />
						</g>
						<g
   id="shape3244-204"
   transform="translate(0,-36.5644)">
							<title
   id="title110">Sheet.3244</title>
							<path
   d="M4.47 439.77 C4.47 440.69 5.24 441.5 6.17 441.5 L6.21 441.5 C7.14 441.5 7.9 440.77 7.94 439.89            C8.83 426.34 20.16 415.05 33.66 414.17 C34.63 414.09 35.35 413.28 35.27 412.31 C35.19 411.35            34.39 410.62 33.42 410.7 C22.49 411.43 12.86 418.16 7.9 427.51 L7.9 416.63 L9.23 417.96            C9.55 418.28 10.04 418.48 10.48 418.48 C10.92 418.48 11.37 418.32 11.73 417.96 C12.42 417.27            12.42 416.18 11.73 415.5 L7.46 411.18 C6.77 410.5 5.68 410.5 5 411.18 L0.69 415.5 C0 416.18            0 417.27 0.69 417.96 C1.37 418.64 2.46 418.64 3.14 417.96 L4.47 416.63 L4.47 439.77 Z"
   class="st25"
   id="path110" />
						</g>
						<g
   id="shape3245-207"
   transform="translate(4.31355,0)">
							<title
   id="title111">Sheet.3245</title>
							<path
   d="M29.39 433.64 C15.84 432.75 4.56 421.42 3.67 407.92 C3.59 406.95 2.78 406.23 1.81 406.31 C0.85            406.39 0.12 407.19 0.2 408.16 C0.93 419.09 7.66 428.72 17.01 433.68 L6.13 433.68 L7.46 432.35            C8.14 431.66 8.14 430.58 7.46 429.89 C6.77 429.2 5.68 429.2 5 429.89 L0.69 434.2 C0 434.89            0 435.98 0.69 436.66 L5 440.98 C5.32 441.3 5.81 441.5 6.25 441.5 C6.69 441.5 7.14 441.34            7.5 440.98 C8.18 440.29 8.18 439.2 7.5 438.52 L6.17 437.19 L29.27 437.19 C30.19 437.19 31            436.42 31 435.49 C31.08 434.49 30.36 433.72 29.39 433.64 Z"
   class="st25"
   id="path111" />
						</g>
						<g
   id="shape3246-210"
   transform="translate(36.645,-4.35386)">
							<title
   id="title112">Sheet.3246</title>
							<path
   d="M34.67 434.2 C33.98 433.52 32.9 433.52 32.21 434.2 L30.88 435.53 L30.88 412.39 C30.88 411.47            30.11 410.66 29.19 410.66 L29.15 410.66 C28.22 410.66 27.45 411.39 27.41 412.27 C26.53 425.82            15.2 437.11 1.69 437.99 C0.73 438.07 0 438.88 0.08 439.85 C0.16 440.77 0.93 441.46 1.81            441.46 C1.85 441.46 1.89 441.46 1.94 441.46 C12.86 440.73 22.49 434 27.45 424.65 L27.45            435.53 L26.12 434.2 C25.44 433.52 24.35 433.52 23.66 434.2 C22.98 434.89 22.98 435.98 23.66            436.66 L27.98 440.98 C28.3 441.3 28.78 441.5 29.23 441.5 C29.67 441.5 30.11 441.34 30.48            440.98 L34.79 436.66 C35.35 435.98 35.35 434.85 34.67 434.2 Z"
   class="st25"
   id="path112" />
						</g>
					</g>
				</g>
			</g>
			<g
   id="shape3287-213"
   transform="translate(99,-34.3125)">
				<title
   id="title113">Sheet.3287</title>
				<path
   id="ellipse113"
   class="st26"
   style="fill:#ffffff;stroke:#33445b;stroke-width:5;stroke-linecap:round;stroke-linejoin:round;marker-end:url(#mrkr42-90)"
   d="m 16.875,433.06201 a 8.4375,8.4375 0 0 1 -8.4375,8.4375 8.4375,8.4375 0 0 1 -8.4375,-8.4375 8.4375,8.4375 0 0 1 8.4375,-8.4375 8.4375,8.4375 0 0 1 8.4375,8.4375 z" />
			</g>
			<g
   id="shape3293-216"
   transform="translate(89.4375,-69.1875)">
				<title
   id="title114">Sheet.3293</title>
				<path
   id="ellipse114"
   class="st26"
   style="fill:#ffffff;stroke:#33445b;stroke-width:5;stroke-linecap:round;stroke-linejoin:round;marker-end:url(#mrkr42-90)"
   d="m 16.875,433.06201 a 8.4375,8.4375 0 0 1 -8.4375,8.4375 8.4375,8.4375 0 0 1 -8.4375,-8.4375 8.4375,8.4375 0 0 1 8.4375,-8.4375 8.4375,8.4375 0 0 1 8.4375,8.4375 z" />
			</g>
			<g
   id="shape3279-219"
   transform="translate(0,-34.3125)">
				<title
   id="title115">Sheet.3279</title>
				<path
   id="ellipse115"
   class="st26"
   style="fill:#ffffff;stroke:#33445b;stroke-width:5;stroke-linecap:round;stroke-linejoin:round;marker-end:url(#mrkr42-90)"
   d="m 16.875,433.06201 a 8.4375,8.4375 0 0 1 -8.4375,8.4375 8.4375,8.4375 0 0 1 -8.4375,-8.4375 8.4375,8.4375 0 0 1 8.4375,-8.4375 8.4375,8.4375 0 0 1 8.4375,8.4375 z" />
			</g>
		</g>
		<g
   id="group3444-222"
   transform="translate(141.577,-119.25)">
			<title
   id="title116">Sheet.3444</title>
		</g>
		<g
   id="shape3313-223"
   transform="translate(848.007,-166.385)">
			<title
   id="title117">Sheet.3313</title>
			<path
   id="ellipse117"
   class="st35"
   style="fill:#ffffff;stroke:#fc0147;stroke-width:5;stroke-linecap:round;stroke-linejoin:round;marker-end:url(#mrkr42-226)"
   d="m 16.875,433.06201 a 8.4375,8.4375 0 0 1 -8.4375,8.4375 8.4375,8.4375 0 0 1 -8.4375,-8.4375 8.4375,8.4375 0 0 1 8.4375,-8.4375 8.4375,8.4375 0 0 1 8.4375,8.4375 z" />
		</g>
		<g
   id="shape3445-227"
   transform="translate(848.077,-166.5)">
			<title
   id="title118">Sheet.3445</title>
			<path
   id="ellipse118"
   class="st26"
   style="fill:#ffffff;stroke:#33445b;stroke-width:5;stroke-linecap:round;stroke-linejoin:round;marker-end:url(#mrkr42-90)"
   d="m 16.875,433.06201 a 8.4375,8.4375 0 0 1 -8.4375,8.4375 8.4375,8.4375 0 0 1 -8.4375,-8.4375 8.4375,8.4375 0 0 1 8.4375,-8.4375 8.4375,8.4375 0 0 1 8.4375,8.4375 z" />
		</g>
		<g
   id="shape3479-230"
   transform="translate(549.085,-29.25)">
			<title
   id="title119">Sheet.3479</title>
			<desc
   id="desc119">Internet</desc>
			<path
   id="rect119"
   class="st37"
   style="fill:#33445b;stroke:#1c2531;stroke-width:1.75;stroke-linecap:round;stroke-linejoin:round"
   d="m 0,401 h 156.375 v 40.5 H 0 Z" />
			<path
   d="m 6.734375,432.04999 v -25.69922 h 5.449219 v 25.69922 z M 29.392578,412.0285 q 3.146484,0 5.0625,1.72266 1.916016,1.70508 1.916016,5.48437 v 12.81446 h -5.361328 v -11.47852 q 0,-2.10937 -0.773438,-3.18164 -0.755859,-1.07226 -2.390625,-1.07226 -2.460937,0 -3.357422,1.66992 -0.896484,1.66992 -0.896484,4.8164 v 9.2461 h -5.361328 v -19.65235 h 4.095703 l 0.720703,2.51368 h 0.298828 q 0.632813,-1.01954 1.564453,-1.65235 0.949219,-0.63281 2.091797,-0.93164 1.160156,-0.29883 2.390625,-0.29883 z m 20.777344,16.10157 q 0.878906,0 1.705078,-0.17579 0.84375,-0.17578 1.669922,-0.43945 v 3.99024 q -0.861328,0.38671 -2.144531,0.63281 -1.265625,0.26367 -2.777344,0.26367 -1.757813,0 -3.164063,-0.5625 -1.388672,-0.58008 -2.197265,-1.98633 -0.791016,-1.42383 -0.791016,-3.95508 v -9.47461 h -2.566406 v -2.26757 l 2.953125,-1.79297 1.546875,-4.14844 h 3.427734 v 4.18359 h 5.501953 v 4.02539 h -5.501953 v 9.47461 q 0,1.125 0.632813,1.6875 0.65039,0.54493 1.705078,0.54493 z M 65.621094,412.0285 q 2.724609,0 4.693359,1.05469 1.96875,1.03711 3.041016,3.02344 1.072265,1.98633 1.072265,4.85156 v 2.60156 H 61.753906 q 0.08789,2.26758 1.353516,3.56836 1.283203,1.28321 3.550781,1.28321 1.880859,0 3.445313,-0.38672 1.564453,-0.38672 3.216796,-1.16016 v 4.14844 q -1.458984,0.7207 -3.058593,1.05469 -1.582032,0.33398 -3.84961,0.33398 -2.953125,0 -5.238281,-1.08984 -2.267578,-1.08985 -3.568359,-3.32227 -1.283203,-2.23242 -1.283203,-5.625 0,-3.44531 1.160156,-5.73047 1.177734,-2.30273 3.269531,-3.44531 2.091797,-1.16016 4.869141,-1.16016 z m 0.03516,3.81446 q -1.564453,0 -2.601563,1.00195 -1.019531,1.00195 -1.177734,3.14648 h 7.523438 q -0.01758,-1.19531 -0.439454,-2.12695 -0.404296,-0.93164 -1.230468,-1.47656 -0.808594,-0.54492 -2.074219,-0.54492 z m 24.099609,-3.81446 q 0.404297,0 0.931641,0.0527 0.544922,0.0352 0.878906,0.10547 l -0.404297,5.02734 q -0.263672,-0.0879 -0.755859,-0.12305 -0.474609,-0.0527 -0.826172,-0.0527 -1.037109,0 -2.021484,0.26367 -0.966797,0.26367 -1.740235,0.86133 -0.773437,0.58008 -1.230468,1.54687 -0.439454,0.94922 -0.439454,2.33789 v 10.00196 h -5.361328 v -19.65235 h 4.060547 l 0.791016,3.30469 h 0.263672 q 0.580078,-1.00195 1.441406,-1.82812 0.878906,-0.84375 1.986328,-1.33594 1.125,-0.50977 2.425781,-0.50977 z m 16.541021,0 q 3.14648,0 5.0625,1.72266 1.91601,1.70508 1.91601,5.48437 v 12.81446 h -5.36133 v -11.47852 q 0,-2.10937 -0.77343,-3.18164 -0.75586,-1.07226 -2.39063,-1.07226 -2.46094,0 -3.35742,1.66992 -0.89649,1.66992 -0.89649,4.8164 v 9.2461 h -5.361324 v -19.65235 h 4.095703 l 0.720703,2.51368 H 100.25 q 0.63281,-1.01954 1.56445,-1.65235 0.94922,-0.63281 2.0918,-0.93164 1.16016,-0.29883 2.39063,-0.29883 z m 20.60156,0 q 2.72461,0 4.69336,1.05469 1.96875,1.03711 3.04101,3.02344 1.07227,1.98633 1.07227,4.85156 v 2.60156 h -12.67383 q 0.0879,2.26758 1.35352,3.56836 1.2832,1.28321 3.55078,1.28321 1.88086,0 3.44531,-0.38672 1.56445,-0.38672 3.2168,-1.16016 v 4.14844 q -1.45899,0.7207 -3.0586,1.05469 -1.58203,0.33398 -3.84961,0.33398 -2.95312,0 -5.23828,-1.08984 -2.26758,-1.08985 -3.56836,-3.32227 -1.2832,-2.23242 -1.2832,-5.625 0,-3.44531 1.16016,-5.73047 1.17773,-2.30273 3.26953,-3.44531 2.09179,-1.16016 4.86914,-1.16016 z m 0.0352,3.81446 q -1.56445,0 -2.60156,1.00195 -1.01953,1.00195 -1.17773,3.14648 h 7.52343 q -0.0176,-1.19531 -0.43945,-2.12695 -0.4043,-0.93164 -1.23047,-1.47656 -0.80859,-0.54492 -2.07422,-0.54492 z m 21.41016,12.28711 q 0.87891,0 1.70508,-0.17579 0.84375,-0.17578 1.66992,-0.43945 v 3.99024 q -0.86133,0.38671 -2.14453,0.63281 -1.26563,0.26367 -2.77735,0.26367 -1.75781,0 -3.16406,-0.5625 -1.38867,-0.58008 -2.19726,-1.98633 -0.79102,-1.42383 -0.79102,-3.95508 v -9.47461 h -2.56641 v -2.26757 l 2.95313,-1.79297 1.54687,-4.14844 h 3.42774 v 4.18359 h 5.50195 v 4.02539 h -5.50195 v 9.47461 q 0,1.125 0.63281,1.6875 0.65039,0.54493 1.70508,0.54493 z"
   id="text119"
   class="st8"
   style="font-weight:bold;font-size:108px;font-family:'Open Sans';fill:#d8d8d8"
   aria-label="Internet" />		</g>
		<g
   id="shape3490-233"
   transform="translate(315,-81)">
			<title
   id="title120">Sheet.3490</title>
			<path
   d="M617.06 313.53 A78.75 23.625 0 0 1 608.11 303.39 C600.13 299.76 591.34 297.75 582.12 297.75 L579.57 297.75 C568.2        256.56 532.32 226.29 489.58 226.29 C470.95 226.29 453.7 232.26 439.19 242.15 C429.58 177.28 376.64 127.44        312.53 127.44 C254.89 127.44 206.26 167.39 189.99 222.58 C182.73 220.52 175.09 219.29 167.05 219.29 C123.13        219.29 86.86 253.27 80.19 297.75 L65.88 297.75 C29.61 297.75 0 328.85 0 367.15 L0 372.1 C0 410.4 29.61 441.5        65.88 441.5 L582.12 441.5 C618.39 441.5 648 410.4 648 372.1 L648 367.15 C648 351.83 643.26 337.66 635.26        326.18 L696.3 304.57 L690.29 287.6 L617.06 313.53 Z"
   class="st38"
   id="path120" />
		</g>
		<g
   id="group3480-235"
   transform="translate(190.5,-144)">
			<title
   id="title121">Sheet.3480</title>
			<g
   id="group3481-236">
				<title
   id="title122">Sheet.3481</title>
				<g
   id="group3482-237">
					<title
   id="title123">Sheet.3482</title>
					<g
   id="shape3483-238"
   transform="translate(-46.6509,3.67675) rotate(-6.22205)">
						<title
   id="title124">Rounded Rectangle.3438</title>
						<path
   d="M10.5 441.5 L202.72 441.5 A10.4986 10.4986 -180 0 0 213.22 431 A10.4986 10.4986 -180 0 0 202.72           420.5 L10.5 420.5 A10.4986 10.4986 -180 0 0 -0 431 A10.4986 10.4986 -180 0 0 10.5 441.5 Z"
   class="st39"
   id="path124" />
					</g>
					<g
   id="shape3484-240"
   transform="translate(192.589,-20.9156)">
						<title
   id="title125">Rounded Rectangle.3440</title>
						<path
   d="M10.69 441.5 L467.9 441.5 A10.6873 10.6873 -180 0 0 478.59 430.81 A10.6873 10.6873 -180 0 0 467.9           420.12 L10.69 420.12 A10.6873 10.6873 -180 0 0 -0 430.81 A10.6873 10.6873 -180 0 0 10.69 441.5           Z"
   class="st40"
   id="path125" />
					</g>
					<g
   id="shape3485-242"
   transform="translate(514.893,6.24358) rotate(-19.1014)">
						<title
   id="title126">Rounded Rectangle.3443</title>
						<path
   d="M10.36 441.5 L160.54 441.5 A10.3575 10.3575 -180 0 0 170.9 431.14 L170.9 430.91 A10.3575 10.3575           -180 0 0 160.54 420.55 L10.36 420.55 A10.3575 10.3575 -180 0 0 0 430.91 L0 431.14 A10.3575 10.3575           -180 0 0 10.36 441.5 Z"
   class="st39"
   id="path126" />
					</g>
				</g>
				<g
   id="shape3486-244"
   transform="translate(301.5,-5.53853)">
					<title
   id="title127">Sheet.3486</title>
					<desc
   id="desc127">Zero Trust Connection</desc>
					<path
   id="rect127"
   class="st41"
   style="stroke-width:2;stroke-linecap:round;stroke-linejoin:round"
   d="m 0,400.914 h 274.5 v 40.5865 H 0 Z" />
					<path
   d="m 45.989999,411.02999 -6.3,7.56 h 6.3 v 2.52 h -10.26 v -2.52 l 6.3,-7.56 h -6.3 v -2.52 h 10.26 z m 4.950011,2.61 q -0.72,0 -0.72,0.72 v 0.99 h 3.06 v -0.99 q 0,-0.72 -0.72,-0.72 z m 5.13,7.29 q -3.474,0.36 -6.3,0.36 -1.224,0 -1.962,-0.738 -0.738,-0.738 -0.738,-1.962 v -4.32 q 0,-1.35 0.756,-2.106 0.774,-0.774 2.124,-0.774 h 3.6 q 1.35,0 2.106,0.774 0.774,0.756 0.774,2.106 v 3.33 h -6.21 v 0.72 q 0,0.27 0.18,0.45 0.18,0.18 0.45,0.18 1.782,0 5.22,-0.27 z m 7.470007,-6.75 q -1.134,0 -2.34,0.54 v 6.39 h -3.15 v -9.54 h 2.79 l 0.18,1.17 q 1.548,-1.35 3.24,-1.35 h 0.81 v 2.79 z m 12.149975,4.23 q 0,1.35 -0.774,2.124 -0.756,0.756 -2.106,0.756 h -4.14 q -1.35,0 -2.124,-0.756 -0.756,-0.774 -0.756,-2.124 v -4.14 q 0,-1.35 0.756,-2.106 0.774,-0.774 2.124,-0.774 h 4.14 q 1.35,0 2.106,0.774 0.774,0.756 0.774,2.106 z m -3.15,-3.87 q 0,-0.72 -0.72,-0.72 h -2.16 q -0.72,0 -0.72,0.72 v 3.6 q 0,0.72 0.72,0.72 h 2.16 q 0.72,0 0.72,-0.72 z m 16.469971,6.57 h -3.24 v -10.08 h -3.78 v -2.52 h 10.8 v 2.52 h -3.78 z m 9.450029,-6.93 q -1.134,0 -2.34,0.54 v 6.39 h -3.15 v -9.54 h 2.79 l 0.18,1.17 q 1.548,-1.35 3.24,-1.35 h 0.81 v 2.79 z m 7.199988,4.5 q 0.954,0 2.16,-0.36 v -6.75 h 3.15 v 9.54 h -2.79 l -0.18,-0.9 q -0.846,0.558 -1.746,0.828 -0.882,0.252 -1.494,0.252 h -0.81 q -1.224,0 -1.962,-0.738 -0.738,-0.738 -0.738,-1.962 v -7.02 h 3.15 v 6.48 q 0,0.27 0.18,0.45 0.18,0.18 0.45,0.18 z m 6.74999,-0.09 q 3.654,0.27 5.76,0.27 0.27,0 0.45,-0.18 0.18,-0.18 0.18,-0.45 v -0.63 h -3.87 q -1.224,0 -1.962,-0.738 -0.738,-0.738 -0.738,-1.962 v -0.63 q 0,-1.224 0.738,-1.962 0.738,-0.738 1.962,-0.738 h 6.12 v 2.34 h -5.04 q -0.27,0 -0.45,0.18 -0.18,0.18 -0.18,0.45 0,0.27 0.18,0.45 0.18,0.18 0.45,0.18 h 3.24 q 1.224,0 1.962,0.738 0.738,0.738 0.738,1.962 v 0.72 q 0,1.224 -0.738,1.962 -0.738,0.738 -1.962,0.738 -3.186,0 -6.84,-0.36 z m 17.45999,2.52 q -1.746,0.18 -3.42,0.18 -1.224,0 -1.962,-0.738 -0.738,-0.738 -0.738,-1.962 v -4.59 h -1.08 v -2.43 h 1.08 l 0.36,-2.16 h 2.79 v 2.16 h 2.25 v 2.43 h -2.25 v 4.14 q 0,0.27 0.18,0.45 0.18,0.18 0.45,0.18 h 2.34 z m 16.56,-0.18 q -4.014,0.36 -6.66,0.36 -1.764,0 -2.592,-0.828 -0.828,-0.828 -0.828,-2.592 v -5.76 q 0,-1.89 0.846,-2.736 0.864,-0.864 2.754,-0.864 h 6.48 v 2.52 h -5.76 q -1.08,0 -1.08,1.08 v 5.76 q 0,0.414 0.234,0.666 0.252,0.234 0.63,0.234 0.378,0 0.828,0 0.45,-0.018 0.936,-0.036 0.486,-0.018 0.972,-0.036 0.504,-0.018 1.278,-0.072 0.792,-0.054 1.962,-0.126 z m 10.98001,-2.52 q 0,1.35 -0.774,2.124 -0.756,0.756 -2.106,0.756 h -4.14 q -1.35,0 -2.124,-0.756 -0.756,-0.774 -0.756,-2.124 v -4.14 q 0,-1.35 0.756,-2.106 0.774,-0.774 2.124,-0.774 h 4.14 q 1.35,0 2.106,0.774 0.774,0.756 0.774,2.106 z m -3.15,-3.87 q 0,-0.72 -0.72,-0.72 h -2.16 q -0.72,0 -0.72,0.72 v 3.6 q 0,0.72 0.72,0.72 h 2.16 q 0.72,0 0.72,-0.72 z m 10.07999,-0.54 q -0.954,0 -2.16,0.36 v 6.75 h -3.15 v -9.54 h 2.79 l 0.18,0.9 q 0.846,-0.558 1.728,-0.81 0.9,-0.27 1.512,-0.27 h 0.81 q 1.224,0 1.962,0.738 0.738,0.738 0.738,1.962 v 7.02 h -3.15 v -6.48 q 0,-0.27 -0.18,-0.45 -0.18,-0.18 -0.45,-0.18 z m 11.33998,0 q -0.954,0 -2.16,0.36 v 6.75 h -3.15 v -9.54 h 2.79 l 0.18,0.9 q 0.846,-0.558 1.728,-0.81 0.9,-0.27 1.512,-0.27 h 0.81 q 1.224,0 1.962,0.738 0.738,0.738 0.738,1.962 v 7.02 h -3.15 v -6.48 q 0,-0.27 -0.18,-0.45 -0.18,-0.18 -0.45,-0.18 z m 9.71999,-0.36 q -0.72,0 -0.72,0.72 v 0.99 h 3.06 v -0.99 q 0,-0.72 -0.72,-0.72 z m 5.13,7.29 q -3.474,0.36 -6.3,0.36 -1.224,0 -1.962,-0.738 -0.738,-0.738 -0.738,-1.962 v -4.32 q 0,-1.35 0.756,-2.106 0.774,-0.774 2.124,-0.774 h 3.6 q 1.35,0 2.106,0.774 0.774,0.756 0.774,2.106 v 3.33 h -6.21 v 0.72 q 0,0.27 0.18,0.45 0.18,0.18 0.45,0.18 1.782,0 5.22,-0.27 z m 10.44,0 q -3.366,0.36 -5.94,0.36 -1.224,0 -1.962,-0.738 -0.738,-0.738 -0.738,-1.962 v -4.14 q 0,-1.35 0.756,-2.106 0.774,-0.774 2.124,-0.774 h 5.76 v 2.43 h -4.77 q -0.72,0 -0.72,0.72 v 3.51 q 0,0.27 0.18,0.45 0.18,0.18 0.45,0.18 1.62,0 4.86,-0.27 z m 8.09999,0.18 q -1.746,0.18 -3.42,0.18 -1.224,0 -1.962,-0.738 -0.738,-0.738 -0.738,-1.962 v -4.59 h -1.08 v -2.43 h 1.08 l 0.36,-2.16 h 2.79 v 2.16 h 2.25 v 2.43 h -2.25 v 4.14 q 0,0.27 0.18,0.45 0.18,0.18 0.45,0.18 h 2.34 z m 4.86,-9.18 v 9.18 h -3.15 v -6.75 h -1.35 v -2.43 z m -3.15,-3.6 h 3.15 v 2.52 h -3.15 z m 14.66999,10.08 q 0,1.35 -0.774,2.124 -0.756,0.756 -2.106,0.756 h -4.14 q -1.35,0 -2.124,-0.756 -0.756,-0.774 -0.756,-2.124 v -4.14 q 0,-1.35 0.756,-2.106 0.774,-0.774 2.124,-0.774 h 4.14 q 1.35,0 2.106,0.774 0.774,0.756 0.774,2.106 z m -3.15,-3.87 q 0,-0.72 -0.72,-0.72 h -2.16 q -0.72,0 -0.72,0.72 v 3.6 q 0,0.72 0.72,0.72 h 2.16 q 0.72,0 0.72,-0.72 z m 10.07999,-0.54 q -0.954,0 -2.16,0.36 v 6.75 h -3.15 v -9.54 h 2.79 l 0.18,0.9 q 0.846,-0.558 1.728,-0.81 0.9,-0.27 1.512,-0.27 h 0.81 q 1.224,0 1.962,0.738 0.738,0.738 0.738,1.962 v 7.02 h -3.15 v -6.48 q 0,-0.27 -0.18,-0.45 -0.18,-0.18 -0.45,-0.18 z"
   id="text127"
   class="st42"
   style="font-size:27px;font-family:'Russo One';fill:#d8d8d8"
   aria-label="Zero Trust Connection" />				</g>
			</g>
			<g
   id="shape3487-247"
   transform="translate(657.284,-23.1656)">
				<title
   id="title128">Sheet.3487</title>
				<path
   id="ellipse128"
   class="st43"
   style="fill:#ffffff;stroke:#6c022d;stroke-width:5;stroke-linecap:round;stroke-linejoin:round;marker-end:url(#mrkr42-250)"
   d="m 16.875,433.06201 a 8.4375,8.4375 0 0 1 -8.4375,8.4375 8.4375,8.4375 0 0 1 -8.4375,-8.4375 8.4375,8.4375 0 0 1 8.4375,-8.4375 8.4375,8.4375 0 0 1 8.4375,8.4375 z" />
			</g>
			<g
   id="shape3488-251"
   transform="translate(194.909,-23.1656)">
				<title
   id="title129">Sheet.3488</title>
				<path
   id="ellipse129"
   class="st43"
   style="fill:#ffffff;stroke:#6c022d;stroke-width:5;stroke-linecap:round;stroke-linejoin:round;marker-end:url(#mrkr42-250)"
   d="m 16.875,433.06201 a 8.4375,8.4375 0 0 1 -8.4375,8.4375 8.4375,8.4375 0 0 1 -8.4375,-8.4375 8.4375,8.4375 0 0 1 8.4375,-8.4375 8.4375,8.4375 0 0 1 8.4375,8.4375 z" />
			</g>
		</g>
		<g
   id="group3491-254"
   transform="translate(120.621,-153)">
			<title
   id="title130">Sheet.3491</title>
			<g
   id="shape3492-255">
				<title
   id="title131">Empty Circle</title>
				<path
   id="ellipse131"
   class="st24"
   style="fill:#f2f2f2;stroke:#33445b;stroke-width:3;stroke-linecap:round;stroke-linejoin:round"
   d="M 32.378799,425.311 A 16.1894,16.1894 0 0 1 16.1894,441.5004 16.1894,16.1894 0 0 1 0,425.311 16.1894,16.1894 0 0 1 16.1894,409.1216 16.1894,16.1894 0 0 1 32.378799,425.311 Z" />
			</g>
			<g
   id="group3493-257"
   transform="translate(5.68047,-5.30178)">
				<title
   id="title132">e2ee</title>
				<g
   id="group3494-258"
   transform="translate(10.9725,-7.83298)">
					<title
   id="title133">Sheet.3494</title>
					<g
   id="shape3495-259">
						<title
   id="title134">Sheet.3495</title>
					</g>
				</g>
				<g
   id="group3496-260">
					<title
   id="title135">Sheet.3496</title>
					<g
   id="shape3497-261">
						<title
   id="title136">Sheet.3497</title>
						<path
   d="M17.57 427.12 L17.57 423.73 C17.57 419.96 14.65 416.76 10.88 416.62 C6.92 416.46 3.66 419.65 3.66           423.57 L3.66 427.14 L0.3 427.14 C0.14 427.14 0 427.26 0 427.44 L0 441.2 C0 441.36 0.13 441.5           0.3 441.5 L7.97 441.5 C8.13 441.5 8.27 441.37 8.27 441.2 L8.27 439.29 C8.27 439.13 8.15 438.99           7.97 438.99 L3.05 438.99 L3.05 435.28 L7.61 435.28 C7.77 435.28 7.91 435.16 7.91 434.99 L7.91           433.09 C7.91 432.93 7.79 432.79 7.61 432.79 L3.05 432.79 L3.05 429.63 L7.97 429.63 C8.13 429.63           8.27 429.51 8.27 429.33 L8.27 427.44 C8.27 427.28 8.15 427.14 7.97 427.14 L6.11 427.14 L6.11           423.7 C6.11 421.36 7.83 419.3 10.17 419.08 C12.84 418.83 15.1 420.94 15.1 423.56 L15.1 427.12           L13.23 427.12 C13.08 427.12 12.93 427.25 12.93 427.42 L12.93 429.32 C12.93 429.48 13.06 429.62           13.23 429.62 L18.16 429.62 L18.16 432.77 L13.59 432.77 C13.44 432.77 13.3 432.9 13.3 433.07           L13.3 434.97 C13.3 435.13 13.42 435.27 13.59 435.27 L18.16 435.27 L18.16 438.97 L13.23 438.97           C13.08 438.97 12.93 439.1 12.93 439.27 L12.93 441.19 C12.93 441.34 13.06 441.48 13.23 441.48           L20.91 441.48 C21.07 441.48 21.21 441.36 21.21 441.19 L21.21 427.42 C21.21 427.26 21.08 427.12           20.91 427.12 C20.91 427.12 17.57 427.12 17.57 427.12 Z"
   class="st45"
   id="path136" />
					</g>
					<g
   id="shape3498-265"
   transform="translate(9.37132,-6.23185)">
						<title
   id="title137">Sheet.3498</title>
						<path
   d="M0.28 441.5 L2.21 441.5 C2.37 441.5 2.5 441.37 2.5 441.22 L2.5 439.29 C2.5 439.13 2.37 439 2.21           439 L0.28 439 C0.13 439 0 439.13 0 439.29 L0 441.22 C0 441.37 0.13 441.5 0.28 441.5 Z"
   class="st45"
   id="path137" />
					</g>
				</g>
			</g>
		</g>
		<g
   id="group3499-268"
   transform="translate(1038.62,-234)">
			<title
   id="title138">Sheet.3499</title>
			<g
   id="shape3500-269">
				<title
   id="title139">Empty Circle</title>
				<path
   id="ellipse139"
   class="st24"
   style="fill:#f2f2f2;stroke:#33445b;stroke-width:3;stroke-linecap:round;stroke-linejoin:round"
   d="M 32.378799,425.311 A 16.1894,16.1894 0 0 1 16.1894,441.5004 16.1894,16.1894 0 0 1 0,425.311 16.1894,16.1894 0 0 1 16.1894,409.1216 16.1894,16.1894 0 0 1 32.378799,425.311 Z" />
			</g>
			<g
   id="group3501-271"
   transform="translate(5.68047,-5.30178)">
				<title
   id="title140">e2ee</title>
				<g
   id="group3502-272"
   transform="translate(10.9725,-7.83298)">
					<title
   id="title141">Sheet.3502</title>
					<g
   id="shape3503-273">
						<title
   id="title142">Sheet.3503</title>
					</g>
				</g>
				<g
   id="group3504-274">
					<title
   id="title143">Sheet.3504</title>
					<g
   id="shape3505-275">
						<title
   id="title144">Sheet.3505</title>
						<path
   d="M17.57 427.12 L17.57 423.73 C17.57 419.96 14.65 416.76 10.88 416.62 C6.92 416.46 3.66 419.65 3.66           423.57 L3.66 427.14 L0.3 427.14 C0.14 427.14 0 427.26 0 427.44 L0 441.2 C0 441.36 0.13 441.5           0.3 441.5 L7.97 441.5 C8.13 441.5 8.27 441.37 8.27 441.2 L8.27 439.29 C8.27 439.13 8.15 438.99           7.97 438.99 L3.05 438.99 L3.05 435.28 L7.61 435.28 C7.77 435.28 7.91 435.16 7.91 434.99 L7.91           433.09 C7.91 432.93 7.79 432.79 7.61 432.79 L3.05 432.79 L3.05 429.63 L7.97 429.63 C8.13 429.63           8.27 429.51 8.27 429.33 L8.27 427.44 C8.27 427.28 8.15 427.14 7.97 427.14 L6.11 427.14 L6.11           423.7 C6.11 421.36 7.83 419.3 10.17 419.08 C12.84 418.83 15.1 420.94 15.1 423.56 L15.1 427.12           L13.23 427.12 C13.08 427.12 12.93 427.25 12.93 427.42 L12.93 429.32 C12.93 429.48 13.06 429.62           13.23 429.62 L18.16 429.62 L18.16 432.77 L13.59 432.77 C13.44 432.77 13.3 432.9 13.3 433.07           L13.3 434.97 C13.3 435.13 13.42 435.27 13.59 435.27 L18.16 435.27 L18.16 438.97 L13.23 438.97           C13.08 438.97 12.93 439.1 12.93 439.27 L12.93 441.19 C12.93 441.34 13.06 441.48 13.23 441.48           L20.91 441.48 C21.07 441.48 21.21 441.36 21.21 441.19 L21.21 427.42 C21.21 427.26 21.08 427.12           20.91 427.12 C20.91 427.12 17.57 427.12 17.57 427.12 Z"
   class="st45"
   id="path144" />
					</g>
					<g
   id="shape3506-278"
   transform="translate(9.37132,-6.23185)">
						<title
   id="title145">Sheet.3506</title>
						<path
   d="M0.28 441.5 L2.21 441.5 C2.37 441.5 2.5 441.37 2.5 441.22 L2.5 439.29 C2.5 439.13 2.37 439 2.21           439 L0.28 439 C0.13 439 0 439.13 0 439.29 L0 441.22 C0 441.37 0.13 441.5 0.28 441.5 Z"
   class="st45"
   id="path145" />
					</g>
				</g>
			</g>
		</g>
	</g>
</svg>
