<?xml version="1.0" encoding="UTF-8" standalone="no"?>
<!-- Generated by Microsoft Visio, SVG Export step2.svg appetizer-step4 -->

<svg
   width="19.4498in"
   height="6.13194in"
   viewBox="0 0 1400.39 441.5"
   xml:space="preserve"
   color-interpolation-filters="sRGB"
   class="st43"
   version="1.1"
   id="svg130"
   sodipodi:docname="step2.svg"
   inkscape:version="1.3.1 (91b66b0783, 2023-11-16)"
   xmlns:inkscape="http://www.inkscape.org/namespaces/inkscape"
   xmlns:sodipodi="http://sodipodi.sourceforge.net/DTD/sodipodi-0.dtd"
   xmlns:xlink="http://www.w3.org/1999/xlink"
   xmlns="http://www.w3.org/2000/svg"
   xmlns:svg="http://www.w3.org/2000/svg"><sodipodi:namedview
   id="namedview130"
   pagecolor="#ffffff"
   bordercolor="#000000"
   borderopacity="0.25"
   inkscape:showpageshadow="2"
   inkscape:pageopacity="0.0"
   inkscape:pagecheckerboard="0"
   inkscape:deskcolor="#d1d1d1"
   inkscape:document-units="in"
   inkscape:zoom="1.1129077"
   inkscape:cx="933.59042"
   inkscape:cy="294.72344"
   inkscape:window-width="2560"
   inkscape:window-height="1369"
   inkscape:window-x="1912"
   inkscape:window-y="-8"
   inkscape:window-maximized="1"
   inkscape:current-layer="svg130" />
	<style
   type="text/css"
   id="style1">
	<![CDATA[
		.st1 {fill:#f2f2f2;stroke:#595959;stroke-linecap:round;stroke-linejoin:round;stroke-width:0.5}
		.st2 {visibility:visible}
		.st3 {fill:#7f7f7f;fill-opacity:0.4;filter:url(#filter_5.3333334922791);stroke:#7f7f7f;stroke-linecap:round;stroke-linejoin:round;stroke-opacity:0.4}
		.st4 {fill:#f2f2f2;stroke:#7f7f7f;stroke-linecap:round;stroke-linejoin:round;stroke-width:1.75}
		.st5 {fill:url(#grad0-11);stroke:#7f7f7f;stroke-linecap:round;stroke-linejoin:round;stroke-width:1.75}
		.st6 {fill:#595959;font-family:Open Sans;font-size:3em;font-weight:bold}
		.st7 {fill:#ffe0b3;stroke:#e68a00;stroke-linecap:round;stroke-linejoin:round;stroke-width:2}
		.st8 {fill:#a86a33;font-family:Russo One;font-size:1.99999em}
		.st9 {fill:#ddecff;stroke:#0068f9;stroke-dasharray:6,6;stroke-linecap:round;stroke-linejoin:round;stroke-width:2}
		.st10 {fill:#595959;font-family:Russo One;font-size:3em}
		.st11 {stroke:#595959;stroke-linecap:round;stroke-linejoin:round;stroke-width:12}
		.st12 {fill:#f2f2f2;stroke:#595959;stroke-linecap:round;stroke-linejoin:round;stroke-width:3}
		.st13 {fill:url(#grad0-39);stroke:none;stroke-linecap:butt;stroke-width:2.04}
		.st14 {fill:#ffffff;marker-end:url(#mrkr42-58);stroke:#595959;stroke-linecap:round;stroke-linejoin:round;stroke-width:5}
		.st15 {fill:#595959;fill-opacity:1;stroke:#595959;stroke-opacity:1;stroke-width:0.66489361702128}
		.st16 {fill:#ffffff;stroke:#bfbfbf;stroke-linecap:round;stroke-linejoin:round;stroke-width:0.75}
		.st17 {fill:none;stroke:none;stroke-linecap:round;stroke-linejoin:round;stroke-width:1.75}
		.st18 {fill:url(#grad0-108);stroke:none;stroke-linecap:butt;stroke-width:2.04}
		.st19 {fill:url(#grad0-112);stroke:none;stroke-linecap:butt;stroke-width:2.04}
		.st20 {fill:url(#grad0-116);stroke:none;stroke-linecap:butt;stroke-width:2.04}
		.st21 {fill:url(#grad0-120);stroke:none;stroke-linecap:butt;stroke-width:2.04}
		.st22 {fill:#ffffff;stroke:#595959;stroke-linecap:round;stroke-linejoin:round;stroke-width:3.25}
		.st23 {fill:none;stroke:none;stroke-linecap:round;stroke-linejoin:round;stroke-width:0.5}
		.st24 {fill:#595959;font-family:Russo One;font-size:1.99999em}
		.st25 {fill:#ffffff;stroke:#a5a5a5;stroke-linecap:round;stroke-linejoin:round;stroke-width:2}
		.st26 {fill:#bfbfbf;font-family:Russo One;font-size:3em}
		.st27 {fill:#f2f2f2;stroke:#a5a5a5;stroke-linecap:butt;stroke-width:1.50369}
		.st28 {fill:#f2f2f2;stroke:#a5a5a5;stroke-linecap:butt;stroke-width:3.38029}
		.st29 {stroke:#fc2d81;stroke-linecap:round;stroke-linejoin:round;stroke-width:12}
		.st30 {fill:#ffffff;marker-end:url(#mrkr42-195);stroke:#fc0147;stroke-linecap:round;stroke-linejoin:round;stroke-width:5}
		.st31 {fill:#fc0147;fill-opacity:1;stroke:#fc0147;stroke-opacity:1;stroke-width:0.66489361702128}
		.st32 {fill:#ffffff;stroke:#595959;stroke-linecap:round;stroke-linejoin:round;stroke-width:1}
		.st33 {fill:#595959;font-family:Open Sans;font-size:1.5em;font-weight:bold}
		.st34 {fill:#ffc6d6;stroke:#595959;stroke-dasharray:6,6;stroke-linecap:round;stroke-linejoin:round;stroke-width:2}
		.st35 {fill:#0273fb;stroke:none;stroke-linecap:butt;stroke-width:1.50369}
		.st36 {fill:none;stroke:#158aff;stroke-linecap:butt;stroke-width:3.38029}
		.st37 {fill:#6140b5;fill-opacity:0.98;stroke:none;stroke-linecap:butt;stroke-width:1.50369}
		.st38 {fill:none;stroke:#664dc4;stroke-linecap:butt;stroke-opacity:0.98;stroke-width:3.38029}
		.st39 {fill:#ff0d49;fill-opacity:0.98;stroke:none;stroke-linecap:butt;stroke-width:1.50369}
		.st40 {fill:none;stroke:#fc2d81;stroke-linecap:butt;stroke-opacity:0.98;stroke-width:3.38029}
		.st41 {fill:#ffffff;stroke:none;stroke-linecap:butt;stroke-width:1.50369}
		.st42 {fill:url(#grad0-235);stroke:none;stroke-linecap:butt;stroke-width:2.04}
		.st43 {fill:none;fill-rule:evenodd;font-size:12px;overflow:visible;stroke-linecap:square;stroke-miterlimit:3}
	]]>
	</style>

	<defs
   id="Patterns_And_Gradients">
		<linearGradient
   id="grad0-11"
   x1="0"
   y1="0"
   x2="1"
   y2="0"
   gradientTransform="rotate(240 0.5 0.5)">
			<stop
   offset="0"
   stop-color="#fc0147"
   stop-opacity="0.15"
   id="stop1" />
			<stop
   offset="1"
   stop-color="#0068f9"
   stop-opacity="0.15"
   id="stop2" />
		</linearGradient>
		<linearGradient
   id="grad0-39"
   x1="0"
   y1="0"
   x2="1"
   y2="0"
   gradientTransform="rotate(50 0.5 0.5)">
			<stop
   offset="0.34"
   stop-color="#0068f9"
   stop-opacity="1"
   id="stop3" />
			<stop
   offset="0.86"
   stop-color="#fc0147"
   stop-opacity="1"
   id="stop4" />
		</linearGradient>
		<linearGradient
   id="grad0-108"
   x1="0"
   y1="0"
   x2="1"
   y2="0"
   gradientTransform="rotate(-118.14215319877 0.5 0.5)">
			<stop
   offset="0.005"
   stop-color="#fc0147"
   stop-opacity="1"
   id="stop5" />
			<stop
   offset="0.04"
   stop-color="#f4044d"
   stop-opacity="1"
   id="stop6" />
			<stop
   offset="0.9"
   stop-color="#0068f9"
   stop-opacity="1"
   id="stop7" />
		</linearGradient>
		<linearGradient
   id="grad0-112"
   x1="0"
   y1="0"
   x2="1"
   y2="0"
   gradientTransform="rotate(-135 0.5 0.5)">
			<stop
   offset="0.005"
   stop-color="#fc0147"
   stop-opacity="1"
   id="stop8" />
			<stop
   offset="0.04"
   stop-color="#f4044d"
   stop-opacity="1"
   id="stop9" />
			<stop
   offset="0.9"
   stop-color="#0068f9"
   stop-opacity="1"
   id="stop10" />
		</linearGradient>
		<linearGradient
   id="grad0-116"
   x1="0"
   y1="0"
   x2="1"
   y2="0"
   gradientTransform="rotate(-112.38354531203 0.5 0.5)">
			<stop
   offset="0.005"
   stop-color="#fc0147"
   stop-opacity="1"
   id="stop11" />
			<stop
   offset="0.04"
   stop-color="#f4044d"
   stop-opacity="1"
   id="stop12" />
			<stop
   offset="0.9"
   stop-color="#0068f9"
   stop-opacity="1"
   id="stop13" />
		</linearGradient>
		<linearGradient
   id="grad0-120"
   x1="0"
   y1="0"
   x2="1"
   y2="0"
   gradientTransform="rotate(-112.40744476367 0.5 0.5)">
			<stop
   offset="0.005"
   stop-color="#fc0147"
   stop-opacity="1"
   id="stop14" />
			<stop
   offset="0.04"
   stop-color="#f4044d"
   stop-opacity="1"
   id="stop15" />
			<stop
   offset="0.9"
   stop-color="#0068f9"
   stop-opacity="1"
   id="stop16" />
		</linearGradient>
		<linearGradient
   id="grad0-235"
   x1="0"
   y1="0"
   x2="1"
   y2="0"
   gradientTransform="rotate(50 0.5 0.5)">
			<stop
   offset="0.23"
   stop-color="#fc0147"
   stop-opacity="1"
   id="stop17" />
			<stop
   offset="0.86"
   stop-color="#0068f9"
   stop-opacity="1"
   id="stop18" />
		</linearGradient>
	</defs>
	<defs
   id="Markers">
		<g
   id="lend42">
			<path
   d="M 0 0.75 C -0.414214 0.75 -0.75 0.414214 -0.75 0 -0.75 -0.414214 -0.414214 -0.75 0 -0.75 0.414214 -0.75 0.75 -0.414214 0.75 0 0.75 0.414214 0.414214 0.75 0 0.75 Z "
   style="stroke:none"
   id="path18" />
		</g>
		<marker
   id="mrkr42-58"
   class="st15"
   refX="-1.128"
   orient="auto"
   markerUnits="strokeWidth"
   overflow="visible">
			<use
   xlink:href="#lend42"
   transform="scale(-1.504,-1.504) "
   id="use18" />
		</marker>
		<marker
   id="mrkr42-195"
   class="st31"
   refX="-1.128"
   orient="auto"
   markerUnits="strokeWidth"
   overflow="visible">
			<use
   xlink:href="#lend42"
   transform="scale(-1.504,-1.504) "
   id="use19" />
		</marker>
	</defs>
	<defs
   id="Filters">
		<filter
   id="filter_5.3333334922791"
   x="-0.017901127"
   y="-0.037196555"
   width="1.0358023"
   height="1.0743931">
			<feGaussianBlur
   stdDeviation="5.3333334922791"
   id="feGaussianBlur19" />
		</filter>
	</defs>
	<g
   id="g130">
		<title
   id="title19">appetizer-step2</title>
		<g
   id="shape2873-1"
   transform="translate(0.25,-0.25)">
			<title
   id="title20">Rounded Rectangle.245</title>
			<path
   d="M0 441.5 L1399.89 441.5 L1399.89 0.5 L0 0.5 L0 441.5 Z"
   class="st1"
   id="path20" />
		</g>
		<g
   id="shape2874-3"
   transform="translate(265.136,-62.1273)">
			<title
   id="title21">Sheet.2874</title>
			<g
   id="shadow2874-4"
   transform="matrix(1.06,0,0,1.06,-22.2892,-15.7632)"
   class="st2">
				<path
   d="M217.83 192.26 C209.52 189.92 200.75 188.51 191.53 188.51 C141.18 188.51 99.59 227.2 91.94 277.84 L91.94         277.84 L75.53 277.84 L75.53 277.84 C33.95 277.84 0 313.25 0 356.86 L0 356.86 L0 362.49 L0 362.49 C-0         406.1 33.95 441.5 75.53 441.5 L75.53 441.5 L667.44 441.5 L667.44 441.5 C709.03 441.5 742.97 406.1 742.97         362.49 L742.97 362.49 L742.97 356.86 L742.97 356.86 C742.97 313.25 709.03 277.84 667.44 277.84 L667.44         277.84 L664.52 277.84 L664.52 277.84 C651.48 230.95 610.34 196.48 561.33 196.48 C539.98 196.48 520.19         203.28 503.56 214.54 C492.54 140.68 431.85 83.94 358.34 83.94 C292.24 83.94 236.49 129.43 217.83 192.26         Z"
   class="st3"
   id="path21" />
			</g>
			<path
   d="M217.83 192.26 C209.52 189.92 200.75 188.51 191.53 188.51 C141.18 188.51 99.59 227.2 91.94 277.84 L91.94 277.84        L75.53 277.84 L75.53 277.84 C33.95 277.84 0 313.25 0 356.86 L0 356.86 L0 362.49 L0 362.49 C-0 406.1 33.95        441.5 75.53 441.5 L75.53 441.5 L667.44 441.5 L667.44 441.5 C709.03 441.5 742.97 406.1 742.97 362.49 L742.97        362.49 L742.97 356.86 L742.97 356.86 C742.97 313.25 709.03 277.84 667.44 277.84 L667.44 277.84 L664.52 277.84        L664.52 277.84 C651.48 230.95 610.34 196.48 561.33 196.48 C539.98 196.48 520.19 203.28 503.56 214.54 C492.54        140.68 431.85 83.94 358.34 83.94 C292.24 83.94 236.49 129.43 217.83 192.26 Z"
   class="st4"
   id="path22" />
		</g>
		<g
   id="shape3206-8"
   transform="translate(335.452,-84.2599)">
			<title
   id="title22">Sheet.3206</title>
			<desc
   id="desc22">OpenZiti Overlay</desc>
			<path
   d="M174.89 241.4 C168.21 239.52 161.17 238.39 153.77 238.39 C113.34 238.39 79.95 269.45 73.82 310.11 L73.82 310.11        L60.64 310.11 L60.64 310.11 C27.25 310.11 0 338.53 0 373.55 L0 373.55 L0 378.06 L0 378.06 C-0 413.08 27.25        441.5 60.64 441.5 L60.64 441.5 L535.85 441.5 L535.85 441.5 C569.23 441.5 596.49 413.08 596.49 378.06 L596.49        378.06 L596.49 373.55 L596.49 373.55 C596.49 338.53 569.23 310.11 535.85 310.11 L535.85 310.11 L533.5 310.11        L533.5 310.11 C523.03 272.46 490 244.79 450.66 244.79 C433.51 244.79 417.63 250.25 404.28 259.29 C395.43        199.99 346.7 154.44 287.69 154.44 C234.62 154.44 189.86 190.96 174.89 241.4 Z"
   class="st5"
   id="path23" />
			<path
   d="m 161.41055,413.81525 q 0,2.9707 -0.73828,5.41406 -0.73828,2.42578 -2.25,4.18359 -1.49414,1.75782 -3.79687,2.70703 -2.30274,0.93164 -5.44922,0.93164 -3.14649,0 -5.44922,-0.93164 -2.30274,-0.94921 -3.81445,-2.70703 -1.49414,-1.75781 -2.23243,-4.20117 -0.73828,-2.44336 -0.73828,-5.43164 0,-3.99023 1.30078,-6.94336 1.31836,-2.9707 4.04297,-4.60547 2.72461,-1.63476 6.92578,-1.63476 4.1836,0 6.87305,1.63476 2.70703,1.63477 4.00781,4.60547 1.31836,2.9707 1.31836,6.97852 z m -18.75586,0 q 0,2.68945 0.66797,4.64062 0.68555,1.9336 2.12696,2.98828 1.4414,1.03711 3.72656,1.03711 2.32031,0 3.76172,-1.03711 1.4414,-1.05468 2.09179,-2.98828 0.66797,-1.95117 0.66797,-4.64062 0,-4.04297 -1.51172,-6.36328 -1.51172,-2.32032 -4.97461,-2.32032 -2.30273,0 -3.76171,1.05469 -1.44141,1.03711 -2.12696,2.98828 -0.66797,1.9336 -0.66797,4.64063 z m 34.59375,-7.13672 q 3.32227,0 5.36133,2.58398 2.05664,2.58399 2.05664,7.57617 0,3.33985 -0.96679,5.625 -0.9668,2.26758 -2.67188,3.42774 -1.70508,1.16015 -3.91992,1.16015 -1.42383,0 -2.44336,-0.35156 -1.01953,-0.36914 -1.74024,-0.93164 -0.7207,-0.58008 -1.24804,-1.23047 h -0.28125 q 0.14062,0.70313 0.21094,1.44141 0.0703,0.73828 0.0703,1.44141 v 7.92773 h -5.36133 v -28.30078 h 4.35937 l 0.75586,2.54883 h 0.2461 q 0.52734,-0.79102 1.2832,-1.45899 0.75586,-0.66797 1.81055,-1.05469 1.07226,-0.40429 2.47851,-0.40429 z m -1.72265,4.28906 q -1.40625,0 -2.23242,0.58008 -0.82618,0.58008 -1.2129,1.74023 -0.36914,1.16016 -0.40429,2.93555 v 0.58008 q 0,1.89844 0.35156,3.21679 0.36914,1.31836 1.21289,2.00391 0.86133,0.68555 2.35547,0.68555 1.23047,0 2.02148,-0.68555 0.79102,-0.68555 1.17774,-2.00391 0.4043,-1.33593 0.4043,-3.25195 0,-2.88281 -0.89649,-4.3418 -0.89648,-1.45898 -2.77734,-1.45898 z m 21.67383,-4.28906 q 2.7246,0 4.69335,1.05469 1.96875,1.0371 3.04102,3.02343 1.07227,1.98633 1.07227,4.85157 v 2.60156 h -12.67383 q 0.0879,2.26758 1.35351,3.56836 1.28321,1.2832 3.55078,1.2832 1.88086,0 3.44532,-0.38672 1.56445,-0.38672 3.21679,-1.16015 v 4.14843 q -1.45898,0.72071 -3.05859,1.05469 -1.58203,0.33398 -3.84961,0.33398 -2.95312,0 -5.23828,-1.08984 -2.26758,-1.08984 -3.56836,-3.32226 -1.2832,-2.23243 -1.2832,-5.625 0,-3.44532 1.16015,-5.73047 1.17774,-2.30274 3.26953,-3.44532 2.0918,-1.16015 4.86915,-1.16015 z m 0.0351,3.81445 q -1.56445,0 -2.60156,1.00195 -1.01953,1.00196 -1.17774,3.14649 h 7.52344 q -0.0176,-1.19531 -0.43945,-2.12695 -0.4043,-0.93165 -1.23047,-1.47657 -0.80859,-0.54492 -2.07422,-0.54492 z m 24.29297,-3.81445 q 3.14648,0 5.0625,1.72265 1.91602,1.70508 1.91602,5.48438 v 12.81445 h -5.36133 V 415.2215 q 0,-2.10938 -0.77344,-3.18164 -0.75586,-1.07227 -2.39062,-1.07227 -2.46094,0 -3.35743,1.66992 -0.89648,1.66992 -0.89648,4.81641 v 9.24609 h -5.36133 v -19.65234 h 4.0957 l 0.72071,2.51367 h 0.29883 q 0.63281,-1.01953 1.56445,-1.65234 0.94922,-0.63282 2.0918,-0.93164 1.16015,-0.29883 2.39062,-0.29883 z m 29.67188,20.02148 h -19.125 v -3.5332 l 12.32226,-17.66602 H 232.4086 v -4.5 h 18.45703 v 3.51563 l -12.30469,17.68359 h 12.63868 z m 9.03515,-19.65234 v 19.65234 h -5.36133 v -19.65234 z m -2.67187,-7.69922 q 1.19531,0 2.05664,0.5625 0.86133,0.54492 0.86133,2.05664 0,1.49414 -0.86133,2.07422 -0.86133,0.5625 -2.05664,0.5625 -1.21289,0 -2.07422,-0.5625 -0.84375,-0.58008 -0.84375,-2.07422 0,-1.51172 0.84375,-2.05664 0.86133,-0.5625 2.07422,-0.5625 z m 16.57617,23.43164 q 0.8789,0 1.70508,-0.17578 0.84375,-0.17578 1.66992,-0.43945 v 3.99023 q -0.86133,0.38672 -2.14453,0.63281 -1.26563,0.26367 -2.77735,0.26367 -1.75781,0 -3.16406,-0.5625 -1.38867,-0.58007 -2.19726,-1.98632 -0.79102,-1.42383 -0.79102,-3.95508 v -9.47461 h -2.56641 v -2.26758 l 2.95313,-1.79297 1.54687,-4.14844 h 3.42774 v 4.1836 h 5.50195 v 4.02539 h -5.50195 v 9.47461 q 0,1.125 0.63281,1.6875 0.65039,0.54492 1.70508,0.54492 z m 12.70898,-15.73242 v 19.65234 h -5.36133 v -19.65234 z m -2.67187,-7.69922 q 1.19531,0 2.05664,0.5625 0.86133,0.54492 0.86133,2.05664 0,1.49414 -0.86133,2.07422 -0.86133,0.5625 -2.05664,0.5625 -1.21289,0 -2.07422,-0.5625 -0.84375,-0.58008 -0.84375,-2.07422 0,-1.51172 0.84375,-2.05664 0.86133,-0.5625 2.07422,-0.5625 z m 41.39648,14.4668 q 0,2.9707 -0.73828,5.41406 -0.73828,2.42578 -2.25,4.18359 -1.49414,1.75782 -3.79687,2.70703 -2.30274,0.93164 -5.44922,0.93164 -3.14649,0 -5.44922,-0.93164 -2.30274,-0.94921 -3.81445,-2.70703 -1.49415,-1.75781 -2.23243,-4.20117 -0.73828,-2.44336 -0.73828,-5.43164 0,-3.99023 1.30078,-6.94336 1.31836,-2.9707 4.04297,-4.60547 2.72461,-1.63476 6.92578,-1.63476 4.1836,0 6.87305,1.63476 2.70703,1.63477 4.00781,4.60547 1.31836,2.9707 1.31836,6.97852 z m -18.75586,0 q 0,2.68945 0.66797,4.64062 0.68555,1.9336 2.12695,2.98828 1.44141,1.03711 3.72657,1.03711 2.32031,0 3.76172,-1.03711 1.4414,-1.05468 2.09179,-2.98828 0.66797,-1.95117 0.66797,-4.64062 0,-4.04297 -1.51172,-6.36328 -1.51172,-2.32032 -4.97461,-2.32032 -2.30273,0 -3.76172,1.05469 -1.4414,1.03711 -2.12695,2.98828 -0.66797,1.9336 -0.66797,4.64063 z m 28.33594,12.88476 -7.48828,-19.65234 h 5.60742 l 3.79688,11.19726 q 0.3164,0.98438 0.49218,2.07422 0.19336,1.08985 0.26368,1.95117 h 0.14062 q 0.0527,-0.93164 0.24609,-1.98632 0.21094,-1.05469 0.54493,-2.03907 l 3.77929,-11.19726 h 5.60742 l -7.48828,19.65234 z m 23.90625,-20.02148 q 2.72461,0 4.69336,1.05469 1.96875,1.0371 3.04102,3.02343 1.07226,1.98633 1.07226,4.85157 v 2.60156 H 355.1918 q 0.0879,2.26758 1.35352,3.56836 1.2832,1.2832 3.55078,1.2832 1.88086,0 3.44531,-0.38672 1.56446,-0.38672 3.2168,-1.16015 v 4.14843 q -1.45899,0.72071 -3.05859,1.05469 -1.58204,0.33398 -3.84961,0.33398 -2.95313,0 -5.23829,-1.08984 -2.26757,-1.08984 -3.56835,-3.32226 -1.28321,-2.23243 -1.28321,-5.625 0,-3.44532 1.16016,-5.73047 1.17773,-2.30274 3.26953,-3.44532 2.0918,-1.16015 4.86914,-1.16015 z m 0.0352,3.81445 q -1.56446,0 -2.60157,1.00195 -1.01953,1.00196 -1.17773,3.14649 h 7.52344 q -0.0176,-1.19531 -0.43946,-2.12695 -0.40429,-0.93165 -1.23046,-1.47657 -0.8086,-0.54492 -2.07422,-0.54492 z m 24.09961,-3.81445 q 0.40429,0 0.93164,0.0527 0.54492,0.0352 0.8789,0.10547 l -0.40429,5.02734 q -0.26368,-0.0879 -0.75586,-0.12304 -0.47461,-0.0527 -0.82618,-0.0527 -1.0371,0 -2.02148,0.26368 -0.9668,0.26367 -1.74023,0.86132 -0.77344,0.58008 -1.23047,1.54688 -0.43946,0.94922 -0.43946,2.33789 v 10.00195 h -5.36132 v -19.65234 h 4.06054 l 0.79102,3.30469 h 0.26367 q 0.58008,-1.00196 1.44141,-1.82813 0.8789,-0.84375 1.98632,-1.33594 1.125,-0.50976 2.42579,-0.50976 z m 10.74023,20.02148 h -5.36133 v -27.35156 h 5.36133 z m 13.67578,-20.05664 q 3.95508,0 6.06445,1.72266 2.10938,1.72265 2.10938,5.23828 v 13.0957 h -3.74414 l -1.03711,-2.67187 h -0.14063 q -0.84375,1.05468 -1.72265,1.72265 -0.87891,0.66797 -2.02149,0.98438 -1.14257,0.3164 -2.77734,0.3164 -1.74023,0 -3.12891,-0.66796 -1.37109,-0.66797 -2.16211,-2.03907 -0.79101,-1.38867 -0.79101,-3.51562 0,-3.12891 2.19726,-4.60547 2.19727,-1.49414 6.5918,-1.65234 l 3.41016,-0.10547 v -0.86133 q 0,-1.54688 -0.8086,-2.26758 -0.80859,-0.7207 -2.25,-0.7207 -1.42382,0 -2.79492,0.40429 -1.37109,0.4043 -2.74219,1.01954 l -1.77539,-3.6211 q 1.56446,-0.82617 3.49805,-1.30078 1.95117,-0.47461 4.02539,-0.47461 z m 2.84766,10.95117 -2.07422,0.0703 q -2.60156,0.0703 -3.62109,0.93164 -1.00196,0.86132 -1.00196,2.26757 0,1.23047 0.72071,1.75782 0.7207,0.50976 1.88085,0.50976 1.72266,0 2.9004,-1.01953 1.19531,-1.01953 1.19531,-2.90039 z m 8.0332,-10.54687 h 5.87109 l 3.70899,11.05664 q 0.17578,0.52734 0.29883,1.07226 0.12304,0.54493 0.21093,1.125 0.0879,0.58008 0.14063,1.2129 h 0.10547 q 0.10547,-0.94922 0.28125,-1.7754 0.19336,-0.82617 0.47461,-1.63476 l 3.63867,-11.05664 h 5.74805 l -8.31446,22.16601 q -0.75586,2.03907 -1.96875,3.39258 -1.21289,1.3711 -2.79492,2.05664 -1.56445,0.68555 -3.44531,0.68555 -0.91406,0 -1.58203,-0.10547 -0.66797,-0.0879 -1.14258,-0.19336 v -4.2539 q 0.36914,0.0879 0.93164,0.1582 0.5625,0.0703 1.17773,0.0703 1.125,0 1.9336,-0.47461 0.80859,-0.47461 1.35351,-1.2832 0.54493,-0.79102 0.86133,-1.74024 l 0.31641,-0.96679 z"
   id="text23"
   class="st6"
   style="font-weight:bold;font-size:108px;font-family:'Open Sans';fill:#595959"
   aria-label="OpenZiti Overlay" />		</g>
		<g
   id="shape3109-13"
   transform="translate(986.136,-12.7598)">
			<title
   id="title23">Rounded Rectangle.3109</title>
			<desc
   id="desc23">Cloud Vendor</desc>
			<path
   d="M10.58 441.5 L391.36 441.5 A10.5772 10.5772 -180 0 0 401.94 430.92 L401.94 50.34 A10.5772 10.5772 -180 0 0 391.36        39.76 L10.58 39.76 A10.5772 10.5772 -180 0 0 0 50.34 L0 430.92 A10.5772 10.5772 -180 0 0 10.58 441.5 Z"
   class="st7"
   id="path24" />
			<path
   d="m 23.599928,432.05999 q -5.351973,0.48 -8.879956,0.48 -2.351988,0 -3.455983,-1.104 -1.103994,-1.10399 -1.103994,-3.45598 v -7.67996 q 0,-2.51999 1.127994,-3.64798 1.151995,-1.152 3.671982,-1.152 h 8.639957 v 3.35999 h -7.679962 q -1.439993,0 -1.439993,1.43999 v 7.67996 q 0,0.552 0.311999,0.88799 0.335998,0.312 0.839996,0.312 0.503997,0 1.103994,0 0.599997,-0.024 1.247994,-0.048 0.647997,-0.024 1.295993,-0.048 0.671997,-0.024 1.703992,-0.096 1.055995,-0.072 2.615987,-0.16799 z m 8.159979,0.24 q -1.607992,0.24 -3.071985,0.24 -1.439992,0 -2.423987,-0.984 Q 25.27994,430.572 25.27994,428.94 v -13.43993 h 4.199979 v 12.83994 q 0,0.36 0.239998,0.59999 0.239999,0.24 0.599997,0.24 h 1.439993 z m 14.639931,-3.59998 q 0,1.79999 -1.031995,2.83198 -1.007995,1.008 -2.807985,1.008 h -5.519973 q -1.799991,0 -2.831986,-1.008 -1.007995,-1.03199 -1.007995,-2.83198 v -5.51998 q 0,-1.79999 1.007995,-2.80798 1.031995,-1.032 2.831986,-1.032 h 5.519973 q 1.79999,0 2.807985,1.032 1.031995,1.00799 1.031995,2.80798 z m -4.199979,-5.15998 q 0,-0.95999 -0.959995,-0.95999 h -2.879985 q -0.959996,0 -0.959996,0.95999 v 4.79998 q 0,0.95999 0.959996,0.95999 h 2.879985 q 0.959995,0 0.959995,-0.95999 z M 54.439777,429.06 q 1.271994,0 2.879986,-0.47999 v -8.99996 h 4.199979 v 12.71994 H 57.79976 l -0.239998,-1.2 q -1.127995,0.744 -2.327989,1.104 -1.175994,0.336 -1.99199,0.336 h -1.079994 q -1.631992,0 -2.615987,-0.984 Q 48.559807,430.572 48.559807,428.94 v -9.35995 h 4.199979 v 8.63996 q 0,0.36 0.239998,0.6 0.239999,0.23999 0.599997,0.23999 z m 18.479894,3.23999 -0.239999,-1.2 q -1.127994,0.744 -2.327988,1.104 -1.175995,0.336 -1.99199,0.336 h -1.079995 q -1.631992,0 -2.615987,-0.984 Q 63.679717,430.572 63.679717,428.94 v -5.51997 q 0,-1.79999 1.007995,-2.80798 1.031995,-1.032 2.831986,-1.032 h 4.919975 v -4.07998 h 4.199979 v 16.79992 z M 69.559688,429.06 q 1.271993,0 2.879985,-0.47999 v -5.75997 h -3.599982 q -0.959995,0 -0.959995,0.95999 v 4.43998 q 0,0.36 0.239999,0.6 0.239999,0.23999 0.599997,0.23999 z m 23.999838,-1.79999 4.07998,-11.75994 h 4.679974 l -6.359966,16.79992 H 91.159538 L 84.79957,415.50007 h 4.679977 z m 13.919894,-4.91997 q -0.95999,0 -0.95999,0.95999 v 1.32 h 4.07998 v -1.32 q 0,-0.95999 -0.96,-0.95999 z m 6.83997,9.71995 q -4.63198,0.48 -8.39996,0.48 -1.63199,0 -2.61599,-0.984 -0.98399,-0.98399 -0.98399,-2.61599 v -5.75997 q 0,-1.79999 1.00799,-2.80798 1.032,-1.032 2.83199,-1.032 h 4.79998 q 1.79999,0 2.80798,1.032 1.032,1.00799 1.032,2.80798 v 4.43998 h -8.27996 v 0.96 q 0,0.35999 0.24,0.59999 0.24,0.24 0.59999,0.24 2.37599,0 6.95997,-0.36 z m 9.71996,-9.23995 q -1.272,0 -2.87999,0.47999 v 8.99996 h -4.19998 v -12.71994 h 3.71998 l 0.24,1.2 q 1.128,-0.744 2.30399,-1.08 1.19999,-0.36 2.01599,-0.36 h 1.07999 q 1.632,0 2.61599,0.984 0.984,0.98399 0.984,2.61598 v 9.35996 h -4.19998 v -8.63996 q 0,-0.36 -0.24,-0.6 -0.24,-0.23999 -0.6,-0.23999 z m 17.03989,9.47995 -0.24,-1.2 q -1.12799,0.744 -2.32799,1.104 -1.17599,0.336 -1.99199,0.336 h -1.07999 q -1.63199,0 -2.61599,-0.984 -0.98399,-0.98399 -0.98399,-2.61599 v -5.51997 q 0,-1.79999 1.00799,-2.80798 1.032,-1.032 2.83199,-1.032 h 4.91997 v -4.07998 h 4.19998 v 16.79992 z M 137.71926,429.06 q 1.27199,0 2.87998,-0.47999 v -5.75997 h -3.59998 q -0.96,0 -0.96,0.95999 v 4.43998 q 0,0.36 0.24,0.6 0.24,0.23999 0.6,0.23999 z m 22.43986,-0.35999 q 0,1.79999 -1.03199,2.83198 -1.008,1.008 -2.80799,1.008 h -5.51997 q -1.79999,0 -2.83199,-1.008 -1.00799,-1.03199 -1.00799,-2.83198 v -5.51998 q 0,-1.79999 1.00799,-2.80798 1.032,-1.032 2.83199,-1.032 h 5.51997 q 1.79999,0 2.80799,1.032 1.03199,1.00799 1.03199,2.80798 z m -4.19998,-5.15998 q 0,-0.95999 -0.95999,-0.95999 h -2.87999 q -0.95999,0 -0.95999,0.95999 v 4.79998 q 0,0.95999 0.95999,0.95999 h 2.87999 q 0.95999,0 0.95999,-0.95999 z m 13.67992,-0.48 q -1.512,0 -3.11999,0.72 v 8.51996 h -4.19998 v -12.71994 h 3.71998 l 0.24,1.55999 q 2.06399,-1.79999 4.31998,-1.79999 h 1.07999 v 3.71998 z"
   id="text24"
   class="st8"
   style="font-size:47.9995px;font-family:'Russo One';fill:#a86a33"
   aria-label="Cloud Vendor" />		</g>
		<g
   id="shape3108-16"
   transform="translate(1370.08,-72.0049) scale(-1,1)">
			<title
   id="title24">Rounded Rectangle.3108</title>
			<desc
   id="desc24">Container</desc>
			<path
   d="M7.49 441.5 L358.45 441.5 A7.49405 7.49405 -180 0 0 365.94 434.01 L365.94 124.5 A7.49405 7.49405 -180 0 0 358.45        117 L7.49 117 A7.49405 7.49405 -180 0 0 -0 124.5 L0 434.01 A7.49405 7.49405 -180 0 0 7.49 441.5 Z"
   class="st9"
   id="path25" />
			<path
   d="m -250.02,153.05 q -8.028,0.72 -13.32,0.72 -3.528,0 -5.184,-1.656 -1.656,-1.656 -1.656,-5.184 v -11.52 q 0,-3.78 1.692,-5.472 1.728,-1.728 5.508,-1.728 h 12.96 v 5.04 h -11.52 q -2.16,0 -2.16,2.16 v 11.52 q 0,0.828 0.468,1.332 0.504,0.468 1.26,0.468 0.756,0 1.656,0 0.9,-0.036 1.872,-0.072 0.972,-0.036 1.944,-0.072 1.008,-0.036 2.556,-0.144 1.584,-0.108 3.924,-0.252 z m 21.96004,-5.04 q 0,2.7 -1.548,4.248 -1.512,1.512 -4.212,1.512 h -8.28 q -2.7,0 -4.248,-1.512 -1.512,-1.548 -1.512,-4.248 v -8.28 q 0,-2.7 1.512,-4.212 1.548,-1.548 4.248,-1.548 h 8.28 q 2.7,0 4.212,1.548 1.548,1.512 1.548,4.212 z m -6.3,-7.74 q 0,-1.44 -1.44,-1.44 h -4.32 q -1.44,0 -1.44,1.44 v 7.2 q 0,1.44 1.44,1.44 h 4.32 q 1.44,0 1.44,-1.44 z M -214.2,139.19 q -1.908,0 -4.32,0.72 v 13.5 h -6.3 v -19.08 h 5.58 l 0.36,1.8 q 1.692,-1.116 3.456,-1.62 1.8,-0.54 3.024,-0.54 h 1.62 q 2.448,0 3.924,1.476 1.476,1.476 1.476,3.924 v 14.04 h -6.3 v -12.96 q 0,-0.54 -0.36,-0.9 -0.36,-0.36 -0.9,-0.36 z m 25.37997,14.22 q -3.492,0.36 -6.84,0.36 -2.448,0 -3.924,-1.476 -1.476,-1.476 -1.476,-3.924 v -9.18 h -2.16 v -4.86 h 2.16 l 0.72,-4.32 h 5.58 v 4.32 h 4.5 v 4.86 h -4.5 v 8.28 q 0,0.54 0.36,0.9 0.36,0.36 0.9,0.36 h 4.68 z m 9.36001,-4.68 q 1.908,0 4.32,-0.72 v -2.16 h -5.22 q -0.54,0 -0.9,0.36 -0.36,0.36 -0.36,0.9 v 0.36 q 0,0.54 0.36,0.9 0.36,0.36 0.9,0.36 z m -6.66,-14.04 q 6.588,-0.72 11.88,-0.72 2.448,0 3.924,1.476 1.476,1.476 1.476,3.924 v 14.04 h -5.58 l -0.36,-1.8 q -1.692,1.116 -3.492,1.656 -1.764,0.504 -2.988,0.504 h -1.26 q -2.448,0 -3.924,-1.476 -1.476,-1.476 -1.476,-3.924 v -1.62 q 0,-2.448 1.476,-3.924 1.476,-1.476 3.924,-1.476 h 7.38 v -1.44 q 0,-0.54 -0.36,-0.9 -0.36,-0.36 -0.9,-0.36 -2.34,0 -5.184,0.216 -2.808,0.216 -4.536,0.324 z m 28.43997,0.36 v 18.36 h -6.3 v -13.5 h -2.7 v -4.86 z m -6.3,-7.2 h 6.3 v 5.04 h -6.3 z m 20.51999,11.34 q -1.908,0 -4.32,0.72 v 13.5 h -6.3 v -19.08 h 5.58 l 0.36,1.8 q 1.692,-1.116 3.456,-1.62 1.8,-0.54 3.024,-0.54 h 1.62 q 2.448,0 3.924,1.476 1.476,1.476 1.476,3.924 v 14.04 h -6.3 v -12.96 q 0,-0.54 -0.36,-0.9 -0.36,-0.36 -0.9,-0.36 z m 19.43997,-0.72 q -1.44,0 -1.44,1.44 v 1.98 h 6.12 v -1.98 q 0,-1.44 -1.44,-1.44 z m 10.26,14.58 q -6.948,0.72 -12.6,0.72 -2.448,0 -3.924,-1.476 -1.476,-1.476 -1.476,-3.924 v -8.64 q 0,-2.7 1.512,-4.212 1.548,-1.548 4.248,-1.548 h 7.2 q 2.7,0 4.212,1.548 1.548,1.512 1.548,4.212 v 6.66 h -12.42 v 1.44 q 0,0.54 0.36,0.9 0.36,0.36 0.9,0.36 3.564,0 10.44,-0.54 z m 14.940023,-13.5 q -2.268003,0 -4.680003,1.08 v 12.78 h -6.3 v -19.08 h 5.58 l 0.36,2.34 q 3.096,-2.7 6.480003,-2.7 h 1.62 v 5.58 z"
   id="text25"
   class="st10"
   style="font-size:108px;font-family:'Russo One';fill:#595959"
   transform="scale(-1,1)"
   aria-label="Container" />		</g>
		<g
   id="shape3286-19"
   transform="translate(752.101,-165.822)">
			<title
   id="title25">Dynamic connector.3286</title>
			<path
   d="M0 432.5 L-253.41 432.5"
   class="st11"
   id="path26" />
		</g>
		<g
   id="shape3292-22"
   transform="translate(568.864,-238.571)">
			<title
   id="title26">Dynamic connector.3292</title>
			<path
   d="M0 441.5 L-80.15 467.75"
   class="st11"
   id="path27" />
		</g>
		<g
   id="shape3295-25"
   transform="translate(763.746,-212.812)">
			<title
   id="title27">Dynamic connector.3295</title>
			<path
   d="M0 441.5 L-83.2 415.1"
   class="st11"
   id="path28" />
		</g>
		<g
   id="group3300-28"
   transform="translate(752.101,-132.072)">
			<title
   id="title28">Sheet.3300</title>
			<g
   id="group3261-29"
   transform="translate(9,0)">
				<title
   id="title29">Sheet.3261</title>
				<g
   id="shape3262-30">
					<title
   id="title30">Sheet.3262</title>
					<path
   id="ellipse30"
   class="st12"
   style="fill:#f2f2f2;stroke:#595959;stroke-width:3;stroke-linecap:round;stroke-linejoin:round"
   d="M 96.1875,393.40601 A 48.0937,48.0937 0 0 1 48.0938,441.49971 48.0937,48.0937 0 0 1 9.9182129e-5,393.40601 48.0937,48.0937 0 0 1 48.0938,345.31231 a 48.0937,48.0937 0 0 1 48.0937,48.0937 z" />
				</g>
				<g
   id="group3263-32"
   transform="translate(12.0937,-12.9375)">
					<title
   id="title31">Router Colored</title>
					<g
   id="group3264-33"
   transform="translate(38.5398,-28.4211)">
						<title
   id="title32">Sheet.3264</title>
						<g
   id="shape3265-34">
							<title
   id="title33">Sheet.3265</title>
						</g>
					</g>
					<g
   id="group3266-35">
						<title
   id="title34">Sheet.3266</title>
						<g
   id="shape3267-36"
   transform="translate(26.4054,-24.3494)">
							<title
   id="title35">Sheet.3267</title>
							<path
   d="M20.64 432.39 C21.12 430.94 21.12 429.53 21.12 427.11 L21.12 424.25 C21.12 421.83 21.12 420.42            19.67 418.96 C18.22 418 16.81 417.51 14.39 417.51 L0 417.51 L0 441.5 L6.73 441.5 L6.73 434.28            L11.53 434.28 L15.36 441.5 L21.61 441.5 L17.29 434.28 C18.71 433.8 19.67 433.8 20.64 432.39            ZM15.36 426.14 C15.36 427.59 14.88 429 13.42 429 L6.69 429 L6.69 421.79 L12.94 421.79 C14.39            421.79 15.36 422.75 15.36 424.21 L15.36 426.14 Z"
   class="st13"
   id="path35" />
						</g>
						<g
   id="shape3268-40"
   transform="translate(11.2072,-11.0862)">
							<title
   id="title36">Sheet.3268</title>
							<path
   d="M49.59 416.71 C49.59 403.04 38.46 391.91 24.79 391.91 C11.13 391.91 0 403.04 0 416.71 C0 430.37            11.13 441.5 24.79 441.5 C38.46 441.5 49.59 430.37 49.59 416.71 ZM24.79 437.99 C13.06 437.99            3.51 428.44 3.51 416.71 C3.51 404.98 13.06 395.42 24.79 395.42 C36.52 395.42 46.08 404.98            46.08 416.71 C46.08 428.44 36.52 437.99 24.79 437.99 Z"
   class="st13"
   id="path36" />
						</g>
						<g
   id="shape3269-43"
   transform="translate(36.6047,-36.5644)">
							<title
   id="title37">Sheet.3269</title>
							<path
   d="M1.69 414.17 C15.24 415.05 26.53 426.38 27.41 439.89 C27.49 440.81 28.26 441.5 29.15 441.5 C29.19            441.5 29.23 441.5 29.27 441.5 C30.24 441.42 30.96 440.61 30.88 439.65 C30.15 428.72 23.42            419.09 14.07 414.13 L24.95 414.13 L23.62 415.46 C22.94 416.14 22.94 417.23 23.62 417.92            C23.95 418.24 24.43 418.44 24.87 418.44 C25.32 418.44 25.76 418.28 26.12 417.92 L30.44 413.6            C31.12 412.92 31.12 411.83 30.44 411.14 L26.12 406.83 C25.44 406.15 24.35 406.15 23.66 406.83            C22.98 407.52 22.98 408.6 23.66 409.29 L24.99 410.62 L1.81 410.62 C0.89 410.62 0.08 411.39            0.08 412.31 C0 413.32 0.73 414.09 1.69 414.17 Z"
   class="st13"
   id="path37" />
						</g>
						<g
   id="shape3270-46"
   transform="translate(0,-36.5644)">
							<title
   id="title38">Sheet.3270</title>
							<path
   d="M4.47 439.77 C4.47 440.69 5.24 441.5 6.17 441.5 L6.21 441.5 C7.14 441.5 7.9 440.77 7.94 439.89            C8.83 426.34 20.16 415.05 33.66 414.17 C34.63 414.09 35.35 413.28 35.27 412.31 C35.19 411.35            34.39 410.62 33.42 410.7 C22.49 411.43 12.86 418.16 7.9 427.51 L7.9 416.63 L9.23 417.96            C9.55 418.28 10.04 418.48 10.48 418.48 C10.92 418.48 11.37 418.32 11.73 417.96 C12.42 417.27            12.42 416.18 11.73 415.5 L7.46 411.18 C6.77 410.5 5.68 410.5 5 411.18 L0.69 415.5 C0 416.18            0 417.27 0.69 417.96 C1.37 418.64 2.46 418.64 3.14 417.96 L4.47 416.63 L4.47 439.77 Z"
   class="st13"
   id="path38" />
						</g>
						<g
   id="shape3271-49"
   transform="translate(4.31355,0)">
							<title
   id="title39">Sheet.3271</title>
							<path
   d="M29.39 433.64 C15.84 432.75 4.56 421.42 3.67 407.92 C3.59 406.95 2.78 406.23 1.81 406.31 C0.85            406.39 0.12 407.19 0.2 408.16 C0.93 419.09 7.66 428.72 17.01 433.68 L6.13 433.68 L7.46 432.35            C8.14 431.66 8.14 430.58 7.46 429.89 C6.77 429.2 5.68 429.2 5 429.89 L0.69 434.2 C0 434.89            0 435.98 0.69 436.66 L5 440.98 C5.32 441.3 5.81 441.5 6.25 441.5 C6.69 441.5 7.14 441.34            7.5 440.98 C8.18 440.29 8.18 439.2 7.5 438.52 L6.17 437.19 L29.27 437.19 C30.19 437.19 31            436.42 31 435.49 C31.08 434.49 30.36 433.72 29.39 433.64 Z"
   class="st13"
   id="path39" />
						</g>
						<g
   id="shape3272-52"
   transform="translate(36.645,-4.35386)">
							<title
   id="title40">Sheet.3272</title>
							<path
   d="M34.67 434.2 C33.98 433.52 32.9 433.52 32.21 434.2 L30.88 435.53 L30.88 412.39 C30.88 411.47            30.11 410.66 29.19 410.66 L29.15 410.66 C28.22 410.66 27.45 411.39 27.41 412.27 C26.53 425.82            15.2 437.11 1.69 437.99 C0.73 438.07 0 438.88 0.08 439.85 C0.16 440.77 0.93 441.46 1.81            441.46 C1.85 441.46 1.89 441.46 1.94 441.46 C12.86 440.73 22.49 434 27.45 424.65 L27.45            435.53 L26.12 434.2 C25.44 433.52 24.35 433.52 23.66 434.2 C22.98 434.89 22.98 435.98 23.66            436.66 L27.98 440.98 C28.3 441.3 28.78 441.5 29.23 441.5 C29.67 441.5 30.11 441.34 30.48            440.98 L34.79 436.66 C35.35 435.98 35.35 434.85 34.67 434.2 Z"
   class="st13"
   id="path40" />
						</g>
					</g>
				</g>
			</g>
			<g
   id="shape3288-55"
   transform="translate(0,-34.3125)">
				<title
   id="title41">Sheet.3288</title>
				<path
   id="ellipse41"
   class="st14"
   style="fill:#ffffff;stroke:#595959;stroke-width:5;stroke-linecap:round;stroke-linejoin:round;marker-end:url(#mrkr42-58)"
   d="m 16.875,433.06201 a 8.4375,8.4375 0 0 1 -8.4375,8.4375 8.4375,8.4375 0 0 1 -8.4375,-8.4375 8.4375,8.4375 0 0 1 8.4375,-8.4375 8.4375,8.4375 0 0 1 8.4375,8.4375 z" />
			</g>
			<g
   id="shape3297-59"
   transform="translate(11.25,-69.75)">
				<title
   id="title42">Sheet.3297</title>
				<path
   id="ellipse42"
   class="st14"
   style="fill:#ffffff;stroke:#595959;stroke-width:5;stroke-linecap:round;stroke-linejoin:round;marker-end:url(#mrkr42-58)"
   d="m 16.875,433.06201 a 8.4375,8.4375 0 0 1 -8.4375,8.4375 8.4375,8.4375 0 0 1 -8.4375,-8.4375 8.4375,8.4375 0 0 1 8.4375,-8.4375 8.4375,8.4375 0 0 1 8.4375,8.4375 z" />
			</g>
		</g>
		<g
   id="group3303-62"
   transform="translate(568.445,-192.26)">
			<title
   id="title43">Sheet.3303</title>
			<g
   id="group3249-63"
   transform="translate(8.15627,0)">
				<title
   id="title44">Sheet.3249</title>
				<g
   id="shape3250-64">
					<title
   id="title45">Sheet.3250</title>
					<path
   id="ellipse45"
   class="st12"
   style="fill:#f2f2f2;stroke:#595959;stroke-width:3;stroke-linecap:round;stroke-linejoin:round"
   d="M 96.1875,393.40601 A 48.0937,48.0937 0 0 1 48.0938,441.49971 48.0937,48.0937 0 0 1 9.9182129e-5,393.40601 48.0937,48.0937 0 0 1 48.0938,345.31231 a 48.0937,48.0937 0 0 1 48.0937,48.0937 z" />
				</g>
				<g
   id="group3251-66"
   transform="translate(12.0937,-12.9375)">
					<title
   id="title46">Router Colored</title>
					<g
   id="group3252-67"
   transform="translate(38.5398,-28.4211)">
						<title
   id="title47">Sheet.3252</title>
						<g
   id="shape3253-68">
							<title
   id="title48">Sheet.3253</title>
						</g>
					</g>
					<g
   id="group3254-69">
						<title
   id="title49">Sheet.3254</title>
						<g
   id="shape3255-70"
   transform="translate(26.4054,-24.3494)">
							<title
   id="title50">Sheet.3255</title>
							<path
   d="M20.64 432.39 C21.12 430.94 21.12 429.53 21.12 427.11 L21.12 424.25 C21.12 421.83 21.12 420.42            19.67 418.96 C18.22 418 16.81 417.51 14.39 417.51 L0 417.51 L0 441.5 L6.73 441.5 L6.73 434.28            L11.53 434.28 L15.36 441.5 L21.61 441.5 L17.29 434.28 C18.71 433.8 19.67 433.8 20.64 432.39            ZM15.36 426.14 C15.36 427.59 14.88 429 13.42 429 L6.69 429 L6.69 421.79 L12.94 421.79 C14.39            421.79 15.36 422.75 15.36 424.21 L15.36 426.14 Z"
   class="st13"
   id="path50" />
						</g>
						<g
   id="shape3256-73"
   transform="translate(11.2072,-11.0862)">
							<title
   id="title51">Sheet.3256</title>
							<path
   d="M49.59 416.71 C49.59 403.04 38.46 391.91 24.79 391.91 C11.13 391.91 0 403.04 0 416.71 C0 430.37            11.13 441.5 24.79 441.5 C38.46 441.5 49.59 430.37 49.59 416.71 ZM24.79 437.99 C13.06 437.99            3.51 428.44 3.51 416.71 C3.51 404.98 13.06 395.42 24.79 395.42 C36.52 395.42 46.08 404.98            46.08 416.71 C46.08 428.44 36.52 437.99 24.79 437.99 Z"
   class="st13"
   id="path51" />
						</g>
						<g
   id="shape3257-76"
   transform="translate(36.6047,-36.5644)">
							<title
   id="title52">Sheet.3257</title>
							<path
   d="M1.69 414.17 C15.24 415.05 26.53 426.38 27.41 439.89 C27.49 440.81 28.26 441.5 29.15 441.5 C29.19            441.5 29.23 441.5 29.27 441.5 C30.24 441.42 30.96 440.61 30.88 439.65 C30.15 428.72 23.42            419.09 14.07 414.13 L24.95 414.13 L23.62 415.46 C22.94 416.14 22.94 417.23 23.62 417.92            C23.95 418.24 24.43 418.44 24.87 418.44 C25.32 418.44 25.76 418.28 26.12 417.92 L30.44 413.6            C31.12 412.92 31.12 411.83 30.44 411.14 L26.12 406.83 C25.44 406.15 24.35 406.15 23.66 406.83            C22.98 407.52 22.98 408.6 23.66 409.29 L24.99 410.62 L1.81 410.62 C0.89 410.62 0.08 411.39            0.08 412.31 C0 413.32 0.73 414.09 1.69 414.17 Z"
   class="st13"
   id="path52" />
						</g>
						<g
   id="shape3258-79"
   transform="translate(0,-36.5644)">
							<title
   id="title53">Sheet.3258</title>
							<path
   d="M4.47 439.77 C4.47 440.69 5.24 441.5 6.17 441.5 L6.21 441.5 C7.14 441.5 7.9 440.77 7.94 439.89            C8.83 426.34 20.16 415.05 33.66 414.17 C34.63 414.09 35.35 413.28 35.27 412.31 C35.19 411.35            34.39 410.62 33.42 410.7 C22.49 411.43 12.86 418.16 7.9 427.51 L7.9 416.63 L9.23 417.96            C9.55 418.28 10.04 418.48 10.48 418.48 C10.92 418.48 11.37 418.32 11.73 417.96 C12.42 417.27            12.42 416.18 11.73 415.5 L7.46 411.18 C6.77 410.5 5.68 410.5 5 411.18 L0.69 415.5 C0 416.18            0 417.27 0.69 417.96 C1.37 418.64 2.46 418.64 3.14 417.96 L4.47 416.63 L4.47 439.77 Z"
   class="st13"
   id="path53" />
						</g>
						<g
   id="shape3259-82"
   transform="translate(4.31355,0)">
							<title
   id="title54">Sheet.3259</title>
							<path
   d="M29.39 433.64 C15.84 432.75 4.56 421.42 3.67 407.92 C3.59 406.95 2.78 406.23 1.81 406.31 C0.85            406.39 0.12 407.19 0.2 408.16 C0.93 419.09 7.66 428.72 17.01 433.68 L6.13 433.68 L7.46 432.35            C8.14 431.66 8.14 430.58 7.46 429.89 C6.77 429.2 5.68 429.2 5 429.89 L0.69 434.2 C0 434.89            0 435.98 0.69 436.66 L5 440.98 C5.32 441.3 5.81 441.5 6.25 441.5 C6.69 441.5 7.14 441.34            7.5 440.98 C8.18 440.29 8.18 439.2 7.5 438.52 L6.17 437.19 L29.27 437.19 C30.19 437.19 31            436.42 31 435.49 C31.08 434.49 30.36 433.72 29.39 433.64 Z"
   class="st13"
   id="path54" />
						</g>
						<g
   id="shape3260-85"
   transform="translate(36.645,-4.35386)">
							<title
   id="title55">Sheet.3260</title>
							<path
   d="M34.67 434.2 C33.98 433.52 32.9 433.52 32.21 434.2 L30.88 435.53 L30.88 412.39 C30.88 411.47            30.11 410.66 29.19 410.66 L29.15 410.66 C28.22 410.66 27.45 411.39 27.41 412.27 C26.53 425.82            15.2 437.11 1.69 437.99 C0.73 438.07 0 438.88 0.08 439.85 C0.16 440.77 0.93 441.46 1.81            441.46 C1.85 441.46 1.89 441.46 1.94 441.46 C12.86 440.73 22.49 434 27.45 424.65 L27.45            435.53 L26.12 434.2 C25.44 433.52 24.35 433.52 23.66 434.2 C22.98 434.89 22.98 435.98 23.66            436.66 L27.98 440.98 C28.3 441.3 28.78 441.5 29.23 441.5 C29.67 441.5 30.11 441.34 30.48            440.98 L34.79 436.66 C35.35 435.98 35.35 434.85 34.67 434.2 Z"
   class="st13"
   id="path55" />
						</g>
					</g>
				</g>
			</g>
			<g
   id="shape3294-88"
   transform="translate(0,-40.5)">
				<title
   id="title56">Sheet.3294</title>
				<path
   id="ellipse56"
   class="st14"
   style="fill:#ffffff;stroke:#595959;stroke-width:5;stroke-linecap:round;stroke-linejoin:round;marker-end:url(#mrkr42-58)"
   d="m 16.875,433.06201 a 8.4375,8.4375 0 0 1 -8.4375,8.4375 8.4375,8.4375 0 0 1 -8.4375,-8.4375 8.4375,8.4375 0 0 1 8.4375,-8.4375 8.4375,8.4375 0 0 1 8.4375,8.4375 z" />
			</g>
			<g
   id="shape3296-91"
   transform="translate(95.625,-41.0625)">
				<title
   id="title57">Sheet.3296</title>
				<path
   id="ellipse57"
   class="st14"
   style="fill:#ffffff;stroke:#595959;stroke-width:5;stroke-linecap:round;stroke-linejoin:round;marker-end:url(#mrkr42-58)"
   d="m 16.875,433.06201 a 8.4375,8.4375 0 0 1 -8.4375,8.4375 8.4375,8.4375 0 0 1 -8.4375,-8.4375 8.4375,8.4375 0 0 1 8.4375,-8.4375 8.4375,8.4375 0 0 1 8.4375,8.4375 z" />
			</g>
		</g>
		<g
   id="group3311-94"
   transform="translate(546.975,-21.8697)">
			<title
   id="title58">Sheet.3311</title>
			<g
   id="shape3309-95"
   transform="translate(2.11007,-7.57005)">
				<title
   id="title59">Sheet.3309</title>
				<path
   id="rect59"
   class="st16"
   style="fill:#ffffff;stroke:#bfbfbf;stroke-width:0.75;stroke-linecap:round;stroke-linejoin:round"
   d="m 0,401 h 156.375 v 40.5 H 0 Z" />
			</g>
			<g
   id="shape3310-97">
				<title
   id="title60">Sheet.3310</title>
				<desc
   id="desc60">Internet</desc>
				<path
   id="rect60"
   class="st17"
   style="stroke-width:1.75;stroke-linecap:round;stroke-linejoin:round"
   d="m 0,383.60999 h 158.01601 v 57.89009 H 0 Z" />
				<path
   d="m 7.5543752,426.70001 v -25.69922 h 5.4492188 v 25.69922 z M 30.212578,406.67853 q 3.146485,0 5.0625,1.72265 1.916016,1.70508 1.916016,5.48438 v 12.81445 H 31.829766 V 415.2215 q 0,-2.10938 -0.773438,-3.18164 -0.755859,-1.07227 -2.390625,-1.07227 -2.460937,0 -3.357422,1.66992 -0.896484,1.66992 -0.896484,4.81641 v 9.24609 h -5.361328 v -19.65234 h 4.095703 l 0.720703,2.51367 h 0.298828 q 0.632813,-1.01953 1.564453,-1.65234 0.949219,-0.63282 2.091797,-0.93164 1.160157,-0.29883 2.390625,-0.29883 z m 20.777344,16.10156 q 0.878906,0 1.705078,-0.17578 0.84375,-0.17578 1.669922,-0.43945 v 3.99023 q -0.861328,0.38672 -2.144531,0.63281 -1.265625,0.26367 -2.777344,0.26367 -1.757812,0 -3.164062,-0.5625 -1.388672,-0.58007 -2.197266,-1.98632 -0.791016,-1.42383 -0.791016,-3.95508 v -9.47461 h -2.566406 v -2.26758 l 2.953125,-1.79297 1.546875,-4.14844 h 3.427734 v 4.1836 h 5.501954 v 4.02539 h -5.501954 v 9.47461 q 0,1.125 0.632813,1.6875 0.650391,0.54492 1.705078,0.54492 z m 15.451172,-16.10156 q 2.724609,0 4.693359,1.05469 1.96875,1.0371 3.041016,3.02343 1.072266,1.98633 1.072266,4.85157 v 2.60156 H 62.573906 q 0.08789,2.26758 1.353516,3.56836 1.283203,1.2832 3.550781,1.2832 1.88086,0 3.445313,-0.38672 1.564453,-0.38672 3.216797,-1.16015 v 4.14843 q -1.458985,0.72071 -3.058594,1.05469 -1.582031,0.33398 -3.849609,0.33398 -2.953125,0 -5.238282,-1.08984 -2.267578,-1.08984 -3.568359,-3.32226 -1.283203,-2.23243 -1.283203,-5.625 0,-3.44532 1.160156,-5.73047 1.177734,-2.30274 3.269531,-3.44532 2.091797,-1.16015 4.869141,-1.16015 z m 0.03516,3.81445 q -1.564453,0 -2.601562,1.00195 -1.019532,1.00196 -1.177735,3.14649 h 7.523438 q -0.01758,-1.19531 -0.439453,-2.12695 -0.404297,-0.93165 -1.230469,-1.47657 -0.808594,-0.54492 -2.074219,-0.54492 z m 24.09961,-3.81445 q 0.404296,0 0.93164,0.0527 0.544922,0.0352 0.878906,0.10547 l -0.404296,5.02734 q -0.263672,-0.0879 -0.75586,-0.12304 -0.474609,-0.0527 -0.826172,-0.0527 -1.037109,0 -2.021484,0.26368 -0.966797,0.26367 -1.740234,0.86132 -0.773438,0.58008 -1.230469,1.54688 -0.439453,0.94922 -0.439453,2.33789 v 10.00195 H 79.60711 v -19.65234 h 4.060546 l 0.791016,3.30469 h 0.263672 q 0.580078,-1.00196 1.441406,-1.82813 0.878906,-0.84375 1.986328,-1.33594 1.125,-0.50976 2.425782,-0.50976 z m 16.54102,0 q 3.14648,0 5.0625,1.72265 1.91601,1.70508 1.91601,5.48438 v 12.81445 h -5.36133 V 415.2215 q 0,-2.10938 -0.77343,-3.18164 -0.75586,-1.07227 -2.39063,-1.07227 -2.46094,0 -3.35742,1.66992 -0.89649,1.66992 -0.89649,4.81641 v 9.24609 h -5.361324 v -19.65234 h 4.095704 l 0.7207,2.51367 H 101.07 q 0.63281,-1.01953 1.56445,-1.65234 0.94922,-0.63282 2.0918,-0.93164 1.16016,-0.29883 2.39063,-0.29883 z m 20.60156,0 q 2.72461,0 4.69336,1.05469 1.96875,1.0371 3.04101,3.02343 1.07227,1.98633 1.07227,4.85157 v 2.60156 h -12.67383 q 0.0879,2.26758 1.35352,3.56836 1.2832,1.2832 3.55078,1.2832 1.88086,0 3.44531,-0.38672 1.56445,-0.38672 3.2168,-1.16015 v 4.14843 q -1.45899,0.72071 -3.0586,1.05469 -1.58203,0.33398 -3.84961,0.33398 -2.95312,0 -5.23828,-1.08984 -2.26758,-1.08984 -3.56836,-3.32226 -1.2832,-2.23243 -1.2832,-5.625 0,-3.44532 1.16016,-5.73047 1.17773,-2.30274 3.26953,-3.44532 2.09179,-1.16015 4.86914,-1.16015 z m 0.0352,3.81445 q -1.56445,0 -2.60156,1.00195 -1.01953,1.00196 -1.17773,3.14649 h 7.52343 q -0.0176,-1.19531 -0.43945,-2.12695 -0.4043,-0.93165 -1.23047,-1.47657 -0.80859,-0.54492 -2.07422,-0.54492 z m 21.41016,12.28711 q 0.87891,0 1.70508,-0.17578 0.84375,-0.17578 1.66992,-0.43945 v 3.99023 q -0.86133,0.38672 -2.14453,0.63281 -1.26563,0.26367 -2.77734,0.26367 -1.75782,0 -3.16407,-0.5625 -1.38867,-0.58007 -2.19726,-1.98632 -0.79102,-1.42383 -0.79102,-3.95508 v -9.47461 h -2.5664 v -2.26758 l 2.95312,-1.79297 1.54688,-4.14844 h 3.42773 v 4.1836 h 5.50195 v 4.02539 h -5.50195 v 9.47461 q 0,1.125 0.63281,1.6875 0.65039,0.54492 1.70508,0.54492 z"
   id="text60"
   class="st6"
   style="font-weight:bold;font-size:108px;font-family:'Open Sans';fill:#595959"
   aria-label="Internet" />			</g>
		</g>
		<g
   id="group3365-100"
   transform="translate(707.906,-276.406)">
			<title
   id="title61">Controller w/Circle</title>
			<g
   id="shape3366-101">
				<title
   id="title62">Sheet.3366</title>
				<path
   id="ellipse62"
   class="st12"
   style="fill:#f2f2f2;stroke:#595959;stroke-width:3;stroke-linecap:round;stroke-linejoin:round"
   d="M 96.1875,393.40601 A 48.0937,48.0937 0 0 1 48.0938,441.49971 48.0937,48.0937 0 0 1 9.9182129e-5,393.40601 48.0937,48.0937 0 0 1 48.0938,345.31231 a 48.0937,48.0937 0 0 1 48.0937,48.0937 z" />
			</g>
			<g
   id="group3367-103"
   transform="translate(11.1797,-7.51789)">
				<title
   id="title63">Controller</title>
				<g
   id="group3368-104">
					<title
   id="title64">Sheet.3368</title>
					<g
   id="shape3369-105"
   transform="translate(0,-45.0363)">
						<title
   id="title65">Sheet.3369</title>
						<path
   d="M70.76 427.5 C68.44 423.72 64.78 421.13 60.49 420.1 C59.24 419.83 57.98 419.67 56.72 419.67 C54.28           419.67 51.92 420.18 49.76 421.2 C46.22 409.48 34.34 402.01 22.03 404.25 C8.81 406.69 0 419.39           2.44 432.65 C2.79 434.54 3.34 436.39 4.13 438.12 C4.56 439.1 5.74 439.57 6.73 439.1 C7.71 438.67           8.18 437.49 7.71 436.5 C7.08 435.05 6.57 433.52 6.29 431.9 C4.25 420.81 11.64 410.11 22.73 408.11           C33.83 406.06 44.53 413.46 46.53 424.55 C46.65 425.22 47.08 425.77 47.71 426 C48.34 426.24 49.05           426.2 49.6 425.81 C51.72 424.35 54.16 423.56 56.76 423.56 C57.7 423.56 58.68 423.68 59.63 423.92           C62.89 424.7 65.69 426.71 67.46 429.58 C69.23 432.45 69.78 435.84 68.99 439.1 C68.75 440.16           69.38 441.22 70.45 441.46 C70.6 441.5 70.76 441.5 70.92 441.5 C71.82 441.5 72.61 440.87 72.84           439.97 C73.83 435.68 73.12 431.27 70.76 427.5 Z"
   class="st18"
   id="path65" />
					</g>
					<g
   id="shape3370-109"
   transform="translate(11.6819,0)">
						<title
   id="title66">Sheet.3370</title>
						<path
   d="M42.68 388.79 L10.03 388.79 C4.48 388.79 0 393.28 0 398.82 L0 431.47 C0 437.02 4.48 441.5 10.03           441.5 L42.68 441.5 C48.22 441.5 52.71 437.02 52.71 431.47 L52.71 398.82 C52.71 393.32 48.22           388.79 42.68 388.79 ZM48.77 431.47 C48.77 434.85 46.02 437.57 42.68 437.57 L10.03 437.57 C6.65           437.57 3.93 434.81 3.93 431.47 L3.93 398.82 C3.93 395.44 6.69 392.73 10.03 392.73 L42.68 392.73           C46.06 392.73 48.77 395.48 48.77 398.82 L48.77 431.47 Z"
   class="st19"
   id="path66" />
					</g>
					<g
   id="shape3371-113"
   transform="translate(21.3972,-11.3672)">
						<title
   id="title67">Sheet.3371</title>
						<path
   d="M31.27 432.69 L19.94 432.69 C19.63 431.63 19.04 430.64 18.21 429.82 C16.91 428.52 15.22 427.81 13.37           427.81 C10.27 427.81 7.67 429.86 6.8 432.69 L1.97 432.69 C0.87 432.69 0 433.55 0 434.66 C0 435.76           0.87 436.62 1.97 436.62 L6.8 436.62 C7.67 439.45 10.27 441.5 13.37 441.5 C16.48 441.5 19.08           439.45 19.94 436.62 L31.27 436.62 C32.37 436.62 33.24 435.76 33.24 434.66 C33.24 433.55 32.37           432.69 31.27 432.69 ZM13.41 437.57 C11.8 437.57 10.5 436.27 10.5 434.66 C10.5 433.04 11.8 431.75           13.41 431.75 C14.2 431.75 14.91 432.06 15.46 432.61 C16.01 433.16 16.32 433.91 16.32 434.66           C16.32 436.27 14.99 437.57 13.41 437.57 Z"
   class="st20"
   id="path67" />
					</g>
					<g
   id="shape3372-117"
   transform="translate(21.4365,-27.6511)">
						<title
   id="title68">Sheet.3372</title>
						<path
   d="M26.35 427.81 C23.25 427.81 20.65 429.86 19.78 432.69 L1.97 432.69 C0.87 432.69 0 433.55 0 434.66           C0 435.76 0.87 436.62 1.97 436.62 L19.78 436.62 C20.65 439.45 23.25 441.5 26.35 441.5 C30.13           441.5 33.2 438.43 33.2 434.66 C33.2 430.88 30.13 427.81 26.35 427.81 ZM26.35 437.57 C24.74 437.57           23.44 436.27 23.44 434.66 C23.44 433.04 24.74 431.75 26.35 431.75 C27.97 431.75 29.26 433.04           29.26 434.66 C29.26 436.27 27.97 437.57 26.35 437.57 Z"
   class="st21"
   id="path68" />
					</g>
				</g>
			</g>
		</g>
		<g
   id="group3463-121"
   transform="translate(1001.08,-86.4951)">
			<title
   id="title69">Sheet.3463</title>
			<g
   id="group3464-122"
   transform="translate(20.5449,0)">
				<title
   id="title70">Sheet.3464</title>
				<g
   id="shape3465-123"
   transform="translate(3.32534E-12,-206.567)">
					<title
   id="title71">Sheet.3465</title>
					<path
   d="M0 441.5 L335.4 441.5 L335.4 411.21 A13.9748 15.1439 -180 0 0 321.42 396.07 L13.97 396.07 A13.9748 15.1439          -180 0 0 0 411.21 L0 441.5 Z"
   class="st22"
   id="path71" />
				</g>
				<g
   id="shape3466-125">
					<title
   id="title72">Sheet.3466</title>
					<path
   d="M0 235.5 L0 429.38 A13.9748 12.1177 -180 0 0 13.97 441.5 L321.42 441.5 A13.9748 12.1177 -180 0 0 335.4          429.38 L335.4 235.5 L0 235.5 Z"
   class="st22"
   id="path72" />
				</g>
			</g>
			<g
   id="shape3468-127"
   transform="translate(24.9227,-210.505)">
				<title
   id="title73">Virtual server.16</title>
				<desc
   id="desc73">Appetizer Process</desc>
				<path
   id="rect73"
   class="st23"
   style="stroke-width:0.5;stroke-linecap:round;stroke-linejoin:round"
   d="m 0,404.241 h 324 v 37.2587 H 0 Z" />
				<path
   d="m 54.419977,430.07001 h -4.679976 l 6.359968,-16.79992 h 4.799976 l 6.359968,16.79992 h -4.679977 l -1.079994,-2.99999 h -5.99997 z m 2.159989,-6.11997 h 3.839981 l -1.91999,-5.63997 z m 18.719884,-3.35999 q -1.271993,0 -2.879985,0.48 v 5.75997 h 3.599982 q 0.959995,0 0.959995,-0.95999 v -4.43998 q 0,-0.36 -0.239999,-0.6 -0.239999,-0.24 -0.599997,-0.24 z m -2.879985,9.47996 v 4.07998 h -4.199979 v -16.79992 h 3.719981 l 0.239999,1.2 q 1.127994,-0.744 2.303988,-1.08 1.199994,-0.36 2.01599,-0.36 h 1.079995 q 1.631992,0 2.615987,0.984 0.983995,0.98399 0.983995,2.61598 v 5.51998 q 0,1.79999 -1.031995,2.83198 -1.007995,1.008 -2.807986,1.008 z m 17.999891,-9.47996 q -1.271994,0 -2.879986,0.48 v 5.75997 h 3.599982 q 0.959995,0 0.959995,-0.95999 v -4.43998 q 0,-0.36 -0.239998,-0.6 -0.239999,-0.24 -0.599997,-0.24 z m -2.879986,9.47996 v 4.07998 h -4.199979 v -16.79992 h 3.719982 l 0.239998,1.2 q 1.127995,-0.744 2.303989,-1.08 1.199994,-0.36 2.01599,-0.36 h 1.079994 q 1.631992,0 2.615987,0.984 0.983995,0.98399 0.983995,2.61598 v 5.51998 q 0,1.79999 -1.031995,2.83198 -1.007994,1.008 -2.807985,1.008 z m 15.8399,-9.95995 q -0.96,0 -0.96,0.95999 v 1.32 h 4.07998 v -1.32 q 0,-0.95999 -0.95999,-0.95999 z m 6.83997,9.71995 q -4.63198,0.48 -8.39996,0.48 -1.63199,0 -2.615989,-0.984 -0.983995,-0.98399 -0.983995,-2.61599 v -5.75997 q 0,-1.79999 1.007995,-2.80798 1.031999,-1.032 2.831989,-1.032 h 4.79997 q 1.79999,0 2.80799,1.032 1.03199,1.00799 1.03199,2.80798 v 4.43998 h -8.27996 v 0.96 q 0,0.35999 0.24,0.59999 0.24,0.24 0.6,0.24 2.37599,0 6.95997,-0.36 z m 11.51995,0.24 q -2.32799,0.24 -4.55998,0.24 -1.63199,0 -2.61599,-0.984 -0.98399,-0.98399 -0.98399,-2.61599 v -6.11997 h -1.43999 v -3.23998 h 1.43999 l 0.48,-2.87998 h 3.71998 v 2.87998 h 2.99998 v 3.23998 h -2.99998 v 5.51998 q 0,0.36 0.24,0.59999 0.23999,0.24 0.59999,0.24 h 3.11999 z m 6.47997,-12.23994 v 12.23994 h -4.19998 v -8.99996 h -1.79999 v -3.23998 z m -4.19998,-4.79998 h 4.19998 v 3.35999 h -4.19998 z m 17.7599,7.55996 -6.59996,6.23997 h 6.59996 v 3.23999 h -11.87994 v -3.23999 l 6.59997,-6.23997 h -6.59997 v -3.23998 h 11.87994 z m 6.59996,-0.47999 q -0.95999,0 -0.95999,0.95999 v 1.32 h 4.07998 v -1.32 q 0,-0.95999 -0.96,-0.95999 z m 6.83997,9.71995 q -4.63198,0.48 -8.39996,0.48 -1.63199,0 -2.61599,-0.984 -0.98399,-0.98399 -0.98399,-2.61599 v -5.75997 q 0,-1.79999 1.00799,-2.80798 1.032,-1.032 2.83199,-1.032 h 4.79997 q 1.79999,0 2.80799,1.032 1.03199,1.00799 1.03199,2.80798 v 4.43998 h -8.27995 v 0.96 q 0,0.35999 0.23999,0.59999 0.24,0.24 0.6,0.24 2.37599,0 6.95997,-0.36 z m 9.95996,-8.99996 q -1.51199,0 -3.11998,0.72 v 8.51996 h -4.19998 v -12.71994 h 3.71998 l 0.24,1.55999 q 2.06399,-1.79999 4.31997,-1.79999 h 1.08 v 3.71998 z m 11.1599,-7.55996 h 10.07995 q 2.51999,0 3.64798,1.152 1.152,1.12799 1.152,3.64798 v 2.39999 q 0,2.51998 -1.152,3.67198 -1.12799,1.12799 -3.64798,1.12799 h -5.75997 v 4.79998 h -4.31998 z m 10.55995,4.79998 q 0,-1.44 -1.43999,-1.44 h -4.79998 v 5.27998 h 4.79998 q 1.43999,0 1.43999,-1.43999 z m 13.5599,2.75998 q -1.51199,0 -3.11998,0.72 v 8.51996 h -4.19998 v -12.71994 h 3.71998 l 0.24,1.55999 q 2.06399,-1.79999 4.31998,-1.79999 h 1.07999 v 3.71998 z m 16.1999,5.63998 q 0,1.79999 -1.032,2.83198 -1.00799,1.008 -2.80798,1.008 h -5.51998 q -1.79999,0 -2.83198,-1.008 -1.008,-1.03199 -1.008,-2.83198 v -5.51998 q 0,-1.79999 1.008,-2.80798 1.03199,-1.032 2.83198,-1.032 h 5.51998 q 1.79999,0 2.80798,1.032 1.032,1.00799 1.032,2.80798 z m -4.19998,-5.15998 q 0,-0.95999 -0.96,-0.95999 h -2.87998 q -0.96,0 -0.96,0.95999 v 4.79998 q 0,0.95999 0.96,0.95999 h 2.87998 q 0.96,0 0.96,-0.95999 z m 17.63989,8.51996 q -4.48798,0.48 -7.91996,0.48 -1.63199,0 -2.61599,-0.984 -0.98399,-0.98399 -0.98399,-2.61599 v -5.51997 q 0,-1.79999 1.00799,-2.80798 1.032,-1.032 2.83199,-1.032 h 7.67996 v 3.23998 h -6.35997 q -0.95999,0 -0.95999,0.96 v 4.67998 q 0,0.35999 0.23999,0.59999 0.24,0.24 0.6,0.24 2.15999,0 6.47997,-0.36 z m 6.83995,-9.71995 q -0.95999,0 -0.95999,0.95999 v 1.32 h 4.07998 v -1.32 q 0,-0.95999 -0.96,-0.95999 z m 6.83997,9.71995 q -4.63198,0.48 -8.39996,0.48 -1.63199,0 -2.61599,-0.984 -0.98399,-0.98399 -0.98399,-2.61599 v -5.75997 q 0,-1.79999 1.00799,-2.80798 1.032,-1.032 2.83199,-1.032 h 4.79997 q 1.8,0 2.80799,1.032 1.032,1.00799 1.032,2.80798 v 4.43998 h -8.27996 v 0.96 q 0,0.35999 0.24,0.59999 0.23999,0.24 0.59999,0.24 2.37599,0 6.95997,-0.36 z m 2.15999,-3.11999 q 4.87198,0.36 7.67996,0.36 0.36,0 0.6,-0.24 0.24,-0.24 0.24,-0.59999 v -0.84 h -5.15998 q -1.63199,0 -2.61598,-0.98399 -0.984,-0.984 -0.984,-2.61599 v -0.84 q 0,-1.63199 0.984,-2.61598 0.98399,-0.984 2.61598,-0.984 h 8.15996 v 3.11999 h -6.71996 q -0.36,0 -0.6,0.23999 -0.24,0.24 -0.24,0.6 0,0.36 0.24,0.6 0.24,0.24 0.6,0.24 h 4.31998 q 1.63199,0 2.61598,0.98399 0.984,0.984 0.984,2.61599 v 0.95999 q 0,1.632 -0.984,2.61599 -0.98399,0.984 -2.61598,0.984 -4.24798,0 -9.11996,-0.48 z m 13.91992,0 q 4.87198,0.36 7.67997,0.36 0.35999,0 0.59999,-0.24 0.24,-0.24 0.24,-0.59999 v -0.84 h -5.15997 q -1.632,0 -2.61599,-0.98399 -0.984,-0.984 -0.984,-2.61599 v -0.84 q 0,-1.63199 0.984,-2.61598 0.98399,-0.984 2.61599,-0.984 h 8.15996 v 3.11999 h -6.71997 q -0.36,0 -0.6,0.23999 -0.24,0.24 -0.24,0.6 0,0.36 0.24,0.6 0.24,0.24 0.6,0.24 h 4.31998 q 1.63199,0 2.61598,0.98399 0.984,0.984 0.984,2.61599 v 0.95999 q 0,1.632 -0.984,2.61599 -0.98399,0.984 -2.61598,0.984 -4.24798,0 -9.11996,-0.48 z"
   id="text73"
   class="st24"
   style="font-size:47.9995px;font-family:'Russo One';fill:#595959"
   aria-label="Appetizer Process" />			</g>
		</g>
		<g
   id="group3433-130"
   transform="translate(994.37,-95.4951)">
			<title
   id="title74">Sheet.3433</title>
			<g
   id="shape3420-131"
   transform="translate(41.0477,-5.68434E-14)">
				<title
   id="title75">Rounded Rectangle.3420</title>
				<desc
   id="desc75">HTTP Server</desc>
				<path
   d="M6.78 441.5 L300.88 441.5 A6.781 6.781 -180 0 0 307.66 434.72 L307.66 376.28 A6.781 6.781 -180 0 0 300.88         369.5 L6.78 369.5 A6.781 6.781 -180 0 0 -0 376.28 L0 434.72 A6.781 6.781 -180 0 0 6.78 441.5 Z"
   class="st25"
   id="path75" />
				<path
   d="m 59.12,418.29999 h -6.48 v -10.26 h -9 v 10.26 h -6.48 v -25.2 h 6.48 v 9.9 h 9 v -9.9 h 6.48 z m 16.559984,0 h -6.48 v -20.16 h -7.56 v -5.04 h 21.6 v 5.04 h -7.56 z m 22.32003,0 h -6.48 v -20.16 h -7.56 v -5.04 h 21.599996 v 5.04 h -7.559996 z m 10.080026,-25.2 h 15.12 q 3.78,0 5.472,1.728 1.728,1.692 1.728,5.472 v 3.6 q 0,3.78 -1.728,5.508 -1.692,1.692 -5.472,1.692 h -8.64 v 7.2 h -6.48 z m 15.84,7.2 q 0,-2.16 -2.16,-2.16 h -7.2 v 7.92 h 7.2 q 2.16,0 2.16,-2.16 z m 19.76394,12.78 q 9.864,0.54 13.356,0.54 0.828,0 1.296,-0.468 0.504,-0.504 0.504,-1.332 v -3.24 h -8.28 q -3.78,0 -5.508,-1.692 -1.692,-1.728 -1.692,-5.508 v -1.08 q 0,-3.78 1.692,-5.472 1.728,-1.728 5.508,-1.728 h 12.636 v 5.04 h -11.196 q -2.16,0 -2.16,2.16 v 0.72 q 0,2.16 2.16,2.16 h 6.48 q 3.528,0 5.184,1.656 1.656,1.656 1.656,5.184 v 1.8 q 0,3.528 -1.656,5.184 -1.656,1.656 -5.184,1.656 -1.836,0 -3.888,-0.072 l -3.312,-0.144 q -3.672,-0.18 -7.596,-0.504 z m 31.89601,-9.72 q -1.44,0 -1.44,1.44 v 1.98 h 6.12 v -1.98 q 0,-1.44 -1.44,-1.44 z m 10.26,14.58 q -6.948,0.72 -12.6,0.72 -2.448,0 -3.924,-1.476 -1.476,-1.476 -1.476,-3.924 v -8.64 q 0,-2.7 1.512,-4.212 1.548,-1.548 4.248,-1.548 h 7.2 q 2.7,0 4.212,1.548 1.548,1.512 1.548,4.212 v 6.66 h -12.42 v 1.44 q 0,0.54 0.36,0.9 0.36,0.36 0.9,0.36 3.564,0 10.44,-0.54 z m 14.94001,-13.5 q -2.268,0 -4.68,1.08 v 12.78 h -6.3 v -19.08 h 5.58 l 0.36,2.34 q 3.096,-2.7 6.48,-2.7 h 1.62 v 5.58 z m 18.35997,-5.22 h 6.66 l -7.2,19.08 h -7.2 l -7.2,-19.08 h 6.66 l 4.14,12.96 z m 15.11999,4.14 q -1.44,0 -1.44,1.44 v 1.98 h 6.12 v -1.98 q 0,-1.44 -1.44,-1.44 z m 10.26,14.58 q -6.948,0.72 -12.6,0.72 -2.448,0 -3.924,-1.476 -1.476,-1.476 -1.476,-3.924 v -8.64 q 0,-2.7 1.512,-4.212 1.548,-1.548 4.248,-1.548 h 7.2 q 2.7,0 4.212,1.548 1.548,1.512 1.548,4.212 v 6.66 h -12.42 v 1.44 q 0,0.54 0.36,0.9 0.36,0.36 0.9,0.36 3.564,0 10.44,-0.54 z m 14.94,-13.5 q -2.268,0 -4.68,1.08 v 12.78 h -6.3 v -19.08 h 5.58 l 0.36,2.34 q 3.096,-2.7 6.48,-2.7 h 1.62 v 5.58 z"
   id="text75"
   class="st26"
   style="font-size:108px;font-family:'Russo One';fill:#bfbfbf"
   aria-label="HTTP Server" />			</g>
			<g
   id="group3421-134">
				<title
   id="title76">SDKs.3421</title>
				<g
   id="group3422-135">
					<title
   id="title77">CloudKit-Icon</title>
					<g
   id="group3423-136">
						<title
   id="title78">Bottom</title>
						<g
   id="shape3424-137">
							<title
   id="title79">Sheet.3424</title>
							<path
   d="M61.7 422.37 C66.52 418.62 66.52 412.56 61.7 408.8 L41.96 393.44 C37.15 389.69 29.36 389.69            24.54 393.44 L4.81 408.8 C0 412.56 0 418.62 4.81 422.37 L24.54 437.75 C29.36 441.5 37.15            441.5 41.96 437.75 L61.7 422.37 Z"
   class="st27"
   id="path79" />
						</g>
						<g
   id="shape3425-139">
							<title
   id="title80">Sheet.3425</title>
							<path
   d="M61.7 422.37 C66.52 418.62 66.52 412.56 61.7 408.8 L41.96 393.44 C37.15 389.69 29.36 389.69            24.54 393.44 L4.81 408.8 C0 412.56 0 418.62 4.81 422.37 L24.54 437.75 C29.36 441.5 37.15            441.5 41.96 437.75 L61.7 422.37 Z"
   class="st28"
   id="path80" />
						</g>
					</g>
					<g
   id="group3426-141"
   transform="translate(0,-10.6879)">
						<title
   id="title81">Middle</title>
						<g
   id="shape3427-142">
							<title
   id="title82">Sheet.3427</title>
							<path
   d="M61.7 422.37 C66.52 418.62 66.52 412.56 61.7 408.8 L41.98 393.43 C37.16 389.68 29.37 389.68            24.56 393.43 L4.81 408.8 C0 412.56 0 418.62 4.81 422.37 L24.54 437.75 C29.36 441.5 37.15            441.5 41.96 437.75 L61.7 422.37 Z"
   class="st27"
   id="path82" />
						</g>
						<g
   id="shape3428-144">
							<title
   id="title83">Sheet.3428</title>
							<path
   d="M61.7 422.37 C66.52 418.62 66.52 412.56 61.7 408.8 L41.98 393.43 C37.16 389.68 29.37 389.68            24.56 393.43 L4.81 408.8 C0 412.56 0 418.62 4.81 422.37 L24.54 437.75 C29.36 441.5 37.15            441.5 41.96 437.75 L61.7 422.37 Z"
   class="st28"
   id="path83" />
						</g>
					</g>
					<g
   id="group3429-146"
   transform="translate(0,-21.3758)">
						<title
   id="title84">Top</title>
						<g
   id="shape3430-147">
							<title
   id="title85">Sheet.3430</title>
							<path
   d="M61.7 422.37 C66.52 418.62 66.52 412.56 61.7 408.8 L41.98 393.43 C37.16 389.68 29.37 389.68            24.56 393.43 L4.81 408.8 C0 412.56 0 418.62 4.81 422.37 L24.54 437.75 C29.36 441.5 37.15            441.5 41.96 437.75 L61.7 422.37 Z"
   class="st27"
   id="path85" />
						</g>
						<g
   id="shape3431-149">
							<title
   id="title86">Sheet.3431</title>
							<path
   d="M61.7 422.37 C66.52 418.62 66.52 412.56 61.7 408.8 L41.98 393.43 C37.16 389.68 29.37 389.68            24.56 393.43 L4.81 408.8 C0 412.56 0 418.62 4.81 422.37 L24.54 437.75 C29.36 441.5 37.15            441.5 41.96 437.75 L61.7 422.37 Z"
   class="st28"
   id="path86" />
						</g>
					</g>
				</g>
				<g
   id="shape3432-151"
   transform="translate(21.6186,-29.2453)">
					<title
   id="title87">Sheet.3432</title>
					<path
   d="M11.99 403.59 L0 421.83 L6.81 426.28 L7.93 424.56 L11.48 441.5 L23.28 423.18 L16.66 418.86 L15.53 420.6          L11.99 403.59 ZM17.35 421.9 L20.25 423.86 L12.49 435.75 L8.93 418.76 L6.06 423.18 L3.2 421.31 L10.99          409.39 L14.52 426.22 L17.35 421.9 Z"
   class="st27"
   id="path87" />
				</g>
			</g>
		</g>
		<g
   id="shape3435-153"
   transform="translate(1001.87,-225.236)">
			<title
   id="title88">Dynamic connector.3435</title>
			<path
   d="M0 441.5 L-137.46 489.15"
   class="st29"
   id="path88" />
		</g>
		<g
   id="group3304-156"
   transform="translate(382.82,-132.072)">
			<title
   id="title89">Sheet.3304</title>
			<g
   id="group3248-157"
   transform="translate(10.6875,0)">
				<title
   id="title90">Sheet.3248</title>
				<g
   id="shape3224-158">
					<title
   id="title91">Sheet.3224</title>
					<path
   id="ellipse91"
   class="st12"
   style="fill:#f2f2f2;stroke:#595959;stroke-width:3;stroke-linecap:round;stroke-linejoin:round"
   d="M 96.1875,393.40601 A 48.0937,48.0937 0 0 1 48.0938,441.49971 48.0937,48.0937 0 0 1 9.9182129e-5,393.40601 48.0937,48.0937 0 0 1 48.0938,345.31231 a 48.0937,48.0937 0 0 1 48.0937,48.0937 z" />
				</g>
				<g
   id="group3237-160"
   transform="translate(12.0937,-12.9375)">
					<title
   id="title92">Router Colored</title>
					<g
   id="group3238-161"
   transform="translate(38.5398,-28.4211)">
						<title
   id="title93">Sheet.3238</title>
						<g
   id="shape3239-162">
							<title
   id="title94">Sheet.3239</title>
						</g>
					</g>
					<g
   id="group3240-163">
						<title
   id="title95">Sheet.3240</title>
						<g
   id="shape3241-164"
   transform="translate(26.4054,-24.3494)">
							<title
   id="title96">Sheet.3241</title>
							<path
   d="M20.64 432.39 C21.12 430.94 21.12 429.53 21.12 427.11 L21.12 424.25 C21.12 421.83 21.12 420.42            19.67 418.96 C18.22 418 16.81 417.51 14.39 417.51 L0 417.51 L0 441.5 L6.73 441.5 L6.73 434.28            L11.53 434.28 L15.36 441.5 L21.61 441.5 L17.29 434.28 C18.71 433.8 19.67 433.8 20.64 432.39            ZM15.36 426.14 C15.36 427.59 14.88 429 13.42 429 L6.69 429 L6.69 421.79 L12.94 421.79 C14.39            421.79 15.36 422.75 15.36 424.21 L15.36 426.14 Z"
   class="st13"
   id="path96" />
						</g>
						<g
   id="shape3242-167"
   transform="translate(11.2072,-11.0862)">
							<title
   id="title97">Sheet.3242</title>
							<path
   d="M49.59 416.71 C49.59 403.04 38.46 391.91 24.79 391.91 C11.13 391.91 0 403.04 0 416.71 C0 430.37            11.13 441.5 24.79 441.5 C38.46 441.5 49.59 430.37 49.59 416.71 ZM24.79 437.99 C13.06 437.99            3.51 428.44 3.51 416.71 C3.51 404.98 13.06 395.42 24.79 395.42 C36.52 395.42 46.08 404.98            46.08 416.71 C46.08 428.44 36.52 437.99 24.79 437.99 Z"
   class="st13"
   id="path97" />
						</g>
						<g
   id="shape3243-170"
   transform="translate(36.6047,-36.5644)">
							<title
   id="title98">Sheet.3243</title>
							<path
   d="M1.69 414.17 C15.24 415.05 26.53 426.38 27.41 439.89 C27.49 440.81 28.26 441.5 29.15 441.5 C29.19            441.5 29.23 441.5 29.27 441.5 C30.24 441.42 30.96 440.61 30.88 439.65 C30.15 428.72 23.42            419.09 14.07 414.13 L24.95 414.13 L23.62 415.46 C22.94 416.14 22.94 417.23 23.62 417.92            C23.95 418.24 24.43 418.44 24.87 418.44 C25.32 418.44 25.76 418.28 26.12 417.92 L30.44 413.6            C31.12 412.92 31.12 411.83 30.44 411.14 L26.12 406.83 C25.44 406.15 24.35 406.15 23.66 406.83            C22.98 407.52 22.98 408.6 23.66 409.29 L24.99 410.62 L1.81 410.62 C0.89 410.62 0.08 411.39            0.08 412.31 C0 413.32 0.73 414.09 1.69 414.17 Z"
   class="st13"
   id="path98" />
						</g>
						<g
   id="shape3244-173"
   transform="translate(0,-36.5644)">
							<title
   id="title99">Sheet.3244</title>
							<path
   d="M4.47 439.77 C4.47 440.69 5.24 441.5 6.17 441.5 L6.21 441.5 C7.14 441.5 7.9 440.77 7.94 439.89            C8.83 426.34 20.16 415.05 33.66 414.17 C34.63 414.09 35.35 413.28 35.27 412.31 C35.19 411.35            34.39 410.62 33.42 410.7 C22.49 411.43 12.86 418.16 7.9 427.51 L7.9 416.63 L9.23 417.96            C9.55 418.28 10.04 418.48 10.48 418.48 C10.92 418.48 11.37 418.32 11.73 417.96 C12.42 417.27            12.42 416.18 11.73 415.5 L7.46 411.18 C6.77 410.5 5.68 410.5 5 411.18 L0.69 415.5 C0 416.18            0 417.27 0.69 417.96 C1.37 418.64 2.46 418.64 3.14 417.96 L4.47 416.63 L4.47 439.77 Z"
   class="st13"
   id="path99" />
						</g>
						<g
   id="shape3245-176"
   transform="translate(4.31355,0)">
							<title
   id="title100">Sheet.3245</title>
							<path
   d="M29.39 433.64 C15.84 432.75 4.56 421.42 3.67 407.92 C3.59 406.95 2.78 406.23 1.81 406.31 C0.85            406.39 0.12 407.19 0.2 408.16 C0.93 419.09 7.66 428.72 17.01 433.68 L6.13 433.68 L7.46 432.35            C8.14 431.66 8.14 430.58 7.46 429.89 C6.77 429.2 5.68 429.2 5 429.89 L0.69 434.2 C0 434.89            0 435.98 0.69 436.66 L5 440.98 C5.32 441.3 5.81 441.5 6.25 441.5 C6.69 441.5 7.14 441.34            7.5 440.98 C8.18 440.29 8.18 439.2 7.5 438.52 L6.17 437.19 L29.27 437.19 C30.19 437.19 31            436.42 31 435.49 C31.08 434.49 30.36 433.72 29.39 433.64 Z"
   class="st13"
   id="path100" />
						</g>
						<g
   id="shape3246-179"
   transform="translate(36.645,-4.35386)">
							<title
   id="title101">Sheet.3246</title>
							<path
   d="M34.67 434.2 C33.98 433.52 32.9 433.52 32.21 434.2 L30.88 435.53 L30.88 412.39 C30.88 411.47            30.11 410.66 29.19 410.66 L29.15 410.66 C28.22 410.66 27.45 411.39 27.41 412.27 C26.53 425.82            15.2 437.11 1.69 437.99 C0.73 438.07 0 438.88 0.08 439.85 C0.16 440.77 0.93 441.46 1.81            441.46 C1.85 441.46 1.89 441.46 1.94 441.46 C12.86 440.73 22.49 434 27.45 424.65 L27.45            435.53 L26.12 434.2 C25.44 433.52 24.35 433.52 23.66 434.2 C22.98 434.89 22.98 435.98 23.66            436.66 L27.98 440.98 C28.3 441.3 28.78 441.5 29.23 441.5 C29.67 441.5 30.11 441.34 30.48            440.98 L34.79 436.66 C35.35 435.98 35.35 434.85 34.67 434.2 Z"
   class="st13"
   id="path101" />
						</g>
					</g>
				</g>
			</g>
			<g
   id="shape3287-182"
   transform="translate(99,-34.3125)">
				<title
   id="title102">Sheet.3287</title>
				<path
   id="ellipse102"
   class="st14"
   style="fill:#ffffff;stroke:#595959;stroke-width:5;stroke-linecap:round;stroke-linejoin:round;marker-end:url(#mrkr42-58)"
   d="m 16.875,433.06201 a 8.4375,8.4375 0 0 1 -8.4375,8.4375 8.4375,8.4375 0 0 1 -8.4375,-8.4375 8.4375,8.4375 0 0 1 8.4375,-8.4375 8.4375,8.4375 0 0 1 8.4375,8.4375 z" />
			</g>
			<g
   id="shape3293-185"
   transform="translate(89.4375,-69.1875)">
				<title
   id="title103">Sheet.3293</title>
				<path
   id="ellipse103"
   class="st14"
   style="fill:#ffffff;stroke:#595959;stroke-width:5;stroke-linecap:round;stroke-linejoin:round;marker-end:url(#mrkr42-58)"
   d="m 16.875,433.06201 a 8.4375,8.4375 0 0 1 -8.4375,8.4375 8.4375,8.4375 0 0 1 -8.4375,-8.4375 8.4375,8.4375 0 0 1 8.4375,-8.4375 8.4375,8.4375 0 0 1 8.4375,8.4375 z" />
			</g>
			<g
   id="shape3279-188"
   transform="translate(0,-34.3125)">
				<title
   id="title104">Sheet.3279</title>
				<path
   id="ellipse104"
   class="st14"
   style="fill:#ffffff;stroke:#595959;stroke-width:5;stroke-linecap:round;stroke-linejoin:round;marker-end:url(#mrkr42-58)"
   d="m 16.875,433.06201 a 8.4375,8.4375 0 0 1 -8.4375,8.4375 8.4375,8.4375 0 0 1 -8.4375,-8.4375 8.4375,8.4375 0 0 1 8.4375,-8.4375 8.4375,8.4375 0 0 1 8.4375,8.4375 z" />
			</g>
		</g>
		<g
   id="group3444-191"
   transform="translate(141.577,-119.25)">
			<title
   id="title105">Sheet.3444</title>
		</g>
		<g
   id="shape3313-192"
   transform="translate(848.007,-166.385)">
			<title
   id="title106">Sheet.3313</title>
			<path
   id="ellipse106"
   class="st30"
   style="fill:#ffffff;stroke:#fc0147;stroke-width:5;stroke-linecap:round;stroke-linejoin:round;marker-end:url(#mrkr42-195)"
   d="m 16.875,433.06201 a 8.4375,8.4375 0 0 1 -8.4375,8.4375 8.4375,8.4375 0 0 1 -8.4375,-8.4375 8.4375,8.4375 0 0 1 8.4375,-8.4375 8.4375,8.4375 0 0 1 8.4375,8.4375 z" />
		</g>
		<g
   id="shape3445-196"
   transform="translate(848.077,-166.5)">
			<title
   id="title107">Sheet.3445</title>
			<path
   id="ellipse107"
   class="st14"
   style="fill:#ffffff;stroke:#595959;stroke-width:5;stroke-linecap:round;stroke-linejoin:round;marker-end:url(#mrkr42-58)"
   d="m 16.875,433.06201 a 8.4375,8.4375 0 0 1 -8.4375,8.4375 8.4375,8.4375 0 0 1 -8.4375,-8.4375 8.4375,8.4375 0 0 1 8.4375,-8.4375 8.4375,8.4375 0 0 1 8.4375,8.4375 z" />
		</g>
		<g
   id="shape3450-199"
   transform="translate(603,-313.055)">
			<title
   id="title108">Sheet.3450</title>
			<desc
   id="desc108">Controller</desc>
			<path
   id="rect108"
   class="st32"
   style="fill:#ffffff;stroke:#595959;stroke-linecap:round;stroke-linejoin:round"
   d="m 0,417.05499 h 101.25 v 24.4451 H 0 Z" />
			<path
   d="m 12.015195,424.91339 q -0.782226,0 -1.388672,0.30762 -0.597656,0.29883 -1.0107417,0.87012 -0.4042969,0.57128 -0.6152344,1.37988 -0.2109375,0.80859 -0.2109375,1.81933 0,1.36231 0.3339844,2.32911 0.3427734,0.958 1.0546872,1.46777 0.711914,0.50098 1.836914,0.50098 0.782227,0 1.564453,-0.17579 0.791016,-0.17578 1.713868,-0.50097 v 2.28515 q -0.852539,0.35157 -1.678711,0.50098 -0.826172,0.1582 -1.854492,0.1582 -1.9863286,0 -3.2695317,-0.81738 -1.2744141,-0.82617 -1.8896484,-2.30273 -0.6152344,-1.48535 -0.6152344,-3.46289 0,-1.45899 0.3955078,-2.67188 0.3955078,-1.21289 1.1601563,-2.10058 0.7646484,-0.8877 1.8896484,-1.3711 1.125,-0.4834 2.583984,-0.4834 0.958008,0 1.916016,0.2461 0.966797,0.2373 1.845703,0.65918 l -0.878906,2.21484 q -0.720703,-0.34277 -1.450195,-0.59766 -0.729493,-0.25488 -1.432618,-0.25488 z m 14.730469,5.83594 q 0,1.23047 -0.333984,2.17969 -0.325196,0.94921 -0.958008,1.60839 -0.624024,0.6504 -1.511719,0.98438 -0.878906,0.33398 -1.986328,0.33398 -1.037109,0 -1.907227,-0.33398 -0.861328,-0.33398 -1.502929,-0.98438 -0.632813,-0.65918 -0.984375,-1.60839 -0.342774,-0.94922 -0.342774,-2.17969 0,-1.63477 0.580078,-2.76856 0.580079,-1.13379 1.652344,-1.72265 1.072266,-0.58887 2.557617,-0.58887 1.379883,0 2.44336,0.58887 1.072265,0.58886 1.678711,1.72265 0.615234,1.13379 0.615234,2.76856 z m -6.793945,0 q 0,0.9668 0.210937,1.62598 0.210938,0.65917 0.65918,0.99316 0.448242,0.33398 1.168945,0.33398 0.711914,0 1.151367,-0.33398 0.448243,-0.33399 0.650391,-0.99316 0.210938,-0.65918 0.210938,-1.62598 0,-0.97559 -0.210938,-1.61719 -0.202148,-0.65039 -0.650391,-0.97558 -0.448242,-0.3252 -1.168945,-0.3252 -1.063476,0 -1.546875,0.72949 -0.474609,0.72949 -0.474609,2.18848 z m 14.589844,-5.08008 q 1.573242,0 2.53125,0.86133 0.958007,0.85254 0.958007,2.74219 v 6.40722 h -2.680664 v -5.73926 q 0,-1.05468 -0.386718,-1.59082 -0.37793,-0.53613 -1.195313,-0.53613 -1.230469,0 -1.678711,0.83496 -0.448242,0.83496 -0.448242,2.40821 v 4.62304 h -2.680664 v -9.82617 h 2.047851 l 0.360352,1.25684 h 0.149414 q 0.316406,-0.50977 0.782227,-0.82618 0.474609,-0.3164 1.045898,-0.46582 0.580078,-0.14941 1.195313,-0.14941 z m 10.388671,8.05078 q 0.439454,0 0.852539,-0.0879 0.421875,-0.0879 0.834961,-0.21973 v 1.99512 q -0.430664,0.19336 -1.072265,0.31641 -0.632813,0.13183 -1.388672,0.13183 -0.878906,0 -1.582031,-0.28125 -0.694336,-0.29004 -1.098633,-0.99316 -0.395508,-0.71191 -0.395508,-1.97754 v -4.7373 h -1.283203 v -1.13379 l 1.476562,-0.89649 0.773438,-2.07422 h 1.713867 v 2.0918 h 2.750977 v 2.0127 h -2.750977 v 4.7373 q 0,0.5625 0.316406,0.84375 0.325196,0.27246 0.852539,0.27246 z m 9.158204,-8.05078 q 0.202148,0 0.46582,0.0264 0.272461,0.0176 0.439453,0.0527 l -0.202148,2.51367 q -0.131836,-0.0439 -0.37793,-0.0615 -0.237305,-0.0264 -0.413086,-0.0264 -0.518555,0 -1.010742,0.13184 -0.483399,0.13184 -0.870117,0.43066 -0.386719,0.29004 -0.615235,0.77344 -0.219726,0.47461 -0.219726,1.16895 v 5.00097 h -2.680664 v -9.82617 h 2.030273 l 0.395508,1.65234 h 0.131836 q 0.290039,-0.50097 0.720703,-0.91406 0.439453,-0.42187 0.993164,-0.66797 0.5625,-0.25488 1.212891,-0.25488 z m 11.61914,5.08008 q 0,1.23047 -0.333984,2.17969 -0.325196,0.94921 -0.958008,1.60839 -0.624023,0.6504 -1.511719,0.98438 -0.878906,0.33398 -1.986328,0.33398 -1.037109,0 -1.907226,-0.33398 -0.861329,-0.33398 -1.50293,-0.98438 -0.632813,-0.65918 -0.984375,-1.60839 -0.342774,-0.94922 -0.342774,-2.17969 0,-1.63477 0.580079,-2.76856 0.580078,-1.13379 1.652343,-1.72265 1.072266,-0.58887 2.557617,-0.58887 1.379883,0 2.44336,0.58887 1.072265,0.58886 1.678711,1.72265 0.615234,1.13379 0.615234,2.76856 z m -6.793945,0 q 0,0.9668 0.210937,1.62598 0.210938,0.65917 0.65918,0.99316 0.448242,0.33398 1.168945,0.33398 0.711914,0 1.151368,-0.33398 0.448242,-0.33399 0.65039,-0.99316 0.210938,-0.65918 0.210938,-1.62598 0,-0.97559 -0.210938,-1.61719 -0.202148,-0.65039 -0.65039,-0.97558 -0.448243,-0.3252 -1.168946,-0.3252 -1.063476,0 -1.546875,0.72949 -0.474609,0.72949 -0.474609,2.18848 z m 11.689453,4.93066 h -2.680664 v -13.67578 h 2.680664 z m 5.493164,0 h -2.680664 v -13.67578 h 2.680664 z m 6.864258,-10.01074 q 1.362305,0 2.34668,0.52734 0.984375,0.51856 1.520507,1.51172 0.536133,0.99317 0.536133,2.42578 v 1.30079 h -6.336914 q 0.04394,1.13378 0.676758,1.78418 0.641601,0.6416 1.775391,0.6416 0.940429,0 1.722656,-0.19336 0.782226,-0.19336 1.608398,-0.58008 v 2.07422 q -0.729492,0.36035 -1.529297,0.52734 -0.791015,0.16699 -1.924804,0.16699 -1.476563,0 -2.619141,-0.54492 -1.133789,-0.54492 -1.78418,-1.66113 -0.641601,-1.11621 -0.641601,-2.8125 0,-1.72266 0.580078,-2.86524 0.588867,-1.15136 1.634766,-1.72265 1.045898,-0.58008 2.43457,-0.58008 z m 0.01758,1.90723 q -0.782227,0 -1.300781,0.50097 -0.509766,0.50098 -0.588867,1.57325 h 3.761718 q -0.0088,-0.59766 -0.219726,-1.06348 -0.202149,-0.46582 -0.615235,-0.73828 -0.404297,-0.27246 -1.037109,-0.27246 z m 12.049805,-1.90723 q 0.202148,0 0.46582,0.0264 0.272461,0.0176 0.439453,0.0527 l -0.202148,2.51367 q -0.131836,-0.0439 -0.37793,-0.0615 -0.237305,-0.0264 -0.413086,-0.0264 -0.518555,0 -1.010742,0.13184 -0.483399,0.13184 -0.870117,0.43066 -0.386719,0.29004 -0.615235,0.77344 -0.219726,0.47461 -0.219726,1.16895 v 5.00097 h -2.680664 v -9.82617 h 2.030273 l 0.395508,1.65234 h 0.131836 q 0.290039,-0.50097 0.720703,-0.91406 0.439453,-0.42187 0.993164,-0.66797 0.5625,-0.25488 1.212891,-0.25488 z"
   id="text108"
   class="st33"
   style="font-weight:bold;font-size:27px;font-family:'Open Sans';fill:#595959"
   aria-label="Controller" />		</g>
		<g
   id="group3434-202"
   transform="translate(994.327,-186.862)">
			<title
   id="title109">Sheet.3434</title>
			<g
   id="shape3402-203"
   transform="translate(41.0477,-5.68434E-14)">
				<title
   id="title110">Rounded Rectangle.3402</title>
				<desc
   id="desc110">Reflect Server</desc>
				<path
   d="M6.78 441.5 L300.92 441.5 A6.78195 6.78195 -180 0 0 307.7 434.72 L307.7 376.28 A6.78195 6.78195 -180 0 0         300.92 369.5 L6.78 369.5 A6.78195 6.78195 -180 0 0 -0 376.28 L0 434.72 A6.78195 6.78195 -180 0 0 6.78         441.5 Z"
   class="st34"
   id="path110" />
				<path
   d="m 37.16,393.09999 h 15.12 q 3.78,0 5.472,1.728 1.728,1.692 1.728,5.472 v 3.24 q 0,2.988 -1.008,4.644 -0.972,1.656 -3.132,2.196 l 4.5,7.92 h -7.02 l -4.14,-7.56 h -5.04 v 7.56 h -6.48 z m 15.84,7.2 q 0,-2.16 -2.16,-2.16 h -7.2 v 7.56 h 7.2 q 2.16,0 2.16,-2.16 z m 17.099975,3.06 q -1.44,0 -1.44,1.44 v 1.98 h 6.12 v -1.98 q 0,-1.44 -1.44,-1.44 z m 10.26,14.58 q -6.948,0.72 -12.6,0.72 -2.448,0 -3.924,-1.476 -1.476,-1.476 -1.476,-3.924 v -8.64 q 0,-2.7 1.512,-4.212 1.548,-1.548 4.248,-1.548 h 7.2 q 2.7,0 4.212,1.548 1.548,1.512 1.548,4.212 v 6.66 h -12.42 v 1.44 q 0,0.54 0.36,0.9 0.36,0.36 0.9,0.36 3.564,0 10.44,-0.54 z m 19.440014,-19.98 q -1.044,-0.072 -2.772,-0.216 -1.728,-0.144 -2.988,-0.144 -1.26,0 -1.62,0.36 -0.36,0.36 -0.36,0.9 v 1.8 h 5.94 v 4.86 h -5.94 v 12.78 h -6.3 v -12.78 h -2.52 v -4.86 h 2.52 v -2.52 q 0,-2.448 1.476,-3.924 1.476,-1.476 3.924,-1.476 2.196,0 4.644,0.144 2.448,0.144 3.996,0.216 z m 11.160041,20.34 q -2.412,0.36 -4.608,0.36 -2.16,0 -3.636,-1.476 -1.476,-1.476 -1.476,-3.924 v -20.16 h 6.3 v 19.26 q 0,0.54 0.36,0.9 0.36,0.36 0.9,0.36 h 2.16 z m 9.90001,-14.94 q -1.44,0 -1.44,1.44 v 1.98 h 6.12 v -1.98 q 0,-1.44 -1.44,-1.44 z m 10.26,14.58 q -6.948,0.72 -12.6,0.72 -2.448,0 -3.924,-1.476 -1.476,-1.476 -1.476,-3.924 v -8.64 q 0,-2.7 1.512,-4.212 1.548,-1.548 4.248,-1.548 h 7.2 q 2.7,0 4.212,1.548 1.548,1.512 1.548,4.212 v 6.66 h -12.42 v 1.44 q 0,0.54 0.36,0.9 0.36,0.36 0.9,0.36 3.564,0 10.44,-0.54 z m 20.88001,0 q -6.732,0.72 -11.88,0.72 -2.448,0 -3.924,-1.476 -1.476,-1.476 -1.476,-3.924 v -8.28 q 0,-2.7 1.512,-4.212 1.548,-1.548 4.248,-1.548 h 11.52 v 4.86 h -9.54 q -1.44,0 -1.44,1.44 v 7.02 q 0,0.54 0.36,0.9 0.36,0.36 0.9,0.36 3.24,0 9.72,-0.54 z m 16.19997,0.36 q -3.492,0.36 -6.84,0.36 -2.448,0 -3.924,-1.476 -1.476,-1.476 -1.476,-3.924 v -9.18 h -2.16 v -4.86 h 2.16 l 0.72,-4.32 h 5.58 v 4.32 h 4.5 v 4.86 h -4.5 v 8.28 q 0,0.54 0.36,0.9 0.36,0.36 0.9,0.36 h 4.68 z m 12.924,-5.22 q 9.864,0.54 13.356,0.54 0.828,0 1.296,-0.468 0.504,-0.504 0.504,-1.332 v -3.24 h -8.28 q -3.78,0 -5.508,-1.692 -1.692,-1.728 -1.692,-5.508 v -1.08 q 0,-3.78 1.692,-5.472 1.728,-1.728 5.508,-1.728 h 12.636 v 5.04 h -11.196 q -2.16,0 -2.16,2.16 v 0.72 q 0,2.16 2.16,2.16 h 6.48 q 3.528,0 5.184,1.656 1.656,1.656 1.656,5.184 v 1.8 q 0,3.528 -1.656,5.184 -1.656,1.656 -5.184,1.656 -1.836,0 -3.888,-0.072 l -3.312,-0.144 q -3.672,-0.18 -7.596,-0.504 z m 31.89601,-9.72 q -1.44,0 -1.44,1.44 v 1.98 h 6.12 v -1.98 q 0,-1.44 -1.44,-1.44 z m 10.26,14.58 q -6.948,0.72 -12.6,0.72 -2.448,0 -3.924,-1.476 -1.476,-1.476 -1.476,-3.924 v -8.64 q 0,-2.7 1.512,-4.212 1.548,-1.548 4.248,-1.548 h 7.2 q 2.7,0 4.212,1.548 1.548,1.512 1.548,4.212 v 6.66 h -12.42 v 1.44 q 0,0.54 0.36,0.9 0.36,0.36 0.9,0.36 3.564,0 10.44,-0.54 z m 14.94,-13.5 q -2.268,0 -4.68,1.08 v 12.78 h -6.3 v -19.08 h 5.58 l 0.36,2.34 q 3.096,-2.7 6.48,-2.7 h 1.62 v 5.58 z m 18.35997,-5.22 h 6.66 l -7.2,19.08 h -7.2 l -7.2,-19.08 h 6.66 l 4.14,12.96 z m 15.11999,4.14 q -1.44,0 -1.44,1.44 v 1.98 h 6.12 v -1.98 q 0,-1.44 -1.44,-1.44 z m 10.26,14.58 q -6.948,0.72 -12.6,0.72 -2.448,0 -3.924,-1.476 -1.476,-1.476 -1.476,-3.924 v -8.64 q 0,-2.7 1.512,-4.212 1.548,-1.548 4.248,-1.548 h 7.2 q 2.7,0 4.212,1.548 1.548,1.512 1.548,4.212 v 6.66 h -12.42 v 1.44 q 0,0.54 0.36,0.9 0.36,0.36 0.9,0.36 3.564,0 10.44,-0.54 z m 14.94001,-13.5 q -2.268,0 -4.68,1.08 v 12.78 h -6.3 v -19.08 h 5.58 l 0.36,2.34 q 3.096,-2.7 6.48,-2.7 h 1.62 v 5.58 z"
   id="text110"
   class="st10"
   style="font-size:108px;font-family:'Russo One';fill:#595959"
   aria-label="Reflect Server" />			</g>
			<g
   id="group3408-206">
				<title
   id="title111">SDKs.3408</title>
				<g
   id="group3409-207">
					<title
   id="title112">CloudKit-Icon</title>
					<g
   id="group3410-208">
						<title
   id="title113">Bottom</title>
						<g
   id="shape3411-209">
							<title
   id="title114">Sheet.3411</title>
							<path
   d="M61.7 422.37 C66.52 418.62 66.52 412.56 61.7 408.8 L41.96 393.44 C37.15 389.69 29.36 389.69            24.54 393.44 L4.81 408.8 C0 412.56 0 418.62 4.81 422.37 L24.54 437.75 C29.36 441.5 37.15            441.5 41.96 437.75 L61.7 422.37 Z"
   class="st35"
   id="path114" />
						</g>
						<g
   id="shape3412-211">
							<title
   id="title115">Sheet.3412</title>
							<path
   d="M61.7 422.37 C66.52 418.62 66.52 412.56 61.7 408.8 L41.96 393.44 C37.15 389.69 29.36 389.69            24.54 393.44 L4.81 408.8 C0 412.56 0 418.62 4.81 422.37 L24.54 437.75 C29.36 441.5 37.15            441.5 41.96 437.75 L61.7 422.37 Z"
   class="st36"
   id="path115" />
						</g>
					</g>
					<g
   id="group3413-213"
   transform="translate(0,-10.6879)">
						<title
   id="title116">Middle</title>
						<g
   id="shape3414-214">
							<title
   id="title117">Sheet.3414</title>
							<path
   d="M61.7 422.37 C66.52 418.62 66.52 412.56 61.7 408.8 L41.98 393.43 C37.16 389.68 29.37 389.68            24.56 393.43 L4.81 408.8 C0 412.56 0 418.62 4.81 422.37 L24.54 437.75 C29.36 441.5 37.15            441.5 41.96 437.75 L61.7 422.37 Z"
   class="st37"
   id="path117" />
						</g>
						<g
   id="shape3415-216">
							<title
   id="title118">Sheet.3415</title>
							<path
   d="M61.7 422.37 C66.52 418.62 66.52 412.56 61.7 408.8 L41.98 393.43 C37.16 389.68 29.37 389.68            24.56 393.43 L4.81 408.8 C0 412.56 0 418.62 4.81 422.37 L24.54 437.75 C29.36 441.5 37.15            441.5 41.96 437.75 L61.7 422.37 Z"
   class="st38"
   id="path118" />
						</g>
					</g>
					<g
   id="group3416-218"
   transform="translate(0,-21.3758)">
						<title
   id="title119">Top</title>
						<g
   id="shape3417-219">
							<title
   id="title120">Sheet.3417</title>
							<path
   d="M61.7 422.37 C66.52 418.62 66.52 412.56 61.7 408.8 L41.98 393.43 C37.16 389.68 29.37 389.68            24.56 393.43 L4.81 408.8 C0 412.56 0 418.62 4.81 422.37 L24.54 437.75 C29.36 441.5 37.15            441.5 41.96 437.75 L61.7 422.37 Z"
   class="st39"
   id="path120" />
						</g>
						<g
   id="shape3418-221">
							<title
   id="title121">Sheet.3418</title>
							<path
   d="M61.7 422.37 C66.52 418.62 66.52 412.56 61.7 408.8 L41.98 393.43 C37.16 389.68 29.37 389.68            24.56 393.43 L4.81 408.8 C0 412.56 0 418.62 4.81 422.37 L24.54 437.75 C29.36 441.5 37.15            441.5 41.96 437.75 L61.7 422.37 Z"
   class="st40"
   id="path121" />
						</g>
					</g>
				</g>
				<g
   id="shape3419-223"
   transform="translate(21.6186,-29.2453)">
					<title
   id="title122">Sheet.3419</title>
					<path
   d="M11.99 403.59 L0 421.83 L6.81 426.28 L7.93 424.56 L11.48 441.5 L23.28 423.18 L16.66 418.86 L15.53 420.6          L11.99 403.59 ZM17.35 421.9 L20.25 423.86 L12.49 435.75 L8.93 418.76 L6.06 423.18 L3.2 421.31 L10.99          409.39 L14.52 426.22 L17.35 421.9 Z"
   class="st41"
   id="path122" />
				</g>
			</g>
		</g>
		<g
   id="group3395-225"
   transform="translate(1038.62,-234)">
			<title
   id="title123">Sheet.3395</title>
			<g
   id="shape3388-226">
				<title
   id="title124">Empty Circle</title>
				<path
   id="ellipse124"
   class="st12"
   style="fill:#f2f2f2;stroke:#595959;stroke-width:3;stroke-linecap:round;stroke-linejoin:round"
   d="M 32.378799,425.311 A 16.1894,16.1894 0 0 1 16.1894,441.5004 16.1894,16.1894 0 0 1 0,425.311 16.1894,16.1894 0 0 1 16.1894,409.1216 16.1894,16.1894 0 0 1 32.378799,425.311 Z" />
			</g>
			<g
   id="group3389-228"
   transform="translate(5.68047,-5.30178)">
				<title
   id="title125">e2ee</title>
				<g
   id="group3390-229"
   transform="translate(10.9725,-7.83298)">
					<title
   id="title126">Sheet.3390</title>
					<g
   id="shape3391-230">
						<title
   id="title127">Sheet.3391</title>
					</g>
				</g>
				<g
   id="group3392-231">
					<title
   id="title128">Sheet.3392</title>
					<g
   id="shape3393-232">
						<title
   id="title129">Sheet.3393</title>
						<path
   d="M17.57 427.12 L17.57 423.73 C17.57 419.96 14.65 416.76 10.88 416.62 C6.92 416.46 3.66 419.65 3.66           423.57 L3.66 427.14 L0.3 427.14 C0.14 427.14 0 427.26 0 427.44 L0 441.2 C0 441.36 0.13 441.5           0.3 441.5 L7.97 441.5 C8.13 441.5 8.27 441.37 8.27 441.2 L8.27 439.29 C8.27 439.13 8.15 438.99           7.97 438.99 L3.05 438.99 L3.05 435.28 L7.61 435.28 C7.77 435.28 7.91 435.16 7.91 434.99 L7.91           433.09 C7.91 432.93 7.79 432.79 7.61 432.79 L3.05 432.79 L3.05 429.63 L7.97 429.63 C8.13 429.63           8.27 429.51 8.27 429.33 L8.27 427.44 C8.27 427.28 8.15 427.14 7.97 427.14 L6.11 427.14 L6.11           423.7 C6.11 421.36 7.83 419.3 10.17 419.08 C12.84 418.83 15.1 420.94 15.1 423.56 L15.1 427.12           L13.23 427.12 C13.08 427.12 12.93 427.25 12.93 427.42 L12.93 429.32 C12.93 429.48 13.06 429.62           13.23 429.62 L18.16 429.62 L18.16 432.77 L13.59 432.77 C13.44 432.77 13.3 432.9 13.3 433.07           L13.3 434.97 C13.3 435.13 13.42 435.27 13.59 435.27 L18.16 435.27 L18.16 438.97 L13.23 438.97           C13.08 438.97 12.93 439.1 12.93 439.27 L12.93 441.19 C12.93 441.34 13.06 441.48 13.23 441.48           L20.91 441.48 C21.07 441.48 21.21 441.36 21.21 441.19 L21.21 427.42 C21.21 427.26 21.08 427.12           20.91 427.12 C20.91 427.12 17.57 427.12 17.57 427.12 Z"
   class="st42"
   id="path129" />
					</g>
					<g
   id="shape3394-236"
   transform="translate(9.37132,-6.23185)">
						<title
   id="title130">Sheet.3394</title>
						<path
   d="M0.28 441.5 L2.21 441.5 C2.37 441.5 2.5 441.37 2.5 441.22 L2.5 439.29 C2.5 439.13 2.37 439 2.21           439 L0.28 439 C0.13 439 0 439.13 0 439.29 L0 441.22 C0 441.37 0.13 441.5 0.28 441.5 Z"
   class="st42"
   id="path130" />
					</g>
				</g>
			</g>
		</g>
	</g>
</svg>
