<?xml version="1.0" encoding="UTF-8" standalone="no"?>
<!-- Generated by Microsoft Visio, SVG Export step1.svg appetizer-step1 -->

<svg
   width="19.4498in"
   height="6.13194in"
   viewBox="0 0 1400.39 441.5"
   xml:space="preserve"
   color-interpolation-filters="sRGB"
   class="st46"
   version="1.1"
   id="svg129"
   sodipodi:docname="step1.svg"
   inkscape:version="1.3.1 (91b66b0783, 2023-11-16)"
   xmlns:inkscape="http://www.inkscape.org/namespaces/inkscape"
   xmlns:sodipodi="http://sodipodi.sourceforge.net/DTD/sodipodi-0.dtd"
   xmlns:xlink="http://www.w3.org/1999/xlink"
   xmlns="http://www.w3.org/2000/svg"
   xmlns:svg="http://www.w3.org/2000/svg"><sodipodi:namedview
   id="namedview129"
   pagecolor="#ffffff"
   bordercolor="#000000"
   borderopacity="0.25"
   inkscape:showpageshadow="2"
   inkscape:pageopacity="0.0"
   inkscape:pagecheckerboard="0"
   inkscape:deskcolor="#d1d1d1"
   inkscape:document-units="in"
   inkscape:zoom="1.1129077"
   inkscape:cx="933.59042"
   inkscape:cy="294.72344"
   inkscape:window-width="2560"
   inkscape:window-height="1369"
   inkscape:window-x="1912"
   inkscape:window-y="-8"
   inkscape:window-maximized="1"
   inkscape:current-layer="svg129" />
	<style
   type="text/css"
   id="style1">
	<![CDATA[
		.st1 {fill:#f2f2f2;stroke:#595959;stroke-linecap:round;stroke-linejoin:round;stroke-width:0.5}
		.st2 {visibility:visible}
		.st3 {fill:#7f7f7f;fill-opacity:0.4;filter:url(#filter_5.3333334922791);stroke:#7f7f7f;stroke-linecap:round;stroke-linejoin:round;stroke-opacity:0.4}
		.st4 {fill:#f2f2f2;stroke:#7f7f7f;stroke-linecap:round;stroke-linejoin:round;stroke-width:1.75}
		.st5 {fill:#d9d9d9;stroke:#7f7f7f;stroke-linecap:round;stroke-linejoin:round;stroke-width:1.75}
		.st6 {fill:#a5a5a5;font-family:Open Sans;font-size:3em;font-weight:bold}
		.st7 {stroke:#a5a5a5;stroke-linecap:round;stroke-linejoin:round;stroke-width:12}
		.st8 {fill:#f2f2f2;stroke:#bfbfbf;stroke-linecap:round;stroke-linejoin:round;stroke-width:3}
		.st9 {fill:#bfbfbf;stroke:none;stroke-linecap:butt;stroke-width:2.04}
		.st10 {fill:#ffffff;marker-end:url(#mrkr42-45);stroke:#a5a5a5;stroke-linecap:round;stroke-linejoin:round;stroke-width:5}
		.st11 {fill:#a5a5a5;fill-opacity:1;stroke:#a5a5a5;stroke-opacity:1;stroke-width:0.66489361702128}
		.st12 {fill:#ffffff;stroke:#bfbfbf;stroke-linecap:round;stroke-linejoin:round;stroke-width:0.75}
		.st13 {fill:none;stroke:none;stroke-linecap:round;stroke-linejoin:round;stroke-width:1.75}
		.st14 {fill:#595959;font-family:Open Sans;font-size:3em;font-weight:bold}
		.st15 {fill:#ffe0b3;stroke:#e68a00;stroke-linecap:round;stroke-linejoin:round;stroke-width:2}
		.st16 {fill:#a86a33;font-family:Russo One;font-size:1.99999em}
		.st17 {fill:#ddecff;stroke:#0068f9;stroke-dasharray:6,6;stroke-linecap:round;stroke-linejoin:round;stroke-width:2}
		.st18 {fill:#595959;font-family:Russo One;font-size:3em}
		.st19 {fill:#ffffff;stroke:#595959;stroke-linecap:round;stroke-linejoin:round;stroke-width:3.25}
		.st20 {fill:none;stroke:none;stroke-linecap:round;stroke-linejoin:round;stroke-width:0.5}
		.st21 {fill:#595959;font-family:Russo One;font-size:1.99999em}
		.st22 {fill:#ffffff;stroke:#a5a5a5;stroke-linecap:round;stroke-linejoin:round;stroke-width:2}
		.st23 {fill:#bfbfbf;font-family:Russo One;font-size:3em}
		.st24 {fill:#f2f2f2;stroke:#a5a5a5;stroke-linecap:butt;stroke-width:1.50369}
		.st25 {fill:#f2f2f2;stroke:#a5a5a5;stroke-linecap:butt;stroke-width:3.38029}
		.st26 {fill:#ffc6d6;stroke:#595959;stroke-dasharray:6,6;stroke-linecap:round;stroke-linejoin:round;stroke-width:2}
		.st27 {fill:#0273fb;stroke:none;stroke-linecap:butt;stroke-width:1.50369}
		.st28 {fill:none;stroke:#158aff;stroke-linecap:butt;stroke-width:3.38029}
		.st29 {fill:#6140b5;fill-opacity:0.98;stroke:none;stroke-linecap:butt;stroke-width:1.50369}
		.st30 {fill:none;stroke:#664dc4;stroke-linecap:butt;stroke-opacity:0.98;stroke-width:3.38029}
		.st31 {fill:#ff0d49;fill-opacity:0.98;stroke:none;stroke-linecap:butt;stroke-width:1.50369}
		.st32 {fill:none;stroke:#fc2d81;stroke-linecap:butt;stroke-opacity:0.98;stroke-width:3.38029}
		.st33 {fill:#ffffff;stroke:none;stroke-linecap:butt;stroke-width:1.50369}
		.st34 {fill:#f2f2f2;fill-opacity:0.86;stroke:none;stroke-linecap:round;stroke-linejoin:round;stroke-width:1.75}
		.st35 {marker-start:url(#mrkr5-182);stroke:#595959;stroke-dasharray:25.5,25.5;stroke-linecap:round;stroke-linejoin:round;stroke-width:8.5}
		.st36 {fill:#595959;fill-opacity:1;stroke:#595959;stroke-opacity:1;stroke-width:0.48571428571429}
		.st37 {fill:#f2f2f2;stroke:#595959;stroke-linecap:round;stroke-linejoin:round;stroke-width:3}
		.st38 {fill:url(#grad0-193);stroke:none;stroke-linecap:butt;stroke-width:2.04}
		.st39 {marker-start:url(#mrkr5-182);stroke:#595959;stroke-linecap:round;stroke-linejoin:round;stroke-width:8.5}
		.st40 {fill:url(#grad0-210);stroke:none;stroke-linecap:butt;stroke-width:2.04}
		.st41 {fill:url(#grad0-214);stroke:none;stroke-linecap:butt;stroke-width:2.04}
		.st42 {fill:url(#grad0-218);stroke:none;stroke-linecap:butt;stroke-width:2.04}
		.st43 {fill:url(#grad0-222);stroke:none;stroke-linecap:butt;stroke-width:2.04}
		.st44 {fill:#ffffff;stroke:#595959;stroke-linecap:round;stroke-linejoin:round;stroke-width:1}
		.st45 {fill:#595959;font-family:Open Sans;font-size:1.5em;font-weight:bold}
		.st46 {fill:none;fill-rule:evenodd;font-size:12px;overflow:visible;stroke-linecap:square;stroke-miterlimit:3}
	]]>
	</style>

	<defs
   id="Patterns_And_Gradients">
		<linearGradient
   id="grad0-193"
   x1="0"
   y1="0"
   x2="1"
   y2="0"
   gradientTransform="rotate(50 0.5 0.5)">
			<stop
   offset="0.23"
   stop-color="#fc0147"
   stop-opacity="1"
   id="stop1" />
			<stop
   offset="0.86"
   stop-color="#0068f9"
   stop-opacity="1"
   id="stop2" />
		</linearGradient>
		<linearGradient
   id="grad0-210"
   x1="1.4785354"
   y1="555.5505"
   x2="53.265769"
   y2="555.5505"
   gradientTransform="scale(1.3756234,0.72694314)"
   gradientUnits="userSpaceOnUse">
			<stop
   offset="0.005"
   stop-color="#fc0147"
   stop-opacity="1"
   id="stop3" />
			<stop
   offset="0.04"
   stop-color="#f4044d"
   stop-opacity="1"
   id="stop4" />
			<stop
   offset="0.9"
   stop-color="#0068f9"
   stop-opacity="1"
   id="stop5" />
		</linearGradient>
		<linearGradient
   id="grad0-214"
   x1="0"
   y1="388.79"
   x2="52.71"
   y2="388.79"
   gradientUnits="userSpaceOnUse">
			<stop
   offset="0.005"
   stop-color="#fc0147"
   stop-opacity="1"
   id="stop6" />
			<stop
   offset="0.04"
   stop-color="#f4044d"
   stop-opacity="1"
   id="stop7" />
			<stop
   offset="0.9"
   stop-color="#0068f9"
   stop-opacity="1"
   id="stop8" />
		</linearGradient>
		<linearGradient
   id="grad0-218"
   x1="0"
   y1="666.62211"
   x2="21.332032"
   y2="666.62211"
   gradientTransform="scale(1.55822,0.64175789)"
   gradientUnits="userSpaceOnUse">
			<stop
   offset="0.005"
   stop-color="#fc0147"
   stop-opacity="1"
   id="stop9" />
			<stop
   offset="0.04"
   stop-color="#f4044d"
   stop-opacity="1"
   id="stop10" />
			<stop
   offset="0.9"
   stop-color="#0068f9"
   stop-opacity="1"
   id="stop11" />
		</linearGradient>
		<linearGradient
   id="grad0-222"
   x1="0"
   y1="666.2209"
   x2="21.319193"
   y2="666.2209"
   gradientTransform="scale(1.5572822,0.64214437)"
   gradientUnits="userSpaceOnUse">
			<stop
   offset="0.005"
   stop-color="#fc0147"
   stop-opacity="1"
   id="stop12" />
			<stop
   offset="0.04"
   stop-color="#f4044d"
   stop-opacity="1"
   id="stop13" />
			<stop
   offset="0.9"
   stop-color="#0068f9"
   stop-opacity="1"
   id="stop14" />
		</linearGradient>
	<linearGradient
   inkscape:collect="always"
   xlink:href="#grad0-193"
   id="linearGradient130"
   gradientTransform="scale(0.92309107,1.0833167)"
   x1="0"
   y1="365.41452"
   x2="42.130187"
   y2="365.41452"
   gradientUnits="userSpaceOnUse" /><linearGradient
   inkscape:collect="always"
   xlink:href="#grad0-193"
   id="linearGradient131"
   x1="0"
   y1="436.92"
   x2="4.58"
   y2="436.92"
   gradientUnits="userSpaceOnUse" />
		
		
		
		
		
		
		
		
		
		
		
		
	</defs>
	<defs
   id="Markers">
		<g
   id="lend42">
			<path
   d="M 0 0.75 C -0.414214 0.75 -0.75 0.414214 -0.75 0 -0.75 -0.414214 -0.414214 -0.75 0 -0.75 0.414214 -0.75 0.75 -0.414214 0.75 0 0.75 0.414214 0.414214 0.75 0 0.75 Z "
   style="stroke:none"
   id="path14" />
		</g>
		<marker
   id="mrkr42-45"
   class="st11"
   refX="-1.128"
   orient="auto"
   markerUnits="strokeWidth"
   overflow="visible">
			<use
   xlink:href="#lend42"
   transform="scale(-1.504,-1.504) "
   id="use14" />
		</marker>
		<g
   id="lend5">
			<path
   d="M 2 1 L 0 0 L 1.98117 -0.993387 C 1.67173 -0.364515 1.67301 0.372641 1.98465 1.00043 "
   style="stroke:none"
   id="path15" />
		</g>
		<marker
   id="mrkr5-182"
   class="st36"
   refX="3.5605882352941"
   orient="auto"
   markerUnits="strokeWidth"
   overflow="visible">
			<use
   xlink:href="#lend5"
   transform="scale(2.0588235294118) "
   id="use15" />
		</marker>
	</defs>
	<defs
   id="Filters">
		<filter
   id="filter_5.3333334922791"
   x="-0.017901127"
   y="-0.037196555"
   width="1.0358023"
   height="1.0743931">
			<feGaussianBlur
   stdDeviation="5.3333334922791"
   id="feGaussianBlur15" />
		</filter>
	</defs>
	<g
   id="shape222-1"
   transform="translate(0.25,-0.25)">
			<title
   id="title16">Rounded Rectangle.245</title>
			<path
   d="M 0,441.5 H 1399.89 V 0.5 H 0 Z"
   class="st1"
   id="path16" />
		</g><g
   id="group351-3"
   transform="translate(141.577,-119.25)">
			<title
   id="title17">Sheet.351</title>
		</g><g
   id="group387-4"
   transform="translate(265.136,-21.8697)">
			<title
   id="title18">Sheet.387</title>
			<g
   id="shape223-5"
   transform="translate(0,-40.2575)">
				<title
   id="title19">Sheet.223</title>
				<g
   id="shadow223-6"
   transform="matrix(1.06,0,0,1.06,-22.2892,-15.7632)"
   class="st2">
					<path
   d="m 217.83,192.26 c -8.31,-2.34 -17.08,-3.75 -26.3,-3.75 -50.35,0 -91.94,38.69 -99.59,89.33 v 0 H 75.53 v 0 C 33.95,277.84 0,313.25 0,356.86 v 0 5.63 0 c 0,43.61 33.95,79.01 75.53,79.01 v 0 h 591.91 v 0 c 41.59,0 75.53,-35.4 75.53,-79.01 v 0 -5.63 0 c 0,-43.61 -33.94,-79.02 -75.53,-79.02 v 0 h -2.92 v 0 c -13.04,-46.89 -54.18,-81.36 -103.19,-81.36 -21.35,0 -41.14,6.8 -57.77,18.06 -11.02,-73.86 -71.71,-130.6 -145.22,-130.6 -66.1,0 -121.85,45.49 -140.51,108.32 z"
   class="st3"
   id="path19" />
				</g>
				<path
   d="m 217.83,192.26 c -8.31,-2.34 -17.08,-3.75 -26.3,-3.75 -50.35,0 -91.94,38.69 -99.59,89.33 v 0 H 75.53 v 0 C 33.95,277.84 0,313.25 0,356.86 v 0 5.63 0 c 0,43.61 33.95,79.01 75.53,79.01 v 0 h 591.91 v 0 c 41.59,0 75.53,-35.4 75.53,-79.01 v 0 -5.63 0 c 0,-43.61 -33.94,-79.02 -75.53,-79.02 v 0 h -2.92 v 0 c -13.04,-46.89 -54.18,-81.36 -103.19,-81.36 -21.35,0 -41.14,6.8 -57.77,18.06 -11.02,-73.86 -71.71,-130.6 -145.22,-130.6 -66.1,0 -121.85,45.49 -140.51,108.32 z"
   class="st4"
   id="path20" />
			</g>
			<g
   id="shape226-10"
   transform="translate(70.3153,-62.3901)">
				<title
   id="title20">Sheet.226</title>
				<desc
   id="desc20">OpenZiti Overlay</desc>
				<path
   d="m 174.89,241.4 c -6.68,-1.88 -13.72,-3.01 -21.12,-3.01 -40.43,0 -73.82,31.06 -79.95,71.72 v 0 H 60.64 v 0 C 27.25,310.11 0,338.53 0,373.55 v 0 4.51 0 c 0,35.02 27.25,63.44 60.64,63.44 v 0 h 475.21 v 0 c 33.38,0 60.64,-28.42 60.64,-63.44 v 0 -4.51 0 c 0,-35.02 -27.26,-63.44 -60.64,-63.44 v 0 h -2.35 v 0 c -10.47,-37.65 -43.5,-65.32 -82.84,-65.32 -17.15,0 -33.03,5.46 -46.38,14.5 -8.85,-59.3 -57.58,-104.85 -116.59,-104.85 -53.07,0 -97.83,36.52 -112.8,86.96 z"
   class="st5"
   id="path21" />
				<path
   d="m 161.41055,413.81525 q 0,2.9707 -0.73828,5.41406 -0.73828,2.42578 -2.25,4.18359 -1.49414,1.75782 -3.79687,2.70703 -2.30274,0.93164 -5.44922,0.93164 -3.14649,0 -5.44922,-0.93164 -2.30274,-0.94921 -3.81445,-2.70703 -1.49414,-1.75781 -2.23243,-4.20117 -0.73828,-2.44336 -0.73828,-5.43164 0,-3.99023 1.30078,-6.94336 1.31836,-2.9707 4.04297,-4.60547 2.72461,-1.63476 6.92578,-1.63476 4.1836,0 6.87305,1.63476 2.70703,1.63477 4.00781,4.60547 1.31836,2.9707 1.31836,6.97852 z m -18.75586,0 q 0,2.68945 0.66797,4.64062 0.68555,1.9336 2.12696,2.98828 1.4414,1.03711 3.72656,1.03711 2.32031,0 3.76172,-1.03711 1.4414,-1.05468 2.09179,-2.98828 0.66797,-1.95117 0.66797,-4.64062 0,-4.04297 -1.51172,-6.36328 -1.51172,-2.32032 -4.97461,-2.32032 -2.30273,0 -3.76171,1.05469 -1.44141,1.03711 -2.12696,2.98828 -0.66797,1.9336 -0.66797,4.64063 z m 34.59375,-7.13672 q 3.32227,0 5.36133,2.58398 2.05664,2.58399 2.05664,7.57617 0,3.33985 -0.96679,5.625 -0.9668,2.26758 -2.67188,3.42774 -1.70508,1.16015 -3.91992,1.16015 -1.42383,0 -2.44336,-0.35156 -1.01953,-0.36914 -1.74024,-0.93164 -0.7207,-0.58008 -1.24804,-1.23047 h -0.28125 q 0.14062,0.70313 0.21094,1.44141 0.0703,0.73828 0.0703,1.44141 v 7.92773 h -5.36133 v -28.30078 h 4.35937 l 0.75586,2.54883 h 0.2461 q 0.52734,-0.79102 1.2832,-1.45899 0.75586,-0.66797 1.81055,-1.05469 1.07226,-0.40429 2.47851,-0.40429 z m -1.72265,4.28906 q -1.40625,0 -2.23242,0.58008 -0.82618,0.58008 -1.2129,1.74023 -0.36914,1.16016 -0.40429,2.93555 v 0.58008 q 0,1.89844 0.35156,3.21679 0.36914,1.31836 1.21289,2.00391 0.86133,0.68555 2.35547,0.68555 1.23047,0 2.02148,-0.68555 0.79102,-0.68555 1.17774,-2.00391 0.4043,-1.33593 0.4043,-3.25195 0,-2.88281 -0.89649,-4.3418 -0.89648,-1.45898 -2.77734,-1.45898 z m 21.67383,-4.28906 q 2.7246,0 4.69335,1.05469 1.96875,1.0371 3.04102,3.02343 1.07227,1.98633 1.07227,4.85157 v 2.60156 h -12.67383 q 0.0879,2.26758 1.35351,3.56836 1.28321,1.2832 3.55078,1.2832 1.88086,0 3.44532,-0.38672 1.56445,-0.38672 3.21679,-1.16015 v 4.14843 q -1.45898,0.72071 -3.05859,1.05469 -1.58203,0.33398 -3.84961,0.33398 -2.95312,0 -5.23828,-1.08984 -2.26758,-1.08984 -3.56836,-3.32226 -1.2832,-2.23243 -1.2832,-5.625 0,-3.44532 1.16015,-5.73047 1.17774,-2.30274 3.26953,-3.44532 2.0918,-1.16015 4.86915,-1.16015 z m 0.0351,3.81445 q -1.56445,0 -2.60156,1.00195 -1.01953,1.00196 -1.17774,3.14649 h 7.52344 q -0.0176,-1.19531 -0.43945,-2.12695 -0.4043,-0.93165 -1.23047,-1.47657 -0.80859,-0.54492 -2.07422,-0.54492 z m 24.29297,-3.81445 q 3.14648,0 5.0625,1.72265 1.91602,1.70508 1.91602,5.48438 v 12.81445 h -5.36133 V 415.2215 q 0,-2.10938 -0.77344,-3.18164 -0.75586,-1.07227 -2.39062,-1.07227 -2.46094,0 -3.35743,1.66992 -0.89648,1.66992 -0.89648,4.81641 v 9.24609 h -5.36133 v -19.65234 h 4.0957 l 0.72071,2.51367 h 0.29883 q 0.63281,-1.01953 1.56445,-1.65234 0.94922,-0.63282 2.0918,-0.93164 1.16015,-0.29883 2.39062,-0.29883 z m 29.67188,20.02148 h -19.125 v -3.5332 l 12.32226,-17.66602 H 232.4086 v -4.5 h 18.45703 v 3.51563 l -12.30469,17.68359 h 12.63868 z m 9.03515,-19.65234 v 19.65234 h -5.36133 v -19.65234 z m -2.67187,-7.69922 q 1.19531,0 2.05664,0.5625 0.86133,0.54492 0.86133,2.05664 0,1.49414 -0.86133,2.07422 -0.86133,0.5625 -2.05664,0.5625 -1.21289,0 -2.07422,-0.5625 -0.84375,-0.58008 -0.84375,-2.07422 0,-1.51172 0.84375,-2.05664 0.86133,-0.5625 2.07422,-0.5625 z m 16.57617,23.43164 q 0.8789,0 1.70508,-0.17578 0.84375,-0.17578 1.66992,-0.43945 v 3.99023 q -0.86133,0.38672 -2.14453,0.63281 -1.26563,0.26367 -2.77735,0.26367 -1.75781,0 -3.16406,-0.5625 -1.38867,-0.58007 -2.19726,-1.98632 -0.79102,-1.42383 -0.79102,-3.95508 v -9.47461 h -2.56641 v -2.26758 l 2.95313,-1.79297 1.54687,-4.14844 h 3.42774 v 4.1836 h 5.50195 v 4.02539 h -5.50195 v 9.47461 q 0,1.125 0.63281,1.6875 0.65039,0.54492 1.70508,0.54492 z M 286.848,407.04767 v 19.65234 h -5.36133 v -19.65234 z m -2.67187,-7.69922 q 1.19531,0 2.05664,0.5625 0.86133,0.54492 0.86133,2.05664 0,1.49414 -0.86133,2.07422 -0.86133,0.5625 -2.05664,0.5625 -1.21289,0 -2.07422,-0.5625 -0.84375,-0.58008 -0.84375,-2.07422 0,-1.51172 0.84375,-2.05664 0.86133,-0.5625 2.07422,-0.5625 z m 41.39648,14.4668 q 0,2.9707 -0.73828,5.41406 -0.73828,2.42578 -2.25,4.18359 -1.49414,1.75782 -3.79687,2.70703 -2.30274,0.93164 -5.44922,0.93164 -3.14649,0 -5.44922,-0.93164 -2.30274,-0.94921 -3.81445,-2.70703 -1.49415,-1.75781 -2.23243,-4.20117 -0.73828,-2.44336 -0.73828,-5.43164 0,-3.99023 1.30078,-6.94336 1.31836,-2.9707 4.04297,-4.60547 2.72461,-1.63476 6.92578,-1.63476 4.1836,0 6.87305,1.63476 2.70703,1.63477 4.00781,4.60547 1.31836,2.9707 1.31836,6.97852 z m -18.75586,0 q 0,2.68945 0.66797,4.64062 0.68555,1.9336 2.12695,2.98828 1.44141,1.03711 3.72657,1.03711 2.32031,0 3.76172,-1.03711 1.4414,-1.05468 2.09179,-2.98828 0.66797,-1.95117 0.66797,-4.64062 0,-4.04297 -1.51172,-6.36328 -1.51172,-2.32032 -4.97461,-2.32032 -2.30273,0 -3.76172,1.05469 -1.4414,1.03711 -2.12695,2.98828 -0.66797,1.9336 -0.66797,4.64063 z m 28.33594,12.88476 -7.48828,-19.65234 h 5.60742 l 3.79688,11.19726 q 0.3164,0.98438 0.49218,2.07422 0.19336,1.08985 0.26368,1.95117 h 0.14062 q 0.0527,-0.93164 0.24609,-1.98632 0.21094,-1.05469 0.54493,-2.03907 l 3.77929,-11.19726 h 5.60742 l -7.48828,19.65234 z m 23.90625,-20.02148 q 2.72461,0 4.69336,1.05469 1.96875,1.0371 3.04102,3.02343 1.07226,1.98633 1.07226,4.85157 v 2.60156 H 355.1918 q 0.0879,2.26758 1.35352,3.56836 1.2832,1.2832 3.55078,1.2832 1.88086,0 3.44531,-0.38672 1.56446,-0.38672 3.2168,-1.16015 v 4.14843 q -1.45899,0.72071 -3.05859,1.05469 -1.58204,0.33398 -3.84961,0.33398 -2.95313,0 -5.23829,-1.08984 -2.26757,-1.08984 -3.56835,-3.32226 -1.28321,-2.23243 -1.28321,-5.625 0,-3.44532 1.16016,-5.73047 1.17773,-2.30274 3.26953,-3.44532 2.0918,-1.16015 4.86914,-1.16015 z m 0.0352,3.81445 q -1.56446,0 -2.60157,1.00195 -1.01953,1.00196 -1.17773,3.14649 h 7.52344 q -0.0176,-1.19531 -0.43946,-2.12695 -0.40429,-0.93165 -1.23046,-1.47657 -0.8086,-0.54492 -2.07422,-0.54492 z m 24.09961,-3.81445 q 0.40429,0 0.93164,0.0527 0.54492,0.0352 0.8789,0.10547 L 384.6,411.86404 q -0.26368,-0.0879 -0.75586,-0.12304 -0.47461,-0.0527 -0.82618,-0.0527 -1.0371,0 -2.02148,0.26368 -0.9668,0.26367 -1.74023,0.86132 -0.77344,0.58008 -1.23047,1.54688 -0.43946,0.94922 -0.43946,2.33789 v 10.00195 H 372.225 v -19.65234 h 4.06054 l 0.79102,3.30469 h 0.26367 q 0.58008,-1.00196 1.44141,-1.82813 0.8789,-0.84375 1.98632,-1.33594 1.125,-0.50976 2.42579,-0.50976 z m 10.74023,20.02148 h -5.36133 v -27.35156 h 5.36133 z m 13.67578,-20.05664 q 3.95508,0 6.06445,1.72266 2.10938,1.72265 2.10938,5.23828 v 13.0957 h -3.74414 l -1.03711,-2.67187 h -0.14063 q -0.84375,1.05468 -1.72265,1.72265 -0.87891,0.66797 -2.02149,0.98438 -1.14257,0.3164 -2.77734,0.3164 -1.74023,0 -3.12891,-0.66796 -1.37109,-0.66797 -2.16211,-2.03907 -0.79101,-1.38867 -0.79101,-3.51562 0,-3.12891 2.19726,-4.60547 2.19727,-1.49414 6.5918,-1.65234 l 3.41016,-0.10547 v -0.86133 q 0,-1.54688 -0.8086,-2.26758 -0.80859,-0.7207 -2.25,-0.7207 -1.42382,0 -2.79492,0.40429 -1.37109,0.4043 -2.74219,1.01954 l -1.77539,-3.6211 q 1.56446,-0.82617 3.49805,-1.30078 1.95117,-0.47461 4.02539,-0.47461 z m 2.84766,10.95117 -2.07422,0.0703 q -2.60156,0.0703 -3.62109,0.93164 -1.00196,0.86132 -1.00196,2.26757 0,1.23047 0.72071,1.75782 0.7207,0.50976 1.88085,0.50976 1.72266,0 2.9004,-1.01953 1.19531,-1.01953 1.19531,-2.90039 z m 8.0332,-10.54687 h 5.87109 l 3.70899,11.05664 q 0.17578,0.52734 0.29883,1.07226 0.12304,0.54493 0.21093,1.125 0.0879,0.58008 0.14063,1.2129 h 0.10547 q 0.10547,-0.94922 0.28125,-1.7754 0.19336,-0.82617 0.47461,-1.63476 l 3.63867,-11.05664 h 5.74805 l -8.31446,22.16601 q -0.75586,2.03907 -1.96875,3.39258 -1.21289,1.3711 -2.79492,2.05664 -1.56445,0.68555 -3.44531,0.68555 -0.91406,0 -1.58203,-0.10547 -0.66797,-0.0879 -1.14258,-0.19336 v -4.2539 q 0.36914,0.0879 0.93164,0.1582 0.5625,0.0703 1.17773,0.0703 1.125,0 1.9336,-0.47461 0.80859,-0.47461 1.35351,-1.2832 0.54493,-0.79102 0.86133,-1.74024 l 0.31641,-0.96679 z"
   id="text21"
   class="st6"
   style="font-weight:bold;font-size:108px;font-family:'Open Sans';fill:#a5a5a5"
   aria-label="OpenZiti Overlay" />			</g>
			<g
   id="shape254-13"
   transform="translate(486.965,-143.953)">
				<title
   id="title21">Dynamic connector.3286</title>
				<path
   d="M 0,432.5 H -253.41"
   class="st7"
   id="path22" />
			</g>
			<g
   id="shape255-16"
   transform="translate(303.727,-216.702)">
				<title
   id="title22">Dynamic connector.3292</title>
				<path
   d="m 0,441.5 -80.15,26.25"
   class="st7"
   id="path23" />
			</g>
			<g
   id="shape256-19"
   transform="translate(498.61,-190.942)">
				<title
   id="title23">Dynamic connector.3295</title>
				<path
   d="M 0,441.5 -83.2,415.1"
   class="st7"
   id="path24" />
			</g>
			<g
   id="group257-22"
   transform="translate(486.965,-110.203)">
				<title
   id="title24">Sheet.257</title>
				<g
   id="group258-23"
   transform="translate(9)">
					<title
   id="title25">Sheet.258</title>
					<g
   id="shape259-24">
						<title
   id="title26">Sheet.259</title>
						<path
   id="ellipse26"
   class="st8"
   style="fill:#f2f2f2;stroke:#bfbfbf;stroke-width:3;stroke-linecap:round;stroke-linejoin:round"
   d="M 96.1875,393.40601 A 48.0937,48.0937 0 0 1 48.0938,441.49971 48.0937,48.0937 0 0 1 9.9182129e-5,393.40601 48.0937,48.0937 0 0 1 48.0938,345.31231 a 48.0937,48.0937 0 0 1 48.0937,48.0937 z" />
					</g>
					<g
   id="group260-26"
   transform="translate(12.0937,-12.9375)">
						<title
   id="title27">Router Colored</title>
						<g
   id="group261-27"
   transform="translate(38.5398,-28.4211)">
							<title
   id="title28">Sheet.261</title>
							<g
   id="shape262-28">
								<title
   id="title29">Sheet.262</title>
							</g>
						</g>
						<g
   id="group263-29">
							<title
   id="title30">Sheet.263</title>
							<g
   id="shape264-30"
   transform="translate(26.4054,-24.3494)">
								<title
   id="title31">Sheet.264</title>
								<path
   d="m 20.64,432.39 c 0.48,-1.45 0.48,-2.86 0.48,-5.28 v -2.86 c 0,-2.42 0,-3.83 -1.45,-5.29 -1.45,-0.96 -2.86,-1.45 -5.28,-1.45 H 0 v 23.99 h 6.73 v -7.22 h 4.8 l 3.83,7.22 h 6.25 l -4.32,-7.22 c 1.42,-0.48 2.38,-0.48 3.35,-1.89 z m -5.28,-6.25 c 0,1.45 -0.48,2.86 -1.94,2.86 H 6.69 v -7.21 h 6.25 c 1.45,0 2.42,0.96 2.42,2.42 z"
   class="st9"
   id="path31" />
							</g>
							<g
   id="shape265-32"
   transform="translate(11.2072,-11.0862)">
								<title
   id="title32">Sheet.265</title>
								<path
   d="m 49.59,416.71 c 0,-13.67 -11.13,-24.8 -24.8,-24.8 -13.66,0 -24.79,11.13 -24.79,24.8 0,13.66 11.13,24.79 24.79,24.79 13.67,0 24.8,-11.13 24.8,-24.79 z m -24.8,21.28 c -11.73,0 -21.28,-9.55 -21.28,-21.28 0,-11.73 9.55,-21.29 21.28,-21.29 11.73,0 21.29,9.56 21.29,21.29 0,11.73 -9.56,21.28 -21.29,21.28 z"
   class="st9"
   id="path32" />
							</g>
							<g
   id="shape266-34"
   transform="translate(36.6047,-36.5644)">
								<title
   id="title33">Sheet.266</title>
								<path
   d="m 1.69,414.17 c 13.55,0.88 24.84,12.21 25.72,25.72 0.08,0.92 0.85,1.61 1.74,1.61 0.04,0 0.08,0 0.12,0 0.97,-0.08 1.69,-0.89 1.61,-1.85 -0.73,-10.93 -7.46,-20.56 -16.81,-25.52 h 10.88 l -1.33,1.33 c -0.68,0.68 -0.68,1.77 0,2.46 0.33,0.32 0.81,0.52 1.25,0.52 0.45,0 0.89,-0.16 1.25,-0.52 l 4.32,-4.32 c 0.68,-0.68 0.68,-1.77 0,-2.46 l -4.32,-4.31 c -0.68,-0.68 -1.77,-0.68 -2.46,0 -0.68,0.69 -0.68,1.77 0,2.46 l 1.33,1.33 H 1.81 c -0.92,0 -1.73,0.77 -1.73,1.69 -0.08,1.01 0.65,1.78 1.61,1.86 z"
   class="st9"
   id="path33" />
							</g>
							<g
   id="shape267-36"
   transform="translate(0,-36.5644)">
								<title
   id="title34">Sheet.267</title>
								<path
   d="m 4.47,439.77 c 0,0.92 0.77,1.73 1.7,1.73 h 0.04 c 0.93,0 1.69,-0.73 1.73,-1.61 0.89,-13.55 12.22,-24.84 25.72,-25.72 0.97,-0.08 1.69,-0.89 1.61,-1.86 -0.08,-0.96 -0.88,-1.69 -1.85,-1.61 -10.93,0.73 -20.56,7.46 -25.52,16.81 v -10.88 l 1.33,1.33 c 0.32,0.32 0.81,0.52 1.25,0.52 0.44,0 0.89,-0.16 1.25,-0.52 0.69,-0.69 0.69,-1.78 0,-2.46 L 7.46,411.18 C 6.77,410.5 5.68,410.5 5,411.18 l -4.31,4.32 c -0.69,0.68 -0.69,1.77 0,2.46 0.68,0.68 1.77,0.68 2.45,0 l 1.33,-1.33 z"
   class="st9"
   id="path34" />
							</g>
							<g
   id="shape268-38"
   transform="translate(4.31355)">
								<title
   id="title35">Sheet.268</title>
								<path
   d="M 29.39,433.64 C 15.84,432.75 4.56,421.42 3.67,407.92 c -0.08,-0.97 -0.89,-1.69 -1.86,-1.61 -0.96,0.08 -1.69,0.88 -1.61,1.85 0.73,10.93 7.46,20.56 16.81,25.52 H 6.13 l 1.33,-1.33 c 0.68,-0.69 0.68,-1.77 0,-2.46 -0.69,-0.69 -1.78,-0.69 -2.46,0 l -4.31,4.31 c -0.69,0.69 -0.69,1.78 0,2.46 L 5,440.98 c 0.32,0.32 0.81,0.52 1.25,0.52 0.44,0 0.89,-0.16 1.25,-0.52 0.68,-0.69 0.68,-1.78 0,-2.46 l -1.33,-1.33 h 23.1 c 0.92,0 1.73,-0.77 1.73,-1.7 0.08,-1 -0.64,-1.77 -1.61,-1.85 z"
   class="st9"
   id="path35" />
							</g>
							<g
   id="shape269-40"
   transform="translate(36.645,-4.35386)">
								<title
   id="title36">Sheet.269</title>
								<path
   d="m 34.67,434.2 c -0.69,-0.68 -1.77,-0.68 -2.46,0 l -1.33,1.33 v -23.14 c 0,-0.92 -0.77,-1.73 -1.69,-1.73 h -0.04 c -0.93,0 -1.7,0.73 -1.74,1.61 -0.88,13.55 -12.21,24.84 -25.72,25.72 -0.96,0.08 -1.69,0.89 -1.61,1.86 0.08,0.92 0.85,1.61 1.73,1.61 0.04,0 0.08,0 0.13,0 10.92,-0.73 20.55,-7.46 25.51,-16.81 v 10.88 l -1.33,-1.33 c -0.68,-0.68 -1.77,-0.68 -2.46,0 -0.68,0.69 -0.68,1.78 0,2.46 l 4.32,4.32 c 0.32,0.32 0.8,0.52 1.25,0.52 0.44,0 0.88,-0.16 1.25,-0.52 l 4.31,-4.32 c 0.56,-0.68 0.56,-1.81 -0.12,-2.46 z"
   class="st9"
   id="path36" />
							</g>
						</g>
					</g>
				</g>
				<g
   id="shape270-42"
   transform="translate(0,-34.3125)">
					<title
   id="title37">Sheet.270</title>
					<path
   id="ellipse37"
   class="st10"
   style="fill:#ffffff;stroke:#a5a5a5;stroke-width:5;stroke-linecap:round;stroke-linejoin:round;marker-end:url(#mrkr42-45)"
   d="m 16.875,433.06299 a 8.4375,8.4375 0 0 1 -8.4375,8.4375 8.4375,8.4375 0 0 1 -8.4375,-8.4375 8.4375,8.4375 0 0 1 8.4375,-8.4375 8.4375,8.4375 0 0 1 8.4375,8.4375 z" />
				</g>
				<g
   id="shape271-46"
   transform="translate(11.25,-69.75)">
					<title
   id="title38">Sheet.271</title>
					<path
   id="ellipse38"
   class="st10"
   style="fill:#ffffff;stroke:#a5a5a5;stroke-width:5;stroke-linecap:round;stroke-linejoin:round;marker-end:url(#mrkr42-45)"
   d="m 16.875,433.06299 a 8.4375,8.4375 0 0 1 -8.4375,8.4375 8.4375,8.4375 0 0 1 -8.4375,-8.4375 8.4375,8.4375 0 0 1 8.4375,-8.4375 8.4375,8.4375 0 0 1 8.4375,8.4375 z" />
				</g>
			</g>
			<g
   id="group272-49"
   transform="translate(303.308,-170.39)">
				<title
   id="title39">Sheet.272</title>
				<g
   id="group273-50"
   transform="translate(8.15627)">
					<title
   id="title40">Sheet.273</title>
					<g
   id="shape274-51">
						<title
   id="title41">Sheet.274</title>
						<path
   id="ellipse41"
   class="st8"
   style="fill:#f2f2f2;stroke:#bfbfbf;stroke-width:3;stroke-linecap:round;stroke-linejoin:round"
   d="M 96.1875,393.40601 A 48.0937,48.0937 0 0 1 48.0938,441.49971 48.0937,48.0937 0 0 1 9.9182129e-5,393.40601 48.0937,48.0937 0 0 1 48.0938,345.31231 a 48.0937,48.0937 0 0 1 48.0937,48.0937 z" />
					</g>
					<g
   id="group275-53"
   transform="translate(12.0937,-12.9375)">
						<title
   id="title42">Router Colored</title>
						<g
   id="group276-54"
   transform="translate(38.5398,-28.4211)">
							<title
   id="title43">Sheet.276</title>
							<g
   id="shape277-55">
								<title
   id="title44">Sheet.277</title>
							</g>
						</g>
						<g
   id="group278-56">
							<title
   id="title45">Sheet.278</title>
							<g
   id="shape279-57"
   transform="translate(26.4054,-24.3494)">
								<title
   id="title46">Sheet.279</title>
								<path
   d="m 20.64,432.39 c 0.48,-1.45 0.48,-2.86 0.48,-5.28 v -2.86 c 0,-2.42 0,-3.83 -1.45,-5.29 -1.45,-0.96 -2.86,-1.45 -5.28,-1.45 H 0 v 23.99 h 6.73 v -7.22 h 4.8 l 3.83,7.22 h 6.25 l -4.32,-7.22 c 1.42,-0.48 2.38,-0.48 3.35,-1.89 z m -5.28,-6.25 c 0,1.45 -0.48,2.86 -1.94,2.86 H 6.69 v -7.21 h 6.25 c 1.45,0 2.42,0.96 2.42,2.42 z"
   class="st9"
   id="path46" />
							</g>
							<g
   id="shape280-59"
   transform="translate(11.2072,-11.0862)">
								<title
   id="title47">Sheet.280</title>
								<path
   d="m 49.59,416.71 c 0,-13.67 -11.13,-24.8 -24.8,-24.8 -13.66,0 -24.79,11.13 -24.79,24.8 0,13.66 11.13,24.79 24.79,24.79 13.67,0 24.8,-11.13 24.8,-24.79 z m -24.8,21.28 c -11.73,0 -21.28,-9.55 -21.28,-21.28 0,-11.73 9.55,-21.29 21.28,-21.29 11.73,0 21.29,9.56 21.29,21.29 0,11.73 -9.56,21.28 -21.29,21.28 z"
   class="st9"
   id="path47" />
							</g>
							<g
   id="shape281-61"
   transform="translate(36.6047,-36.5644)">
								<title
   id="title48">Sheet.281</title>
								<path
   d="m 1.69,414.17 c 13.55,0.88 24.84,12.21 25.72,25.72 0.08,0.92 0.85,1.61 1.74,1.61 0.04,0 0.08,0 0.12,0 0.97,-0.08 1.69,-0.89 1.61,-1.85 -0.73,-10.93 -7.46,-20.56 -16.81,-25.52 h 10.88 l -1.33,1.33 c -0.68,0.68 -0.68,1.77 0,2.46 0.33,0.32 0.81,0.52 1.25,0.52 0.45,0 0.89,-0.16 1.25,-0.52 l 4.32,-4.32 c 0.68,-0.68 0.68,-1.77 0,-2.46 l -4.32,-4.31 c -0.68,-0.68 -1.77,-0.68 -2.46,0 -0.68,0.69 -0.68,1.77 0,2.46 l 1.33,1.33 H 1.81 c -0.92,0 -1.73,0.77 -1.73,1.69 -0.08,1.01 0.65,1.78 1.61,1.86 z"
   class="st9"
   id="path48" />
							</g>
							<g
   id="shape282-63"
   transform="translate(0,-36.5644)">
								<title
   id="title49">Sheet.282</title>
								<path
   d="m 4.47,439.77 c 0,0.92 0.77,1.73 1.7,1.73 h 0.04 c 0.93,0 1.69,-0.73 1.73,-1.61 0.89,-13.55 12.22,-24.84 25.72,-25.72 0.97,-0.08 1.69,-0.89 1.61,-1.86 -0.08,-0.96 -0.88,-1.69 -1.85,-1.61 -10.93,0.73 -20.56,7.46 -25.52,16.81 v -10.88 l 1.33,1.33 c 0.32,0.32 0.81,0.52 1.25,0.52 0.44,0 0.89,-0.16 1.25,-0.52 0.69,-0.69 0.69,-1.78 0,-2.46 L 7.46,411.18 C 6.77,410.5 5.68,410.5 5,411.18 l -4.31,4.32 c -0.69,0.68 -0.69,1.77 0,2.46 0.68,0.68 1.77,0.68 2.45,0 l 1.33,-1.33 z"
   class="st9"
   id="path49" />
							</g>
							<g
   id="shape283-65"
   transform="translate(4.31355)">
								<title
   id="title50">Sheet.283</title>
								<path
   d="M 29.39,433.64 C 15.84,432.75 4.56,421.42 3.67,407.92 c -0.08,-0.97 -0.89,-1.69 -1.86,-1.61 -0.96,0.08 -1.69,0.88 -1.61,1.85 0.73,10.93 7.46,20.56 16.81,25.52 H 6.13 l 1.33,-1.33 c 0.68,-0.69 0.68,-1.77 0,-2.46 -0.69,-0.69 -1.78,-0.69 -2.46,0 l -4.31,4.31 c -0.69,0.69 -0.69,1.78 0,2.46 L 5,440.98 c 0.32,0.32 0.81,0.52 1.25,0.52 0.44,0 0.89,-0.16 1.25,-0.52 0.68,-0.69 0.68,-1.78 0,-2.46 l -1.33,-1.33 h 23.1 c 0.92,0 1.73,-0.77 1.73,-1.7 0.08,-1 -0.64,-1.77 -1.61,-1.85 z"
   class="st9"
   id="path50" />
							</g>
							<g
   id="shape284-67"
   transform="translate(36.645,-4.35386)">
								<title
   id="title51">Sheet.284</title>
								<path
   d="m 34.67,434.2 c -0.69,-0.68 -1.77,-0.68 -2.46,0 l -1.33,1.33 v -23.14 c 0,-0.92 -0.77,-1.73 -1.69,-1.73 h -0.04 c -0.93,0 -1.7,0.73 -1.74,1.61 -0.88,13.55 -12.21,24.84 -25.72,25.72 -0.96,0.08 -1.69,0.89 -1.61,1.86 0.08,0.92 0.85,1.61 1.73,1.61 0.04,0 0.08,0 0.13,0 10.92,-0.73 20.55,-7.46 25.51,-16.81 v 10.88 l -1.33,-1.33 c -0.68,-0.68 -1.77,-0.68 -2.46,0 -0.68,0.69 -0.68,1.78 0,2.46 l 4.32,4.32 c 0.32,0.32 0.8,0.52 1.25,0.52 0.44,0 0.88,-0.16 1.25,-0.52 l 4.31,-4.32 c 0.56,-0.68 0.56,-1.81 -0.12,-2.46 z"
   class="st9"
   id="path51" />
							</g>
						</g>
					</g>
				</g>
				<g
   id="shape285-69"
   transform="translate(0,-40.5)">
					<title
   id="title52">Sheet.285</title>
					<path
   id="ellipse52"
   class="st10"
   style="fill:#ffffff;stroke:#a5a5a5;stroke-width:5;stroke-linecap:round;stroke-linejoin:round;marker-end:url(#mrkr42-45)"
   d="m 16.875,433.06299 a 8.4375,8.4375 0 0 1 -8.4375,8.4375 8.4375,8.4375 0 0 1 -8.4375,-8.4375 8.4375,8.4375 0 0 1 8.4375,-8.4375 8.4375,8.4375 0 0 1 8.4375,8.4375 z" />
				</g>
				<g
   id="shape286-72"
   transform="translate(95.625,-41.0625)">
					<title
   id="title53">Sheet.286</title>
					<path
   id="ellipse53"
   class="st10"
   style="fill:#ffffff;stroke:#a5a5a5;stroke-width:5;stroke-linecap:round;stroke-linejoin:round;marker-end:url(#mrkr42-45)"
   d="m 16.875,433.06299 a 8.4375,8.4375 0 0 1 -8.4375,8.4375 8.4375,8.4375 0 0 1 -8.4375,-8.4375 8.4375,8.4375 0 0 1 8.4375,-8.4375 8.4375,8.4375 0 0 1 8.4375,8.4375 z" />
				</g>
			</g>
			<g
   id="group287-75"
   transform="translate(281.839)">
				<title
   id="title54">Sheet.287</title>
				<g
   id="shape288-76"
   transform="translate(2.11007,-7.57005)">
					<title
   id="title55">Sheet.288</title>
					<path
   id="rect55"
   class="st12"
   style="fill:#ffffff;stroke:#bfbfbf;stroke-width:0.75;stroke-linecap:round;stroke-linejoin:round"
   d="m 0,401 h 156.375 v 40.5 H 0 Z" />
				</g>
				<g
   id="shape289-78">
					<title
   id="title56">Sheet.289</title>
					<desc
   id="desc56">Internet</desc>
					<path
   id="rect56"
   class="st13"
   style="stroke-width:1.75;stroke-linecap:round;stroke-linejoin:round"
   d="m 0,383.60999 h 158.01601 v 57.89009 H 0 Z" />
					<path
   d="m 7.5543752,426.70001 v -25.69922 h 5.4492188 v 25.69922 z M 30.212578,406.67853 q 3.146485,0 5.0625,1.72265 1.916016,1.70508 1.916016,5.48438 v 12.81445 H 31.829766 V 415.2215 q 0,-2.10938 -0.773438,-3.18164 -0.755859,-1.07227 -2.390625,-1.07227 -2.460937,0 -3.357422,1.66992 -0.896484,1.66992 -0.896484,4.81641 v 9.24609 h -5.361328 v -19.65234 h 4.095703 l 0.720703,2.51367 h 0.298828 q 0.632813,-1.01953 1.564453,-1.65234 0.949219,-0.63282 2.091797,-0.93164 1.160157,-0.29883 2.390625,-0.29883 z m 20.777344,16.10156 q 0.878906,0 1.705078,-0.17578 0.84375,-0.17578 1.669922,-0.43945 v 3.99023 q -0.861328,0.38672 -2.144531,0.63281 -1.265625,0.26367 -2.777344,0.26367 -1.757812,0 -3.164062,-0.5625 -1.388672,-0.58007 -2.197266,-1.98632 -0.791016,-1.42383 -0.791016,-3.95508 v -9.47461 h -2.566406 v -2.26758 l 2.953125,-1.79297 1.546875,-4.14844 h 3.427734 v 4.1836 h 5.501954 v 4.02539 h -5.501954 v 9.47461 q 0,1.125 0.632813,1.6875 0.650391,0.54492 1.705078,0.54492 z m 15.451172,-16.10156 q 2.724609,0 4.693359,1.05469 1.96875,1.0371 3.041016,3.02343 1.072266,1.98633 1.072266,4.85157 v 2.60156 H 62.573906 q 0.08789,2.26758 1.353516,3.56836 1.283203,1.2832 3.550781,1.2832 1.88086,0 3.445313,-0.38672 1.564453,-0.38672 3.216797,-1.16015 v 4.14843 q -1.458985,0.72071 -3.058594,1.05469 -1.582031,0.33398 -3.849609,0.33398 -2.953125,0 -5.238282,-1.08984 -2.267578,-1.08984 -3.568359,-3.32226 -1.283203,-2.23243 -1.283203,-5.625 0,-3.44532 1.160156,-5.73047 1.177734,-2.30274 3.269531,-3.44532 2.091797,-1.16015 4.869141,-1.16015 z m 0.03516,3.81445 q -1.564453,0 -2.601562,1.00195 -1.019532,1.00196 -1.177735,3.14649 h 7.523438 q -0.01758,-1.19531 -0.439453,-2.12695 -0.404297,-0.93165 -1.230469,-1.47657 -0.808594,-0.54492 -2.074219,-0.54492 z m 24.09961,-3.81445 q 0.404296,0 0.93164,0.0527 0.544922,0.0352 0.878906,0.10547 l -0.404296,5.02734 q -0.263672,-0.0879 -0.75586,-0.12304 -0.474609,-0.0527 -0.826172,-0.0527 -1.037109,0 -2.021484,0.26368 -0.966797,0.26367 -1.740234,0.86132 -0.773438,0.58008 -1.230469,1.54688 -0.439453,0.94922 -0.439453,2.33789 v 10.00195 H 79.60711 v -19.65234 h 4.060546 l 0.791016,3.30469 h 0.263672 q 0.580078,-1.00196 1.441406,-1.82813 0.878906,-0.84375 1.986328,-1.33594 1.125,-0.50976 2.425782,-0.50976 z m 16.541016,0 q 3.14648,0 5.0625,1.72265 1.91601,1.70508 1.91601,5.48438 v 12.81445 h -5.36133 V 415.2215 q 0,-2.10938 -0.77343,-3.18164 -0.75586,-1.07227 -2.39063,-1.07227 -2.46094,0 -3.35742,1.66992 -0.89649,1.66992 -0.89649,4.81641 v 9.24609 h -5.36132 v -19.65234 h 4.0957 l 0.7207,2.51367 H 101.07 q 0.63281,-1.01953 1.56445,-1.65234 0.94922,-0.63282 2.0918,-0.93164 1.16016,-0.29883 2.39063,-0.29883 z m 20.60156,0 q 2.72461,0 4.69336,1.05469 1.96875,1.0371 3.04101,3.02343 1.07227,1.98633 1.07227,4.85157 v 2.60156 h -12.67383 q 0.0879,2.26758 1.35352,3.56836 1.2832,1.2832 3.55078,1.2832 1.88086,0 3.44531,-0.38672 1.56445,-0.38672 3.2168,-1.16015 v 4.14843 q -1.45899,0.72071 -3.0586,1.05469 -1.58203,0.33398 -3.84961,0.33398 -2.95312,0 -5.23828,-1.08984 -2.26758,-1.08984 -3.56836,-3.32226 -1.2832,-2.23243 -1.2832,-5.625 0,-3.44532 1.16016,-5.73047 1.17773,-2.30274 3.26953,-3.44532 2.09179,-1.16015 4.86914,-1.16015 z m 0.0352,3.81445 q -1.56445,0 -2.60156,1.00195 -1.01953,1.00196 -1.17773,3.14649 h 7.52343 q -0.0176,-1.19531 -0.43945,-2.12695 -0.4043,-0.93165 -1.23047,-1.47657 -0.80859,-0.54492 -2.07422,-0.54492 z m 21.41016,12.28711 q 0.87891,0 1.70508,-0.17578 0.84375,-0.17578 1.66992,-0.43945 v 3.99023 q -0.86133,0.38672 -2.14453,0.63281 -1.26563,0.26367 -2.77734,0.26367 -1.75782,0 -3.16407,-0.5625 -1.38867,-0.58007 -2.19726,-1.98632 -0.79102,-1.42383 -0.79102,-3.95508 v -9.47461 h -2.5664 v -2.26758 l 2.95312,-1.79297 1.54688,-4.14844 h 3.42773 v 4.1836 h 5.50195 v 4.02539 h -5.50195 v 9.47461 q 0,1.125 0.63281,1.6875 0.65039,0.54492 1.70508,0.54492 z"
   id="text56"
   class="st14"
   style="font-weight:bold;font-size:108px;font-family:'Open Sans';fill:#595959"
   aria-label="Internet" />				</g>
			</g>
			<g
   id="group335-81"
   transform="translate(117.683,-110.203)">
				<title
   id="title57">Sheet.335</title>
				<g
   id="group336-82"
   transform="translate(10.6875)">
					<title
   id="title58">Sheet.336</title>
					<g
   id="shape337-83">
						<title
   id="title59">Sheet.337</title>
						<path
   id="ellipse59"
   class="st8"
   style="fill:#f2f2f2;stroke:#bfbfbf;stroke-width:3;stroke-linecap:round;stroke-linejoin:round"
   d="M 96.1875,393.40601 A 48.0937,48.0937 0 0 1 48.0938,441.49971 48.0937,48.0937 0 0 1 9.9182129e-5,393.40601 48.0937,48.0937 0 0 1 48.0938,345.31231 a 48.0937,48.0937 0 0 1 48.0937,48.0937 z" />
					</g>
					<g
   id="group338-85"
   transform="translate(12.0937,-12.9375)">
						<title
   id="title60">Router Colored</title>
						<g
   id="group339-86"
   transform="translate(38.5398,-28.4211)">
							<title
   id="title61">Sheet.339</title>
							<g
   id="shape340-87">
								<title
   id="title62">Sheet.340</title>
							</g>
						</g>
						<g
   id="group341-88">
							<title
   id="title63">Sheet.341</title>
							<g
   id="shape342-89"
   transform="translate(26.4054,-24.3494)">
								<title
   id="title64">Sheet.342</title>
								<path
   d="m 20.64,432.39 c 0.48,-1.45 0.48,-2.86 0.48,-5.28 v -2.86 c 0,-2.42 0,-3.83 -1.45,-5.29 -1.45,-0.96 -2.86,-1.45 -5.28,-1.45 H 0 v 23.99 h 6.73 v -7.22 h 4.8 l 3.83,7.22 h 6.25 l -4.32,-7.22 c 1.42,-0.48 2.38,-0.48 3.35,-1.89 z m -5.28,-6.25 c 0,1.45 -0.48,2.86 -1.94,2.86 H 6.69 v -7.21 h 6.25 c 1.45,0 2.42,0.96 2.42,2.42 z"
   class="st9"
   id="path64" />
							</g>
							<g
   id="shape343-91"
   transform="translate(11.2072,-11.0862)">
								<title
   id="title65">Sheet.343</title>
								<path
   d="m 49.59,416.71 c 0,-13.67 -11.13,-24.8 -24.8,-24.8 -13.66,0 -24.79,11.13 -24.79,24.8 0,13.66 11.13,24.79 24.79,24.79 13.67,0 24.8,-11.13 24.8,-24.79 z m -24.8,21.28 c -11.73,0 -21.28,-9.55 -21.28,-21.28 0,-11.73 9.55,-21.29 21.28,-21.29 11.73,0 21.29,9.56 21.29,21.29 0,11.73 -9.56,21.28 -21.29,21.28 z"
   class="st9"
   id="path65" />
							</g>
							<g
   id="shape344-93"
   transform="translate(36.6047,-36.5644)">
								<title
   id="title66">Sheet.344</title>
								<path
   d="m 1.69,414.17 c 13.55,0.88 24.84,12.21 25.72,25.72 0.08,0.92 0.85,1.61 1.74,1.61 0.04,0 0.08,0 0.12,0 0.97,-0.08 1.69,-0.89 1.61,-1.85 -0.73,-10.93 -7.46,-20.56 -16.81,-25.52 h 10.88 l -1.33,1.33 c -0.68,0.68 -0.68,1.77 0,2.46 0.33,0.32 0.81,0.52 1.25,0.52 0.45,0 0.89,-0.16 1.25,-0.52 l 4.32,-4.32 c 0.68,-0.68 0.68,-1.77 0,-2.46 l -4.32,-4.31 c -0.68,-0.68 -1.77,-0.68 -2.46,0 -0.68,0.69 -0.68,1.77 0,2.46 l 1.33,1.33 H 1.81 c -0.92,0 -1.73,0.77 -1.73,1.69 -0.08,1.01 0.65,1.78 1.61,1.86 z"
   class="st9"
   id="path66" />
							</g>
							<g
   id="shape345-95"
   transform="translate(0,-36.5644)">
								<title
   id="title67">Sheet.345</title>
								<path
   d="m 4.47,439.77 c 0,0.92 0.77,1.73 1.7,1.73 h 0.04 c 0.93,0 1.69,-0.73 1.73,-1.61 0.89,-13.55 12.22,-24.84 25.72,-25.72 0.97,-0.08 1.69,-0.89 1.61,-1.86 -0.08,-0.96 -0.88,-1.69 -1.85,-1.61 -10.93,0.73 -20.56,7.46 -25.52,16.81 v -10.88 l 1.33,1.33 c 0.32,0.32 0.81,0.52 1.25,0.52 0.44,0 0.89,-0.16 1.25,-0.52 0.69,-0.69 0.69,-1.78 0,-2.46 L 7.46,411.18 C 6.77,410.5 5.68,410.5 5,411.18 l -4.31,4.32 c -0.69,0.68 -0.69,1.77 0,2.46 0.68,0.68 1.77,0.68 2.45,0 l 1.33,-1.33 z"
   class="st9"
   id="path67" />
							</g>
							<g
   id="shape346-97"
   transform="translate(4.31355)">
								<title
   id="title68">Sheet.346</title>
								<path
   d="M 29.39,433.64 C 15.84,432.75 4.56,421.42 3.67,407.92 c -0.08,-0.97 -0.89,-1.69 -1.86,-1.61 -0.96,0.08 -1.69,0.88 -1.61,1.85 0.73,10.93 7.46,20.56 16.81,25.52 H 6.13 l 1.33,-1.33 c 0.68,-0.69 0.68,-1.77 0,-2.46 -0.69,-0.69 -1.78,-0.69 -2.46,0 l -4.31,4.31 c -0.69,0.69 -0.69,1.78 0,2.46 L 5,440.98 c 0.32,0.32 0.81,0.52 1.25,0.52 0.44,0 0.89,-0.16 1.25,-0.52 0.68,-0.69 0.68,-1.78 0,-2.46 l -1.33,-1.33 h 23.1 c 0.92,0 1.73,-0.77 1.73,-1.7 0.08,-1 -0.64,-1.77 -1.61,-1.85 z"
   class="st9"
   id="path68" />
							</g>
							<g
   id="shape347-99"
   transform="translate(36.645,-4.35386)">
								<title
   id="title69">Sheet.347</title>
								<path
   d="m 34.67,434.2 c -0.69,-0.68 -1.77,-0.68 -2.46,0 l -1.33,1.33 v -23.14 c 0,-0.92 -0.77,-1.73 -1.69,-1.73 h -0.04 c -0.93,0 -1.7,0.73 -1.74,1.61 -0.88,13.55 -12.21,24.84 -25.72,25.72 -0.96,0.08 -1.69,0.89 -1.61,1.86 0.08,0.92 0.85,1.61 1.73,1.61 0.04,0 0.08,0 0.13,0 10.92,-0.73 20.55,-7.46 25.51,-16.81 v 10.88 l -1.33,-1.33 c -0.68,-0.68 -1.77,-0.68 -2.46,0 -0.68,0.69 -0.68,1.78 0,2.46 l 4.32,4.32 c 0.32,0.32 0.8,0.52 1.25,0.52 0.44,0 0.88,-0.16 1.25,-0.52 l 4.31,-4.32 c 0.56,-0.68 0.56,-1.81 -0.12,-2.46 z"
   class="st9"
   id="path69" />
							</g>
						</g>
					</g>
				</g>
				<g
   id="shape348-101"
   transform="translate(99,-34.3125)">
					<title
   id="title70">Sheet.348</title>
					<path
   id="ellipse70"
   class="st10"
   style="fill:#ffffff;stroke:#a5a5a5;stroke-width:5;stroke-linecap:round;stroke-linejoin:round;marker-end:url(#mrkr42-45)"
   d="m 16.875,433.06299 a 8.4375,8.4375 0 0 1 -8.4375,8.4375 8.4375,8.4375 0 0 1 -8.4375,-8.4375 8.4375,8.4375 0 0 1 8.4375,-8.4375 8.4375,8.4375 0 0 1 8.4375,8.4375 z" />
				</g>
				<g
   id="shape349-104"
   transform="translate(89.4375,-69.1875)">
					<title
   id="title71">Sheet.349</title>
					<path
   id="ellipse71"
   class="st10"
   style="fill:#ffffff;stroke:#a5a5a5;stroke-width:5;stroke-linecap:round;stroke-linejoin:round;marker-end:url(#mrkr42-45)"
   d="m 16.875,433.06299 a 8.4375,8.4375 0 0 1 -8.4375,8.4375 8.4375,8.4375 0 0 1 -8.4375,-8.4375 8.4375,8.4375 0 0 1 8.4375,-8.4375 8.4375,8.4375 0 0 1 8.4375,8.4375 z" />
				</g>
			</g>
			<g
   id="shape353-107"
   transform="translate(582.871,-144.515)">
				<title
   id="title72">Sheet.353</title>
				<path
   id="ellipse72"
   class="st10"
   style="fill:#ffffff;stroke:#a5a5a5;stroke-width:5;stroke-linecap:round;stroke-linejoin:round;marker-end:url(#mrkr42-45)"
   d="m 16.875,433.06299 a 8.4375,8.4375 0 0 1 -8.4375,8.4375 8.4375,8.4375 0 0 1 -8.4375,-8.4375 8.4375,8.4375 0 0 1 8.4375,-8.4375 8.4375,8.4375 0 0 1 8.4375,8.4375 z" />
			</g>
			<g
   id="shape354-110"
   transform="translate(119.441,-144.63)">
				<title
   id="title73">Sheet.354</title>
				<path
   id="ellipse73"
   class="st10"
   style="fill:#ffffff;stroke:#a5a5a5;stroke-width:5;stroke-linecap:round;stroke-linejoin:round;marker-end:url(#mrkr42-45)"
   d="m 16.875,433.06299 a 8.4375,8.4375 0 0 1 -8.4375,8.4375 8.4375,8.4375 0 0 1 -8.4375,-8.4375 8.4375,8.4375 0 0 1 8.4375,-8.4375 8.4375,8.4375 0 0 1 8.4375,8.4375 z" />
			</g>
		</g><g
   id="shape418-113"
   transform="translate(986.136,-12.7598)">
			<title
   id="title74">Rounded Rectangle.3109</title>
			<desc
   id="desc74">Cloud Vendor</desc>
			<path
   d="m 10.58,441.5 h 380.78 a 10.5772,10.5772 -180 0 0 10.58,-10.58 V 50.34 A 10.5772,10.5772 -180 0 0 391.36,39.76 H 10.58 A 10.5772,10.5772 -180 0 0 0,50.34 v 380.58 a 10.5772,10.5772 -180 0 0 10.58,10.58 z"
   class="st15"
   id="path74" />
			<path
   d="m 23.599928,432.05999 q -5.351973,0.48 -8.879956,0.48 -2.351988,0 -3.455983,-1.104 -1.103994,-1.10399 -1.103994,-3.45598 v -7.67996 q 0,-2.51999 1.127994,-3.64798 1.151995,-1.152 3.671982,-1.152 h 8.639957 v 3.35999 h -7.679962 q -1.439993,0 -1.439993,1.43999 v 7.67996 q 0,0.552 0.311999,0.88799 0.335998,0.312 0.839996,0.312 0.503997,0 1.103994,0 0.599997,-0.024 1.247994,-0.048 0.647997,-0.024 1.295993,-0.048 0.671997,-0.024 1.703992,-0.096 1.055995,-0.072 2.615987,-0.16799 z m 8.159979,0.24 q -1.607992,0.24 -3.071985,0.24 -1.439992,0 -2.423987,-0.984 Q 25.27994,430.572 25.27994,428.94 v -13.43993 h 4.199979 v 12.83994 q 0,0.36 0.239998,0.59999 0.239999,0.24 0.599997,0.24 h 1.439993 z m 14.639931,-3.59998 q 0,1.79999 -1.031995,2.83198 -1.007995,1.008 -2.807985,1.008 h -5.519973 q -1.799991,0 -2.831986,-1.008 -1.007995,-1.03199 -1.007995,-2.83198 v -5.51998 q 0,-1.79999 1.007995,-2.80798 1.031995,-1.032 2.831986,-1.032 h 5.519973 q 1.79999,0 2.807985,1.032 1.031995,1.00799 1.031995,2.80798 z m -4.199979,-5.15998 q 0,-0.95999 -0.959995,-0.95999 h -2.879985 q -0.959996,0 -0.959996,0.95999 v 4.79998 q 0,0.95999 0.959996,0.95999 h 2.879985 q 0.959995,0 0.959995,-0.95999 z M 54.439777,429.06 q 1.271994,0 2.879986,-0.47999 v -8.99996 h 4.199979 v 12.71994 H 57.79976 l -0.239998,-1.2 q -1.127995,0.744 -2.327989,1.104 -1.175994,0.336 -1.99199,0.336 h -1.079994 q -1.631992,0 -2.615987,-0.984 Q 48.559807,430.572 48.559807,428.94 v -9.35995 h 4.199979 v 8.63996 q 0,0.36 0.239998,0.6 0.239999,0.23999 0.599997,0.23999 z m 18.479894,3.23999 -0.239999,-1.2 q -1.127994,0.744 -2.327988,1.104 -1.175995,0.336 -1.99199,0.336 h -1.079995 q -1.631992,0 -2.615987,-0.984 Q 63.679717,430.572 63.679717,428.94 v -5.51997 q 0,-1.79999 1.007995,-2.80798 1.031995,-1.032 2.831986,-1.032 h 4.919975 v -4.07998 h 4.199979 v 16.79992 z M 69.559688,429.06 q 1.271993,0 2.879985,-0.47999 v -5.75997 h -3.599982 q -0.959995,0 -0.959995,0.95999 v 4.43998 q 0,0.36 0.239999,0.6 0.239999,0.23999 0.599997,0.23999 z m 23.999838,-1.79999 4.07998,-11.75994 h 4.679974 l -6.359966,16.79992 H 91.159538 L 84.79957,415.50007 h 4.679977 z m 13.919894,-4.91997 q -0.95999,0 -0.95999,0.95999 v 1.32 h 4.07998 v -1.32 q 0,-0.95999 -0.96,-0.95999 z m 6.83997,9.71995 q -4.63198,0.48 -8.39996,0.48 -1.63199,0 -2.61599,-0.984 -0.98399,-0.98399 -0.98399,-2.61599 v -5.75997 q 0,-1.79999 1.00799,-2.80798 1.032,-1.032 2.83199,-1.032 h 4.79998 q 1.79999,0 2.80798,1.032 1.032,1.00799 1.032,2.80798 v 4.43998 h -8.27996 v 0.96 q 0,0.35999 0.24,0.59999 0.24,0.24 0.59999,0.24 2.37599,0 6.95997,-0.36 z m 9.71996,-9.23995 q -1.272,0 -2.87999,0.47999 v 8.99996 h -4.19998 v -12.71994 h 3.71998 l 0.24,1.2 q 1.128,-0.744 2.30399,-1.08 1.19999,-0.36 2.01599,-0.36 h 1.07999 q 1.632,0 2.61599,0.984 0.984,0.98399 0.984,2.61598 v 9.35996 h -4.19998 v -8.63996 q 0,-0.36 -0.24,-0.6 -0.24,-0.23999 -0.6,-0.23999 z m 17.03989,9.47995 -0.24,-1.2 q -1.12799,0.744 -2.32799,1.104 -1.17599,0.336 -1.99199,0.336 h -1.07999 q -1.63199,0 -2.61599,-0.984 -0.98399,-0.98399 -0.98399,-2.61599 v -5.51997 q 0,-1.79999 1.00799,-2.80798 1.032,-1.032 2.83199,-1.032 h 4.91997 v -4.07998 h 4.19998 v 16.79992 z M 137.71926,429.06 q 1.27199,0 2.87998,-0.47999 v -5.75997 h -3.59998 q -0.96,0 -0.96,0.95999 v 4.43998 q 0,0.36 0.24,0.6 0.24,0.23999 0.6,0.23999 z m 22.43986,-0.35999 q 0,1.79999 -1.03199,2.83198 -1.008,1.008 -2.80799,1.008 h -5.51997 q -1.79999,0 -2.83199,-1.008 -1.00799,-1.03199 -1.00799,-2.83198 v -5.51998 q 0,-1.79999 1.00799,-2.80798 1.032,-1.032 2.83199,-1.032 h 5.51997 q 1.79999,0 2.80799,1.032 1.03199,1.00799 1.03199,2.80798 z m -4.19998,-5.15998 q 0,-0.95999 -0.95999,-0.95999 h -2.87999 q -0.95999,0 -0.95999,0.95999 v 4.79998 q 0,0.95999 0.95999,0.95999 h 2.87999 q 0.95999,0 0.95999,-0.95999 z m 13.67992,-0.48 q -1.512,0 -3.11999,0.72 v 8.51996 h -4.19998 v -12.71994 h 3.71998 l 0.24,1.55999 q 2.06399,-1.79999 4.31998,-1.79999 h 1.07999 v 3.71998 z"
   id="text74"
   class="st16"
   style="font-size:47.9995px;font-family:'Russo One';fill:#a86a33"
   aria-label="Cloud Vendor" />		</g><g
   id="shape253-116"
   transform="translate(1004.14,-72.0049)">
			<title
   id="title75">Rounded Rectangle.3108</title>
			<desc
   id="desc75">Container</desc>
			<path
   d="m 7.49,441.5 h 350.96 a 7.49405,7.49405 -180 0 0 7.49,-7.49 V 124.5 A 7.49405,7.49405 -180 0 0 358.45,117 H 7.49 A 7.49405,7.49405 -180 0 0 0,124.5 v 309.51 a 7.49405,7.49405 -180 0 0 7.49,7.49 z"
   class="st17"
   id="path75" />
			<path
   d="m 115.92,153.05 q -8.028,0.72 -13.32,0.72 -3.528,0 -5.184,-1.656 -1.656,-1.656 -1.656,-5.184 v -11.52 q 0,-3.78 1.692,-5.472 1.728,-1.728 5.508,-1.728 h 12.96 v 5.04 H 104.4 q -2.16,0 -2.16,2.16 v 11.52 q 0,0.828 0.468,1.332 0.504,0.468 1.26,0.468 0.756,0 1.656,0 0.9,-0.036 1.872,-0.072 0.972,-0.036 1.944,-0.072 1.008,-0.036 2.556,-0.144 1.584,-0.108 3.924,-0.252 z m 21.96003,-5.04 q 0,2.7 -1.548,4.248 -1.512,1.512 -4.212,1.512 h -8.28 q -2.7,0 -4.248,-1.512 -1.512,-1.548 -1.512,-4.248 v -8.28 q 0,-2.7 1.512,-4.212 1.548,-1.548 4.248,-1.548 h 8.28 q 2.7,0 4.212,1.548 1.548,1.512 1.548,4.212 z m -6.3,-7.74 q 0,-1.44 -1.44,-1.44 h -4.32 q -1.44,0 -1.44,1.44 v 7.2 q 0,1.44 1.44,1.44 h 4.32 q 1.44,0 1.44,-1.44 z M 151.74,139.19 q -1.908,0 -4.32,0.72 v 13.5 h -6.3 v -19.08 h 5.58 l 0.36,1.8 q 1.692,-1.116 3.456,-1.62 1.8,-0.54 3.024,-0.54 h 1.62 q 2.448,0 3.924,1.476 1.476,1.476 1.476,3.924 v 14.04 h -6.3 v -12.96 q 0,-0.54 -0.36,-0.9 -0.36,-0.36 -0.9,-0.36 z m 25.37997,14.22 q -3.492,0.36 -6.84,0.36 -2.448,0 -3.924,-1.476 -1.476,-1.476 -1.476,-3.924 v -9.18 h -2.16 v -4.86 h 2.16 l 0.72,-4.32 h 5.58 v 4.32 h 4.5 v 4.86 h -4.5 v 8.28 q 0,0.54 0.36,0.9 0.36,0.36 0.9,0.36 h 4.68 z m 9.36,-4.68 q 1.908,0 4.32,-0.72 v -2.16 h -5.22 q -0.54,0 -0.9,0.36 -0.36,0.36 -0.36,0.9 v 0.36 q 0,0.54 0.36,0.9 0.36,0.36 0.9,0.36 z m -6.66,-14.04 q 6.588,-0.72 11.88,-0.72 2.448,0 3.924,1.476 1.476,1.476 1.476,3.924 v 14.04 h -5.58 l -0.36,-1.8 q -1.692,1.116 -3.492,1.656 -1.764,0.504 -2.988,0.504 h -1.26 q -2.448,0 -3.924,-1.476 -1.476,-1.476 -1.476,-3.924 v -1.62 q 0,-2.448 1.476,-3.924 1.476,-1.476 3.924,-1.476 h 7.38 v -1.44 q 0,-0.54 -0.36,-0.9 -0.36,-0.36 -0.9,-0.36 -2.34,0 -5.184,0.216 -2.808,0.216 -4.536,0.324 z m 28.43998,0.36 v 18.36 h -6.3 v -13.5 h -2.7 v -4.86 z m -6.3,-7.2 h 6.3 v 5.04 h -6.3 z m 20.51999,11.34 q -1.908,0 -4.32,0.72 v 13.5 h -6.3 v -19.08 h 5.58 l 0.36,1.8 q 1.692,-1.116 3.456,-1.62 1.8,-0.54 3.024,-0.54 h 1.62 q 2.448,0 3.924,1.476 1.476,1.476 1.476,3.924 v 14.04 h -6.3 v -12.96 q 0,-0.54 -0.36,-0.9 -0.36,-0.36 -0.9,-0.36 z m 19.43997,-0.72 q -1.44,0 -1.44,1.44 v 1.98 h 6.12 v -1.98 q 0,-1.44 -1.44,-1.44 z m 10.26,14.58 q -6.948,0.72 -12.6,0.72 -2.448,0 -3.924,-1.476 -1.476,-1.476 -1.476,-3.924 v -8.64 q 0,-2.7 1.512,-4.212 1.548,-1.548 4.248,-1.548 h 7.2 q 2.7,0 4.212,1.548 1.548,1.512 1.548,4.212 v 6.66 h -12.42 v 1.44 q 0,0.54 0.36,0.9 0.36,0.36 0.9,0.36 3.564,0 10.44,-0.54 z m 14.94002,-13.5 q -2.268,0 -4.68,1.08 v 12.78 h -6.3 v -19.08 h 5.58 l 0.36,2.34 q 3.096,-2.7 6.48,-2.7 h 1.62 v 5.58 z"
   id="text75"
   class="st18"
   style="font-size:108px;font-family:'Russo One';fill:#595959"
   aria-label="Container" />		</g><g
   id="group412-119"
   transform="translate(1001.08,-86.4951)">
			<title
   id="title76">Sheet.412</title>
			<g
   id="group413-120"
   transform="translate(20.5449)">
				<title
   id="title77">Sheet.413</title>
				<g
   id="shape414-121"
   transform="translate(0,-206.567)">
					<title
   id="title78">Sheet.414</title>
					<path
   d="M 0,441.5 H 335.4 V 411.21 A 13.9748,15.1439 -180 0 0 321.42,396.07 H 13.97 A 13.9748,15.1439 -180 0 0 0,411.21 Z"
   class="st19"
   id="path78" />
				</g>
				<g
   id="shape415-123">
					<title
   id="title79">Sheet.415</title>
					<path
   d="M 0,235.5 V 429.38 A 13.9748,12.1177 -180 0 0 13.97,441.5 H 321.42 A 13.9748,12.1177 -180 0 0 335.4,429.38 V 235.5 Z"
   class="st19"
   id="path79" />
				</g>
			</g>
			<g
   id="shape417-125"
   transform="translate(24.9227,-210.505)">
				<title
   id="title80">Virtual server.16</title>
				<desc
   id="desc80">Appetizer Process</desc>
				<path
   id="rect80"
   class="st20"
   style="stroke-width:0.5;stroke-linecap:round;stroke-linejoin:round"
   d="m 0,404.241 h 324 v 37.2587 H 0 Z" />
				<path
   d="m 54.419977,430.07001 h -4.679976 l 6.359968,-16.79992 h 4.799976 l 6.359968,16.79992 h -4.679977 l -1.079994,-2.99999 h -5.99997 z m 2.159989,-6.11997 h 3.839981 l -1.91999,-5.63997 z m 18.719884,-3.35999 q -1.271993,0 -2.879985,0.48 v 5.75997 h 3.599982 q 0.959995,0 0.959995,-0.95999 v -4.43998 q 0,-0.36 -0.239999,-0.6 -0.239999,-0.24 -0.599997,-0.24 z m -2.879985,9.47996 v 4.07998 h -4.199979 v -16.79992 h 3.719981 l 0.239999,1.2 q 1.127994,-0.744 2.303988,-1.08 1.199994,-0.36 2.01599,-0.36 h 1.079995 q 1.631992,0 2.615987,0.984 0.983995,0.98399 0.983995,2.61598 v 5.51998 q 0,1.79999 -1.031995,2.83198 -1.007995,1.008 -2.807986,1.008 z m 17.999891,-9.47996 q -1.271994,0 -2.879986,0.48 v 5.75997 h 3.599982 q 0.959995,0 0.959995,-0.95999 v -4.43998 q 0,-0.36 -0.239998,-0.6 -0.239999,-0.24 -0.599997,-0.24 z m -2.879986,9.47996 v 4.07998 h -4.199979 v -16.79992 h 3.719982 l 0.239998,1.2 q 1.127995,-0.744 2.303989,-1.08 1.199994,-0.36 2.01599,-0.36 h 1.079994 q 1.631992,0 2.615987,0.984 0.983995,0.98399 0.983995,2.61598 v 5.51998 q 0,1.79999 -1.031995,2.83198 -1.007994,1.008 -2.807985,1.008 z m 15.8399,-9.95995 q -0.96,0 -0.96,0.95999 v 1.32 h 4.07998 v -1.32 q 0,-0.95999 -0.95999,-0.95999 z m 6.83997,9.71995 q -4.63198,0.48 -8.39996,0.48 -1.63199,0 -2.615989,-0.984 -0.983995,-0.98399 -0.983995,-2.61599 v -5.75997 q 0,-1.79999 1.007995,-2.80798 1.031999,-1.032 2.831989,-1.032 h 4.79997 q 1.79999,0 2.80799,1.032 1.03199,1.00799 1.03199,2.80798 v 4.43998 h -8.27996 v 0.96 q 0,0.35999 0.24,0.59999 0.24,0.24 0.6,0.24 2.37599,0 6.95997,-0.36 z m 11.51995,0.24 q -2.32799,0.24 -4.55998,0.24 -1.63199,0 -2.61599,-0.984 -0.98399,-0.98399 -0.98399,-2.61599 v -6.11997 h -1.43999 v -3.23998 h 1.43999 l 0.48,-2.87998 h 3.71998 v 2.87998 h 2.99998 v 3.23998 h -2.99998 v 5.51998 q 0,0.36 0.24,0.59999 0.23999,0.24 0.59999,0.24 h 3.11999 z m 6.47997,-12.23994 v 12.23994 h -4.19998 v -8.99996 h -1.79999 v -3.23998 z m -4.19998,-4.79998 h 4.19998 v 3.35999 h -4.19998 z m 17.7599,7.55996 -6.59996,6.23997 h 6.59996 v 3.23999 h -11.87994 v -3.23999 l 6.59997,-6.23997 h -6.59997 v -3.23998 h 11.87994 z m 6.59996,-0.47999 q -0.95999,0 -0.95999,0.95999 v 1.32 h 4.07998 v -1.32 q 0,-0.95999 -0.96,-0.95999 z m 6.83997,9.71995 q -4.63198,0.48 -8.39996,0.48 -1.63199,0 -2.61599,-0.984 -0.98399,-0.98399 -0.98399,-2.61599 v -5.75997 q 0,-1.79999 1.00799,-2.80798 1.032,-1.032 2.83199,-1.032 h 4.79997 q 1.79999,0 2.80799,1.032 1.03199,1.00799 1.03199,2.80798 v 4.43998 h -8.27995 v 0.96 q 0,0.35999 0.23999,0.59999 0.24,0.24 0.6,0.24 2.37599,0 6.95997,-0.36 z m 9.95996,-8.99996 q -1.51199,0 -3.11998,0.72 v 8.51996 h -4.19998 v -12.71994 h 3.71998 l 0.24,1.55999 q 2.06399,-1.79999 4.31997,-1.79999 h 1.08 v 3.71998 z m 11.1599,-7.55996 h 10.07995 q 2.51999,0 3.64798,1.152 1.152,1.12799 1.152,3.64798 v 2.39999 q 0,2.51998 -1.152,3.67198 -1.12799,1.12799 -3.64798,1.12799 h -5.75997 v 4.79998 h -4.31998 z m 10.55995,4.79998 q 0,-1.44 -1.43999,-1.44 h -4.79998 v 5.27998 h 4.79998 q 1.43999,0 1.43999,-1.43999 z m 13.5599,2.75998 q -1.51199,0 -3.11998,0.72 v 8.51996 h -4.19998 v -12.71994 h 3.71998 l 0.24,1.55999 q 2.06399,-1.79999 4.31998,-1.79999 h 1.07999 v 3.71998 z m 16.1999,5.63998 q 0,1.79999 -1.032,2.83198 -1.00799,1.008 -2.80798,1.008 h -5.51998 q -1.79999,0 -2.83198,-1.008 -1.008,-1.03199 -1.008,-2.83198 v -5.51998 q 0,-1.79999 1.008,-2.80798 1.03199,-1.032 2.83198,-1.032 h 5.51998 q 1.79999,0 2.80798,1.032 1.032,1.00799 1.032,2.80798 z m -4.19998,-5.15998 q 0,-0.95999 -0.96,-0.95999 h -2.87998 q -0.96,0 -0.96,0.95999 v 4.79998 q 0,0.95999 0.96,0.95999 h 2.87998 q 0.96,0 0.96,-0.95999 z m 17.63989,8.51996 q -4.48798,0.48 -7.91996,0.48 -1.63199,0 -2.61599,-0.984 -0.98399,-0.98399 -0.98399,-2.61599 v -5.51997 q 0,-1.79999 1.00799,-2.80798 1.032,-1.032 2.83199,-1.032 h 7.67996 v 3.23998 h -6.35997 q -0.95999,0 -0.95999,0.96 v 4.67998 q 0,0.35999 0.23999,0.59999 0.24,0.24 0.6,0.24 2.15999,0 6.47997,-0.36 z m 6.83995,-9.71995 q -0.95999,0 -0.95999,0.95999 v 1.32 h 4.07998 v -1.32 q 0,-0.95999 -0.96,-0.95999 z m 6.83997,9.71995 q -4.63198,0.48 -8.39996,0.48 -1.63199,0 -2.61599,-0.984 -0.98399,-0.98399 -0.98399,-2.61599 v -5.75997 q 0,-1.79999 1.00799,-2.80798 1.032,-1.032 2.83199,-1.032 h 4.79997 q 1.8,0 2.80799,1.032 1.032,1.00799 1.032,2.80798 v 4.43998 h -8.27996 v 0.96 q 0,0.35999 0.24,0.59999 0.23999,0.24 0.59999,0.24 2.37599,0 6.95997,-0.36 z m 2.15999,-3.11999 q 4.87198,0.36 7.67996,0.36 0.36,0 0.6,-0.24 0.24,-0.24 0.24,-0.59999 v -0.84 h -5.15998 q -1.63199,0 -2.61598,-0.98399 -0.984,-0.984 -0.984,-2.61599 v -0.84 q 0,-1.63199 0.984,-2.61598 0.98399,-0.984 2.61598,-0.984 h 8.15996 v 3.11999 h -6.71996 q -0.36,0 -0.6,0.23999 -0.24,0.24 -0.24,0.6 0,0.36 0.24,0.6 0.24,0.24 0.6,0.24 h 4.31998 q 1.63199,0 2.61598,0.98399 0.984,0.984 0.984,2.61599 v 0.95999 q 0,1.632 -0.984,2.61599 -0.98399,0.984 -2.61598,0.984 -4.24798,0 -9.11996,-0.48 z m 13.91992,0 q 4.87198,0.36 7.67997,0.36 0.35999,0 0.59999,-0.24 0.24,-0.24 0.24,-0.59999 v -0.84 h -5.15997 q -1.632,0 -2.61599,-0.98399 -0.984,-0.984 -0.984,-2.61599 v -0.84 q 0,-1.63199 0.984,-2.61598 0.98399,-0.984 2.61599,-0.984 h 8.15996 v 3.11999 h -6.71997 q -0.36,0 -0.6,0.23999 -0.24,0.24 -0.24,0.6 0,0.36 0.24,0.6 0.24,0.24 0.6,0.24 h 4.31998 q 1.63199,0 2.61598,0.98399 0.984,0.984 0.984,2.61599 v 0.95999 q 0,1.632 -0.984,2.61599 -0.98399,0.984 -2.61598,0.984 -4.24798,0 -9.11996,-0.48 z"
   id="text80"
   class="st21"
   style="font-size:47.9995px;font-family:'Russo One';fill:#595959"
   aria-label="Appetizer Process" />			</g>
		</g><g
   id="group305-128"
   transform="translate(994.37,-95.4951)">
			<title
   id="title81">Sheet.305</title>
			<g
   id="shape306-129"
   transform="translate(41.0477)">
				<title
   id="title82">Rounded Rectangle.3420</title>
				<desc
   id="desc82">HTTP Server</desc>
				<path
   d="m 6.78,441.5 h 294.1 a 6.781,6.781 -180 0 0 6.78,-6.78 v -58.44 a 6.781,6.781 -180 0 0 -6.78,-6.78 H 6.78 A 6.781,6.781 -180 0 0 0,376.28 v 58.44 a 6.781,6.781 -180 0 0 6.78,6.78 z"
   class="st22"
   id="path82" />
				<path
   d="m 59.12,418.29999 h -6.48 v -10.26 h -9 v 10.26 h -6.48 v -25.2 h 6.48 v 9.9 h 9 v -9.9 h 6.48 z m 16.559984,0 h -6.48 v -20.16 h -7.56 v -5.04 h 21.6 v 5.04 h -7.56 z m 22.32003,0 h -6.48 v -20.16 h -7.56 v -5.04 h 21.599996 v 5.04 h -7.559996 z m 10.080026,-25.2 h 15.12 q 3.78,0 5.472,1.728 1.728,1.692 1.728,5.472 v 3.6 q 0,3.78 -1.728,5.508 -1.692,1.692 -5.472,1.692 h -8.64 v 7.2 h -6.48 z m 15.84,7.2 q 0,-2.16 -2.16,-2.16 h -7.2 v 7.92 h 7.2 q 2.16,0 2.16,-2.16 z m 19.76394,12.78 q 9.864,0.54 13.356,0.54 0.828,0 1.296,-0.468 0.504,-0.504 0.504,-1.332 v -3.24 h -8.28 q -3.78,0 -5.508,-1.692 -1.692,-1.728 -1.692,-5.508 v -1.08 q 0,-3.78 1.692,-5.472 1.728,-1.728 5.508,-1.728 h 12.636 v 5.04 h -11.196 q -2.16,0 -2.16,2.16 v 0.72 q 0,2.16 2.16,2.16 h 6.48 q 3.528,0 5.184,1.656 1.656,1.656 1.656,5.184 v 1.8 q 0,3.528 -1.656,5.184 -1.656,1.656 -5.184,1.656 -1.836,0 -3.888,-0.072 l -3.312,-0.144 q -3.672,-0.18 -7.596,-0.504 z m 31.89601,-9.72 q -1.44,0 -1.44,1.44 v 1.98 h 6.12 v -1.98 q 0,-1.44 -1.44,-1.44 z m 10.26,14.58 q -6.948,0.72 -12.6,0.72 -2.448,0 -3.924,-1.476 -1.476,-1.476 -1.476,-3.924 v -8.64 q 0,-2.7 1.512,-4.212 1.548,-1.548 4.248,-1.548 h 7.2 q 2.7,0 4.212,1.548 1.548,1.512 1.548,4.212 v 6.66 h -12.42 v 1.44 q 0,0.54 0.36,0.9 0.36,0.36 0.9,0.36 3.564,0 10.44,-0.54 z m 14.94001,-13.5 q -2.268,0 -4.68,1.08 v 12.78 h -6.3 v -19.08 h 5.58 l 0.36,2.34 q 3.096,-2.7 6.48,-2.7 h 1.62 v 5.58 z m 18.35997,-5.22 h 6.66 l -7.2,19.08 h -7.2 l -7.2,-19.08 h 6.66 l 4.14,12.96 z m 15.11999,4.14 q -1.44,0 -1.44,1.44 v 1.98 h 6.12 v -1.98 q 0,-1.44 -1.44,-1.44 z m 10.26,14.58 q -6.948,0.72 -12.6,0.72 -2.448,0 -3.924,-1.476 -1.476,-1.476 -1.476,-3.924 v -8.64 q 0,-2.7 1.512,-4.212 1.548,-1.548 4.248,-1.548 h 7.2 q 2.7,0 4.212,1.548 1.548,1.512 1.548,4.212 v 6.66 h -12.42 v 1.44 q 0,0.54 0.36,0.9 0.36,0.36 0.9,0.36 3.564,0 10.44,-0.54 z m 14.94,-13.5 q -2.268,0 -4.68,1.08 v 12.78 h -6.3 v -19.08 h 5.58 l 0.36,2.34 q 3.096,-2.7 6.48,-2.7 h 1.62 v 5.58 z"
   id="text82"
   class="st23"
   style="font-size:108px;font-family:'Russo One';fill:#bfbfbf"
   aria-label="HTTP Server" />			</g>
			<g
   id="group307-132">
				<title
   id="title83">SDKs.3421</title>
				<g
   id="group308-133">
					<title
   id="title84">CloudKit-Icon</title>
					<g
   id="group309-134">
						<title
   id="title85">Bottom</title>
						<g
   id="shape310-135">
							<title
   id="title86">Sheet.310</title>
							<path
   d="m 61.7,422.37 c 4.82,-3.75 4.82,-9.81 0,-13.57 L 41.96,393.44 c -4.81,-3.75 -12.6,-3.75 -17.42,0 L 4.81,408.8 c -4.81,3.76 -4.81,9.82 0,13.57 l 19.73,15.38 c 4.82,3.75 12.61,3.75 17.42,0 z"
   class="st24"
   id="path86" />
						</g>
						<g
   id="shape311-137">
							<title
   id="title87">Sheet.311</title>
							<path
   d="m 61.7,422.37 c 4.82,-3.75 4.82,-9.81 0,-13.57 L 41.96,393.44 c -4.81,-3.75 -12.6,-3.75 -17.42,0 L 4.81,408.8 c -4.81,3.76 -4.81,9.82 0,13.57 l 19.73,15.38 c 4.82,3.75 12.61,3.75 17.42,0 z"
   class="st25"
   id="path87" />
						</g>
					</g>
					<g
   id="group312-139"
   transform="translate(0,-10.6879)">
						<title
   id="title88">Middle</title>
						<g
   id="shape313-140">
							<title
   id="title89">Sheet.313</title>
							<path
   d="m 61.7,422.37 c 4.82,-3.75 4.82,-9.81 0,-13.57 L 41.98,393.43 c -4.82,-3.75 -12.61,-3.75 -17.42,0 L 4.81,408.8 c -4.81,3.76 -4.81,9.82 0,13.57 l 19.73,15.38 c 4.82,3.75 12.61,3.75 17.42,0 z"
   class="st24"
   id="path89" />
						</g>
						<g
   id="shape314-142">
							<title
   id="title90">Sheet.314</title>
							<path
   d="m 61.7,422.37 c 4.82,-3.75 4.82,-9.81 0,-13.57 L 41.98,393.43 c -4.82,-3.75 -12.61,-3.75 -17.42,0 L 4.81,408.8 c -4.81,3.76 -4.81,9.82 0,13.57 l 19.73,15.38 c 4.82,3.75 12.61,3.75 17.42,0 z"
   class="st25"
   id="path90" />
						</g>
					</g>
					<g
   id="group315-144"
   transform="translate(0,-21.3758)">
						<title
   id="title91">Top</title>
						<g
   id="shape316-145">
							<title
   id="title92">Sheet.316</title>
							<path
   d="m 61.7,422.37 c 4.82,-3.75 4.82,-9.81 0,-13.57 L 41.98,393.43 c -4.82,-3.75 -12.61,-3.75 -17.42,0 L 4.81,408.8 c -4.81,3.76 -4.81,9.82 0,13.57 l 19.73,15.38 c 4.82,3.75 12.61,3.75 17.42,0 z"
   class="st24"
   id="path92" />
						</g>
						<g
   id="shape317-147">
							<title
   id="title93">Sheet.317</title>
							<path
   d="m 61.7,422.37 c 4.82,-3.75 4.82,-9.81 0,-13.57 L 41.98,393.43 c -4.82,-3.75 -12.61,-3.75 -17.42,0 L 4.81,408.8 c -4.81,3.76 -4.81,9.82 0,13.57 l 19.73,15.38 c 4.82,3.75 12.61,3.75 17.42,0 z"
   class="st25"
   id="path93" />
						</g>
					</g>
				</g>
				<g
   id="shape318-149"
   transform="translate(21.6186,-29.2453)">
					<title
   id="title94">Sheet.318</title>
					<path
   d="M 11.99,403.59 0,421.83 l 6.81,4.45 1.12,-1.72 3.55,16.94 11.8,-18.32 -6.62,-4.32 -1.13,1.74 z m 5.36,18.31 2.9,1.96 -7.76,11.89 -3.56,-16.99 -2.87,4.42 -2.86,-1.87 7.79,-11.92 3.53,16.83 z"
   class="st24"
   id="path94" />
				</g>
			</g>
		</g><g
   id="group319-151"
   transform="translate(994.327,-186.862)">
			<title
   id="title95">Sheet.319</title>
			<g
   id="shape320-152"
   transform="translate(41.0477)">
				<title
   id="title96">Rounded Rectangle.3402</title>
				<desc
   id="desc96">Reflect Server</desc>
				<path
   d="m 6.78,441.5 h 294.14 a 6.78195,6.78195 -180 0 0 6.78,-6.78 v -58.44 a 6.78195,6.78195 -180 0 0 -6.78,-6.78 H 6.78 A 6.78195,6.78195 -180 0 0 0,376.28 v 58.44 a 6.78195,6.78195 -180 0 0 6.78,6.78 z"
   class="st26"
   id="path96" />
				<path
   d="m 37.16,393.09999 h 15.12 q 3.78,0 5.472,1.728 1.728,1.692 1.728,5.472 v 3.24 q 0,2.988 -1.008,4.644 -0.972,1.656 -3.132,2.196 l 4.5,7.92 h -7.02 l -4.14,-7.56 h -5.04 v 7.56 h -6.48 z m 15.84,7.2 q 0,-2.16 -2.16,-2.16 h -7.2 v 7.56 h 7.2 q 2.16,0 2.16,-2.16 z m 17.099975,3.06 q -1.44,0 -1.44,1.44 v 1.98 h 6.12 v -1.98 q 0,-1.44 -1.44,-1.44 z m 10.26,14.58 q -6.948,0.72 -12.6,0.72 -2.448,0 -3.924,-1.476 -1.476,-1.476 -1.476,-3.924 v -8.64 q 0,-2.7 1.512,-4.212 1.548,-1.548 4.248,-1.548 h 7.2 q 2.7,0 4.212,1.548 1.548,1.512 1.548,4.212 v 6.66 h -12.42 v 1.44 q 0,0.54 0.36,0.9 0.36,0.36 0.9,0.36 3.564,0 10.44,-0.54 z m 19.440014,-19.98 q -1.044,-0.072 -2.772,-0.216 -1.728,-0.144 -2.988,-0.144 -1.26,0 -1.62,0.36 -0.36,0.36 -0.36,0.9 v 1.8 h 5.94 v 4.86 h -5.94 v 12.78 h -6.3 v -12.78 h -2.52 v -4.86 h 2.52 v -2.52 q 0,-2.448 1.476,-3.924 1.476,-1.476 3.924,-1.476 2.196,0 4.644,0.144 2.448,0.144 3.996,0.216 z m 11.160041,20.34 q -2.412,0.36 -4.608,0.36 -2.16,0 -3.636,-1.476 -1.476,-1.476 -1.476,-3.924 v -20.16 h 6.3 v 19.26 q 0,0.54 0.36,0.9 0.36,0.36 0.9,0.36 h 2.16 z m 9.90001,-14.94 q -1.44,0 -1.44,1.44 v 1.98 h 6.12 v -1.98 q 0,-1.44 -1.44,-1.44 z m 10.26,14.58 q -6.948,0.72 -12.6,0.72 -2.448,0 -3.924,-1.476 -1.476,-1.476 -1.476,-3.924 v -8.64 q 0,-2.7 1.512,-4.212 1.548,-1.548 4.248,-1.548 h 7.2 q 2.7,0 4.212,1.548 1.548,1.512 1.548,4.212 v 6.66 h -12.42 v 1.44 q 0,0.54 0.36,0.9 0.36,0.36 0.9,0.36 3.564,0 10.44,-0.54 z m 20.88001,0 q -6.732,0.72 -11.88,0.72 -2.448,0 -3.924,-1.476 -1.476,-1.476 -1.476,-3.924 v -8.28 q 0,-2.7 1.512,-4.212 1.548,-1.548 4.248,-1.548 h 11.52 v 4.86 h -9.54 q -1.44,0 -1.44,1.44 v 7.02 q 0,0.54 0.36,0.9 0.36,0.36 0.9,0.36 3.24,0 9.72,-0.54 z m 16.19997,0.36 q -3.492,0.36 -6.84,0.36 -2.448,0 -3.924,-1.476 -1.476,-1.476 -1.476,-3.924 v -9.18 h -2.16 v -4.86 h 2.16 l 0.72,-4.32 h 5.58 v 4.32 h 4.5 v 4.86 h -4.5 v 8.28 q 0,0.54 0.36,0.9 0.36,0.36 0.9,0.36 h 4.68 z m 12.924,-5.22 q 9.864,0.54 13.356,0.54 0.828,0 1.296,-0.468 0.504,-0.504 0.504,-1.332 v -3.24 h -8.28 q -3.78,0 -5.508,-1.692 -1.692,-1.728 -1.692,-5.508 v -1.08 q 0,-3.78 1.692,-5.472 1.728,-1.728 5.508,-1.728 h 12.636 v 5.04 h -11.196 q -2.16,0 -2.16,2.16 v 0.72 q 0,2.16 2.16,2.16 h 6.48 q 3.528,0 5.184,1.656 1.656,1.656 1.656,5.184 v 1.8 q 0,3.528 -1.656,5.184 -1.656,1.656 -5.184,1.656 -1.836,0 -3.888,-0.072 l -3.312,-0.144 q -3.672,-0.18 -7.596,-0.504 z m 31.89601,-9.72 q -1.44,0 -1.44,1.44 v 1.98 h 6.12 v -1.98 q 0,-1.44 -1.44,-1.44 z m 10.26,14.58 q -6.948,0.72 -12.6,0.72 -2.448,0 -3.924,-1.476 -1.476,-1.476 -1.476,-3.924 v -8.64 q 0,-2.7 1.512,-4.212 1.548,-1.548 4.248,-1.548 h 7.2 q 2.7,0 4.212,1.548 1.548,1.512 1.548,4.212 v 6.66 h -12.42 v 1.44 q 0,0.54 0.36,0.9 0.36,0.36 0.9,0.36 3.564,0 10.44,-0.54 z m 14.94,-13.5 q -2.268,0 -4.68,1.08 v 12.78 h -6.3 v -19.08 h 5.58 l 0.36,2.34 q 3.096,-2.7 6.48,-2.7 h 1.62 v 5.58 z m 18.35997,-5.22 h 6.66 l -7.2,19.08 h -7.2 l -7.2,-19.08 h 6.66 l 4.14,12.96 z m 15.11999,4.14 q -1.44,0 -1.44,1.44 v 1.98 h 6.12 v -1.98 q 0,-1.44 -1.44,-1.44 z m 10.26,14.58 q -6.948,0.72 -12.6,0.72 -2.448,0 -3.924,-1.476 -1.476,-1.476 -1.476,-3.924 v -8.64 q 0,-2.7 1.512,-4.212 1.548,-1.548 4.248,-1.548 h 7.2 q 2.7,0 4.212,1.548 1.548,1.512 1.548,4.212 v 6.66 h -12.42 v 1.44 q 0,0.54 0.36,0.9 0.36,0.36 0.9,0.36 3.564,0 10.44,-0.54 z m 14.94001,-13.5 q -2.268,0 -4.68,1.08 v 12.78 h -6.3 v -19.08 h 5.58 l 0.36,2.34 q 3.096,-2.7 6.48,-2.7 h 1.62 v 5.58 z"
   id="text96"
   class="st18"
   style="font-size:108px;font-family:'Russo One';fill:#595959"
   aria-label="Reflect Server" />			</g>
			<g
   id="group321-155">
				<title
   id="title97">SDKs.3408</title>
				<g
   id="group322-156">
					<title
   id="title98">CloudKit-Icon</title>
					<g
   id="group323-157">
						<title
   id="title99">Bottom</title>
						<g
   id="shape324-158">
							<title
   id="title100">Sheet.324</title>
							<path
   d="m 61.7,422.37 c 4.82,-3.75 4.82,-9.81 0,-13.57 L 41.96,393.44 c -4.81,-3.75 -12.6,-3.75 -17.42,0 L 4.81,408.8 c -4.81,3.76 -4.81,9.82 0,13.57 l 19.73,15.38 c 4.82,3.75 12.61,3.75 17.42,0 z"
   class="st27"
   id="path100" />
						</g>
						<g
   id="shape325-160">
							<title
   id="title101">Sheet.325</title>
							<path
   d="m 61.7,422.37 c 4.82,-3.75 4.82,-9.81 0,-13.57 L 41.96,393.44 c -4.81,-3.75 -12.6,-3.75 -17.42,0 L 4.81,408.8 c -4.81,3.76 -4.81,9.82 0,13.57 l 19.73,15.38 c 4.82,3.75 12.61,3.75 17.42,0 z"
   class="st28"
   id="path101" />
						</g>
					</g>
					<g
   id="group326-162"
   transform="translate(0,-10.6879)">
						<title
   id="title102">Middle</title>
						<g
   id="shape327-163">
							<title
   id="title103">Sheet.327</title>
							<path
   d="m 61.7,422.37 c 4.82,-3.75 4.82,-9.81 0,-13.57 L 41.98,393.43 c -4.82,-3.75 -12.61,-3.75 -17.42,0 L 4.81,408.8 c -4.81,3.76 -4.81,9.82 0,13.57 l 19.73,15.38 c 4.82,3.75 12.61,3.75 17.42,0 z"
   class="st29"
   id="path103" />
						</g>
						<g
   id="shape328-165">
							<title
   id="title104">Sheet.328</title>
							<path
   d="m 61.7,422.37 c 4.82,-3.75 4.82,-9.81 0,-13.57 L 41.98,393.43 c -4.82,-3.75 -12.61,-3.75 -17.42,0 L 4.81,408.8 c -4.81,3.76 -4.81,9.82 0,13.57 l 19.73,15.38 c 4.82,3.75 12.61,3.75 17.42,0 z"
   class="st30"
   id="path104" />
						</g>
					</g>
					<g
   id="group329-167"
   transform="translate(0,-21.3758)">
						<title
   id="title105">Top</title>
						<g
   id="shape330-168">
							<title
   id="title106">Sheet.330</title>
							<path
   d="m 61.7,422.37 c 4.82,-3.75 4.82,-9.81 0,-13.57 L 41.98,393.43 c -4.82,-3.75 -12.61,-3.75 -17.42,0 L 4.81,408.8 c -4.81,3.76 -4.81,9.82 0,13.57 l 19.73,15.38 c 4.82,3.75 12.61,3.75 17.42,0 z"
   class="st31"
   id="path106" />
						</g>
						<g
   id="shape331-170">
							<title
   id="title107">Sheet.331</title>
							<path
   d="m 61.7,422.37 c 4.82,-3.75 4.82,-9.81 0,-13.57 L 41.98,393.43 c -4.82,-3.75 -12.61,-3.75 -17.42,0 L 4.81,408.8 c -4.81,3.76 -4.81,9.82 0,13.57 l 19.73,15.38 c 4.82,3.75 12.61,3.75 17.42,0 z"
   class="st32"
   id="path107" />
						</g>
					</g>
				</g>
				<g
   id="shape332-172"
   transform="translate(21.6186,-29.2453)">
					<title
   id="title108">Sheet.332</title>
					<path
   d="M 11.99,403.59 0,421.83 l 6.81,4.45 1.12,-1.72 3.55,16.94 11.8,-18.32 -6.62,-4.32 -1.13,1.74 z m 5.36,18.31 2.9,1.96 -7.76,11.89 -3.56,-16.99 -2.87,4.42 -2.86,-1.87 7.79,-11.92 3.53,16.83 z"
   class="st33"
   id="path108" />
				</g>
			</g>
		</g><g
   id="shape398-174"
   transform="translate(306,-72)">
			<title
   id="title109">Sheet.398</title>
			<path
   d="m 608.11,303.39 c -7.98,-3.63 -16.77,-5.64 -25.99,-5.64 h -2.55 c -11.37,-41.19 -47.25,-71.46 -89.99,-71.46 -18.63,0 -35.88,5.97 -50.39,15.86 -9.61,-64.87 -62.55,-114.71 -126.66,-114.71 -57.64,0 -106.27,39.95 -122.54,95.14 -7.26,-2.06 -14.9,-3.29 -22.94,-3.29 -43.92,0 -80.19,33.98 -86.86,78.46 H 65.88 C 29.61,297.75 0,328.85 0,367.15 v 4.95 c 0,38.3 29.61,69.4 65.88,69.4 h 516.24 c 36.27,0 65.88,-31.1 65.88,-69.4 v -4.95 c 0,-18.85 -7.18,-35.96 -18.79,-48.48 a 78.75,23.625 0 0 1 -21.1,-15.28 z"
   class="st34"
   id="path109" />
		</g><g
   id="group399-176"
   transform="translate(707.906,-243)">
			<title
   id="title110">Sheet.399</title>
			<g
   id="shape358-177"
   transform="matrix(-0.99902071,-0.04424501,-0.04424501,0.99902071,332.25,-21.973)">
				<title
   id="title111">Sheet.358</title>
				<path
   d="m 25.78,434.74 0.3,0.19 a 197.82,62.3019 -14.06 0 0 199.64,-16.05"
   class="st35"
   id="path111" />
			</g>
			<g
   id="group377-183"
   transform="translate(201.094)">
				<title
   id="title112">Sheet.377</title>
				<g
   id="shape378-184">
					<title
   id="title113">Empty Circle</title>
					<path
   id="ellipse113"
   class="st37"
   style="fill:#f2f2f2;stroke:#595959;stroke-width:3;stroke-linecap:round;stroke-linejoin:round"
   d="M 59.378799,411.811 A 29.6894,29.6894 0 0 1 29.6894,441.5004 29.6894,29.6894 0 0 1 0,411.811 29.6894,29.6894 0 0 1 29.6894,382.1216 29.6894,29.6894 0 0 1 59.378799,411.811 Z" />
				</g>
				<g
   id="group379-186"
   transform="translate(10.4173,-9.72283)">
					<title
   id="title114">e2ee</title>
					<g
   id="group380-187"
   transform="translate(20.1222,-14.3647)">
						<title
   id="title115">Sheet.380</title>
						<g
   id="shape381-188">
							<title
   id="title116">Sheet.381</title>
						</g>
					</g>
					<g
   id="group382-189">
						<title
   id="title117">Sheet.382</title>
						<g
   id="shape383-190">
							<title
   id="title118">Sheet.383</title>
							<path
   d="m 32.21,415.13 v -6.22 c 0,-6.91 -5.35,-12.78 -12.26,-13.04 -7.25,-0.29 -13.24,5.56 -13.24,12.76 v 6.53 H 0.55 c -0.29,0 -0.55,0.23 -0.55,0.55 v 25.24 c 0,0.29 0.23,0.55 0.55,0.55 h 14.07 c 0.29,0 0.55,-0.23 0.55,-0.55 v -3.51 c 0,-0.29 -0.23,-0.55 -0.55,-0.55 H 5.58 v -6.79 h 8.38 c 0.29,0 0.55,-0.23 0.55,-0.55 v -3.48 c 0,-0.29 -0.23,-0.55 -0.55,-0.55 H 5.58 v -5.78 h 9.04 c 0.29,0 0.55,-0.23 0.55,-0.55 v -3.48 c 0,-0.29 -0.23,-0.55 -0.55,-0.55 H 11.2 v -6.3 c 0,-4.29 3.16,-8.06 7.45,-8.47 4.9,-0.46 9.04,3.4 9.04,8.21 v 6.53 h -3.42 c -0.29,0 -0.55,0.23 -0.55,0.55 v 3.48 c 0,0.29 0.23,0.55 0.55,0.55 h 9.04 v 5.78 h -8.38 c -0.29,0 -0.55,0.23 -0.55,0.55 v 3.48 c 0,0.29 0.23,0.55 0.55,0.55 h 8.38 v 6.8 h -9.04 c -0.29,0 -0.55,0.23 -0.55,0.54 v 3.51 c 0,0.29 0.23,0.55 0.55,0.55 h 14.07 c 0.29,0 0.55,-0.23 0.55,-0.55 v -25.24 c 0,-0.29 -0.23,-0.55 -0.55,-0.55 z"
   class="st38"
   id="path118"
   style="fill:url(#linearGradient130)" />
						</g>
						<g
   id="shape384-194"
   transform="translate(17.1859,-11.4285)">
							<title
   id="title119">Sheet.384</title>
							<path
   d="m 0.52,441.5 h 3.54 c 0.29,0 0.52,-0.23 0.52,-0.52 v -3.54 c 0,-0.29 -0.23,-0.52 -0.52,-0.52 H 0.52 c -0.29,0 -0.52,0.23 -0.52,0.52 v 3.54 c 0,0.29 0.23,0.52 0.52,0.52 z"
   class="st38"
   id="path119"
   style="fill:url(#linearGradient131)" />
						</g>
					</g>
				</g>
			</g>
			<g
   id="shape357-197"
   transform="matrix(0.99698285,0.07762215,0.07762215,-0.99698285,55.4865,742.116)">
				<title
   id="title120">Sheet.357</title>
				<path
   d="m 22.87,430.9 0.27,0.23 A 207.397,81.9494 -19.57 0 0 231.4,411.08"
   class="st39"
   id="path120" />
			</g>
			<g
   id="group290-202"
   transform="translate(0,-33.4062)">
				<title
   id="title121">Controller w/Circle</title>
				<g
   id="shape291-203">
					<title
   id="title122">Sheet.291</title>
					<path
   id="ellipse122"
   class="st37"
   style="fill:#f2f2f2;stroke:#595959;stroke-width:3;stroke-linecap:round;stroke-linejoin:round"
   d="M 96.1875,393.40601 A 48.0937,48.0937 0 0 1 48.0938,441.49971 48.0937,48.0937 0 0 1 9.9182129e-5,393.40601 48.0937,48.0937 0 0 1 48.0938,345.31231 a 48.0937,48.0937 0 0 1 48.0937,48.0937 z" />
				</g>
				<g
   id="group292-205"
   transform="translate(11.1797,-7.51789)">
					<title
   id="title123">Controller</title>
					<g
   id="group293-206">
						<title
   id="title124">Sheet.293</title>
						<g
   id="shape294-207"
   transform="translate(0,-45.0363)">
							<title
   id="title125">Sheet.294</title>
							<path
   d="m 70.76,427.5 c -2.32,-3.78 -5.98,-6.37 -10.27,-7.4 -1.25,-0.27 -2.51,-0.43 -3.77,-0.43 -2.44,0 -4.8,0.51 -6.96,1.53 C 46.22,409.48 34.34,402.01 22.03,404.25 8.81,406.69 0,419.39 2.44,432.65 c 0.35,1.89 0.9,3.74 1.69,5.47 0.43,0.98 1.61,1.45 2.6,0.98 0.98,-0.43 1.45,-1.61 0.98,-2.6 -0.63,-1.45 -1.14,-2.98 -1.42,-4.6 -2.04,-11.09 5.35,-21.79 16.44,-23.79 11.1,-2.05 21.8,5.35 23.8,16.44 0.12,0.67 0.55,1.22 1.18,1.45 0.63,0.24 1.34,0.2 1.89,-0.19 2.12,-1.46 4.56,-2.25 7.16,-2.25 0.94,0 1.92,0.12 2.87,0.36 3.26,0.78 6.06,2.79 7.83,5.66 1.77,2.87 2.32,6.26 1.53,9.52 -0.24,1.06 0.39,2.12 1.46,2.36 0.15,0.04 0.31,0.04 0.47,0.04 0.9,0 1.69,-0.63 1.92,-1.53 0.99,-4.29 0.28,-8.7 -2.08,-12.47 z"
   class="st40"
   id="path125"
   style="fill:url(#grad0-210)" />
						</g>
						<g
   id="shape295-211"
   transform="translate(11.6819)">
							<title
   id="title126">Sheet.295</title>
							<path
   d="M 42.68,388.79 H 10.03 C 4.48,388.79 0,393.28 0,398.82 v 32.65 c 0,5.55 4.48,10.03 10.03,10.03 h 32.65 c 5.54,0 10.03,-4.48 10.03,-10.03 v -32.65 c 0,-5.5 -4.49,-10.03 -10.03,-10.03 z m 6.09,42.68 c 0,3.38 -2.75,6.1 -6.09,6.1 H 10.03 c -3.38,0 -6.1,-2.76 -6.1,-6.1 v -32.65 c 0,-3.38 2.76,-6.09 6.1,-6.09 h 32.65 c 3.38,0 6.09,2.75 6.09,6.09 z"
   class="st41"
   id="path126"
   style="fill:url(#grad0-214)" />
						</g>
						<g
   id="shape296-215"
   transform="translate(21.3972,-11.3672)">
							<title
   id="title127">Sheet.296</title>
							<path
   d="M 31.27,432.69 H 19.94 c -0.31,-1.06 -0.9,-2.05 -1.73,-2.87 -1.3,-1.3 -2.99,-2.01 -4.84,-2.01 -3.1,0 -5.7,2.05 -6.57,4.88 H 1.97 c -1.1,0 -1.97,0.86 -1.97,1.97 0,1.1 0.87,1.96 1.97,1.96 H 6.8 c 0.87,2.83 3.47,4.88 6.57,4.88 3.11,0 5.71,-2.05 6.57,-4.88 h 11.33 c 1.1,0 1.97,-0.86 1.97,-1.96 0,-1.11 -0.87,-1.97 -1.97,-1.97 z m -17.86,4.88 c -1.61,0 -2.91,-1.3 -2.91,-2.91 0,-1.62 1.3,-2.91 2.91,-2.91 0.79,0 1.5,0.31 2.05,0.86 0.55,0.55 0.86,1.3 0.86,2.05 0,1.61 -1.33,2.91 -2.91,2.91 z"
   class="st42"
   id="path127"
   style="fill:url(#grad0-218)" />
						</g>
						<g
   id="shape297-219"
   transform="translate(21.4365,-27.6511)">
							<title
   id="title128">Sheet.297</title>
							<path
   d="m 26.35,427.81 c -3.1,0 -5.7,2.05 -6.57,4.88 H 1.97 c -1.1,0 -1.97,0.86 -1.97,1.97 0,1.1 0.87,1.96 1.97,1.96 h 17.81 c 0.87,2.83 3.47,4.88 6.57,4.88 3.78,0 6.85,-3.07 6.85,-6.84 0,-3.78 -3.07,-6.85 -6.85,-6.85 z m 0,9.76 c -1.61,0 -2.91,-1.3 -2.91,-2.91 0,-1.62 1.3,-2.91 2.91,-2.91 1.62,0 2.91,1.29 2.91,2.91 0,1.61 -1.29,2.91 -2.91,2.91 z"
   class="st43"
   id="path128"
   style="fill:url(#grad0-222)" />
						</g>
					</g>
				</g>
			</g>
		</g><g
   id="shape356-223"
   transform="translate(603,-313.055)">
			<title
   id="title129">Sheet.356</title>
			<desc
   id="desc129">Controller</desc>
			<path
   id="rect129"
   class="st44"
   style="fill:#ffffff;stroke:#595959;stroke-linecap:round;stroke-linejoin:round"
   d="m 0,417.05499 h 101.25 v 24.4451 H 0 Z" />
			<path
   d="m 12.015195,424.91339 q -0.782226,0 -1.388672,0.30762 -0.597656,0.29883 -1.0107417,0.87012 -0.4042969,0.57128 -0.6152344,1.37988 -0.2109375,0.80859 -0.2109375,1.81933 0,1.36231 0.3339844,2.32911 0.3427734,0.958 1.0546872,1.46777 0.711914,0.50098 1.836914,0.50098 0.782227,0 1.564453,-0.17579 0.791016,-0.17578 1.713868,-0.50097 v 2.28515 q -0.852539,0.35157 -1.678711,0.50098 -0.826172,0.1582 -1.854492,0.1582 -1.9863286,0 -3.2695317,-0.81738 -1.2744141,-0.82617 -1.8896484,-2.30273 -0.6152344,-1.48535 -0.6152344,-3.46289 0,-1.45899 0.3955078,-2.67188 0.3955078,-1.21289 1.1601563,-2.10058 0.7646484,-0.8877 1.8896484,-1.3711 1.125,-0.4834 2.583984,-0.4834 0.958008,0 1.916016,0.2461 0.966797,0.2373 1.845703,0.65918 l -0.878906,2.21484 q -0.720703,-0.34277 -1.450195,-0.59766 -0.729493,-0.25488 -1.432618,-0.25488 z m 14.730469,5.83594 q 0,1.23047 -0.333984,2.17969 -0.325196,0.94921 -0.958008,1.60839 -0.624024,0.6504 -1.511719,0.98438 -0.878906,0.33398 -1.986328,0.33398 -1.037109,0 -1.907227,-0.33398 -0.861328,-0.33398 -1.502929,-0.98438 -0.632813,-0.65918 -0.984375,-1.60839 -0.342774,-0.94922 -0.342774,-2.17969 0,-1.63477 0.580078,-2.76856 0.580079,-1.13379 1.652344,-1.72265 1.072266,-0.58887 2.557617,-0.58887 1.379883,0 2.44336,0.58887 1.072265,0.58886 1.678711,1.72265 0.615234,1.13379 0.615234,2.76856 z m -6.793945,0 q 0,0.9668 0.210937,1.62598 0.210938,0.65917 0.65918,0.99316 0.448242,0.33398 1.168945,0.33398 0.711914,0 1.151367,-0.33398 0.448243,-0.33399 0.650391,-0.99316 0.210938,-0.65918 0.210938,-1.62598 0,-0.97559 -0.210938,-1.61719 -0.202148,-0.65039 -0.650391,-0.97558 -0.448242,-0.3252 -1.168945,-0.3252 -1.063476,0 -1.546875,0.72949 -0.474609,0.72949 -0.474609,2.18848 z m 14.589844,-5.08008 q 1.573242,0 2.53125,0.86133 0.958007,0.85254 0.958007,2.74219 v 6.40722 h -2.680664 v -5.73926 q 0,-1.05468 -0.386718,-1.59082 -0.37793,-0.53613 -1.195313,-0.53613 -1.230469,0 -1.678711,0.83496 -0.448242,0.83496 -0.448242,2.40821 v 4.62304 h -2.680664 v -9.82617 h 2.047851 l 0.360352,1.25684 h 0.149414 q 0.316406,-0.50977 0.782227,-0.82618 0.474609,-0.3164 1.045898,-0.46582 0.580078,-0.14941 1.195313,-0.14941 z m 10.388671,8.05078 q 0.439454,0 0.852539,-0.0879 0.421875,-0.0879 0.834961,-0.21973 v 1.99512 q -0.430664,0.19336 -1.072265,0.31641 -0.632813,0.13183 -1.388672,0.13183 -0.878906,0 -1.582031,-0.28125 -0.694336,-0.29004 -1.098633,-0.99316 -0.395508,-0.71191 -0.395508,-1.97754 v -4.7373 h -1.283203 v -1.13379 l 1.476562,-0.89649 0.773438,-2.07422 h 1.713867 v 2.0918 h 2.750977 v 2.0127 h -2.750977 v 4.7373 q 0,0.5625 0.316406,0.84375 0.325196,0.27246 0.852539,0.27246 z m 9.158204,-8.05078 q 0.202148,0 0.46582,0.0264 0.272461,0.0176 0.439453,0.0527 l -0.202148,2.51367 q -0.131836,-0.0439 -0.37793,-0.0615 -0.237305,-0.0264 -0.413086,-0.0264 -0.518555,0 -1.010742,0.13184 -0.483399,0.13184 -0.870117,0.43066 -0.386719,0.29004 -0.615235,0.77344 -0.219726,0.47461 -0.219726,1.16895 v 5.00097 h -2.680664 v -9.82617 h 2.030273 l 0.395508,1.65234 h 0.131836 q 0.290039,-0.50097 0.720703,-0.91406 0.439453,-0.42187 0.993164,-0.66797 0.5625,-0.25488 1.212891,-0.25488 z m 11.61914,5.08008 q 0,1.23047 -0.333984,2.17969 -0.325196,0.94921 -0.958008,1.60839 -0.624023,0.6504 -1.511719,0.98438 -0.878906,0.33398 -1.986328,0.33398 -1.037109,0 -1.907226,-0.33398 -0.861329,-0.33398 -1.50293,-0.98438 -0.632813,-0.65918 -0.984375,-1.60839 -0.342774,-0.94922 -0.342774,-2.17969 0,-1.63477 0.580079,-2.76856 0.580078,-1.13379 1.652343,-1.72265 1.072266,-0.58887 2.557617,-0.58887 1.379883,0 2.44336,0.58887 1.072265,0.58886 1.678711,1.72265 0.615234,1.13379 0.615234,2.76856 z m -6.793945,0 q 0,0.9668 0.210937,1.62598 0.210938,0.65917 0.65918,0.99316 0.448242,0.33398 1.168945,0.33398 0.711914,0 1.151368,-0.33398 0.448242,-0.33399 0.65039,-0.99316 0.210938,-0.65918 0.210938,-1.62598 0,-0.97559 -0.210938,-1.61719 -0.202148,-0.65039 -0.65039,-0.97558 -0.448243,-0.3252 -1.168946,-0.3252 -1.063476,0 -1.546875,0.72949 -0.474609,0.72949 -0.474609,2.18848 z m 11.689453,4.93066 h -2.680664 v -13.67578 h 2.680664 z m 5.493164,0 h -2.680664 v -13.67578 h 2.680664 z m 6.864258,-10.01074 q 1.362305,0 2.34668,0.52734 0.984375,0.51856 1.520507,1.51172 0.536133,0.99317 0.536133,2.42578 v 1.30079 h -6.336914 q 0.04394,1.13378 0.676758,1.78418 0.641601,0.6416 1.775391,0.6416 0.940429,0 1.722656,-0.19336 0.782226,-0.19336 1.608398,-0.58008 v 2.07422 q -0.729492,0.36035 -1.529297,0.52734 -0.791015,0.16699 -1.924804,0.16699 -1.476563,0 -2.619141,-0.54492 -1.133789,-0.54492 -1.78418,-1.66113 -0.641601,-1.11621 -0.641601,-2.8125 0,-1.72266 0.580078,-2.86524 0.588867,-1.15136 1.634766,-1.72265 1.045898,-0.58008 2.43457,-0.58008 z m 0.01758,1.90723 q -0.782227,0 -1.300781,0.50097 -0.509766,0.50098 -0.588867,1.57325 h 3.761718 q -0.0088,-0.59766 -0.219726,-1.06348 -0.202149,-0.46582 -0.615235,-0.73828 -0.404297,-0.27246 -1.037109,-0.27246 z m 12.049805,-1.90723 q 0.202148,0 0.46582,0.0264 0.272461,0.0176 0.439453,0.0527 l -0.202148,2.51367 q -0.131836,-0.0439 -0.37793,-0.0615 -0.237305,-0.0264 -0.413086,-0.0264 -0.518555,0 -1.010742,0.13184 -0.483399,0.13184 -0.870117,0.43066 -0.386719,0.29004 -0.615235,0.77344 -0.219726,0.47461 -0.219726,1.16895 v 5.00097 h -2.680664 v -9.82617 h 2.030273 l 0.395508,1.65234 h 0.131836 q 0.290039,-0.50097 0.720703,-0.91406 0.439453,-0.42187 0.993164,-0.66797 0.5625,-0.25488 1.212891,-0.25488 z"
   id="text129"
   class="st45"
   style="font-weight:bold;font-size:27px;font-family:'Open Sans';fill:#595959"
   aria-label="Controller" />		</g>
</svg>
