<?xml version="1.0" encoding="UTF-8" standalone="no"?>
<!DOCTYPE svg PUBLIC "-//W3C//DTD SVG 1.1//EN" "http://www.w3.org/Graphics/SVG/1.1/DTD/svg11.dtd">
<!-- Generated by Microsoft Visio, SVG Export step5.svg appetizer-step5 -->
<svg xmlns="http://www.w3.org/2000/svg" xmlns:xlink="http://www.w3.org/1999/xlink" xmlns:ev="http://www.w3.org/2001/xml-events"
		width="19.4498in" height="6.13194in" viewBox="0 0 1400.39 441.5" xml:space="preserve" color-interpolation-filters="sRGB"
		class="st50">
	<style type="text/css">
	<![CDATA[
		.st1 {fill:#f2f2f2;stroke:#595959;stroke-linecap:round;stroke-linejoin:round;stroke-width:0.5}
		.st2 {visibility:visible}
		.st3 {fill:#7f7f7f;fill-opacity:0.4;filter:url(#filter_5.3333334922791);stroke:#7f7f7f;stroke-linecap:round;stroke-linejoin:round;stroke-opacity:0.4}
		.st4 {fill:#f2f2f2;stroke:#7f7f7f;stroke-linecap:round;stroke-linejoin:round;stroke-width:1.75}
		.st5 {fill:#d9d9d9;stroke:#7f7f7f;stroke-linecap:round;stroke-linejoin:round;stroke-width:1.75}
		.st6 {fill:#a5a5a5;font-family:Open Sans;font-size:3em;font-weight:bold}
		.st7 {stroke:#a5a5a5;stroke-linecap:round;stroke-linejoin:round;stroke-width:12}
		.st8 {fill:#f2f2f2;stroke:#bfbfbf;stroke-linecap:round;stroke-linejoin:round;stroke-width:3}
		.st9 {fill:#bfbfbf;stroke:none;stroke-linecap:butt;stroke-width:2.04}
		.st10 {fill:#ffffff;marker-end:url(#mrkr42-44);stroke:#a5a5a5;stroke-linecap:round;stroke-linejoin:round;stroke-width:5}
		.st11 {fill:#a5a5a5;fill-opacity:1;stroke:#a5a5a5;stroke-opacity:1;stroke-width:0.66489361702128}
		.st12 {fill:#ffffff;stroke:#bfbfbf;stroke-linecap:round;stroke-linejoin:round;stroke-width:0.75}
		.st13 {fill:none;stroke:none;stroke-linecap:round;stroke-linejoin:round;stroke-width:1.75}
		.st14 {fill:#595959;font-family:Open Sans;font-size:3em;font-weight:bold}
		.st15 {fill:#ffe0b3;stroke:#e68a00;stroke-linecap:round;stroke-linejoin:round;stroke-width:2}
		.st16 {fill:#a86a33;font-family:Russo One;font-size:1.99999em}
		.st17 {fill:#ddecff;stroke:#3f3f3f;stroke-linecap:round;stroke-linejoin:round;stroke-width:2}
		.st18 {fill:#595959;font-family:Russo One;font-size:3em}
		.st19 {font-size:1em}
		.st20 {fill:#ffe1ea;stroke:#595959;stroke-linecap:round;stroke-linejoin:round;stroke-width:3.25}
		.st21 {fill:none;stroke:none;stroke-linecap:round;stroke-linejoin:round;stroke-width:0.5}
		.st22 {fill:#595959;font-family:Russo One;font-size:1.99999em}
		.st23 {fill:#0273fb;stroke:none;stroke-linecap:butt;stroke-width:1.50369}
		.st24 {fill:none;stroke:#158aff;stroke-linecap:butt;stroke-width:3.38029}
		.st25 {fill:#6140b5;fill-opacity:0.98;stroke:none;stroke-linecap:butt;stroke-width:1.50369}
		.st26 {fill:none;stroke:#664dc4;stroke-linecap:butt;stroke-opacity:0.98;stroke-width:3.38029}
		.st27 {fill:#ff0d49;fill-opacity:0.98;stroke:none;stroke-linecap:butt;stroke-width:1.50369}
		.st28 {fill:none;stroke:#fc2d81;stroke-linecap:butt;stroke-opacity:0.98;stroke-width:3.38029}
		.st29 {fill:#ffffff;stroke:none;stroke-linecap:butt;stroke-width:1.50369}
		.st30 {fill:#ddecff;stroke:#0068f9;stroke-dasharray:6,6;stroke-linecap:round;stroke-linejoin:round;stroke-width:2}
		.st31 {stroke:#595959;stroke-linecap:round;stroke-linejoin:round;stroke-width:12}
		.st32 {fill:#ffffff;stroke:#595959;stroke-linecap:round;stroke-linejoin:round;stroke-width:3.25}
		.st33 {fill:#ffffff;stroke:#a5a5a5;stroke-linecap:round;stroke-linejoin:round;stroke-width:2}
		.st34 {fill:#bfbfbf;font-family:Russo One;font-size:3em}
		.st35 {fill:#f2f2f2;stroke:#a5a5a5;stroke-linecap:butt;stroke-width:1.50369}
		.st36 {fill:#f2f2f2;stroke:#a5a5a5;stroke-linecap:butt;stroke-width:3.38029}
		.st37 {fill:#ffc6d6;stroke:#595959;stroke-dasharray:6,6;stroke-linecap:round;stroke-linejoin:round;stroke-width:2}
		.st38 {fill:#ffffff;marker-end:url(#mrkr42-218);stroke:#fc0147;stroke-linecap:round;stroke-linejoin:round;stroke-width:5}
		.st39 {fill:#fc0147;fill-opacity:1;stroke:#fc0147;stroke-opacity:1;stroke-width:0.66489361702128}
		.st40 {fill:#ffffff;marker-end:url(#mrkr42-222);stroke:#595959;stroke-linecap:round;stroke-linejoin:round;stroke-width:5}
		.st41 {fill:#595959;fill-opacity:1;stroke:#595959;stroke-opacity:1;stroke-width:0.66489361702128}
		.st42 {fill:#f2f2f2;stroke:#595959;stroke-linecap:round;stroke-linejoin:round;stroke-width:3}
		.st43 {fill:url(#grad0-233);stroke:none;stroke-linecap:butt;stroke-width:2.04}
		.st44 {fill:#f2f2f2;fill-opacity:0.86;stroke:none;stroke-linecap:round;stroke-linejoin:round;stroke-width:1.75}
		.st45 {fill:#ffe1ea;stroke:#fc2d81;stroke-linecap:round;stroke-linejoin:round;stroke-width:2}
		.st46 {fill:none;stroke:none;stroke-linecap:round;stroke-linejoin:round;stroke-width:2}
		.st47 {fill:#595959;font-family:Russo One;font-size:1.5em}
		.st48 {fill:#ffffff;marker-end:url(#mrkr42-267);stroke:#fc2d81;stroke-linecap:round;stroke-linejoin:round;stroke-width:5}
		.st49 {fill:#fc2d81;fill-opacity:1;stroke:#fc2d81;stroke-opacity:1;stroke-width:0.66489361702128}
		.st50 {fill:none;fill-rule:evenodd;font-size:12px;overflow:visible;stroke-linecap:square;stroke-miterlimit:3}
	]]>
	</style>

	<defs id="Patterns_And_Gradients">
		<linearGradient id="grad0-233" x1="0" y1="0" x2="1" y2="0" gradientTransform="rotate(50 0.5 0.5)">
			<stop offset="0.23" stop-color="#fc0147" stop-opacity="1"/>
			<stop offset="0.86" stop-color="#0068f9" stop-opacity="1"/>
		</linearGradient>
	</defs>
	<defs id="Markers">
		<g id="lend42">
			<path
					d="M 0 0.75 C -0.414214 0.75 -0.75 0.414214 -0.75 0 -0.75 -0.414214 -0.414214 -0.75 0 -0.75 0.414214 -0.75 0.75 -0.414214 0.75 0 0.75 0.414214 0.414214 0.75 0 0.75 Z "
					style="stroke:none"/>
		</g>
		<marker id="mrkr42-44" class="st11" refX="-1.128" orient="auto" markerUnits="strokeWidth" overflow="visible">
			<use xlink:href="#lend42" transform="scale(-1.504,-1.504) "/>
		</marker>
		<marker id="mrkr42-218" class="st39" refX="-1.128" orient="auto" markerUnits="strokeWidth" overflow="visible">
			<use xlink:href="#lend42" transform="scale(-1.504,-1.504) "/>
		</marker>
		<marker id="mrkr42-222" class="st41" refX="-1.128" orient="auto" markerUnits="strokeWidth" overflow="visible">
			<use xlink:href="#lend42" transform="scale(-1.504,-1.504) "/>
		</marker>
		<marker id="mrkr42-267" class="st49" refX="-1.128" orient="auto" markerUnits="strokeWidth" overflow="visible">
			<use xlink:href="#lend42" transform="scale(-1.504,-1.504) "/>
		</marker>
	</defs>
	<defs id="Filters">
		<filter id="filter_5.3333334922791">
			<feGaussianBlur stdDeviation="5.3333334922791"/>
		</filter>
	</defs>
	<g>
		<title>appetizer-step5</title>
		<g id="shape2873-1" transform="translate(0.25,-0.25)">
			<title>Rounded Rectangle.245</title>
			<path d="M0 441.5 L1399.89 441.5 L1399.89 0.5 L0 0.5 L0 441.5 Z" class="st1"/>
		</g>
		<g id="group3552-3" transform="translate(265.136,-21.8697)">
			<title>Sheet.3552</title>
			<g id="shape3553-4" transform="translate(0,-40.2575)">
				<title>Sheet.3553</title>
				<g id="shadow3553-5" transform="matrix(1.06,0,0,1.06,-22.2892,-15.7632)" class="st2">
					<path d="M217.83 192.26 C209.52 189.92 200.75 188.51 191.53 188.51 C141.18 188.51 99.59 227.2 91.94 277.84 L91.94
								 277.84 L75.53 277.84 L75.53 277.84 C33.95 277.84 0 313.25 0 356.86 L0 356.86 L0 362.49 L0 362.49
								 C-0 406.1 33.95 441.5 75.53 441.5 L75.53 441.5 L667.44 441.5 L667.44 441.5 C709.03 441.5 742.97
								 406.1 742.97 362.49 L742.97 362.49 L742.97 356.86 L742.97 356.86 C742.97 313.25 709.03 277.84 667.44
								 277.84 L667.44 277.84 L664.52 277.84 L664.52 277.84 C651.48 230.95 610.34 196.48 561.33 196.48 C539.98
								 196.48 520.19 203.28 503.56 214.54 C492.54 140.68 431.85 83.94 358.34 83.94 C292.24 83.94 236.49
								 129.43 217.83 192.26 Z" class="st3"/>
				</g>
				<path d="M217.83 192.26 C209.52 189.92 200.75 188.51 191.53 188.51 C141.18 188.51 99.59 227.2 91.94 277.84 L91.94
							 277.84 L75.53 277.84 L75.53 277.84 C33.95 277.84 0 313.25 0 356.86 L0 356.86 L0 362.49 L0 362.49 C-0
							 406.1 33.95 441.5 75.53 441.5 L75.53 441.5 L667.44 441.5 L667.44 441.5 C709.03 441.5 742.97 406.1 742.97
							 362.49 L742.97 362.49 L742.97 356.86 L742.97 356.86 C742.97 313.25 709.03 277.84 667.44 277.84 L667.44
							 277.84 L664.52 277.84 L664.52 277.84 C651.48 230.95 610.34 196.48 561.33 196.48 C539.98 196.48 520.19
							 203.28 503.56 214.54 C492.54 140.68 431.85 83.94 358.34 83.94 C292.24 83.94 236.49 129.43 217.83 192.26
							 Z" class="st4"/>
			</g>
			<g id="shape3554-9" transform="translate(70.3153,-62.3901)">
				<title>Sheet.3554</title>
				<desc>OpenZiti Overlay</desc>
				<path d="M174.89 241.4 C168.21 239.52 161.17 238.39 153.77 238.39 C113.34 238.39 79.95 269.45 73.82 310.11 L73.82
							 310.11 L60.64 310.11 L60.64 310.11 C27.25 310.11 0 338.53 0 373.55 L0 373.55 L0 378.06 L0 378.06 C-0
							 413.08 27.25 441.5 60.64 441.5 L60.64 441.5 L535.85 441.5 L535.85 441.5 C569.23 441.5 596.49 413.08
							 596.49 378.06 L596.49 378.06 L596.49 373.55 L596.49 373.55 C596.49 338.53 569.23 310.11 535.85 310.11
							 L535.85 310.11 L533.5 310.11 L533.5 310.11 C523.03 272.46 490 244.79 450.66 244.79 C433.51 244.79 417.63
							 250.25 404.28 259.29 C395.43 199.99 346.7 154.44 287.69 154.44 C234.62 154.44 189.86 190.96 174.89 241.4
							 Z" class="st5"/>
				<text x="134.85" y="426.7" class="st6">OpenZiti Overlay</text>			</g>
			<g id="shape3555-12" transform="translate(486.965,-143.953)">
				<title>Dynamic connector.3286</title>
				<path d="M0 432.5 L-253.41 432.5" class="st7"/>
			</g>
			<g id="shape3556-15" transform="translate(303.727,-216.702)">
				<title>Dynamic connector.3292</title>
				<path d="M0 441.5 L-80.15 467.75" class="st7"/>
			</g>
			<g id="shape3557-18" transform="translate(498.61,-190.942)">
				<title>Dynamic connector.3295</title>
				<path d="M0 441.5 L-83.2 415.1" class="st7"/>
			</g>
			<g id="group3558-21" transform="translate(486.965,-110.203)">
				<title>Sheet.3558</title>
				<g id="group3559-22" transform="translate(9,5.68434E-14)">
					<title>Sheet.3559</title>
					<g id="shape3560-23">
						<title>Sheet.3560</title>
						<ellipse cx="48.0938" cy="393.406" rx="48.0937" ry="48.0937" class="st8"/>
					</g>
					<g id="group3561-25" transform="translate(12.0937,-12.9375)">
						<title>Router Colored</title>
						<g id="group3562-26" transform="translate(38.5398,-28.4211)">
							<title>Sheet.3562</title>
							<g id="shape3563-27">
								<title>Sheet.3563</title>
							</g>
						</g>
						<g id="group3564-28">
							<title>Sheet.3564</title>
							<g id="shape3565-29" transform="translate(26.4054,-24.3494)">
								<title>Sheet.3565</title>
								<path d="M20.64 432.39 C21.12 430.94 21.12 429.53 21.12 427.11 L21.12 424.25 C21.12 421.83 21.12
											 420.42 19.67 418.96 C18.22 418 16.81 417.51 14.39 417.51 L0 417.51 L0 441.5 L6.73 441.5
											 L6.73 434.28 L11.53 434.28 L15.36 441.5 L21.61 441.5 L17.29 434.28 C18.71 433.8 19.67
											 433.8 20.64 432.39 ZM15.36 426.14 C15.36 427.59 14.88 429 13.42 429 L6.69 429 L6.69
											 421.79 L12.94 421.79 C14.39 421.79 15.36 422.75 15.36 424.21 L15.36 426.14 Z"
										class="st9"/>
							</g>
							<g id="shape3566-31" transform="translate(11.2072,-11.0862)">
								<title>Sheet.3566</title>
								<path d="M49.59 416.71 C49.59 403.04 38.46 391.91 24.79 391.91 C11.13 391.91 0 403.04 0 416.71 C0
											 430.37 11.13 441.5 24.79 441.5 C38.46 441.5 49.59 430.37 49.59 416.71 ZM24.79 437.99
											 C13.06 437.99 3.51 428.44 3.51 416.71 C3.51 404.98 13.06 395.42 24.79 395.42 C36.52
											 395.42 46.08 404.98 46.08 416.71 C46.08 428.44 36.52 437.99 24.79 437.99 Z"
										class="st9"/>
							</g>
							<g id="shape3567-33" transform="translate(36.6047,-36.5644)">
								<title>Sheet.3567</title>
								<path d="M1.69 414.17 C15.24 415.05 26.53 426.38 27.41 439.89 C27.49 440.81 28.26 441.5 29.15 441.5
											 C29.19 441.5 29.23 441.5 29.27 441.5 C30.24 441.42 30.96 440.61 30.88 439.65 C30.15
											 428.72 23.42 419.09 14.07 414.13 L24.95 414.13 L23.62 415.46 C22.94 416.14 22.94 417.23
											 23.62 417.92 C23.95 418.24 24.43 418.44 24.87 418.44 C25.32 418.44 25.76 418.28 26.12
											 417.92 L30.44 413.6 C31.12 412.92 31.12 411.83 30.44 411.14 L26.12 406.83 C25.44 406.15
											 24.35 406.15 23.66 406.83 C22.98 407.52 22.98 408.6 23.66 409.29 L24.99 410.62 L1.81
											 410.62 C0.89 410.62 0.08 411.39 0.08 412.31 C0 413.32 0.73 414.09 1.69 414.17 Z"
										class="st9"/>
							</g>
							<g id="shape3568-35" transform="translate(0,-36.5644)">
								<title>Sheet.3568</title>
								<path d="M4.47 439.77 C4.47 440.69 5.24 441.5 6.17 441.5 L6.21 441.5 C7.14 441.5 7.9 440.77 7.94
											 439.89 C8.83 426.34 20.16 415.05 33.66 414.17 C34.63 414.09 35.35 413.28 35.27 412.31
											 C35.19 411.35 34.39 410.62 33.42 410.7 C22.49 411.43 12.86 418.16 7.9 427.51 L7.9 416.63
											 L9.23 417.96 C9.55 418.28 10.04 418.48 10.48 418.48 C10.92 418.48 11.37 418.32 11.73
											 417.96 C12.42 417.27 12.42 416.18 11.73 415.5 L7.46 411.18 C6.77 410.5 5.68 410.5 5
											 411.18 L0.69 415.5 C0 416.18 0 417.27 0.69 417.96 C1.37 418.64 2.46 418.64 3.14 417.96
											 L4.47 416.63 L4.47 439.77 Z" class="st9"/>
							</g>
							<g id="shape3569-37" transform="translate(4.31355,5.68434E-14)">
								<title>Sheet.3569</title>
								<path d="M29.39 433.64 C15.84 432.75 4.56 421.42 3.67 407.92 C3.59 406.95 2.78 406.23 1.81 406.31
											 C0.85 406.39 0.12 407.19 0.2 408.16 C0.93 419.09 7.66 428.72 17.01 433.68 L6.13 433.68
											 L7.46 432.35 C8.14 431.66 8.14 430.58 7.46 429.89 C6.77 429.2 5.68 429.2 5 429.89 L0.69
											 434.2 C0 434.89 0 435.98 0.69 436.66 L5 440.98 C5.32 441.3 5.81 441.5 6.25 441.5 C6.69
											 441.5 7.14 441.34 7.5 440.98 C8.18 440.29 8.18 439.2 7.5 438.52 L6.17 437.19 L29.27
											 437.19 C30.19 437.19 31 436.42 31 435.49 C31.08 434.49 30.36 433.72 29.39 433.64 Z"
										class="st9"/>
							</g>
							<g id="shape3570-39" transform="translate(36.645,-4.35386)">
								<title>Sheet.3570</title>
								<path d="M34.67 434.2 C33.98 433.52 32.9 433.52 32.21 434.2 L30.88 435.53 L30.88 412.39 C30.88 411.47
											 30.11 410.66 29.19 410.66 L29.15 410.66 C28.22 410.66 27.45 411.39 27.41 412.27 C26.53
											 425.82 15.2 437.11 1.69 437.99 C0.73 438.07 0 438.88 0.08 439.85 C0.16 440.77 0.93 441.46
											 1.81 441.46 C1.85 441.46 1.89 441.46 1.94 441.46 C12.86 440.73 22.49 434 27.45 424.65
											 L27.45 435.53 L26.12 434.2 C25.44 433.52 24.35 433.52 23.66 434.2 C22.98 434.89 22.98
											 435.98 23.66 436.66 L27.98 440.98 C28.3 441.3 28.78 441.5 29.23 441.5 C29.67 441.5 30.11
											 441.34 30.48 440.98 L34.79 436.66 C35.35 435.98 35.35 434.85 34.67 434.2 Z"
										class="st9"/>
							</g>
						</g>
					</g>
				</g>
				<g id="shape3571-41" transform="translate(0,-34.3125)">
					<title>Sheet.3571</title>
					<ellipse cx="8.4375" cy="433.063" rx="8.4375" ry="8.4375" class="st10"/>
				</g>
				<g id="shape3572-45" transform="translate(11.25,-69.75)">
					<title>Sheet.3572</title>
					<ellipse cx="8.4375" cy="433.063" rx="8.4375" ry="8.4375" class="st10"/>
				</g>
			</g>
			<g id="group3573-48" transform="translate(303.308,-170.39)">
				<title>Sheet.3573</title>
				<g id="group3574-49" transform="translate(8.15627,5.68434E-14)">
					<title>Sheet.3574</title>
					<g id="shape3575-50">
						<title>Sheet.3575</title>
						<ellipse cx="48.0938" cy="393.406" rx="48.0937" ry="48.0937" class="st8"/>
					</g>
					<g id="group3576-52" transform="translate(12.0937,-12.9375)">
						<title>Router Colored</title>
						<g id="group3577-53" transform="translate(38.5398,-28.4211)">
							<title>Sheet.3577</title>
							<g id="shape3578-54">
								<title>Sheet.3578</title>
							</g>
						</g>
						<g id="group3579-55">
							<title>Sheet.3579</title>
							<g id="shape3580-56" transform="translate(26.4054,-24.3494)">
								<title>Sheet.3580</title>
								<path d="M20.64 432.39 C21.12 430.94 21.12 429.53 21.12 427.11 L21.12 424.25 C21.12 421.83 21.12
											 420.42 19.67 418.96 C18.22 418 16.81 417.51 14.39 417.51 L0 417.51 L0 441.5 L6.73 441.5
											 L6.73 434.28 L11.53 434.28 L15.36 441.5 L21.61 441.5 L17.29 434.28 C18.71 433.8 19.67
											 433.8 20.64 432.39 ZM15.36 426.14 C15.36 427.59 14.88 429 13.42 429 L6.69 429 L6.69
											 421.79 L12.94 421.79 C14.39 421.79 15.36 422.75 15.36 424.21 L15.36 426.14 Z"
										class="st9"/>
							</g>
							<g id="shape3581-58" transform="translate(11.2072,-11.0862)">
								<title>Sheet.3581</title>
								<path d="M49.59 416.71 C49.59 403.04 38.46 391.91 24.79 391.91 C11.13 391.91 0 403.04 0 416.71 C0
											 430.37 11.13 441.5 24.79 441.5 C38.46 441.5 49.59 430.37 49.59 416.71 ZM24.79 437.99
											 C13.06 437.99 3.51 428.44 3.51 416.71 C3.51 404.98 13.06 395.42 24.79 395.42 C36.52
											 395.42 46.08 404.98 46.08 416.71 C46.08 428.44 36.52 437.99 24.79 437.99 Z"
										class="st9"/>
							</g>
							<g id="shape3582-60" transform="translate(36.6047,-36.5644)">
								<title>Sheet.3582</title>
								<path d="M1.69 414.17 C15.24 415.05 26.53 426.38 27.41 439.89 C27.49 440.81 28.26 441.5 29.15 441.5
											 C29.19 441.5 29.23 441.5 29.27 441.5 C30.24 441.42 30.96 440.61 30.88 439.65 C30.15
											 428.72 23.42 419.09 14.07 414.13 L24.95 414.13 L23.62 415.46 C22.94 416.14 22.94 417.23
											 23.62 417.92 C23.95 418.24 24.43 418.44 24.87 418.44 C25.32 418.44 25.76 418.28 26.12
											 417.92 L30.44 413.6 C31.12 412.92 31.12 411.83 30.44 411.14 L26.12 406.83 C25.44 406.15
											 24.35 406.15 23.66 406.83 C22.98 407.52 22.98 408.6 23.66 409.29 L24.99 410.62 L1.81
											 410.62 C0.89 410.62 0.08 411.39 0.08 412.31 C0 413.32 0.73 414.09 1.69 414.17 Z"
										class="st9"/>
							</g>
							<g id="shape3583-62" transform="translate(0,-36.5644)">
								<title>Sheet.3583</title>
								<path d="M4.47 439.77 C4.47 440.69 5.24 441.5 6.17 441.5 L6.21 441.5 C7.14 441.5 7.9 440.77 7.94
											 439.89 C8.83 426.34 20.16 415.05 33.66 414.17 C34.63 414.09 35.35 413.28 35.27 412.31
											 C35.19 411.35 34.39 410.62 33.42 410.7 C22.49 411.43 12.86 418.16 7.9 427.51 L7.9 416.63
											 L9.23 417.96 C9.55 418.28 10.04 418.48 10.48 418.48 C10.92 418.48 11.37 418.32 11.73
											 417.96 C12.42 417.27 12.42 416.18 11.73 415.5 L7.46 411.18 C6.77 410.5 5.68 410.5 5
											 411.18 L0.69 415.5 C0 416.18 0 417.27 0.69 417.96 C1.37 418.64 2.46 418.64 3.14 417.96
											 L4.47 416.63 L4.47 439.77 Z" class="st9"/>
							</g>
							<g id="shape3584-64" transform="translate(4.31355,5.68434E-14)">
								<title>Sheet.3584</title>
								<path d="M29.39 433.64 C15.84 432.75 4.56 421.42 3.67 407.92 C3.59 406.95 2.78 406.23 1.81 406.31
											 C0.85 406.39 0.12 407.19 0.2 408.16 C0.93 419.09 7.66 428.72 17.01 433.68 L6.13 433.68
											 L7.46 432.35 C8.14 431.66 8.14 430.58 7.46 429.89 C6.77 429.2 5.68 429.2 5 429.89 L0.69
											 434.2 C0 434.89 0 435.98 0.69 436.66 L5 440.98 C5.32 441.3 5.81 441.5 6.25 441.5 C6.69
											 441.5 7.14 441.34 7.5 440.98 C8.18 440.29 8.18 439.2 7.5 438.52 L6.17 437.19 L29.27
											 437.19 C30.19 437.19 31 436.42 31 435.49 C31.08 434.49 30.36 433.72 29.39 433.64 Z"
										class="st9"/>
							</g>
							<g id="shape3585-66" transform="translate(36.645,-4.35386)">
								<title>Sheet.3585</title>
								<path d="M34.67 434.2 C33.98 433.52 32.9 433.52 32.21 434.2 L30.88 435.53 L30.88 412.39 C30.88 411.47
											 30.11 410.66 29.19 410.66 L29.15 410.66 C28.22 410.66 27.45 411.39 27.41 412.27 C26.53
											 425.82 15.2 437.11 1.69 437.99 C0.73 438.07 0 438.88 0.08 439.85 C0.16 440.77 0.93 441.46
											 1.81 441.46 C1.85 441.46 1.89 441.46 1.94 441.46 C12.86 440.73 22.49 434 27.45 424.65
											 L27.45 435.53 L26.12 434.2 C25.44 433.52 24.35 433.52 23.66 434.2 C22.98 434.89 22.98
											 435.98 23.66 436.66 L27.98 440.98 C28.3 441.3 28.78 441.5 29.23 441.5 C29.67 441.5 30.11
											 441.34 30.48 440.98 L34.79 436.66 C35.35 435.98 35.35 434.85 34.67 434.2 Z"
										class="st9"/>
							</g>
						</g>
					</g>
				</g>
				<g id="shape3586-68" transform="translate(0,-40.5)">
					<title>Sheet.3586</title>
					<ellipse cx="8.4375" cy="433.063" rx="8.4375" ry="8.4375" class="st10"/>
				</g>
				<g id="shape3587-71" transform="translate(95.625,-41.0625)">
					<title>Sheet.3587</title>
					<ellipse cx="8.4375" cy="433.063" rx="8.4375" ry="8.4375" class="st10"/>
				</g>
			</g>
			<g id="group3588-74" transform="translate(281.839,5.68434E-14)">
				<title>Sheet.3588</title>
				<g id="shape3589-75" transform="translate(2.11007,-7.57005)">
					<title>Sheet.3589</title>
					<rect x="0" y="401" width="156.375" height="40.5" class="st12"/>
				</g>
				<g id="shape3590-77">
					<title>Sheet.3590</title>
					<desc>Internet</desc>
					<rect x="0" y="383.61" width="158.016" height="57.8901" class="st13"/>
					<text x="4.32" y="426.7" class="st14">Internet</text>				</g>
			</g>
			<g id="group3591-80" transform="translate(117.683,-110.203)">
				<title>Sheet.3591</title>
				<g id="group3592-81" transform="translate(10.6875,5.68434E-14)">
					<title>Sheet.3592</title>
					<g id="shape3593-82">
						<title>Sheet.3593</title>
						<ellipse cx="48.0938" cy="393.406" rx="48.0937" ry="48.0937" class="st8"/>
					</g>
					<g id="group3594-84" transform="translate(12.0937,-12.9375)">
						<title>Router Colored</title>
						<g id="group3595-85" transform="translate(38.5398,-28.4211)">
							<title>Sheet.3595</title>
							<g id="shape3596-86">
								<title>Sheet.3596</title>
							</g>
						</g>
						<g id="group3597-87">
							<title>Sheet.3597</title>
							<g id="shape3598-88" transform="translate(26.4054,-24.3494)">
								<title>Sheet.3598</title>
								<path d="M20.64 432.39 C21.12 430.94 21.12 429.53 21.12 427.11 L21.12 424.25 C21.12 421.83 21.12
											 420.42 19.67 418.96 C18.22 418 16.81 417.51 14.39 417.51 L0 417.51 L0 441.5 L6.73 441.5
											 L6.73 434.28 L11.53 434.28 L15.36 441.5 L21.61 441.5 L17.29 434.28 C18.71 433.8 19.67
											 433.8 20.64 432.39 ZM15.36 426.14 C15.36 427.59 14.88 429 13.42 429 L6.69 429 L6.69
											 421.79 L12.94 421.79 C14.39 421.79 15.36 422.75 15.36 424.21 L15.36 426.14 Z"
										class="st9"/>
							</g>
							<g id="shape3599-90" transform="translate(11.2072,-11.0862)">
								<title>Sheet.3599</title>
								<path d="M49.59 416.71 C49.59 403.04 38.46 391.91 24.79 391.91 C11.13 391.91 0 403.04 0 416.71 C0
											 430.37 11.13 441.5 24.79 441.5 C38.46 441.5 49.59 430.37 49.59 416.71 ZM24.79 437.99
											 C13.06 437.99 3.51 428.44 3.51 416.71 C3.51 404.98 13.06 395.42 24.79 395.42 C36.52
											 395.42 46.08 404.98 46.08 416.71 C46.08 428.44 36.52 437.99 24.79 437.99 Z"
										class="st9"/>
							</g>
							<g id="shape3600-92" transform="translate(36.6047,-36.5644)">
								<title>Sheet.3600</title>
								<path d="M1.69 414.17 C15.24 415.05 26.53 426.38 27.41 439.89 C27.49 440.81 28.26 441.5 29.15 441.5
											 C29.19 441.5 29.23 441.5 29.27 441.5 C30.24 441.42 30.96 440.61 30.88 439.65 C30.15
											 428.72 23.42 419.09 14.07 414.13 L24.95 414.13 L23.62 415.46 C22.94 416.14 22.94 417.23
											 23.62 417.92 C23.95 418.24 24.43 418.44 24.87 418.44 C25.32 418.44 25.76 418.28 26.12
											 417.92 L30.44 413.6 C31.12 412.92 31.12 411.83 30.44 411.14 L26.12 406.83 C25.44 406.15
											 24.35 406.15 23.66 406.83 C22.98 407.52 22.98 408.6 23.66 409.29 L24.99 410.62 L1.81
											 410.62 C0.89 410.62 0.08 411.39 0.08 412.31 C0 413.32 0.73 414.09 1.69 414.17 Z"
										class="st9"/>
							</g>
							<g id="shape3601-94" transform="translate(0,-36.5644)">
								<title>Sheet.3601</title>
								<path d="M4.47 439.77 C4.47 440.69 5.24 441.5 6.17 441.5 L6.21 441.5 C7.14 441.5 7.9 440.77 7.94
											 439.89 C8.83 426.34 20.16 415.05 33.66 414.17 C34.63 414.09 35.35 413.28 35.27 412.31
											 C35.19 411.35 34.39 410.62 33.42 410.7 C22.49 411.43 12.86 418.16 7.9 427.51 L7.9 416.63
											 L9.23 417.96 C9.55 418.28 10.04 418.48 10.48 418.48 C10.92 418.48 11.37 418.32 11.73
											 417.96 C12.42 417.27 12.42 416.18 11.73 415.5 L7.46 411.18 C6.77 410.5 5.68 410.5 5
											 411.18 L0.69 415.5 C0 416.18 0 417.27 0.69 417.96 C1.37 418.64 2.46 418.64 3.14 417.96
											 L4.47 416.63 L4.47 439.77 Z" class="st9"/>
							</g>
							<g id="shape3602-96" transform="translate(4.31355,5.68434E-14)">
								<title>Sheet.3602</title>
								<path d="M29.39 433.64 C15.84 432.75 4.56 421.42 3.67 407.92 C3.59 406.95 2.78 406.23 1.81 406.31
											 C0.85 406.39 0.12 407.19 0.2 408.16 C0.93 419.09 7.66 428.72 17.01 433.68 L6.13 433.68
											 L7.46 432.35 C8.14 431.66 8.14 430.58 7.46 429.89 C6.77 429.2 5.68 429.2 5 429.89 L0.69
											 434.2 C0 434.89 0 435.98 0.69 436.66 L5 440.98 C5.32 441.3 5.81 441.5 6.25 441.5 C6.69
											 441.5 7.14 441.34 7.5 440.98 C8.18 440.29 8.18 439.2 7.5 438.52 L6.17 437.19 L29.27
											 437.19 C30.19 437.19 31 436.42 31 435.49 C31.08 434.49 30.36 433.72 29.39 433.64 Z"
										class="st9"/>
							</g>
							<g id="shape3603-98" transform="translate(36.645,-4.35386)">
								<title>Sheet.3603</title>
								<path d="M34.67 434.2 C33.98 433.52 32.9 433.52 32.21 434.2 L30.88 435.53 L30.88 412.39 C30.88 411.47
											 30.11 410.66 29.19 410.66 L29.15 410.66 C28.22 410.66 27.45 411.39 27.41 412.27 C26.53
											 425.82 15.2 437.11 1.69 437.99 C0.73 438.07 0 438.88 0.08 439.85 C0.16 440.77 0.93 441.46
											 1.81 441.46 C1.85 441.46 1.89 441.46 1.94 441.46 C12.86 440.73 22.49 434 27.45 424.65
											 L27.45 435.53 L26.12 434.2 C25.44 433.52 24.35 433.52 23.66 434.2 C22.98 434.89 22.98
											 435.98 23.66 436.66 L27.98 440.98 C28.3 441.3 28.78 441.5 29.23 441.5 C29.67 441.5 30.11
											 441.34 30.48 440.98 L34.79 436.66 C35.35 435.98 35.35 434.85 34.67 434.2 Z"
										class="st9"/>
							</g>
						</g>
					</g>
				</g>
				<g id="shape3604-100" transform="translate(99,-34.3125)">
					<title>Sheet.3604</title>
					<ellipse cx="8.4375" cy="433.063" rx="8.4375" ry="8.4375" class="st10"/>
				</g>
				<g id="shape3605-103" transform="translate(89.4375,-69.1875)">
					<title>Sheet.3605</title>
					<ellipse cx="8.4375" cy="433.063" rx="8.4375" ry="8.4375" class="st10"/>
				</g>
			</g>
			<g id="shape3606-106" transform="translate(582.871,-144.515)">
				<title>Sheet.3606</title>
				<ellipse cx="8.4375" cy="433.063" rx="8.4375" ry="8.4375" class="st10"/>
			</g>
			<g id="shape3607-109" transform="translate(119.441,-144.63)">
				<title>Sheet.3607</title>
				<ellipse cx="8.4375" cy="433.063" rx="8.4375" ry="8.4375" class="st10"/>
			</g>
		</g>
		<g id="shape3615-112" transform="translate(986.136,-12.7598)">
			<title>Rounded Rectangle.3109</title>
			<desc>Cloud Vendor</desc>
			<path d="M10.58 441.5 L391.36 441.5 A10.5772 10.5772 -180 0 0 401.94 430.92 L401.94 50.34 A10.5772 10.5772 -180 0 0 391.36
						 39.76 L10.58 39.76 A10.5772 10.5772 -180 0 0 0 50.34 L0 430.92 A10.5772 10.5772 -180 0 0 10.58 441.5 Z"
					class="st15"/>
			<text x="9.2" y="432.3" class="st16">Cloud Vendor</text>		</g>
		<g id="shape2875-115" transform="translate(10.2497,-63.5)">
			<title>Rounded Rectangle</title>
			<desc>Your Computer</desc>
			<path d="M16.29 441.5 L252.48 441.5 A16.289 16.289 -180 0 0 268.77 425.21 L268.77 160.79 A16.289 16.289 -180 0 0 252.48
						 144.5 L16.29 144.5 A16.289 16.289 -180 0 0 0 160.79 L0 425.21 A16.289 16.289 -180 0 0 16.29 441.5 Z"
					class="st17"/>
			<text x="91.19" y="180.9" class="st18">Your <tspan x="45.38" dy="1.2em" class="st19">Computer</tspan></text>		</g>
		<g id="group2966-119" transform="translate(28.2497,-90.5)">
			<title>Sheet.2966</title>
			<g id="group2967-120" transform="translate(11.5024,5.68434E-14)">
				<title>Sheet.2967</title>
				<g id="shape2968-121" transform="translate(1.8705E-12,-105.73)">
					<title>Sheet.2968</title>
					<path d="M0 441.5 L187.78 441.5 L187.78 413.58 A7.82399 13.9621 -180 0 0 179.95 399.61 L7.82 399.61 A7.82399
								 13.9621 -180 0 0 0 413.58 L0 441.5 Z" class="st20"/>
				</g>
				<g id="shape2969-123">
					<title>Sheet.2969</title>
					<path d="M0 329.2 L0 434.89 A7.824 6.60565 -180 0 0 7.82 441.5 L179.95 441.5 A7.824 6.60565 -180 0 0 187.78 434.89
								 L187.78 329.2 L0 329.2 Z" class="st20"/>
				</g>
			</g>
			<g id="shape2971-125" transform="translate(0,-112.298)">
				<title>Virtual server.16</title>
				<desc>Reflect Client</desc>
				<rect x="0" y="408.662" width="216.668" height="32.8378" class="st21"/>
				<text x="24.93" y="432.28" class="st22">Reflect Client</text>			</g>
		</g>
		<g id="group3194-128" transform="translate(129.213,-96.2838)">
			<title>SDKs</title>
			<g id="group3195-129">
				<title>CloudKit-Icon</title>
				<g id="group3196-130">
					<title>Bottom</title>
					<g id="shape3197-131">
						<title>Sheet.3197</title>
						<path d="M73.32 418.77 C79.04 414.31 79.04 407.11 73.32 402.65 L49.86 384.4 C44.14 379.94 34.88 379.94 29.16
									 384.4 L5.72 402.65 C0 407.11 0 414.31 5.72 418.77 L29.16 437.04 C34.88 441.5 44.14 441.5 49.86
									 437.04 L73.32 418.77 Z" class="st23"/>
					</g>
					<g id="shape3198-133">
						<title>Sheet.3198</title>
						<path d="M73.32 418.77 C79.04 414.31 79.04 407.11 73.32 402.65 L49.86 384.4 C44.14 379.94 34.88 379.94 29.16
									 384.4 L5.72 402.65 C0 407.11 0 414.31 5.72 418.77 L29.16 437.04 C34.88 441.5 44.14 441.5 49.86
									 437.04 L73.32 418.77 Z" class="st24"/>
					</g>
				</g>
				<g id="group3199-135" transform="translate(0,-12.6993)">
					<title>Middle</title>
					<g id="shape3200-136">
						<title>Sheet.3200</title>
						<path d="M73.32 418.77 C79.04 414.31 79.04 407.11 73.32 402.65 L49.88 384.38 C44.16 379.92 34.9 379.92 29.18
									 384.38 L5.72 402.65 C0 407.11 0 414.31 5.72 418.77 L29.16 437.04 C34.88 441.5 44.14 441.5 49.86
									 437.04 L73.32 418.77 Z" class="st25"/>
					</g>
					<g id="shape3201-138">
						<title>Sheet.3201</title>
						<path d="M73.32 418.77 C79.04 414.31 79.04 407.11 73.32 402.65 L49.88 384.38 C44.16 379.92 34.9 379.92 29.18
									 384.38 L5.72 402.65 C0 407.11 0 414.31 5.72 418.77 L29.16 437.04 C34.88 441.5 44.14 441.5 49.86
									 437.04 L73.32 418.77 Z" class="st26"/>
					</g>
				</g>
				<g id="group3202-140" transform="translate(0,-25.3986)">
					<title>Top</title>
					<g id="shape3203-141">
						<title>Sheet.3203</title>
						<path d="M73.32 418.77 C79.04 414.31 79.04 407.11 73.32 402.65 L49.88 384.38 C44.16 379.92 34.9 379.92 29.18
									 384.38 L5.72 402.65 C0 407.11 0 414.31 5.72 418.77 L29.16 437.04 C34.88 441.5 44.14 441.5 49.86
									 437.04 L73.32 418.77 Z" class="st27"/>
					</g>
					<g id="shape3204-143">
						<title>Sheet.3204</title>
						<path d="M73.32 418.77 C79.04 414.31 79.04 407.11 73.32 402.65 L49.88 384.38 C44.16 379.92 34.9 379.92 29.18
									 384.38 L5.72 402.65 C0 407.11 0 414.31 5.72 418.77 L29.16 437.04 C34.88 441.5 44.14 441.5 49.86
									 437.04 L73.32 418.77 Z" class="st28"/>
					</g>
				</g>
			</g>
			<g id="shape3205-145" transform="translate(25.6871,-34.749)">
				<title>Sheet.3205</title>
				<path d="M14.24 396.46 L0 418.13 L8.09 423.42 L9.43 421.37 L13.64 441.5 L27.66 419.73 L19.79 414.6 L18.46 416.67
							 L14.24 396.46 ZM20.62 418.21 L24.06 420.54 L14.84 434.67 L10.61 414.48 L7.21 419.73 L3.8 417.51 L13.06
							 403.35 L17.25 423.34 L20.62 418.21 Z" class="st29"/>
			</g>
		</g>
		<g id="shape3108-147" transform="translate(1004.14,-72.0049)">
			<title>Rounded Rectangle.3108</title>
			<desc>Container</desc>
			<path d="M7.49 441.5 L358.45 441.5 A7.49405 7.49405 -180 0 0 365.94 434.01 L365.94 124.5 A7.49405 7.49405 -180 0 0 358.45
						 117 L7.49 117 A7.49405 7.49405 -180 0 0 -0 124.5 L0 434.01 A7.49405 7.49405 -180 0 0 7.49 441.5 Z"
					class="st30"/>
			<text x="94.32" y="153.41" class="st18">Container</text>		</g>
		<g id="shape3286-150" transform="translate(752.101,-165.822)">
			<title>Dynamic connector.3286</title>
			<path d="M0 432.5 L-253.41 432.5" class="st31"/>
		</g>
		<g id="group3609-153" transform="translate(1001.08,-86.4951)">
			<title>Sheet.3609</title>
			<g id="group3610-154" transform="translate(20.5449,5.68434E-14)">
				<title>Sheet.3610</title>
				<g id="shape3611-155" transform="translate(3.32534E-12,-206.567)">
					<title>Sheet.3611</title>
					<path d="M0 441.5 L335.4 441.5 L335.4 411.21 A13.9748 15.1439 -180 0 0 321.42 396.07 L13.97 396.07 A13.9748 15.1439
								 -180 0 0 0 411.21 L0 441.5 Z" class="st32"/>
				</g>
				<g id="shape3612-157">
					<title>Sheet.3612</title>
					<path d="M0 235.5 L0 429.38 A13.9748 12.1177 -180 0 0 13.97 441.5 L321.42 441.5 A13.9748 12.1177 -180 0 0 335.4
								 429.38 L335.4 235.5 L0 235.5 Z" class="st32"/>
				</g>
			</g>
			<g id="shape3614-159" transform="translate(24.9227,-210.505)">
				<title>Virtual server.16</title>
				<desc>Appetizer Process</desc>
				<rect x="0" y="404.241" width="324" height="37.2587" class="st21"/>
				<text x="49.98" y="430.07" class="st22">Appetizer Process</text>			</g>
		</g>
		<g id="group3433-162" transform="translate(994.37,-95.4951)">
			<title>Sheet.3433</title>
			<g id="shape3420-163" transform="translate(41.0477,0)">
				<title>Rounded Rectangle.3420</title>
				<desc>HTTP Server</desc>
				<path d="M6.78 441.5 L300.88 441.5 A6.781 6.781 -180 0 0 307.66 434.72 L307.66 376.28 A6.781 6.781 -180 0 0 300.88
							 369.5 L6.78 369.5 A6.781 6.781 -180 0 0 -0 376.28 L0 434.72 A6.781 6.781 -180 0 0 6.78 441.5 Z"
						class="st33"/>
				<text x="35" y="418.3" class="st34">HTTP Server</text>			</g>
			<g id="group3421-166">
				<title>SDKs.3421</title>
				<g id="group3422-167">
					<title>CloudKit-Icon</title>
					<g id="group3423-168">
						<title>Bottom</title>
						<g id="shape3424-169">
							<title>Sheet.3424</title>
							<path d="M61.7 422.37 C66.52 418.62 66.52 412.56 61.7 408.8 L41.96 393.44 C37.15 389.69 29.36 389.69
										 24.54 393.44 L4.81 408.8 C0 412.56 0 418.62 4.81 422.37 L24.54 437.75 C29.36 441.5 37.15
										 441.5 41.96 437.75 L61.7 422.37 Z" class="st35"/>
						</g>
						<g id="shape3425-171">
							<title>Sheet.3425</title>
							<path d="M61.7 422.37 C66.52 418.62 66.52 412.56 61.7 408.8 L41.96 393.44 C37.15 389.69 29.36 389.69
										 24.54 393.44 L4.81 408.8 C0 412.56 0 418.62 4.81 422.37 L24.54 437.75 C29.36 441.5 37.15
										 441.5 41.96 437.75 L61.7 422.37 Z" class="st36"/>
						</g>
					</g>
					<g id="group3426-173" transform="translate(0,-10.6879)">
						<title>Middle</title>
						<g id="shape3427-174">
							<title>Sheet.3427</title>
							<path d="M61.7 422.37 C66.52 418.62 66.52 412.56 61.7 408.8 L41.98 393.43 C37.16 389.68 29.37 389.68
										 24.56 393.43 L4.81 408.8 C0 412.56 0 418.62 4.81 422.37 L24.54 437.75 C29.36 441.5 37.15
										 441.5 41.96 437.75 L61.7 422.37 Z" class="st35"/>
						</g>
						<g id="shape3428-176">
							<title>Sheet.3428</title>
							<path d="M61.7 422.37 C66.52 418.62 66.52 412.56 61.7 408.8 L41.98 393.43 C37.16 389.68 29.37 389.68
										 24.56 393.43 L4.81 408.8 C0 412.56 0 418.62 4.81 422.37 L24.54 437.75 C29.36 441.5 37.15
										 441.5 41.96 437.75 L61.7 422.37 Z" class="st36"/>
						</g>
					</g>
					<g id="group3429-178" transform="translate(0,-21.3758)">
						<title>Top</title>
						<g id="shape3430-179">
							<title>Sheet.3430</title>
							<path d="M61.7 422.37 C66.52 418.62 66.52 412.56 61.7 408.8 L41.98 393.43 C37.16 389.68 29.37 389.68
										 24.56 393.43 L4.81 408.8 C0 412.56 0 418.62 4.81 422.37 L24.54 437.75 C29.36 441.5 37.15
										 441.5 41.96 437.75 L61.7 422.37 Z" class="st35"/>
						</g>
						<g id="shape3431-181">
							<title>Sheet.3431</title>
							<path d="M61.7 422.37 C66.52 418.62 66.52 412.56 61.7 408.8 L41.98 393.43 C37.16 389.68 29.37 389.68
										 24.56 393.43 L4.81 408.8 C0 412.56 0 418.62 4.81 422.37 L24.54 437.75 C29.36 441.5 37.15
										 441.5 41.96 437.75 L61.7 422.37 Z" class="st36"/>
						</g>
					</g>
				</g>
				<g id="shape3432-183" transform="translate(21.6186,-29.2453)">
					<title>Sheet.3432</title>
					<path d="M11.99 403.59 L0 421.83 L6.81 426.28 L7.93 424.56 L11.48 441.5 L23.28 423.18 L16.66 418.86 L15.53 420.6
								 L11.99 403.59 ZM17.35 421.9 L20.25 423.86 L12.49 435.75 L8.93 418.76 L6.06 423.18 L3.2 421.31 L10.99
								 409.39 L14.52 426.22 L17.35 421.9 Z" class="st35"/>
				</g>
			</g>
		</g>
		<g id="group3434-185" transform="translate(994.327,-186.862)">
			<title>Sheet.3434</title>
			<g id="shape3402-186" transform="translate(41.0477,0)">
				<title>Rounded Rectangle.3402</title>
				<desc>Reflect Server</desc>
				<path d="M6.78 441.5 L300.92 441.5 A6.78195 6.78195 -180 0 0 307.7 434.72 L307.7 376.28 A6.78195 6.78195 -180 0 0
							 300.92 369.5 L6.78 369.5 A6.78195 6.78195 -180 0 0 -0 376.28 L0 434.72 A6.78195 6.78195 -180 0 0 6.78
							 441.5 Z" class="st37"/>
				<text x="35" y="418.3" class="st18">Reflect Server</text>			</g>
			<g id="group3408-189">
				<title>SDKs.3408</title>
				<g id="group3409-190">
					<title>CloudKit-Icon</title>
					<g id="group3410-191">
						<title>Bottom</title>
						<g id="shape3411-192">
							<title>Sheet.3411</title>
							<path d="M61.7 422.37 C66.52 418.62 66.52 412.56 61.7 408.8 L41.96 393.44 C37.15 389.69 29.36 389.69
										 24.54 393.44 L4.81 408.8 C0 412.56 0 418.62 4.81 422.37 L24.54 437.75 C29.36 441.5 37.15
										 441.5 41.96 437.75 L61.7 422.37 Z" class="st23"/>
						</g>
						<g id="shape3412-194">
							<title>Sheet.3412</title>
							<path d="M61.7 422.37 C66.52 418.62 66.52 412.56 61.7 408.8 L41.96 393.44 C37.15 389.69 29.36 389.69
										 24.54 393.44 L4.81 408.8 C0 412.56 0 418.62 4.81 422.37 L24.54 437.75 C29.36 441.5 37.15
										 441.5 41.96 437.75 L61.7 422.37 Z" class="st24"/>
						</g>
					</g>
					<g id="group3413-196" transform="translate(0,-10.6879)">
						<title>Middle</title>
						<g id="shape3414-197">
							<title>Sheet.3414</title>
							<path d="M61.7 422.37 C66.52 418.62 66.52 412.56 61.7 408.8 L41.98 393.43 C37.16 389.68 29.37 389.68
										 24.56 393.43 L4.81 408.8 C0 412.56 0 418.62 4.81 422.37 L24.54 437.75 C29.36 441.5 37.15
										 441.5 41.96 437.75 L61.7 422.37 Z" class="st25"/>
						</g>
						<g id="shape3415-199">
							<title>Sheet.3415</title>
							<path d="M61.7 422.37 C66.52 418.62 66.52 412.56 61.7 408.8 L41.98 393.43 C37.16 389.68 29.37 389.68
										 24.56 393.43 L4.81 408.8 C0 412.56 0 418.62 4.81 422.37 L24.54 437.75 C29.36 441.5 37.15
										 441.5 41.96 437.75 L61.7 422.37 Z" class="st26"/>
						</g>
					</g>
					<g id="group3416-201" transform="translate(0,-21.3758)">
						<title>Top</title>
						<g id="shape3417-202">
							<title>Sheet.3417</title>
							<path d="M61.7 422.37 C66.52 418.62 66.52 412.56 61.7 408.8 L41.98 393.43 C37.16 389.68 29.37 389.68
										 24.56 393.43 L4.81 408.8 C0 412.56 0 418.62 4.81 422.37 L24.54 437.75 C29.36 441.5 37.15
										 441.5 41.96 437.75 L61.7 422.37 Z" class="st27"/>
						</g>
						<g id="shape3418-204">
							<title>Sheet.3418</title>
							<path d="M61.7 422.37 C66.52 418.62 66.52 412.56 61.7 408.8 L41.98 393.43 C37.16 389.68 29.37 389.68
										 24.56 393.43 L4.81 408.8 C0 412.56 0 418.62 4.81 422.37 L24.54 437.75 C29.36 441.5 37.15
										 441.5 41.96 437.75 L61.7 422.37 Z" class="st28"/>
						</g>
					</g>
				</g>
				<g id="shape3419-206" transform="translate(21.6186,-29.2453)">
					<title>Sheet.3419</title>
					<path d="M11.99 403.59 L0 421.83 L6.81 426.28 L7.93 424.56 L11.48 441.5 L23.28 423.18 L16.66 418.86 L15.53 420.6
								 L11.99 403.59 ZM17.35 421.9 L20.25 423.86 L12.49 435.75 L8.93 418.76 L6.06 423.18 L3.2 421.31 L10.99
								 409.39 L14.52 426.22 L17.35 421.9 Z" class="st29"/>
				</g>
			</g>
		</g>
		<g id="shape3435-208" transform="translate(1001.87,-225.236)">
			<title>Dynamic connector.3435</title>
			<path d="M0 441.5 L-137.46 489.15" class="st31"/>
		</g>
		<g id="shape3278-211" transform="translate(206.01,-156.097)">
			<title>Dynamic connector.3278</title>
			<path d="M0 441.38 L176.85 423.62" class="st31"/>
		</g>
		<g id="group3444-214" transform="translate(141.577,-119.25)">
			<title>Sheet.3444</title>
		</g>
		<g id="shape3313-215" transform="translate(848.007,-166.385)">
			<title>Sheet.3313</title>
			<ellipse cx="8.4375" cy="433.063" rx="8.4375" ry="8.4375" class="st38"/>
		</g>
		<g id="shape3445-219" transform="translate(848.077,-166.5)">
			<title>Sheet.3445</title>
			<ellipse cx="8.4375" cy="433.063" rx="8.4375" ry="8.4375" class="st40"/>
		</g>
		<g id="group3471-223" transform="translate(120.621,-153)">
			<title>Sheet.3471</title>
			<g id="shape3472-224">
				<title>Empty Circle</title>
				<ellipse cx="16.1894" cy="425.311" rx="16.1894" ry="16.1894" class="st42"/>
			</g>
			<g id="group3473-226" transform="translate(5.68047,-5.30178)">
				<title>e2ee</title>
				<g id="group3474-227" transform="translate(10.9725,-7.83298)">
					<title>Sheet.3474</title>
					<g id="shape3475-228">
						<title>Sheet.3475</title>
					</g>
				</g>
				<g id="group3476-229">
					<title>Sheet.3476</title>
					<g id="shape3477-230">
						<title>Sheet.3477</title>
						<path d="M17.57 427.12 L17.57 423.73 C17.57 419.96 14.65 416.76 10.88 416.62 C6.92 416.46 3.66 419.65 3.66
									 423.57 L3.66 427.14 L0.3 427.14 C0.14 427.14 0 427.26 0 427.44 L0 441.2 C0 441.36 0.13 441.5
									 0.3 441.5 L7.97 441.5 C8.13 441.5 8.27 441.37 8.27 441.2 L8.27 439.29 C8.27 439.13 8.15 438.99
									 7.97 438.99 L3.05 438.99 L3.05 435.28 L7.61 435.28 C7.77 435.28 7.91 435.16 7.91 434.99 L7.91
									 433.09 C7.91 432.93 7.79 432.79 7.61 432.79 L3.05 432.79 L3.05 429.63 L7.97 429.63 C8.13 429.63
									 8.27 429.51 8.27 429.33 L8.27 427.44 C8.27 427.28 8.15 427.14 7.97 427.14 L6.11 427.14 L6.11
									 423.7 C6.11 421.36 7.83 419.3 10.17 419.08 C12.84 418.83 15.1 420.94 15.1 423.56 L15.1 427.12
									 L13.23 427.12 C13.08 427.12 12.93 427.25 12.93 427.42 L12.93 429.32 C12.93 429.48 13.06 429.62
									 13.23 429.62 L18.16 429.62 L18.16 432.77 L13.59 432.77 C13.44 432.77 13.3 432.9 13.3 433.07
									 L13.3 434.97 C13.3 435.13 13.42 435.27 13.59 435.27 L18.16 435.27 L18.16 438.97 L13.23 438.97
									 C13.08 438.97 12.93 439.1 12.93 439.27 L12.93 441.19 C12.93 441.34 13.06 441.48 13.23 441.48
									 L20.91 441.48 C21.07 441.48 21.21 441.36 21.21 441.19 L21.21 427.42 C21.21 427.26 21.08 427.12
									 20.91 427.12 C20.91 427.12 17.57 427.12 17.57 427.12 Z" class="st43"/>
					</g>
					<g id="shape3478-234" transform="translate(9.37132,-6.23185)">
						<title>Sheet.3478</title>
						<path d="M0.28 441.5 L2.21 441.5 C2.37 441.5 2.5 441.37 2.5 441.22 L2.5 439.29 C2.5 439.13 2.37 439 2.21
									 439 L0.28 439 C0.13 439 0 439.13 0 439.29 L0 441.22 C0 441.37 0.13 441.5 0.28 441.5 Z"
								class="st43"/>
					</g>
				</g>
			</g>
		</g>
		<g id="group3479-237" transform="translate(1038.62,-234)">
			<title>Sheet.3479</title>
			<g id="shape3480-238">
				<title>Empty Circle</title>
				<ellipse cx="16.1894" cy="425.311" rx="16.1894" ry="16.1894" class="st42"/>
			</g>
			<g id="group3481-240" transform="translate(5.68047,-5.30178)">
				<title>e2ee</title>
				<g id="group3482-241" transform="translate(10.9725,-7.83298)">
					<title>Sheet.3482</title>
					<g id="shape3483-242">
						<title>Sheet.3483</title>
					</g>
				</g>
				<g id="group3484-243">
					<title>Sheet.3484</title>
					<g id="shape3485-244">
						<title>Sheet.3485</title>
						<path d="M17.57 427.12 L17.57 423.73 C17.57 419.96 14.65 416.76 10.88 416.62 C6.92 416.46 3.66 419.65 3.66
									 423.57 L3.66 427.14 L0.3 427.14 C0.14 427.14 0 427.26 0 427.44 L0 441.2 C0 441.36 0.13 441.5
									 0.3 441.5 L7.97 441.5 C8.13 441.5 8.27 441.37 8.27 441.2 L8.27 439.29 C8.27 439.13 8.15 438.99
									 7.97 438.99 L3.05 438.99 L3.05 435.28 L7.61 435.28 C7.77 435.28 7.91 435.16 7.91 434.99 L7.91
									 433.09 C7.91 432.93 7.79 432.79 7.61 432.79 L3.05 432.79 L3.05 429.63 L7.97 429.63 C8.13 429.63
									 8.27 429.51 8.27 429.33 L8.27 427.44 C8.27 427.28 8.15 427.14 7.97 427.14 L6.11 427.14 L6.11
									 423.7 C6.11 421.36 7.83 419.3 10.17 419.08 C12.84 418.83 15.1 420.94 15.1 423.56 L15.1 427.12
									 L13.23 427.12 C13.08 427.12 12.93 427.25 12.93 427.42 L12.93 429.32 C12.93 429.48 13.06 429.62
									 13.23 429.62 L18.16 429.62 L18.16 432.77 L13.59 432.77 C13.44 432.77 13.3 432.9 13.3 433.07
									 L13.3 434.97 C13.3 435.13 13.42 435.27 13.59 435.27 L18.16 435.27 L18.16 438.97 L13.23 438.97
									 C13.08 438.97 12.93 439.1 12.93 439.27 L12.93 441.19 C12.93 441.34 13.06 441.48 13.23 441.48
									 L20.91 441.48 C21.07 441.48 21.21 441.36 21.21 441.19 L21.21 427.42 C21.21 427.26 21.08 427.12
									 20.91 427.12 C20.91 427.12 17.57 427.12 17.57 427.12 Z" class="st43"/>
					</g>
					<g id="shape3486-247" transform="translate(9.37132,-6.23185)">
						<title>Sheet.3486</title>
						<path d="M0.28 441.5 L2.21 441.5 C2.37 441.5 2.5 441.37 2.5 441.22 L2.5 439.29 C2.5 439.13 2.37 439 2.21
									 439 L0.28 439 C0.13 439 0 439.13 0 439.29 L0 441.22 C0 441.37 0.13 441.5 0.28 441.5 Z"
								class="st43"/>
					</g>
				</g>
			</g>
		</g>
		<g id="shape3608-250" transform="translate(306,-72)">
			<title>Sheet.3608</title>
			<path d="M608.11 303.39 C600.13 299.76 591.34 297.75 582.12 297.75 L579.57 297.75 C568.2 256.56 532.32 226.29 489.58
						 226.29 C470.95 226.29 453.7 232.26 439.19 242.15 C429.58 177.28 376.64 127.44 312.53 127.44 C254.89 127.44
						 206.26 167.39 189.99 222.58 C182.73 220.52 175.09 219.29 167.05 219.29 C123.13 219.29 86.86 253.27 80.19
						 297.75 L65.88 297.75 C29.61 297.75 0 328.85 0 367.15 L0 372.1 C-0 410.4 29.61 441.5 65.88 441.5 L582.12
						 441.5 C618.39 441.5 648 410.4 648 372.1 L648 367.15 C648 348.3 640.82 331.19 629.21 318.67 A78.75 23.625
						 0 0 1 608.11 303.39 Z" class="st44"/>
		</g>
		<g id="group3462-252" transform="translate(189,-144)">
			<title>Sheet.3462</title>
			<g id="group3463-253">
				<title>Sheet.3463</title>
				<g id="group3464-254">
					<title>Sheet.3464</title>
					<g id="shape3465-255" transform="translate(-46.6509,3.67675) rotate(-6.22205)">
						<title>Rounded Rectangle.3438</title>
						<path d="M10.5 441.5 L202.72 441.5 A10.4986 10.4986 -180 0 0 213.22 431 A10.4986 10.4986 -180 0 0 202.72
									 420.5 L10.5 420.5 A10.4986 10.4986 -180 0 0 -0 431 A10.4986 10.4986 -180 0 0 10.5 441.5 Z"
								class="st45"/>
					</g>
					<g id="shape3466-257" transform="translate(192.589,-20.9156)">
						<title>Rounded Rectangle.3440</title>
						<path d="M10.69 441.5 L467.9 441.5 A10.6873 10.6873 -180 0 0 478.59 430.81 A10.6873 10.6873 -180 0 0 467.9
									 420.12 L10.69 420.12 A10.6873 10.6873 -180 0 0 -0 430.81 A10.6873 10.6873 -180 0 0 10.69 441.5
									 Z" class="st45"/>
					</g>
					<g id="shape3467-259" transform="translate(514.893,6.24358) rotate(-19.1014)">
						<title>Rounded Rectangle.3443</title>
						<path d="M10.36 441.5 L160.54 441.5 A10.3575 10.3575 -180 0 0 170.9 431.14 L170.9 430.91 A10.3575 10.3575
									 -180 0 0 160.54 420.55 L10.36 420.55 A10.3575 10.3575 -180 0 0 0 430.91 L0 431.14 A10.3575 10.3575
									 -180 0 0 10.36 441.5 Z" class="st45"/>
					</g>
				</g>
				<g id="shape3468-261" transform="translate(204.011,-5.07912)">
					<title>Sheet.3468</title>
					<desc>Zero Trust Connection</desc>
					<rect x="0" y="400.914" width="478.585" height="40.5865" class="st46"/>
					<text x="137.41" y="421.11" class="st47">Zero Trust Connection</text>				</g>
			</g>
			<g id="shape3469-264" transform="translate(657.284,-23.1656)">
				<title>Sheet.3469</title>
				<ellipse cx="8.4375" cy="433.063" rx="8.4375" ry="8.4375" class="st48"/>
			</g>
			<g id="shape3470-268" transform="translate(194.909,-23.1656)">
				<title>Sheet.3470</title>
				<ellipse cx="8.4375" cy="433.063" rx="8.4375" ry="8.4375" class="st48"/>
			</g>
		</g>
	</g>
</svg>
