<?xml version="1.0" encoding="UTF-8" standalone="no"?>
<!DOCTYPE svg PUBLIC "-//W3C//DTD SVG 1.1//EN" "http://www.w3.org/Graphics/SVG/1.1/DTD/svg11.dtd">
<!-- Generated by Microsoft Visio, SVG Export docker-compose-overview.svg Page-1 -->
<svg xmlns="http://www.w3.org/2000/svg" xmlns:xlink="http://www.w3.org/1999/xlink" xmlns:ev="http://www.w3.org/2001/xml-events"
		width="5.69444in" height="4.06944in" viewBox="0 0 410 293" xml:space="preserve" color-interpolation-filters="sRGB"
		class="st42">
	<style type="text/css">
	<![CDATA[
		.st1 {fill:#ffffff;stroke:#4271c6;stroke-linecap:round;stroke-linejoin:round;stroke-width:0.5}
		.st2 {fill:#ffffff;stroke:#5b9bd5;stroke-linecap:round;stroke-linejoin:round;stroke-width:0.5}
		.st3 {fill:#42829e;font-family:Russo One;font-size:1.5em}
		.st4 {fill:#eadbf4;stroke:#7030a0;stroke-dasharray:3.5,7;stroke-linecap:round;stroke-linejoin:round;stroke-width:3.5}
		.st5 {fill:#660066;font-family:Russo One;font-size:1.5em}
		.st6 {fill:#ffc6c6;stroke:#c00000;stroke-dasharray:3.5,7;stroke-linecap:round;stroke-linejoin:round;stroke-width:3.5}
		.st7 {fill:#a60000;font-family:Russo One;font-size:1.5em}
		.st8 {fill:#b9caea;stroke:#00b0f0;stroke-dasharray:3.5,7;stroke-linecap:round;stroke-linejoin:round;stroke-width:3.5}
		.st9 {fill:#1e4a73;font-family:Russo One;font-size:1.5em}
		.st10 {fill:#5b9bd5;stroke:#ffffff;stroke-linecap:round;stroke-linejoin:round;stroke-width:0.5}
		.st11 {fill:#aad288;stroke:#ffffff;stroke-linecap:round;stroke-linejoin:round;stroke-width:0.5}
		.st12 {fill:#ffffff}
		.st13 {stroke:#ffffff;stroke-dasharray:3.5,2.5;stroke-linecap:round;stroke-linejoin:round;stroke-width:0.5}
		.st14 {stroke:#4271c6;stroke-linecap:round;stroke-linejoin:round;stroke-width:1.5}
		.st15 {fill:#4271c6;stroke:#ffffff;stroke-linecap:round;stroke-linejoin:round;stroke-opacity:0;stroke-width:1.5}
		.st16 {fill:#4271c6;stroke:#ffffff;stroke-linecap:round;stroke-linejoin:round;stroke-width:1.5}
		.st17 {fill:#feffff;stroke:#ffffff;stroke-linecap:round;stroke-linejoin:round;stroke-opacity:0;stroke-width:1.5}
		.st18 {fill:#c00000;stroke:#ffffff;stroke-linecap:round;stroke-linejoin:round;stroke-width:0.5}
		.st19 {fill:#ffffff;stroke:#ffffff;stroke-linecap:round;stroke-linejoin:round;stroke-width:0.5}
		.st20 {fill:none;stroke:none;stroke-linecap:round;stroke-linejoin:round;stroke-width:0.5}
		.st21 {fill:#a60000;font-family:Russo One;font-size:0.833336em}
		.st22 {fill:#182c50;font-family:Russo One;font-size:0.833336em}
		.st23 {fill:#1e4a73;font-family:Russo One;font-size:0.833336em}
		.st24 {fill:#dee6f3;stroke:#ffffff;stroke-linecap:round;stroke-linejoin:round;stroke-width:0.5}
		.st25 {stroke:#73ae42;stroke-linecap:round;stroke-linejoin:round;stroke-width:1.5}
		.st26 {fill:#73ae42;stroke:#ffffff;stroke-linecap:round;stroke-linejoin:round;stroke-opacity:0;stroke-width:1.5}
		.st27 {fill:#73ae42;stroke:#ffffff;stroke-linecap:round;stroke-linejoin:round;stroke-width:1.5}
		.st28 {fill:url(#grad0-196);stroke:none;stroke-linecap:butt;stroke-width:3.03873}
		.st29 {fill:#ffffff;stroke:none;stroke-linecap:butt;stroke-width:3.03873}
		.st30 {stroke:#a5a5a5;stroke-linecap:round;stroke-linejoin:round;stroke-width:1.5}
		.st31 {fill:#c59de1;stroke:#ffffff;stroke-linecap:round;stroke-linejoin:round;stroke-opacity:0;stroke-width:1.5}
		.st32 {fill:#c59de1;stroke:#ffffff;stroke-linecap:round;stroke-linejoin:round;stroke-width:1.5}
		.st33 {fill:#d8d8d8;stroke:#000000;stroke-linecap:round;stroke-linejoin:round;stroke-width:1}
		.st34 {fill:#f2f2f2;stroke:none;stroke-linecap:round;stroke-linejoin:round;stroke-width:0.5}
		.st35 {fill:#3f3f3f;font-family:Russo One;font-size:0.666664em}
		.st36 {font-size:1em}
		.st37 {fill:#e7f0fe;stroke:#3f3f3f;stroke-dasharray:3.5,2.5;stroke-linecap:round;stroke-linejoin:round;stroke-width:0.5}
		.st38 {stroke:#4f87bb;stroke-linecap:round;stroke-linejoin:round;stroke-width:0.5}
		.st39 {fill:url(#grad0-397);stroke:#ffffff;stroke-linecap:round;stroke-linejoin:round;stroke-opacity:0;stroke-width:0.5}
		.st40 {fill:url(#grad0-397);stroke:#ffffff;stroke-linecap:round;stroke-linejoin:round;stroke-width:0.5}
		.st41 {fill:#dfe0e0;stroke:#ffffff;stroke-linecap:round;stroke-linejoin:round;stroke-opacity:0;stroke-width:0.5}
		.st42 {fill:none;fill-rule:evenodd;font-size:12px;overflow:visible;stroke-linecap:square;stroke-miterlimit:3}
	]]>
	</style>

	<defs id="Patterns_And_Gradients">
		<linearGradient id="grad0-196" x1="0" y1="0" x2="1" y2="0" gradientTransform="rotate(-116.99999444949 0.5 0.5)">
			<stop offset="0.005" stop-color="#fc0147" stop-opacity="1"/>
			<stop offset="0.04" stop-color="#f4044d" stop-opacity="1"/>
			<stop offset="0.9" stop-color="#0068f9" stop-opacity="1"/>
		</linearGradient>
		<linearGradient id="grad0-397" x1="0" y1="0" x2="1" y2="0" gradientTransform="rotate(117 0.5 0.5)">
			<stop offset="0" stop-color="#0068f9" stop-opacity="1"/>
			<stop offset="1" stop-color="#fc0147" stop-opacity="1"/>
		</linearGradient>
	</defs>
	<g>
		<title>Page-1</title>
		<g id="shape339-1" transform="translate(0.25,-0.25)">
			<title>Sheet.339</title>
			<rect x="0" y="0.499993" width="409.5" height="292.5" class="st1"/>
		</g>
		<g id="shape275-3" transform="translate(54.25,-4.74999)">
			<title>Rounded Rectangle.275</title>
			<desc>Docker</desc>
			<path d="M0 293 L351 293 L351 9.5 L0 9.5 L0 293 Z" class="st2"/>
			<text x="4" y="29.7" class="st3">Docker</text>		</g>
		<g id="shape342-6" transform="translate(63.25,-13.75)">
			<title>Rounded Rectangle.342</title>
			<desc>Purple Network</desc>
			<path d="M0 293 L162 293 L162 50.75 L0 50.75 L0 293 Z" class="st4"/>
			<text x="4" y="70.95" class="st5">Purple Network</text>		</g>
		<g id="shape161-9" transform="translate(229.75,-16)">
			<title>Rounded Rectangle.161</title>
			<desc>Red Network</desc>
			<path d="M0 293 L162 293 L162 174.88 L0 174.88 L0 293 Z" class="st6"/>
			<text x="39.38" y="195.08" class="st7">Red Network</text>		</g>
		<g id="shape197-12" transform="translate(229.75,-138.625)">
			<title>Rounded Rectangle.197</title>
			<desc>Blue Network</desc>
			<path d="M0 293 L162 293 L162 175.58 L0 175.58 L0 293 Z" class="st8"/>
			<text x="33.26" y="195.78" class="st9">Blue Network</text>		</g>
		<g id="group198-15" transform="translate(317.5,-173.5)">
			<title>Virtual server.198</title>
			<g id="shape199-16" transform="translate(11.0405,-2)">
				<title>Sheet.199</title>
				<rect x="0" y="243" width="31.919" height="50" class="st10"/>
			</g>
			<g id="shape200-18" transform="translate(34.8965,-23.344)">
				<title>Sheet.200</title>
				<ellipse cx="1.9295" cy="291.07" rx="1.9295" ry="1.9295" class="st11"/>
			</g>
			<g id="shape201-20" transform="translate(23.1875,-10.196)">
				<title>Sheet.201</title>
				<path d="M-0 293 L15.57 293 L15.57 291.75 L-0 291.75 L-0 293 ZM-0 289.21 L15.57 289.21 L15.57 287.96 L-0 287.96 L-0
							 289.21 ZM-0 285.42 L15.57 285.42 L15.57 284.17 L-0 284.17 L-0 285.42 Z" class="st12"/>
			</g>
			<g id="shape202-23" transform="translate(9.0405,1.00583E-06)">
				<title>Sheet.202</title>
				<path d="M0 293 L35.92 293 L35.92 239 L0 239 L0 293" class="st13"/>
			</g>
		</g>
		<g id="group192-26" transform="translate(247.373,-177.623)">
			<title>Ring network.192</title>
			<g id="shape193-27">
				<title>Sheet.193</title>
				<path d="M31.5 262.25 L30.75 262.25" class="st14"/>
				<path d="M31.5 262.25 L30.75 262.25" class="st14"/>
				<path d="M31.5 271.25 L30.75 262.25" class="st14"/>
				<path d="M33 262.25 L30.75 262.25" class="st14"/>
				<path d="M32.8 260.2 L30.75 262.25" class="st14"/>
				<path d="M33 262.25 L30.75 262.25" class="st14"/>
				<path d="M33 262.25 L30.75 262.25" class="st14"/>
				<path d="M24 262.25 L30.75 262.25" class="st14"/>
				<path d="M20.91 262.25 L30.75 262.25" class="st14"/>
				<path d="M23.98 269.02 L30.75 262.25" class="st14"/>
				<path d="M30.75 272.09 L30.75 262.25" class="st14"/>
				<path d="M97.13 270.12 L30.75 262.25" class="st14"/>
				<path d="M40.59 262.25 L30.75 262.25" class="st14"/>
				<path d="M37.51 255.49 L30.75 262.25" class="st14"/>
				<path d="M30.75 252.41 L30.75 262.25" class="st14"/>
				<path d="M23.98 255.49 L30.75 262.25" class="st14"/>
				<path d="M20.91 262.25 L30.75 262.25" class="st14"/>
				<path d="M23.98 269.02 L30.75 262.25" class="st14"/>
				<path d="M30.75 272.09 L30.75 262.25" class="st14"/>
				<path d="M37.51 269.02 L30.75 262.25" class="st14"/>
				<path d="M40.59 262.25 L30.75 262.25" class="st14"/>
				<path d="M37.51 255.49 L30.75 262.25" class="st14"/>
				<path d="M30.75 252.41 L30.75 262.25" class="st14"/>
				<path d="M23.98 255.49 L30.75 262.25" class="st14"/>
				<path d="M20.91 262.25 L30.75 262.25" class="st14"/>
				<path d="M23.98 269.02 L30.75 262.25" class="st14"/>
				<path d="M30.75 272.09 L30.75 262.25" class="st14"/>
				<path d="M37.51 269.02 L30.75 262.25" class="st14"/>
				<path d="M40.59 262.25 L30.75 262.25" class="st14"/>
				<path d="M37.51 255.49 L30.75 262.25" class="st14"/>
				<path d="M30.75 252.41 L30.75 262.25" class="st14"/>
				<path d="M23.98 255.49 L30.75 262.25" class="st14"/>
				<path d="M20.91 262.25 L30.75 262.25" class="st14"/>
				<path d="M23.98 269.02 L30.75 262.25" class="st14"/>
				<path d="M30.75 272.09 L30.75 262.25" class="st14"/>
				<path d="M37.51 269.02 L30.75 262.25" class="st14"/>
				<path d="M40.59 262.25 L30.75 262.25" class="st14"/>
				<path d="M37.51 255.49 L30.75 262.25" class="st14"/>
				<path d="M30.75 252.41 L30.75 262.25" class="st14"/>
				<path d="M23.98 255.49 L30.75 262.25" class="st14"/>
				<path d="M20.91 262.25 L30.75 262.25" class="st14"/>
				<path d="M23.98 269.02 L30.75 262.25" class="st14"/>
				<path d="M30.75 272.09 L30.75 262.25" class="st14"/>
				<path d="M37.51 269.02 L30.75 262.25" class="st14"/>
				<path d="M40.59 262.25 L30.75 262.25" class="st14"/>
				<path d="M37.51 255.49 L30.75 262.25" class="st14"/>
				<path d="M30.75 252.41 L30.75 262.25" class="st14"/>
				<path d="M23.98 255.49 L30.75 262.25" class="st14"/>
				<path d="M20.91 262.25 L30.75 262.25" class="st14"/>
				<path d="M23.98 269.02 L30.75 262.25" class="st14"/>
				<path d="M30.75 272.09 L30.75 262.25" class="st14"/>
				<path d="M37.51 269.02 L30.75 262.25" class="st14"/>
				<path d="M40.59 262.25 L30.75 262.25" class="st14"/>
				<path d="M37.51 255.49 L30.75 262.25" class="st14"/>
				<path d="M30.75 252.41 L30.75 262.25" class="st14"/>
				<path d="M23.98 255.49 L30.75 262.25" class="st14"/>
				<path d="M20.91 262.25 L30.75 262.25" class="st14"/>
				<path d="M23.98 269.02 L30.75 262.25" class="st14"/>
				<path d="M30.75 272.09 L30.75 262.25" class="st14"/>
				<path d="M37.51 269.02 L30.75 262.25" class="st14"/>
				<path d="M40.59 262.25 L30.75 262.25" class="st14"/>
				<path d="M37.51 255.49 L30.75 262.25" class="st14"/>
				<path d="M30.75 252.41 L30.75 262.25" class="st14"/>
				<path d="M23.98 255.49 L30.75 262.25" class="st14"/>
			</g>
			<g id="shape194-93">
				<title>Sheet.194</title>
				<path d="M27.6 262.25 A3.6 3.6 -180 1 0 20.4 262.25 A3.6 3.6 -180 1 0 27.6 262.25 ZM36.6 262.25 A3.6 3.6 -180 1 0
							 29.4 262.25 A3.6 3.6 -180 1 0 36.6 262.25 ZM36.6 262.25 A3.6 3.6 -180 1 0 29.4 262.25 A3.6 3.6 -180
							 1 0 36.6 262.25 ZM36.4 260.2 A3.6 3.6 -180 1 0 29.2 260.2 A3.6 3.6 -180 1 0 36.4 260.2 ZM36.6 262.25
							 A3.6 3.6 -180 1 0 29.4 262.25 A3.6 3.6 -180 1 0 36.6 262.25 ZM35.1 271.25 A3.6 3.6 -180 1 0 27.9 271.25
							 A3.6 3.6 -180 1 0 35.1 271.25 ZM35.1 262.25 A3.6 3.6 -180 1 0 27.9 262.25 A3.6 3.6 -180 1 0 35.1 262.25
							 ZM35.1 262.25 A3.6 3.6 -180 1 0 27.9 262.25 A3.6 3.6 -180 1 0 35.1 262.25 ZM24.51 262.25 A3.6 3.6 -180
							 1 0 17.31 262.25 A3.6 3.6 -180 1 0 24.51 262.25 ZM27.58 269.02 A3.6 3.6 -180 1 0 20.38 269.02 A3.6 3.6
							 -180 1 0 27.58 269.02 ZM34.35 272.09 A3.6 3.6 -180 1 0 27.15 272.09 A3.6 3.6 -180 1 0 34.35 272.09 ZM100.73
							 270.12 A3.6 3.6 -180 1 0 93.53 270.12 A3.6 3.6 -180 1 0 100.73 270.12 ZM44.19 262.25 A3.6 3.6 -180 1
							 0 36.99 262.25 A3.6 3.6 -180 1 0 44.19 262.25 ZM41.11 255.49 A3.6 3.6 -180 1 0 33.91 255.49 A3.6 3.6
							 -180 1 0 41.11 255.49 ZM34.35 252.41 A3.6 3.6 -180 1 0 27.15 252.41 A3.6 3.6 -180 1 0 34.35 252.41 ZM27.58
							 255.49 A3.6 3.6 -180 1 0 20.38 255.49 A3.6 3.6 -180 1 0 27.58 255.49 ZM24.51 262.25 A3.6 3.6 -180 1
							 0 17.31 262.25 A3.6 3.6 -180 1 0 24.51 262.25 ZM27.58 269.02 A3.6 3.6 -180 1 0 20.38 269.02 A3.6 3.6
							 -180 1 0 27.58 269.02 ZM34.35 272.09 A3.6 3.6 -180 1 0 27.15 272.09 A3.6 3.6 -180 1 0 34.35 272.09 ZM41.11
							 269.02 A3.6 3.6 -180 1 0 33.91 269.02 A3.6 3.6 -180 1 0 41.11 269.02 ZM44.19 262.25 A3.6 3.6 -180 1
							 0 36.99 262.25 A3.6 3.6 -180 1 0 44.19 262.25 ZM41.11 255.49 A3.6 3.6 -180 1 0 33.91 255.49 A3.6 3.6
							 -180 1 0 41.11 255.49 ZM34.35 252.41 A3.6 3.6 -180 1 0 27.15 252.41 A3.6 3.6 -180 1 0 34.35 252.41 ZM27.58
							 255.49 A3.6 3.6 -180 1 0 20.38 255.49 A3.6 3.6 -180 1 0 27.58 255.49 ZM24.51 262.25 A3.6 3.6 -180 1
							 0 17.31 262.25 A3.6 3.6 -180 1 0 24.51 262.25 ZM27.58 269.02 A3.6 3.6 -180 1 0 20.38 269.02 A3.6 3.6
							 -180 1 0 27.58 269.02 ZM34.35 272.09 A3.6 3.6 -180 1 0 27.15 272.09 A3.6 3.6 -180 1 0 34.35 272.09 ZM41.11
							 269.02 A3.6 3.6 -180 1 0 33.91 269.02 A3.6 3.6 -180 1 0 41.11 269.02 ZM44.19 262.25 A3.6 3.6 -180 1
							 0 36.99 262.25 A3.6 3.6 -180 1 0 44.19 262.25 ZM41.11 255.49 A3.6 3.6 -180 1 0 33.91 255.49 A3.6 3.6
							 -180 1 0 41.11 255.49 ZM34.35 252.41 A3.6 3.6 -180 1 0 27.15 252.41 A3.6 3.6 -180 1 0 34.35 252.41 ZM27.58
							 255.49 A3.6 3.6 -180 1 0 20.38 255.49 A3.6 3.6 -180 1 0 27.58 255.49 ZM24.51 262.25 A3.6 3.6 -180 1
							 0 17.31 262.25 A3.6 3.6 -180 1 0 24.51 262.25 ZM27.58 269.02 A3.6 3.6 -180 1 0 20.38 269.02 A3.6 3.6
							 -180 1 0 27.58 269.02 ZM34.35 272.09 A3.6 3.6 -180 1 0 27.15 272.09 A3.6 3.6 -180 1 0 34.35 272.09 ZM41.11
							 269.02 A3.6 3.6 -180 1 0 33.91 269.02 A3.6 3.6 -180 1 0 41.11 269.02 ZM44.19 262.25 A3.6 3.6 -180 1
							 0 36.99 262.25 A3.6 3.6 -180 1 0 44.19 262.25 ZM41.11 255.49 A3.6 3.6 -180 1 0 33.91 255.49 A3.6 3.6
							 -180 1 0 41.11 255.49 ZM34.35 252.41 A3.6 3.6 -180 1 0 27.15 252.41 A3.6 3.6 -180 1 0 34.35 252.41 ZM27.58
							 255.49 A3.6 3.6 -180 1 0 20.38 255.49 A3.6 3.6 -180 1 0 27.58 255.49 ZM24.51 262.25 A3.6 3.6 -180 1
							 0 17.31 262.25 A3.6 3.6 -180 1 0 24.51 262.25 ZM27.58 269.02 A3.6 3.6 -180 1 0 20.38 269.02 A3.6 3.6
							 -180 1 0 27.58 269.02 ZM34.35 272.09 A3.6 3.6 -180 1 0 27.15 272.09 A3.6 3.6 -180 1 0 34.35 272.09 ZM41.11
							 269.02 A3.6 3.6 -180 1 0 33.91 269.02 A3.6 3.6 -180 1 0 41.11 269.02 ZM44.19 262.25 A3.6 3.6 -180 1
							 0 36.99 262.25 A3.6 3.6 -180 1 0 44.19 262.25 ZM41.11 255.49 A3.6 3.6 -180 1 0 33.91 255.49 A3.6 3.6
							 -180 1 0 41.11 255.49 ZM34.35 252.41 A3.6 3.6 -180 1 0 27.15 252.41 A3.6 3.6 -180 1 0 34.35 252.41 ZM27.58
							 255.49 A3.6 3.6 -180 1 0 20.38 255.49 A3.6 3.6 -180 1 0 27.58 255.49 ZM24.51 262.25 A3.6 3.6 -180 1
							 0 17.31 262.25 A3.6 3.6 -180 1 0 24.51 262.25 ZM27.58 269.02 A3.6 3.6 -180 1 0 20.38 269.02 A3.6 3.6
							 -180 1 0 27.58 269.02 ZM34.35 272.09 A3.6 3.6 -180 1 0 27.15 272.09 A3.6 3.6 -180 1 0 34.35 272.09 ZM41.11
							 269.02 A3.6 3.6 -180 1 0 33.91 269.02 A3.6 3.6 -180 1 0 41.11 269.02 ZM44.19 262.25 A3.6 3.6 -180 1
							 0 36.99 262.25 A3.6 3.6 -180 1 0 44.19 262.25 ZM41.11 255.49 A3.6 3.6 -180 1 0 33.91 255.49 A3.6 3.6
							 -180 1 0 41.11 255.49 ZM34.35 252.41 A3.6 3.6 -180 1 0 27.15 252.41 A3.6 3.6 -180 1 0 34.35 252.41 ZM27.58
							 255.49 A3.6 3.6 -180 1 0 20.38 255.49 A3.6 3.6 -180 1 0 27.58 255.49 ZM24.51 262.25 A3.6 3.6 -180 1
							 0 17.31 262.25 A3.6 3.6 -180 1 0 24.51 262.25 ZM27.58 269.02 A3.6 3.6 -180 1 0 20.38 269.02 A3.6 3.6
							 -180 1 0 27.58 269.02 ZM34.35 272.09 A3.6 3.6 -180 1 0 27.15 272.09 A3.6 3.6 -180 1 0 34.35 272.09 ZM41.11
							 269.02 A3.6 3.6 -180 1 0 33.91 269.02 A3.6 3.6 -180 1 0 41.11 269.02 ZM44.19 262.25 A3.6 3.6 -180 1
							 0 36.99 262.25 A3.6 3.6 -180 1 0 44.19 262.25 ZM41.11 255.49 A3.6 3.6 -180 1 0 33.91 255.49 A3.6 3.6
							 -180 1 0 41.11 255.49 ZM34.35 252.41 A3.6 3.6 -180 1 0 27.15 252.41 A3.6 3.6 -180 1 0 34.35 252.41 ZM27.58
							 255.49 A3.6 3.6 -180 1 0 20.38 255.49 A3.6 3.6 -180 1 0 27.58 255.49 Z" class="st15"/>
			</g>
			<g id="shape195-95">
				<title>Sheet.195</title>
				<ellipse cx="30.75" cy="262.25" rx="15.375" ry="15.375" class="st16"/>
			</g>
			<g id="shape196-97" transform="translate(21.1406,-21.1406)">
				<title>Sheet.196</title>
				<ellipse cx="9.60937" cy="283.391" rx="9.60937" ry="9.60937" class="st17"/>
			</g>
		</g>
		<g id="group269-99" transform="translate(244.937,-39.0625)">
			<title>Sheet.269</title>
			<g id="group262-100" transform="translate(14.625,-10.4158)">
				<title>Sheet.262</title>
				<g id="shape247-101">
					<title>Circle.161</title>
					<path d="M0 277.68 A15.3234 15.3234 0 1 1 30.65 277.68 A15.3234 15.3234 0 0 1 0 277.68 Z" class="st18"/>
				</g>
				<g id="shape248-103" transform="translate(6.04211,-5.88267)">
					<title>Circle.248</title>
					<path d="M0 283.56 A9.28125 9.44069 0 0 1 18.56 283.56 A9.28125 9.44069 0 1 1 -0 283.56 Z" class="st19"/>
				</g>
			</g>
		</g>
		<g id="shape343-105" transform="translate(232,-35.6875)">
			<title>Sheet.343</title>
			<desc>ziti-private-red</desc>
			<rect x="0" y="278.937" width="87.75" height="14.0625" class="st20"/>
			<text x="4.52" y="289.57" class="st21">ziti-private-red</text>		</g>
		<g id="shape329-108" transform="translate(232,-180.25)">
			<title>Ring network.329</title>
			<desc>ziti-private-blue</desc>
			<rect x="0" y="279.078" width="92.25" height="13.9219" class="st20"/>
			<text x="4.23" y="289.04" class="st22">ziti-private-blue</text>		</g>
		<g id="shape363-111" transform="translate(306.25,-155.5)">
			<title>Virtual server.363</title>
			<desc>web-test-blue</desc>
			<rect x="0" y="275" width="83.25" height="18" class="st20"/>
			<text x="5.13" y="287" class="st23">web-test-blue</text>		</g>
		<g id="shape325-114" transform="translate(13.75,-193.75)">
			<title>Rounded Rectangle.325</title>
			<desc>ziti-edge-router</desc>
			<path d="M3.09 293 L95.91 293 A3.0937 3.0937 -180 0 0 99 289.91 L99 283.34 A3.0937 3.0937 -180 0 0 95.91 280.25 L3.09
						 280.25 A3.0937 3.0937 -180 0 0 0 283.34 L0 289.91 A3.0937 3.0937 -180 0 0 3.09 293 Z" class="st24"/>
			<text x="8.32" y="289.63" class="st23">ziti-edge-router</text>		</g>
		<g id="shape330-117" transform="translate(4.75,-18.9988)">
			<title>Rounded Rectangle.330</title>
			<desc>ziti-edge-router-wss</desc>
			<path d="M3.66 293 L113.34 293 A3.65619 3.65619 -180 0 0 117 289.34 L117 283.91 A3.65619 3.65619 -180 0 0 113.34 280.25
						 L3.66 280.25 A3.65619 3.65619 -180 0 0 -0 283.91 L0 289.34 A3.65619 3.65619 -180 0 0 3.66 293 Z"
					class="st24"/>
			<text x="4.77" y="289.63" class="st23">ziti-edge-router-wss</text>		</g>
		<g id="group213-120" transform="translate(32.5,-191.125)">
			<title>Ring network.213</title>
			<g id="shape214-121">
				<title>Sheet.214</title>
				<path d="M28.7 266.35 L30.75 262.25" class="st25"/>
				<path d="M32.8 268.4 L30.75 262.25" class="st25"/>
				<path d="M29.25 257.75 L30.75 262.25" class="st25"/>
				<path d="M36.9 264.3 L30.75 262.25" class="st25"/>
				<path d="M32.8 260.2 L30.75 262.25" class="st25"/>
				<path d="M30.75 256.1 L30.75 262.25" class="st25"/>
				<path d="M24.6 252 L30.75 262.25" class="st25"/>
				<path d="M21 266 L30.75 262.25" class="st25"/>
				<path d="M23.98 269.02 L30.75 262.25" class="st25"/>
				<path d="M30.75 272.09 L30.75 262.25" class="st25"/>
				<path d="M28.7 260.2 L30.75 262.25" class="st25"/>
				<path d="M27 257 L30.75 262.25" class="st25"/>
				<path d="M37.51 255.49 L30.75 262.25" class="st25"/>
				<path d="M30.75 252.41 L30.75 262.25" class="st25"/>
				<path d="M23.98 255.49 L30.75 262.25" class="st25"/>
				<path d="M24.75 257.75 L30.75 262.25" class="st25"/>
				<path d="M23.98 269.02 L30.75 262.25" class="st25"/>
				<path d="M30.75 272.09 L30.75 262.25" class="st25"/>
				<path d="M220.5 347.37 L30.75 262.25" class="st25"/>
				<path d="M37.51 255.49 L30.75 262.25" class="st25"/>
				<path d="M30.75 252.41 L30.75 262.25" class="st25"/>
				<path d="M23.98 255.49 L30.75 262.25" class="st25"/>
				<path d="M27.98 262.84 L30.75 262.25" class="st25"/>
				<path d="M23.98 269.02 L30.75 262.25" class="st25"/>
				<path d="M30.75 272.09 L30.75 262.25" class="st25"/>
				<path d="M37.51 269.02 L30.75 262.25" class="st25"/>
				<path d="M251.06 262.39 L30.75 262.25" class="st25"/>
				<path d="M37.51 255.49 L30.75 262.25" class="st25"/>
				<path d="M30.75 252.41 L30.75 262.25" class="st25"/>
				<path d="M23.98 255.49 L30.75 262.25" class="st25"/>
				<path d="M20.91 262.25 L30.75 262.25" class="st25"/>
				<path d="M23.98 269.02 L30.75 262.25" class="st25"/>
				<path d="M30.75 272.09 L30.75 262.25" class="st25"/>
				<path d="M37.51 269.02 L30.75 262.25" class="st25"/>
				<path d="M40.59 262.25 L30.75 262.25" class="st25"/>
				<path d="M37.51 255.49 L30.75 262.25" class="st25"/>
				<path d="M30.75 252.41 L30.75 262.25" class="st25"/>
				<path d="M23.98 255.49 L30.75 262.25" class="st25"/>
				<path d="M20.91 262.25 L30.75 262.25" class="st25"/>
				<path d="M23.98 269.02 L30.75 262.25" class="st25"/>
				<path d="M30.75 272.09 L30.75 262.25" class="st25"/>
				<path d="M37.51 269.02 L30.75 262.25" class="st25"/>
				<path d="M40.59 262.25 L30.75 262.25" class="st25"/>
				<path d="M37.51 255.49 L30.75 262.25" class="st25"/>
				<path d="M30.75 252.41 L30.75 262.25" class="st25"/>
				<path d="M23.98 255.49 L30.75 262.25" class="st25"/>
				<path d="M20.91 262.25 L30.75 262.25" class="st25"/>
				<path d="M23.98 269.02 L30.75 262.25" class="st25"/>
				<path d="M30.75 272.09 L30.75 262.25" class="st25"/>
				<path d="M37.51 269.02 L30.75 262.25" class="st25"/>
				<path d="M40.59 262.25 L30.75 262.25" class="st25"/>
				<path d="M37.51 255.49 L30.75 262.25" class="st25"/>
				<path d="M30.75 252.41 L30.75 262.25" class="st25"/>
				<path d="M23.98 255.49 L30.75 262.25" class="st25"/>
				<path d="M20.91 262.25 L30.75 262.25" class="st25"/>
				<path d="M23.98 269.02 L30.75 262.25" class="st25"/>
				<path d="M30.75 272.09 L30.75 262.25" class="st25"/>
				<path d="M37.51 269.02 L30.75 262.25" class="st25"/>
				<path d="M40.59 262.25 L30.75 262.25" class="st25"/>
				<path d="M37.51 255.49 L30.75 262.25" class="st25"/>
				<path d="M30.75 252.41 L30.75 262.25" class="st25"/>
				<path d="M23.98 255.49 L30.75 262.25" class="st25"/>
			</g>
			<g id="shape215-185">
				<title>Sheet.215</title>
				<path d="M24.6 266 A3.6 3.6 -180 1 0 17.4 266 A3.6 3.6 -180 1 0 24.6 266 ZM28.2 252 A3.6 3.6 -180 1 0 21 252 A3.6
							 3.6 -180 1 0 28.2 252 ZM34.35 256.1 A3.6 3.6 -180 1 0 27.15 256.1 A3.6 3.6 -180 1 0 34.35 256.1 ZM36.4
							 260.2 A3.6 3.6 -180 1 0 29.2 260.2 A3.6 3.6 -180 1 0 36.4 260.2 ZM40.5 264.3 A3.6 3.6 -180 1 0 33.3
							 264.3 A3.6 3.6 -180 1 0 40.5 264.3 ZM32.85 257.75 A3.6 3.6 -180 1 0 25.65 257.75 A3.6 3.6 -180 1 0 32.85
							 257.75 ZM36.4 268.4 A3.6 3.6 -180 1 0 29.2 268.4 A3.6 3.6 -180 1 0 36.4 268.4 ZM32.3 266.35 A3.6 3.6
							 -180 1 0 25.1 266.35 A3.6 3.6 -180 1 0 32.3 266.35 ZM34.35 262.25 A3.6 3.6 -180 1 0 27.15 262.25 A3.6
							 3.6 -180 1 0 34.35 262.25 ZM27.58 269.02 A3.6 3.6 -180 1 0 20.38 269.02 A3.6 3.6 -180 1 0 27.58 269.02
							 ZM34.35 272.09 A3.6 3.6 -180 1 0 27.15 272.09 A3.6 3.6 -180 1 0 34.35 272.09 ZM32.3 260.2 A3.6 3.6 -180
							 1 0 25.1 260.2 A3.6 3.6 -180 1 0 32.3 260.2 ZM30.6 257 A3.6 3.6 -180 1 0 23.4 257 A3.6 3.6 -180 1 0
							 30.6 257 ZM41.11 255.49 A3.6 3.6 -180 1 0 33.91 255.49 A3.6 3.6 -180 1 0 41.11 255.49 ZM34.35 252.41
							 A3.6 3.6 -180 1 0 27.15 252.41 A3.6 3.6 -180 1 0 34.35 252.41 ZM27.58 255.49 A3.6 3.6 -180 1 0 20.38
							 255.49 A3.6 3.6 -180 1 0 27.58 255.49 ZM28.35 257.75 A3.6 3.6 -180 1 0 21.15 257.75 A3.6 3.6 -180 1
							 0 28.35 257.75 ZM27.58 269.02 A3.6 3.6 -180 1 0 20.38 269.02 A3.6 3.6 -180 1 0 27.58 269.02 ZM34.35
							 272.09 A3.6 3.6 -180 1 0 27.15 272.09 A3.6 3.6 -180 1 0 34.35 272.09 ZM224.1 347.37 A3.6 3.6 -180 1
							 0 216.9 347.37 A3.6 3.6 -180 1 0 224.1 347.37 ZM34.35 262.25 A3.6 3.6 -180 1 0 27.15 262.25 A3.6 3.6
							 -180 1 0 34.35 262.25 ZM41.11 255.49 A3.6 3.6 -180 1 0 33.91 255.49 A3.6 3.6 -180 1 0 41.11 255.49 ZM34.35
							 252.41 A3.6 3.6 -180 1 0 27.15 252.41 A3.6 3.6 -180 1 0 34.35 252.41 ZM27.58 255.49 A3.6 3.6 -180 1
							 0 20.38 255.49 A3.6 3.6 -180 1 0 27.58 255.49 ZM31.58 262.84 A3.6 3.6 -180 1 0 24.38 262.84 A3.6 3.6
							 -180 1 0 31.58 262.84 ZM27.58 269.02 A3.6 3.6 -180 1 0 20.38 269.02 A3.6 3.6 -180 1 0 27.58 269.02 ZM34.35
							 272.09 A3.6 3.6 -180 1 0 27.15 272.09 A3.6 3.6 -180 1 0 34.35 272.09 ZM41.11 269.02 A3.6 3.6 -180 1
							 0 33.91 269.02 A3.6 3.6 -180 1 0 41.11 269.02 ZM254.66 262.39 A3.6 3.6 -180 1 0 247.46 262.39 A3.6 3.6
							 -180 1 0 254.66 262.39 ZM41.11 255.49 A3.6 3.6 -180 1 0 33.91 255.49 A3.6 3.6 -180 1 0 41.11 255.49
							 ZM34.35 252.41 A3.6 3.6 -180 1 0 27.15 252.41 A3.6 3.6 -180 1 0 34.35 252.41 ZM27.58 255.49 A3.6 3.6
							 -180 1 0 20.38 255.49 A3.6 3.6 -180 1 0 27.58 255.49 ZM24.51 262.25 A3.6 3.6 -180 1 0 17.31 262.25 A3.6
							 3.6 -180 1 0 24.51 262.25 ZM27.58 269.02 A3.6 3.6 -180 1 0 20.38 269.02 A3.6 3.6 -180 1 0 27.58 269.02
							 ZM34.35 272.09 A3.6 3.6 -180 1 0 27.15 272.09 A3.6 3.6 -180 1 0 34.35 272.09 ZM41.11 269.02 A3.6 3.6
							 -180 1 0 33.91 269.02 A3.6 3.6 -180 1 0 41.11 269.02 ZM44.19 262.25 A3.6 3.6 -180 1 0 36.99 262.25 A3.6
							 3.6 -180 1 0 44.19 262.25 ZM41.11 255.49 A3.6 3.6 -180 1 0 33.91 255.49 A3.6 3.6 -180 1 0 41.11 255.49
							 ZM34.35 252.41 A3.6 3.6 -180 1 0 27.15 252.41 A3.6 3.6 -180 1 0 34.35 252.41 ZM27.58 255.49 A3.6 3.6
							 -180 1 0 20.38 255.49 A3.6 3.6 -180 1 0 27.58 255.49 ZM24.51 262.25 A3.6 3.6 -180 1 0 17.31 262.25 A3.6
							 3.6 -180 1 0 24.51 262.25 ZM27.58 269.02 A3.6 3.6 -180 1 0 20.38 269.02 A3.6 3.6 -180 1 0 27.58 269.02
							 ZM34.35 272.09 A3.6 3.6 -180 1 0 27.15 272.09 A3.6 3.6 -180 1 0 34.35 272.09 ZM41.11 269.02 A3.6 3.6
							 -180 1 0 33.91 269.02 A3.6 3.6 -180 1 0 41.11 269.02 ZM44.19 262.25 A3.6 3.6 -180 1 0 36.99 262.25 A3.6
							 3.6 -180 1 0 44.19 262.25 ZM41.11 255.49 A3.6 3.6 -180 1 0 33.91 255.49 A3.6 3.6 -180 1 0 41.11 255.49
							 ZM34.35 252.41 A3.6 3.6 -180 1 0 27.15 252.41 A3.6 3.6 -180 1 0 34.35 252.41 ZM27.58 255.49 A3.6 3.6
							 -180 1 0 20.38 255.49 A3.6 3.6 -180 1 0 27.58 255.49 ZM24.51 262.25 A3.6 3.6 -180 1 0 17.31 262.25 A3.6
							 3.6 -180 1 0 24.51 262.25 ZM27.58 269.02 A3.6 3.6 -180 1 0 20.38 269.02 A3.6 3.6 -180 1 0 27.58 269.02
							 ZM34.35 272.09 A3.6 3.6 -180 1 0 27.15 272.09 A3.6 3.6 -180 1 0 34.35 272.09 ZM41.11 269.02 A3.6 3.6
							 -180 1 0 33.91 269.02 A3.6 3.6 -180 1 0 41.11 269.02 ZM44.19 262.25 A3.6 3.6 -180 1 0 36.99 262.25 A3.6
							 3.6 -180 1 0 44.19 262.25 ZM41.11 255.49 A3.6 3.6 -180 1 0 33.91 255.49 A3.6 3.6 -180 1 0 41.11 255.49
							 ZM34.35 252.41 A3.6 3.6 -180 1 0 27.15 252.41 A3.6 3.6 -180 1 0 34.35 252.41 ZM27.58 255.49 A3.6 3.6
							 -180 1 0 20.38 255.49 A3.6 3.6 -180 1 0 27.58 255.49 ZM24.51 262.25 A3.6 3.6 -180 1 0 17.31 262.25 A3.6
							 3.6 -180 1 0 24.51 262.25 ZM27.58 269.02 A3.6 3.6 -180 1 0 20.38 269.02 A3.6 3.6 -180 1 0 27.58 269.02
							 ZM34.35 272.09 A3.6 3.6 -180 1 0 27.15 272.09 A3.6 3.6 -180 1 0 34.35 272.09 ZM41.11 269.02 A3.6 3.6
							 -180 1 0 33.91 269.02 A3.6 3.6 -180 1 0 41.11 269.02 ZM44.19 262.25 A3.6 3.6 -180 1 0 36.99 262.25 A3.6
							 3.6 -180 1 0 44.19 262.25 ZM41.11 255.49 A3.6 3.6 -180 1 0 33.91 255.49 A3.6 3.6 -180 1 0 41.11 255.49
							 ZM34.35 252.41 A3.6 3.6 -180 1 0 27.15 252.41 A3.6 3.6 -180 1 0 34.35 252.41 ZM27.58 255.49 A3.6 3.6
							 -180 1 0 20.38 255.49 A3.6 3.6 -180 1 0 27.58 255.49 Z" class="st26"/>
			</g>
			<g id="shape216-187">
				<title>Sheet.216</title>
				<ellipse cx="30.75" cy="262.25" rx="15.375" ry="15.375" class="st27"/>
			</g>
			<g id="shape217-189" transform="translate(21.1406,-21.1406)">
				<title>Sheet.217</title>
				<ellipse cx="9.60937" cy="283.391" rx="9.60937" ry="9.60937" class="st17"/>
			</g>
		</g>
		<g id="group276-191" transform="translate(53.125,-212.125)">
			<title>Sheet.276</title>
			<g id="group277-192">
				<title>Logo_Mark</title>
				<g id="shape278-193">
					<title>Sheet.278</title>
					<ellipse cx="10.125" cy="282.875" rx="10.125" ry="10.125" class="st28"/>
				</g>
				<g id="shape279-197" transform="translate(4.49441,-1.24677)">
					<title>Sheet.279</title>
					<path d="M5.67 275.06 L0 283.69 L3.22 285.79 L3.75 284.98 L5.43 293 L11.01 284.32 L7.88 282.27 L7.35 283.1 L5.67
								 275.06 ZM8.21 283.72 L9.59 284.64 L5.92 290.27 L4.23 282.24 L2.87 284.33 L1.52 283.45 L5.21 277.81
								 L6.88 285.77 L8.21 283.72 Z" class="st29"/>
				</g>
			</g>
		</g>
		<g id="group208-199" transform="translate(32.5036,-18.2512)">
			<title>Ring network.208</title>
			<g id="shape209-200">
				<title>Sheet.209</title>
				<path d="M28.7 266.35 L30.75 262.25" class="st25"/>
				<path d="M32.8 268.4 L30.75 262.25" class="st25"/>
				<path d="M29.25 263 L30.75 262.25" class="st25"/>
				<path d="M36.9 264.3 L30.75 262.25" class="st25"/>
				<path d="M32.8 260.2 L30.75 262.25" class="st25"/>
				<path d="M30.75 256.1 L30.75 262.25" class="st25"/>
				<path d="M24.6 252 L30.75 262.25" class="st25"/>
				<path d="M25.12 262.19 L30.75 262.25" class="st25"/>
				<path d="M220.5 174.5 L30.75 262.25" class="st25"/>
				<path d="M23.98 269.02 L30.75 262.25" class="st25"/>
				<path d="M30.75 272.09 L30.75 262.25" class="st25"/>
				<path d="M28.7 260.2 L30.75 262.25" class="st25"/>
				<path d="M27 257 L30.75 262.25" class="st25"/>
				<path d="M37.51 255.49 L30.75 262.25" class="st25"/>
				<path d="M30.75 252.41 L30.75 262.25" class="st25"/>
				<path d="M23.98 255.49 L30.75 262.25" class="st25"/>
				<path d="M29.25 263 L30.75 262.25" class="st25"/>
				<path d="M23.98 269.02 L30.75 262.25" class="st25"/>
				<path d="M30.75 272.09 L30.75 262.25" class="st25"/>
				<path d="M242.38 246.45 L30.75 262.25" class="st25"/>
				<path d="M37.51 255.49 L30.75 262.25" class="st25"/>
				<path d="M30.75 252.41 L30.75 262.25" class="st25"/>
				<path d="M23.98 255.49 L30.75 262.25" class="st25"/>
				<path d="M20.91 262.25 L30.75 262.25" class="st25"/>
				<path d="M23.98 269.02 L30.75 262.25" class="st25"/>
				<path d="M30.75 272.09 L30.75 262.25" class="st25"/>
				<path d="M37.51 269.02 L30.75 262.25" class="st25"/>
				<path d="M40.59 262.25 L30.75 262.25" class="st25"/>
				<path d="M37.51 255.49 L30.75 262.25" class="st25"/>
				<path d="M30.75 252.41 L30.75 262.25" class="st25"/>
				<path d="M23.98 255.49 L30.75 262.25" class="st25"/>
				<path d="M20.91 262.25 L30.75 262.25" class="st25"/>
				<path d="M23.98 269.02 L30.75 262.25" class="st25"/>
				<path d="M30.75 272.09 L30.75 262.25" class="st25"/>
				<path d="M37.51 269.02 L30.75 262.25" class="st25"/>
				<path d="M40.59 262.25 L30.75 262.25" class="st25"/>
				<path d="M37.51 255.49 L30.75 262.25" class="st25"/>
				<path d="M30.75 252.41 L30.75 262.25" class="st25"/>
				<path d="M23.98 255.49 L30.75 262.25" class="st25"/>
				<path d="M20.91 262.25 L30.75 262.25" class="st25"/>
				<path d="M23.98 269.02 L30.75 262.25" class="st25"/>
				<path d="M30.75 272.09 L30.75 262.25" class="st25"/>
				<path d="M37.51 269.02 L30.75 262.25" class="st25"/>
				<path d="M40.59 262.25 L30.75 262.25" class="st25"/>
				<path d="M37.51 255.49 L30.75 262.25" class="st25"/>
				<path d="M30.75 252.41 L30.75 262.25" class="st25"/>
				<path d="M23.98 255.49 L30.75 262.25" class="st25"/>
				<path d="M20.91 262.25 L30.75 262.25" class="st25"/>
				<path d="M23.98 269.02 L30.75 262.25" class="st25"/>
				<path d="M30.75 272.09 L30.75 262.25" class="st25"/>
				<path d="M37.51 269.02 L30.75 262.25" class="st25"/>
				<path d="M40.59 262.25 L30.75 262.25" class="st25"/>
				<path d="M37.51 255.49 L30.75 262.25" class="st25"/>
				<path d="M30.75 252.41 L30.75 262.25" class="st25"/>
				<path d="M23.98 255.49 L30.75 262.25" class="st25"/>
				<path d="M20.91 262.25 L30.75 262.25" class="st25"/>
				<path d="M23.98 269.02 L30.75 262.25" class="st25"/>
				<path d="M30.75 272.09 L30.75 262.25" class="st25"/>
				<path d="M37.51 269.02 L30.75 262.25" class="st25"/>
				<path d="M40.59 262.25 L30.75 262.25" class="st25"/>
				<path d="M37.51 255.49 L30.75 262.25" class="st25"/>
				<path d="M30.75 252.41 L30.75 262.25" class="st25"/>
				<path d="M23.98 255.49 L30.75 262.25" class="st25"/>
			</g>
			<g id="shape210-265">
				<title>Sheet.210</title>
				<path d="M28.72 262.19 A3.6 3.6 -180 1 0 21.52 262.19 A3.6 3.6 -180 1 0 28.72 262.19 ZM28.2 252 A3.6 3.6 -180 1 0
							 21 252 A3.6 3.6 -180 1 0 28.2 252 ZM34.35 256.1 A3.6 3.6 -180 1 0 27.15 256.1 A3.6 3.6 -180 1 0 34.35
							 256.1 ZM36.4 260.2 A3.6 3.6 -180 1 0 29.2 260.2 A3.6 3.6 -180 1 0 36.4 260.2 ZM40.5 264.3 A3.6 3.6 -180
							 1 0 33.3 264.3 A3.6 3.6 -180 1 0 40.5 264.3 ZM32.85 263 A3.6 3.6 -180 1 0 25.65 263 A3.6 3.6 -180 1
							 0 32.85 263 ZM36.4 268.4 A3.6 3.6 -180 1 0 29.2 268.4 A3.6 3.6 -180 1 0 36.4 268.4 ZM32.3 266.35 A3.6
							 3.6 -180 1 0 25.1 266.35 A3.6 3.6 -180 1 0 32.3 266.35 ZM224.1 174.5 A3.6 3.6 -180 1 0 216.9 174.5 A3.6
							 3.6 -180 1 0 224.1 174.5 ZM27.58 269.02 A3.6 3.6 -180 1 0 20.38 269.02 A3.6 3.6 -180 1 0 27.58 269.02
							 ZM34.35 272.09 A3.6 3.6 -180 1 0 27.15 272.09 A3.6 3.6 -180 1 0 34.35 272.09 ZM32.3 260.2 A3.6 3.6 -180
							 1 0 25.1 260.2 A3.6 3.6 -180 1 0 32.3 260.2 ZM30.6 257 A3.6 3.6 -180 1 0 23.4 257 A3.6 3.6 -180 1 0
							 30.6 257 ZM41.11 255.49 A3.6 3.6 -180 1 0 33.91 255.49 A3.6 3.6 -180 1 0 41.11 255.49 ZM34.35 252.41
							 A3.6 3.6 -180 1 0 27.15 252.41 A3.6 3.6 -180 1 0 34.35 252.41 ZM27.58 255.49 A3.6 3.6 -180 1 0 20.38
							 255.49 A3.6 3.6 -180 1 0 27.58 255.49 ZM32.85 263 A3.6 3.6 -180 1 0 25.65 263 A3.6 3.6 -180 1 0 32.85
							 263 ZM27.58 269.02 A3.6 3.6 -180 1 0 20.38 269.02 A3.6 3.6 -180 1 0 27.58 269.02 ZM34.35 272.09 A3.6
							 3.6 -180 1 0 27.15 272.09 A3.6 3.6 -180 1 0 34.35 272.09 ZM245.98 246.45 A3.6 3.6 -180 1 0 238.78 246.45
							 A3.6 3.6 -180 1 0 245.98 246.45 ZM34.35 262.25 A3.6 3.6 -180 1 0 27.15 262.25 A3.6 3.6 -180 1 0 34.35
							 262.25 ZM41.11 255.49 A3.6 3.6 -180 1 0 33.91 255.49 A3.6 3.6 -180 1 0 41.11 255.49 ZM34.35 252.41 A3.6
							 3.6 -180 1 0 27.15 252.41 A3.6 3.6 -180 1 0 34.35 252.41 ZM27.58 255.49 A3.6 3.6 -180 1 0 20.38 255.49
							 A3.6 3.6 -180 1 0 27.58 255.49 ZM24.51 262.25 A3.6 3.6 -180 1 0 17.31 262.25 A3.6 3.6 -180 1 0 24.51
							 262.25 ZM27.58 269.02 A3.6 3.6 -180 1 0 20.38 269.02 A3.6 3.6 -180 1 0 27.58 269.02 ZM34.35 272.09 A3.6
							 3.6 -180 1 0 27.15 272.09 A3.6 3.6 -180 1 0 34.35 272.09 ZM41.11 269.02 A3.6 3.6 -180 1 0 33.91 269.02
							 A3.6 3.6 -180 1 0 41.11 269.02 ZM44.19 262.25 A3.6 3.6 -180 1 0 36.99 262.25 A3.6 3.6 -180 1 0 44.19
							 262.25 ZM41.11 255.49 A3.6 3.6 -180 1 0 33.91 255.49 A3.6 3.6 -180 1 0 41.11 255.49 ZM34.35 252.41 A3.6
							 3.6 -180 1 0 27.15 252.41 A3.6 3.6 -180 1 0 34.35 252.41 ZM27.58 255.49 A3.6 3.6 -180 1 0 20.38 255.49
							 A3.6 3.6 -180 1 0 27.58 255.49 ZM24.51 262.25 A3.6 3.6 -180 1 0 17.31 262.25 A3.6 3.6 -180 1 0 24.51
							 262.25 ZM27.58 269.02 A3.6 3.6 -180 1 0 20.38 269.02 A3.6 3.6 -180 1 0 27.58 269.02 ZM34.35 272.09 A3.6
							 3.6 -180 1 0 27.15 272.09 A3.6 3.6 -180 1 0 34.35 272.09 ZM41.11 269.02 A3.6 3.6 -180 1 0 33.91 269.02
							 A3.6 3.6 -180 1 0 41.11 269.02 ZM44.19 262.25 A3.6 3.6 -180 1 0 36.99 262.25 A3.6 3.6 -180 1 0 44.19
							 262.25 ZM41.11 255.49 A3.6 3.6 -180 1 0 33.91 255.49 A3.6 3.6 -180 1 0 41.11 255.49 ZM34.35 252.41 A3.6
							 3.6 -180 1 0 27.15 252.41 A3.6 3.6 -180 1 0 34.35 252.41 ZM27.58 255.49 A3.6 3.6 -180 1 0 20.38 255.49
							 A3.6 3.6 -180 1 0 27.58 255.49 ZM24.51 262.25 A3.6 3.6 -180 1 0 17.31 262.25 A3.6 3.6 -180 1 0 24.51
							 262.25 ZM27.58 269.02 A3.6 3.6 -180 1 0 20.38 269.02 A3.6 3.6 -180 1 0 27.58 269.02 ZM34.35 272.09 A3.6
							 3.6 -180 1 0 27.15 272.09 A3.6 3.6 -180 1 0 34.35 272.09 ZM41.11 269.02 A3.6 3.6 -180 1 0 33.91 269.02
							 A3.6 3.6 -180 1 0 41.11 269.02 ZM44.19 262.25 A3.6 3.6 -180 1 0 36.99 262.25 A3.6 3.6 -180 1 0 44.19
							 262.25 ZM41.11 255.49 A3.6 3.6 -180 1 0 33.91 255.49 A3.6 3.6 -180 1 0 41.11 255.49 ZM34.35 252.41 A3.6
							 3.6 -180 1 0 27.15 252.41 A3.6 3.6 -180 1 0 34.35 252.41 ZM27.58 255.49 A3.6 3.6 -180 1 0 20.38 255.49
							 A3.6 3.6 -180 1 0 27.58 255.49 ZM24.51 262.25 A3.6 3.6 -180 1 0 17.31 262.25 A3.6 3.6 -180 1 0 24.51
							 262.25 ZM27.58 269.02 A3.6 3.6 -180 1 0 20.38 269.02 A3.6 3.6 -180 1 0 27.58 269.02 ZM34.35 272.09 A3.6
							 3.6 -180 1 0 27.15 272.09 A3.6 3.6 -180 1 0 34.35 272.09 ZM41.11 269.02 A3.6 3.6 -180 1 0 33.91 269.02
							 A3.6 3.6 -180 1 0 41.11 269.02 ZM44.19 262.25 A3.6 3.6 -180 1 0 36.99 262.25 A3.6 3.6 -180 1 0 44.19
							 262.25 ZM41.11 255.49 A3.6 3.6 -180 1 0 33.91 255.49 A3.6 3.6 -180 1 0 41.11 255.49 ZM34.35 252.41 A3.6
							 3.6 -180 1 0 27.15 252.41 A3.6 3.6 -180 1 0 34.35 252.41 ZM27.58 255.49 A3.6 3.6 -180 1 0 20.38 255.49
							 A3.6 3.6 -180 1 0 27.58 255.49 ZM24.51 262.25 A3.6 3.6 -180 1 0 17.31 262.25 A3.6 3.6 -180 1 0 24.51
							 262.25 ZM27.58 269.02 A3.6 3.6 -180 1 0 20.38 269.02 A3.6 3.6 -180 1 0 27.58 269.02 ZM34.35 272.09 A3.6
							 3.6 -180 1 0 27.15 272.09 A3.6 3.6 -180 1 0 34.35 272.09 ZM41.11 269.02 A3.6 3.6 -180 1 0 33.91 269.02
							 A3.6 3.6 -180 1 0 41.11 269.02 ZM44.19 262.25 A3.6 3.6 -180 1 0 36.99 262.25 A3.6 3.6 -180 1 0 44.19
							 262.25 ZM41.11 255.49 A3.6 3.6 -180 1 0 33.91 255.49 A3.6 3.6 -180 1 0 41.11 255.49 ZM34.35 252.41 A3.6
							 3.6 -180 1 0 27.15 252.41 A3.6 3.6 -180 1 0 34.35 252.41 ZM27.58 255.49 A3.6 3.6 -180 1 0 20.38 255.49
							 A3.6 3.6 -180 1 0 27.58 255.49 Z" class="st26"/>
			</g>
			<g id="shape211-267">
				<title>Sheet.211</title>
				<ellipse cx="30.75" cy="262.25" rx="15.375" ry="15.375" class="st27"/>
			</g>
			<g id="shape212-269" transform="translate(21.1406,-21.1406)">
				<title>Sheet.212</title>
				<ellipse cx="9.60937" cy="283.391" rx="9.60937" ry="9.60937" class="st17"/>
			</g>
		</g>
		<g id="group311-271" transform="translate(53.125,-38.4988)">
			<title>Sheet.311</title>
			<g id="group312-272">
				<title>Logo_Mark</title>
				<g id="shape313-273">
					<title>Sheet.313</title>
					<ellipse cx="10.125" cy="282.875" rx="10.125" ry="10.125" class="st28"/>
				</g>
				<g id="shape314-276" transform="translate(4.49441,-1.24677)">
					<title>Sheet.314</title>
					<path d="M5.67 275.06 L0 283.69 L3.22 285.79 L3.75 284.98 L5.43 293 L11.01 284.32 L7.88 282.27 L7.35 283.1 L5.67
								 275.06 ZM8.21 283.72 L9.59 284.64 L5.92 290.27 L4.23 282.24 L2.87 284.33 L1.52 283.45 L5.21 277.81
								 L6.88 285.77 L8.21 283.72 Z" class="st29"/>
				</g>
			</g>
		</g>
		<g id="group369-278" transform="translate(222.251,-106.002)">
			<title>Sheet.369</title>
			<g id="group73-279" transform="translate(0.00120861,-0.00120861)">
				<title>Ring network.73</title>
				<g id="shape74-280">
					<title>Sheet.74</title>
					<path d="M28.7 266.35 L30.75 262.25" class="st30"/>
					<path d="M32.8 268.4 L30.75 262.25" class="st30"/>
					<path d="M57.15 187.54 L30.75 262.25" class="st30"/>
					<path d="M36.9 264.3 L30.75 262.25" class="st30"/>
					<path d="M32.8 260.2 L30.75 262.25" class="st30"/>
					<path d="M30.75 256.1 L30.75 262.25" class="st30"/>
					<path d="M24.6 252 L30.75 262.25" class="st30"/>
					<path d="M21 266 L30.75 262.25" class="st30"/>
					<path d="M23.98 269.02 L30.75 262.25" class="st30"/>
					<path d="M30.75 272.09 L30.75 262.25" class="st30"/>
					<path d="M28.7 260.2 L30.75 262.25" class="st30"/>
					<path d="M27 257 L30.75 262.25" class="st30"/>
					<path d="M37.51 255.49 L30.75 262.25" class="st30"/>
					<path d="M30.75 252.41 L30.75 262.25" class="st30"/>
					<path d="M23.98 255.49 L30.75 262.25" class="st30"/>
					<path d="M25.5 262.62 L30.75 262.25" class="st30"/>
					<path d="M23.98 269.02 L30.75 262.25" class="st30"/>
					<path d="M30.75 272.09 L30.75 262.25" class="st30"/>
					<path d="M53.74 335.98 L30.75 262.25" class="st30"/>
					<path d="M37.51 255.49 L30.75 262.25" class="st30"/>
					<path d="M30.75 252.41 L30.75 262.25" class="st30"/>
					<path d="M23.98 255.49 L30.75 262.25" class="st30"/>
					<path d="M20.91 262.25 L30.75 262.25" class="st30"/>
					<path d="M23.98 269.02 L30.75 262.25" class="st30"/>
					<path d="M30.75 272.09 L30.75 262.25" class="st30"/>
					<path d="M37.51 269.02 L30.75 262.25" class="st30"/>
					<path d="M40.59 262.25 L30.75 262.25" class="st30"/>
					<path d="M37.51 255.49 L30.75 262.25" class="st30"/>
					<path d="M30.75 252.41 L30.75 262.25" class="st30"/>
					<path d="M23.98 255.49 L30.75 262.25" class="st30"/>
					<path d="M20.91 262.25 L30.75 262.25" class="st30"/>
					<path d="M23.98 269.02 L30.75 262.25" class="st30"/>
					<path d="M30.75 272.09 L30.75 262.25" class="st30"/>
					<path d="M37.51 269.02 L30.75 262.25" class="st30"/>
					<path d="M40.59 262.25 L30.75 262.25" class="st30"/>
					<path d="M37.51 255.49 L30.75 262.25" class="st30"/>
					<path d="M30.75 252.41 L30.75 262.25" class="st30"/>
					<path d="M23.98 255.49 L30.75 262.25" class="st30"/>
					<path d="M20.91 262.25 L30.75 262.25" class="st30"/>
					<path d="M23.98 269.02 L30.75 262.25" class="st30"/>
					<path d="M30.75 272.09 L30.75 262.25" class="st30"/>
					<path d="M37.51 269.02 L30.75 262.25" class="st30"/>
					<path d="M40.59 262.25 L30.75 262.25" class="st30"/>
					<path d="M37.51 255.49 L30.75 262.25" class="st30"/>
					<path d="M30.75 252.41 L30.75 262.25" class="st30"/>
					<path d="M23.98 255.49 L30.75 262.25" class="st30"/>
					<path d="M20.91 262.25 L30.75 262.25" class="st30"/>
					<path d="M23.98 269.02 L30.75 262.25" class="st30"/>
					<path d="M30.75 272.09 L30.75 262.25" class="st30"/>
					<path d="M37.51 269.02 L30.75 262.25" class="st30"/>
					<path d="M40.59 262.25 L30.75 262.25" class="st30"/>
					<path d="M37.51 255.49 L30.75 262.25" class="st30"/>
					<path d="M30.75 252.41 L30.75 262.25" class="st30"/>
					<path d="M23.98 255.49 L30.75 262.25" class="st30"/>
					<path d="M20.91 262.25 L30.75 262.25" class="st30"/>
					<path d="M23.98 269.02 L30.75 262.25" class="st30"/>
					<path d="M30.75 272.09 L30.75 262.25" class="st30"/>
					<path d="M37.51 269.02 L30.75 262.25" class="st30"/>
					<path d="M40.59 262.25 L30.75 262.25" class="st30"/>
					<path d="M37.51 255.49 L30.75 262.25" class="st30"/>
					<path d="M30.75 252.41 L30.75 262.25" class="st30"/>
					<path d="M23.98 255.49 L30.75 262.25" class="st30"/>
				</g>
				<g id="shape75-344">
					<title>Sheet.75</title>
					<path d="M24.6 266 A3.6 3.6 -180 1 0 17.4 266 A3.6 3.6 -180 1 0 24.6 266 ZM28.2 252 A3.6 3.6 -180 1 0 21 252
								 A3.6 3.6 -180 1 0 28.2 252 ZM34.35 256.1 A3.6 3.6 -180 1 0 27.15 256.1 A3.6 3.6 -180 1 0 34.35 256.1
								 ZM36.4 260.2 A3.6 3.6 -180 1 0 29.2 260.2 A3.6 3.6 -180 1 0 36.4 260.2 ZM40.5 264.3 A3.6 3.6 -180
								 1 0 33.3 264.3 A3.6 3.6 -180 1 0 40.5 264.3 ZM60.75 187.54 A3.6 3.6 -180 1 0 53.55 187.54 A3.6 3.6
								 -180 1 0 60.75 187.54 ZM36.4 268.4 A3.6 3.6 -180 1 0 29.2 268.4 A3.6 3.6 -180 1 0 36.4 268.4 ZM32.3
								 266.35 A3.6 3.6 -180 1 0 25.1 266.35 A3.6 3.6 -180 1 0 32.3 266.35 ZM34.35 262.25 A3.6 3.6 -180
								 1 0 27.15 262.25 A3.6 3.6 -180 1 0 34.35 262.25 ZM27.58 269.02 A3.6 3.6 -180 1 0 20.38 269.02 A3.6
								 3.6 -180 1 0 27.58 269.02 ZM34.35 272.09 A3.6 3.6 -180 1 0 27.15 272.09 A3.6 3.6 -180 1 0 34.35
								 272.09 ZM32.3 260.2 A3.6 3.6 -180 1 0 25.1 260.2 A3.6 3.6 -180 1 0 32.3 260.2 ZM30.6 257 A3.6 3.6
								 -180 1 0 23.4 257 A3.6 3.6 -180 1 0 30.6 257 ZM41.11 255.49 A3.6 3.6 -180 1 0 33.91 255.49 A3.6
								 3.6 -180 1 0 41.11 255.49 ZM34.35 252.41 A3.6 3.6 -180 1 0 27.15 252.41 A3.6 3.6 -180 1 0 34.35
								 252.41 ZM27.58 255.49 A3.6 3.6 -180 1 0 20.38 255.49 A3.6 3.6 -180 1 0 27.58 255.49 ZM29.1 262.62
								 A3.6 3.6 -180 1 0 21.9 262.62 A3.6 3.6 -180 1 0 29.1 262.62 ZM27.58 269.02 A3.6 3.6 -180 1 0 20.38
								 269.02 A3.6 3.6 -180 1 0 27.58 269.02 ZM34.35 272.09 A3.6 3.6 -180 1 0 27.15 272.09 A3.6 3.6 -180
								 1 0 34.35 272.09 ZM57.34 335.98 A3.6 3.6 -180 1 0 50.14 335.98 A3.6 3.6 -180 1 0 57.34 335.98 ZM34.35
								 262.25 A3.6 3.6 -180 1 0 27.15 262.25 A3.6 3.6 -180 1 0 34.35 262.25 ZM41.11 255.49 A3.6 3.6 -180
								 1 0 33.91 255.49 A3.6 3.6 -180 1 0 41.11 255.49 ZM34.35 252.41 A3.6 3.6 -180 1 0 27.15 252.41 A3.6
								 3.6 -180 1 0 34.35 252.41 ZM27.58 255.49 A3.6 3.6 -180 1 0 20.38 255.49 A3.6 3.6 -180 1 0 27.58
								 255.49 ZM24.51 262.25 A3.6 3.6 -180 1 0 17.31 262.25 A3.6 3.6 -180 1 0 24.51 262.25 ZM27.58 269.02
								 A3.6 3.6 -180 1 0 20.38 269.02 A3.6 3.6 -180 1 0 27.58 269.02 ZM34.35 272.09 A3.6 3.6 -180 1 0 27.15
								 272.09 A3.6 3.6 -180 1 0 34.35 272.09 ZM41.11 269.02 A3.6 3.6 -180 1 0 33.91 269.02 A3.6 3.6 -180
								 1 0 41.11 269.02 ZM44.19 262.25 A3.6 3.6 -180 1 0 36.99 262.25 A3.6 3.6 -180 1 0 44.19 262.25 ZM41.11
								 255.49 A3.6 3.6 -180 1 0 33.91 255.49 A3.6 3.6 -180 1 0 41.11 255.49 ZM34.35 252.41 A3.6 3.6 -180
								 1 0 27.15 252.41 A3.6 3.6 -180 1 0 34.35 252.41 ZM27.58 255.49 A3.6 3.6 -180 1 0 20.38 255.49 A3.6
								 3.6 -180 1 0 27.58 255.49 ZM24.51 262.25 A3.6 3.6 -180 1 0 17.31 262.25 A3.6 3.6 -180 1 0 24.51
								 262.25 ZM27.58 269.02 A3.6 3.6 -180 1 0 20.38 269.02 A3.6 3.6 -180 1 0 27.58 269.02 ZM34.35 272.09
								 A3.6 3.6 -180 1 0 27.15 272.09 A3.6 3.6 -180 1 0 34.35 272.09 ZM41.11 269.02 A3.6 3.6 -180 1 0 33.91
								 269.02 A3.6 3.6 -180 1 0 41.11 269.02 ZM44.19 262.25 A3.6 3.6 -180 1 0 36.99 262.25 A3.6 3.6 -180
								 1 0 44.19 262.25 ZM41.11 255.49 A3.6 3.6 -180 1 0 33.91 255.49 A3.6 3.6 -180 1 0 41.11 255.49 ZM34.35
								 252.41 A3.6 3.6 -180 1 0 27.15 252.41 A3.6 3.6 -180 1 0 34.35 252.41 ZM27.58 255.49 A3.6 3.6 -180
								 1 0 20.38 255.49 A3.6 3.6 -180 1 0 27.58 255.49 ZM24.51 262.25 A3.6 3.6 -180 1 0 17.31 262.25 A3.6
								 3.6 -180 1 0 24.51 262.25 ZM27.58 269.02 A3.6 3.6 -180 1 0 20.38 269.02 A3.6 3.6 -180 1 0 27.58
								 269.02 ZM34.35 272.09 A3.6 3.6 -180 1 0 27.15 272.09 A3.6 3.6 -180 1 0 34.35 272.09 ZM41.11 269.02
								 A3.6 3.6 -180 1 0 33.91 269.02 A3.6 3.6 -180 1 0 41.11 269.02 ZM44.19 262.25 A3.6 3.6 -180 1 0 36.99
								 262.25 A3.6 3.6 -180 1 0 44.19 262.25 ZM41.11 255.49 A3.6 3.6 -180 1 0 33.91 255.49 A3.6 3.6 -180
								 1 0 41.11 255.49 ZM34.35 252.41 A3.6 3.6 -180 1 0 27.15 252.41 A3.6 3.6 -180 1 0 34.35 252.41 ZM27.58
								 255.49 A3.6 3.6 -180 1 0 20.38 255.49 A3.6 3.6 -180 1 0 27.58 255.49 ZM24.51 262.25 A3.6 3.6 -180
								 1 0 17.31 262.25 A3.6 3.6 -180 1 0 24.51 262.25 ZM27.58 269.02 A3.6 3.6 -180 1 0 20.38 269.02 A3.6
								 3.6 -180 1 0 27.58 269.02 ZM34.35 272.09 A3.6 3.6 -180 1 0 27.15 272.09 A3.6 3.6 -180 1 0 34.35
								 272.09 ZM41.11 269.02 A3.6 3.6 -180 1 0 33.91 269.02 A3.6 3.6 -180 1 0 41.11 269.02 ZM44.19 262.25
								 A3.6 3.6 -180 1 0 36.99 262.25 A3.6 3.6 -180 1 0 44.19 262.25 ZM41.11 255.49 A3.6 3.6 -180 1 0 33.91
								 255.49 A3.6 3.6 -180 1 0 41.11 255.49 ZM34.35 252.41 A3.6 3.6 -180 1 0 27.15 252.41 A3.6 3.6 -180
								 1 0 34.35 252.41 ZM27.58 255.49 A3.6 3.6 -180 1 0 20.38 255.49 A3.6 3.6 -180 1 0 27.58 255.49 ZM24.51
								 262.25 A3.6 3.6 -180 1 0 17.31 262.25 A3.6 3.6 -180 1 0 24.51 262.25 ZM27.58 269.02 A3.6 3.6 -180
								 1 0 20.38 269.02 A3.6 3.6 -180 1 0 27.58 269.02 ZM34.35 272.09 A3.6 3.6 -180 1 0 27.15 272.09 A3.6
								 3.6 -180 1 0 34.35 272.09 ZM41.11 269.02 A3.6 3.6 -180 1 0 33.91 269.02 A3.6 3.6 -180 1 0 41.11
								 269.02 ZM44.19 262.25 A3.6 3.6 -180 1 0 36.99 262.25 A3.6 3.6 -180 1 0 44.19 262.25 ZM41.11 255.49
								 A3.6 3.6 -180 1 0 33.91 255.49 A3.6 3.6 -180 1 0 41.11 255.49 ZM34.35 252.41 A3.6 3.6 -180 1 0 27.15
								 252.41 A3.6 3.6 -180 1 0 34.35 252.41 ZM27.58 255.49 A3.6 3.6 -180 1 0 20.38 255.49 A3.6 3.6 -180
								 1 0 27.58 255.49 Z" class="st31"/>
				</g>
				<g id="shape76-346">
					<title>Sheet.76</title>
					<ellipse cx="30.75" cy="262.25" rx="15.375" ry="15.375" class="st32"/>
				</g>
				<g id="shape77-348" transform="translate(21.1406,-21.1406)">
					<title>Sheet.77</title>
					<ellipse cx="9.60937" cy="283.391" rx="9.60937" ry="9.60937" class="st31"/>
				</g>
			</g>
			<g id="shape220-350" transform="translate(42.655,-24.1851)">
				<title>Sheet.220</title>
				<desc>ziti-fabric-router-br</desc>
				<rect x="0" y="280.625" width="113.344" height="12.375" class="st33"/>
				<text x="4" y="290.41" class="st23">ziti-fabric-router-br</text>			</g>
			<g id="group335-353" transform="translate(20.9988,-20.2476)">
				<title>Sheet.335</title>
				<g id="group336-354">
					<title>Logo_Mark</title>
					<g id="shape337-355">
						<title>Sheet.337</title>
						<ellipse cx="10.125" cy="282.875" rx="10.125" ry="10.125" class="st28"/>
					</g>
					<g id="shape338-358" transform="translate(4.49441,-1.24677)">
						<title>Sheet.338</title>
						<path d="M5.67 275.06 L0 283.69 L3.22 285.79 L3.75 284.98 L5.43 293 L11.01 284.32 L7.88 282.27 L7.35 283.1
									 L5.67 275.06 ZM8.21 283.72 L9.59 284.64 L5.92 290.27 L4.23 282.24 L2.87 284.33 L1.52 283.45
									 L5.21 277.81 L6.88 285.77 L8.21 283.72 Z" class="st29"/>
					</g>
				</g>
			</g>
		</g>
		<g id="group299-360" transform="translate(268.059,-197.934)">
			<title>Sheet.299</title>
			<g id="group300-361">
				<title>Logo_Mark</title>
				<g id="shape301-362">
					<title>Sheet.301</title>
					<ellipse cx="10.125" cy="282.875" rx="10.125" ry="10.125" class="st28"/>
				</g>
				<g id="shape302-365" transform="translate(4.49441,-1.24677)">
					<title>Sheet.302</title>
					<path d="M5.67 275.06 L0 283.69 L3.22 285.79 L3.75 284.98 L5.43 293 L11.01 284.32 L7.88 282.27 L7.35 283.1 L5.67
								 275.06 ZM8.21 283.72 L9.59 284.64 L5.92 290.27 L4.23 282.24 L2.87 284.33 L1.52 283.45 L5.21 277.81
								 L6.88 285.77 L8.21 283.72 Z" class="st29"/>
				</g>
			</g>
		</g>
		<g id="group303-367" transform="translate(264.625,-54.546)">
			<title>Sheet.303</title>
			<g id="group304-368">
				<title>Logo_Mark</title>
				<g id="shape305-369">
					<title>Sheet.305</title>
					<ellipse cx="10.125" cy="282.875" rx="10.125" ry="10.125" class="st28"/>
				</g>
				<g id="shape306-372" transform="translate(4.49441,-1.24677)">
					<title>Sheet.306</title>
					<path d="M5.67 275.06 L0 283.69 L3.22 285.79 L3.75 284.98 L5.43 293 L11.01 284.32 L7.88 282.27 L7.35 283.1 L5.67
								 275.06 ZM8.21 283.72 L9.59 284.64 L5.92 290.27 L4.23 282.24 L2.87 284.33 L1.52 283.45 L5.21 277.81
								 L6.88 285.77 L8.21 283.72 Z" class="st29"/>
				</g>
			</g>
		</g>
		<g id="group389-374" transform="translate(34,-72.25)">
			<title>Sheet.389</title>
			<g id="shape387-375">
				<title>Process.387</title>
				<desc>ZITI ADMIN CONSOLE</desc>
				<rect x="0" y="266" width="58.5" height="27" class="st34"/>
				<text x="5.85" y="277.1" class="st35">ZITI ADMIN<tspan x="10.33" dy="1.2em" class="st36">CONSOLE</tspan></text>			</g>
			<g id="group331-379" transform="translate(17.7891,-22.0781)">
				<title>Sheet.331</title>
				<g id="group332-380">
					<title>Logo_Mark</title>
					<g id="shape333-381">
						<title>Sheet.333</title>
						<ellipse cx="11.4609" cy="281.539" rx="11.4609" ry="11.4609" class="st28"/>
					</g>
					<g id="shape334-384" transform="translate(5.08743,-1.41128)">
						<title>Sheet.334</title>
						<path d="M6.42 272.7 L0 282.46 L3.64 284.84 L4.25 283.92 L6.15 293 L12.46 283.18 L8.92 280.86 L8.32 281.79
									 L6.42 272.7 ZM9.3 282.5 L10.86 283.54 L6.7 289.9 L4.79 280.82 L3.24 283.19 L1.72 282.19 L5.9
									 275.8 L7.78 284.82 L9.3 282.5 Z" class="st29"/>
					</g>
				</g>
			</g>
		</g>
		<g id="group396-386" transform="translate(20.5,-130.75)">
			<title>Sheet.396</title>
			<g id="shape391-387">
				<title>Process.391</title>
				<desc>ZITI CONTROLLER</desc>
				<rect x="0" y="273.312" width="84.375" height="19.6875" class="st34"/>
				<text x="5.77" y="288.6" class="st35">ZITI CONTROLLER</text>			</g>
			<g id="group392-390" transform="translate(22.1794,-13.3739)">
				<title>Sheet.392</title>
				<g id="shape376-391">
					<title>Rounded Rectangle.819</title>
					<path d="M1.9 293 L38.07 293 A1.90368 1.90368 -180 0 0 39.98 291.1 L39.98 255.28 A1.90368 1.90368 -180 0 0 38.07
								 253.37 L1.9 253.37 A1.90368 1.90368 -180 0 0 0 255.28 L0 291.1 A1.90368 1.90368 -180 0 0 1.9 293
								 Z" class="st37"/>
				</g>
				<g id="group377-393" transform="translate(-250.835,295.972) rotate(-90.3)">
					<title>Ring network</title>
					<g id="shape378-394">
						<title>Sheet.378</title>
						<path d="M23.3 272.58 L22.06 270.94" class="st38"/>
						<path d="M23.3 272.58 L22.06 270.94" class="st38"/>
						<path d="M20.67 269.07 L22.06 270.94" class="st38"/>
						<path d="M37.22 284.04 L22.06 270.94" class="st38"/>
						<path d="M37.22 261.29 L22.06 270.94" class="st38"/>
						<path d="M22.06 255.09 L22.06 270.94" class="st38"/>
						<path d="M6.2 260.6 L22.06 270.94" class="st38"/>
						<path d="M22.06 288.18 L22.06 270.94" class="st38"/>
						<path d="M15 270.94 L22.06 270.94" class="st38"/>
						<path d="M5.51 284.38 L22.06 270.94" class="st38"/>
						<path d="M22.06 278 L22.06 270.94" class="st38"/>
						<path d="M26.91 275.8 L22.06 270.94" class="st38"/>
						<path d="M29.11 270.94 L22.06 270.94" class="st38"/>
						<path d="M26.91 266.09 L22.06 270.94" class="st38"/>
						<path d="M22.06 263.89 L22.06 270.94" class="st38"/>
						<path d="M17.2 266.09 L22.06 270.94" class="st38"/>
						<path d="M15 270.94 L22.06 270.94" class="st38"/>
						<path d="M17.2 275.8 L22.06 270.94" class="st38"/>
						<path d="M22.06 278 L22.06 270.94" class="st38"/>
						<path d="M26.91 275.8 L22.06 270.94" class="st38"/>
						<path d="M29.11 270.94 L22.06 270.94" class="st38"/>
						<path d="M26.91 266.09 L22.06 270.94" class="st38"/>
						<path d="M22.06 263.89 L22.06 270.94" class="st38"/>
						<path d="M17.2 266.09 L22.06 270.94" class="st38"/>
						<path d="M15 270.94 L22.06 270.94" class="st38"/>
						<path d="M17.2 275.8 L22.06 270.94" class="st38"/>
						<path d="M22.06 278 L22.06 270.94" class="st38"/>
						<path d="M26.91 275.8 L22.06 270.94" class="st38"/>
						<path d="M29.11 270.94 L22.06 270.94" class="st38"/>
						<path d="M26.91 266.09 L22.06 270.94" class="st38"/>
						<path d="M22.06 263.89 L22.06 270.94" class="st38"/>
						<path d="M17.2 266.09 L22.06 270.94" class="st38"/>
						<path d="M15 270.94 L22.06 270.94" class="st38"/>
						<path d="M17.2 275.8 L22.06 270.94" class="st38"/>
						<path d="M22.06 278 L22.06 270.94" class="st38"/>
						<path d="M26.91 275.8 L22.06 270.94" class="st38"/>
						<path d="M29.11 270.94 L22.06 270.94" class="st38"/>
						<path d="M26.91 266.09 L22.06 270.94" class="st38"/>
						<path d="M22.06 263.89 L22.06 270.94" class="st38"/>
						<path d="M17.2 266.09 L22.06 270.94" class="st38"/>
						<path d="M15 270.94 L22.06 270.94" class="st38"/>
						<path d="M17.2 275.8 L22.06 270.94" class="st38"/>
						<path d="M22.06 278 L22.06 270.94" class="st38"/>
						<path d="M26.91 275.8 L22.06 270.94" class="st38"/>
						<path d="M29.11 270.94 L22.06 270.94" class="st38"/>
						<path d="M26.91 266.09 L22.06 270.94" class="st38"/>
						<path d="M22.06 263.89 L22.06 270.94" class="st38"/>
						<path d="M17.2 266.09 L22.06 270.94" class="st38"/>
						<path d="M15 270.94 L22.06 270.94" class="st38"/>
						<path d="M17.2 275.8 L22.06 270.94" class="st38"/>
						<path d="M22.06 278 L22.06 270.94" class="st38"/>
						<path d="M26.91 275.8 L22.06 270.94" class="st38"/>
						<path d="M29.11 270.94 L22.06 270.94" class="st38"/>
						<path d="M26.91 266.09 L22.06 270.94" class="st38"/>
						<path d="M22.06 263.89 L22.06 270.94" class="st38"/>
						<path d="M17.2 266.09 L22.06 270.94" class="st38"/>
						<path d="M15 270.94 L22.06 270.94" class="st38"/>
						<path d="M17.2 275.8 L22.06 270.94" class="st38"/>
						<path d="M22.06 278 L22.06 270.94" class="st38"/>
						<path d="M26.91 275.8 L22.06 270.94" class="st38"/>
						<path d="M29.11 270.94 L22.06 270.94" class="st38"/>
						<path d="M26.91 266.09 L22.06 270.94" class="st38"/>
						<path d="M22.06 263.89 L22.06 270.94" class="st38"/>
						<path d="M17.2 266.09 L22.06 270.94" class="st38"/>
					</g>
					<g id="shape379-462">
						<title>Sheet.379</title>
						<path d="M25.66 288.18 A3.6 3.6 -180 1 0 18.46 288.18 A3.6 3.6 -180 1 0 25.66 288.18 ZM9.8 260.6 A3.6 3.6
									 -180 1 0 2.6 260.6 A3.6 3.6 -180 1 0 9.8 260.6 ZM25.66 255.09 A3.6 3.6 -180 1 0 18.46 255.09
									 A3.6 3.6 -180 1 0 25.66 255.09 ZM40.82 261.29 A3.6 3.6 -180 1 0 33.62 261.29 A3.6 3.6 -180 1
									 0 40.82 261.29 ZM40.82 284.04 A3.6 3.6 -180 1 0 33.62 284.04 A3.6 3.6 -180 1 0 40.82 284.04
									 ZM24.27 269.07 A3.6 3.6 -180 1 0 17.07 269.07 A3.6 3.6 -180 1 0 24.27 269.07 ZM26.9 272.58 A3.6
									 3.6 -180 1 0 19.7 272.58 A3.6 3.6 -180 1 0 26.9 272.58 ZM26.9 272.58 A3.6 3.6 -180 1 0 19.7
									 272.58 A3.6 3.6 -180 1 0 26.9 272.58 ZM18.6 270.94 A3.6 3.6 -180 1 0 11.4 270.94 A3.6 3.6 -180
									 1 0 18.6 270.94 ZM9.11 284.38 A3.6 3.6 -180 1 0 1.91 284.38 A3.6 3.6 -180 1 0 9.11 284.38 ZM25.66
									 278 A3.6 3.6 -180 1 0 18.46 278 A3.6 3.6 -180 1 0 25.66 278 ZM30.51 275.8 A3.6 3.6 -180 1 0
									 23.31 275.8 A3.6 3.6 -180 1 0 30.51 275.8 ZM32.71 270.94 A3.6 3.6 -180 1 0 25.51 270.94 A3.6
									 3.6 -180 1 0 32.71 270.94 ZM30.51 266.09 A3.6 3.6 -180 1 0 23.31 266.09 A3.6 3.6 -180 1 0 30.51
									 266.09 ZM25.66 263.89 A3.6 3.6 -180 1 0 18.46 263.89 A3.6 3.6 -180 1 0 25.66 263.89 ZM20.8 266.09
									 A3.6 3.6 -180 1 0 13.6 266.09 A3.6 3.6 -180 1 0 20.8 266.09 ZM18.6 270.94 A3.6 3.6 -180 1 0
									 11.4 270.94 A3.6 3.6 -180 1 0 18.6 270.94 ZM20.8 275.8 A3.6 3.6 -180 1 0 13.6 275.8 A3.6 3.6
									 -180 1 0 20.8 275.8 ZM25.66 278 A3.6 3.6 -180 1 0 18.46 278 A3.6 3.6 -180 1 0 25.66 278 ZM30.51
									 275.8 A3.6 3.6 -180 1 0 23.31 275.8 A3.6 3.6 -180 1 0 30.51 275.8 ZM32.71 270.94 A3.6 3.6 -180
									 1 0 25.51 270.94 A3.6 3.6 -180 1 0 32.71 270.94 ZM30.51 266.09 A3.6 3.6 -180 1 0 23.31 266.09
									 A3.6 3.6 -180 1 0 30.51 266.09 ZM25.66 263.89 A3.6 3.6 -180 1 0 18.46 263.89 A3.6 3.6 -180 1
									 0 25.66 263.89 ZM20.8 266.09 A3.6 3.6 -180 1 0 13.6 266.09 A3.6 3.6 -180 1 0 20.8 266.09 ZM18.6
									 270.94 A3.6 3.6 -180 1 0 11.4 270.94 A3.6 3.6 -180 1 0 18.6 270.94 ZM20.8 275.8 A3.6 3.6 -180
									 1 0 13.6 275.8 A3.6 3.6 -180 1 0 20.8 275.8 ZM25.66 278 A3.6 3.6 -180 1 0 18.46 278 A3.6 3.6
									 -180 1 0 25.66 278 ZM30.51 275.8 A3.6 3.6 -180 1 0 23.31 275.8 A3.6 3.6 -180 1 0 30.51 275.8
									 ZM32.71 270.94 A3.6 3.6 -180 1 0 25.51 270.94 A3.6 3.6 -180 1 0 32.71 270.94 ZM30.51 266.09
									 A3.6 3.6 -180 1 0 23.31 266.09 A3.6 3.6 -180 1 0 30.51 266.09 ZM25.66 263.89 A3.6 3.6 -180 1
									 0 18.46 263.89 A3.6 3.6 -180 1 0 25.66 263.89 ZM20.8 266.09 A3.6 3.6 -180 1 0 13.6 266.09 A3.6
									 3.6 -180 1 0 20.8 266.09 ZM18.6 270.94 A3.6 3.6 -180 1 0 11.4 270.94 A3.6 3.6 -180 1 0 18.6
									 270.94 ZM20.8 275.8 A3.6 3.6 -180 1 0 13.6 275.8 A3.6 3.6 -180 1 0 20.8 275.8 ZM25.66 278 A3.6
									 3.6 -180 1 0 18.46 278 A3.6 3.6 -180 1 0 25.66 278 ZM30.51 275.8 A3.6 3.6 -180 1 0 23.31 275.8
									 A3.6 3.6 -180 1 0 30.51 275.8 ZM32.71 270.94 A3.6 3.6 -180 1 0 25.51 270.94 A3.6 3.6 -180 1
									 0 32.71 270.94 ZM30.51 266.09 A3.6 3.6 -180 1 0 23.31 266.09 A3.6 3.6 -180 1 0 30.51 266.09
									 ZM25.66 263.89 A3.6 3.6 -180 1 0 18.46 263.89 A3.6 3.6 -180 1 0 25.66 263.89 ZM20.8 266.09 A3.6
									 3.6 -180 1 0 13.6 266.09 A3.6 3.6 -180 1 0 20.8 266.09 ZM18.6 270.94 A3.6 3.6 -180 1 0 11.4
									 270.94 A3.6 3.6 -180 1 0 18.6 270.94 ZM20.8 275.8 A3.6 3.6 -180 1 0 13.6 275.8 A3.6 3.6 -180
									 1 0 20.8 275.8 ZM25.66 278 A3.6 3.6 -180 1 0 18.46 278 A3.6 3.6 -180 1 0 25.66 278 ZM30.51 275.8
									 A3.6 3.6 -180 1 0 23.31 275.8 A3.6 3.6 -180 1 0 30.51 275.8 ZM32.71 270.94 A3.6 3.6 -180 1 0
									 25.51 270.94 A3.6 3.6 -180 1 0 32.71 270.94 ZM30.51 266.09 A3.6 3.6 -180 1 0 23.31 266.09 A3.6
									 3.6 -180 1 0 30.51 266.09 ZM25.66 263.89 A3.6 3.6 -180 1 0 18.46 263.89 A3.6 3.6 -180 1 0 25.66
									 263.89 ZM20.8 266.09 A3.6 3.6 -180 1 0 13.6 266.09 A3.6 3.6 -180 1 0 20.8 266.09 ZM18.6 270.94
									 A3.6 3.6 -180 1 0 11.4 270.94 A3.6 3.6 -180 1 0 18.6 270.94 ZM20.8 275.8 A3.6 3.6 -180 1 0 13.6
									 275.8 A3.6 3.6 -180 1 0 20.8 275.8 ZM25.66 278 A3.6 3.6 -180 1 0 18.46 278 A3.6 3.6 -180 1 0
									 25.66 278 ZM30.51 275.8 A3.6 3.6 -180 1 0 23.31 275.8 A3.6 3.6 -180 1 0 30.51 275.8 ZM32.71
									 270.94 A3.6 3.6 -180 1 0 25.51 270.94 A3.6 3.6 -180 1 0 32.71 270.94 ZM30.51 266.09 A3.6 3.6
									 -180 1 0 23.31 266.09 A3.6 3.6 -180 1 0 30.51 266.09 ZM25.66 263.89 A3.6 3.6 -180 1 0 18.46
									 263.89 A3.6 3.6 -180 1 0 25.66 263.89 ZM20.8 266.09 A3.6 3.6 -180 1 0 13.6 266.09 A3.6 3.6 -180
									 1 0 20.8 266.09 ZM18.6 270.94 A3.6 3.6 -180 1 0 11.4 270.94 A3.6 3.6 -180 1 0 18.6 270.94 ZM20.8
									 275.8 A3.6 3.6 -180 1 0 13.6 275.8 A3.6 3.6 -180 1 0 20.8 275.8 ZM25.66 278 A3.6 3.6 -180 1
									 0 18.46 278 A3.6 3.6 -180 1 0 25.66 278 ZM30.51 275.8 A3.6 3.6 -180 1 0 23.31 275.8 A3.6 3.6
									 -180 1 0 30.51 275.8 ZM32.71 270.94 A3.6 3.6 -180 1 0 25.51 270.94 A3.6 3.6 -180 1 0 32.71 270.94
									 ZM30.51 266.09 A3.6 3.6 -180 1 0 23.31 266.09 A3.6 3.6 -180 1 0 30.51 266.09 ZM25.66 263.89
									 A3.6 3.6 -180 1 0 18.46 263.89 A3.6 3.6 -180 1 0 25.66 263.89 ZM20.8 266.09 A3.6 3.6 -180 1
									 0 13.6 266.09 A3.6 3.6 -180 1 0 20.8 266.09 Z" class="st39"/>
					</g>
					<g id="shape380-465">
						<title>Sheet.380</title>
						<ellipse cx="22.0568" cy="270.943" rx="11.0284" ry="11.0284" class="st40"/>
					</g>
					<g id="shape381-468" transform="translate(15.1641,-15.1641)">
						<title>Sheet.381</title>
						<ellipse cx="6.89276" cy="286.107" rx="6.89276" ry="6.89276" class="st41"/>
					</g>
				</g>
				<g id="group382-470" transform="translate(9.05486,-9.53334)">
					<title>Sheet.382</title>
					<g id="shape383-471">
						<title>Sheet.383</title>
						<ellipse cx="10.9341" cy="282.066" rx="10.9341" ry="10.9341" class="st28"/>
					</g>
					<g id="shape384-474" transform="translate(4.85358,-1.34641)">
						<title>Sheet.384</title>
						<path d="M6.12 273.63 L0 282.95 L3.47 285.21 L4.05 284.34 L5.86 293 L11.89 283.63 L8.51 281.41 L7.94 282.3
									 L6.12 273.63 ZM8.87 282.98 L10.36 283.98 L6.4 290.05 L4.57 281.38 L3.09 283.64 L1.64 282.68
									 L5.62 276.59 L7.43 285.19 L8.87 282.98 Z" class="st29"/>
					</g>
				</g>
			</g>
		</g>
	</g>
</svg>
