<?xml version="1.0" encoding="utf-8"?>
<!-- Generator: Adobe Illustrator 24.2.1, SVG Export Plug-In . SVG Version: 6.00 Build 0)  -->
<svg version="1.1" id="Layer_1" xmlns:ev="http://www.w3.org/2001/xml-events"
	 xmlns="http://www.w3.org/2000/svg" xmlns:xlink="http://www.w3.org/1999/xlink" x="0px" y="0px" viewBox="0 0 576.8 563.4"
	 style="enable-background:new 0 0 576.8 563.4;" xml:space="preserve">
<style type="text/css">
	.st0{fill-rule:evenodd;clip-rule:evenodd;fill:#F4F5F7;}
</style>
<g>
	<g id="shape1-1" transform="translate(0.375,-0.375)">
		<g>
			<g>
				<g>
					<g>
						<g id="mfid23">
							<path class="st0" d="M288.9,1.7C131.5,1.7,3.6,129.7,3.6,287c0,126.2,81.7,233.1,195.1,270.8c14.5,2.8,19.6-6,19.6-13.6
								c0-6.8-0.3-29.2-0.3-53c-79.4,17.3-96.1-33.7-96.1-33.7c-13-32.9-31.8-41.7-31.8-41.7c-25.8-17.9,2-17.6,2-17.6
								c28.6,2.3,43.7,29.5,43.7,29.5c25.5,43.7,66.6,31.2,83.1,23.8c2.6-18.4,9.9-31.2,18.1-38.3c-63.5-7.1-130.2-31.5-130.2-140.9
								c0-31.2,11.3-56.7,29.5-76.6c-3.1-7.4-12.8-36.3,2.8-75.7c0,0,23.8-7.7,78.6,29.5c22.7-6.5,47.1-9.6,71.2-9.6
								c24.4,0,48.8,3.1,71.7,9.6c54.4-37.2,78.3-29.5,78.3-29.5c15.6,39.4,5.7,68.3,2.8,75.7c18.4,19.9,29.5,45.4,29.5,76.6
								c0,109.5-66.9,133.9-130.5,140.7c10.3,9,19.3,26.3,19.3,53c0,38.3-0.3,68.9-0.3,78.3c0,7.7,5.1,16.4,19.6,13.6
								C492.8,520.2,574.4,413.3,574.4,287C574.4,129.7,446.5,1.7,288.9,1.7z"/>
						</g>
					</g>
				</g>
				<g>
					<g>
						<g id="mfid24">
							<path class="st0" d="M111.6,411.5c-0.6,1.4-2.8,2-4.8,0.9c-2-0.9-3.1-2.8-2.6-4.3c0.6-1.4,2.8-2,4.8-0.9
								C111.3,408.1,112.5,410.1,111.6,411.5z"/>
						</g>
					</g>
				</g>
				<g>
					<g>
						<g id="mfid25">
							<path class="st0" d="M123.2,424.6c-1.4,1.1-4,0.6-6-1.4c-1.7-2-2-4.8-0.9-6c1.4-1.1,4.3-0.6,6,1.4
								C124.4,420.6,124.7,423.2,123.2,424.6z"/>
						</g>
					</g>
				</g>
				<g>
					<g>
						<g id="mfid26">
							<path class="st0" d="M134.6,440.8c-2,1.4-4.8,0.3-6.5-2.3c-1.7-2.6-1.7-5.7,0-6.8c2-1.1,4.5-0.3,6.5,2.3
								C136.3,436.5,136.3,439.6,134.6,440.8z"/>
						</g>
					</g>
				</g>
				<g>
					<g>
						<g id="mfid27">
							<path class="st0" d="M149.9,456.6c-1.4,2-4.8,1.4-7.4-0.9c-2.6-2.3-3.1-5.7-1.7-7.4c1.7-1.7,5.1-1.1,7.7,1.1
								C150.7,451.8,151.6,454.9,149.9,456.6z"/>
						</g>
					</g>
				</g>
				<g>
					<g>
						<g id="mfid28">
							<path class="st0" d="M171.2,466c-0.6,2.3-4,3.1-7.1,2.3c-3.4-0.9-5.4-3.7-4.8-6c0.9-2,4-3.1,7.4-2.3
								C169.8,461.2,171.7,463.7,171.2,466z"/>
						</g>
					</g>
				</g>
				<g>
					<g>
						<g id="mfid29">
							<path class="st0" d="M194.4,467.7c0.3,2.3-2.6,4.3-6,4.3c-3.4,0.3-6.2-1.7-6.2-4c0-2.6,2.8-4.3,6.2-4.5
								C191.9,463.4,194.4,465.4,194.4,467.7z"/>
						</g>
					</g>
				</g>
				<g>
					<g>
						<g id="mfid30">
							<path class="st0" d="M216.3,464c0.3,2.3-2,4.5-5.4,5.4c-3.1,0.6-6.2-0.9-6.8-3.1c-0.3-2.6,2-4.8,5.4-5.4S216,461.7,216.3,464
								z"/>
						</g>
					</g>
				</g>
			</g>
		</g>
	</g>
</g>
</svg>
