<?xml version="1.0" encoding="UTF-8" standalone="no"?>
<!-- Generated by Microsoft Visio, SVG Export openziti-logo-dark.svg openziti-logo-dark -->

<svg
   width="53.0156in"
   height="9.5in"
   viewBox="0 0 3817.12 684"
   xml:space="preserve"
   color-interpolation-filters="sRGB"
   class="st13"
   version="1.1"
   id="svg22"
   sodipodi:docname="openziti-logo-dark.svg"
   inkscape:version="1.4.2 (f4327f4, 2025-05-13)"
   xmlns:inkscape="http://www.inkscape.org/namespaces/inkscape"
   xmlns:sodipodi="http://sodipodi.sourceforge.net/DTD/sodipodi-0.dtd"
   xmlns="http://www.w3.org/2000/svg"
   xmlns:svg="http://www.w3.org/2000/svg"><sodipodi:namedview
   id="namedview22"
   pagecolor="#ffffff"
   bordercolor="#000000"
   borderopacity="0.25"
   inkscape:showpageshadow="2"
   inkscape:pageopacity="0.0"
   inkscape:pagecheckerboard="0"
   inkscape:deskcolor="#d1d1d1"
   inkscape:document-units="in"
   inkscape:zoom="0.16991689"
   inkscape:cx="2103.9698"
   inkscape:cy="-653.26054"
   inkscape:window-width="2560"
   inkscape:window-height="1369"
   inkscape:window-x="2552"
   inkscape:window-y="-8"
   inkscape:window-maximized="1"
   inkscape:current-layer="svg22"
   showgrid="false" />
	<style
   type="text/css"
   id="style1">
	<![CDATA[
		.st1 {fill:#789440;stroke:#789440;stroke-linecap:round;stroke-linejoin:round;stroke-width:0.75}
		.st2 {fill:none;stroke:none;stroke-linecap:round;stroke-linejoin:round;stroke-width:0.75}
		.st3 {fill:#f2f2f2;font-family:Russo One;font-size:50em}
		.st4 {font-size:0.8em}
		.st5 {fill:#d1d5db;fill-opacity:0.75;stroke:#121a36;stroke-linecap:butt;stroke-width:1.75781}
		.st6 {fill:none;stroke:#121a36;stroke-linecap:butt;stroke-opacity:0.85;stroke-width:25.1151}
		.st7 {fill:#6b7280;fill-opacity:0.6;stroke:none;stroke-linecap:butt;stroke-width:0.292969}
		.st8 {fill:#ffffff;fill-opacity:0.75;stroke:none;stroke-linecap:butt;stroke-width:0.14398}
		.st9 {fill:#010101;stroke:none;stroke-linecap:butt;stroke-width:0.14398}
		.st10 {fill:url(#grad0-29);stroke:none;stroke-linecap:butt;stroke-width:0.14398}
		.st11 {fill:#f2f2f2;font-family:Russo One;font-size:16.6667em}
		.st12 {font-size:0.799999em}
		.st13 {fill:none;fill-rule:evenodd;font-size:12px;overflow:visible;stroke-linecap:square;stroke-miterlimit:3}
	]]>
	</style>

	<defs
   id="Patterns_And_Gradients">
		<linearGradient
   id="grad0-29"
   x1="0"
   y1="261.33309"
   x2="422.675"
   y2="261.33309"
   gradientTransform="scale(1.0000118,0.99998817)"
   gradientUnits="userSpaceOnUse">
			<stop
   offset="0.005"
   stop-color="#fc0147"
   stop-opacity="1"
   id="stop1" />
			<stop
   offset="0.04"
   stop-color="#f4044d"
   stop-opacity="1"
   id="stop2" />
			<stop
   offset="0.9"
   stop-color="#0068f9"
   stop-opacity="1"
   id="stop3" />
		</linearGradient>
	
		
		
		
		
		
		
	
			
			
			
					
			
			
			
					</defs>
	<g
   id="text6"
   class="st3"
   style="font-size:600px;font-family:'Russo One';fill:#f2f2f2"
   aria-label="OPENZITI"><path
     d="m 994.375,144 q 0,-36 -36,-36 h -102 q -36,0 -36,36 v 192 q 0,36 36,36 h 102 q 36,0 36,-36 z m 108,192 q 0,63 -28.8,91.8 -28.2,28.2 -91.2,28.2 h -150 q -63,0 -91.8,-28.2 -28.2,-28.8 -28.2,-91.8 V 144 q 0,-63 28.2,-91.2 28.8,-28.8 91.8,-28.8 h 150 q 63,0 91.2,28.8 28.8,28.2 28.8,91.2 z"
     id="path1" /><path
     style="font-size:480px"
     d="m 1155.1747,114 h 201.6 q 50.4,0 72.96,23.04 23.04,22.56 23.04,72.96 v 48 q 0,50.4 -23.04,73.44 -22.56,22.56 -72.96,22.56 h -115.2 v 96 h -86.4 z m 211.2,96 q 0,-28.8 -28.8,-28.8 h -96 v 105.6 h 96 q 28.8,0 28.8,-28.8 z m 395.9996,240 h -266.4 V 114 h 266.4 v 67.2 h -180 V 246 h 141.6 v 67.2 h -141.6 v 69.6 h 180 z m 331.2001,0 h -91.2 l -115.2,-201.6 V 450 h -86.4 V 114 h 91.2 l 115.2,201.6 V 114 h 86.4 z"
     id="path2" /><path
     d="m 2476.3741,114 -210,252 h 210 v 84 h -342 v -84 l 210,-252 h -210 V 30 h 342 z"
     id="path3" /><path
     style="font-size:480px"
     d="m 2675.5745,450 h -172.8 v -67.2 h 43.2 V 181.2 h -43.2 V 114 h 172.8 v 67.2 h -43.2 v 201.6 h 43.2 z m 206.4001,0 h -86.4 V 181.2 h -100.8 V 114 h 288 v 67.2 h -100.8 z m 292.8004,0 h -172.8 v -67.2 h 43.2 V 181.2 h -43.2 V 114 h 172.8 v 67.2 h -43.2 v 201.6 h 43.2 z"
     id="path4" /></g><g
   id="group165-8"
   transform="translate(53.625,-44.9997)">
			<title
   id="title6">Sheet.165</title>
			<g
   id="group105-9">
				<title
   id="title7">Sheet.105</title>
				<g
   id="shape106-10">
					<title
   id="title8">Sheet.106</title>
					<path
   d="m 288,81 c 5.52,0 11.04,1.18 16.07,3.42 l 225.87,94.25 c 26.39,10.97 46.06,36.57 45.94,67.47 -0.6,117.01 -49.54,331.11 -256.21,428.42 -20.03,9.44 -43.31,9.44 -63.34,0 C 49.66,577.25 0.72,363.15 0.12,246.14 0,215.24 19.67,189.64 46.06,178.67 L 272.05,84.42 C 276.96,82.18 282.48,81 288,81 Z"
   class="st5"
   id="path8" />
				</g>
				<g
   id="shape107-12">
					<title
   id="title9">Sheet.107</title>
					<path
   d="m 288,81 c 5.52,0 11.04,1.18 16.07,3.42 l 225.87,94.25 c 26.39,10.97 46.06,36.57 45.94,67.47 -0.6,117.01 -49.54,331.11 -256.21,428.42 -20.03,9.44 -43.31,9.44 -63.34,0 C 49.66,577.25 0.72,363.15 0.12,246.14 0,215.24 19.67,189.64 46.06,178.67 L 272.05,84.42 C 276.96,82.18 282.48,81 288,81 Z"
   class="st6"
   id="path9" />
				</g>
				<g
   id="shape108-14"
   transform="translate(288,-4.71831)">
					<title
   id="title10">Sheet.108</title>
					<path
   d="m 16.07,89.14 225.87,94.25 c 26.39,10.97 46.06,36.56 45.94,67.47 C 287.28,367.87 238.34,581.97 31.67,679.28 21.59,684 10.08,684 0,679.28 V 85.72 c 5.52,0 11.04,1.18 16.07,3.42 z"
   class="st7"
   id="path10" />
				</g>
			</g>
		</g><g
   id="group167-16"
   transform="translate(130.285,-130.665)">
			<title
   id="title11">Sheet.167</title>
			<g
   id="group168-17">
				<title
   id="title12">Page-1</title>
				<g
   id="group169-18"
   transform="translate(5.91615,-5.65833)">
					<title
   id="title13">Sheet.169</title>
					<g
   id="shape170-19">
						<title
   id="title14">Sheet.170</title>
						<circle
   cx="205.64999"
   cy="478.35001"
   class="st8"
   id="ellipse14"
   r="205.64999" />
					</g>
				</g>
				<g
   id="group171-21"
   transform="translate(108.918,-42.2221)">
					<title
   id="title15">Lightning_Crashes</title>
					<g
   id="shape172-22">
						<title
   id="title16">Sheet.172</title>
						<path
   d="M 102.95,352.4 0,513.04 59.97,551.32 69.63,536.15 102.39,684 203.73,522.45 l -58.25,-37.22 -9.71,15.32 z m 48.85,159.43 25.58,16.89 -66.59,104.77 -32.82,-148.16 -24.88,38.94 -25.18,-16.03 67,-105.03 32.51,146.9 z"
   class="st9"
   id="path16" />
					</g>
				</g>
				<g
   id="group173-24">
					<title
   id="title17">Sheet.173</title>
					<g
   id="group174-25">
						<title
   id="title18">Sheet.174</title>
						<g
   id="shape175-26">
							<title
   id="title19">Sheet.175</title>
							<path
   d="m 211.36,684 c -28.52,0 -56.23,-5.56 -82.27,-16.58 C 103.91,656.8 81.36,641.53 61.89,622.16 42.53,602.8 27.25,580.14 16.64,554.96 5.56,528.92 0,501.21 0,472.69 c 0,-28.52 5.56,-56.23 16.59,-82.27 10.61,-25.18 25.88,-47.73 45.25,-67.2 19.37,-19.37 42.02,-34.64 67.2,-45.26 26.09,-11.07 53.75,-16.63 82.32,-16.63 28.57,0 56.23,5.56 82.27,16.58 25.18,10.62 47.74,25.89 67.2,45.26 19.37,19.37 34.64,42.02 45.26,67.2 11.02,26.04 16.59,53.75 16.59,82.27 0,28.52 -5.57,56.23 -16.59,82.27 -10.62,25.18 -25.89,47.73 -45.26,67.2 -19.36,19.37 -42.02,34.64 -67.2,45.26 C 267.59,678.44 239.88,684 211.36,684 Z m 0,-406.24 c -52.08,0 -101.03,20.28 -137.79,57.09 -36.91,36.81 -57.14,85.76 -57.14,137.84 0,52.08 20.28,101.03 57.09,137.79 36.81,36.86 85.76,57.09 137.79,57.09 52.03,0 101.03,-20.28 137.79,-57.09 36.87,-36.81 57.09,-85.76 57.09,-137.79 0,-52.03 -20.27,-101.03 -57.09,-137.79 -36.76,-36.91 -85.7,-57.14 -137.74,-57.14 z"
   class="st10"
   id="path19"
   style="fill:url(#grad0-29)" />
						</g>
					</g>
				</g>
			</g>
		</g><g
   id="text22"
   class="st11"
   style="font-size:200px;font-family:'Russo One';fill:#f2f2f2"
   aria-label="BY NETFOUNDRY"><path
     d="m 700.00002,518.49972 h 80.00016 q 19.60004,0 28.80006,9.00002 9.20002,8.80002 9.20002,27.00005 0,12.00003 -5.20001,19.60004 -5.20001,7.40002 -12.80003,10.40002 16.20003,4.40001 22.00005,21.60005 2,6.20001 2,14.40002 0,19.60004 -9.20002,28.80006 Q 805.60023,658.5 786.00019,658.5 h -86.00017 z m 88.00018,96.00019 q 0,-12.00002 -12.00003,-12.00002 H 736.0001 v 28.00005 h 40.00007 q 12.00003,0 12.00003,-12.00002 z m -6.00001,-56.00011 q 0,-12.00002 -12.00003,-12.00002 H 736.0001 v 28.00005 h 34.00006 q 12.00003,0 12.00003,-12.00002 z"
     id="path5" /><path
     style="font-size:160px"
     d="m 826.80009,546.49991 h 30.40002 l 26.40002,54.40005 26.40002,-54.40005 h 30.40003 l -42.40004,82.40007 V 658.5 h -28.80002 v -29.60002 z"
     id="path6" /><path
     d="m 1131.2004,658.5 h -38 l -48.0001,-84.00017 V 658.5 h -36.0001 V 518.49972 h 38.0001 l 48.0001,84.00017 v -84.00017 h 36 z"
     id="path7" /><path
     style="font-size:160px"
     d="m 1241.6004,658.5 h -88.8 V 546.49991 h 88.8 v 22.40002 h -60 v 21.60002 h 47.2 v 22.40002 h -47.2 v 23.20001 h 60 z m 67.2001,0 h -28.8 v -89.60007 h -33.6 v -22.40002 h 96.0001 v 22.40002 h -33.6001 z"
     id="path11" /><path
     d="m 1392.0008,658.5 h -36.0001 V 518.49972 h 111.0002 v 28.00006 h -75.0001 v 33.00006 h 59.0001 v 28.00006 h -59.0001 z"
     id="path12" /><path
     style="font-size:160px"
     d="m 1550.601,576.89994 q 0,-9.60001 -9.6,-9.60001 h -27.2001 q -9.6,0 -9.6,9.60001 v 51.20004 q 0,9.6 9.6,9.6 h 27.2001 q 9.6,0 9.6,-9.6 z m 28.8,51.20004 q 0,16.80001 -7.68,24.48002 -7.52,7.52 -24.32,7.52 h -40.0001 q -16.8,0 -24.48,-7.52 -7.52,-7.68001 -7.52,-24.48002 v -51.20004 q 0,-16.80002 7.52,-24.32002 7.68,-7.68001 24.48,-7.68001 h 40.0001 q 16.8,0 24.32,7.68001 7.68,7.52 7.68,24.32002 z m 88,-81.60007 h 28.8 v 81.60007 q 0,16.80001 -7.68,24.48002 -7.52,7.52 -24.32,7.52 h -36.8 q -16.8,0 -24.48,-7.52 -7.52,-7.68001 -7.52,-24.48002 v -81.60007 h 28.8 v 81.60007 q 0,9.6 9.6,9.6 h 24 q 9.6,0 9.6,-9.6 z M 1813.0011,658.5 h -30.4 l -38.4,-67.20005 V 658.5 H 1715.401 V 546.49991 h 30.4001 l 38.4,67.20006 v -67.20006 h 28.8 z m 81.6,-112.00009 q 18.08,0 27.3601,9.44001 9.44,9.28001 9.44,27.36002 v 38.40003 q 0,18.08002 -9.44,27.52002 -9.2801,9.28001 -27.3601,9.28001 h -62.4 V 546.49991 Z m 8,36.80003 q 0,-14.40001 -14.4,-14.40001 h -27.2 v 67.20005 h 27.2 q 14.4,0 14.4,-14.40001 z m 44.7999,-36.80003 h 67.2001 q 16.8,0 24.32,7.68001 7.68,7.52001 7.68,24.32002 v 14.40001 q 0,13.28001 -4.48,20.64002 -4.32,7.36 -13.92,9.76 l 20,35.20003 h -31.2 l -18.4,-33.60003 h -22.4 V 658.5 h -28.8001 z m 70.4001,32.00003 q 0,-9.60001 -9.6,-9.60001 h -32 v 33.60003 h 32 q 9.6,0 9.6,-9.60001 z m 31.9999,-32.00003 h 30.4 l 26.4,54.40005 26.4,-54.40005 h 30.4001 l -42.4001,82.40007 V 658.5 h -28.8 v -29.60002 z"
     id="path13" /></g>
</svg>
