<?xml version="1.0" encoding="UTF-8" standalone="no"?>
<!DOCTYPE svg PUBLIC "-//W3C//DTD SVG 1.1//EN" "http://www.w3.org/Graphics/SVG/1.1/DTD/svg11.dtd">
<!-- Generated by Microsoft Visio, SVG Export openziti-logo-light.svg Page-1 -->
<svg xmlns="http://www.w3.org/2000/svg" xmlns:xlink="http://www.w3.org/1999/xlink" xmlns:ev="http://www.w3.org/2001/xml-events"
		width="53.0156in" height="10.1927in" viewBox="0 0 3817.12 733.875" xml:space="preserve" color-interpolation-filters="sRGB"
		class="st11">
	<style type="text/css">
	<![CDATA[
		.st1 {fill:#789440;stroke:#789440;stroke-linecap:round;stroke-linejoin:round;stroke-width:0.75}
		.st2 {fill:none;stroke:none;stroke-linecap:round;stroke-linejoin:round;stroke-width:0.75}
		.st3 {fill:#3f3f3f;font-family:Russo One;font-size:50em}
		.st4 {font-size:0.8em}
		.st5 {fill:#d1d5db;fill-opacity:0.75;stroke:#121a36;stroke-linecap:butt;stroke-width:1.75781}
		.st6 {fill:none;stroke:#121a36;stroke-linecap:butt;stroke-opacity:0.85;stroke-width:25.1151}
		.st7 {fill:#6b7280;fill-opacity:0.6;stroke:none;stroke-linecap:butt;stroke-width:0.292969}
		.st8 {fill:#ffffff;fill-opacity:0.75;stroke:none;stroke-linecap:butt;stroke-width:0.14398}
		.st9 {fill:#010101;stroke:none;stroke-linecap:butt;stroke-width:0.14398}
		.st10 {fill:url(#grad0-30);stroke:none;stroke-linecap:butt;stroke-width:0.14398}
		.st11 {fill:none;fill-rule:evenodd;font-size:12px;overflow:visible;stroke-linecap:square;stroke-miterlimit:3}
	]]>
	</style>

	<defs id="Patterns_And_Gradients">
		<linearGradient id="grad0-30" x1="0" y1="0" x2="1" y2="0" gradientTransform="rotate(44.999995766921 0.5 0.5)">
			<stop offset="0.005" stop-color="#fc0147" stop-opacity="1"/>
			<stop offset="0.04" stop-color="#f4044d" stop-opacity="1"/>
			<stop offset="0.9" stop-color="#0068f9" stop-opacity="1"/>
		</linearGradient>
	</defs>
	<g>
		<title>Page-1</title>
		<g id="group1-1" transform="translate(0.375,-49.5003)">
			<title>Sheet.1</title>
			<g id="shape2-2">
				<title>Sheet.2</title>
				<rect x="0" y="49.8753" width="3816.37" height="684" class="st1"/>
			</g>
			<g id="shape3-4" transform="translate(684.375,-9)">
				<title>Sheet.3</title>
				<desc>OpenZiti</desc>
				<rect x="0" y="130.875" width="3132" height="603" class="st2"/>
				<text x="4" y="612.38" class="st3">O<tspan class="st4">PEN</tspan>Z<tspan class="st4">ITI</tspan></text>			</g>
			<g id="group4-9" transform="translate(53.625,-44.9997)">
				<title>Sheet.4</title>
				<g id="group5-10">
					<title>Sheet.5</title>
					<g id="shape6-11">
						<title>Sheet.6</title>
						<path d="M288 130.88 C293.52 130.88 299.04 132.05 304.07 134.3 L529.94 228.54 C556.33 239.51 576 265.11 575.88
									 296.02 C575.28 413.03 526.34 627.12 319.67 724.44 C299.64 733.88 276.36 733.88 256.33 724.44
									 C49.66 627.12 0.72 413.03 0.12 296.02 C0 265.11 19.67 239.51 46.06 228.54 L272.05 134.3 C276.96
									 132.05 282.48 130.88 288 130.88 Z" class="st5"/>
					</g>
					<g id="shape7-13">
						<title>Sheet.7</title>
						<path d="M288 130.88 C293.52 130.88 299.04 132.05 304.07 134.3 L529.94 228.54 C556.33 239.51 576 265.11 575.88
									 296.02 C575.28 413.03 526.34 627.12 319.67 724.44 C299.64 733.88 276.36 733.88 256.33 724.44
									 C49.66 627.12 0.72 413.03 0.12 296.02 C0 265.11 19.67 239.51 46.06 228.54 L272.05 134.3 C276.96
									 132.05 282.48 130.88 288 130.88 Z" class="st6"/>
					</g>
					<g id="shape8-15" transform="translate(288,-4.71831)">
						<title>Sheet.8</title>
						<path d="M16.07 139.01 L241.94 233.26 C268.33 244.23 288 269.83 287.88 300.73 C287.28 417.75 238.34 631.84
									 31.67 729.16 C21.59 733.88 10.08 733.88 0 729.16 L0 135.59 C5.52 135.59 11.04 136.77 16.07 139.01
									 Z" class="st7"/>
					</g>
				</g>
			</g>
		</g>
		<g id="group9-17" transform="translate(130.66,-180.165)">
			<title>Sheet.9</title>
			<g id="group10-18">
				<title>Page-1</title>
				<g id="group11-19" transform="translate(5.91615,-5.65833)">
					<title>Sheet.11</title>
					<g id="shape12-20">
						<title>Sheet.12</title>
						<ellipse cx="205.65" cy="528.225" rx="205.65" ry="205.65" class="st8"/>
					</g>
				</g>
				<g id="group13-22" transform="translate(108.918,-42.2221)">
					<title>Lightning_Crashes</title>
					<g id="shape14-23">
						<title>Sheet.14</title>
						<path d="M102.95 402.28 L0 562.92 L59.97 601.2 L69.63 586.03 L102.39 733.88 L203.73 572.33 L145.48 535.11
									 L135.77 550.43 L102.95 402.28 ZM151.8 561.71 L177.38 578.6 L110.79 683.37 L77.97 535.21 L53.09
									 574.15 L27.91 558.12 L94.91 453.09 L127.42 599.99 L151.8 561.71 Z" class="st9"/>
					</g>
				</g>
				<g id="group15-25">
					<title>Sheet.15</title>
					<g id="group16-26">
						<title>Sheet.16</title>
						<g id="shape17-27">
							<title>Sheet.17</title>
							<path d="M211.36 733.88 C182.84 733.88 155.13 728.32 129.09 717.3 C103.91 706.68 81.36 691.41 61.89 672.04
										 C42.53 652.68 27.25 630.02 16.64 604.84 C5.56 578.8 0 551.09 0 522.57 C0 494.05 5.56 466.34
										 16.59 440.3 C27.2 415.12 42.47 392.57 61.84 373.1 C81.21 353.73 103.86 338.46 129.04 327.84
										 C155.13 316.77 182.79 311.21 211.36 311.21 C239.93 311.21 267.59 316.77 293.63 327.79 C318.81
										 338.41 341.37 353.68 360.83 373.05 C380.2 392.42 395.47 415.07 406.09 440.25 C417.11 466.29
										 422.68 494 422.68 522.52 C422.68 551.04 417.11 578.75 406.09 604.79 C395.47 629.97 380.2
										 652.52 360.83 671.99 C341.47 691.36 318.81 706.63 293.63 717.25 C267.59 728.32 239.88 733.88
										 211.36 733.88 ZM211.36 327.64 C159.28 327.64 110.33 347.92 73.57 384.73 C36.66 421.54 16.43
										 470.49 16.43 522.57 C16.43 574.65 36.71 623.6 73.52 660.36 C110.33 697.22 159.28 717.45
										 211.31 717.45 C263.34 717.45 312.34 697.17 349.1 660.36 C385.97 623.55 406.19 574.6 406.19
										 522.57 C406.19 470.54 385.92 421.54 349.1 384.78 C312.34 347.87 263.4 327.64 211.36 327.64
										 Z" class="st10"/>
						</g>
					</g>
				</g>
			</g>
		</g>
	</g>
</svg>
