<?xml version="1.0" encoding="UTF-8" standalone="no"?>
<!-- Generated by Microsoft Visio, SVG Export openziti-logo-dark.svg openziti-logo-dark -->

<svg
   width="53.0156in"
   height="9.5in"
   viewBox="0 0 3817.12 684"
   xml:space="preserve"
   color-interpolation-filters="sRGB"
   class="st10"
   version="1.1"
   id="svg17"
   sodipodi:docname="openziti-logo-dark.svg"
   xmlns:sodipodi="http://sodipodi.sourceforge.net/DTD/sodipodi-0.dtd"
   xmlns="http://www.w3.org/2000/svg"
   xmlns:svg="http://www.w3.org/2000/svg"><sodipodi:namedview
 />
	<style
   type="text/css"
   id="style1">
	<![CDATA[
		.st1 {fill:#789440;stroke:#789440;stroke-linecap:round;stroke-linejoin:round;stroke-width:0.75}
		.st2 {fill:none;stroke:none;stroke-linecap:round;stroke-linejoin:round;stroke-width:0.75}
		.st3 {fill:#f2f2f2;font-family:Russo One;font-size:50em}
		.st4 {font-size:0.8em}
		.st5 {fill:#f2f2f2;font-family:Russo One;font-size:16.6667em}
		.st6 {font-size:0.799999em}
		.st7 {fill:#ffffff;fill-opacity:0.75;stroke:none;stroke-linecap:butt;stroke-width:0.14398}
		.st8 {fill:#010101;stroke:none;stroke-linecap:butt;stroke-width:0.14398}
		.st9 {fill:url(#grad0-27);stroke:none;stroke-linecap:butt;stroke-width:0.14398}
		.st10 {fill:none;fill-rule:evenodd;font-size:12px;overflow:visible;stroke-linecap:square;stroke-miterlimit:3}
	]]>
	</style>

	<defs
   id="Patterns_And_Gradients">
		<linearGradient
   id="grad0-27"
   x1="0"
   y1="148.51139"
   x2="535.495"
   y2="148.51139"
   gradientTransform="scale(1.0000093,0.99999066)"
   gradientUnits="userSpaceOnUse">
			<stop
   offset="0.005"
   stop-color="#fc0147"
   stop-opacity="1"
   id="stop1" />
			<stop
   offset="0.04"
   stop-color="#f4044d"
   stop-opacity="1"
   id="stop2" />
			<stop
   offset="0.9"
   stop-color="#0068f9"
   stop-opacity="1"
   id="stop3" />
		</linearGradient>
	
		
		
		
		
		
	
			
			
			
					
			
			
			
					</defs>
	<path
   d="m 994.375,144 q 0,-36 -36,-36 h -102 q -36,0 -36,36 v 192 q 0,36 36,36 h 102 q 36,0 36,-36 z m 108,192 q 0,63 -28.8,91.8 -28.2,28.2 -91.2,28.2 h -150 q -63,0 -91.8,-28.2 -28.2,-28.8 -28.2,-91.8 V 144 q 0,-63 28.2,-91.2 28.8,-28.8 91.8,-28.8 h 150 q 63,0 91.2,28.8 28.8,28.2 28.8,91.2 z"
   id="path18"
   style="font-size:600px;font-family:'Russo One';fill:#f2f2f2" /><path
   style="font-size:480px;font-family:'Russo One';fill:#f2f2f2"
   d="m 1155.1747,114 h 201.6 q 50.4,0 72.96,23.04 23.04,22.56 23.04,72.96 v 48 q 0,50.4 -23.04,73.44 -22.56,22.56 -72.96,22.56 h -115.2 v 96 h -86.4 z m 211.2,96 q 0,-28.8 -28.8,-28.8 h -96 v 105.6 h 96 q 28.8,0 28.8,-28.8 z m 395.9996,240 h -266.4 V 114 h 266.4 v 67.2 h -180 V 246 h 141.6 v 67.2 h -141.6 v 69.6 h 180 z m 331.2001,0 h -91.2 l -115.2,-201.6 V 450 h -86.4 V 114 h 91.2 l 115.2,201.6 V 114 h 86.4 z"
   id="path19" /><path
   d="m 2476.3741,114 -210,252 h 210 v 84 h -342 v -84 l 210,-252 h -210 V 30 h 342 z"
   id="path20"
   style="font-size:600px;font-family:'Russo One';fill:#f2f2f2" /><path
   style="font-size:480px;font-family:'Russo One';fill:#f2f2f2"
   d="m 2675.5745,450 h -172.8 v -67.2 h 43.2 V 181.2 h -43.2 V 114 h 172.8 v 67.2 h -43.2 v 201.6 h 43.2 z m 206.4001,0 h -86.4 V 181.2 h -100.8 V 114 h 288 v 67.2 h -100.8 z m 292.8004,0 h -172.8 v -67.2 h 43.2 V 181.2 h -43.2 V 114 h 172.8 v 67.2 h -43.2 v 201.6 h 43.2 z"
   id="path21" /><g
   id="text9"
   class="st5"
   style="font-size:200px;font-family:'Russo One';fill:#f2f2f2"
   aria-label="BY NETFOUNDRY"><path
     d="m 700.00002,518.49972 h 80.00016 q 19.60004,0 28.80006,9.00002 9.20002,8.80002 9.20002,27.00005 0,12.00003 -5.20001,19.60004 -5.20001,7.40002 -12.80003,10.40002 16.20003,4.40001 22.00005,21.60005 2,6.20001 2,14.40002 0,19.60004 -9.20002,28.80006 Q 805.60023,658.5 786.00019,658.5 h -86.00017 z m 88.00018,96.00019 q 0,-12.00002 -12.00003,-12.00002 H 736.0001 v 28.00005 h 40.00007 q 12.00003,0 12.00003,-12.00002 z m -6.00001,-56.00011 q 0,-12.00002 -12.00003,-12.00002 H 736.0001 v 28.00005 h 34.00006 q 12.00003,0 12.00003,-12.00002 z"
     id="path22" /><path
     style="font-size:160px"
     d="m 826.80009,546.49991 h 30.40002 l 26.40002,54.40005 26.40002,-54.40005 h 30.40003 l -42.40004,82.40007 V 658.5 h -28.80002 v -29.60002 z"
     id="path23" /><path
     d="m 1131.2004,658.5 h -38 l -48.0001,-84.00017 V 658.5 h -36.0001 V 518.49972 h 38.0001 l 48.0001,84.00017 v -84.00017 h 36 z"
     id="path24" /><path
     style="font-size:160px"
     d="m 1241.6004,658.5 h -88.8 V 546.49991 h 88.8 v 22.40002 h -60 v 21.60002 h 47.2 v 22.40002 h -47.2 v 23.20001 h 60 z m 67.2001,0 h -28.8 v -89.60007 h -33.6 v -22.40002 h 96.0001 v 22.40002 h -33.6001 z"
     id="path25" /><path
     d="m 1392.0008,658.5 h -36.0001 V 518.49972 h 111.0002 v 28.00006 h -75.0001 v 33.00006 h 59.0001 v 28.00006 h -59.0001 z"
     id="path26" /><path
     style="font-size:160px"
     d="m 1550.601,576.89994 q 0,-9.60001 -9.6,-9.60001 h -27.2001 q -9.6,0 -9.6,9.60001 v 51.20004 q 0,9.6 9.6,9.6 h 27.2001 q 9.6,0 9.6,-9.6 z m 28.8,51.20004 q 0,16.80001 -7.68,24.48002 -7.52,7.52 -24.32,7.52 h -40.0001 q -16.8,0 -24.48,-7.52 -7.52,-7.68001 -7.52,-24.48002 v -51.20004 q 0,-16.80002 7.52,-24.32002 7.68,-7.68001 24.48,-7.68001 h 40.0001 q 16.8,0 24.32,7.68001 7.68,7.52 7.68,24.32002 z m 88,-81.60007 h 28.8 v 81.60007 q 0,16.80001 -7.68,24.48002 -7.52,7.52 -24.32,7.52 h -36.8 q -16.8,0 -24.48,-7.52 -7.52,-7.68001 -7.52,-24.48002 v -81.60007 h 28.8 v 81.60007 q 0,9.6 9.6,9.6 h 24 q 9.6,0 9.6,-9.6 z M 1813.0011,658.5 h -30.4 l -38.4,-67.20005 V 658.5 H 1715.401 V 546.49991 h 30.4001 l 38.4,67.20006 v -67.20006 h 28.8 z m 81.6,-112.00009 q 18.08,0 27.3601,9.44001 9.44,9.28001 9.44,27.36002 v 38.40003 q 0,18.08002 -9.44,27.52002 -9.2801,9.28001 -27.3601,9.28001 h -62.4 V 546.49991 Z m 8,36.80003 q 0,-14.40001 -14.4,-14.40001 h -27.2 v 67.20005 h 27.2 q 14.4,0 14.4,-14.40001 z m 44.7999,-36.80003 h 67.2001 q 16.8,0 24.32,7.68001 7.68,7.52001 7.68,24.32002 v 14.40001 q 0,13.28001 -4.48,20.64002 -4.32,7.36 -13.92,9.76 l 20,35.20003 h -31.2 l -18.4,-33.60003 h -22.4 V 658.5 h -28.8001 z m 70.4001,32.00003 q 0,-9.60001 -9.6,-9.60001 h -32 v 33.60003 h 32 q 9.6,0 9.6,-9.60001 z m 31.9999,-32.00003 h 30.4 l 26.4,54.40005 26.4,-54.40005 h 30.4001 l -42.4001,82.40007 V 658.5 h -28.8 v -29.60002 z"
     id="path27" /></g><g
   id="group181-14"
   transform="matrix(1.1058111,0,0,1.1058111,48.169063,-122.80052)">
			<title
   id="title9">Sheet.181</title>
			<g
   id="group182-15">
				<title
   id="title10">Page-1</title>
				<g
   id="group183-16"
   transform="translate(7.49526,-7.16863)">
					<title
   id="title11">Sheet.183</title>
					<g
   id="shape184-17">
						<title
   id="title12">Sheet.184</title>
						<circle
   cx="260.54099"
   cy="423.45901"
   class="st7"
   id="ellipse12"
   r="260.54099" />
					</g>
				</g>
				<g
   id="group185-19"
   transform="translate(137.99,-53.4919)">
					<title
   id="title13">Lightning_Crashes</title>
					<g
   id="shape186-20">
						<title
   id="title14">Sheet.186</title>
						<path
   d="M 130.43,263.89 0,467.41 l 75.98,48.5 12.24,-19.22 41.5,187.31 128.39,-204.67 -73.8,-47.15 -12.3,19.4 z m 61.89,201.99 32.41,21.39 -84.37,132.74 -41.58,-187.71 -31.52,49.34 -31.9,-20.31 84.88,-133.07 41.19,186.11 z"
   class="st8"
   id="path14" />
					</g>
				</g>
				<g
   id="group187-22">
					<title
   id="title15">Sheet.187</title>
					<g
   id="group188-23">
						<title
   id="title16">Sheet.188</title>
						<g
   id="shape189-24">
							<title
   id="title17">Sheet.189</title>
							<path
   d="m 267.78,684 c -36.14,0 -71.24,-7.04 -104.23,-21.01 -31.9,-13.45 -60.47,-32.8 -85.14,-57.34 C 53.88,581.13 34.52,552.42 21.08,520.52 7.04,487.53 0,452.42 0,416.29 0,380.16 7.04,345.05 21.02,312.06 c 13.44,-31.9 32.79,-60.47 57.33,-85.14 24.54,-24.54 53.23,-43.88 85.13,-57.34 33.06,-14.02 68.1,-21.07 104.3,-21.07 36.19,0 71.23,7.05 104.22,21.01 31.91,13.45 60.49,32.8 85.14,57.34 24.54,24.54 43.89,53.23 57.34,85.14 13.96,32.99 21.02,68.09 21.02,104.22 0,36.14 -7.06,71.24 -21.02,104.23 -13.45,31.9 -32.8,60.47 -57.34,85.14 C 432.61,630.13 403.91,649.48 372,662.93 339.01,676.96 303.91,684 267.78,684 Z m 0,-514.67 c -65.99,0 -128,25.69 -174.57,72.33 -46.76,46.63 -72.39,108.65 -72.39,174.63 0,65.98 25.69,127.99 72.32,174.57 46.64,46.69 108.65,72.32 174.57,72.32 65.92,0 128,-25.69 174.57,-72.32 46.71,-46.64 72.33,-108.65 72.33,-174.57 0,-65.92 -25.68,-128 -72.33,-174.57 -46.57,-46.76 -108.57,-72.39 -174.5,-72.39 z"
   class="st9"
   id="path17"
   style="fill:url(#grad0-27)" />
						</g>
					</g>
				</g>
			</g>
		</g>
</svg>
