<?xml version="1.0" encoding="UTF-8" standalone="no"?>
<!DOCTYPE svg PUBLIC "-//W3C//DTD SVG 1.1//EN" "http://www.w3.org/Graphics/SVG/1.1/DTD/svg11.dtd">
<!-- Generated by Microsoft Visio, SVG Export openziti-logo-dark.svg openziti-logo-dark -->
<svg xmlns="http://www.w3.org/2000/svg" xmlns:xlink="http://www.w3.org/1999/xlink" xmlns:ev="http://www.w3.org/2001/xml-events"
		width="53.0156in" height="9.5in" viewBox="0 0 3817.12 684" xml:space="preserve" color-interpolation-filters="sRGB"
		class="st11">
	<style type="text/css">
	<![CDATA[
		.st1 {}
		.st2 {fill:none;stroke:none;stroke-linecap:round;stroke-linejoin:round;stroke-width:0.75}
		.st3 {fill:#f2f2f2;font-family:Russo One;font-size:50em}
		.st4 {font-size:0.8em}
		.st5 {fill:#d1d5db;fill-opacity:0.75;stroke:#121a36;stroke-linecap:butt;stroke-width:1.75781}
		.st6 {fill:none;stroke:#121a36;stroke-linecap:butt;stroke-opacity:0.85;stroke-width:25.1151}
		.st7 {fill:#6b7280;fill-opacity:0.6;stroke:none;stroke-linecap:butt;stroke-width:0.292969}
		.st8 {fill:#ffffff;fill-opacity:0.75;stroke:none;stroke-linecap:butt;stroke-width:0.14398}
		.st9 {fill:#010101;stroke:none;stroke-linecap:butt;stroke-width:0.14398}
		.st10 {fill:url(#grad0-30);stroke:none;stroke-linecap:butt;stroke-width:0.14398}
		.st11 {fill:none;fill-rule:evenodd;font-size:12px;overflow:visible;stroke-linecap:square;stroke-miterlimit:3}
	]]>
	</style>

	<defs id="Patterns_And_Gradients">
		<linearGradient id="grad0-30" x1="0" y1="0" x2="1" y2="0" gradientTransform="rotate(44.999995766921 0.5 0.5)">
			<stop offset="0.005" stop-color="#fc0147" stop-opacity="1"/>
			<stop offset="0.04" stop-color="#f4044d" stop-opacity="1"/>
			<stop offset="0.9" stop-color="#0068f9" stop-opacity="1"/>
		</linearGradient>
	</defs>
	<g>
		<title>openziti-logo-dark</title>
		<g id="group166-1">
			<title>Sheet.166</title>
			<g id="shape7-2">
				<title>Sheet.7</title>
				<rect x="0" y="0" width="3816.37" height="684" class="st1"/>
			</g>
			<g id="shape11-4" transform="translate(684.375,-9)">
				<title>Sheet.11</title>
				<desc>OpenZiti</desc>
				<rect x="0" y="81" width="3132" height="603" class="st2"/>
				<text x="4" y="562.5" class="st3">O<tspan class="st4">PEN</tspan>Z<tspan class="st4">ITI</tspan></text>			</g>
			<g id="group165-9" transform="translate(53.625,-44.9997)">
				<title>Sheet.165</title>
				<g id="group105-10">
					<title>Sheet.105</title>
					<g id="shape106-11">
						<title>Sheet.106</title>
						<path d="M288 81 C293.52 81 299.04 82.18 304.07 84.42 L529.94 178.67 C556.33 189.64 576 215.24 575.88 246.14
									 C575.28 363.15 526.34 577.25 319.67 674.56 C299.64 684 276.36 684 256.33 674.56 C49.66 577.25
									 0.72 363.15 0.12 246.14 C0 215.24 19.67 189.64 46.06 178.67 L272.05 84.42 C276.96 82.18 282.48
									 81 288 81 Z" class="st5"/>
					</g>
					<g id="shape107-13">
						<title>Sheet.107</title>
						<path d="M288 81 C293.52 81 299.04 82.18 304.07 84.42 L529.94 178.67 C556.33 189.64 576 215.24 575.88 246.14
									 C575.28 363.15 526.34 577.25 319.67 674.56 C299.64 684 276.36 684 256.33 674.56 C49.66 577.25
									 0.72 363.15 0.12 246.14 C0 215.24 19.67 189.64 46.06 178.67 L272.05 84.42 C276.96 82.18 282.48
									 81 288 81 Z" class="st6"/>
					</g>
					<g id="shape108-15" transform="translate(288,-4.71831)">
						<title>Sheet.108</title>
						<path d="M16.07 89.14 L241.94 183.39 C268.33 194.36 288 219.95 287.88 250.86 C287.28 367.87 238.34 581.97
									 31.67 679.28 C21.59 684 10.08 684 0 679.28 L0 85.72 C5.52 85.72 11.04 86.9 16.07 89.14 Z"
								class="st7"/>
					</g>
				</g>
			</g>
		</g>
		<g id="group167-17" transform="translate(130.285,-130.665)">
			<title>Sheet.167</title>
			<g id="group168-18">
				<title>Page-1</title>
				<g id="group169-19" transform="translate(5.91615,-5.65833)">
					<title>Sheet.169</title>
					<g id="shape170-20">
						<title>Sheet.170</title>
						<ellipse cx="205.65" cy="478.35" rx="205.65" ry="205.65" class="st8"/>
					</g>
				</g>
				<g id="group171-22" transform="translate(108.918,-42.2221)">
					<title>Lightning_Crashes</title>
					<g id="shape172-23">
						<title>Sheet.172</title>
						<path d="M102.95 352.4 L0 513.04 L59.97 551.32 L69.63 536.15 L102.39 684 L203.73 522.45 L145.48 485.23 L135.77
									 500.55 L102.95 352.4 ZM151.8 511.83 L177.38 528.72 L110.79 633.49 L77.97 485.33 L53.09 524.27
									 L27.91 508.24 L94.91 403.21 L127.42 550.11 L151.8 511.83 Z" class="st9"/>
					</g>
				</g>
				<g id="group173-25">
					<title>Sheet.173</title>
					<g id="group174-26">
						<title>Sheet.174</title>
						<g id="shape175-27">
							<title>Sheet.175</title>
							<path d="M211.36 684 C182.84 684 155.13 678.44 129.09 667.42 C103.91 656.8 81.36 641.53 61.89 622.16
										 C42.53 602.8 27.25 580.14 16.64 554.96 C5.56 528.92 0 501.21 0 472.69 C0 444.17 5.56 416.46
										 16.59 390.42 C27.2 365.24 42.47 342.69 61.84 323.22 C81.21 303.85 103.86 288.58 129.04 277.96
										 C155.13 266.89 182.79 261.33 211.36 261.33 C239.93 261.33 267.59 266.89 293.63 277.91 C318.81
										 288.53 341.37 303.8 360.83 323.17 C380.2 342.54 395.47 365.19 406.09 390.37 C417.11 416.41
										 422.68 444.12 422.68 472.64 C422.68 501.16 417.11 528.87 406.09 554.91 C395.47 580.09 380.2
										 602.64 360.83 622.11 C341.47 641.48 318.81 656.75 293.63 667.37 C267.59 678.44 239.88 684
										 211.36 684 ZM211.36 277.76 C159.28 277.76 110.33 298.04 73.57 334.85 C36.66 371.66 16.43
										 420.61 16.43 472.69 C16.43 524.77 36.71 573.72 73.52 610.48 C110.33 647.34 159.28 667.57
										 211.31 667.57 C263.34 667.57 312.34 647.29 349.1 610.48 C385.97 573.67 406.19 524.72 406.19
										 472.69 C406.19 420.66 385.92 371.66 349.1 334.9 C312.34 297.99 263.4 277.76 211.36 277.76
										 Z" class="st10"/>
						</g>
					</g>
				</g>
			</g>
		</g>
	</g>
</svg>
