<?xml version="1.0" encoding="utf-8"?>
<!-- Generator: Adobe Illustrator 27.8.1, SVG Export Plug-In . SVG Version: 6.00 Build 0)  -->
<svg version="1.1" id="Layer_1" xmlns="http://www.w3.org/2000/svg" xmlns:xlink="http://www.w3.org/1999/xlink" x="0px" y="0px"
	 viewBox="0 0 24 24" style="enable-background:new 0 0 24 24;" xml:space="preserve">
<style type="text/css">
	.st0{fill:#DFF9FF;}
	.st1{fill:#9FEAFF;stroke:#00303E;stroke-linecap:round;stroke-linejoin:round;}
	.st2{fill:#9FEAFF;}
	.st3{fill:none;stroke:#00303E;stroke-linecap:round;stroke-linejoin:round;}
</style>
<path class="st0" d="M8.1,1.9c-1.1,0-1.9,0.9-1.9,1.9c0,1.1,0.9,1.9,1.9,1.9c0,0,0,0,0,0c1.1,0,1.9-0.9,1.9-1.9S9.2,1.9,8.1,1.9
	L8.1,1.9"/>
<path class="st0" d="M21,1c-1.1,0-1.9,0.9-1.9,1.9S20,4.8,21,4.8S23,4,23,2.9S22.1,1,21,1"/>
<path class="st0" d="M20.1,13.9c-1.1,0-1.9,0.9-1.9,1.9c0,1.1,0.9,1.9,1.9,1.9c0,0,0,0,0,0c1.1,0,1.9-0.9,1.9-1.9
	C22,14.8,21.1,13.9,20.1,13.9C20.1,13.9,20.1,13.9,20.1,13.9"/>
<path class="st1" d="M12.5,12.2L3.3,22.6c-0.5,0.5-1.4,0.5-1.9,0s-0.5-1.4,0-1.9l10.3-9.2"/>
<path class="st2" d="M18.1,6.7l-0.9,2.7l1.7,1.7c0.2,0.2,0.3,0.6,0,0.8C18.8,12,18.6,12,18.4,12l-3,0.1l-1.1,2.7
	c-0.1,0.3-0.5,0.5-0.8,0.3c-0.2-0.1-0.3-0.2-0.4-0.4l-0.9-3.1l-3.1-0.9c-0.3-0.1-0.5-0.4-0.4-0.8C8.8,9.8,9,9.7,9.2,9.6l2.7-1.1
	l0.1-3c0-0.3,0.2-0.6,0.6-0.6c0.2,0,0.3,0.1,0.5,0.2l1.7,1.7l2.7-0.9c0.3-0.1,0.7,0.1,0.8,0.4C18.1,6.4,18.1,6.5,18.1,6.7z"/>
<path class="st0" d="M12.3,11.6l0.9,3.1c0.1,0.3,0.4,0.5,0.8,0.4c0.2-0.1,0.3-0.2,0.4-0.4l1.1-2.7l3-0.1c0.3,0,0.6-0.2,0.6-0.5
	c0-0.2-0.1-0.3-0.2-0.5l-1.7-1.7l0.9-2.7c0.1-0.2,0-0.5-0.2-0.6L12.3,11.6z"/>
<path class="st3" d="M18.1,6.7l-0.9,2.7l1.7,1.7c0.2,0.2,0.3,0.6,0,0.8C18.8,12,18.6,12,18.4,12l-3,0.1l-1.1,2.7
	c-0.1,0.3-0.5,0.5-0.8,0.3c-0.2-0.1-0.3-0.2-0.4-0.4l-0.9-3.1l-3.1-0.9c-0.3-0.1-0.5-0.4-0.4-0.8C8.8,9.8,9,9.7,9.2,9.6l2.7-1.1
	l0.1-3c0-0.3,0.2-0.6,0.6-0.6c0.2,0,0.3,0.1,0.5,0.2l1.7,1.7l2.7-0.9c0.3-0.1,0.7,0.1,0.8,0.4C18.1,6.4,18.1,6.5,18.1,6.7z"/>
<path class="st3" d="M14.3,1v1.9"/>
<path class="st3" d="M23,9.6H21"/>
<path class="st3" d="M22,2.9h-1.9"/>
<path class="st3" d="M21,3.9V1.9"/>
<path class="st3" d="M9.1,3.9H7.2"/>
<path class="st3" d="M8.1,4.8V2.9"/>
<path class="st3" d="M20.1,14.9v1.9"/>
<path class="st3" d="M19.1,15.8H21"/>
</svg>
