<?xml version="1.0" encoding="utf-8"?>
<!-- Generator: Adobe Illustrator 27.5.0, SVG Export Plug-In . SVG Version: 6.00 Build 0)  -->
<svg version="1.1" id="Ziti_NG_xA0_Image_1_" xmlns="http://www.w3.org/2000/svg" xmlns:xlink="http://www.w3.org/1999/xlink"
	 x="0px" y="0px" viewBox="0 0 772 772" style="enable-background:new 0 0 772 772;" xml:space="preserve">
<style type="text/css">
	.st0{opacity:0.33;fill:#FFFFFF;enable-background:new    ;}
	.st1{fill:#002451;}
</style>
<circle class="st0" cx="377" cy="386" r="371"/>
<path id="Lightning_Crashes" class="st1" d="M387,89.2L198.9,382.6l109.6,69.9l17.6-27.7l59.8,270L571,399.7l-106.4-67.9l-17.7,28
	L387,89.2z M476.2,380.4l46.7,30.8L401.3,602.6L341.4,332L296,403.1l-46-29.3L372.3,182l59.4,268.3L476.2,380.4z"/>
<g>
	<path class="st1" d="M386,772c-52.1,0-102.7-10.2-150.3-30.3c-46-19.4-87.2-47.3-122.7-82.7c-35.4-35.4-63.3-76.7-82.7-122.7
		C10.2,488.7,0,438.1,0,386s10.2-102.7,30.3-150.3c19.4-46,47.3-87.2,82.7-122.7c35.4-35.4,76.7-63.3,122.7-82.7
		C283.3,10.2,333.9,0,386,0s102.7,10.2,150.3,30.3c46,19.4,87.2,47.3,122.7,82.7c35.4,35.4,63.3,76.7,82.7,122.7
		C761.8,283.3,772,333.9,772,386s-10.2,102.7-30.3,150.3c-19.4,46-47.3,87.2-82.7,122.7c-35.4,35.4-76.7,63.3-122.7,82.7
		C488.7,761.8,438.1,772,386,772z M386,30c-95.1,0-184.5,37-251.7,104.3C67,201.5,30,290.9,30,386s37,184.5,104.3,251.7
		C201.5,705,290.9,742,386,742s184.5-37,251.7-104.3C705,570.5,742,481.1,742,386s-37-184.5-104.3-251.7C570.5,67,481.1,30,386,30z"
		/>
</g>
</svg>
