<svg id="Layer_1" data-name="Layer 1" xmlns="http://www.w3.org/2000/svg" viewBox="0 0 432 576"><defs><style>.cls-1{fill:#af46e0;}.cls-2{fill:#661f84;}.cls-3{fill:none;stroke:#000;stroke-linecap:round;stroke-linejoin:round;stroke-width:8px;}.cls-4{fill:#2d313f;}.cls-5{fill:#fbd82b;}.cls-6{fill:#ffe278;}.cls-7{fill:#862ea5;}.cls-8{fill:#824407;}.cls-9{fill:#333;}.cls-10{fill:#b35edb;}.cls-11{fill:#9e5c1c;}.cls-12{fill:#7d7e7e;}.cls-13{fill:#d8e0e6;}.cls-14{fill:#f0f3f5;}.cls-15{fill:#802a24;}.cls-16{fill:#701d1d;}.cls-17{fill:#663101;}</style></defs><path class="cls-1" d="M153.76,241.65c-34.1-1.21-62.44-12.94-65.92-27.28-.55-2.26.55-4.49,1.58-6.17,6.25-10.28,40.71-43.91,90.68-55.54a181.69,181.69,0,0,1,47.66-4.44c28.8,1,62.48,9.7,64.76,20.53s-6.91,24.65-25.18,38.14-43,24.49-68,30.32a173.77,173.77,0,0,1-45.55,4.44Z"/><path class="cls-1" d="M292.52,168.75c-2.28-10.83-36-19.51-64.76-20.53a181.69,181.69,0,0,0-47.66,4.44c-1.38.32-2.76.66-4.12,1l22.58,83.7.76-.17c25-5.83,49.82-16.88,68-30.32S294.79,179.5,292.52,168.75Z"/><path class="cls-2" d="M91.76,213.4c4,16.34,53.25,32.25,106.65,19.82s94-45.39,90.16-63.61c-1.86-8.81-54.16-25.4-107.56-13S90.54,208.38,91.76,213.4Z"/><polyline class="cls-3" points="213.52 384.72 226.53 471.72 244.1 471.72"/><polyline class="cls-3" points="181.28 380.27 173.4 471.72 152.81 471.72"/><rect class="cls-1" x="108.87" y="243.22" width="171.26" height="38.29" rx="12"/><ellipse class="cls-4" cx="196.07" cy="371.68" rx="63.04" ry="27.19"/><path class="cls-5" d="M140.93,157.23c13.7,5.71,33,9.27,54.49,9.27,22.12,0,42-3.79,55.78-9.82"/><path class="cls-5" d="M270.73,160.89c0,28.79.13,78.2.15,120.34,0,11.47-15.25,24.76-15.25,34.6,0,25.17,15.18,40.78,15.05,42.09-1.54,16.43-33.69,29.88-75.26,29.88s-70.28-14.16-70.28-30.66l-5-177.47,20.77-22.44Z"/><path class="cls-6" d="M133,356V155.7a64.79,64.79,0,0,0,7.91,3.85v219a64.79,64.79,0,0,1-7.91-3.85Z"/><path class="cls-6" d="M167.81,341.54V164.36q-4.08-.65-7.91-1.46V384.2c2.55.54,5.19,1,7.91,1.45Z"/><path class="cls-6" d="M202.41,383.64V166.5q-3.45.13-7,.13h-.92v221.3h.92c2.36,0,4.69-.05,7-.13Z"/><polygon class="cls-6" points="223.42 385.64 223.42 164.39 231.33 162.91 231.33 384.13 223.42 385.64"/><path class="cls-6" d="M251.2,359.16v18.52c2.37-1.13,6.33-3.29,7.9-4.29V152.63a81.39,81.39,0,0,1-7.91,4.05"/><path class="cls-7" d="M270.9,263.61c9.88.74,20.83-.24,50.47-20.8,1.21,5.14,5.08,61.93,5.88,64.87-23.5,17.13-58.88,7.58-81.72-15.18C249.41,288.09,269.3,266.18,270.9,263.61Z"/><path class="cls-1" d="M270.9,263.61c-.75,1.22-5.58,6.74-10.88,12.69,10.71,4.68,23,4.68,34.72,2.4,1.75-9.74,6.6-19,13.19-27.11C288.09,263.64,279.12,264.22,270.9,263.61Z"/><ellipse class="cls-1" cx="329.05" cy="278.61" rx="31.85" ry="43.39"/><path class="cls-2" d="M321.91,273.4c.35,18.45,7.36,33.3,15.65,33.17s14.74-15.2,14.39-33.65-7.36-33.3-15.65-33.17S321.56,255,321.91,273.4Z"/><path class="cls-7" d="M259.52,306.47c12.9,25.77,22.82,50.44,34.07,84-5.42,22.25-19.58,44.39-36.79,51.69-4.88-21.23-13.48-116.15-14.88-128.77C248.9,310.51,256.72,307.62,259.52,306.47Z"/><path class="cls-7" d="M127.55,297.18c-8.71,34.58-31.95,83.46-45.94,103.25,5,14.65,23.23,43.41,56.1,45.38,24-34,55.69-140.18,51.16-155.42C180,292.4,138.16,296.58,127.55,297.18Z"/><path class="cls-1" d="M82.76,400.17c.45,1.46,1,3.07,1.75,4.79,14.13-20.75,27.28-41.95,37.75-64.37.79-2.7,1.48-5.13,1.24-7.4C111.24,359.61,93,386.07,82.76,400.17Z"/><path class="cls-7" d="M256.74,310.12c-22.61,25.82-73.29,31.95-97.72,31.5-9.44,21.91-45,73.94-63.65,93.25,6.49,7,28.3,15.47,44.14,20.41,6.11-2.06,16.93-2.17,25.26.23,12.13,1.1,26.11,4.58,40,3.42,7.77-1.83,15.55-2.74,22.21-1.37,12.21-2.4,33-14.22,42.55-21C275.62,412.83,270.77,356.48,256.74,310.12Z"/><path class="cls-1" d="M154,340.71c-.69,1.59-1.53,3.34-2.5,5.22,1.87,2.76,5,13.6-1,21.59a22.48,22.48,0,0,1-23.32,6.16c-9.58,14-30.51,37.29-41.09,49.65,1,20,32.48,37,55.94,31.26,15.27-28.53,25.81-71.66,31.92-114.11A196.7,196.7,0,0,1,154,340.71Z"/><path class="cls-1" d="M222.31,329.86c8.26,42.11,10.11,85.71,4.65,127.7,22.21,3.42,47.61-16.43,49.28-27.39,1.57-40.43-8.57-76.81-20.61-114.34C246.35,322,233.7,326.69,222.31,329.86Z"/><path class="cls-1" d="M178.1,339.34c.53,35.4-6.67,81.25-17.91,115.14,6.8,6.28,32.9,10.84,46.64,3.77,10.41-22.6,25.4-107.5,22.07-131.47C219.75,329.12,186.56,338.41,178.1,339.34Z"/><path class="cls-1" d="M112.27,267.6c.28,13.5-7.18,35.89,16.15,54,20.69,16.09,73.17,28.48,88.25,25.79,17.36-3.09,69.46-34.25,56.45-103.14l-5.37,10.45s-25.13,28.42-62.61,23.8-87.09,7.85-85.19-18.48S112.27,267.6,112.27,267.6Z"/><path class="cls-8" d="M263.76,313.28c-1.45,15.42-31.75,28.05-70.91,28.05s-70.92-12.56-70.92-28.05v-6.63c0,15.49,31.75,28.05,70.92,28.05s69.46-12.62,70.91-28.05Z"/><rect class="cls-5" x="184.56" y="330.5" width="20.08" height="16.91"/><rect class="cls-9" x="190.34" y="336.28" width="8.51" height="5.34"/><path class="cls-7" d="M108.48,272.12c-20.84,14.72-41.12,45.29-41.07,62,0,6.84,16.37,17.69,39.84,8.49,12.84-6.45,14.28-20.24,21.17-35.42C114.53,292.18,118.68,286.27,108.48,272.12Z"/><path class="cls-1" d="M108.48,272.12c-20.84,14.72-41.12,45.29-41.07,62a7,7,0,0,0,1.65,4.08c.14-15,23.42-43.51,42.45-61.83C110.5,274.94,109.5,273.52,108.48,272.12Z"/><ellipse class="cls-10" cx="104.12" cy="307.18" rx="24.3" ry="37.52"/><path class="cls-2" d="M95.84,303c0,15.13,5.86,27.4,13.09,27.4S122,318.12,122,303s-5.86-27.41-13.09-27.41S95.84,287.85,95.84,303Z"/><path class="cls-8" d="M127.39,342.93c-2.26,9.48,4.16,17.35,12.89,18.8,9.94,1.64,18.05-5.68,19.34-15.31,1.06-7.84-1.47-18.93-10.07-20.82C141.62,323.85,129.66,333.46,127.39,342.93Z"/><path class="cls-11" d="M143.66,331.41c-2.95,2-9.77,11.9-9,19.86.64,6.39,5.71,11.91,15.15,9.17a18,18,0,0,0,9.79-14c.7-5.18-.11-12.5-3.22-17.41C154.13,331.31,150.22,332.57,143.66,331.41Z"/><path class="cls-11" d="M141,327c-.53-1.84-.42-3.62-4.15-6.59-2.57-2.52,8.89-4.89,15.53-3.26,8.67,2.13,11.45,6.1,12.58,8.43,2.32,4.06-8.14,4.55-10.68,5C151.48,331.21,141.8,330.7,141,327Z"/><path class="cls-8" d="M140.46,319.78c-.61-.61,7.11-1,10.43-.25,2.82.6,11.09,4.84,11.2,5.81.12,1.13-7.47-.07-12.47-.52C147.49,324.63,141.87,321.2,140.46,319.78Z"/><path class="cls-11" d="M337.38,262.26c2.77-4.06,4-9.52,5.58-14.18,1.63-4.9,3.08-9.86,4.56-14.8,2.83-9.5,5.55-19.11,9.62-28.16a35.48,35.48,0,0,1,7.67-11A46.33,46.33,0,0,0,373.66,183a21.58,21.58,0,0,0,2.06-13.1,21.82,21.82,0,0,1-.31-5.41c.26-2.17,1.27-4.12,1.87-6.18.31-1.07-.69-2.39-1.8-1.64-7,4.75-3.73,14.06-6.29,20.81-1.72,4.56-5.23,7.43-8.76,10.56a43.26,43.26,0,0,0-9.4,12.61c-4.81,9.17-7.65,19.4-10.6,29.28-1.41,4.75-2.8,9.51-4.31,14.23-1.62,5-4.37,10.24-4.9,15.51C330.81,263.85,334.74,266.14,337.38,262.26Z"/><path class="cls-5" d="M366.67,136.83a1.09,1.09,0,0,0-.77-.83l-6.5-1.77-2.22-6.36a1.09,1.09,0,0,0-.88-.71,1.07,1.07,0,0,0-1,.48l-3.69,5.63-6.73.15a1.07,1.07,0,0,0-.82,1.74l4.22,5.25-1.94,6.45a1.09,1.09,0,0,0,.9,1.38,1,1,0,0,0,.51-.07l6.29-2.38,5.54,3.83a1,1,0,0,0,.48.19,1.14,1.14,0,0,0,.65-.13,1.07,1.07,0,0,0,.55-1l-.32-6.72,5.36-4.08A1.08,1.08,0,0,0,366.67,136.83Z"/><path class="cls-5" d="M348.81,154.14a.76.76,0,0,0-.61-.55l-4.78-.82-2-4.41a.79.79,0,0,0-.69-.45.78.78,0,0,0-.7.42l-2.26,4.29-4.82.57a.77.77,0,0,0-.46,1.31l3.38,3.47-.95,4.76a.81.81,0,0,0,.29.77.82.82,0,0,0,.45.16.86.86,0,0,0,.36-.08l4.36-2.15,4.23,2.37a.68.68,0,0,0,.36.1.76.76,0,0,0,.78-.88l-.69-4.8,3.56-3.3A.76.76,0,0,0,348.81,154.14Z"/><path class="cls-5" d="M297,157.4a.5.5,0,0,0-.47-.24l-3.11.27-2-2.41a.53.53,0,0,0-.5-.17.5.5,0,0,0-.37.38l-.71,3-2.9,1.15a.5.5,0,0,0-.32.42.52.52,0,0,0,.24.47l2.68,1.61.19,3.12a.51.51,0,0,0,.31.43.47.47,0,0,0,.31,0,.45.45,0,0,0,.21-.1l2.36-2,3,.78a.49.49,0,0,0,.24,0,.5.5,0,0,0,.27-.16.52.52,0,0,0,.08-.52l-1.22-2.88,1.67-2.63A.49.49,0,0,0,297,157.4Z"/><path class="cls-5" d="M322.67,159a.57.57,0,0,0-.46-.37l-3.5-.36L317,155.16a.55.55,0,0,0-.51-.29.55.55,0,0,0-.49.33l-1.43,3.21-3.46.65a.56.56,0,0,0-.43.4.54.54,0,0,0,.16.56l2.62,2.35-.46,3.49a.57.57,0,0,0,.24.54.58.58,0,0,0,.34.09.63.63,0,0,0,.26-.07l3-1.76,3.17,1.51a.6.6,0,0,0,.26.05.52.52,0,0,0,.33-.12.55.55,0,0,0,.2-.56l-.73-3.43,2.41-2.55A.54.54,0,0,0,322.67,159Z"/><path class="cls-5" d="M334.12,142.46a.65.65,0,0,0-.47-.5l-3.95-1.05-1.38-3.85a.66.66,0,0,0-1.17-.14l-2.22,3.44-4.09.12a.66.66,0,0,0-.49,1.07l2.59,3.17-1.15,3.93a.64.64,0,0,0,.18.66.63.63,0,0,0,.37.17.56.56,0,0,0,.31,0l3.82-1.47,3.38,2.31a.68.68,0,0,0,.69,0,.66.66,0,0,0,.33-.6l-.23-4.09,3.24-2.5A.64.64,0,0,0,334.12,142.46Z"/><path class="cls-5" d="M312.89,148.08a.59.59,0,0,0-.48-.42l-3.73-.67-1.57-3.46a.6.6,0,0,0-1.08,0l-1.79,3.34-3.77.42a.61.61,0,0,0-.5.4.59.59,0,0,0,.13.62l2.63,2.74-.76,3.71a.6.6,0,0,0,.22.6.56.56,0,0,0,.35.13.67.67,0,0,0,.28-.06l3.42-1.65,3.29,1.87a.6.6,0,0,0,.28.08.63.63,0,0,0,.36-.1.6.6,0,0,0,.26-.59l-.51-3.75,2.8-2.56A.62.62,0,0,0,312.89,148.08Z"/><path class="cls-5" d="M400.45,137.36a1.47,1.47,0,0,0-.82-1.34l-8.38-4.22L390,122.5a1.5,1.5,0,0,0-1-1.21,1.48,1.48,0,0,0-1.53.37l-6.6,6.66-9.24-1.65a1.49,1.49,0,0,0-1.59,2.15l4.3,8.34-4.43,8.27A1.5,1.5,0,0,0,370,147a1.54,1.54,0,0,0,.74.55,1.74,1.74,0,0,0,.72.06l9.26-1.52,6.49,6.77a1.46,1.46,0,0,0,.61.38,1.49,1.49,0,0,0,1.95-1.19l1.42-9.27,8.45-4.09A1.5,1.5,0,0,0,400.45,137.36Z"/><path class="cls-12" d="M148.09,109.27c2.39.91,7.8-7.59,12.09-19S166,69,163.62,68.06s-7.8,7.59-12.09,19S145.7,108.38,148.09,109.27Z"/><path class="cls-7" d="M165.28,67.39c-16.13.61-32.8,45.52-49.87,61.77-1.43-3.06-4-5-6.71-4.67-3.64.45-6.08,4.9-5.45,9.92a11.07,11.07,0,0,0,2.87,6.33c1.75,2.11,6.41,3.75,15.29,3.59,22.68-.41,63-25.82,63.31-38.53C177.16,83.09,167.42,69.2,165.28,67.39Z"/><path class="cls-7" d="M165.28,67.39c-18.26.21-29.66,48.12-24.87,95.1l91-11.49C218.91,102.2,177.8,67.25,165.28,67.39Z"/><path class="cls-1" d="M140.5,118.61a212.06,212.06,0,0,0-.09,43.88l6.5-1.39C145.34,153.36,141.23,131.44,140.5,118.61Z"/><path class="cls-1" d="M165.28,67.39a10.17,10.17,0,0,0-2.13.26,10,10,0,0,0-4.74,6.65c-7.9,29.16-3.09,57.11,2.21,85.26L231.45,151C218.91,102.2,177.8,67.25,165.28,67.39Z"/><path class="cls-7" d="M142.12,148.63c1.24-1.24,10.95-8.15,12.36-9.11a55.86,55.86,0,0,0-20.4,13.53c-6.79,6.72-18.07,20.08-23,27.41-3.7,5.51-11,15.51-15.63,20.24a54.87,54.87,0,0,0-6.58,8.2c3.41-3.63,6.73-6.09,9.25-8.52C116,183.14,122.11,166.49,142.12,148.63Z"/><path class="cls-7" d="M290.25,174.09c1.57-6.16-4-12.36-6.61-13.32a253,253,0,0,1-32.25-15.41c-8.48-4.77-13.62-8.81-21.7-13.92-20.34-9.94-73.85-.79-96.16,22.54-6.79,6.72-17.52,19.15-22.46,26.48-3.7,5.51-11,15.51-15.63,20.24a49.73,49.73,0,0,0-7.6,10c-.88,1.91,2.4,4,3.41,5.39-.4-3.23,2.16-6.06,4.65-7.9,40.17-29.6,102.14-52.24,183.49-39.83C281.75,168.68,288.12,170.26,290.25,174.09Z"/><path class="cls-1" d="M283.64,160.77a253,253,0,0,1-32.25-15.41c-8.48-4.77-13.62-8.81-21.7-13.92-15.42-9.3-45.85-5-73.81,13.51a118.08,118.08,0,0,0-11.28,16.19c-4.51,6.82-3.79,11.85-9.78,17.64-2.44,2.35.69,4.91,3.46,5.21,37.06-15.92,84.36-24.33,141.11-15.67,2.36.36,8.73,1.94,10.86,5.77C291.82,167.93,286.21,161.73,283.64,160.77Z"/><path class="cls-8" d="M96.79,219.79c0,.5.09,1,.15,1.57,2.78,26,9.5,85,18.74,140.74,5,30.17,16.09,49,19.77,71.42,3.65,22.16,2.6,36.7,1.22,42-2.12,8.15-10.21,8.19-9.84,2.52.39-6.08.62-20.75-3.23-43.82-3.77-22.53-16.56-39-21.62-69.79-9.35-56.91-16.49-117.12-19.32-142.21-.06-.51-.12-1-.17-1.49l-2.67-16.53L58.68,192.73l25.51-46.34"/><path class="cls-11" d="M90.4,221.4c-.44,19,6.61,83.78,14.15,127.89,4.32,25.27,16.55,51.66,22.75,75.82,5.25,18.9,7,40.6,5.48,56.11a9,9,0,0,0,3.89-5.73c1.38-5.27,2.43-19.81-1.22-42-3.68-22.37-14.77-41.25-19.77-71.42-9.24-55.74-16-114.73-18.74-140.74-.06-.54-.12-1.07-.15-1.57l17.37-33.33L95.37,176.27,84.19,146.39l-.3,9.72Z"/><path d="M91.66,272.73A11.34,11.34,0,0,1,99,274.4a2.6,2.6,0,0,1,2.16-.85c2.65.2,5.93,3.68,5.69,7a6.17,6.17,0,0,1-3.69,5.52c-.69,5.64-3.81,11-8,11.55-5.27.7-10.28-4.34-11.18-11.24S86.38,273.2,91.66,272.73Z"/><path d="M337.84,244.63a11.35,11.35,0,0,0-7.35,1.66,2.58,2.58,0,0,0-2.16-.84c-2.65.19-5.93,3.67-5.68,7a6.14,6.14,0,0,0,3.69,5.53c.68,5.63,3.8,11,8,11.55,5.27.69,10.28-4.34,11.18-11.24S343.12,245.1,337.84,244.63Z"/><path class="cls-13" d="M156.4,245c-5,10.27-16.25,26-16.4,44.52,3.28,20.88,57.56,55.11,80.06,57.78,30-3.88,62.35-42.7,64.61-53.16-.07-17.07-20.49-46.31-28.19-53.49C233.11,240.81,165.94,245.47,156.4,245Z"/><path class="cls-14" d="M144.34,289.19c.77-16.73,11.56-34.4,16.42-43.58a40.43,40.43,0,0,0-4.36-.58c-5,10.27-16.25,26-16.4,44.52,2.86,18.21,44.53,46.58,70.05,55.3C177.52,331,146.76,304.58,144.34,289.19Z"/><path class="cls-14" d="M258,240.21c-11.85.06-31.25,1.36-53.38,2.9-3,5-20.75,13.45-34.69,14.21-4.51,12.42-5.67,28.15-4,32.56,3.64,9.57,28.84,41.21,58.17,50.34,15.5-2.56,51.32-21.33,60.3-45.46v0C284.39,277.66,270.53,253.64,258,240.21Z"/><path class="cls-13" d="M205.3,253.57c7.1,3.39,15.53,2.26,19-1.23C222.44,258.72,214.34,261.75,205.3,253.57Z"/><path class="cls-15" d="M196.49,245.08c1.53,4.36,11.4,8,20.62,6.49s14.32-7.51,12.8-11.87-10.24-6.68-19.47-5.2S195,240.73,196.49,245.08Z"/><path class="cls-15" d="M211.83,249.21c-6,0-10.78-1.92-11.64-4.75-.5-1.65.37-3.43,2.44-5A20.5,20.5,0,0,1,211.9,236a26.92,26.92,0,0,1,4-.31c6,0,10.78,1.92,11.64,4.75.5,1.65-.37,3.43-2.44,5a20.5,20.5,0,0,1-9.26,3.5,27.15,27.15,0,0,1-4,.31Z"/><path class="cls-13" d="M277,233.74c.14-3-7.32-.54-9.22,0-4.23,1.16-9,1.89-13.43.45-14.22-4.67-34.54-10.77-41.44-8.5a8.24,8.24,0,0,0-3.29,2,11.52,11.52,0,0,0-2.75-1.08c-6.22-1.55-14.62,1.28-20.15,2.89-6,1.75-11.38,4.3-17.21,6.27-5.39,1.83-12.16,3.79-18.23,2.73-2.69-.48-7.82-2.18-10.5-1.14-2.05.79-.52,2.74.42,3.76A34.92,34.92,0,0,0,147,246a40,40,0,0,0,16.49,6.24c11.13,1.81,24,.52,33.78-3.51a53.25,53.25,0,0,0,8.36-4.38,59,59,0,0,0,6.92-4.67c.34.17.64.34.87.48,1.28.8,2.59,1.58,3.93,2.32a52.87,52.87,0,0,0,8.28,3.73c9.82,3.39,22.41,3.81,32.91,1.68C267.06,246.16,276.73,240.08,277,233.74Z"/><path class="cls-14" d="M277,233.74c.14-3-7.32-.54-9.22,0-4.23,1.16-9,1.89-13.43.45-14.22-4.67-34.54-10.77-41.44-8.5a8.24,8.24,0,0,0-3.29,2,11.52,11.52,0,0,0-2.75-1.08c-6.22-1.55-14.62,1.28-20.15,2.89-6,1.75-11.38,4.3-17.21,6.27-5.39,1.83-12.16,3.79-18.23,2.73-2.69-.48-7.82-2.18-10.5-1.14-1.08,2.65,11.79,11.34,24.53,13.17,14.57,2.08,22.94,1.53,32-1.81a43.51,43.51,0,0,0,8.36-4.38,59,59,0,0,0,6.92-4.67c.34.17.64.34.87.48,1.28.8,2.59,1.58,3.93,2.32a52.87,52.87,0,0,0,8.28,3.73c9.82,3.39,22.41,3.81,32.91,1.68C267.06,246.16,276.73,240.08,277,233.74Z"/><path class="cls-16" d="M164.34,223.27a2.31,2.31,0,0,1-2.25-1.69,10.36,10.36,0,0,1,2.31-9,15.87,15.87,0,0,1,9.12-5.33c7.77-1.62,15.27,2.16,16.74,8.43a2.33,2.33,0,0,1-2,2.67,2.46,2.46,0,0,1-3-1.64c-.91-3.89-5.75-6.2-10.79-5.15a10.5,10.5,0,0,0-6,3.51,6.3,6.3,0,0,0-1.45,5.47,2.32,2.32,0,0,1-2,2.67A2.5,2.5,0,0,1,164.34,223.27Z"/><path class="cls-16" d="M221,214.61a2.25,2.25,0,0,1-2.31-2.22,11.19,11.19,0,0,1,4.66-8.33,16.7,16.7,0,0,1,10.22-3.32c7.87,0,14.13,5.28,13.84,11.72a2.49,2.49,0,0,1-2.61,2.21,2.25,2.25,0,0,1-2.43-2.22c.18-4-3.89-7.26-9-7.29a11.06,11.06,0,0,0-6.77,2.19,6.85,6.85,0,0,0-2.87,5.05,2.49,2.49,0,0,1-2.61,2.21Z"/><path class="cls-14" d="M227,181.23c-14-.84-19.44,9.73-17.36,14.58,1.77,3.52,7.09-3.26,21.5-1.44,13.94,1.77,13.23,5.44,15.77,3.34C251.35,194.07,241.1,181.7,227,181.23Z"/><path class="cls-14" d="M188.71,196.35c1.27-6.82-10-13.27-23.29-7.9-13,5.24-14.49,17.49-12.63,20.09s3.76-3.74,17.09-8.18C181.64,196.44,188,200.29,188.71,196.35Z"/><path class="cls-17" d="M83.89,156.11,65.32,191.57l13.24,6.89,1.74-3.34,9.55,30.29,18.21-35.62-12.85-6.7-1.75,3.38Zm-2.78,28.23-4.48,8.59L71.08,190l12.07-23.18L92.63,197,97,188.53l5.66,3.06-12,23.11"/><polyline class="cls-5" points="80.92 184.32 76.45 192.91 70.89 190.02 82.96 166.84 92.45 196.94 96.83 188.51 102.49 191.56 90.49 214.68"/><path class="cls-5" d="M165.42,97.55l-5,2.13a.44.44,0,0,0,0,.78l4.74,2.67a.47.47,0,0,1,.22.34l.48,5.42a.44.44,0,0,0,.73.28l4-3.68a.4.4,0,0,1,.39-.1l5.3,1.21a.44.44,0,0,0,.49-.61l-2.26-4.94a.43.43,0,0,1,0-.4L177.28,96a.44.44,0,0,0-.42-.66l-5.4.63a.46.46,0,0,1-.38-.15l-3.57-4.09a.44.44,0,0,0-.76.19l-1.07,5.34A.45.45,0,0,1,165.42,97.55Z"/><path class="cls-5" d="M159.49,145.29l4.88,3.21a.85.85,0,0,0,.76.07l5.41-2.2a.81.81,0,0,1,1.1,1L170.1,153a.85.85,0,0,0,.16.75l3.77,4.46a.82.82,0,0,1-.59,1.34l-5.83.28a.8.8,0,0,0-.66.38l-3.08,5a.82.82,0,0,1-1.46-.15l-2.06-5.46a.82.82,0,0,0-.57-.5l-5.67-1.4a.82.82,0,0,1-.32-1.43l4.56-3.65a.82.82,0,0,0,.3-.7l-.42-5.83A.81.81,0,0,1,159.49,145.29Z"/><path class="cls-5" d="M183,89.25a21,21,0,0,0-6,2.17l.12,0c11.34-2.23,22.41,5.5,24.73,17.27s-5,23.11-16.34,25.34l-.12,0a21.22,21.22,0,0,0,6.39-.28c11.84-2.33,19.48-14.18,17.06-26.47S194.81,86.92,183,89.25Z"/><path class="cls-5" d="M218.13,136.75l2.35,2.89a.49.49,0,0,0,.45.19l3.72-.29a.52.52,0,0,1,.47.8l-2,3.14a.51.51,0,0,0,0,.48l1.43,3.44a.53.53,0,0,1-.62.71l-3.6-1a.52.52,0,0,0-.48.1L217,149.68a.52.52,0,0,1-.86-.37l-.2-3.73a.52.52,0,0,0-.25-.42l-3.18-1.94a.53.53,0,0,1,.09-.94l3.48-1.34a.51.51,0,0,0,.32-.36l.87-3.63A.52.52,0,0,1,218.13,136.75Z"/></svg>