<?xml version="1.0" encoding="utf-8"?>
<!-- Generator: Adobe Illustrator 27.8.1, SVG Export Plug-In . SVG Version: 6.00 Build 0)  -->
<svg version="1.1" id="Layer_1" xmlns:v="https://vecta.io/nano"
	 xmlns="http://www.w3.org/2000/svg" xmlns:xlink="http://www.w3.org/1999/xlink" x="0px" y="0px" viewBox="0 0 4250.6 835.9"
	 style="enable-background:new 0 0 4250.6 835.9;" xml:space="preserve">
<style type="text/css">
	.st0{opacity:0.85;fill:#FFFFFF;enable-background:new    ;}
	.st1{enable-background:new    ;}
	.st2{fill:#002451;}
	.st3{fill:#010101;}
	.st4{fill:url(#SVGID_1_);}
</style>
<circle class="st0" cx="419.9" cy="419" r="396.3"/>
<g class="st1">
	<path class="st2" d="M1487.4,548c0,56-12.7,96.7-38,122s-66,38-122,38h-200c-56,0-96.7-12.7-122-38c-25.3-25.3-38-66-38-122V292
		c0-56,12.7-96.7,38-122c25.3-25.3,66-38,122-38h200c56,0,96.7,12.7,122,38s38,66,38,122V548z M1343.4,292c0-32-16-48-48-48h-136
		c-32,0-48,16-48,48v256c0,32,16,48,48,48h136c32,0,48-16,48-48V292z"/>
</g>
<g class="st1">
	<path class="st2" d="M1557.8,252h268.8c44.8,0,77.3,10.1,97.6,30.4c20.3,20.3,30.4,52.8,30.4,97.6v64c0,44.8-10.1,77.3-30.4,97.6
		s-52.8,30.4-97.6,30.4H1673v128h-115.2V252L1557.8,252z M1839.4,380c0-25.6-12.8-38.4-38.4-38.4h-128v140.8h128
		c25.6,0,38.4-12.8,38.4-38.4V380z"/>
	<path class="st2" d="M2367.4,700h-355.2V252h355.2v89.6h-240V428h188.8v89.6h-188.8v92.8h240V700z"/>
	<path class="st2" d="M2809,700h-121.6l-153.6-268.8V700h-115.2V252h121.6l153.6,268.8V252H2809V700z"/>
</g>
<g>
	<path class="st2" d="M3319.4,252l-280,336h280v112h-456V588l280-336h-280V140h456V252z"/>
</g>
<g>
	<path class="st2" d="M3585,700h-230.4v-89.6h57.6V341.6h-57.6V252H3585v89.6h-57.6v268.8h57.6V700z"/>
	<path class="st2" d="M3860.2,700H3745V341.6h-134.4V252h384v89.6h-134.4L3860.2,700L3860.2,700z"/>
	<path class="st2" d="M4250.6,700h-230.4v-89.6h57.6V341.6h-57.6V252h230.4v89.6H4193v268.8h57.6V700z"/>
</g>
<path id="Lightning_Crashes" class="st3" d="M419,96.6L215.4,414.3L334,490l19.1-30l64.8,292.4l200.4-319.5l-115.2-73.6l-19.2,30.3
	L419,96.6z M515.6,411.9l50.6,33.4L434.5,652.5l-64.9-293l-49.2,77l-49.8-31.7l132.5-207.7l64.3,290.5L515.6,411.9z"/>
<g>
	
		<linearGradient id="SVGID_1_" gradientUnits="userSpaceOnUse" x1="80.9483" y1="864.9913" x2="757.711" y2="188.2288" gradientTransform="matrix(1 0 0 -1 0 945.8897)">
		<stop  offset="4.306891e-03" style="stop-color:#FC0147"/>
		<stop  offset="3.918269e-02" style="stop-color:#F4044D"/>
		<stop  offset="0.9" style="stop-color:#0068F9"/>
	</linearGradient>
	<path class="st4" d="M418,835.9c-56.4,0-111.2-11-162.7-32.8c-49.8-21-94.4-51.2-132.9-89.5c-38.3-38.3-68.5-83.1-89.5-132.9
		C11,529.2,0,474.4,0,418s11-111.2,32.8-162.7c21-49.8,51.2-94.4,89.5-132.9c38.3-38.3,83.1-68.5,132.9-89.5C306.8,11,361.5,0,418,0
		s111.2,11,162.7,32.8c49.8,21,94.4,51.2,132.9,89.5c38.3,38.3,68.5,83.1,89.5,132.9c21.8,51.5,32.8,106.3,32.8,162.7
		s-11,111.2-32.8,162.7c-21,49.8-51.2,94.4-89.5,132.9c-38.3,38.3-83.1,68.5-132.9,89.5C529.2,824.9,474.4,835.9,418,835.9z
		 M418,32.5c-103,0-199.8,40.1-272.5,112.9c-73,72.8-113,169.6-113,272.6s40.1,199.8,112.9,272.5c72.8,72.9,169.6,112.9,272.5,112.9
		s199.8-40.1,272.5-112.9c72.9-72.8,112.9-169.6,112.9-272.5s-40.1-199.8-112.9-272.5C617.7,72.5,520.9,32.5,418,32.5z"/>
</g>
</svg>
