<?xml version="1.0" encoding="UTF-8" standalone="no"?>
<!DOCTYPE svg PUBLIC "-//W3C//DTD SVG 1.1//EN" "http://www.w3.org/Graphics/SVG/1.1/DTD/svg11.dtd">
<!-- Generated by Microsoft Visio, SVG Export discourse_icon_1.svg Page-1 -->
<svg xmlns="http://www.w3.org/2000/svg" xmlns:xlink="http://www.w3.org/1999/xlink" xmlns:ev="http://www.w3.org/2001/xml-events"
		width="7.46491in" height="7.51257in" viewBox="0 0 537.474 540.905" xml:space="preserve" color-interpolation-filters="sRGB"
		class="st9">
	<style type="text/css">
	<![CDATA[
		.st1 {visibility:visible}
		.st2 {fill:#fff9ae;fill-opacity:0.4;filter:url(#filter_3.3333334922791);stroke:none;stroke-linecap:round;stroke-linejoin:round}
		.st3 {fill:#231f20;stroke:none;stroke-linecap:round;stroke-linejoin:round;stroke-width:0.75}
		.st4 {fill:#fff9ae;stroke:none;stroke-linecap:round;stroke-linejoin:round;stroke-width:0.75}
		.st5 {fill:#00aeef;stroke:none;stroke-linecap:round;stroke-linejoin:round;stroke-width:0.75}
		.st6 {fill:#00a94f;stroke:none;stroke-linecap:round;stroke-linejoin:round;stroke-width:0.75}
		.st7 {fill:#f15d22;stroke:none;stroke-linecap:round;stroke-linejoin:round;stroke-width:0.75}
		.st8 {fill:#e31b23;stroke:none;stroke-linecap:round;stroke-linejoin:round;stroke-width:0.75}
		.st9 {fill:none;fill-rule:evenodd;font-size:12px;overflow:visible;stroke-linecap:square;stroke-miterlimit:3}
	]]>
	</style>

	<defs id="Filters">
		<filter id="filter_3.3333334922791">
			<feGaussianBlur stdDeviation="3.3333334922791"/>
		</filter>
	</defs>
	<g>
		<title>Page-1</title>
		<g id="group30-1" transform="translate(26.7764,-26.9181)">
			<title>Sheet.30</title>
			<g id="shape21-2">
				<title>Sheet.21</title>
				<g id="shadow21-3" transform="matrix(1.09,0,0,1.09,-21.7764,-26.7634)" class="st1">
					<path d="M244.02 53.84 C111.72 53.84 0 161.16 0 293.12 C0 297.52 0 540.91 0 540.91 L244.02 540.91 C376.61 540.91
								 483.92 429.47 483.92 297.52 C483.92 165.27 376.32 53.84 244.02 53.84 Z" class="st2"/>
				</g>
				<path d="M244.02 53.84 C111.72 53.84 0 161.16 0 293.12 C0 297.52 0 540.91 0 540.91 L244.02 540.91 C376.61 540.91
							 483.92 429.47 483.92 297.52 C483.92 165.27 376.32 53.84 244.02 53.84 Z" class="st3"/>
			</g>
			<g id="group29-7" transform="translate(80.5442,-80.2605)">
				<title>Sheet.29</title>
				<g id="shape22-8" transform="translate(8.24321,-8.88404)">
					<title>Sheet.22</title>
					<g id="shadow22-9" transform="matrix(1.09,0,0,1.09,-13.7907,-34.9447)" class="st1">
						<path d="M157.58 235.64 C75.56 235.64 9.11 302.21 9.11 384.32 C9.11 408.95 15.29 432.99 27.05 454.69 L0 540.91
									 L96.73 519.21 C171.69 552.93 259.6 519.5 293.41 445.02 C326.93 370.24 293.7 282.56 218.73 248.84
									 C199.62 240.34 178.75 235.64 157.88 235.64 L157.58 235.64 Z" class="st2"/>
					</g>
					<path d="M157.58 235.64 C75.56 235.64 9.11 302.21 9.11 384.32 C9.11 408.95 15.29 432.99 27.05 454.69 L0 540.91
								 L96.73 519.21 C171.69 552.93 259.6 519.5 293.41 445.02 C326.93 370.24 293.7 282.56 218.73 248.84
								 C199.62 240.34 178.75 235.64 157.88 235.64 L157.58 235.64 Z" class="st4"/>
				</g>
				<g id="shape23-13" transform="translate(8.24321,0)">
					<title>Sheet.23</title>
					<g id="shadow23-14" transform="matrix(1.09,0,0,1.09,-14.5047,-37.1577)" class="st1">
						<path d="M275.77 284.82 C325.46 349.92 312.81 443.17 247.55 492.73 C204.33 525.57 146.41 532.31 96.73 510.03
									 L0 532.31 L98.49 520.58 C169.34 561.93 260.19 538.18 301.94 467.51 C336.92 407.98 326.04 332.33
									 275.77 284.82 Z" class="st2"/>
					</g>
					<path d="M275.77 284.82 C325.46 349.92 312.81 443.17 247.55 492.73 C204.33 525.57 146.41 532.31 96.73 510.03
								 L0 532.31 L98.49 520.58 C169.34 561.93 260.19 538.18 301.94 467.51 C336.92 407.98 326.04 332.33
								 275.77 284.82 Z" class="st5"/>
				</g>
				<g id="shape24-18" transform="translate(8.24321,-8.5908)">
					<title>Sheet.24</title>
					<g id="shadow24-19" transform="matrix(1.09,0,0,1.09,-13.7924,-36.3171)" class="st1">
						<path d="M248.43 266.14 C304.58 325.67 301.94 419.5 242.25 475.81 C202.56 513.05 145.53 525.66 93.79 508.65
									 L0 540.91 L96.73 518.91 C171.4 552.63 259.6 519.5 293.41 445.02 C321.63 381.97 303.11 308.07
									 248.43 266.14 Z" class="st2"/>
					</g>
					<path d="M248.43 266.14 C304.58 325.67 301.94 419.5 242.25 475.81 C202.56 513.05 145.53 525.66 93.79 508.65 L0
								 540.91 L96.73 518.91 C171.4 552.63 259.6 519.5 293.41 445.02 C321.63 381.97 303.11 308.07 248.43
								 266.14 Z" class="st6"/>
				</g>
				<g id="shape25-23" transform="translate(8.24321,-8.88404)">
					<title>Sheet.25</title>
					<g id="shadow25-24" transform="matrix(1.09,0,0,1.09,-12.4097,-34.977)" class="st1">
						<path d="M35.87 457.92 C4.41 382.26 40.28 295.46 116.13 264.09 C170.52 241.8 233.14 253.24 275.77 293.71
									 C226.08 228.61 132.59 216 67.33 265.55 C8.82 310.13 -8.23 390.47 27.05 454.69 L0 540.91 L35.87
									 457.92 Z" class="st2"/>
					</g>
					<path d="M35.87 457.92 C4.41 382.26 40.28 295.46 116.13 264.09 C170.52 241.8 233.14 253.24 275.77 293.71 C226.08
								 228.61 132.59 216 67.33 265.55 C8.82 310.13 -8.23 390.47 27.05 454.69 L0 540.91 L35.87 457.92 Z"
							class="st7"/>
				</g>
				<g id="shape26-28" transform="translate(-7.99361E-14,-8.5908)">
					<title>Sheet.26</title>
					<g id="shadow26-29" transform="matrix(1.09,0,0,1.09,-11.5502,-34.2437)" class="st1">
						<path d="M35.29 454.4 C-3.81 382.26 22.94 292.24 95.27 253.24 C146.72 225.38 209.93 230.66 256.67 266.14
									 C199.93 206.91 105.85 204.27 46.46 260.86 C-6.75 311.01 -15.28 391.94 26.18 452.05 L8.24 540.91
									 L35.29 454.4 Z" class="st2"/>
					</g>
					<path d="M35.29 454.4 C-3.81 382.26 22.94 292.24 95.27 253.24 C146.72 225.38 209.93 230.66 256.67 266.14 C199.93
								 206.91 105.85 204.27 46.46 260.86 C-6.75 311.01 -15.28 391.94 26.18 452.05 L8.24 540.91 L35.29 454.4
								 Z" class="st8"/>
				</g>
			</g>
		</g>
	</g>
</svg>
