<?xml version="1.0" encoding="UTF-8" standalone="no"?>
<!DOCTYPE svg PUBLIC "-//W3C//DTD SVG 1.1//EN" "http://www.w3.org/Graphics/SVG/1.1/DTD/svg11.dtd">
<!-- Generated by Microsoft Visio, SVG Export ssh-overview.svg Page-1 -->
<svg xmlns="http://www.w3.org/2000/svg" xmlns:xlink="http://www.w3.org/1999/xlink" xmlns:ev="http://www.w3.org/2001/xml-events"
		xmlns:v="http://schemas.microsoft.com/visio/2003/SVGExtensions/" width="7.52778in" height="2.59028in"
		viewBox="0 0 542 186.5" xml:space="preserve" color-interpolation-filters="sRGB" class="st37">
	<v:documentProperties v:langID="1033" v:viewMarkup="false"/>

	<style type="text/css">
	<![CDATA[
		.st1 {fill:#ffffff;stroke:none;stroke-linecap:butt;stroke-width:1}
		.st2 {marker-end:url(#mrkr13-8);stroke:#4d87ff;stroke-linecap:butt;stroke-width:1.5}
		.st3 {fill:#4d87ff;fill-opacity:1;stroke:#4d87ff;stroke-opacity:1;stroke-width:0.37313432835821}
		.st4 {stroke:#4d87ff;stroke-linecap:butt;stroke-width:1.5}
		.st5 {fill:#cbe7ff;stroke:none;stroke-linecap:butt;stroke-width:1}
		.st6 {fill:none;stroke:#0273fa;stroke-linecap:butt;stroke-width:1.3}
		.st7 {fill:none}
		.st8 {stroke:#0273fa;stroke-linecap:butt;stroke-width:1.3}
		.st9 {fill:none;stroke:#0273fa;stroke-linecap:round;stroke-linejoin:round;stroke-width:1.465}
		.st10 {fill:#1078ff;stroke:none;stroke-linecap:butt;stroke-width:1}
		.st11 {fill:#cbe6ff;stroke:none;stroke-linecap:butt;stroke-width:1}
		.st12 {fill:none;stroke:#0273fa;stroke-linecap:round;stroke-linejoin:round;stroke-width:1.3}
		.st13 {stroke:#0273fa;stroke-linecap:round;stroke-linejoin:round;stroke-width:1.3}
		.st14 {fill:#0273fa;stroke:none;stroke-linecap:butt;stroke-width:1}
		.st15 {stroke:#1078ff;stroke-linecap:round;stroke-linejoin:round;stroke-width:1.465}
		.st16 {fill:none;stroke:#0273fa;stroke-linecap:butt;stroke-width:1.465}
		.st17 {fill:#002060;font-family:Calibri;font-size:1.00001em}
		.st18 {stroke:#1078ff;stroke-linecap:round;stroke-linejoin:round;stroke-width:1.5}
		.st19 {fill:none;stroke:#1078ff;stroke-linecap:round;stroke-linejoin:round;stroke-width:1.5}
		.st20 {fill:none;stroke:none;stroke-linecap:round;stroke-linejoin:round;stroke-width:0.5}
		.st21 {fill:#0b64d7;font-family:Calibri;font-size:1.33333em}
		.st22 {fill:#ffffff;stroke:none;stroke-linecap:round;stroke-linejoin:round;stroke-width:0.5}
		.st23 {fill:#002060;font-family:Calibri;font-size:1.00001em;font-weight:bold}
		.st24 {stroke:#0273fa;stroke-linecap:round;stroke-linejoin:round;stroke-width:1.5}
		.st25 {fill:none;stroke:#0a4469;stroke-linecap:round;stroke-linejoin:round;stroke-width:3}
		.st26 {visibility:visible}
		.st27 {fill:#000000;fill-opacity:0.2;filter:url(#filter_4);stroke:#000000;stroke-linecap:round;stroke-linejoin:round;stroke-opacity:0.2}
		.st28 {fill:url(#grad8-159);stroke:#0b64d7;stroke-linecap:round;stroke-linejoin:round;stroke-width:0.5}
		.st29 {fill:none;filter:url(#filter_4);stroke:#000000;stroke-linecap:butt;stroke-opacity:0.2}
		.st30 {stroke:#ffffff;stroke-linecap:butt;stroke-width:0.5}
		.st31 {stroke:#ee5451;stroke-linecap:butt;stroke-width:1.5}
		.st32 {fill:#ffffff;stroke:none;stroke-linecap:butt;stroke-width:7.2}
		.st33 {fill:#e8261c;font-family:Calibri;font-size:0.666664em}
		.st34 {font-size:1em}
		.st35 {fill:#feffff;stroke:#c71f16;stroke-linecap:round;stroke-linejoin:round;stroke-width:0.5}
		.st36 {fill:#c71f16;font-family:Calibri;font-size:1.00001em}
		.st37 {fill:none;fill-rule:evenodd;font-size:12px;overflow:visible;stroke-linecap:square;stroke-miterlimit:3}
	]]>
	</style>

	<defs id="Patterns_And_Gradients">
		<pattern id="grad8-159" x="0" y="0" width="1" height="1" patternContentUnits="objectBoundingBox">
			<path d="M 0 0 L 1 0 L 1 1 z" style="fill:url(#grad0-160)"/>
			<path d="M 0 0 L 0 1 L 1 1 z" style="fill:url(#grad0-161)"/>
		</pattern>
		<linearGradient id="grad0-160" x1="0" y1="0" x2="1" y2="0" gradientTransform="rotate(270 0.5 0.5)">
			<stop offset="0.13" stop-color="#feffff" stop-opacity="1"/>
			<stop offset="0.56" stop-color="#bbcaff" stop-opacity="1"/>
			<stop offset="1" stop-color="#7fa1ff" stop-opacity="1"/>
		</linearGradient>
		<linearGradient id="grad0-161" x1="0" y1="0" x2="1" y2="0" gradientTransform="rotate(180 0.5 0.5)">
			<stop offset="0.13" stop-color="#feffff" stop-opacity="1"/>
			<stop offset="0.56" stop-color="#bbcaff" stop-opacity="1"/>
			<stop offset="1" stop-color="#7fa1ff" stop-opacity="1"/>
		</linearGradient>
	</defs>
	<defs id="Markers">
		<g id="lend13">
			<path d="M 3 1 L 0 0 L 3 -1 L 3 1 " style="stroke:none"/>
		</g>
		<marker id="mrkr13-8" class="st3" v:arrowType="13" v:arrowSize="2" v:setback="8.04" refX="-8.04" orient="auto"
				markerUnits="strokeWidth" overflow="visible">
			<use xlink:href="#lend13" transform="scale(-2.68,-2.68) "/>
		</marker>
	</defs>
	<defs id="Filters">
		<filter id="filter_4">
			<feGaussianBlur stdDeviation="4"/>
		</filter>
	</defs>
	<g v:mID="0" v:index="1" v:groupContext="foregroundPage">
		<title>Page-1</title>
		<v:pageProperties v:drawingScale="1" v:pageScale="1" v:drawingUnits="0" v:shadowOffsetX="9" v:shadowOffsetY="-9"/>
		<v:layer v:name="Connector" v:index="0"/>
		<g id="shape322-1" v:mID="322" v:groupContext="shape" transform="translate(1,-1)">
			<title>Sheet.322</title>
			<path d="M540 186.5 L0 186.5 L0 2 L540 2 L540 186.5 Z" class="st1"/>
		</g>
		<g id="shape112-3" v:mID="112" v:groupContext="shape" v:layerMember="0" transform="translate(150.375,-82)">
			<title>Dynamic connector.112</title>
			<path d="M0 177.5 L16.07 177.5" class="st2"/>
		</g>
		<g id="shape156-9" v:mID="156" v:groupContext="shape" v:layerMember="0" transform="translate(111.416,-140.486)">
			<title>Dynamic connector.156</title>
			<path d="M0 186.5 L38.96 235.99" class="st4"/>
		</g>
		<g id="shape157-12" v:mID="157" v:groupContext="shape" v:layerMember="0" transform="translate(68.7827,-115.328)">
			<title>Dynamic connector.157</title>
			<path d="M0 186.5 L81.59 210.83" class="st4"/>
		</g>
		<g id="shape158-15" v:mID="158" v:groupContext="shape" v:layerMember="0" transform="translate(70.6226,-61.0977)">
			<title>Dynamic connector.158</title>
			<path d="M0 186.5 L79.75 156.6" class="st4"/>
		</g>
		<g id="shape159-18" v:mID="159" v:groupContext="shape" v:layerMember="0" transform="translate(110.931,-36.3782)">
			<title>Dynamic connector.159</title>
			<path d="M0 186.5 L39.44 131.88" class="st4"/>
		</g>
		<g id="group126-21" transform="translate(4.8335,-99.2529)" v:mID="126" v:groupContext="group">
			<title>Sheet.126</title>
			<g id="group127-22" v:mID="127" v:groupContext="group">
				<title>surface1</title>
				<g id="shape128-23" v:mID="128" v:groupContext="shape" transform="translate(2.89453,-2.42187)">
					<title>Sheet.128</title>
					<path d="M59.63 186.5 L1 186.5 C0.45 186.5 0 186.05 0 185.5 L0 143.93 C0 143.37 0.45 142.93 1 142.93 L59.63 142.93
								 C60.18 142.93 60.63 143.37 60.63 143.93 L60.63 185.5 C60.63 186.05 60.18 186.5 59.63 186.5 Z"
							class="st5"/>
				</g>
				<g id="shape129-25" v:mID="129" v:groupContext="shape" transform="translate(5.83594,-7.20703)">
					<title>Sheet.129</title>
					<path d="M54.41 186.5 L0 186.5 L0 151.14 L54.41 151.14 L54.41 186.5 Z" class="st1"/>
				</g>
				<g id="shape130-27" v:mID="130" v:groupContext="shape" transform="translate(2.23821E-13,-5E-07)">
					<title>Sheet.130</title>
					<path d="M62.46 186.5 L3.29 186.5 C1.86 186.5 0.65 185.47 0.42 184.07 L0 181.5 L27.43 181.5 L28.48 183 L36.05
								 183 L37.19 181.5 L66.08 181.5 L65.71 183.73 C65.45 185.33 64.08 186.5 62.46 186.5 Z" class="st1"/>
				</g>
				<g id="shape131-29" v:mID="131" v:groupContext="shape" transform="translate(0,367.996) scale(1,-1)">
					<title>Sheet.131</title>
					<path d="M62.46 181.5 L3.29 181.5 C1.86 181.5 0.65 182.53 0.42 183.93 L0 186.5 L27.43 186.5 L28.48 184.99 L36.05
								 184.99 L37.19 186.5 L66.08 186.5 L65.71 184.26 C65.45 182.67 64.08 181.5 62.46 181.5 Z"
							class="st6"/>
				</g>
				<g id="shape132-31" v:mID="132" v:groupContext="shape" transform="translate(3.32422,327.004) scale(1,-1)">
					<title>Sheet.132</title>
					<path d="M0 145.65 L0 185.64 C0 186.11 0.39 186.5 0.86 186.5 L59.77 186.5 C60.24 186.5 60.63 186.11 60.63 185.64
								 L60.63 145.65 L0 145.65 Z" class="st7"/>
					<path d="M0 145.65 L0 185.64 C0 186.11 0.39 186.5 0.86 186.5 L59.77 186.5 C60.24 186.5 60.63 186.11 60.63 185.64
								 L60.63 145.65" class="st8"/>
				</g>
			</g>
		</g>
		<g id="group133-34" transform="translate(75.2788,-135.297)" v:mID="133" v:groupContext="group">
			<title>Sheet.133</title>
			<g id="group134-35" v:mID="134" v:groupContext="group">
				<title>surface1</title>
				<g id="shape135-36" v:mID="135" v:groupContext="shape" transform="translate(0,327.297) scale(1,-1)">
					<title>Sheet.135</title>
					<path d="M36.14 140.8 L0 140.8 L0 186.5 L36.14 186.5 L36.14 140.8 Z" class="st9"/>
				</g>
				<g id="shape136-38" v:mID="136" v:groupContext="shape" transform="translate(16.4766,-2.89453)">
					<title>Sheet.136</title>
					<path d="M3.68 184.66 C3.68 185.68 2.85 186.5 1.84 186.5 C0.82 186.5 0 185.68 0 184.66 C0 183.64 0.82 182.82
								 1.84 182.82 C2.85 182.82 3.68 183.64 3.68 184.66 Z" class="st10"/>
				</g>
				<g id="shape137-40" v:mID="137" v:groupContext="shape" transform="translate(4,-8.49609)">
					<title>Sheet.137</title>
					<path d="M27.91 186.5 L0 186.5 L0 153.1 L27.91 153.1 L27.91 186.5 Z" class="st11"/>
				</g>
			</g>
		</g>
		<g id="group138-42" transform="translate(86.603,-2.25)" v:mID="138" v:groupContext="group">
			<title>Sheet.138</title>
			<g id="group139-43" v:mID="139" v:groupContext="group">
				<title>surface1</title>
				<g id="shape140-44" v:mID="140" v:groupContext="shape" transform="translate(0.53125,-7.38281)">
					<title>Sheet.140</title>
					<path d="M24.28 186.5 L0 186.5 L0 159.45 L24.28 159.45 L24.28 186.5 Z" class="st11"/>
				</g>
				<g id="shape141-46" v:mID="141" v:groupContext="shape" transform="translate(6.39488E-14,331.5) scale(1,-1)">
					<title>Sheet.141</title>
					<path d="M24.33 148.58 C24.33 146.61 22.72 145 20.75 145 L3.58 145 C1.61 145 0 146.61 0 148.58 L0 182.92 C0 184.89
								 1.61 186.5 3.58 186.5 L20.75 186.5 C22.72 186.5 24.33 184.89 24.33 182.92 L24.33 148.58 Z"
							class="st12"/>
				</g>
				<g id="shape142-48" v:mID="142" v:groupContext="shape" transform="translate(6.39488E-14,-34.3438)">
					<title>Sheet.142</title>
					<path d="M0 186.5 L24.33 186.5 L0 186.5 Z" class="st7"/>
					<path d="M0 186.5 L24.33 186.5" class="st13"/>
				</g>
				<g id="shape143-51" v:mID="143" v:groupContext="shape" transform="translate(6.39488E-14,-7.15625)">
					<title>Sheet.143</title>
					<path d="M0 186.5 L24.33 186.5 L0 186.5 Z" class="st7"/>
					<path d="M0 186.5 L24.33 186.5" class="st13"/>
				</g>
				<g id="shape144-54" v:mID="144" v:groupContext="shape" transform="translate(7.15625,-37.207)">
					<title>Sheet.144</title>
					<path d="M0 186.5 L10.02 186.5 L0 186.5 Z" class="st7"/>
					<path d="M0 186.5 L10.02 186.5" class="st13"/>
				</g>
				<g id="shape145-57" v:mID="145" v:groupContext="shape" transform="translate(10.7344,-2.14844)">
					<title>Sheet.145</title>
					<path d="M2.86 185.07 C2.86 185.86 2.22 186.5 1.43 186.5 C0.64 186.5 0 185.86 0 185.07 C0 184.28 0.64 183.64
								 1.43 183.64 C2.22 183.64 2.86 184.28 2.86 185.07 Z" class="st14"/>
				</g>
			</g>
		</g>
		<g id="shape166-59" v:mID="166" v:groupContext="shape" transform="translate(179.537,-76.3136)">
			<title>Sheet.166</title>
			<path d="M127.25 156.55 L126.69 156.55 C124.22 147.98 116.36 141.71 107.02 141.71 C102.95 141.71 99.16 142.92 95.97 144.98
						 C93.9 131.47 82.32 121.13 68.3 121.13 C55.71 121.13 45.07 129.46 41.52 140.93 C39.92 140.5 38.25 140.24
						 36.52 140.24 C26.91 140.24 18.97 147.31 17.52 156.55 L14.38 156.55 C6.48 156.55 0 163.05 0 170.99 L0 172.05
						 C0 180 6.48 186.5 14.38 186.5 L127.25 186.5 C135.16 186.5 141.63 180 141.63 172.05 L141.63 170.99 C141.63
						 163.05 135.16 156.55 127.25 156.55 Z" class="st5"/>
		</g>
		<g id="shape167-61" v:mID="167" v:groupContext="shape" transform="translate(190.969,-76.3136)">
			<title>Sheet.167</title>
			<path d="M106.09 161.53 L105.62 161.53 C103.55 154.39 97 149.16 89.23 149.16 C85.83 149.16 82.67 150.16 80.01 151.88
						 C78.29 140.63 68.63 132 56.94 132 C46.45 132 37.57 138.94 34.62 148.5 C33.29 148.15 31.89 147.94 30.44 147.94
						 C22.44 147.94 15.82 153.83 14.6 161.53 L11.99 161.53 C5.4 161.53 0 166.95 0 173.57 L0 174.46 C0 181.08 5.4
						 186.5 11.99 186.5 L106.09 186.5 C112.68 186.5 118.08 181.08 118.08 174.46 L118.08 173.57 C118.08 166.95
						 112.68 161.53 106.09 161.53 Z" class="st1"/>
		</g>
		<g id="shape168-63" v:mID="168" v:groupContext="shape" transform="translate(236.008,242.189) scale(1,-1)">
			<title>Sheet.168</title>
			<path d="M31.49 175.81 C27.32 182.24 20.12 186.5 11.9 186.5 C7.55 186.5 3.49 185.31 0 183.23 L31.49 175.81 Z"
					class="st7"/>
			<path d="M31.49 175.81 C27.32 182.24 20.12 186.5 11.9 186.5 C7.55 186.5 3.49 185.31 0 183.23" class="st15"/>
		</g>
		<g id="shape169-66" v:mID="169" v:groupContext="shape" transform="translate(179.537,231.314) scale(1,-1)">
			<title>Sheet.169</title>
			<path d="M127.25 151.08 L126.69 151.08 C124.22 159.65 116.36 165.91 107.02 165.91 C102.95 165.91 99.16 164.71 95.97 162.65
						 C93.9 176.16 82.32 186.5 68.3 186.5 C55.71 186.5 45.07 178.17 41.52 166.7 C39.92 167.13 38.25 167.38 36.52
						 167.38 C26.91 167.38 18.97 160.32 17.52 151.08 L14.38 151.08 C6.48 151.08 0 144.58 0 136.64 L0 135.58 C0
						 127.63 6.48 121.13 14.38 121.13 L127.25 121.13 C135.16 121.13 141.63 127.63 141.63 135.58 L141.63 136.64
						 C141.63 144.58 135.16 151.08 127.25 151.08 Z" class="st16"/>
		</g>
		<g id="shape170-68" v:mID="170" v:groupContext="shape" transform="translate(216.414,250.343) scale(1,-1)">
			<title>Sheet.170</title>
			<path d="M0 186.5 C5.51 186.5 9.98 182.01 9.98 176.47 L0 186.5 Z" class="st7"/>
			<path d="M0 186.5 C5.51 186.5 9.98 182.01 9.98 176.47" class="st15"/>
		</g>
		<g id="shape165-71" v:mID="165" v:groupContext="shape" transform="translate(168.167,-76.3136)">
			<title>surface1</title>
			<desc>Internet/LAN/WAN</desc>
			<v:textBlock v:margins="rect(0,0,0,0)"/>
			<v:textRect cx="76.5" cy="153.814" width="153" height="65.3727"/>
			<text x="29.42" y="179.01" class="st17" v:langID="1033"><v:paragraph v:horizAlign="1"/><v:tabList/><v:newlineChar/><v:newlineChar/><v:newlineChar/>Internet/LAN/WAN</text>		</g>
		<g id="group111-73" transform="translate(439.75,-40.375)" v:mID="111" v:groupContext="group">
			<title>Sheet.111</title>
			<g id="group91-74" transform="translate(1.93119E-06,-18.1589)" v:mID="91" v:groupContext="group">
				<title>Sheet.91</title>
				<g id="group92-75" v:mID="92" v:groupContext="group">
					<title>surface1</title>
					<g id="shape93-76" v:mID="93" v:groupContext="shape" transform="translate(0.00617531,-43.1153)">
						<title>Sheet.93</title>
						<path d="M58.49 178.8 L0 178.8 L0 186.5 L58.49 186.5 L58.49 178.8 Z" class="st11"/>
					</g>
					<g id="shape94-78" v:mID="94" v:groupContext="shape" transform="translate(0.00617531,-21.5669)">
						<title>Sheet.94</title>
						<path d="M58.49 178.8 L0 178.8 L0 186.5 L58.49 186.5 L58.49 178.8 Z" class="st11"/>
					</g>
					<g id="shape95-80" v:mID="95" v:groupContext="shape" transform="translate(0.00617531,-0.0185271)">
						<title>Sheet.95</title>
						<path d="M58.49 178.8 L0 178.8 L0 186.5 L58.49 186.5 L58.49 178.8 Z" class="st11"/>
					</g>
					<g id="shape96-82" v:mID="96" v:groupContext="shape" transform="translate(0.605258,-43.1153)">
						<title>Sheet.96</title>
						<path d="M0 186.5 L57.12 186.5 L0 186.5 Z" class="st7"/>
						<path d="M0 186.5 L57.12 186.5" class="st18"/>
					</g>
					<g id="shape97-85" v:mID="97" v:groupContext="shape" transform="translate(0.0061761,-21.5669)">
						<title>Sheet.97</title>
						<path d="M0 186.5 L57.72 186.5 L0 186.5 Z" class="st7"/>
						<path d="M0 186.5 L57.72 186.5" class="st18"/>
					</g>
					<g id="shape98-88" v:mID="98" v:groupContext="shape" transform="translate(49.2544,314.494) scale(1,-1)">
						<title>Sheet.98</title>
						<path d="M0 186.5 L0 180.34 L0 186.5 Z" class="st7"/>
						<path d="M0 186.5 L0 180.34" class="st18"/>
					</g>
					<g id="shape99-91" v:mID="99" v:groupContext="shape" transform="translate(43.103,314.494) scale(1,-1)">
						<title>Sheet.99</title>
						<path d="M0 186.5 L0 180.34 L0 186.5 Z" class="st7"/>
						<path d="M0 186.5 L0 180.34" class="st18"/>
					</g>
					<g id="shape100-94" v:mID="100" v:groupContext="shape" transform="translate(36.9454,314.494) scale(1,-1)">
						<title>Sheet.100</title>
						<path d="M0 186.5 L0 180.34 L0 186.5 Z" class="st7"/>
						<path d="M0 186.5 L0 180.34" class="st18"/>
					</g>
					<g id="shape101-97" v:mID="101" v:groupContext="shape" transform="translate(9.23944,357.591) scale(1,-1)">
						<title>Sheet.101</title>
						<path d="M4.62 177.27 L0 181.89 L4.62 186.5 L9.23 181.89 L4.62 177.27 Z" class="st19"/>
					</g>
					<g id="shape102-99" v:mID="102" v:groupContext="shape" transform="translate(9.23944,336.042) scale(1,-1)">
						<title>Sheet.102</title>
						<path d="M4.62 177.27 L0 181.89 L4.62 186.5 L9.23 181.89 L4.62 177.27 Z" class="st19"/>
					</g>
					<g id="shape103-101" v:mID="103" v:groupContext="shape" transform="translate(9.23944,314.494) scale(1,-1)">
						<title>Sheet.103</title>
						<path d="M4.62 177.27 L0 181.89 L4.62 186.5 L9.23 181.89 L4.62 177.27 Z" class="st19"/>
					</g>
					<g id="shape104-103" v:mID="104" v:groupContext="shape" transform="translate(0,308.318) scale(1,-1)">
						<title>Sheet.104</title>
						<path d="M0 145.87 L0.01 121.82 L58.5 121.85 L58.46 186.5 L21.52 186.48 L0.18 186.23 L0 145.87 Z"
								class="st19"/>
					</g>
				</g>
			</g>
			<g id="shape105-105" v:mID="105" v:groupContext="shape">
				<title>Sheet.105</title>
				<desc>SSHD</desc>
				<v:textBlock v:margins="rect(4,4,4,4)"/>
				<v:textRect cx="29.25" cy="176.5" width="58.51" height="20"/>
				<rect x="0" y="166.5" width="58.5" height="20" class="st20"/>
				<text x="11.99" y="181.3" class="st21" v:langID="1033"><v:paragraph v:horizAlign="1"/><v:tabList/>SSHD</text>			</g>
		</g>
		<g id="shape162-108" v:mID="162" v:groupContext="shape" transform="translate(408.75,-8.99999)">
			<title>Sheet.162</title>
			<desc>Remote Machine</desc>
			<v:textBlock v:margins="rect(4,4,4,4)"/>
			<v:textRect cx="60.5" cy="176.5" width="121" height="20"/>
			<rect x="0" y="166.5" width="121" height="20" class="st22"/>
			<text x="17.89" y="180.1" class="st23" v:langID="1033"><v:paragraph v:horizAlign="1"/><v:tabList/>Remote Machine</text>		</g>
		<g id="shape109-111" v:mID="109" v:groupContext="shape" v:layerMember="0" transform="translate(322,-82)">
			<title>Dynamic connector</title>
			<path d="M0 177.5 L105.5 177.5" class="st2"/>
		</g>
		<g id="shape320-116" v:mID="320" v:groupContext="shape" transform="translate(5.5,-48.25)">
			<title>Sheet.320</title>
			<path d="M65.25 186.5 L0 186.5 L0 153.39 L65.25 153.39 L65.25 186.5 Z" class="st1"/>
		</g>
		<g id="group113-118" transform="translate(5.05616,-23.251)" v:mID="113" v:groupContext="group">
			<title>Sheet.113</title>
			<g id="group114-119" v:mID="114" v:groupContext="group">
				<title>surface1</title>
				<g id="shape115-120" v:mID="115" v:groupContext="shape" transform="translate(24.707,2.84217E-13)">
					<title>Sheet.115</title>
					<path d="M0 186.5 L14.6 186.5 L14.6 171.9 L0 171.9 L0 186.5 Z" class="st11"/>
				</g>
				<g id="shape116-122" v:mID="116" v:groupContext="shape" transform="translate(0.113282,-14.3672)">
					<title>Sheet.116</title>
					<path d="M65.52 186.5 L0 186.5 L0 175.71 L65.52 175.71 L65.52 186.5 Z" class="st11"/>
				</g>
				<g id="shape117-124" v:mID="117" v:groupContext="shape" transform="translate(-1.9984E-13,315.727) scale(1,-1)">
					<title>Sheet.117</title>
					<path d="M65.4 143.6 L0 143.6 L0 186.5 L65.4 143.6 Z" class="st7"/>
					<path d="M65.4 143.6 L0 143.6 L0 186.5" class="st24"/>
				</g>
				<g id="shape118-127" v:mID="118" v:groupContext="shape" transform="translate(2.5E-07,315.5) scale(1,-1)">
					<title>Sheet.118</title>
					<path d="M0 186.5 L65.57 186.5 L65.57 143.46 L0 186.5 Z" class="st7"/>
					<path d="M0 186.5 L65.57 186.5 L65.57 143.46" class="st24"/>
				</g>
				<g id="shape119-130" v:mID="119" v:groupContext="shape" transform="translate(18.5117,0)">
					<title>Sheet.119</title>
					<path d="M0 186.5 L27.39 186.5 L0 186.5 Z" class="st7"/>
					<path d="M0 186.5 L27.39 186.5" class="st24"/>
				</g>
				<g id="shape120-133" v:mID="120" v:groupContext="shape" transform="translate(2.5E-07,-25.1562)">
					<title>Sheet.120</title>
					<path d="M0 186.5 L65.52 186.5 L0 186.5 Z" class="st7"/>
					<path d="M0 186.5 L65.52 186.5" class="st24"/>
				</g>
				<g id="shape121-136" v:mID="121" v:groupContext="shape" transform="translate(45.8008,324.484) scale(1,-1)">
					<title>Sheet.121</title>
					<path d="M0 186.5 L10.78 175.72 L0 186.5 Z" class="st7"/>
					<path d="M0 186.5 L10.78 175.72" class="st24"/>
				</g>
				<g id="shape122-139" v:mID="122" v:groupContext="shape" transform="translate(53.9063,322.688) scale(1,-1)">
					<title>Sheet.122</title>
					<path d="M0 186.5 L4.86 181.64 L0 186.5 Z" class="st7"/>
					<path d="M0 186.5 L4.86 181.64" class="st24"/>
				</g>
				<g id="shape123-142" v:mID="123" v:groupContext="shape" transform="translate(39.418,358.738) scale(1,-1)">
					<title>Sheet.123</title>
					<path d="M0 186.5 L0 172.24 L0 186.5 Z" class="st7"/>
					<path d="M0 186.5 L0 172.24" class="st24"/>
				</g>
				<g id="shape124-145" v:mID="124" v:groupContext="shape" transform="translate(30.3242,-17.9688)">
					<title>Sheet.124</title>
					<path d="M3.59 184.7 C3.59 185.7 2.79 186.5 1.8 186.5 C0.8 186.5 0 185.7 0 184.7 C0 183.71 0.8 182.91 1.8 182.91
								 C2.79 182.91 3.59 183.71 3.59 184.7 Z" class="st10"/>
				</g>
				<g id="shape125-147" v:mID="125" v:groupContext="shape" transform="translate(24.8203,358.848) scale(1,-1)">
					<title>Sheet.125</title>
					<path d="M0 186.5 L0 172.69 L0 186.5 Z" class="st7"/>
					<path d="M0 186.5 L0 172.69" class="st24"/>
				</g>
			</g>
		</g>
		<g id="shape321-150" v:mID="321" v:groupContext="shape" transform="translate(406,-28)">
			<title>Circle.321</title>
			<v:userDefs>
				<v:ud v:nameU="visVersion" v:val="VT0(15):26"/>
			</v:userDefs>
			<path d="M0 123.5 A63 63 0 0 1 126 123.5 A63 63 0 1 1 0 123.5 Z" class="st25"/>
		</g>
		<g id="group218-152" transform="translate(347.5,-55)" v:mID="218" v:groupContext="group">
			<v:custProps>
				<v:cp v:nameU="AssetNumber" v:lbl="Asset Number" v:prompt="" v:type="0" v:format="" v:sortKey="Asset"
						v:invis="false" v:ask="false" v:langID="1033" v:cal="0"/>
				<v:cp v:nameU="SerialNumber" v:lbl="Serial Number" v:prompt="" v:type="0" v:format="" v:sortKey="Asset"
						v:invis="false" v:ask="false" v:langID="1033" v:cal="0"/>
				<v:cp v:nameU="Location" v:lbl="Location" v:prompt="" v:type="0" v:format="" v:sortKey="Asset" v:invis="false"
						v:ask="false" v:langID="1033" v:cal="0"/>
				<v:cp v:nameU="Building" v:lbl="Building" v:prompt="" v:type="0" v:format="" v:sortKey="Asset" v:invis="false"
						v:ask="false" v:langID="1033" v:cal="0"/>
				<v:cp v:nameU="Room" v:lbl="Room" v:prompt="" v:type="0" v:format="" v:sortKey="Asset" v:invis="false"
						v:ask="false" v:langID="1033" v:cal="0"/>
				<v:cp v:nameU="Manufacturer" v:lbl="Manufacturer" v:prompt="" v:type="0" v:format="" v:sortKey="Equipment"
						v:invis="false" v:ask="false" v:langID="1033" v:cal="0"/>
				<v:cp v:nameU="ProductNumber" v:lbl="Product Number" v:prompt="" v:type="0" v:format="" v:sortKey="Equipment"
						v:invis="false" v:ask="false" v:langID="1033" v:cal="0"/>
				<v:cp v:nameU="PartNumber" v:lbl="Part Number" v:prompt="" v:type="0" v:format="" v:sortKey="Equipment"
						v:invis="false" v:ask="false" v:langID="1033" v:cal="0"/>
				<v:cp v:nameU="ProductDescription" v:lbl="Product Description" v:prompt="" v:type="0" v:format=""
						v:sortKey="Equipment" v:invis="false" v:ask="false" v:langID="1033" v:cal="0"/>
				<v:cp v:nameU="ShapeClass" v:lbl="ShapeClass" v:prompt="" v:type="0" v:format="" v:sortKey="" v:invis="true"
						v:ask="false" v:langID="1033" v:cal="0" v:val="VT4(Equipment)"/>
				<v:cp v:nameU="ShapeType" v:lbl="ShapeType" v:prompt="" v:type="0" v:format="" v:sortKey="" v:invis="true"
						v:ask="false" v:langID="1033" v:cal="0" v:val="VT4(Device)"/>
				<v:cp v:nameU="SubShapeType" v:lbl="SubShapeType" v:prompt="" v:type="0" v:format="" v:sortKey="" v:invis="true"
						v:ask="false" v:langID="1033" v:cal="0" v:val="VT4(Firewall)"/>
			</v:custProps>
			<v:userDefs>
				<v:ud v:nameU="visVersion" v:prompt="" v:val="VT0(15):26"/>
				<v:ud v:nameU="ShapeClass" v:prompt="" v:val="VT0(5):26"/>
				<v:ud v:nameU="SolSH" v:prompt="" v:val="VT15({BF0433D9-CD73-4EB5-8390-8653BE590246}):41"/>
				<v:ud v:nameU="visLegendShape" v:prompt="" v:val="VT0(2):26"/>
			</v:userDefs>
			<title>Firewall.123</title>
			<g id="shape219-153" v:mID="219" v:groupContext="shape" transform="translate(0.553845,-7.76005)">
				<title>Sheet.219</title>
				<g id="shadow219-154" v:groupContext="shadow" v:shadowOffsetX="0" v:shadowOffsetY="-0" v:shadowType="2"
						v:shadowScale="0.310001" v:shadowAngle="-56.9997" transform="matrix(1,0,0.259988,0.16884,-48.4877,155.011)"
						class="st26">
					<rect x="0" y="130.02" width="70.8923" height="56.4799" class="st27"/>
				</g>
				<rect x="0" y="130.02" width="70.8923" height="56.4799" class="st28"/>
			</g>
			<g id="shape220-162" v:mID="220" v:groupContext="shape" transform="translate(0.803845,-8.01005)">
				<title>Sheet.220</title>
				<v:userDefs>
					<v:ud v:nameU="SurroundingRegionColor" v:prompt="" v:val="VT5(1)"/>
					<v:ud v:nameU="SurroundingRegionColor" v:prompt="" v:val="VT5(#1078ff)"/>
				</v:userDefs>
				<g id="shadow220-163" v:groupContext="shadow" v:shadowOffsetX="0" v:shadowOffsetY="-0" v:shadowType="2"
						v:shadowScale="0.310001" v:shadowAngle="-56.9997" transform="matrix(1,0,0.259988,0.16884,-48.4877,155.011)"
						class="st26">
					<path d="M0 178.5 L70.39 178.5" class="st29"/>
					<path d="M0 170.51 L70.39 170.51" class="st29"/>
					<path d="M0 162.51 L70.39 162.51" class="st29"/>
					<path d="M0 154.51 L70.39 154.51" class="st29"/>
					<path d="M0 146.51 L70.39 146.51" class="st29"/>
					<path d="M0 138.52 L70.39 138.52" class="st29"/>
					<path d="M17.6 186.5 L17.6 178.5" class="st29"/>
					<path d="M35.2 186.5 L35.2 178.5" class="st29"/>
					<path d="M52.79 186.5 L52.79 178.5" class="st29"/>
					<path d="M8.8 178.5 L8.8 170.51" class="st29"/>
					<path d="M26.4 178.5 L26.4 170.51" class="st29"/>
					<path d="M44 178.5 L44 170.51" class="st29"/>
					<path d="M61.59 178.5 L61.59 170.51" class="st29"/>
					<path d="M17.6 170.51 L17.6 162.51" class="st29"/>
					<path d="M35.2 170.51 L35.2 162.51" class="st29"/>
					<path d="M52.79 170.51 L52.79 162.51" class="st29"/>
					<path d="M8.8 162.51 L8.8 154.51" class="st29"/>
					<path d="M26.4 162.51 L26.4 154.51" class="st29"/>
					<path d="M44 162.51 L44 154.51" class="st29"/>
					<path d="M61.59 162.51 L61.59 154.51" class="st29"/>
					<path d="M17.6 154.51 L17.6 146.51" class="st29"/>
					<path d="M35.2 154.51 L35.2 146.51" class="st29"/>
					<path d="M52.79 154.51 L52.79 146.51" class="st29"/>
					<path d="M8.8 146.51 L8.8 138.52" class="st29"/>
					<path d="M26.4 146.51 L26.4 138.52" class="st29"/>
					<path d="M44 146.51 L44 138.52" class="st29"/>
					<path d="M61.59 146.51 L61.59 138.52" class="st29"/>
					<path d="M17.6 138.52 L17.6 130.52" class="st29"/>
					<path d="M35.2 138.52 L35.2 130.52" class="st29"/>
					<path d="M52.79 138.52 L52.79 130.52" class="st29"/>
				</g>
				<path d="M0 178.5 L70.39 178.5" class="st30"/>
				<path d="M0 170.51 L70.39 170.51" class="st30"/>
				<path d="M0 162.51 L70.39 162.51" class="st30"/>
				<path d="M0 154.51 L70.39 154.51" class="st30"/>
				<path d="M0 146.51 L70.39 146.51" class="st30"/>
				<path d="M0 138.52 L70.39 138.52" class="st30"/>
				<path d="M17.6 186.5 L17.6 178.5" class="st30"/>
				<path d="M35.2 186.5 L35.2 178.5" class="st30"/>
				<path d="M52.79 186.5 L52.79 178.5" class="st30"/>
				<path d="M8.8 178.5 L8.8 170.51" class="st30"/>
				<path d="M26.4 178.5 L26.4 170.51" class="st30"/>
				<path d="M44 178.5 L44 170.51" class="st30"/>
				<path d="M61.59 178.5 L61.59 170.51" class="st30"/>
				<path d="M17.6 170.51 L17.6 162.51" class="st30"/>
				<path d="M35.2 170.51 L35.2 162.51" class="st30"/>
				<path d="M52.79 170.51 L52.79 162.51" class="st30"/>
				<path d="M8.8 162.51 L8.8 154.51" class="st30"/>
				<path d="M26.4 162.51 L26.4 154.51" class="st30"/>
				<path d="M44 162.51 L44 154.51" class="st30"/>
				<path d="M61.59 162.51 L61.59 154.51" class="st30"/>
				<path d="M17.6 154.51 L17.6 146.51" class="st30"/>
				<path d="M35.2 154.51 L35.2 146.51" class="st30"/>
				<path d="M52.79 154.51 L52.79 146.51" class="st30"/>
				<path d="M8.8 146.51 L8.8 138.52" class="st30"/>
				<path d="M26.4 146.51 L26.4 138.52" class="st30"/>
				<path d="M44 146.51 L44 138.52" class="st30"/>
				<path d="M61.59 146.51 L61.59 138.52" class="st30"/>
				<path d="M17.6 138.52 L17.6 130.52" class="st30"/>
				<path d="M35.2 138.52 L35.2 130.52" class="st30"/>
				<path d="M52.79 138.52 L52.79 130.52" class="st30"/>
			</g>
		</g>
		<g id="shape221-228" v:mID="221" v:groupContext="shape" transform="translate(147.5,158.902) rotate(-90)">
			<title>Side line callout</title>
			<desc>Firewall rule: allow inbound TCP port 22</desc>
			<v:userDefs>
				<v:ud v:nameU="visVersion" v:val="VT0(15):26"/>
			</v:userDefs>
			<v:textBlock v:margins="rect(4,4,4,4)"/>
			<v:textRect cx="18.4017" cy="150.5" width="72" height="36.8035" transform="rotate(90)"/>
			<path d="M63.4 236 L18.4 186.5" class="st31"/>
			<path d="M0 186.5 L36.8 186.5" class="st31"/>
			<rect v:rectContext="textBkgnd" x="136.18" y="-32.8014" width="46.3197" height="28.7996" transform="rotate(90)"
					class="st32"/>
			<text x="140.24" y="-25.6" transform="rotate(90)" class="st33" v:langID="1033"><v:paragraph v:horizAlign="2"/><v:tabList/>Firewall rule: <v:lf/><tspan
						x="136.18" dy="1.2em" class="st34">allow inbound<v:lf/></tspan><tspan x="144.59" dy="1.2em" class="st34">TCP port 22</tspan></text>		</g>
		<g id="shape107-236" v:mID="107" v:groupContext="shape" transform="translate(371.125,-81)">
			<title>Sheet.107</title>
			<desc>Port 22</desc>
			<v:textBlock v:margins="rect(4,4,4,4)"/>
			<v:textRect cx="22.5" cy="176.5" width="45" height="20"/>
			<rect x="0" y="166.5" width="45" height="20" class="st35"/>
			<text x="4.7" y="180.1" class="st36" v:langID="1033"><v:paragraph v:horizAlign="1"/><v:tabList/>Port 22</text>		</g>
	</g>
</svg>
