<?xml version="1.0" encoding="UTF-8" standalone="no"?>
<!DOCTYPE svg PUBLIC "-//W3C//DTD SVG 1.1//EN" "http://www.w3.org/Graphics/SVG/1.1/DTD/svg11.dtd">
<!-- Generated by Microsoft Visio, SVG Export zssh-overview.svg Page-1 -->
<svg xmlns="http://www.w3.org/2000/svg" xmlns:xlink="http://www.w3.org/1999/xlink" xmlns:ev="http://www.w3.org/2001/xml-events"
		width="7.52778in" height="2.59028in" viewBox="0 0 542 186.5" xml:space="preserve" color-interpolation-filters="sRGB"
		class="st40">
	<style type="text/css">
	<![CDATA[
		.st1 {fill:#ffffff;stroke:none;stroke-linecap:butt;stroke-width:1}
		.st2 {fill:#ffffff;stroke:none;stroke-linecap:round;stroke-linejoin:round;stroke-width:0.5}
		.st3 {fill:#002060;font-family:Calibri;font-size:1.00001em;font-weight:bold}
		.st4 {fill:none;stroke:#0a4469;stroke-linecap:round;stroke-linejoin:round;stroke-width:3}
		.st5 {stroke:#4d87ff;stroke-linecap:butt;stroke-width:1.5}
		.st6 {fill:#cbe6ff;stroke:none;stroke-linecap:butt;stroke-width:1}
		.st7 {fill:none}
		.st8 {stroke:#0273fa;stroke-linecap:round;stroke-linejoin:round;stroke-width:1.5}
		.st9 {fill:#1078ff;stroke:none;stroke-linecap:butt;stroke-width:1}
		.st10 {fill:#cbe7ff;stroke:none;stroke-linecap:butt;stroke-width:1}
		.st11 {fill:none;stroke:#0273fa;stroke-linecap:butt;stroke-width:1.3}
		.st12 {stroke:#0273fa;stroke-linecap:butt;stroke-width:1.3}
		.st13 {fill:none;stroke:#0273fa;stroke-linecap:round;stroke-linejoin:round;stroke-width:1.465}
		.st14 {fill:none;stroke:#0273fa;stroke-linecap:round;stroke-linejoin:round;stroke-width:1.3}
		.st15 {stroke:#0273fa;stroke-linecap:round;stroke-linejoin:round;stroke-width:1.3}
		.st16 {fill:#0273fa;stroke:none;stroke-linecap:butt;stroke-width:1}
		.st17 {stroke:#1078ff;stroke-linecap:round;stroke-linejoin:round;stroke-width:1.465}
		.st18 {fill:none;stroke:#0273fa;stroke-linecap:butt;stroke-width:1.465}
		.st19 {visibility:visible}
		.st20 {fill:#000000;fill-opacity:0.2;filter:url(#filter_4);stroke:#000000;stroke-linecap:round;stroke-linejoin:round;stroke-opacity:0.2}
		.st21 {fill:url(#grad8-110);stroke:#0b64d7;stroke-linecap:round;stroke-linejoin:round;stroke-width:0.5}
		.st22 {fill:none;filter:url(#filter_4);stroke:#000000;stroke-linecap:butt;stroke-opacity:0.2}
		.st23 {stroke:#ffffff;stroke-linecap:butt;stroke-width:0.5}
		.st24 {stroke:#1078ff;stroke-linecap:round;stroke-linejoin:round;stroke-width:1.5}
		.st25 {fill:none;stroke:#1078ff;stroke-linecap:round;stroke-linejoin:round;stroke-width:1.5}
		.st26 {fill:none;stroke:none;stroke-linecap:round;stroke-linejoin:round;stroke-width:0.5}
		.st27 {fill:#0b64d7;font-family:Calibri;font-size:1.33333em}
		.st28 {marker-start:url(#mrkr13-219);stroke:#4d87ff;stroke-linecap:butt;stroke-width:1.5}
		.st29 {fill:#4d87ff;fill-opacity:1;stroke:#4d87ff;stroke-opacity:1;stroke-width:0.45454545454545}
		.st30 {stroke:#00b050;stroke-linecap:butt;stroke-width:1.5}
		.st31 {fill:#ffffff;stroke:none;stroke-linecap:butt}
		.st32 {fill:#00b050;font-family:Calibri;font-size:0.666664em}
		.st33 {font-size:1em}
		.st34 {marker-end:url(#mrkr13-245);marker-start:url(#mrkr13-243);stroke:#4d87ff;stroke-linecap:butt;stroke-width:1.5}
		.st35 {fill:#4d87ff;fill-opacity:1;stroke:#4d87ff;stroke-opacity:1;stroke-width:0.51020408163265}
		.st36 {marker-end:url(#mrkr13-265);stroke:#4d87ff;stroke-linecap:butt;stroke-width:1.5}
		.st37 {fill:#4d87ff;fill-opacity:1;stroke:#4d87ff;stroke-opacity:1;stroke-width:0.37313432835821}
		.st38 {fill:#ffffff;stroke:none;stroke-linecap:butt;stroke-width:0.75}
		.st39 {fill:#002060;font-family:Calibri;font-size:1.00001em}
		.st40 {fill:none;fill-rule:evenodd;font-size:12px;overflow:visible;stroke-linecap:square;stroke-miterlimit:3}
	]]>
	</style>

	<defs id="Patterns_And_Gradients">
		<pattern id="grad8-110" x="0" y="0" width="1" height="1" patternContentUnits="objectBoundingBox">
			<path d="M 0 0 L 1 0 L 1 1 z" style="fill:url(#grad0-111)"/>
			<path d="M 0 0 L 0 1 L 1 1 z" style="fill:url(#grad0-112)"/>
		</pattern>
		<linearGradient id="grad0-111" x1="0" y1="0" x2="1" y2="0" gradientTransform="rotate(270 0.5 0.5)">
			<stop offset="0.13" stop-color="#feffff" stop-opacity="1"/>
			<stop offset="0.56" stop-color="#bbcaff" stop-opacity="1"/>
			<stop offset="1" stop-color="#7fa1ff" stop-opacity="1"/>
		</linearGradient>
		<linearGradient id="grad0-112" x1="0" y1="0" x2="1" y2="0" gradientTransform="rotate(180 0.5 0.5)">
			<stop offset="0.13" stop-color="#feffff" stop-opacity="1"/>
			<stop offset="0.56" stop-color="#bbcaff" stop-opacity="1"/>
			<stop offset="1" stop-color="#7fa1ff" stop-opacity="1"/>
		</linearGradient>
	</defs>
	<defs id="Markers">
		<g id="lend13">
			<path d="M 3 1 L 0 0 L 3 -1 L 3 1 " style="stroke:none"/>
		</g>
		<marker id="mrkr13-219" class="st29" refX="6.36" orient="auto" markerUnits="strokeWidth" overflow="visible">
			<use xlink:href="#lend13" transform="scale(2.2) "/>
		</marker>
		<marker id="mrkr13-243" class="st35" refX="5.64" orient="auto" markerUnits="strokeWidth" overflow="visible">
			<use xlink:href="#lend13" transform="scale(1.96) "/>
		</marker>
		<marker id="mrkr13-245" class="st35" refX="-5.88" orient="auto" markerUnits="strokeWidth" overflow="visible">
			<use xlink:href="#lend13" transform="scale(-1.96,-1.96) "/>
		</marker>
		<marker id="mrkr13-265" class="st37" refX="-8.04" orient="auto" markerUnits="strokeWidth" overflow="visible">
			<use xlink:href="#lend13" transform="scale(-2.68,-2.68) "/>
		</marker>
	</defs>
	<defs id="Filters">
		<filter id="filter_4">
			<feGaussianBlur stdDeviation="4"/>
		</filter>
	</defs>
	<g>
		<title>Page-1</title>
		<g id="shape324-1" transform="translate(1,-1)">
			<title>Sheet.324</title>
			<path d="M540 186.5 L0 186.5 L0 2 L540 2 L540 186.5 Z" class="st1"/>
		</g>
		<g id="shape287-3" transform="translate(411,-8.99999)">
			<title>Sheet.287</title>
			<desc>Remote Machine</desc>
			<rect x="0" y="166.5" width="121" height="20" class="st2"/>
			<text x="17.89" y="180.1" class="st3">Remote Machine</text>		</g>
		<g id="shape222-6" transform="translate(406,-30.25)">
			<title>Circle.222</title>
			<path d="M0 123.5 A63 63 0 0 1 126 123.5 A63 63 0 1 1 0 123.5 Z" class="st4"/>
		</g>
		<g id="shape225-8" transform="translate(111.416,-142.736)">
			<title>Dynamic connector.225</title>
			<path d="M0 186.5 L38.96 235.99" class="st5"/>
		</g>
		<g id="shape226-11" transform="translate(68.7827,-117.578)">
			<title>Dynamic connector.226</title>
			<path d="M0 186.5 L81.59 210.83" class="st5"/>
		</g>
		<g id="shape227-14" transform="translate(70.6226,-63.3476)">
			<title>Dynamic connector.227</title>
			<path d="M0 186.5 L79.75 156.6" class="st5"/>
		</g>
		<g id="shape228-17" transform="translate(110.931,-38.6282)">
			<title>Dynamic connector.228</title>
			<path d="M0 186.5 L39.44 131.88" class="st5"/>
		</g>
		<g id="group229-20" transform="translate(5.05616,-25.501)">
			<title>Sheet.229</title>
			<g id="group230-21">
				<title>surface1</title>
				<g id="shape231-22" transform="translate(24.707,2.84217E-13)">
					<title>Sheet.231</title>
					<path d="M0 186.5 L14.6 186.5 L14.6 171.9 L0 171.9 L0 186.5 Z" class="st6"/>
				</g>
				<g id="shape232-24" transform="translate(0.113282,-14.3672)">
					<title>Sheet.232</title>
					<path d="M65.52 186.5 L0 186.5 L0 175.71 L65.52 175.71 L65.52 186.5 Z" class="st6"/>
				</g>
				<g id="shape233-26" transform="translate(-1.9984E-13,315.727) scale(1,-1)">
					<title>Sheet.233</title>
					<path d="M65.4 143.6 L0 143.6 L0 186.5 L65.4 143.6 Z" class="st7"/>
					<path d="M65.4 143.6 L0 143.6 L0 186.5" class="st8"/>
				</g>
				<g id="shape234-29" transform="translate(2.5E-07,315.5) scale(1,-1)">
					<title>Sheet.234</title>
					<path d="M0 186.5 L65.57 186.5 L65.57 143.46 L0 186.5 Z" class="st7"/>
					<path d="M0 186.5 L65.57 186.5 L65.57 143.46" class="st8"/>
				</g>
				<g id="shape235-32" transform="translate(18.5117,0)">
					<title>Sheet.235</title>
					<path d="M0 186.5 L27.39 186.5 L0 186.5 Z" class="st7"/>
					<path d="M0 186.5 L27.39 186.5" class="st8"/>
				</g>
				<g id="shape236-35" transform="translate(2.5E-07,-25.1562)">
					<title>Sheet.236</title>
					<path d="M0 186.5 L65.52 186.5 L0 186.5 Z" class="st7"/>
					<path d="M0 186.5 L65.52 186.5" class="st8"/>
				</g>
				<g id="shape237-38" transform="translate(45.8008,324.484) scale(1,-1)">
					<title>Sheet.237</title>
					<path d="M0 186.5 L10.78 175.72 L0 186.5 Z" class="st7"/>
					<path d="M0 186.5 L10.78 175.72" class="st8"/>
				</g>
				<g id="shape238-41" transform="translate(53.9063,322.688) scale(1,-1)">
					<title>Sheet.238</title>
					<path d="M0 186.5 L4.86 181.64 L0 186.5 Z" class="st7"/>
					<path d="M0 186.5 L4.86 181.64" class="st8"/>
				</g>
				<g id="shape239-44" transform="translate(39.418,358.738) scale(1,-1)">
					<title>Sheet.239</title>
					<path d="M0 186.5 L0 172.24 L0 186.5 Z" class="st7"/>
					<path d="M0 186.5 L0 172.24" class="st8"/>
				</g>
				<g id="shape240-47" transform="translate(30.3242,-17.9688)">
					<title>Sheet.240</title>
					<path d="M3.59 184.7 C3.59 185.7 2.79 186.5 1.8 186.5 C0.8 186.5 0 185.7 0 184.7 C0 183.71 0.8 182.91 1.8 182.91
								 C2.79 182.91 3.59 183.71 3.59 184.7 Z" class="st9"/>
				</g>
				<g id="shape241-49" transform="translate(24.8203,358.848) scale(1,-1)">
					<title>Sheet.241</title>
					<path d="M0 186.5 L0 172.69 L0 186.5 Z" class="st7"/>
					<path d="M0 186.5 L0 172.69" class="st8"/>
				</g>
			</g>
		</g>
		<g id="group242-52" transform="translate(4.8335,-101.503)">
			<title>Sheet.242</title>
			<g id="group243-53">
				<title>surface1</title>
				<g id="shape244-54" transform="translate(2.89453,-2.42187)">
					<title>Sheet.244</title>
					<path d="M59.63 186.5 L1 186.5 C0.45 186.5 0 186.05 0 185.5 L0 143.93 C0 143.37 0.45 142.93 1 142.93 L59.63 142.93
								 C60.18 142.93 60.63 143.37 60.63 143.93 L60.63 185.5 C60.63 186.05 60.18 186.5 59.63 186.5 Z"
							class="st10"/>
				</g>
				<g id="shape245-56" transform="translate(5.83594,-7.20703)">
					<title>Sheet.245</title>
					<path d="M54.41 186.5 L0 186.5 L0 151.14 L54.41 151.14 L54.41 186.5 Z" class="st1"/>
				</g>
				<g id="shape246-58" transform="translate(2.23821E-13,-5E-07)">
					<title>Sheet.246</title>
					<path d="M62.46 186.5 L3.29 186.5 C1.86 186.5 0.65 185.47 0.42 184.07 L0 181.5 L27.43 181.5 L28.48 183 L36.05
								 183 L37.19 181.5 L66.08 181.5 L65.71 183.73 C65.45 185.33 64.08 186.5 62.46 186.5 Z" class="st1"/>
				</g>
				<g id="shape247-60" transform="translate(0,367.996) scale(1,-1)">
					<title>Sheet.247</title>
					<path d="M62.46 181.5 L3.29 181.5 C1.86 181.5 0.65 182.53 0.42 183.93 L0 186.5 L27.43 186.5 L28.48 184.99 L36.05
								 184.99 L37.19 186.5 L66.08 186.5 L65.71 184.26 C65.45 182.67 64.08 181.5 62.46 181.5 Z"
							class="st11"/>
				</g>
				<g id="shape248-62" transform="translate(3.32422,327.004) scale(1,-1)">
					<title>Sheet.248</title>
					<path d="M0 145.65 L0 185.64 C0 186.11 0.39 186.5 0.86 186.5 L59.77 186.5 C60.24 186.5 60.63 186.11 60.63 185.64
								 L60.63 145.65 L0 145.65 Z" class="st7"/>
					<path d="M0 145.65 L0 185.64 C0 186.11 0.39 186.5 0.86 186.5 L59.77 186.5 C60.24 186.5 60.63 186.11 60.63 185.64
								 L60.63 145.65" class="st12"/>
				</g>
			</g>
		</g>
		<g id="group249-65" transform="translate(75.2788,-137.547)">
			<title>Sheet.249</title>
			<g id="group250-66">
				<title>surface1</title>
				<g id="shape251-67" transform="translate(0,327.297) scale(1,-1)">
					<title>Sheet.251</title>
					<path d="M36.14 140.8 L0 140.8 L0 186.5 L36.14 186.5 L36.14 140.8 Z" class="st13"/>
				</g>
				<g id="shape252-69" transform="translate(16.4766,-2.89453)">
					<title>Sheet.252</title>
					<path d="M3.68 184.66 C3.68 185.68 2.85 186.5 1.84 186.5 C0.82 186.5 0 185.68 0 184.66 C0 183.64 0.82 182.82
								 1.84 182.82 C2.85 182.82 3.68 183.64 3.68 184.66 Z" class="st9"/>
				</g>
				<g id="shape253-71" transform="translate(4,-8.49609)">
					<title>Sheet.253</title>
					<path d="M27.91 186.5 L0 186.5 L0 153.1 L27.91 153.1 L27.91 186.5 Z" class="st6"/>
				</g>
			</g>
		</g>
		<g id="group254-73" transform="translate(86.603,-4.49999)">
			<title>Sheet.254</title>
			<g id="group255-74">
				<title>surface1</title>
				<g id="shape256-75" transform="translate(0.53125,-7.38281)">
					<title>Sheet.256</title>
					<path d="M24.28 186.5 L0 186.5 L0 159.45 L24.28 159.45 L24.28 186.5 Z" class="st6"/>
				</g>
				<g id="shape257-77" transform="translate(6.39488E-14,331.5) scale(1,-1)">
					<title>Sheet.257</title>
					<path d="M24.33 148.58 C24.33 146.61 22.72 145 20.75 145 L3.58 145 C1.61 145 0 146.61 0 148.58 L0 182.92 C0 184.89
								 1.61 186.5 3.58 186.5 L20.75 186.5 C22.72 186.5 24.33 184.89 24.33 182.92 L24.33 148.58 Z"
							class="st14"/>
				</g>
				<g id="shape258-79" transform="translate(6.39488E-14,-34.3438)">
					<title>Sheet.258</title>
					<path d="M0 186.5 L24.33 186.5 L0 186.5 Z" class="st7"/>
					<path d="M0 186.5 L24.33 186.5" class="st15"/>
				</g>
				<g id="shape259-82" transform="translate(6.39488E-14,-7.15625)">
					<title>Sheet.259</title>
					<path d="M0 186.5 L24.33 186.5 L0 186.5 Z" class="st7"/>
					<path d="M0 186.5 L24.33 186.5" class="st15"/>
				</g>
				<g id="shape260-85" transform="translate(7.15625,-37.207)">
					<title>Sheet.260</title>
					<path d="M0 186.5 L10.02 186.5 L0 186.5 Z" class="st7"/>
					<path d="M0 186.5 L10.02 186.5" class="st15"/>
				</g>
				<g id="shape261-88" transform="translate(10.7344,-2.14844)">
					<title>Sheet.261</title>
					<path d="M2.86 185.07 C2.86 185.86 2.22 186.5 1.43 186.5 C0.64 186.5 0 185.86 0 185.07 C0 184.28 0.64 183.64
								 1.43 183.64 C2.22 183.64 2.86 184.28 2.86 185.07 Z" class="st16"/>
				</g>
			</g>
		</g>
		<g id="shape262-90" transform="translate(179.537,-78.5636)">
			<title>Sheet.262</title>
			<path d="M127.25 156.55 L126.69 156.55 C124.22 147.98 116.36 141.71 107.02 141.71 C102.95 141.71 99.16 142.92 95.97 144.98
						 C93.9 131.47 82.32 121.13 68.3 121.13 C55.71 121.13 45.07 129.46 41.52 140.93 C39.92 140.5 38.25 140.24
						 36.52 140.24 C26.91 140.24 18.97 147.31 17.52 156.55 L14.38 156.55 C6.48 156.55 0 163.05 0 170.99 L0 172.05
						 C0 180 6.48 186.5 14.38 186.5 L127.25 186.5 C135.16 186.5 141.63 180 141.63 172.05 L141.63 170.99 C141.63
						 163.05 135.16 156.55 127.25 156.55 Z" class="st10"/>
		</g>
		<g id="shape263-92" transform="translate(190.969,-78.5636)">
			<title>Sheet.263</title>
			<path d="M106.09 161.53 L105.62 161.53 C103.55 154.39 97 149.16 89.23 149.16 C85.83 149.16 82.67 150.16 80.01 151.88
						 C78.29 140.63 68.63 132 56.94 132 C46.45 132 37.57 138.94 34.62 148.5 C33.29 148.15 31.89 147.94 30.44 147.94
						 C22.44 147.94 15.82 153.83 14.6 161.53 L11.99 161.53 C5.4 161.53 0 166.95 0 173.57 L0 174.46 C0 181.08 5.4
						 186.5 11.99 186.5 L106.09 186.5 C112.68 186.5 118.08 181.08 118.08 174.46 L118.08 173.57 C118.08 166.95
						 112.68 161.53 106.09 161.53 Z" class="st1"/>
		</g>
		<g id="shape264-94" transform="translate(236.008,239.939) scale(1,-1)">
			<title>Sheet.264</title>
			<path d="M31.49 175.81 C27.32 182.24 20.12 186.5 11.9 186.5 C7.55 186.5 3.49 185.31 0 183.23 L31.49 175.81 Z"
					class="st7"/>
			<path d="M31.49 175.81 C27.32 182.24 20.12 186.5 11.9 186.5 C7.55 186.5 3.49 185.31 0 183.23" class="st17"/>
		</g>
		<g id="shape265-97" transform="translate(179.537,229.064) scale(1,-1)">
			<title>Sheet.265</title>
			<path d="M127.25 151.08 L126.69 151.08 C124.22 159.65 116.36 165.91 107.02 165.91 C102.95 165.91 99.16 164.71 95.97 162.65
						 C93.9 176.16 82.32 186.5 68.3 186.5 C55.71 186.5 45.07 178.17 41.52 166.7 C39.92 167.13 38.25 167.38 36.52
						 167.38 C26.91 167.38 18.97 160.32 17.52 151.08 L14.38 151.08 C6.48 151.08 0 144.58 0 136.64 L0 135.58 C0
						 127.63 6.48 121.13 14.38 121.13 L127.25 121.13 C135.16 121.13 141.63 127.63 141.63 135.58 L141.63 136.64
						 C141.63 144.58 135.16 151.08 127.25 151.08 Z" class="st18"/>
		</g>
		<g id="shape266-99" transform="translate(216.414,248.093) scale(1,-1)">
			<title>Sheet.266</title>
			<path d="M0 186.5 C5.51 186.5 9.98 182.01 9.98 176.47 L0 186.5 Z" class="st7"/>
			<path d="M0 186.5 C5.51 186.5 9.98 182.01 9.98 176.47" class="st17"/>
		</g>
		<g id="shape267-102" transform="translate(168.167,-78.5636)">
			<title>surface1.267</title>
		</g>
		<g id="group268-103" transform="translate(347.5,-57.25)">
			<title>Firewall.268</title>
			<g id="shape269-104" transform="translate(0.553845,-7.76005)">
				<title>Sheet.269</title>
				<g id="shadow269-105" transform="matrix(1,0,0.259988,0.16884,-48.4877,155.011)" class="st19">
					<rect x="0" y="130.02" width="70.8923" height="56.4799" class="st20"/>
				</g>
				<rect x="0" y="130.02" width="70.8923" height="56.4799" class="st21"/>
			</g>
			<g id="shape270-113" transform="translate(0.803845,-8.01005)">
				<title>Sheet.270</title>
				<g id="shadow270-114" transform="matrix(1,0,0.259988,0.16884,-48.4877,155.011)" class="st19">
					<path d="M0 178.5 L70.39 178.5" class="st22"/>
					<path d="M0 170.51 L70.39 170.51" class="st22"/>
					<path d="M0 162.51 L70.39 162.51" class="st22"/>
					<path d="M0 154.51 L70.39 154.51" class="st22"/>
					<path d="M0 146.51 L70.39 146.51" class="st22"/>
					<path d="M0 138.52 L70.39 138.52" class="st22"/>
					<path d="M17.6 186.5 L17.6 178.5" class="st22"/>
					<path d="M35.2 186.5 L35.2 178.5" class="st22"/>
					<path d="M52.79 186.5 L52.79 178.5" class="st22"/>
					<path d="M8.8 178.5 L8.8 170.51" class="st22"/>
					<path d="M26.4 178.5 L26.4 170.51" class="st22"/>
					<path d="M44 178.5 L44 170.51" class="st22"/>
					<path d="M61.59 178.5 L61.59 170.51" class="st22"/>
					<path d="M17.6 170.51 L17.6 162.51" class="st22"/>
					<path d="M35.2 170.51 L35.2 162.51" class="st22"/>
					<path d="M52.79 170.51 L52.79 162.51" class="st22"/>
					<path d="M8.8 162.51 L8.8 154.51" class="st22"/>
					<path d="M26.4 162.51 L26.4 154.51" class="st22"/>
					<path d="M44 162.51 L44 154.51" class="st22"/>
					<path d="M61.59 162.51 L61.59 154.51" class="st22"/>
					<path d="M17.6 154.51 L17.6 146.51" class="st22"/>
					<path d="M35.2 154.51 L35.2 146.51" class="st22"/>
					<path d="M52.79 154.51 L52.79 146.51" class="st22"/>
					<path d="M8.8 146.51 L8.8 138.52" class="st22"/>
					<path d="M26.4 146.51 L26.4 138.52" class="st22"/>
					<path d="M44 146.51 L44 138.52" class="st22"/>
					<path d="M61.59 146.51 L61.59 138.52" class="st22"/>
					<path d="M17.6 138.52 L17.6 130.52" class="st22"/>
					<path d="M35.2 138.52 L35.2 130.52" class="st22"/>
					<path d="M52.79 138.52 L52.79 130.52" class="st22"/>
				</g>
				<path d="M0 178.5 L70.39 178.5" class="st23"/>
				<path d="M0 170.51 L70.39 170.51" class="st23"/>
				<path d="M0 162.51 L70.39 162.51" class="st23"/>
				<path d="M0 154.51 L70.39 154.51" class="st23"/>
				<path d="M0 146.51 L70.39 146.51" class="st23"/>
				<path d="M0 138.52 L70.39 138.52" class="st23"/>
				<path d="M17.6 186.5 L17.6 178.5" class="st23"/>
				<path d="M35.2 186.5 L35.2 178.5" class="st23"/>
				<path d="M52.79 186.5 L52.79 178.5" class="st23"/>
				<path d="M8.8 178.5 L8.8 170.51" class="st23"/>
				<path d="M26.4 178.5 L26.4 170.51" class="st23"/>
				<path d="M44 178.5 L44 170.51" class="st23"/>
				<path d="M61.59 178.5 L61.59 170.51" class="st23"/>
				<path d="M17.6 170.51 L17.6 162.51" class="st23"/>
				<path d="M35.2 170.51 L35.2 162.51" class="st23"/>
				<path d="M52.79 170.51 L52.79 162.51" class="st23"/>
				<path d="M8.8 162.51 L8.8 154.51" class="st23"/>
				<path d="M26.4 162.51 L26.4 154.51" class="st23"/>
				<path d="M44 162.51 L44 154.51" class="st23"/>
				<path d="M61.59 162.51 L61.59 154.51" class="st23"/>
				<path d="M17.6 154.51 L17.6 146.51" class="st23"/>
				<path d="M35.2 154.51 L35.2 146.51" class="st23"/>
				<path d="M52.79 154.51 L52.79 146.51" class="st23"/>
				<path d="M8.8 146.51 L8.8 138.52" class="st23"/>
				<path d="M26.4 146.51 L26.4 138.52" class="st23"/>
				<path d="M44 146.51 L44 138.52" class="st23"/>
				<path d="M61.59 146.51 L61.59 138.52" class="st23"/>
				<path d="M17.6 138.52 L17.6 130.52" class="st23"/>
				<path d="M35.2 138.52 L35.2 130.52" class="st23"/>
				<path d="M52.79 138.52 L52.79 130.52" class="st23"/>
			</g>
		</g>
		<g id="group271-179" transform="translate(439.75,-42.625)">
			<title>Sheet.271</title>
			<g id="group272-180" transform="translate(1.93119E-06,-18.1589)">
				<title>Sheet.272</title>
				<g id="group273-181">
					<title>surface1</title>
					<g id="shape274-182" transform="translate(0.00617531,-43.1153)">
						<title>Sheet.274</title>
						<path d="M58.49 178.8 L0 178.8 L0 186.5 L58.49 186.5 L58.49 178.8 Z" class="st6"/>
					</g>
					<g id="shape275-184" transform="translate(0.00617531,-21.5669)">
						<title>Sheet.275</title>
						<path d="M58.49 178.8 L0 178.8 L0 186.5 L58.49 186.5 L58.49 178.8 Z" class="st6"/>
					</g>
					<g id="shape276-186" transform="translate(0.00617531,-0.0185271)">
						<title>Sheet.276</title>
						<path d="M58.49 178.8 L0 178.8 L0 186.5 L58.49 186.5 L58.49 178.8 Z" class="st6"/>
					</g>
					<g id="shape277-188" transform="translate(0.605258,-43.1153)">
						<title>Sheet.277</title>
						<path d="M0 186.5 L57.12 186.5 L0 186.5 Z" class="st7"/>
						<path d="M0 186.5 L57.12 186.5" class="st24"/>
					</g>
					<g id="shape278-191" transform="translate(0.0061761,-21.5669)">
						<title>Sheet.278</title>
						<path d="M0 186.5 L57.72 186.5 L0 186.5 Z" class="st7"/>
						<path d="M0 186.5 L57.72 186.5" class="st24"/>
					</g>
					<g id="shape279-194" transform="translate(49.2544,314.494) scale(1,-1)">
						<title>Sheet.279</title>
						<path d="M0 186.5 L0 180.34 L0 186.5 Z" class="st7"/>
						<path d="M0 186.5 L0 180.34" class="st24"/>
					</g>
					<g id="shape280-197" transform="translate(43.103,314.494) scale(1,-1)">
						<title>Sheet.280</title>
						<path d="M0 186.5 L0 180.34 L0 186.5 Z" class="st7"/>
						<path d="M0 186.5 L0 180.34" class="st24"/>
					</g>
					<g id="shape281-200" transform="translate(36.9454,314.494) scale(1,-1)">
						<title>Sheet.281</title>
						<path d="M0 186.5 L0 180.34 L0 186.5 Z" class="st7"/>
						<path d="M0 186.5 L0 180.34" class="st24"/>
					</g>
					<g id="shape282-203" transform="translate(9.23944,357.591) scale(1,-1)">
						<title>Sheet.282</title>
						<path d="M4.62 177.27 L0 181.89 L4.62 186.5 L9.23 181.89 L4.62 177.27 Z" class="st25"/>
					</g>
					<g id="shape283-205" transform="translate(9.23944,336.042) scale(1,-1)">
						<title>Sheet.283</title>
						<path d="M4.62 177.27 L0 181.89 L4.62 186.5 L9.23 181.89 L4.62 177.27 Z" class="st25"/>
					</g>
					<g id="shape284-207" transform="translate(9.23944,314.494) scale(1,-1)">
						<title>Sheet.284</title>
						<path d="M4.62 177.27 L0 181.89 L4.62 186.5 L9.23 181.89 L4.62 177.27 Z" class="st25"/>
					</g>
					<g id="shape285-209" transform="translate(0,308.318) scale(1,-1)">
						<title>Sheet.285</title>
						<path d="M0 145.87 L0.01 121.82 L58.5 121.85 L58.46 186.5 L21.52 186.48 L0.18 186.23 L0 145.87 Z"
								class="st25"/>
					</g>
				</g>
			</g>
			<g id="shape286-211">
				<title>Sheet.286</title>
				<desc>SSHD</desc>
				<rect x="0" y="166.5" width="58.5" height="20" class="st26"/>
				<text x="11.99" y="181.3" class="st27">SSHD</text>			</g>
		</g>
		<g id="shape288-214" transform="translate(316.703,-102.25)">
			<title>Dynamic connector.288</title>
			<path d="M9.54 195.5 L9.9 195.5 L122.86 195.5" class="st28"/>
		</g>
		<g id="shape289-220" transform="translate(147.5,156.652) rotate(-90)">
			<title>Side line callout.289</title>
			<desc>Firewall rule: NO inbound TCP port</desc>
			<path d="M63.4 236 L18.4 186.5" class="st30"/>
			<path d="M0 186.5 L36.8 186.5" class="st30"/>
			<rect x="140.239" y="-32.8014" width="42.2611" height="28.7996" transform="rotate(90)" class="st31"/>
			<text x="140.24" y="-25.6" transform="rotate(90)" class="st32">Firewall rule: <tspan x="143.16" dy="1.2em" class="st33">NO inbound </tspan><tspan
						x="154.5" dy="1.2em" class="st33">TCP port</tspan></text>		</g>
		<g id="shape311-228" transform="translate(292.797,-81.3337)">
			<title>Sheet.311</title>
			<rect x="0" y="162.667" width="23.9062" height="23.8326" class="st26"/>
			<!-- Unsupported Record: EmfPlusRecordTypeSetPixelOffsetMode  -->
			<svg viewBox="-0.70833 -0.70968 919.18 918.09" height="23.8326" preserveAspectRatio="none" width="23.9062" x="0"
					y="162.667">
				<clipPath id="mfid211">
					<rect x="-0.70833" y="-0.70968" width="919.18" height="918.09" id="mfid212"/>
				</clipPath>
				<g clip-path="url(#mfid211)">
					<mask id="mfid213">
						<rect width="919" height="918" fill="white" stroke="none"/>
					</mask>
					<mask id="mfid214" fill="white" stroke="none">
						<g>
							<g mask="url(#mfid213)">
								<use xlink:href="#mfid212"/>
							</g>
						</g>
					</mask>
					<defs>
						<path id="mfid215"
								d="M300420,299650 C300420,271580 291050,243500 262890,243500 L131560,243500 L131560,383870 L253520,383870 C281660,383870 300420,365150 300420,337080 Z M403620,178000 C413000,206070 413000,234150 413000,280930 L413000,337080 C413000,383870 413000,411940 384860,440010 C356720,458730 328560,468080 281660,468080 L229.29,468080 L229.29,215.73 L131560,215.73 L131560,140570 L225380,140570 L300420,215.73 L422380,215.73 L337950,140570 C366090,149930 384860,149930 403620,178000"/>
					</defs>
					<g mask="url(#mfid214)">
						<g transform="matrix(0.00065617, 0, 0, -0.00065617, 336, 607)">
							<g fill="#0273fb">
								<use xlink:href="#mfid215" fill-rule="evenodd" stroke="none"/>
								<defs>
									<path id="mfid216"
											d="M483320,68317 C254450,68317 68265,254810 68265,484030 C68265,713250 254450,899740 483320,899740 C712190,899740 898380,713250 898380,484030 C898380,254810 712190,68317 483320,68317 M966430,484030 C966430,750840 749710,967900 483320,967900 C216930,967900 212.7,750840 212.7,484030 C212.7,217220 216930,157.02 483320,157.02 C749710,157.02 966430,217220 966430,484030"/>
								</defs>
							</g>
						</g>
						<g transform="matrix(0.00065617, 0, 0, -0.00065617, 142, 777)">
							<g fill="#0273fb">
								<use xlink:href="#mfid216" fill-rule="evenodd" stroke="none"/>
								<defs>
									<path id="mfid217"
											d="M32114,533740 C296750,516150 517870,295740 535520,31956 C536720,13966 551730,172.82 569560,172.82 C570320,172.82 571090,204.79 571860,251.74 C590680,1501.4 604910,17723 603660,36484 C589430,249240 457670,436950 274560,533660 L487150,533660 L460940,507540 C447600,494240 447600,472690 460940,459400 C467600,452750 476340,449430 485080,449430 C493820,449430 502560,452750 509230,459400 L593730,543630 C607070,556930 607070,578480 593730,591770 L509230,676010 C495890,689300 474270,689300 460940,676010 C447600,662720 447600,641160 460940,627870 L487150,601740 L34385,601740 C15966,601740 866.88,587190 251.55,568840 C-355.77,550480 13735,534960 32114,533740"/>
								</defs>
							</g>
						</g>
						<g transform="matrix(0.00065617, 0, 0, -0.00065617, 467, 451)">
							<g fill="#0273fb">
								<use xlink:href="#mfid217" fill-rule="evenodd" stroke="none"/>
								<defs>
									<path id="mfid218"
											d="M84544,34185 C84544,15812 99141,751.73 117530,137.95 C117910,121.96 118300,121.96 118670,121.96 C136560,121.96 151510,13972 152690,31920 C170330,295890 391230,516450 655600,534050 C674400,535300 688620,551530 687370,570310 C686120,589070 669840,603220 651060,602030 C437840,587840 249710,456400 152770,273750 L152770,485810 L178960,459660 C185620,453010 194350,449680 203080,449680 C211810,449680 220550,453010 227200,459660 C240530,472960 240530,494530 227200,507840 L142790,592120 C129460,605430 107860,605430 94540,592120 L10116,507840 C-3211.8,494530 -3211.8,472960 10116,459660 C23436,446360 45034,446360 58362,459660 L84544,485810 Z"/>
								</defs>
							</g>
						</g>
						<g transform="matrix(0.00065617, 0, 0, -0.00065617, 0, 451)">
							<g fill="#0273fb">
								<use xlink:href="#mfid218" fill-rule="evenodd" stroke="none"/>
								<defs>
									<path id="mfid219"
											d="M571820,152490 C307180,170070 86067,390490 68413,654270 C67160,673020 50885,687190 32073,685970 C13252,684720 -980.12,668500 273.59,649740 C14497,436990 146260,249280 329370,152560 L116790,152560 L142990,178680 C156330,191980 156330,213530 142990,226820 C129660,240120 108040,240120 94700,226820 L10200,142590 C-3140.8,129300 -3140.8,107740 10200,94455 L94700,10218 C101370,3569.3 110110,244.74 118850,244.74 C127590,244.74 136330,3569.3 142990,10218 C156330,23508 156330,45067 142990,58357 L116790,84481 L569550,84481 C587970,84481 603070,99037 603680,117390 C604290,135740 590200,151260 571820,152490"/>
								</defs>
							</g>
						</g>
						<g transform="matrix(0.00065617, 0, 0, -0.00065617, 55, 918)">
							<g fill="#0273fb">
								<use xlink:href="#mfid219" fill-rule="evenodd" stroke="none"/>
								<defs>
									<path id="mfid220"
											d="M677650,142690 C664330,155990 642720,155990 629400,142690 L603220,116550 L603220,568160 C603220,586530 588630,601590 570240,602200 C569850,602210 569470,602220 569090,602220 C551200,602220 536260,588360 535060,570430 C517430,306450 296530,85896 32162,68303 C13360,67045 -866.02,50812 394.47,32047 C1590.9,14045 16589,241.91 34399,241.91 C35163,241.91 35926,273.9 36698,320.88 C249930,14517 438060,145950 534990,328590 L534990,116550 L508800,142690 C495480,155990 473880,155990 460550,142690 C447240,129390 447240,107820 460550,94516 L544980,10222 C551640,3576.7 560370,249.91 569110,249.91 C577830,249.91 586570,3576.7 593230,10222 L677650,94516 C690970,107820 690970,129390 677650,142690"/>
								</defs>
							</g>
						</g>
						<g transform="matrix(0.00065617, 0, 0, -0.00065617, 467, 863)">
							<g fill="#0273fb">
								<use xlink:href="#mfid220" fill-rule="evenodd" stroke="none"/>
							</g>
						</g>
					</g>
				</g>
			</svg>
			<rect x="0" y="162.667" width="23.9062" height="23.8326" class="st26"/>
		</g>
		<g id="shape312-231" transform="translate(184.797,-81.3337)">
			<title>Sheet.312</title>
			<rect x="0" y="162.667" width="23.9062" height="23.8326" class="st26"/>
			<!-- Unsupported Record: EmfPlusRecordTypeSetPixelOffsetMode  -->
			<svg viewBox="-0.70833 -0.70968 919.18 918.09" height="23.8326" preserveAspectRatio="none" width="23.9062" x="0"
					y="162.667">
				<clipPath id="mfid221">
					<rect x="-0.70833" y="-0.70968" width="919.18" height="918.09" id="mfid222"/>
				</clipPath>
				<g clip-path="url(#mfid221)">
					<mask id="mfid223">
						<rect width="919" height="918" fill="white" stroke="none"/>
					</mask>
					<mask id="mfid224" fill="white" stroke="none">
						<g>
							<g mask="url(#mfid223)">
								<use xlink:href="#mfid222"/>
							</g>
						</g>
					</mask>
					<defs>
						<path id="mfid225"
								d="M300420,299650 C300420,271580 291050,243500 262890,243500 L131560,243500 L131560,383870 L253520,383870 C281660,383870 300420,365150 300420,337080 Z M403620,178000 C413000,206070 413000,234150 413000,280930 L413000,337080 C413000,383870 413000,411940 384860,440010 C356720,458730 328560,468080 281660,468080 L229.29,468080 L229.29,215.73 L131560,215.73 L131560,140570 L225380,140570 L300420,215.73 L422380,215.73 L337950,140570 C366090,149930 384860,149930 403620,178000"/>
					</defs>
					<g mask="url(#mfid224)">
						<g transform="matrix(0.00065617, 0, 0, -0.00065617, 336, 607)">
							<g fill="#0273fb">
								<use xlink:href="#mfid225" fill-rule="evenodd" stroke="none"/>
								<defs>
									<path id="mfid226"
											d="M483320,68317 C254450,68317 68265,254810 68265,484030 C68265,713250 254450,899740 483320,899740 C712190,899740 898380,713250 898380,484030 C898380,254810 712190,68317 483320,68317 M966430,484030 C966430,750840 749710,967900 483320,967900 C216930,967900 212.7,750840 212.7,484030 C212.7,217220 216930,157.02 483320,157.02 C749710,157.02 966430,217220 966430,484030"/>
								</defs>
							</g>
						</g>
						<g transform="matrix(0.00065617, 0, 0, -0.00065617, 142, 777)">
							<g fill="#0273fb">
								<use xlink:href="#mfid226" fill-rule="evenodd" stroke="none"/>
								<defs>
									<path id="mfid227"
											d="M32114,533740 C296750,516150 517870,295740 535520,31956 C536720,13966 551730,172.82 569560,172.82 C570320,172.82 571090,204.79 571860,251.74 C590680,1501.4 604910,17723 603660,36484 C589430,249240 457670,436950 274560,533660 L487150,533660 L460940,507540 C447600,494240 447600,472690 460940,459400 C467600,452750 476340,449430 485080,449430 C493820,449430 502560,452750 509230,459400 L593730,543630 C607070,556930 607070,578480 593730,591770 L509230,676010 C495890,689300 474270,689300 460940,676010 C447600,662720 447600,641160 460940,627870 L487150,601740 L34385,601740 C15966,601740 866.88,587190 251.55,568840 C-355.77,550480 13735,534960 32114,533740"/>
								</defs>
							</g>
						</g>
						<g transform="matrix(0.00065617, 0, 0, -0.00065617, 467, 451)">
							<g fill="#0273fb">
								<use xlink:href="#mfid227" fill-rule="evenodd" stroke="none"/>
								<defs>
									<path id="mfid228"
											d="M84544,34185 C84544,15812 99141,751.73 117530,137.95 C117910,121.96 118300,121.96 118670,121.96 C136560,121.96 151510,13972 152690,31920 C170330,295890 391230,516450 655600,534050 C674400,535300 688620,551530 687370,570310 C686120,589070 669840,603220 651060,602030 C437840,587840 249710,456400 152770,273750 L152770,485810 L178960,459660 C185620,453010 194350,449680 203080,449680 C211810,449680 220550,453010 227200,459660 C240530,472960 240530,494530 227200,507840 L142790,592120 C129460,605430 107860,605430 94540,592120 L10116,507840 C-3211.8,494530 -3211.8,472960 10116,459660 C23436,446360 45034,446360 58362,459660 L84544,485810 Z"/>
								</defs>
							</g>
						</g>
						<g transform="matrix(0.00065617, 0, 0, -0.00065617, 0, 451)">
							<g fill="#0273fb">
								<use xlink:href="#mfid228" fill-rule="evenodd" stroke="none"/>
								<defs>
									<path id="mfid229"
											d="M571820,152490 C307180,170070 86067,390490 68413,654270 C67160,673020 50885,687190 32073,685970 C13252,684720 -980.12,668500 273.59,649740 C14497,436990 146260,249280 329370,152560 L116790,152560 L142990,178680 C156330,191980 156330,213530 142990,226820 C129660,240120 108040,240120 94700,226820 L10200,142590 C-3140.8,129300 -3140.8,107740 10200,94455 L94700,10218 C101370,3569.3 110110,244.74 118850,244.74 C127590,244.74 136330,3569.3 142990,10218 C156330,23508 156330,45067 142990,58357 L116790,84481 L569550,84481 C587970,84481 603070,99037 603680,117390 C604290,135740 590200,151260 571820,152490"/>
								</defs>
							</g>
						</g>
						<g transform="matrix(0.00065617, 0, 0, -0.00065617, 55, 918)">
							<g fill="#0273fb">
								<use xlink:href="#mfid229" fill-rule="evenodd" stroke="none"/>
								<defs>
									<path id="mfid230"
											d="M677650,142690 C664330,155990 642720,155990 629400,142690 L603220,116550 L603220,568160 C603220,586530 588630,601590 570240,602200 C569850,602210 569470,602220 569090,602220 C551200,602220 536260,588360 535060,570430 C517430,306450 296530,85896 32162,68303 C13360,67045 -866.02,50812 394.47,32047 C1590.9,14045 16589,241.91 34399,241.91 C35163,241.91 35926,273.9 36698,320.88 C249930,14517 438060,145950 534990,328590 L534990,116550 L508800,142690 C495480,155990 473880,155990 460550,142690 C447240,129390 447240,107820 460550,94516 L544980,10222 C551640,3576.7 560370,249.91 569110,249.91 C577830,249.91 586570,3576.7 593230,10222 L677650,94516 C690970,107820 690970,129390 677650,142690"/>
								</defs>
							</g>
						</g>
						<g transform="matrix(0.00065617, 0, 0, -0.00065617, 467, 863)">
							<g fill="#0273fb">
								<use xlink:href="#mfid230" fill-rule="evenodd" stroke="none"/>
							</g>
						</g>
					</g>
				</g>
			</svg>
			<rect x="0" y="162.667" width="23.9062" height="23.8326" class="st26"/>
		</g>
		<g id="shape313-234" transform="translate(239.5,-102.7)">
			<title>Sheet.313</title>
			<rect x="0" y="162.667" width="23.9062" height="23.8326" class="st26"/>
			<!-- Unsupported Record: EmfPlusRecordTypeSetPixelOffsetMode  -->
			<svg viewBox="-0.70833 -0.70968 919.18 918.09" height="23.8326" preserveAspectRatio="none" width="23.9062" x="0"
					y="162.667">
				<clipPath id="mfid231">
					<rect x="-0.70833" y="-0.70968" width="919.18" height="918.09" id="mfid232"/>
				</clipPath>
				<g clip-path="url(#mfid231)">
					<mask id="mfid233">
						<rect width="919" height="918" fill="white" stroke="none"/>
					</mask>
					<mask id="mfid234" fill="white" stroke="none">
						<g>
							<g mask="url(#mfid233)">
								<use xlink:href="#mfid232"/>
							</g>
						</g>
					</mask>
					<defs>
						<path id="mfid235"
								d="M300420,299650 C300420,271580 291050,243500 262890,243500 L131560,243500 L131560,383870 L253520,383870 C281660,383870 300420,365150 300420,337080 Z M403620,178000 C413000,206070 413000,234150 413000,280930 L413000,337080 C413000,383870 413000,411940 384860,440010 C356720,458730 328560,468080 281660,468080 L229.29,468080 L229.29,215.73 L131560,215.73 L131560,140570 L225380,140570 L300420,215.73 L422380,215.73 L337950,140570 C366090,149930 384860,149930 403620,178000"/>
					</defs>
					<g mask="url(#mfid234)">
						<g transform="matrix(0.00065617, 0, 0, -0.00065617, 336, 607)">
							<g fill="#0273fb">
								<use xlink:href="#mfid235" fill-rule="evenodd" stroke="none"/>
								<defs>
									<path id="mfid236"
											d="M483320,68317 C254450,68317 68265,254810 68265,484030 C68265,713250 254450,899740 483320,899740 C712190,899740 898380,713250 898380,484030 C898380,254810 712190,68317 483320,68317 M966430,484030 C966430,750840 749710,967900 483320,967900 C216930,967900 212.7,750840 212.7,484030 C212.7,217220 216930,157.02 483320,157.02 C749710,157.02 966430,217220 966430,484030"/>
								</defs>
							</g>
						</g>
						<g transform="matrix(0.00065617, 0, 0, -0.00065617, 142, 777)">
							<g fill="#0273fb">
								<use xlink:href="#mfid236" fill-rule="evenodd" stroke="none"/>
								<defs>
									<path id="mfid237"
											d="M32114,533740 C296750,516150 517870,295740 535520,31956 C536720,13966 551730,172.82 569560,172.82 C570320,172.82 571090,204.79 571860,251.74 C590680,1501.4 604910,17723 603660,36484 C589430,249240 457670,436950 274560,533660 L487150,533660 L460940,507540 C447600,494240 447600,472690 460940,459400 C467600,452750 476340,449430 485080,449430 C493820,449430 502560,452750 509230,459400 L593730,543630 C607070,556930 607070,578480 593730,591770 L509230,676010 C495890,689300 474270,689300 460940,676010 C447600,662720 447600,641160 460940,627870 L487150,601740 L34385,601740 C15966,601740 866.88,587190 251.55,568840 C-355.77,550480 13735,534960 32114,533740"/>
								</defs>
							</g>
						</g>
						<g transform="matrix(0.00065617, 0, 0, -0.00065617, 467, 451)">
							<g fill="#0273fb">
								<use xlink:href="#mfid237" fill-rule="evenodd" stroke="none"/>
								<defs>
									<path id="mfid238"
											d="M84544,34185 C84544,15812 99141,751.73 117530,137.95 C117910,121.96 118300,121.96 118670,121.96 C136560,121.96 151510,13972 152690,31920 C170330,295890 391230,516450 655600,534050 C674400,535300 688620,551530 687370,570310 C686120,589070 669840,603220 651060,602030 C437840,587840 249710,456400 152770,273750 L152770,485810 L178960,459660 C185620,453010 194350,449680 203080,449680 C211810,449680 220550,453010 227200,459660 C240530,472960 240530,494530 227200,507840 L142790,592120 C129460,605430 107860,605430 94540,592120 L10116,507840 C-3211.8,494530 -3211.8,472960 10116,459660 C23436,446360 45034,446360 58362,459660 L84544,485810 Z"/>
								</defs>
							</g>
						</g>
						<g transform="matrix(0.00065617, 0, 0, -0.00065617, 0, 451)">
							<g fill="#0273fb">
								<use xlink:href="#mfid238" fill-rule="evenodd" stroke="none"/>
								<defs>
									<path id="mfid239"
											d="M571820,152490 C307180,170070 86067,390490 68413,654270 C67160,673020 50885,687190 32073,685970 C13252,684720 -980.12,668500 273.59,649740 C14497,436990 146260,249280 329370,152560 L116790,152560 L142990,178680 C156330,191980 156330,213530 142990,226820 C129660,240120 108040,240120 94700,226820 L10200,142590 C-3140.8,129300 -3140.8,107740 10200,94455 L94700,10218 C101370,3569.3 110110,244.74 118850,244.74 C127590,244.74 136330,3569.3 142990,10218 C156330,23508 156330,45067 142990,58357 L116790,84481 L569550,84481 C587970,84481 603070,99037 603680,117390 C604290,135740 590200,151260 571820,152490"/>
								</defs>
							</g>
						</g>
						<g transform="matrix(0.00065617, 0, 0, -0.00065617, 55, 918)">
							<g fill="#0273fb">
								<use xlink:href="#mfid239" fill-rule="evenodd" stroke="none"/>
								<defs>
									<path id="mfid240"
											d="M677650,142690 C664330,155990 642720,155990 629400,142690 L603220,116550 L603220,568160 C603220,586530 588630,601590 570240,602200 C569850,602210 569470,602220 569090,602220 C551200,602220 536260,588360 535060,570430 C517430,306450 296530,85896 32162,68303 C13360,67045 -866.02,50812 394.47,32047 C1590.9,14045 16589,241.91 34399,241.91 C35163,241.91 35926,273.9 36698,320.88 C249930,14517 438060,145950 534990,328590 L534990,116550 L508800,142690 C495480,155990 473880,155990 460550,142690 C447240,129390 447240,107820 460550,94516 L544980,10222 C551640,3576.7 560370,249.91 569110,249.91 C577830,249.91 586570,3576.7 593230,10222 L677650,94516 C690970,107820 690970,129390 677650,142690"/>
								</defs>
							</g>
						</g>
						<g transform="matrix(0.00065617, 0, 0, -0.00065617, 467, 863)">
							<g fill="#0273fb">
								<use xlink:href="#mfid240" fill-rule="evenodd" stroke="none"/>
							</g>
						</g>
					</g>
				</g>
			</svg>
			<rect x="0" y="162.667" width="23.9062" height="23.8326" class="st26"/>
		</g>
		<g id="shape315-237" transform="translate(208.703,-94.9334)">
			<title>Dynamic connector.315</title>
			<path d="M7.88 180.44 L8.22 180.31 L22.58 174.69" class="st34"/>
		</g>
		<g id="shape316-246" transform="translate(263.406,-112.933)">
			<title>Dynamic connector.316</title>
			<path d="M7.85 192.76 L8.19 192.89 L21.2 198.11" class="st34"/>
		</g>
		<g id="shape317-253" transform="translate(208.703,-84.25)">
			<title>Dynamic connector.317</title>
			<path d="M8.46 177.5 L8.82 177.5 L75.27 177.5" class="st34"/>
		</g>
		<g id="shape224-260" transform="translate(150.375,-84.25)">
			<title>Dynamic connector.224</title>
			<path d="M0 177.5 L22.36 177.5" class="st36"/>
		</g>
		<g id="shape318-266" transform="translate(219.25,-64.125)">
			<title>surface1.318</title>
			<desc>Ziti Network</desc>
			<rect x="0" y="176.375" width="65.25" height="10.125" class="st38"/>
			<text x="2.55" y="185.04" class="st39">Ziti Network</text>		</g>
	</g>
</svg>
